<?xml version="1.0" encoding="UTF-8" standalone="no"?>
<!DOCTYPE svg PUBLIC "-//W3C//DTD SVG 1.1//EN"
 "http://www.w3.org/Graphics/SVG/1.1/DTD/svg11.dtd">
<!-- Generated by graphviz version 2.38.0 (20140413.2041)
 -->
<!-- Title: koala.Spreadsheet.Spreadsheet.clean_pointer Pages: 1 -->
<!--zoomable 204 -->
<svg id="main" version="1.1" xmlns="http://www.w3.org/2000/svg" xmlns:xlink="http://www.w3.org/1999/xlink" xml:space="preserve" onload="init(evt)">
<style type="text/css"><![CDATA[
.edge:hover path { stroke: red; }
.edge:hover polygon { stroke: red; fill: red; }
]]></style>
<script type="text/javascript"><![CDATA[
var edges = document.getElementsByTagName('g');
if (edges && edges.length) {
  for (var i=0;i<edges.length;i++) {
    if (edges[i].id.substr(0,4)=='edge') {
      edges[i].setAttribute('class','edge');
    }
  }
}
]]></script>
        <defs>
                <circle id="rim" cx="0" cy="0" r="7"/>
                <circle id="rim2" cx="0" cy="0" r="3.5"/>
                <g id="zoomPlus">
                        <use xlink:href="#rim" fill="#404040">
                                <set attributeName="fill" to="#808080" begin="zoomplus.mouseover" end="zoomplus.mouseout"/>
                        </use>
                        <path d="M-4,0h8M0,-4v8" fill="none" stroke="white" stroke-width="1.5" pointer-events="none"/>
                </g>
                <g id="zoomMin">
                        <use xlink:href="#rim" fill="#404040">
                                <set attributeName="fill" to="#808080" begin="zoomminus.mouseover" end="zoomminus.mouseout"/>
                        </use>
                        <path d="M-4,0h8" fill="none" stroke="white" stroke-width="1.5" pointer-events="none"/>
                </g>
                <g id="dirArrow">
                        <path fill="none" stroke="white" stroke-width="1.5" d="M0,-3.0v7 M-2.5,-0.5L0,-3.0L2.5,-0.5"/>
                </g>
               <g id="resetDef">
                       <use xlink:href="#rim2" fill="#404040">
                               <set attributeName="fill" to="#808080" begin="reset.mouseover" end="reset.mouseout"/>
                       </use>
               </g>
        </defs>

<script type="text/javascript">
var viewWidth = 576;
var viewHeight = 204;
var sectionId = 'dynsection-19';
</script>
<script xlink:href="svgpan.js"/>
<svg id="graph" class="graph">
<g id="viewport">
<title>koala.Spreadsheet.Spreadsheet.clean_pointer</title>
<polygon fill="white" stroke="none" points="-4,4 -4,-200 572,-200 572,4 -4,4"/>
<!-- Node76 -->
<g id="node1" class="node"><title>Node76</title>
<g id="a_node1"><a xlink:title=" ">
<polygon fill="#bfbfbf" stroke="black" points="0,-105 0,-135 182,-135 182,-105 0,-105"/>
<text text-anchor="start" x="8" y="-123" font-family="Helvetica,sans-Serif" font-size="10.00">koala.Spreadsheet.Spreadsheet.clean</text>
<text text-anchor="middle" x="91" y="-112" font-family="Helvetica,sans-Serif" font-size="10.00">_pointer</text>
</a>
</g>
</g>
<!-- Node76&#45;&gt;Node76 -->
<g id="edge1" class="edge"><title>Node76&#45;&gt;Node76</title>
<path fill="none" stroke="midnightblue" d="M53.7061,-135.159C44.7132,-144.557 57.1445,-153.5 91,-153.5 111.631,-153.5 124.306,-150.179 129.025,-145.458"/>
<polygon fill="midnightblue" stroke="midnightblue" points="132.494,-144.886 128.294,-135.159 125.511,-145.382 132.494,-144.886"/>
</g>
<!-- Node77 -->
<g id="node2" class="node"><title>Node77</title>
<g id="a_node2"><a xlink:href="namespacekoala_1_1utils.html#a152ac1827f4fdbd036d6e67cdf3acebb" target="_top" xlink:title=" ">
<polygon fill="white" stroke="black" points="255,-176.5 255,-195.5 356,-195.5 356,-176.5 255,-176.5"/>
<text text-anchor="middle" x="305.5" y="-183.5" font-family="Helvetica,sans-Serif" font-size="10.00">koala.utils.is_range</text>
</a>
</g>
</g>
<!-- Node76&#45;&gt;Node77 -->
<g id="edge2" class="edge"><title>Node76&#45;&gt;Node77</title>
<path fill="none" stroke="midnightblue" d="M128.205,-135.055C153.143,-145.039 187.207,-157.924 218,-167 226.773,-169.586 236.139,-171.996 245.349,-174.172"/>
<polygon fill="midnightblue" stroke="midnightblue" points="244.717,-177.618 255.246,-176.439 246.28,-170.794 244.717,-177.618"/>
</g>
<!-- Node78 -->
<g id="node3" class="node"><title>Node78</title>
<g id="a_node3"><a xlink:href="namespacekoala_1_1_range.html#a6a4a2138705cb8cc069ddf925e74d2c1" target="_top" xlink:title=" ">
<polygon fill="white" stroke="black" points="246.5,-127 246.5,-157 364.5,-157 364.5,-127 246.5,-127"/>
<text text-anchor="start" x="254.5" y="-145" font-family="Helvetica,sans-Serif" font-size="10.00">koala.Range.parse_cell</text>
<text text-anchor="middle" x="305.5" y="-134" font-family="Helvetica,sans-Serif" font-size="10.00">_address</text>
</a>
</g>
</g>
<!-- Node76&#45;&gt;Node78 -->
<g id="edge3" class="edge"><title>Node76&#45;&gt;Node78</title>
<path fill="none" stroke="midnightblue" d="M182.119,-129.33C200.275,-131.21 219.074,-133.156 236.329,-134.942"/>
<polygon fill="midnightblue" stroke="midnightblue" points="235.986,-138.425 246.293,-135.974 236.707,-131.463 235.986,-138.425"/>
</g>
<!-- Node79 -->
<g id="node4" class="node"><title>Node79</title>
<g id="a_node4"><a xlink:href="namespacekoala_1_1tokenizer.html#a7f139df974dde56bd118de8edbc7356a" target="_top" xlink:title=" ">
<polygon fill="white" stroke="black" points="232.5,-88.5 232.5,-107.5 378.5,-107.5 378.5,-88.5 232.5,-88.5"/>
<text text-anchor="middle" x="305.5" y="-95.5" font-family="Helvetica,sans-Serif" font-size="10.00">koala.tokenizer.shunting_yard</text>
</a>
</g>
</g>
<!-- Node76&#45;&gt;Node79 -->
<g id="edge4" class="edge"><title>Node76&#45;&gt;Node79</title>
<path fill="none" stroke="midnightblue" d="M182.119,-110.67C195.46,-109.289 209.148,-107.872 222.316,-106.508"/>
<polygon fill="midnightblue" stroke="midnightblue" points="222.684,-109.989 232.27,-105.478 221.963,-103.026 222.684,-109.989"/>
</g>
<!-- Node81 -->
<g id="node6" class="node"><title>Node81</title>
<g id="a_node6"><a xlink:href="classkoala_1_1_spreadsheet_1_1_spreadsheet.html#af4c45ee9335aadc10ba61c0db30a33b2" target="_top" xlink:title=" ">
<polygon fill="white" stroke="black" points="218,-21 218,-51 393,-51 393,-21 218,-21"/>
<text text-anchor="start" x="226" y="-39" font-family="Helvetica,sans-Serif" font-size="10.00">koala.Spreadsheet.Spreadsheet.eval</text>
<text text-anchor="middle" x="305.5" y="-28" font-family="Helvetica,sans-Serif" font-size="10.00">_pointers_from_ast</text>
</a>
</g>
</g>
<!-- Node76&#45;&gt;Node81 -->
<g id="edge6" class="edge"><title>Node76&#45;&gt;Node81</title>
<path fill="none" stroke="midnightblue" d="M129.991,-104.982C165.538,-90.9309 218.762,-69.8916 257.08,-54.7449"/>
<polygon fill="midnightblue" stroke="midnightblue" points="258.467,-57.96 266.481,-51.0289 255.894,-51.4502 258.467,-57.96"/>
</g>
<!-- Node80 -->
<g id="node5" class="node"><title>Node80</title>
<g id="a_node5"><a xlink:href="namespacekoala_1_1tokenizer.html#a16d87c96a27770230fe1b3fdeea03586" target="_top" xlink:title=" ">
<polygon fill="white" stroke="black" points="429,-88.5 429,-107.5 568,-107.5 568,-88.5 429,-88.5"/>
<text text-anchor="middle" x="498.5" y="-95.5" font-family="Helvetica,sans-Serif" font-size="10.00">koala.tokenizer.create_node</text>
</a>
</g>
</g>
<!-- Node79&#45;&gt;Node80 -->
<g id="edge5" class="edge"><title>Node79&#45;&gt;Node80</title>
<path fill="none" stroke="midnightblue" d="M378.709,-98C391.841,-98 405.6,-98 418.905,-98"/>
<polygon fill="midnightblue" stroke="midnightblue" points="418.975,-101.5 428.975,-98 418.975,-94.5001 418.975,-101.5"/>
</g>
<!-- Node81&#45;&gt;Node81 -->
<g id="edge8" class="edge"><title>Node81&#45;&gt;Node81</title>
<path fill="none" stroke="midnightblue" d="M272.04,-51.159C263.972,-60.5566 275.125,-69.5 305.5,-69.5 324.01,-69.5 335.382,-66.179 339.616,-61.4579"/>
<polygon fill="midnightblue" stroke="midnightblue" points="343.089,-60.9162 338.96,-51.159 336.103,-61.3613 343.089,-60.9162"/>
</g>
<!-- Node82 -->
<g id="node7" class="node"><title>Node82</title>
<g id="a_node7"><a xlink:href="namespacekoala_1_1tokenizer.html#aad729e834025da12ee669f20324a9eb8" target="_top" xlink:title=" ">
<polygon fill="white" stroke="black" points="431,-38.5 431,-57.5 566,-57.5 566,-38.5 431,-38.5"/>
<text text-anchor="middle" x="498.5" y="-45.5" font-family="Helvetica,sans-Serif" font-size="10.00">koala.tokenizer.reverse_rpn</text>
</a>
</g>
</g>
<!-- Node81&#45;&gt;Node82 -->
<g id="edge7" class="edge"><title>Node81&#45;&gt;Node82</title>
<path fill="none" stroke="midnightblue" d="M393.059,-41.4382C402.31,-42.0195 411.674,-42.6078 420.799,-43.1811"/>
<polygon fill="midnightblue" stroke="midnightblue" points="420.783,-46.6869 430.982,-43.8209 421.222,-39.7006 420.783,-46.6869"/>
</g>
<!-- Node83 -->
<g id="node8" class="node"><title>Node83</title>
<g id="a_node8"><a xlink:href="namespacekoala_1_1utils.html#aabb45efe6343cf3795888c77a434d47d" target="_top" xlink:title=" ">
<polygon fill="white" stroke="black" points="453.5,-0.5 453.5,-19.5 543.5,-19.5 543.5,-0.5 453.5,-0.5"/>
<text text-anchor="middle" x="498.5" y="-7.5" font-family="Helvetica,sans-Serif" font-size="10.00">koala.utils.flatten</text>
</a>
</g>
</g>
<!-- Node81&#45;&gt;Node83 -->
<g id="edge9" class="edge"><title>Node81&#45;&gt;Node83</title>
<path fill="none" stroke="midnightblue" d="M393.059,-24.2172C410.143,-21.8916 427.612,-19.5136 443.253,-17.3844"/>
<polygon fill="midnightblue" stroke="midnightblue" points="443.809,-20.8411 453.246,-16.0241 442.865,-13.905 443.809,-20.8411"/>
</g>
</g>
</svg>
        <g id="navigator" transform="translate(0 0)" fill="#404254">
                <rect fill="#f2f5e9" fill-opacity="0.5" stroke="#606060" stroke-width=".5" x="0" y="0" width="60" height="60"/>
                <use id="zoomplus" xlink:href="#zoomPlus" x="17" y="9" onmousedown="handleZoom(evt,'in')"/>
                <use id="zoomminus" xlink:href="#zoomMin" x="42" y="9" onmousedown="handleZoom(evt,'out')"/>
                <use id="reset" xlink:href="#resetDef" x="30" y="36" onmousedown="handleReset()"/>
                <g id="arrowUp" xlink:href="#dirArrow" transform="translate(30 24)" onmousedown="handlePan(0,-1)">
                  <use xlink:href="#rim" fill="#404040">
                        <set attributeName="fill" to="#808080" begin="arrowUp.mouseover" end="arrowUp.mouseout"/>
                  </use>
                  <path fill="none" stroke="white" stroke-width="1.5" d="M0,-3.0v7 M-2.5,-0.5L0,-3.0L2.5,-0.5"/>
                </g>
                <g id="arrowRight" xlink:href="#dirArrow" transform="rotate(90) translate(36 -43)" onmousedown="handlePan(1,0)">
                  <use xlink:href="#rim" fill="#404040">
                        <set attributeName="fill" to="#808080" begin="arrowRight.mouseover" end="arrowRight.mouseout"/>
                  </use>
                  <path fill="none" stroke="white" stroke-width="1.5" d="M0,-3.0v7 M-2.5,-0.5L0,-3.0L2.5,-0.5"/>
                </g>
                <g id="arrowDown" xlink:href="#dirArrow" transform="rotate(180) translate(-30 -48)" onmousedown="handlePan(0,1)">
                  <use xlink:href="#rim" fill="#404040">
                        <set attributeName="fill" to="#808080" begin="arrowDown.mouseover" end="arrowDown.mouseout"/>
                  </use>
                  <path fill="none" stroke="white" stroke-width="1.5" d="M0,-3.0v7 M-2.5,-0.5L0,-3.0L2.5,-0.5"/>
                </g>
                <g id="arrowLeft" xlink:href="#dirArrow" transform="rotate(270) translate(-36 17)" onmousedown="handlePan(-1,0)">
                  <use xlink:href="#rim" fill="#404040">
                        <set attributeName="fill" to="#808080" begin="arrowLeft.mouseover" end="arrowLeft.mouseout"/>
                  </use>
                  <path fill="none" stroke="white" stroke-width="1.5" d="M0,-3.0v7 M-2.5,-0.5L0,-3.0L2.5,-0.5"/>
                </g>
        </g>
        <svg viewBox="0 0 15 15" width="100%" height="30px" preserveAspectRatio="xMaxYMin meet">
         <g id="arrow_out" transform="scale(0.3 0.3)">
          <a xlink:href="classkoala_1_1_spreadsheet_1_1_spreadsheet_a13c2cbec203d01d4d8404e3954dd27d7_cgraph_org.svg" target="_base">
           <rect id="button" ry="5" rx="5" y="6" x="6" height="38" width="38"
                fill="#f2f5e9" fill-opacity="0.5" stroke="#606060" stroke-width="1.0"/>
           <path id="arrow"
             d="M 11.500037,31.436501 C 11.940474,20.09759 22.043105,11.32322 32.158766,21.979434 L 37.068811,17.246167 C 37.068811,17.246167 37.088388,32 37.088388,32 L 22.160133,31.978069 C 22.160133,31.978069 26.997745,27.140456 26.997745,27.140456 C 18.528582,18.264221 13.291696,25.230495 11.500037,31.436501 z"
             style="fill:#404040;"/>
          </a>
         </g>
        </svg>
</svg>
