<?xml version="1.0" encoding="UTF-8" standalone="no"?>
<!DOCTYPE svg PUBLIC "-//W3C//DTD SVG 1.1//EN"
 "http://www.w3.org/Graphics/SVG/1.1/DTD/svg11.dtd">
<!-- Generated by graphviz version 2.38.0 (20140413.2041)
 -->
<!-- Title: koala.ast.astnodes.FunctionNode.emit Pages: 1 -->
<svg width="364pt" height="66pt"
 viewBox="0.00 0.00 364.00 66.00" xmlns="http://www.w3.org/2000/svg" xmlns:xlink="http://www.w3.org/1999/xlink">
<g id="graph0" class="graph" transform="scale(1 1) rotate(0) translate(4 62)">
<title>koala.ast.astnodes.FunctionNode.emit</title>
<polygon fill="white" stroke="none" points="-4,4 -4,-62 360,-62 360,4 -4,4"/>
<!-- Node2 -->
<g id="node1" class="node"><title>Node2</title>
<g id="a_node1"><a xlink:title=" ">
<polygon fill="#bfbfbf" stroke="black" points="0,-14 0,-44 140,-44 140,-14 0,-14"/>
<text text-anchor="start" x="8" y="-32" font-family="Helvetica,sans-Serif" font-size="10.00">koala.ast.astnodes.Function</text>
<text text-anchor="middle" x="70" y="-21" font-family="Helvetica,sans-Serif" font-size="10.00">Node.emit</text>
</a>
</g>
</g>
<!-- Node3 -->
<g id="node2" class="node"><title>Node3</title>
<g id="a_node2"><a xlink:href="classkoala_1_1ast_1_1astnodes_1_1_a_s_t_node.html#a9322df59c36ac87385501b4f0d5a25ec" target="_top" xlink:title=" ">
<polygon fill="white" stroke="black" points="176,-38.5 176,-57.5 356,-57.5 356,-38.5 176,-38.5"/>
<text text-anchor="middle" x="266" y="-45.5" font-family="Helvetica,sans-Serif" font-size="10.00">koala.ast.astnodes.ASTNode.children</text>
</a>
</g>
</g>
<!-- Node2&#45;&gt;Node3 -->
<g id="edge1" class="edge"><title>Node2&#45;&gt;Node3</title>
<path fill="none" stroke="midnightblue" d="M140.217,-35.779C148.507,-36.5909 157.093,-37.4318 165.704,-38.2751"/>
<polygon fill="midnightblue" stroke="midnightblue" points="165.513,-41.7731 175.806,-39.2645 166.195,-34.8064 165.513,-41.7731"/>
</g>
<!-- Node4 -->
<g id="node3" class="node"><title>Node4</title>
<g id="a_node3"><a xlink:href="classkoala_1_1ast_1_1astnodes_1_1_a_s_t_node.html#a4315a509937cca2f94858d060fc461f7" target="_top" xlink:title=" ">
<polygon fill="white" stroke="black" points="179.5,-0.5 179.5,-19.5 352.5,-19.5 352.5,-0.5 179.5,-0.5"/>
<text text-anchor="middle" x="266" y="-7.5" font-family="Helvetica,sans-Serif" font-size="10.00">koala.ast.astnodes.ASTNode.parent</text>
</a>
</g>
</g>
<!-- Node2&#45;&gt;Node4 -->
<g id="edge2" class="edge"><title>Node2&#45;&gt;Node4</title>
<path fill="none" stroke="midnightblue" d="M140.217,-22.221C149.585,-21.3035 159.331,-20.349 169.063,-19.3959"/>
<polygon fill="midnightblue" stroke="midnightblue" points="169.572,-22.8629 179.183,-18.4048 168.889,-15.8962 169.572,-22.8629"/>
</g>
</g>
</svg>
