<?xml version="1.0" encoding="UTF-8" standalone="no"?>
<!DOCTYPE svg PUBLIC "-//W3C//DTD SVG 1.1//EN"
 "http://www.w3.org/Graphics/SVG/1.1/DTD/svg11.dtd">
<!-- Generated by graphviz version 2.38.0 (20140413.2041)
 -->
<!-- Title: koala.Cell.Cell.asdict Pages: 1 -->
<svg width="268pt" height="142pt"
 viewBox="0.00 0.00 268.00 142.00" xmlns="http://www.w3.org/2000/svg" xmlns:xlink="http://www.w3.org/1999/xlink">
<g id="graph0" class="graph" transform="scale(1 1) rotate(0) translate(4 138)">
<title>koala.Cell.Cell.asdict</title>
<polygon fill="white" stroke="none" points="-4,4 -4,-138 264,-138 264,4 -4,4"/>
<!-- Node24 -->
<g id="node1" class="node"><title>Node24</title>
<g id="a_node1"><a xlink:title=" ">
<polygon fill="#bfbfbf" stroke="black" points="0,-57.5 0,-76.5 108,-76.5 108,-57.5 0,-57.5"/>
<text text-anchor="middle" x="54" y="-64.5" font-family="Helvetica,sans-Serif" font-size="10.00">koala.Cell.Cell.asdict</text>
</a>
</g>
</g>
<!-- Node25 -->
<g id="node2" class="node"><title>Node25</title>
<g id="a_node2"><a xlink:href="classkoala_1_1_cell_1_1_cell.html#a10652b432fa62181fe40466e2ddeb5e2" target="_top" xlink:title=" ">
<polygon fill="white" stroke="black" points="149,-114.5 149,-133.5 255,-133.5 255,-114.5 149,-114.5"/>
<text text-anchor="middle" x="202" y="-121.5" font-family="Helvetica,sans-Serif" font-size="10.00">koala.Cell.Cell.range</text>
</a>
</g>
</g>
<!-- Node24&#45;&gt;Node25 -->
<g id="edge1" class="edge"><title>Node24&#45;&gt;Node25</title>
<path fill="none" stroke="midnightblue" d="M76.0212,-76.5515C93.9318,-84.5502 120.438,-96.0599 144,-105 149.561,-107.11 155.472,-109.222 161.301,-111.232"/>
<polygon fill="midnightblue" stroke="midnightblue" points="160.365,-114.61 170.959,-114.497 162.607,-107.978 160.365,-114.61"/>
</g>
<!-- Node26 -->
<g id="node3" class="node"><title>Node26</title>
<g id="a_node3"><a xlink:href="classkoala_1_1_cell_1_1_cell.html#af71a877dc1e570e97d5fdaeadc03dcc8" target="_top" xlink:title=" ">
<polygon fill="white" stroke="black" points="150,-76.5 150,-95.5 254,-95.5 254,-76.5 150,-76.5"/>
<text text-anchor="middle" x="202" y="-83.5" font-family="Helvetica,sans-Serif" font-size="10.00">koala.Cell.Cell.value</text>
</a>
</g>
</g>
<!-- Node24&#45;&gt;Node26 -->
<g id="edge2" class="edge"><title>Node24&#45;&gt;Node26</title>
<path fill="none" stroke="midnightblue" d="M108.122,-73.9132C118.379,-75.2479 129.202,-76.6565 139.695,-78.0219"/>
<polygon fill="midnightblue" stroke="midnightblue" points="139.256,-81.4942 149.624,-79.314 140.159,-74.5527 139.256,-81.4942"/>
</g>
<!-- Node27 -->
<g id="node4" class="node"><title>Node27</title>
<g id="a_node4"><a xlink:href="classkoala_1_1_cell_1_1_cell.html#a8612ef40e31a05ab02d6a1d9280ac446" target="_top" xlink:title=" ">
<polygon fill="white" stroke="black" points="144,-38.5 144,-57.5 260,-57.5 260,-38.5 144,-38.5"/>
<text text-anchor="middle" x="202" y="-45.5" font-family="Helvetica,sans-Serif" font-size="10.00">koala.Cell.Cell.address</text>
</a>
</g>
</g>
<!-- Node24&#45;&gt;Node27 -->
<g id="edge3" class="edge"><title>Node24&#45;&gt;Node27</title>
<path fill="none" stroke="midnightblue" d="M108.122,-60.0868C116.444,-59.0039 125.138,-57.8724 133.727,-56.7548"/>
<polygon fill="midnightblue" stroke="midnightblue" points="134.266,-60.2142 143.731,-55.4529 133.363,-53.2727 134.266,-60.2142"/>
</g>
<!-- Node28 -->
<g id="node5" class="node"><title>Node28</title>
<g id="a_node5"><a xlink:href="classkoala_1_1_cell_1_1_cell.html#adda37b33a7b16006992d8f391e82e078" target="_top" xlink:title=" ">
<polygon fill="white" stroke="black" points="145.5,-0.5 145.5,-19.5 258.5,-19.5 258.5,-0.5 145.5,-0.5"/>
<text text-anchor="middle" x="202" y="-7.5" font-family="Helvetica,sans-Serif" font-size="10.00">koala.Cell.Cell.formula</text>
</a>
</g>
</g>
<!-- Node24&#45;&gt;Node28 -->
<g id="edge4" class="edge"><title>Node24&#45;&gt;Node28</title>
<path fill="none" stroke="midnightblue" d="M76.0212,-57.4485C93.9318,-49.4498 120.438,-37.9401 144,-29 149.561,-26.8902 155.472,-24.7777 161.301,-22.7684"/>
<polygon fill="midnightblue" stroke="midnightblue" points="162.607,-26.0217 170.959,-19.503 160.365,-19.3905 162.607,-26.0217"/>
</g>
</g>
</svg>
