<?xml version="1.0" encoding="UTF-8" standalone="no"?>
<!DOCTYPE svg PUBLIC "-//W3C//DTD SVG 1.1//EN"
 "http://www.w3.org/Graphics/SVG/1.1/DTD/svg11.dtd">
<!-- Generated by graphviz version 2.38.0 (20140413.2041)
 -->
<!-- Title: koala.Range.RangeCore.values Pages: 1 -->
<svg width="711pt" height="85pt"
 viewBox="0.00 0.00 711.00 85.00" xmlns="http://www.w3.org/2000/svg" xmlns:xlink="http://www.w3.org/1999/xlink">
<g id="graph0" class="graph" transform="scale(1 1) rotate(0) translate(4 81)">
<title>koala.Range.RangeCore.values</title>
<polygon fill="white" stroke="none" points="-4,4 -4,-81 707,-81 707,4 -4,4"/>
<!-- Node134 -->
<g id="node1" class="node"><title>Node134</title>
<g id="a_node1"><a xlink:title=" ">
<polygon fill="#bfbfbf" stroke="black" points="0,-19.5 0,-38.5 152,-38.5 152,-19.5 0,-19.5"/>
<text text-anchor="middle" x="76" y="-26.5" font-family="Helvetica,sans-Serif" font-size="10.00">koala.Range.RangeCore.values</text>
</a>
</g>
</g>
<!-- Node135 -->
<g id="node2" class="node"><title>Node135</title>
<g id="a_node2"><a xlink:href="classkoala_1_1_range_1_1_range_core.html#a892d149aed9e699ead26e8647200d859" target="_top" xlink:title=" ">
<polygon fill="white" stroke="black" points="188,-57.5 188,-76.5 340,-76.5 340,-57.5 188,-57.5"/>
<text text-anchor="middle" x="264" y="-64.5" font-family="Helvetica,sans-Serif" font-size="10.00">koala.Range.RangeCore.values</text>
</a>
</g>
</g>
<!-- Node134&#45;&gt;Node135 -->
<g id="edge1" class="edge"><title>Node134&#45;&gt;Node135</title>
<path fill="none" stroke="midnightblue" d="M123.936,-38.589C149.033,-43.7165 180.119,-50.0672 206.53,-55.4632"/>
<polygon fill="midnightblue" stroke="midnightblue" points="205.904,-58.9074 216.402,-57.4799 207.305,-52.049 205.904,-58.9074"/>
</g>
<!-- Node136 -->
<g id="node3" class="node"><title>Node136</title>
<g id="a_node3"><a xlink:href="classkoala_1_1_range_1_1_range_core.html#ac19e8ad2bbd1538974240f9be227c9f0" target="_top" xlink:title=" ">
<polygon fill="white" stroke="black" points="376,-19.5 376,-38.5 521,-38.5 521,-19.5 376,-19.5"/>
<text text-anchor="middle" x="448.5" y="-26.5" font-family="Helvetica,sans-Serif" font-size="10.00">koala.Range.RangeCore.cells</text>
</a>
</g>
</g>
<!-- Node134&#45;&gt;Node136 -->
<g id="edge4" class="edge"><title>Node134&#45;&gt;Node136</title>
<path fill="none" stroke="midnightblue" d="M152.423,-29C214.481,-29 302.275,-29 365.952,-29"/>
<polygon fill="midnightblue" stroke="midnightblue" points="365.957,-32.5001 375.957,-29 365.957,-25.5001 365.957,-32.5001"/>
</g>
<!-- Node137 -->
<g id="node4" class="node"><title>Node137</title>
<g id="a_node4"><a xlink:href="classkoala_1_1_range_1_1_range_core.html#a6b84c30dfe7408345056ed69aa8e3730" target="_top" xlink:title=" ">
<polygon fill="white" stroke="black" points="557,-0.5 557,-19.5 703,-19.5 703,-0.5 557,-0.5"/>
<text text-anchor="middle" x="630" y="-7.5" font-family="Helvetica,sans-Serif" font-size="10.00">koala.Range.RangeCore.order</text>
</a>
</g>
</g>
<!-- Node134&#45;&gt;Node137 -->
<g id="edge5" class="edge"><title>Node134&#45;&gt;Node137</title>
<path fill="none" stroke="midnightblue" d="M152.202,-22.8955C212.63,-18.3104 299.707,-12.4216 376,-10 432.987,-8.19119 497.231,-8.21673 546.721,-8.68143"/>
<polygon fill="midnightblue" stroke="midnightblue" points="546.697,-12.1813 556.732,-8.78327 546.768,-5.18163 546.697,-12.1813"/>
</g>
<!-- Node135&#45;&gt;Node136 -->
<g id="edge2" class="edge"><title>Node135&#45;&gt;Node136</title>
<path fill="none" stroke="midnightblue" d="M311.052,-57.411C335.569,-52.3061 365.91,-45.9887 391.75,-40.6082"/>
<polygon fill="midnightblue" stroke="midnightblue" points="392.702,-43.9851 401.779,-38.5201 391.275,-37.1321 392.702,-43.9851"/>
</g>
<!-- Node136&#45;&gt;Node137 -->
<g id="edge3" class="edge"><title>Node136&#45;&gt;Node137</title>
<path fill="none" stroke="midnightblue" d="M521.217,-21.4088C529.639,-20.5173 538.283,-19.6024 546.834,-18.6972"/>
<polygon fill="midnightblue" stroke="midnightblue" points="547.235,-22.1745 556.811,-17.6412 546.498,-15.2133 547.235,-22.1745"/>
</g>
</g>
</svg>
