<?xml version="1.0" encoding="UTF-8" standalone="no"?>
<!DOCTYPE svg PUBLIC "-//W3C//DTD SVG 1.1//EN"
 "http://www.w3.org/Graphics/SVG/1.1/DTD/svg11.dtd">
<!-- Generated by graphviz version 2.38.0 (20140413.2041)
 -->
<!-- Title: koala.Spreadsheet.Spreadsheet.eval_ref Pages: 1 -->
<svg width="659pt" height="28pt"
 viewBox="0.00 0.00 659.00 28.00" xmlns="http://www.w3.org/2000/svg" xmlns:xlink="http://www.w3.org/1999/xlink">
<g id="graph0" class="graph" transform="scale(1 1) rotate(0) translate(4 24)">
<title>koala.Spreadsheet.Spreadsheet.eval_ref</title>
<polygon fill="white" stroke="none" points="-4,4 -4,-24 655,-24 655,4 -4,4"/>
<!-- Node120 -->
<g id="node1" class="node"><title>Node120</title>
<g id="a_node1"><a xlink:title=" ">
<polygon fill="#bfbfbf" stroke="black" points="460,-0.5 460,-19.5 651,-19.5 651,-0.5 460,-0.5"/>
<text text-anchor="middle" x="555.5" y="-7.5" font-family="Helvetica,sans-Serif" font-size="10.00">koala.Spreadsheet.Spreadsheet.eval_ref</text>
</a>
</g>
</g>
<!-- Node121 -->
<g id="node2" class="node"><title>Node121</title>
<g id="a_node2"><a xlink:href="classkoala_1_1_spreadsheet_1_1_spreadsheet.html#ab55daaddb95ae9af8b490dabebf22092" target="_top" xlink:title=" ">
<polygon fill="white" stroke="black" points="230,-0.5 230,-19.5 424,-19.5 424,-0.5 230,-0.5"/>
<text text-anchor="middle" x="327" y="-7.5" font-family="Helvetica,sans-Serif" font-size="10.00">koala.Spreadsheet.Spreadsheet.cell_free</text>
</a>
</g>
</g>
<!-- Node120&#45;&gt;Node121 -->
<g id="edge1" class="edge"><title>Node120&#45;&gt;Node121</title>
<path fill="none" stroke="midnightblue" d="M449.503,-10C441.062,-10 432.56,-10 424.185,-10"/>
<polygon fill="midnightblue" stroke="midnightblue" points="449.756,-13.5001 459.756,-10 449.756,-6.5001 449.756,-13.5001"/>
</g>
<!-- Node122 -->
<g id="node3" class="node"><title>Node122</title>
<g id="a_node3"><a xlink:href="classkoala_1_1_spreadsheet_1_1_spreadsheet.html#aebac3e8edbd3df53d783fd229aa95cf4" target="_top" xlink:title=" ">
<polygon fill="white" stroke="black" points="0,-0.5 0,-19.5 194,-19.5 194,-0.5 0,-0.5"/>
<text text-anchor="middle" x="97" y="-7.5" font-family="Helvetica,sans-Serif" font-size="10.00">koala.Spreadsheet.Spreadsheet.free_cell</text>
</a>
</g>
</g>
<!-- Node121&#45;&gt;Node122 -->
<g id="edge2" class="edge"><title>Node121&#45;&gt;Node122</title>
<path fill="none" stroke="midnightblue" d="M219.957,-10C211.395,-10 202.773,-10 194.286,-10"/>
<polygon fill="midnightblue" stroke="midnightblue" points="219.968,-13.5001 229.968,-10 219.968,-6.5001 219.968,-13.5001"/>
</g>
</g>
</svg>
