<?xml version="1.0" encoding="UTF-8" standalone="no"?>
<!DOCTYPE svg PUBLIC "-//W3C//DTD SVG 1.1//EN"
 "http://www.w3.org/Graphics/SVG/1.1/DTD/svg11.dtd">
<!-- Generated by graphviz version 2.38.0 (20140413.2041)
 -->
<!-- Title: koala.Range.RangeCore.values Pages: 1 -->
<svg width="348pt" height="66pt"
 viewBox="0.00 0.00 348.00 66.00" xmlns="http://www.w3.org/2000/svg" xmlns:xlink="http://www.w3.org/1999/xlink">
<g id="graph0" class="graph" transform="scale(1 1) rotate(0) translate(4 62)">
<title>koala.Range.RangeCore.values</title>
<polygon fill="white" stroke="none" points="-4,4 -4,-62 344,-62 344,4 -4,4"/>
<!-- Node131 -->
<g id="node1" class="node"><title>Node131</title>
<g id="a_node1"><a xlink:title=" ">
<polygon fill="#bfbfbf" stroke="black" points="188,-19.5 188,-38.5 340,-38.5 340,-19.5 188,-19.5"/>
<text text-anchor="middle" x="264" y="-26.5" font-family="Helvetica,sans-Serif" font-size="10.00">koala.Range.RangeCore.values</text>
</a>
</g>
</g>
<!-- Node132 -->
<g id="node2" class="node"><title>Node132</title>
<g id="a_node2"><a xlink:href="classkoala_1_1_range_1_1_range_core.html#a6557265240f4ca4f91a448f366f66901" target="_top" xlink:title=" ">
<polygon fill="white" stroke="black" points="0,-38.5 0,-57.5 152,-57.5 152,-38.5 0,-38.5"/>
<text text-anchor="middle" x="76" y="-45.5" font-family="Helvetica,sans-Serif" font-size="10.00">koala.Range.RangeCore.values</text>
</a>
</g>
</g>
<!-- Node131&#45;&gt;Node132 -->
<g id="edge1" class="edge"><title>Node131&#45;&gt;Node132</title>
<path fill="none" stroke="midnightblue" d="M177.853,-37.6978C169.258,-38.5758 160.574,-39.4629 152.095,-40.329"/>
<polygon fill="midnightblue" stroke="midnightblue" points="178.29,-41.1714 187.883,-36.6733 177.579,-34.2077 178.29,-41.1714"/>
</g>
<!-- Node133 -->
<g id="node3" class="node"><title>Node133</title>
<g id="a_node3"><a xlink:href="classkoala_1_1_range_1_1_range_core.html#a0ef0d47a2c8903280c6b5dfdd82eb7b6" target="_top" xlink:title=" ">
<polygon fill="white" stroke="black" points="7,-0.5 7,-19.5 145,-19.5 145,-0.5 7,-0.5"/>
<text text-anchor="middle" x="76" y="-7.5" font-family="Helvetica,sans-Serif" font-size="10.00">koala.Range.RangeCore.get</text>
</a>
</g>
</g>
<!-- Node131&#45;&gt;Node133 -->
<g id="edge2" class="edge"><title>Node131&#45;&gt;Node133</title>
<path fill="none" stroke="midnightblue" d="M177.881,-20.3051C166.927,-19.1861 155.825,-18.0521 145.191,-16.9657"/>
<polygon fill="midnightblue" stroke="midnightblue" points="177.579,-23.7923 187.883,-21.3267 178.29,-16.8286 177.579,-23.7923"/>
</g>
</g>
</svg>
