<?xml version="1.0" encoding="UTF-8" standalone="no"?>
<!DOCTYPE svg PUBLIC "-//W3C//DTD SVG 1.1//EN"
 "http://www.w3.org/Graphics/SVG/1.1/DTD/svg11.dtd">
<!-- Generated by graphviz version 2.38.0 (20140413.2041)
 -->
<!-- Title: koala.Spreadsheet.Spreadsheet.get_arguments_from_ast Pages: 1 -->
<!--zoomable 218 -->
<svg id="main" version="1.1" xmlns="http://www.w3.org/2000/svg" xmlns:xlink="http://www.w3.org/1999/xlink" xml:space="preserve" onload="init(evt)">
<style type="text/css"><![CDATA[
.edge:hover path { stroke: red; }
.edge:hover polygon { stroke: red; fill: red; }
]]></style>
<script type="text/javascript"><![CDATA[
var edges = document.getElementsByTagName('g');
if (edges && edges.length) {
  for (var i=0;i<edges.length;i++) {
    if (edges[i].id.substr(0,4)=='edge') {
      edges[i].setAttribute('class','edge');
    }
  }
}
]]></script>
        <defs>
                <circle id="rim" cx="0" cy="0" r="7"/>
                <circle id="rim2" cx="0" cy="0" r="3.5"/>
                <g id="zoomPlus">
                        <use xlink:href="#rim" fill="#404040">
                                <set attributeName="fill" to="#808080" begin="zoomplus.mouseover" end="zoomplus.mouseout"/>
                        </use>
                        <path d="M-4,0h8M0,-4v8" fill="none" stroke="white" stroke-width="1.5" pointer-events="none"/>
                </g>
                <g id="zoomMin">
                        <use xlink:href="#rim" fill="#404040">
                                <set attributeName="fill" to="#808080" begin="zoomminus.mouseover" end="zoomminus.mouseout"/>
                        </use>
                        <path d="M-4,0h8" fill="none" stroke="white" stroke-width="1.5" pointer-events="none"/>
                </g>
                <g id="dirArrow">
                        <path fill="none" stroke="white" stroke-width="1.5" d="M0,-3.0v7 M-2.5,-0.5L0,-3.0L2.5,-0.5"/>
                </g>
               <g id="resetDef">
                       <use xlink:href="#rim2" fill="#404040">
                               <set attributeName="fill" to="#808080" begin="reset.mouseover" end="reset.mouseout"/>
                       </use>
               </g>
        </defs>

<script type="text/javascript">
var viewWidth = 509;
var viewHeight = 218;
var sectionId = 'dynsection-34';
</script>
<script xlink:href="svgpan.js"/>
<svg id="graph" class="graph">
<g id="viewport">
<title>koala.Spreadsheet.Spreadsheet.get_arguments_from_ast</title>
<polygon fill="white" stroke="none" points="-4,4 -4,-214 505,-214 505,4 -4,4"/>
<!-- Node258 -->
<g id="node1" class="node"><title>Node258</title>
<g id="a_node1"><a xlink:title=" ">
<polygon fill="#bfbfbf" stroke="black" points="0,-90 0,-120 172,-120 172,-90 0,-90"/>
<text text-anchor="start" x="8" y="-108" font-family="Helvetica,sans-Serif" font-size="10.00">koala.Spreadsheet.Spreadsheet.get</text>
<text text-anchor="middle" x="86" y="-97" font-family="Helvetica,sans-Serif" font-size="10.00">_arguments_from_ast</text>
</a>
</g>
</g>
<!-- Node258&#45;&gt;Node258 -->
<g id="edge10" class="edge"><title>Node258&#45;&gt;Node258</title>
<path fill="none" stroke="midnightblue" d="M53.2371,-120.159C45.3369,-129.557 56.2578,-138.5 86,-138.5 104.124,-138.5 115.259,-135.179 119.405,-130.458"/>
<polygon fill="midnightblue" stroke="midnightblue" points="122.879,-129.922 118.763,-120.159 115.892,-130.358 122.879,-129.922"/>
</g>
<!-- Node259 -->
<g id="node2" class="node"><title>Node259</title>
<g id="a_node2"><a xlink:href="namespacekoala_1_1tokenizer.html#aad729e834025da12ee669f20324a9eb8" target="_top" xlink:title=" ">
<polygon fill="white" stroke="black" points="208,-139.5 208,-158.5 343,-158.5 343,-139.5 208,-139.5"/>
<text text-anchor="middle" x="275.5" y="-146.5" font-family="Helvetica,sans-Serif" font-size="10.00">koala.tokenizer.reverse_rpn</text>
</a>
</g>
</g>
<!-- Node258&#45;&gt;Node259 -->
<g id="edge1" class="edge"><title>Node258&#45;&gt;Node259</title>
<path fill="none" stroke="midnightblue" d="M151.002,-120.019C174.83,-125.611 201.518,-131.874 223.971,-137.143"/>
<polygon fill="midnightblue" stroke="midnightblue" points="223.429,-140.61 233.964,-139.488 225.028,-133.795 223.429,-140.61"/>
</g>
<!-- Node260 -->
<g id="node3" class="node"><title>Node260</title>
<g id="a_node3"><a xlink:href="namespacekoala_1_1utils.html#a1d3620df245d23fea05928298cabc2ac" target="_top" xlink:title=" ">
<polygon fill="white" stroke="black" points="228.5,-90 228.5,-120 322.5,-120 322.5,-90 228.5,-90"/>
<text text-anchor="start" x="236.5" y="-108" font-family="Helvetica,sans-Serif" font-size="10.00">koala.utils.resolve</text>
<text text-anchor="middle" x="275.5" y="-97" font-family="Helvetica,sans-Serif" font-size="10.00">_range</text>
</a>
</g>
</g>
<!-- Node258&#45;&gt;Node260 -->
<g id="edge2" class="edge"><title>Node258&#45;&gt;Node260</title>
<path fill="none" stroke="midnightblue" d="M172.246,-105C187.815,-105 203.7,-105 218.163,-105"/>
<polygon fill="midnightblue" stroke="midnightblue" points="218.419,-108.5 228.418,-105 218.418,-101.5 218.419,-108.5"/>
</g>
<!-- Node267 -->
<g id="node10" class="node"><title>Node267</title>
<g id="a_node10"><a xlink:href="namespacekoala_1_1utils.html#af016160edea2b46cb26db3ed307c9648" target="_top" xlink:title=" ">
<polygon fill="white" stroke="black" points="221,-51.5 221,-70.5 330,-70.5 330,-51.5 221,-51.5"/>
<text text-anchor="middle" x="275.5" y="-58.5" font-family="Helvetica,sans-Serif" font-size="10.00">koala.utils.is_number</text>
</a>
</g>
</g>
<!-- Node258&#45;&gt;Node267 -->
<g id="edge9" class="edge"><title>Node258&#45;&gt;Node267</title>
<path fill="none" stroke="midnightblue" d="M151.002,-89.9808C174.83,-84.3892 201.518,-78.1265 223.971,-72.8574"/>
<polygon fill="midnightblue" stroke="midnightblue" points="225.028,-76.2045 233.964,-70.5124 223.429,-69.3897 225.028,-76.2045"/>
</g>
<!-- Node261 -->
<g id="node4" class="node"><title>Node261</title>
<g id="a_node4"><a xlink:href="namespacekoala_1_1utils.html#a77ace10251dde2f09a457b7b469208cc" target="_top" xlink:title=" ">
<polygon fill="white" stroke="black" points="384.5,-190.5 384.5,-209.5 495.5,-209.5 495.5,-190.5 384.5,-190.5"/>
<text text-anchor="middle" x="440" y="-197.5" font-family="Helvetica,sans-Serif" font-size="10.00">koala.utils.split_range</text>
</a>
</g>
</g>
<!-- Node260&#45;&gt;Node261 -->
<g id="edge3" class="edge"><title>Node260&#45;&gt;Node261</title>
<path fill="none" stroke="midnightblue" d="M322.763,-118.256C329.928,-121.447 336.949,-125.324 343,-130 364.955,-146.964 356.604,-164.623 379,-181 381.646,-182.935 384.496,-184.677 387.465,-186.246"/>
<polygon fill="midnightblue" stroke="midnightblue" points="386.099,-189.469 396.649,-190.447 389.011,-183.104 386.099,-189.469"/>
</g>
<!-- Node262 -->
<g id="node5" class="node"><title>Node262</title>
<g id="a_node5"><a xlink:href="namespacekoala_1_1utils.html#a152ac1827f4fdbd036d6e67cdf3acebb" target="_top" xlink:title=" ">
<polygon fill="white" stroke="black" points="389.5,-152.5 389.5,-171.5 490.5,-171.5 490.5,-152.5 389.5,-152.5"/>
<text text-anchor="middle" x="440" y="-159.5" font-family="Helvetica,sans-Serif" font-size="10.00">koala.utils.is_range</text>
</a>
</g>
</g>
<!-- Node260&#45;&gt;Node262 -->
<g id="edge4" class="edge"><title>Node260&#45;&gt;Node262</title>
<path fill="none" stroke="midnightblue" d="M316.482,-120.048C339.864,-128.804 367.064,-138.9 379,-143 385.103,-145.096 391.584,-147.237 397.944,-149.289"/>
<polygon fill="midnightblue" stroke="midnightblue" points="397.174,-152.718 407.765,-152.423 399.302,-146.049 397.174,-152.718"/>
</g>
<!-- Node263 -->
<g id="node6" class="node"><title>Node263</title>
<g id="a_node6"><a xlink:href="namespacekoala_1_1utils.html#a5c70ac45916995934736ab28b501c8c5" target="_top" xlink:title=" ">
<polygon fill="white" stroke="black" points="379,-114.5 379,-133.5 501,-133.5 501,-114.5 379,-114.5"/>
<text text-anchor="middle" x="440" y="-121.5" font-family="Helvetica,sans-Serif" font-size="10.00">koala.utils.split_address</text>
</a>
</g>
</g>
<!-- Node260&#45;&gt;Node263 -->
<g id="edge5" class="edge"><title>Node260&#45;&gt;Node263</title>
<path fill="none" stroke="midnightblue" d="M322.631,-110.394C336.948,-112.068 353.066,-113.952 368.641,-115.773"/>
<polygon fill="midnightblue" stroke="midnightblue" points="368.434,-119.273 378.772,-116.958 369.247,-112.32 368.434,-119.273"/>
</g>
<!-- Node264 -->
<g id="node7" class="node"><title>Node264</title>
<g id="a_node7"><a xlink:href="namespacekoala_1_1utils.html#a65476c62402a00e3d46dbc99b6a4ea88" target="_top" xlink:title=" ">
<polygon fill="white" stroke="black" points="389.5,-76.5 389.5,-95.5 490.5,-95.5 490.5,-76.5 389.5,-76.5"/>
<text text-anchor="middle" x="440" y="-83.5" font-family="Helvetica,sans-Serif" font-size="10.00">koala.utils.col2num</text>
</a>
</g>
</g>
<!-- Node260&#45;&gt;Node264 -->
<g id="edge6" class="edge"><title>Node260&#45;&gt;Node264</title>
<path fill="none" stroke="midnightblue" d="M322.631,-99.6062C340.207,-97.5512 360.498,-95.1787 379.165,-92.9961"/>
<polygon fill="midnightblue" stroke="midnightblue" points="379.815,-96.444 389.341,-91.8063 379.002,-89.4914 379.815,-96.444"/>
</g>
<!-- Node265 -->
<g id="node8" class="node"><title>Node265</title>
<g id="a_node8"><a xlink:href="namespacekoala_1_1utils.html#a2037076cc5a6fbf884023917a0cbfca7" target="_top" xlink:title=" ">
<polygon fill="white" stroke="black" points="389.5,-38.5 389.5,-57.5 490.5,-57.5 490.5,-38.5 389.5,-38.5"/>
<text text-anchor="middle" x="440" y="-45.5" font-family="Helvetica,sans-Serif" font-size="10.00">koala.utils.num2col</text>
</a>
</g>
</g>
<!-- Node260&#45;&gt;Node265 -->
<g id="edge7" class="edge"><title>Node260&#45;&gt;Node265</title>
<path fill="none" stroke="midnightblue" d="M316.482,-89.9521C339.864,-81.1964 367.064,-71.0998 379,-67 385.103,-64.9036 391.584,-62.7632 397.944,-60.7107"/>
<polygon fill="midnightblue" stroke="midnightblue" points="399.302,-63.9511 407.765,-57.5766 397.174,-57.2824 399.302,-63.9511"/>
</g>
<!-- Node266 -->
<g id="node9" class="node"><title>Node266</title>
<g id="a_node9"><a xlink:href="namespacekoala_1_1utils.html#aabb45efe6343cf3795888c77a434d47d" target="_top" xlink:title=" ">
<polygon fill="white" stroke="black" points="395,-0.5 395,-19.5 485,-19.5 485,-0.5 395,-0.5"/>
<text text-anchor="middle" x="440" y="-7.5" font-family="Helvetica,sans-Serif" font-size="10.00">koala.utils.flatten</text>
</a>
</g>
</g>
<!-- Node260&#45;&gt;Node266 -->
<g id="edge8" class="edge"><title>Node260&#45;&gt;Node266</title>
<path fill="none" stroke="midnightblue" d="M322.763,-91.7442C329.928,-88.5529 336.949,-84.6756 343,-80 364.955,-63.036 356.604,-45.3772 379,-29 381.646,-27.0651 384.496,-25.3228 387.465,-23.7544"/>
<polygon fill="midnightblue" stroke="midnightblue" points="389.011,-26.896 396.649,-19.5529 386.099,-20.5306 389.011,-26.896"/>
</g>
</g>
</svg>
        <g id="navigator" transform="translate(0 0)" fill="#404254">
                <rect fill="#f2f5e9" fill-opacity="0.5" stroke="#606060" stroke-width=".5" x="0" y="0" width="60" height="60"/>
                <use id="zoomplus" xlink:href="#zoomPlus" x="17" y="9" onmousedown="handleZoom(evt,'in')"/>
                <use id="zoomminus" xlink:href="#zoomMin" x="42" y="9" onmousedown="handleZoom(evt,'out')"/>
                <use id="reset" xlink:href="#resetDef" x="30" y="36" onmousedown="handleReset()"/>
                <g id="arrowUp" xlink:href="#dirArrow" transform="translate(30 24)" onmousedown="handlePan(0,-1)">
                  <use xlink:href="#rim" fill="#404040">
                        <set attributeName="fill" to="#808080" begin="arrowUp.mouseover" end="arrowUp.mouseout"/>
                  </use>
                  <path fill="none" stroke="white" stroke-width="1.5" d="M0,-3.0v7 M-2.5,-0.5L0,-3.0L2.5,-0.5"/>
                </g>
                <g id="arrowRight" xlink:href="#dirArrow" transform="rotate(90) translate(36 -43)" onmousedown="handlePan(1,0)">
                  <use xlink:href="#rim" fill="#404040">
                        <set attributeName="fill" to="#808080" begin="arrowRight.mouseover" end="arrowRight.mouseout"/>
                  </use>
                  <path fill="none" stroke="white" stroke-width="1.5" d="M0,-3.0v7 M-2.5,-0.5L0,-3.0L2.5,-0.5"/>
                </g>
                <g id="arrowDown" xlink:href="#dirArrow" transform="rotate(180) translate(-30 -48)" onmousedown="handlePan(0,1)">
                  <use xlink:href="#rim" fill="#404040">
                        <set attributeName="fill" to="#808080" begin="arrowDown.mouseover" end="arrowDown.mouseout"/>
                  </use>
                  <path fill="none" stroke="white" stroke-width="1.5" d="M0,-3.0v7 M-2.5,-0.5L0,-3.0L2.5,-0.5"/>
                </g>
                <g id="arrowLeft" xlink:href="#dirArrow" transform="rotate(270) translate(-36 17)" onmousedown="handlePan(-1,0)">
                  <use xlink:href="#rim" fill="#404040">
                        <set attributeName="fill" to="#808080" begin="arrowLeft.mouseover" end="arrowLeft.mouseout"/>
                  </use>
                  <path fill="none" stroke="white" stroke-width="1.5" d="M0,-3.0v7 M-2.5,-0.5L0,-3.0L2.5,-0.5"/>
                </g>
        </g>
        <svg viewBox="0 0 15 15" width="100%" height="30px" preserveAspectRatio="xMaxYMin meet">
         <g id="arrow_out" transform="scale(0.3 0.3)">
          <a xlink:href="classkoala_1_1_spreadsheet_1_1_spreadsheet_aa23818eb03be8a82c0969bd5338fdf2d_cgraph_org.svg" target="_base">
           <rect id="button" ry="5" rx="5" y="6" x="6" height="38" width="38"
                fill="#f2f5e9" fill-opacity="0.5" stroke="#606060" stroke-width="1.0"/>
           <path id="arrow"
             d="M 11.500037,31.436501 C 11.940474,20.09759 22.043105,11.32322 32.158766,21.979434 L 37.068811,17.246167 C 37.068811,17.246167 37.088388,32 37.088388,32 L 22.160133,31.978069 C 22.160133,31.978069 26.997745,27.140456 26.997745,27.140456 C 18.528582,18.264221 13.291696,25.230495 11.500037,31.436501 z"
             style="fill:#404040;"/>
          </a>
         </g>
        </svg>
</svg>
