<?xml version="1.0" encoding="UTF-8" standalone="no"?>
<!DOCTYPE svg PUBLIC "-//W3C//DTD SVG 1.1//EN"
 "http://www.w3.org/Graphics/SVG/1.1/DTD/svg11.dtd">
<!-- Generated by graphviz version 2.38.0 (20140413.2041)
 -->
<!-- Title: koala.ast.astnodes.ASTNode Pages: 1 -->
<svg width="616pt" height="104pt"
 viewBox="0.00 0.00 616.00 104.00" xmlns="http://www.w3.org/2000/svg" xmlns:xlink="http://www.w3.org/1999/xlink">
<g id="graph0" class="graph" transform="scale(1 1) rotate(0) translate(4 100)">
<title>koala.ast.astnodes.ASTNode</title>
<polygon fill="white" stroke="none" points="-4,4 -4,-100 612,-100 612,4 -4,4"/>
<!-- Node0 -->
<g id="node1" class="node"><title>Node0</title>
<g id="a_node1"><a xlink:title=" ">
<polygon fill="#bfbfbf" stroke="black" points="79,-38.5 79,-57.5 222,-57.5 222,-38.5 79,-38.5"/>
<text text-anchor="middle" x="150.5" y="-45.5" font-family="Helvetica,sans-Serif" font-size="10.00">koala.ast.astnodes.ASTNode</text>
</a>
</g>
</g>
<!-- Node2 -->
<g id="node3" class="node"><title>Node2</title>
<g id="a_node3"><a xlink:href="classkoala_1_1ast_1_1astnodes_1_1_function_node.html" target="_top" xlink:title=" ">
<polygon fill="white" stroke="black" points="258,-76.5 258,-95.5 420,-95.5 420,-76.5 258,-76.5"/>
<text text-anchor="middle" x="339" y="-83.5" font-family="Helvetica,sans-Serif" font-size="10.00">koala.ast.astnodes.FunctionNode</text>
</a>
</g>
</g>
<!-- Node0&#45;&gt;Node2 -->
<g id="edge2" class="edge"><title>Node0&#45;&gt;Node2</title>
<path fill="none" stroke="midnightblue" d="M208.478,-59.6095C235.003,-65.014 266.166,-71.3635 291.277,-76.4799"/>
<polygon fill="midnightblue" stroke="midnightblue" points="209.059,-56.1561 198.562,-57.589 207.662,-63.0151 209.059,-56.1561"/>
</g>
<!-- Node3 -->
<g id="node4" class="node"><title>Node3</title>
<g id="a_node4"><a xlink:href="classkoala_1_1ast_1_1astnodes_1_1_operand_node.html" target="_top" xlink:title=" ">
<polygon fill="white" stroke="black" points="258.5,-38.5 258.5,-57.5 419.5,-57.5 419.5,-38.5 258.5,-38.5"/>
<text text-anchor="middle" x="339" y="-45.5" font-family="Helvetica,sans-Serif" font-size="10.00">koala.ast.astnodes.OperandNode</text>
</a>
</g>
</g>
<!-- Node0&#45;&gt;Node3 -->
<g id="edge3" class="edge"><title>Node0&#45;&gt;Node3</title>
<path fill="none" stroke="midnightblue" d="M232.122,-48C240.812,-48 249.651,-48 258.33,-48"/>
<polygon fill="midnightblue" stroke="midnightblue" points="232.008,-44.5001 222.008,-48 232.008,-51.5001 232.008,-44.5001"/>
</g>
<!-- Node5 -->
<g id="node6" class="node"><title>Node5</title>
<g id="a_node6"><a xlink:href="classkoala_1_1ast_1_1astnodes_1_1_operator_node.html" target="_top" xlink:title=" ">
<polygon fill="white" stroke="black" points="258,-0.5 258,-19.5 420,-19.5 420,-0.5 258,-0.5"/>
<text text-anchor="middle" x="339" y="-7.5" font-family="Helvetica,sans-Serif" font-size="10.00">koala.ast.astnodes.OperatorNode</text>
</a>
</g>
</g>
<!-- Node0&#45;&gt;Node5 -->
<g id="edge5" class="edge"><title>Node0&#45;&gt;Node5</title>
<path fill="none" stroke="midnightblue" d="M208.478,-36.3905C235.003,-30.986 266.166,-24.6365 291.277,-19.5201"/>
<polygon fill="midnightblue" stroke="midnightblue" points="207.662,-32.9849 198.562,-38.411 209.059,-39.8439 207.662,-32.9849"/>
</g>
<!-- Node1 -->
<g id="node2" class="node"><title>Node1</title>
<g id="a_node2"><a xlink:title=" ">
<polygon fill="white" stroke="#bfbfbf" points="0,-38.5 0,-57.5 43,-57.5 43,-38.5 0,-38.5"/>
<text text-anchor="middle" x="21.5" y="-45.5" font-family="Helvetica,sans-Serif" font-size="10.00">object</text>
</a>
</g>
</g>
<!-- Node1&#45;&gt;Node0 -->
<g id="edge1" class="edge"><title>Node1&#45;&gt;Node0</title>
<path fill="none" stroke="midnightblue" d="M53.25,-48C61.0968,-48 69.8623,-48 78.8208,-48"/>
<polygon fill="midnightblue" stroke="midnightblue" points="53.1874,-44.5001 43.1874,-48 53.1874,-51.5001 53.1874,-44.5001"/>
</g>
<!-- Node4 -->
<g id="node5" class="node"><title>Node4</title>
<g id="a_node5"><a xlink:href="classkoala_1_1ast_1_1astnodes_1_1_range_node.html" target="_top" xlink:title=" ">
<polygon fill="white" stroke="black" points="456,-38.5 456,-57.5 608,-57.5 608,-38.5 456,-38.5"/>
<text text-anchor="middle" x="532" y="-45.5" font-family="Helvetica,sans-Serif" font-size="10.00">koala.ast.astnodes.RangeNode</text>
</a>
</g>
</g>
<!-- Node3&#45;&gt;Node4 -->
<g id="edge4" class="edge"><title>Node3&#45;&gt;Node4</title>
<path fill="none" stroke="midnightblue" d="M429.787,-48C438.489,-48 447.254,-48 455.793,-48"/>
<polygon fill="midnightblue" stroke="midnightblue" points="429.618,-44.5001 419.618,-48 429.618,-51.5001 429.618,-44.5001"/>
</g>
</g>
</svg>
