<?xml version="1.0" encoding="UTF-8" standalone="no"?>
<!DOCTYPE svg PUBLIC "-//W3C//DTD SVG 1.1//EN"
 "http://www.w3.org/Graphics/SVG/1.1/DTD/svg11.dtd">
<!-- Generated by graphviz version 2.38.0 (20140413.2041)
 -->
<!-- Title: koala.ast.astnodes.ASTNode.children Pages: 1 -->
<svg width="364pt" height="88pt"
 viewBox="0.00 0.00 364.00 88.00" xmlns="http://www.w3.org/2000/svg" xmlns:xlink="http://www.w3.org/1999/xlink">
<g id="graph0" class="graph" transform="scale(1 1) rotate(0) translate(4 84)">
<title>koala.ast.astnodes.ASTNode.children</title>
<polygon fill="white" stroke="none" points="-4,4 -4,-84 360,-84 360,4 -4,4"/>
<!-- Node7 -->
<g id="node1" class="node"><title>Node7</title>
<g id="a_node1"><a xlink:title=" ">
<polygon fill="#bfbfbf" stroke="black" points="176,-30 176,-49 356,-49 356,-30 176,-30"/>
<text text-anchor="middle" x="266" y="-37" font-family="Helvetica,sans-Serif" font-size="10.00">koala.ast.astnodes.ASTNode.children</text>
</a>
</g>
</g>
<!-- Node8 -->
<g id="node2" class="node"><title>Node8</title>
<g id="a_node2"><a xlink:href="classkoala_1_1ast_1_1astnodes_1_1_operator_node.html#a570a299b2cfd934b11b736b73fe1281d" target="_top" xlink:title=" ">
<polygon fill="white" stroke="black" points="0,-49.5 0,-79.5 140,-79.5 140,-49.5 0,-49.5"/>
<text text-anchor="start" x="8" y="-67.5" font-family="Helvetica,sans-Serif" font-size="10.00">koala.ast.astnodes.Operator</text>
<text text-anchor="middle" x="70" y="-56.5" font-family="Helvetica,sans-Serif" font-size="10.00">Node.emit</text>
</a>
</g>
</g>
<!-- Node7&#45;&gt;Node8 -->
<g id="edge1" class="edge"><title>Node7&#45;&gt;Node8</title>
<path fill="none" stroke="midnightblue" d="M180.822,-50.3477C167.267,-52.0944 153.372,-53.885 140.221,-55.5798"/>
<polygon fill="midnightblue" stroke="midnightblue" points="181.633,-53.7722 191.103,-49.0227 180.738,-46.8296 181.633,-53.7722"/>
</g>
<!-- Node9 -->
<g id="node3" class="node"><title>Node9</title>
<g id="a_node3"><a xlink:href="classkoala_1_1ast_1_1astnodes_1_1_function_node.html#a23169336061f474a338fc8f4ba51364e" target="_top" xlink:title=" ">
<polygon fill="white" stroke="black" points="0,-0.5 0,-30.5 140,-30.5 140,-0.5 0,-0.5"/>
<text text-anchor="start" x="8" y="-18.5" font-family="Helvetica,sans-Serif" font-size="10.00">koala.ast.astnodes.Function</text>
<text text-anchor="middle" x="70" y="-7.5" font-family="Helvetica,sans-Serif" font-size="10.00">Node.emit</text>
</a>
</g>
</g>
<!-- Node7&#45;&gt;Node9 -->
<g id="edge2" class="edge"><title>Node7&#45;&gt;Node9</title>
<path fill="none" stroke="midnightblue" d="M177.991,-28.736C165.369,-27.1746 152.52,-25.5849 140.309,-24.0743"/>
<polygon fill="midnightblue" stroke="midnightblue" points="177.693,-32.2258 188.047,-29.9801 178.553,-25.2787 177.693,-32.2258"/>
</g>
</g>
</svg>
