<?xml version="1.0" encoding="UTF-8" standalone="no"?>
<!DOCTYPE svg PUBLIC "-//W3C//DTD SVG 1.1//EN"
 "http://www.w3.org/Graphics/SVG/1.1/DTD/svg11.dtd">
<!-- Generated by graphviz version 2.38.0 (20140413.2041)
 -->
<!-- Title: koala.Range.RangeCore.type Pages: 1 -->
<svg width="330pt" height="78pt"
 viewBox="0.00 0.00 330.00 77.50" xmlns="http://www.w3.org/2000/svg" xmlns:xlink="http://www.w3.org/1999/xlink">
<g id="graph0" class="graph" transform="scale(1 1) rotate(0) translate(4 73.5)">
<title>koala.Range.RangeCore.type</title>
<polygon fill="white" stroke="none" points="-4,4 -4,-73.5 326,-73.5 326,4 -4,4"/>
<!-- Node125 -->
<g id="node1" class="node"><title>Node125</title>
<g id="a_node1"><a xlink:title=" ">
<polygon fill="#bfbfbf" stroke="black" points="179,-22.5 179,-41.5 322,-41.5 322,-22.5 179,-22.5"/>
<text text-anchor="middle" x="250.5" y="-29.5" font-family="Helvetica,sans-Serif" font-size="10.00">koala.Range.RangeCore.type</text>
</a>
</g>
</g>
<!-- Node126 -->
<g id="node2" class="node"><title>Node126</title>
<g id="a_node2"><a xlink:href="classkoala_1_1_range_1_1_range_core.html#ac49ba3473e8bcd9585eedd4fa9603bf2" target="_top" xlink:title=" ">
<polygon fill="white" stroke="black" points="9,-39 9,-69 134,-69 134,-39 9,-39"/>
<text text-anchor="start" x="17" y="-57" font-family="Helvetica,sans-Serif" font-size="10.00">koala.Range.RangeCore.</text>
<text text-anchor="middle" x="71.5" y="-46" font-family="Helvetica,sans-Serif" font-size="10.00">__init__</text>
</a>
</g>
</g>
<!-- Node125&#45;&gt;Node126 -->
<g id="edge1" class="edge"><title>Node125&#45;&gt;Node126</title>
<path fill="none" stroke="midnightblue" d="M168.683,-42.0451C157.116,-43.4827 145.373,-44.9423 134.252,-46.3246"/>
<polygon fill="midnightblue" stroke="midnightblue" points="169.29,-45.4966 178.782,-40.7898 168.426,-38.5501 169.29,-45.4966"/>
</g>
<!-- Node127 -->
<g id="node3" class="node"><title>Node127</title>
<g id="a_node3"><a xlink:href="classkoala_1_1_range_1_1_range_core.html#a28408f6ee24561927d858d26f773172d" target="_top" xlink:title=" ">
<polygon fill="white" stroke="black" points="0,-0.5 0,-19.5 143,-19.5 143,-0.5 0,-0.5"/>
<text text-anchor="middle" x="71.5" y="-7.5" font-family="Helvetica,sans-Serif" font-size="10.00">koala.Range.RangeCore.filter</text>
</a>
</g>
</g>
<!-- Node125&#45;&gt;Node127 -->
<g id="edge2" class="edge"><title>Node125&#45;&gt;Node127</title>
<path fill="none" stroke="midnightblue" d="M168.786,-21.9677C160.216,-20.9025 151.547,-19.8251 143.106,-18.7759"/>
<polygon fill="midnightblue" stroke="midnightblue" points="168.426,-25.4499 178.782,-23.2102 169.29,-18.5034 168.426,-25.4499"/>
</g>
</g>
</svg>
