<?xml version="1.0" encoding="UTF-8" standalone="no"?>
<!DOCTYPE svg PUBLIC "-//W3C//DTD SVG 1.1//EN"
 "http://www.w3.org/Graphics/SVG/1.1/DTD/svg11.dtd">
<!-- Generated by graphviz version 2.38.0 (20140413.2041)
 -->
<!-- Title: koala.Cell.Cell Pages: 1 -->
<svg width="132pt" height="140pt"
 viewBox="0.00 0.00 132.00 140.00" xmlns="http://www.w3.org/2000/svg" xmlns:xlink="http://www.w3.org/1999/xlink">
<g id="graph0" class="graph" transform="scale(1 1) rotate(0) translate(4 136)">
<title>koala.Cell.Cell</title>
<polygon fill="white" stroke="none" points="-4,4 -4,-136 128,-136 128,4 -4,4"/>
<!-- Node3 -->
<g id="node1" class="node"><title>Node3</title>
<g id="a_node1"><a xlink:title=" ">
<polygon fill="#bfbfbf" stroke="black" points="22.5,-0.5 22.5,-19.5 101.5,-19.5 101.5,-0.5 22.5,-0.5"/>
<text text-anchor="middle" x="62" y="-7.5" font-family="Helvetica,sans-Serif" font-size="10.00">koala.Cell.Cell</text>
</a>
</g>
</g>
<!-- Node4 -->
<g id="node2" class="node"><title>Node4</title>
<g id="a_node2"><a xlink:href="classkoala_1_1_cell_base_1_1_cell_base.html" target="_top" xlink:title=" ">
<polygon fill="white" stroke="black" points="0,-56.5 0,-75.5 124,-75.5 124,-56.5 0,-56.5"/>
<text text-anchor="middle" x="62" y="-63.5" font-family="Helvetica,sans-Serif" font-size="10.00">koala.CellBase.CellBase</text>
</a>
</g>
</g>
<!-- Node4&#45;&gt;Node3 -->
<g id="edge1" class="edge"><title>Node4&#45;&gt;Node3</title>
<path fill="none" stroke="midnightblue" d="M62,-45.8045C62,-36.9102 62,-26.7798 62,-19.7511"/>
<polygon fill="midnightblue" stroke="midnightblue" points="58.5001,-46.083 62,-56.083 65.5001,-46.083 58.5001,-46.083"/>
</g>
<!-- Node5 -->
<g id="node3" class="node"><title>Node5</title>
<g id="a_node3"><a xlink:title=" ">
<polygon fill="white" stroke="#bfbfbf" points="40.5,-112.5 40.5,-131.5 83.5,-131.5 83.5,-112.5 40.5,-112.5"/>
<text text-anchor="middle" x="62" y="-119.5" font-family="Helvetica,sans-Serif" font-size="10.00">object</text>
</a>
</g>
</g>
<!-- Node5&#45;&gt;Node4 -->
<g id="edge2" class="edge"><title>Node5&#45;&gt;Node4</title>
<path fill="none" stroke="midnightblue" d="M62,-101.805C62,-92.9102 62,-82.7798 62,-75.7511"/>
<polygon fill="midnightblue" stroke="midnightblue" points="58.5001,-102.083 62,-112.083 65.5001,-102.083 58.5001,-102.083"/>
</g>
</g>
</svg>
