<?xml version="1.0" encoding="UTF-8" standalone="no"?>
<!DOCTYPE svg PUBLIC "-//W3C//DTD SVG 1.1//EN"
 "http://www.w3.org/Graphics/SVG/1.1/DTD/svg11.dtd">
<!-- Generated by graphviz version 2.38.0 (20140413.2041)
 -->
<!-- Title: koala.ast.astnodes.ASTNode.parent Pages: 1 -->
<svg width="379pt" height="137pt"
 viewBox="0.00 0.00 379.00 137.00" xmlns="http://www.w3.org/2000/svg" xmlns:xlink="http://www.w3.org/1999/xlink">
<g id="graph0" class="graph" transform="scale(1 1) rotate(0) translate(4 133)">
<title>koala.ast.astnodes.ASTNode.parent</title>
<polygon fill="white" stroke="none" points="-4,4 -4,-133 375,-133 375,4 -4,4"/>
<!-- Node20 -->
<g id="node1" class="node"><title>Node20</title>
<g id="a_node1"><a xlink:title=" ">
<polygon fill="#bfbfbf" stroke="black" points="198,-55 198,-74 371,-74 371,-55 198,-55"/>
<text text-anchor="middle" x="284.5" y="-62" font-family="Helvetica,sans-Serif" font-size="10.00">koala.ast.astnodes.ASTNode.parent</text>
</a>
</g>
</g>
<!-- Node21 -->
<g id="node2" class="node"><title>Node21</title>
<g id="a_node2"><a xlink:href="classkoala_1_1ast_1_1astnodes_1_1_a_s_t_node.html#a623aa0e2acf4eaad8c5f1b9fd9abdab2" target="_top" xlink:title=" ">
<polygon fill="white" stroke="black" points="0,-98.5 0,-128.5 162,-128.5 162,-98.5 0,-98.5"/>
<text text-anchor="start" x="8" y="-116.5" font-family="Helvetica,sans-Serif" font-size="10.00">koala.ast.astnodes.ASTNode.has</text>
<text text-anchor="middle" x="81" y="-105.5" font-family="Helvetica,sans-Serif" font-size="10.00">_ind_func_parent</text>
</a>
</g>
</g>
<!-- Node20&#45;&gt;Node21 -->
<g id="edge1" class="edge"><title>Node20&#45;&gt;Node21</title>
<path fill="none" stroke="midnightblue" d="M234.095,-76.5142C206.868,-83.135 172.814,-91.4161 143.836,-98.463"/>
<polygon fill="midnightblue" stroke="midnightblue" points="235.281,-79.8279 244.17,-74.064 233.627,-73.0261 235.281,-79.8279"/>
</g>
<!-- Node22 -->
<g id="node3" class="node"><title>Node22</title>
<g id="a_node3"><a xlink:href="classkoala_1_1ast_1_1astnodes_1_1_operator_node.html#a570a299b2cfd934b11b736b73fe1281d" target="_top" xlink:title=" ">
<polygon fill="white" stroke="black" points="11,-49.5 11,-79.5 151,-79.5 151,-49.5 11,-49.5"/>
<text text-anchor="start" x="19" y="-67.5" font-family="Helvetica,sans-Serif" font-size="10.00">koala.ast.astnodes.Operator</text>
<text text-anchor="middle" x="81" y="-56.5" font-family="Helvetica,sans-Serif" font-size="10.00">Node.emit</text>
</a>
</g>
</g>
<!-- Node20&#45;&gt;Node22 -->
<g id="edge2" class="edge"><title>Node20&#45;&gt;Node22</title>
<path fill="none" stroke="midnightblue" d="M187.507,-64.5C175.263,-64.5 162.926,-64.5 151.22,-64.5"/>
<polygon fill="midnightblue" stroke="midnightblue" points="187.754,-68.0001 197.754,-64.5 187.754,-61.0001 187.754,-68.0001"/>
</g>
<!-- Node23 -->
<g id="node4" class="node"><title>Node23</title>
<g id="a_node4"><a xlink:href="classkoala_1_1ast_1_1astnodes_1_1_function_node.html#a23169336061f474a338fc8f4ba51364e" target="_top" xlink:title=" ">
<polygon fill="white" stroke="black" points="11,-0.5 11,-30.5 151,-30.5 151,-0.5 11,-0.5"/>
<text text-anchor="start" x="19" y="-18.5" font-family="Helvetica,sans-Serif" font-size="10.00">koala.ast.astnodes.Function</text>
<text text-anchor="middle" x="81" y="-7.5" font-family="Helvetica,sans-Serif" font-size="10.00">Node.emit</text>
</a>
</g>
</g>
<!-- Node20&#45;&gt;Node23 -->
<g id="edge3" class="edge"><title>Node20&#45;&gt;Node23</title>
<path fill="none" stroke="midnightblue" d="M234.095,-52.4858C206.868,-45.865 172.814,-37.5839 143.836,-30.537"/>
<polygon fill="midnightblue" stroke="midnightblue" points="233.627,-55.9739 244.17,-54.936 235.281,-49.1721 233.627,-55.9739"/>
</g>
</g>
</svg>
