<?xml version="1.0" encoding="UTF-8" standalone="no"?>
<!DOCTYPE svg PUBLIC "-//W3C//DTD SVG 1.1//EN"
 "http://www.w3.org/Graphics/SVG/1.1/DTD/svg11.dtd">
<!-- Generated by graphviz version 2.38.0 (20140413.2041)
 -->
<!-- Title: koala.Spreadsheet.Spreadsheet.clean_pointer Pages: 1 -->
<svg width="572pt" height="235pt"
 viewBox="0.00 0.00 572.00 235.00" xmlns="http://www.w3.org/2000/svg" xmlns:xlink="http://www.w3.org/1999/xlink">
<g id="graph0" class="graph" transform="scale(1 1) rotate(0) translate(4 231)">
<title>koala.Spreadsheet.Spreadsheet.clean_pointer</title>
<polygon fill="white" stroke="none" points="-4,4 -4,-231 568,-231 568,4 -4,4"/>
<!-- Node140 -->
<g id="node1" class="node"><title>Node140</title>
<g id="a_node1"><a xlink:title=" ">
<polygon fill="#bfbfbf" stroke="black" points="0,-114 0,-144 182,-144 182,-114 0,-114"/>
<text text-anchor="start" x="8" y="-132" font-family="Helvetica,sans-Serif" font-size="10.00">koala.Spreadsheet.Spreadsheet.clean</text>
<text text-anchor="middle" x="91" y="-121" font-family="Helvetica,sans-Serif" font-size="10.00">_pointer</text>
</a>
</g>
</g>
<!-- Node140&#45;&gt;Node140 -->
<g id="edge1" class="edge"><title>Node140&#45;&gt;Node140</title>
<path fill="none" stroke="midnightblue" d="M53.7061,-144.159C44.7132,-153.557 57.1445,-162.5 91,-162.5 111.631,-162.5 124.306,-159.179 129.025,-154.458"/>
<polygon fill="midnightblue" stroke="midnightblue" points="132.494,-153.886 128.294,-144.159 125.511,-154.382 132.494,-153.886"/>
</g>
<!-- Node141 -->
<g id="node2" class="node"><title>Node141</title>
<g id="a_node2"><a xlink:href="namespacekoala_1_1utils.html#a152ac1827f4fdbd036d6e67cdf3acebb" target="_top" xlink:title=" ">
<polygon fill="white" stroke="black" points="255,-207.5 255,-226.5 356,-226.5 356,-207.5 255,-207.5"/>
<text text-anchor="middle" x="305.5" y="-214.5" font-family="Helvetica,sans-Serif" font-size="10.00">koala.utils.is_range</text>
</a>
</g>
</g>
<!-- Node140&#45;&gt;Node141 -->
<g id="edge2" class="edge"><title>Node140&#45;&gt;Node141</title>
<path fill="none" stroke="midnightblue" d="M114.733,-144.053C139.261,-159.66 179.934,-183.732 218,-198 226.564,-201.21 235.819,-203.954 244.98,-206.276"/>
<polygon fill="midnightblue" stroke="midnightblue" points="244.309,-209.713 254.848,-208.631 245.934,-202.905 244.309,-209.713"/>
</g>
<!-- Node142 -->
<g id="node3" class="node"><title>Node142</title>
<g id="a_node3"><a xlink:href="namespacekoala_1_1_range.html#a6a4a2138705cb8cc069ddf925e74d2c1" target="_top" xlink:title=" ">
<polygon fill="white" stroke="black" points="246.5,-158 246.5,-188 364.5,-188 364.5,-158 246.5,-158"/>
<text text-anchor="start" x="254.5" y="-176" font-family="Helvetica,sans-Serif" font-size="10.00">koala.Range.parse_cell</text>
<text text-anchor="middle" x="305.5" y="-165" font-family="Helvetica,sans-Serif" font-size="10.00">_address</text>
</a>
</g>
</g>
<!-- Node140&#45;&gt;Node142 -->
<g id="edge3" class="edge"><title>Node140&#45;&gt;Node142</title>
<path fill="none" stroke="midnightblue" d="M164.536,-144.019C187.787,-148.834 213.441,-154.146 236.366,-158.892"/>
<polygon fill="midnightblue" stroke="midnightblue" points="235.846,-162.359 246.348,-160.959 237.265,-155.504 235.846,-162.359"/>
</g>
<!-- Node143 -->
<g id="node4" class="node"><title>Node143</title>
<g id="a_node4"><a xlink:href="namespacekoala_1_1ast.html#a76e6cdc1c1338001a6d0c4ac4a038087" target="_top" xlink:title=" ">
<polygon fill="white" stroke="black" points="245.5,-119.5 245.5,-138.5 365.5,-138.5 365.5,-119.5 245.5,-119.5"/>
<text text-anchor="middle" x="305.5" y="-126.5" font-family="Helvetica,sans-Serif" font-size="10.00">koala.ast.shunting_yard</text>
</a>
</g>
</g>
<!-- Node140&#45;&gt;Node143 -->
<g id="edge4" class="edge"><title>Node140&#45;&gt;Node143</title>
<path fill="none" stroke="midnightblue" d="M182.119,-129C199.824,-129 218.141,-129 235.041,-129"/>
<polygon fill="midnightblue" stroke="midnightblue" points="235.362,-132.5 245.362,-129 235.362,-125.5 235.362,-132.5"/>
</g>
<!-- Node145 -->
<g id="node6" class="node"><title>Node145</title>
<g id="a_node6"><a xlink:href="namespacekoala_1_1ast.html#a36277633c59487f9b1c1b256df41e942" target="_top" xlink:title=" ">
<polygon fill="white" stroke="black" points="256.5,-81.5 256.5,-100.5 354.5,-100.5 354.5,-81.5 256.5,-81.5"/>
<text text-anchor="middle" x="305.5" y="-88.5" font-family="Helvetica,sans-Serif" font-size="10.00">koala.ast.build_ast</text>
</a>
</g>
</g>
<!-- Node140&#45;&gt;Node145 -->
<g id="edge6" class="edge"><title>Node140&#45;&gt;Node145</title>
<path fill="none" stroke="midnightblue" d="M175.986,-113.981C199.521,-109.773 224.582,-105.291 246.265,-101.414"/>
<polygon fill="midnightblue" stroke="midnightblue" points="247.065,-104.826 256.293,-99.6206 245.833,-97.9356 247.065,-104.826"/>
</g>
<!-- Node146 -->
<g id="node7" class="node"><title>Node146</title>
<g id="a_node7"><a xlink:href="classkoala_1_1_spreadsheet_1_1_spreadsheet.html#af4c45ee9335aadc10ba61c0db30a33b2" target="_top" xlink:title=" ">
<polygon fill="white" stroke="black" points="218,-14 218,-44 393,-44 393,-14 218,-14"/>
<text text-anchor="start" x="226" y="-32" font-family="Helvetica,sans-Serif" font-size="10.00">koala.Spreadsheet.Spreadsheet.eval</text>
<text text-anchor="middle" x="305.5" y="-21" font-family="Helvetica,sans-Serif" font-size="10.00">_pointers_from_ast</text>
</a>
</g>
</g>
<!-- Node140&#45;&gt;Node146 -->
<g id="edge7" class="edge"><title>Node140&#45;&gt;Node146</title>
<path fill="none" stroke="midnightblue" d="M124.274,-113.812C161.544,-96.2735 222.921,-67.3901 263.528,-48.2808"/>
<polygon fill="midnightblue" stroke="midnightblue" points="265.06,-51.428 272.618,-44.0031 262.08,-45.0943 265.06,-51.428"/>
</g>
<!-- Node144 -->
<g id="node5" class="node"><title>Node144</title>
<g id="a_node5"><a xlink:href="namespacekoala_1_1ast.html#a39876c353cfbf071723ede9b5a59eda4" target="_top" xlink:title=" ">
<polygon fill="white" stroke="black" points="440,-119.5 440,-138.5 553,-138.5 553,-119.5 440,-119.5"/>
<text text-anchor="middle" x="496.5" y="-126.5" font-family="Helvetica,sans-Serif" font-size="10.00">koala.ast.create_node</text>
</a>
</g>
</g>
<!-- Node143&#45;&gt;Node144 -->
<g id="edge5" class="edge"><title>Node143&#45;&gt;Node144</title>
<path fill="none" stroke="midnightblue" d="M365.523,-129C385.908,-129 408.868,-129 429.757,-129"/>
<polygon fill="midnightblue" stroke="midnightblue" points="429.825,-132.5 439.824,-129 429.824,-125.5 429.825,-132.5"/>
</g>
<!-- Node146&#45;&gt;Node146 -->
<g id="edge9" class="edge"><title>Node146&#45;&gt;Node146</title>
<path fill="none" stroke="midnightblue" d="M272.389,-44.159C264.404,-53.5566 275.441,-62.5 305.5,-62.5 323.817,-62.5 335.071,-59.179 339.261,-54.4579"/>
<polygon fill="midnightblue" stroke="midnightblue" points="342.734,-53.9189 338.611,-44.159 335.748,-54.3594 342.734,-53.9189"/>
</g>
<!-- Node147 -->
<g id="node8" class="node"><title>Node147</title>
<g id="a_node8"><a xlink:href="namespacekoala_1_1tokenizer.html#aad729e834025da12ee669f20324a9eb8" target="_top" xlink:title=" ">
<polygon fill="white" stroke="black" points="429,-38.5 429,-57.5 564,-57.5 564,-38.5 429,-38.5"/>
<text text-anchor="middle" x="496.5" y="-45.5" font-family="Helvetica,sans-Serif" font-size="10.00">koala.tokenizer.reverse_rpn</text>
</a>
</g>
</g>
<!-- Node146&#45;&gt;Node147 -->
<g id="edge8" class="edge"><title>Node146&#45;&gt;Node147</title>
<path fill="none" stroke="midnightblue" d="M393.256,-37.7215C401.742,-38.5745 410.311,-39.436 418.688,-40.2782"/>
<polygon fill="midnightblue" stroke="midnightblue" points="418.493,-43.7761 428.793,-41.294 419.193,-36.8112 418.493,-43.7761"/>
</g>
<!-- Node148 -->
<g id="node9" class="node"><title>Node148</title>
<g id="a_node9"><a xlink:href="namespacekoala_1_1utils.html#aabb45efe6343cf3795888c77a434d47d" target="_top" xlink:title=" ">
<polygon fill="white" stroke="black" points="451.5,-0.5 451.5,-19.5 541.5,-19.5 541.5,-0.5 451.5,-0.5"/>
<text text-anchor="middle" x="496.5" y="-7.5" font-family="Helvetica,sans-Serif" font-size="10.00">koala.utils.flatten</text>
</a>
</g>
</g>
<!-- Node146&#45;&gt;Node148 -->
<g id="edge10" class="edge"><title>Node146&#45;&gt;Node148</title>
<path fill="none" stroke="midnightblue" d="M393.256,-20.2785C409.577,-18.6378 426.208,-16.9659 441.185,-15.4603"/>
<polygon fill="midnightblue" stroke="midnightblue" points="441.665,-18.9298 451.264,-14.447 440.964,-11.9649 441.665,-18.9298"/>
</g>
</g>
</svg>
