<?xml version="1.0" encoding="UTF-8" standalone="no"?>
<!DOCTYPE svg PUBLIC "-//W3C//DTD SVG 1.1//EN"
 "http://www.w3.org/Graphics/SVG/1.1/DTD/svg11.dtd">
<!-- Generated by graphviz version 2.38.0 (20140413.2041)
 -->
<!-- Title: koala.Spreadsheet.Spreadsheet.cell_set_value Pages: 1 -->
<!--zoomable 369 -->
<svg id="main" version="1.1" xmlns="http://www.w3.org/2000/svg" xmlns:xlink="http://www.w3.org/1999/xlink" xml:space="preserve" onload="init(evt)">
<style type="text/css"><![CDATA[
.edge:hover path { stroke: red; }
.edge:hover polygon { stroke: red; fill: red; }
]]></style>
<script type="text/javascript"><![CDATA[
var edges = document.getElementsByTagName('g');
if (edges && edges.length) {
  for (var i=0;i<edges.length;i++) {
    if (edges[i].id.substr(0,4)=='edge') {
      edges[i].setAttribute('class','edge');
    }
  }
}
]]></script>
        <defs>
                <circle id="rim" cx="0" cy="0" r="7"/>
                <circle id="rim2" cx="0" cy="0" r="3.5"/>
                <g id="zoomPlus">
                        <use xlink:href="#rim" fill="#404040">
                                <set attributeName="fill" to="#808080" begin="zoomplus.mouseover" end="zoomplus.mouseout"/>
                        </use>
                        <path d="M-4,0h8M0,-4v8" fill="none" stroke="white" stroke-width="1.5" pointer-events="none"/>
                </g>
                <g id="zoomMin">
                        <use xlink:href="#rim" fill="#404040">
                                <set attributeName="fill" to="#808080" begin="zoomminus.mouseover" end="zoomminus.mouseout"/>
                        </use>
                        <path d="M-4,0h8" fill="none" stroke="white" stroke-width="1.5" pointer-events="none"/>
                </g>
                <g id="dirArrow">
                        <path fill="none" stroke="white" stroke-width="1.5" d="M0,-3.0v7 M-2.5,-0.5L0,-3.0L2.5,-0.5"/>
                </g>
               <g id="resetDef">
                       <use xlink:href="#rim2" fill="#404040">
                               <set attributeName="fill" to="#808080" begin="reset.mouseover" end="reset.mouseout"/>
                       </use>
               </g>
        </defs>

<script type="text/javascript">
var viewWidth = 1110;
var viewHeight = 369;
var sectionId = 'dynsection-17';
</script>
<script xlink:href="svgpan.js"/>
<svg id="graph" class="graph">
<g id="viewport">
<title>koala.Spreadsheet.Spreadsheet.cell_set_value</title>
<polygon fill="white" stroke="none" points="-4,4 -4,-364.5 1106,-364.5 1106,4 -4,4"/>
<!-- Node115 -->
<g id="node1" class="node"><title>Node115</title>
<g id="a_node1"><a xlink:title=" ">
<polygon fill="#bfbfbf" stroke="black" points="0,-197 0,-227 173,-227 173,-197 0,-197"/>
<text text-anchor="start" x="8" y="-215" font-family="Helvetica,sans-Serif" font-size="10.00">koala.Spreadsheet.Spreadsheet.cell</text>
<text text-anchor="middle" x="86.5" y="-204" font-family="Helvetica,sans-Serif" font-size="10.00">_set_value</text>
</a>
</g>
</g>
<!-- Node116 -->
<g id="node2" class="node"><title>Node116</title>
<g id="a_node2"><a xlink:href="classkoala_1_1_spreadsheet_1_1_spreadsheet.html#a9d7718c6c87f06155aea63d7e12344f3" target="_top" xlink:title=" ">
<polygon fill="white" stroke="black" points="212,-264.5 212,-283.5 400,-283.5 400,-264.5 212,-264.5"/>
<text text-anchor="middle" x="306" y="-271.5" font-family="Helvetica,sans-Serif" font-size="10.00">koala.Spreadsheet.Spreadsheet.fix_cell</text>
</a>
</g>
</g>
<!-- Node115&#45;&gt;Node116 -->
<g id="edge1" class="edge"><title>Node115&#45;&gt;Node116</title>
<path fill="none" stroke="midnightblue" d="M126.772,-227.002C150.373,-235.658 181.138,-246.316 209,-254 219.916,-257.011 231.641,-259.807 243.017,-262.297"/>
<polygon fill="midnightblue" stroke="midnightblue" points="242.385,-265.741 252.895,-264.404 243.845,-258.895 242.385,-265.741"/>
</g>
<!-- Node118 -->
<g id="node4" class="node"><title>Node118</title>
<g id="a_node4"><a xlink:href="classkoala_1_1_spreadsheet_1_1_spreadsheet.html#a6a30676c4bbc56ea5d6f78f073312b6e" target="_top" xlink:title=" ">
<polygon fill="white" stroke="black" points="219.5,-197 219.5,-227 392.5,-227 392.5,-197 219.5,-197"/>
<text text-anchor="start" x="227.5" y="-215" font-family="Helvetica,sans-Serif" font-size="10.00">koala.Spreadsheet.Spreadsheet.cell</text>
<text text-anchor="middle" x="306" y="-204" font-family="Helvetica,sans-Serif" font-size="10.00">_reset</text>
</a>
</g>
</g>
<!-- Node115&#45;&gt;Node118 -->
<g id="edge3" class="edge"><title>Node115&#45;&gt;Node118</title>
<path fill="none" stroke="midnightblue" d="M173.15,-212C185.037,-212 197.311,-212 209.366,-212"/>
<polygon fill="midnightblue" stroke="midnightblue" points="209.429,-215.5 219.428,-212 209.428,-208.5 209.429,-215.5"/>
</g>
<!-- Node119 -->
<g id="node5" class="node"><title>Node119</title>
<g id="a_node5"><a xlink:href="classkoala_1_1_spreadsheet_1_1_spreadsheet.html#affd17089825c4b3391c4d6b9b702209c" target="_top" xlink:title=" ">
<polygon fill="white" stroke="black" points="209,-158.5 209,-177.5 403,-177.5 403,-158.5 209,-158.5"/>
<text text-anchor="middle" x="306" y="-165.5" font-family="Helvetica,sans-Serif" font-size="10.00">koala.Spreadsheet.Spreadsheet.cell_add</text>
</a>
</g>
</g>
<!-- Node115&#45;&gt;Node119 -->
<g id="edge5" class="edge"><title>Node115&#45;&gt;Node119</title>
<path fill="none" stroke="midnightblue" d="M160.081,-196.972C176.183,-193.664 193.168,-190.196 209,-187 220.97,-184.584 233.786,-182.027 246.03,-179.598"/>
<polygon fill="midnightblue" stroke="midnightblue" points="247.019,-182.971 256.148,-177.595 245.659,-176.104 247.019,-182.971"/>
</g>
<!-- Node117 -->
<g id="node3" class="node"><title>Node117</title>
<g id="a_node3"><a xlink:href="classkoala_1_1_spreadsheet_1_1_spreadsheet.html#a89ffab272ebf76d8e0e331c95234dd2a" target="_top" xlink:title=" ">
<polygon fill="white" stroke="black" points="439,-264.5 439,-283.5 627,-283.5 627,-264.5 439,-264.5"/>
<text text-anchor="middle" x="533" y="-271.5" font-family="Helvetica,sans-Serif" font-size="10.00">koala.Spreadsheet.Spreadsheet.cell_fix</text>
</a>
</g>
</g>
<!-- Node116&#45;&gt;Node117 -->
<g id="edge2" class="edge"><title>Node116&#45;&gt;Node117</title>
<path fill="none" stroke="midnightblue" d="M400.14,-274C409.551,-274 419.149,-274 428.658,-274"/>
<polygon fill="midnightblue" stroke="midnightblue" points="428.93,-277.5 438.93,-274 428.93,-270.5 428.93,-277.5"/>
</g>
<!-- Node118&#45;&gt;Node118 -->
<g id="edge4" class="edge"><title>Node118&#45;&gt;Node118</title>
<path fill="none" stroke="midnightblue" d="M268.009,-227.159C258.848,-236.557 271.512,-245.5 306,-245.5 327.016,-245.5 339.928,-242.179 344.736,-237.458"/>
<polygon fill="midnightblue" stroke="midnightblue" points="348.203,-236.88 343.991,-227.159 341.222,-237.385 348.203,-236.88"/>
</g>
<!-- Node120 -->
<g id="node6" class="node"><title>Node120</title>
<g id="a_node6"><a xlink:href="namespacekoala_1_1ast.html#aa55446c8aa764f09775f006ee775ec7b" target="_top" xlink:title=" ">
<polygon fill="white" stroke="black" points="479.5,-153 479.5,-183 586.5,-183 586.5,-153 479.5,-153"/>
<text text-anchor="start" x="487.5" y="-171" font-family="Helvetica,sans-Serif" font-size="10.00">koala.ast.graph_from</text>
<text text-anchor="middle" x="533" y="-160" font-family="Helvetica,sans-Serif" font-size="10.00">_seeds</text>
</a>
</g>
</g>
<!-- Node119&#45;&gt;Node120 -->
<g id="edge6" class="edge"><title>Node119&#45;&gt;Node120</title>
<path fill="none" stroke="midnightblue" d="M403.073,-168C425.45,-168 448.713,-168 469.218,-168"/>
<polygon fill="midnightblue" stroke="midnightblue" points="469.357,-171.5 479.357,-168 469.357,-164.5 469.357,-171.5"/>
</g>
<!-- Node121 -->
<g id="node7" class="node"><title>Node121</title>
<g id="a_node7"><a xlink:href="namespacekoala_1_1ast.html#abb76e7037309a032effde5e5078a86e2" target="_top" xlink:title=" ">
<polygon fill="white" stroke="black" points="678.5,-272.5 678.5,-291.5 779.5,-291.5 779.5,-272.5 678.5,-272.5"/>
<text text-anchor="middle" x="729" y="-279.5" font-family="Helvetica,sans-Serif" font-size="10.00">koala.ast.cell2code</text>
</a>
</g>
</g>
<!-- Node120&#45;&gt;Node121 -->
<g id="edge7" class="edge"><title>Node120&#45;&gt;Node121</title>
<path fill="none" stroke="midnightblue" d="M550.667,-183.318C574.101,-204.109 618.878,-241.163 663,-263 667.623,-265.288 672.571,-267.35 677.596,-269.196"/>
<polygon fill="midnightblue" stroke="midnightblue" points="676.696,-272.586 687.291,-272.483 678.944,-265.957 676.696,-272.586"/>
</g>
<!-- Node126 -->
<g id="node12" class="node"><title>Node126</title>
<g id="a_node12"><a xlink:href="namespacekoala_1_1utils.html#ac7f70de24f29847f700db5eb4cad018c" target="_top" xlink:title=" ">
<polygon fill="white" stroke="black" points="678,-234.5 678,-253.5 780,-253.5 780,-234.5 678,-234.5"/>
<text text-anchor="middle" x="729" y="-241.5" font-family="Helvetica,sans-Serif" font-size="10.00">koala.utils.uniqueify</text>
</a>
</g>
</g>
<!-- Node120&#45;&gt;Node126 -->
<g id="edge12" class="edge"><title>Node120&#45;&gt;Node126</title>
<path fill="none" stroke="midnightblue" d="M570.585,-183.082C596.348,-193.62 631.688,-207.911 663,-220 672.412,-223.634 682.633,-227.462 692.123,-230.968"/>
<polygon fill="midnightblue" stroke="midnightblue" points="691.09,-234.317 701.684,-234.483 693.506,-227.747 691.09,-234.317"/>
</g>
<!-- Node127 -->
<g id="node13" class="node"><title>Node127</title>
<g id="a_node13"><a xlink:href="namespacekoala_1_1utils.html#a152ac1827f4fdbd036d6e67cdf3acebb" target="_top" xlink:title=" ">
<polygon fill="white" stroke="black" points="841.5,-196.5 841.5,-215.5 942.5,-215.5 942.5,-196.5 841.5,-196.5"/>
<text text-anchor="middle" x="892" y="-203.5" font-family="Helvetica,sans-Serif" font-size="10.00">koala.utils.is_range</text>
</a>
</g>
</g>
<!-- Node120&#45;&gt;Node127 -->
<g id="edge13" class="edge"><title>Node120&#45;&gt;Node127</title>
<path fill="none" stroke="midnightblue" d="M586.717,-173.76C610.085,-176.303 637.912,-179.318 663,-182 720.03,-188.096 785.099,-194.934 831.086,-199.747"/>
<polygon fill="midnightblue" stroke="midnightblue" points="830.871,-203.243 841.181,-200.803 831.599,-196.281 830.871,-203.243"/>
</g>
<!-- Node128 -->
<g id="node14" class="node"><title>Node128</title>
<g id="a_node14"><a xlink:href="namespacekoala_1_1ast.html#a3d0179539d74f2668d3917bf28d2edd8" target="_top" xlink:title=" ">
<polygon fill="white" stroke="black" points="666,-310.5 666,-329.5 792,-329.5 792,-310.5 666,-310.5"/>
<text text-anchor="middle" x="729" y="-317.5" font-family="Helvetica,sans-Serif" font-size="10.00">koala.ast.prepare_pointer</text>
</a>
</g>
</g>
<!-- Node120&#45;&gt;Node128 -->
<g id="edge14" class="edge"><title>Node120&#45;&gt;Node128</title>
<path fill="none" stroke="midnightblue" d="M551.913,-183.271C571.233,-200.074 602.514,-228.257 627,-255 644.532,-274.147 641.509,-286.436 663,-301 666.051,-303.067 669.329,-304.913 672.733,-306.561"/>
<polygon fill="midnightblue" stroke="midnightblue" points="671.395,-309.795 681.968,-310.475 674.127,-303.35 671.395,-309.795"/>
</g>
<!-- Node129 -->
<g id="node15" class="node"><title>Node129</title>
<g id="a_node15"><a xlink:href="namespacekoala_1_1utils.html#a1d3620df245d23fea05928298cabc2ac" target="_top" xlink:title=" ">
<polygon fill="white" stroke="black" points="682,-109 682,-139 776,-139 776,-109 682,-109"/>
<text text-anchor="start" x="690" y="-127" font-family="Helvetica,sans-Serif" font-size="10.00">koala.utils.resolve</text>
<text text-anchor="middle" x="729" y="-116" font-family="Helvetica,sans-Serif" font-size="10.00">_range</text>
</a>
</g>
</g>
<!-- Node120&#45;&gt;Node129 -->
<g id="edge18" class="edge"><title>Node120&#45;&gt;Node129</title>
<path fill="none" stroke="midnightblue" d="M586.755,-156.035C613.12,-150.055 645.036,-142.817 671.854,-136.734"/>
<polygon fill="midnightblue" stroke="midnightblue" points="672.882,-140.09 681.86,-134.465 671.333,-133.263 672.882,-140.09"/>
</g>
<!-- Node131 -->
<g id="node17" class="node"><title>Node131</title>
<g id="a_node17"><a xlink:href="namespacekoala_1_1utils.html#a5c70ac45916995934736ab28b501c8c5" target="_top" xlink:title=" ">
<polygon fill="white" stroke="black" points="831,-158.5 831,-177.5 953,-177.5 953,-158.5 831,-158.5"/>
<text text-anchor="middle" x="892" y="-165.5" font-family="Helvetica,sans-Serif" font-size="10.00">koala.utils.split_address</text>
</a>
</g>
</g>
<!-- Node120&#45;&gt;Node131 -->
<g id="edge25" class="edge"><title>Node120&#45;&gt;Node131</title>
<path fill="none" stroke="midnightblue" d="M586.677,-168C648.664,-168 751.84,-168 820.632,-168"/>
<polygon fill="midnightblue" stroke="midnightblue" points="820.944,-171.5 830.944,-168 820.944,-164.5 820.944,-171.5"/>
</g>
<!-- Node132 -->
<g id="node18" class="node"><title>Node132</title>
<g id="a_node18"><a xlink:href="namespacekoala_1_1utils.html#a65476c62402a00e3d46dbc99b6a4ea88" target="_top" xlink:title=" ">
<polygon fill="white" stroke="black" points="841.5,-44.5 841.5,-63.5 942.5,-63.5 942.5,-44.5 841.5,-44.5"/>
<text text-anchor="middle" x="892" y="-51.5" font-family="Helvetica,sans-Serif" font-size="10.00">koala.utils.col2num</text>
</a>
</g>
</g>
<!-- Node120&#45;&gt;Node132 -->
<g id="edge28" class="edge"><title>Node120&#45;&gt;Node132</title>
<path fill="none" stroke="midnightblue" d="M546.306,-152.669C567.218,-127.954 612.378,-80.1449 663,-61 717.18,-40.5095 783.878,-41.1487 831.103,-45.4614"/>
<polygon fill="midnightblue" stroke="midnightblue" points="830.873,-48.9558 841.171,-46.4632 831.567,-41.9902 830.873,-48.9558"/>
</g>
<!-- Node134 -->
<g id="node20" class="node"><title>Node134</title>
<g id="a_node20"><a xlink:href="namespacekoala_1_1utils.html#aabb45efe6343cf3795888c77a434d47d" target="_top" xlink:title=" ">
<polygon fill="white" stroke="black" points="847,-0.5 847,-19.5 937,-19.5 937,-0.5 847,-0.5"/>
<text text-anchor="middle" x="892" y="-7.5" font-family="Helvetica,sans-Serif" font-size="10.00">koala.utils.flatten</text>
</a>
</g>
</g>
<!-- Node120&#45;&gt;Node134 -->
<g id="edge29" class="edge"><title>Node120&#45;&gt;Node134</title>
<path fill="none" stroke="midnightblue" d="M544.263,-152.569C563.719,-124.732 608.901,-66.5454 663,-40 717.763,-13.1287 788.373,-7.64648 836.407,-7.59372"/>
<polygon fill="midnightblue" stroke="midnightblue" points="836.577,-11.0949 846.6,-7.66349 836.625,-4.09503 836.577,-11.0949"/>
</g>
<!-- Node135 -->
<g id="node21" class="node"><title>Node135</title>
<g id="a_node21"><a xlink:href="namespacekoala_1_1utils.html#a71673869f44a8e5ee678759d1c099ada" target="_top" xlink:title=" ">
<polygon fill="white" stroke="black" points="663,-70.5 663,-89.5 795,-89.5 795,-70.5 663,-70.5"/>
<text text-anchor="middle" x="729" y="-77.5" font-family="Helvetica,sans-Serif" font-size="10.00">koala.utils.max_dimension</text>
</a>
</g>
</g>
<!-- Node120&#45;&gt;Node135 -->
<g id="edge26" class="edge"><title>Node120&#45;&gt;Node135</title>
<path fill="none" stroke="midnightblue" d="M558.47,-152.934C583.882,-137.767 625.145,-114.462 663,-99 668.578,-96.7216 674.528,-94.594 680.477,-92.6481"/>
<polygon fill="midnightblue" stroke="midnightblue" points="681.916,-95.8659 690.422,-89.5502 679.834,-89.1826 681.916,-95.8659"/>
</g>
<!-- Node122 -->
<g id="node8" class="node"><title>Node122</title>
<g id="a_node8"><a xlink:href="namespacekoala_1_1_range.html#a6a4a2138705cb8cc069ddf925e74d2c1" target="_top" xlink:title=" ">
<polygon fill="white" stroke="black" points="833,-330 833,-360 951,-360 951,-330 833,-330"/>
<text text-anchor="start" x="841" y="-348" font-family="Helvetica,sans-Serif" font-size="10.00">koala.Range.parse_cell</text>
<text text-anchor="middle" x="892" y="-337" font-family="Helvetica,sans-Serif" font-size="10.00">_address</text>
</a>
</g>
</g>
<!-- Node121&#45;&gt;Node122 -->
<g id="edge8" class="edge"><title>Node121&#45;&gt;Node122</title>
<path fill="none" stroke="midnightblue" d="M767.564,-291.584C776.666,-294.288 786.283,-297.468 795,-301 811.767,-307.795 814.633,-312.291 831,-320 835.131,-321.946 839.456,-323.902 843.809,-325.815"/>
<polygon fill="midnightblue" stroke="midnightblue" points="842.754,-329.171 853.322,-329.916 845.525,-322.743 842.754,-329.171"/>
</g>
<!-- Node123 -->
<g id="node9" class="node"><title>Node123</title>
<g id="a_node9"><a xlink:href="namespacekoala_1_1ast.html#a76e6cdc1c1338001a6d0c4ac4a038087" target="_top" xlink:title=" ">
<polygon fill="white" stroke="black" points="832,-291.5 832,-310.5 952,-310.5 952,-291.5 832,-291.5"/>
<text text-anchor="middle" x="892" y="-298.5" font-family="Helvetica,sans-Serif" font-size="10.00">koala.ast.shunting_yard</text>
</a>
</g>
</g>
<!-- Node121&#45;&gt;Node123 -->
<g id="edge9" class="edge"><title>Node121&#45;&gt;Node123</title>
<path fill="none" stroke="midnightblue" d="M779.619,-287.856C792.927,-289.426 807.563,-291.153 821.726,-292.825"/>
<polygon fill="midnightblue" stroke="midnightblue" points="821.588,-296.333 831.929,-294.029 822.408,-289.381 821.588,-296.333"/>
</g>
<!-- Node125 -->
<g id="node11" class="node"><title>Node125</title>
<g id="a_node11"><a xlink:href="namespacekoala_1_1ast.html#a36277633c59487f9b1c1b256df41e942" target="_top" xlink:title=" ">
<polygon fill="white" stroke="black" points="843,-253.5 843,-272.5 941,-272.5 941,-253.5 843,-253.5"/>
<text text-anchor="middle" x="892" y="-260.5" font-family="Helvetica,sans-Serif" font-size="10.00">koala.ast.build_ast</text>
</a>
</g>
</g>
<!-- Node121&#45;&gt;Node125 -->
<g id="edge11" class="edge"><title>Node121&#45;&gt;Node125</title>
<path fill="none" stroke="midnightblue" d="M779.619,-276.144C796.456,-274.157 815.418,-271.92 832.859,-269.861"/>
<polygon fill="midnightblue" stroke="midnightblue" points="833.404,-273.321 842.925,-268.673 832.583,-266.37 833.404,-273.321"/>
</g>
<!-- Node124 -->
<g id="node10" class="node"><title>Node124</title>
<g id="a_node10"><a xlink:href="namespacekoala_1_1ast.html#a39876c353cfbf071723ede9b5a59eda4" target="_top" xlink:title=" ">
<polygon fill="white" stroke="black" points="989,-291.5 989,-310.5 1102,-310.5 1102,-291.5 989,-291.5"/>
<text text-anchor="middle" x="1045.5" y="-298.5" font-family="Helvetica,sans-Serif" font-size="10.00">koala.ast.create_node</text>
</a>
</g>
</g>
<!-- Node123&#45;&gt;Node124 -->
<g id="edge10" class="edge"><title>Node123&#45;&gt;Node124</title>
<path fill="none" stroke="midnightblue" d="M952.008,-301C960.726,-301 969.756,-301 978.604,-301"/>
<polygon fill="midnightblue" stroke="midnightblue" points="978.877,-304.5 988.877,-301 978.877,-297.5 978.877,-304.5"/>
</g>
<!-- Node128&#45;&gt;Node122 -->
<g id="edge15" class="edge"><title>Node128&#45;&gt;Node122</title>
<path fill="none" stroke="midnightblue" d="M791.326,-329.523C801.63,-331.123 812.378,-332.792 822.842,-334.416"/>
<polygon fill="midnightblue" stroke="midnightblue" points="822.344,-337.881 832.762,-335.957 823.418,-330.964 822.344,-337.881"/>
</g>
<!-- Node128&#45;&gt;Node123 -->
<g id="edge16" class="edge"><title>Node128&#45;&gt;Node123</title>
<path fill="none" stroke="midnightblue" d="M792.247,-312.654C801.901,-311.515 811.925,-310.332 821.722,-309.176"/>
<polygon fill="midnightblue" stroke="midnightblue" points="822.305,-312.631 831.826,-307.983 821.484,-305.68 822.305,-312.631"/>
</g>
<!-- Node128&#45;&gt;Node125 -->
<g id="edge17" class="edge"><title>Node128&#45;&gt;Node125</title>
<path fill="none" stroke="midnightblue" d="M767.564,-310.416C776.666,-307.712 786.283,-304.532 795,-301 811.767,-294.205 814.309,-288.981 831,-282 836.36,-279.758 842.082,-277.628 847.784,-275.66"/>
<polygon fill="midnightblue" stroke="midnightblue" points="848.902,-278.976 857.294,-272.509 846.701,-272.331 848.902,-278.976"/>
</g>
<!-- Node129&#45;&gt;Node127 -->
<g id="edge20" class="edge"><title>Node129&#45;&gt;Node127</title>
<path fill="none" stroke="midnightblue" d="M750.793,-139.147C770.624,-153.056 801.725,-173.496 831,-187 835.776,-189.203 840.878,-191.25 846.014,-193.121"/>
<polygon fill="midnightblue" stroke="midnightblue" points="845.261,-196.562 855.856,-196.497 847.533,-189.941 845.261,-196.562"/>
</g>
<!-- Node130 -->
<g id="node16" class="node"><title>Node130</title>
<g id="a_node16"><a xlink:href="namespacekoala_1_1utils.html#a77ace10251dde2f09a457b7b469208cc" target="_top" xlink:title=" ">
<polygon fill="white" stroke="black" points="836.5,-82.5 836.5,-101.5 947.5,-101.5 947.5,-82.5 836.5,-82.5"/>
<text text-anchor="middle" x="892" y="-89.5" font-family="Helvetica,sans-Serif" font-size="10.00">koala.utils.split_range</text>
</a>
</g>
</g>
<!-- Node129&#45;&gt;Node130 -->
<g id="edge19" class="edge"><title>Node129&#45;&gt;Node130</title>
<path fill="none" stroke="midnightblue" d="M776.136,-114.83C793.937,-111.292 814.497,-107.205 833.261,-103.476"/>
<polygon fill="midnightblue" stroke="midnightblue" points="834.051,-106.888 843.177,-101.505 832.686,-100.022 834.051,-106.888"/>
</g>
<!-- Node129&#45;&gt;Node131 -->
<g id="edge21" class="edge"><title>Node129&#45;&gt;Node131</title>
<path fill="none" stroke="midnightblue" d="M776.136,-136.609C798.215,-142.643 824.539,-149.837 846.414,-155.815"/>
<polygon fill="midnightblue" stroke="midnightblue" points="845.551,-159.207 856.12,-158.467 847.396,-152.455 845.551,-159.207"/>
</g>
<!-- Node129&#45;&gt;Node132 -->
<g id="edge22" class="edge"><title>Node129&#45;&gt;Node132</title>
<path fill="none" stroke="midnightblue" d="M773.707,-108.982C780.964,-105.983 788.302,-102.627 795,-99 812.355,-89.6014 813.369,-81.8694 831,-73 835.347,-70.8134 839.997,-68.8126 844.713,-66.9992"/>
<polygon fill="midnightblue" stroke="midnightblue" points="846.168,-70.1963 854.411,-63.5404 843.816,-63.6031 846.168,-70.1963"/>
</g>
<!-- Node133 -->
<g id="node19" class="node"><title>Node133</title>
<g id="a_node19"><a xlink:href="namespacekoala_1_1utils.html#a2037076cc5a6fbf884023917a0cbfca7" target="_top" xlink:title=" ">
<polygon fill="white" stroke="black" points="841.5,-120.5 841.5,-139.5 942.5,-139.5 942.5,-120.5 841.5,-120.5"/>
<text text-anchor="middle" x="892" y="-127.5" font-family="Helvetica,sans-Serif" font-size="10.00">koala.utils.num2col</text>
</a>
</g>
</g>
<!-- Node129&#45;&gt;Node133 -->
<g id="edge23" class="edge"><title>Node129&#45;&gt;Node133</title>
<path fill="none" stroke="midnightblue" d="M776.136,-125.719C793.305,-126.359 813.04,-127.095 831.255,-127.773"/>
<polygon fill="midnightblue" stroke="midnightblue" points="831.357,-131.28 841.481,-128.155 831.618,-124.284 831.357,-131.28"/>
</g>
<!-- Node129&#45;&gt;Node134 -->
<g id="edge24" class="edge"><title>Node129&#45;&gt;Node134</title>
<path fill="none" stroke="midnightblue" d="M776.311,-110.819C783.026,-107.638 789.512,-103.744 795,-99 819.69,-77.658 806.607,-56.6809 831,-35 836.044,-30.5172 842.005,-26.7645 848.179,-23.6455"/>
<polygon fill="midnightblue" stroke="midnightblue" points="849.63,-26.8307 857.297,-19.5181 846.744,-20.4537 849.63,-26.8307"/>
</g>
<!-- Node135&#45;&gt;Node132 -->
<g id="edge27" class="edge"><title>Node135&#45;&gt;Node132</title>
<path fill="none" stroke="midnightblue" d="M789.036,-70.4662C802.902,-68.227 817.684,-65.8399 831.567,-63.5979"/>
<polygon fill="midnightblue" stroke="midnightblue" points="832.177,-67.0448 841.491,-61.9953 831.061,-60.1344 832.177,-67.0448"/>
</g>
</g>
</svg>
        <g id="navigator" transform="translate(0 0)" fill="#404254">
                <rect fill="#f2f5e9" fill-opacity="0.5" stroke="#606060" stroke-width=".5" x="0" y="0" width="60" height="60"/>
                <use id="zoomplus" xlink:href="#zoomPlus" x="17" y="9" onmousedown="handleZoom(evt,'in')"/>
                <use id="zoomminus" xlink:href="#zoomMin" x="42" y="9" onmousedown="handleZoom(evt,'out')"/>
                <use id="reset" xlink:href="#resetDef" x="30" y="36" onmousedown="handleReset()"/>
                <g id="arrowUp" xlink:href="#dirArrow" transform="translate(30 24)" onmousedown="handlePan(0,-1)">
                  <use xlink:href="#rim" fill="#404040">
                        <set attributeName="fill" to="#808080" begin="arrowUp.mouseover" end="arrowUp.mouseout"/>
                  </use>
                  <path fill="none" stroke="white" stroke-width="1.5" d="M0,-3.0v7 M-2.5,-0.5L0,-3.0L2.5,-0.5"/>
                </g>
                <g id="arrowRight" xlink:href="#dirArrow" transform="rotate(90) translate(36 -43)" onmousedown="handlePan(1,0)">
                  <use xlink:href="#rim" fill="#404040">
                        <set attributeName="fill" to="#808080" begin="arrowRight.mouseover" end="arrowRight.mouseout"/>
                  </use>
                  <path fill="none" stroke="white" stroke-width="1.5" d="M0,-3.0v7 M-2.5,-0.5L0,-3.0L2.5,-0.5"/>
                </g>
                <g id="arrowDown" xlink:href="#dirArrow" transform="rotate(180) translate(-30 -48)" onmousedown="handlePan(0,1)">
                  <use xlink:href="#rim" fill="#404040">
                        <set attributeName="fill" to="#808080" begin="arrowDown.mouseover" end="arrowDown.mouseout"/>
                  </use>
                  <path fill="none" stroke="white" stroke-width="1.5" d="M0,-3.0v7 M-2.5,-0.5L0,-3.0L2.5,-0.5"/>
                </g>
                <g id="arrowLeft" xlink:href="#dirArrow" transform="rotate(270) translate(-36 17)" onmousedown="handlePan(-1,0)">
                  <use xlink:href="#rim" fill="#404040">
                        <set attributeName="fill" to="#808080" begin="arrowLeft.mouseover" end="arrowLeft.mouseout"/>
                  </use>
                  <path fill="none" stroke="white" stroke-width="1.5" d="M0,-3.0v7 M-2.5,-0.5L0,-3.0L2.5,-0.5"/>
                </g>
        </g>
        <svg viewBox="0 0 15 15" width="100%" height="30px" preserveAspectRatio="xMaxYMin meet">
         <g id="arrow_out" transform="scale(0.3 0.3)">
          <a xlink:href="classkoala_1_1_spreadsheet_1_1_spreadsheet_a2f695c5a3bc3f8812609bd2ba4ebb784_cgraph_org.svg" target="_base">
           <rect id="button" ry="5" rx="5" y="6" x="6" height="38" width="38"
                fill="#f2f5e9" fill-opacity="0.5" stroke="#606060" stroke-width="1.0"/>
           <path id="arrow"
             d="M 11.500037,31.436501 C 11.940474,20.09759 22.043105,11.32322 32.158766,21.979434 L 37.068811,17.246167 C 37.068811,17.246167 37.088388,32 37.088388,32 L 22.160133,31.978069 C 22.160133,31.978069 26.997745,27.140456 26.997745,27.140456 C 18.528582,18.264221 13.291696,25.230495 11.500037,31.436501 z"
             style="fill:#404040;"/>
          </a>
         </g>
        </svg>
</svg>
