<?xml version="1.0" encoding="UTF-8" standalone="no"?>
<!DOCTYPE svg PUBLIC "-//W3C//DTD SVG 1.1//EN"
 "http://www.w3.org/Graphics/SVG/1.1/DTD/svg11.dtd">
<!-- Generated by graphviz version 2.38.0 (20140413.2041)
 -->
<!-- Title: koala.Range.RangeCore.get Pages: 1 -->
<!--zoomable 382 -->
<svg id="main" version="1.1" xmlns="http://www.w3.org/2000/svg" xmlns:xlink="http://www.w3.org/1999/xlink" xml:space="preserve" onload="init(evt)">
<style type="text/css"><![CDATA[
.edge:hover path { stroke: red; }
.edge:hover polygon { stroke: red; fill: red; }
]]></style>
<script type="text/javascript"><![CDATA[
var edges = document.getElementsByTagName('g');
if (edges && edges.length) {
  for (var i=0;i<edges.length;i++) {
    if (edges[i].id.substr(0,4)=='edge') {
      edges[i].setAttribute('class','edge');
    }
  }
}
]]></script>
        <defs>
                <circle id="rim" cx="0" cy="0" r="7"/>
                <circle id="rim2" cx="0" cy="0" r="3.5"/>
                <g id="zoomPlus">
                        <use xlink:href="#rim" fill="#404040">
                                <set attributeName="fill" to="#808080" begin="zoomplus.mouseover" end="zoomplus.mouseout"/>
                        </use>
                        <path d="M-4,0h8M0,-4v8" fill="none" stroke="white" stroke-width="1.5" pointer-events="none"/>
                </g>
                <g id="zoomMin">
                        <use xlink:href="#rim" fill="#404040">
                                <set attributeName="fill" to="#808080" begin="zoomminus.mouseover" end="zoomminus.mouseout"/>
                        </use>
                        <path d="M-4,0h8" fill="none" stroke="white" stroke-width="1.5" pointer-events="none"/>
                </g>
                <g id="dirArrow">
                        <path fill="none" stroke="white" stroke-width="1.5" d="M0,-3.0v7 M-2.5,-0.5L0,-3.0L2.5,-0.5"/>
                </g>
               <g id="resetDef">
                       <use xlink:href="#rim2" fill="#404040">
                               <set attributeName="fill" to="#808080" begin="reset.mouseover" end="reset.mouseout"/>
                       </use>
               </g>
        </defs>

<script type="text/javascript">
var viewWidth = 715;
var viewHeight = 382;
var sectionId = 'dynsection-10';
</script>
<script xlink:href="svgpan.js"/>
<svg id="graph" class="graph">
<g id="viewport">
<title>koala.Range.RangeCore.get</title>
<polygon fill="white" stroke="none" points="-4,4 -4,-378 711,-378 711,4 -4,4"/>
<!-- Node45 -->
<g id="node1" class="node"><title>Node45</title>
<g id="a_node1"><a xlink:title=" ">
<polygon fill="#bfbfbf" stroke="black" points="0,-183.5 0,-202.5 138,-202.5 138,-183.5 0,-183.5"/>
<text text-anchor="middle" x="69" y="-190.5" font-family="Helvetica,sans-Serif" font-size="10.00">koala.Range.RangeCore.get</text>
</a>
</g>
</g>
<!-- Node46 -->
<g id="node2" class="node"><title>Node46</title>
<g id="a_node2"><a xlink:href="classkoala_1_1_range_1_1_range_core.html#a9d8d088c32adb89141b9db1a6d91a6bd" target="_top" xlink:title=" ">
<polygon fill="white" stroke="black" points="184,-354.5 184,-373.5 334,-373.5 334,-354.5 184,-354.5"/>
<text text-anchor="middle" x="259" y="-361.5" font-family="Helvetica,sans-Serif" font-size="10.00">koala.Range.RangeCore.nrows</text>
</a>
</g>
</g>
<!-- Node45&#45;&gt;Node46 -->
<g id="edge1" class="edge"><title>Node45&#45;&gt;Node46</title>
<path fill="none" stroke="midnightblue" d="M73.6391,-202.692C84.3829,-229.903 118.717,-307.455 174,-345 176.934,-346.992 180.045,-348.779 183.276,-350.38"/>
<polygon fill="midnightblue" stroke="midnightblue" points="182.079,-353.676 192.648,-354.421 184.85,-347.248 182.079,-353.676"/>
</g>
<!-- Node47 -->
<g id="node3" class="node"><title>Node47</title>
<g id="a_node3"><a xlink:href="classkoala_1_1_range_1_1_range_core.html#a3aff4dbaaaec2551ac8a0998fbf86232" target="_top" xlink:title=" ">
<polygon fill="white" stroke="black" points="185,-316.5 185,-335.5 333,-335.5 333,-316.5 185,-316.5"/>
<text text-anchor="middle" x="259" y="-323.5" font-family="Helvetica,sans-Serif" font-size="10.00">koala.Range.RangeCore.ncols</text>
</a>
</g>
</g>
<!-- Node45&#45;&gt;Node47 -->
<g id="edge2" class="edge"><title>Node45&#45;&gt;Node47</title>
<path fill="none" stroke="midnightblue" d="M75.8931,-202.776C89.8867,-225.088 127.454,-279.925 174,-307 177.885,-309.26 182.017,-311.251 186.282,-313.006"/>
<polygon fill="midnightblue" stroke="midnightblue" points="185.199,-316.336 195.792,-316.481 187.601,-309.761 185.199,-316.336"/>
</g>
<!-- Node48 -->
<g id="node4" class="node"><title>Node48</title>
<g id="a_node4"><a xlink:href="classkoala_1_1_range_1_1_range_core.html#a892d149aed9e699ead26e8647200d859" target="_top" xlink:title=" ">
<polygon fill="white" stroke="black" points="183,-278.5 183,-297.5 335,-297.5 335,-278.5 183,-278.5"/>
<text text-anchor="middle" x="259" y="-285.5" font-family="Helvetica,sans-Serif" font-size="10.00">koala.Range.RangeCore.values</text>
</a>
</g>
</g>
<!-- Node45&#45;&gt;Node48 -->
<g id="edge3" class="edge"><title>Node45&#45;&gt;Node48</title>
<path fill="none" stroke="midnightblue" d="M80.0145,-202.555C97.5804,-218.768 135.729,-251.598 174,-269 179.406,-271.458 185.157,-273.611 191.015,-275.494"/>
<polygon fill="midnightblue" stroke="midnightblue" points="190.351,-278.947 200.933,-278.414 192.329,-272.232 190.351,-278.947"/>
</g>
<!-- Node51 -->
<g id="node7" class="node"><title>Node51</title>
<g id="a_node7"><a xlink:href="classkoala_1_1_range_1_1_range_core.html#a55ed6e75ac6907aab3ac371a0d93c9db" target="_top" xlink:title=" ">
<polygon fill="white" stroke="black" points="174,-240.5 174,-259.5 344,-259.5 344,-240.5 174,-240.5"/>
<text text-anchor="middle" x="259" y="-247.5" font-family="Helvetica,sans-Serif" font-size="10.00">koala.Range.RangeCore.addresses</text>
</a>
</g>
</g>
<!-- Node45&#45;&gt;Node51 -->
<g id="edge6" class="edge"><title>Node45&#45;&gt;Node51</title>
<path fill="none" stroke="midnightblue" d="M93.6687,-202.632C114.562,-210.897 145.971,-222.746 174,-231 182.742,-233.574 192.084,-236 201.243,-238.202"/>
<polygon fill="midnightblue" stroke="midnightblue" points="200.54,-241.632 211.074,-240.499 202.133,-234.815 200.54,-241.632"/>
</g>
<!-- Node52 -->
<g id="node8" class="node"><title>Node52</title>
<g id="a_node8"><a xlink:href="namespacekoala_1_1utils.html#a65476c62402a00e3d46dbc99b6a4ea88" target="_top" xlink:title=" ">
<polygon fill="white" stroke="black" points="208.5,-202.5 208.5,-221.5 309.5,-221.5 309.5,-202.5 208.5,-202.5"/>
<text text-anchor="middle" x="259" y="-209.5" font-family="Helvetica,sans-Serif" font-size="10.00">koala.utils.col2num</text>
</a>
</g>
</g>
<!-- Node45&#45;&gt;Node52 -->
<g id="edge7" class="edge"><title>Node45&#45;&gt;Node52</title>
<path fill="none" stroke="midnightblue" d="M138.138,-199.886C157.823,-201.876 179.15,-204.031 198.281,-205.965"/>
<polygon fill="midnightblue" stroke="midnightblue" points="198.059,-209.46 208.361,-206.983 198.763,-202.495 198.059,-209.46"/>
</g>
<!-- Node53 -->
<g id="node9" class="node"><title>Node53</title>
<g id="a_node9"><a xlink:href="classkoala_1_1_range_1_1_range_core.html#a2d28f806fb32e85d3b6987236e25367a" target="_top" xlink:title=" ">
<polygon fill="white" stroke="black" points="185,-164.5 185,-183.5 333,-183.5 333,-164.5 185,-164.5"/>
<text text-anchor="middle" x="259" y="-171.5" font-family="Helvetica,sans-Serif" font-size="10.00">koala.Range.RangeCore.origin</text>
</a>
</g>
</g>
<!-- Node45&#45;&gt;Node53 -->
<g id="edge8" class="edge"><title>Node45&#45;&gt;Node53</title>
<path fill="none" stroke="midnightblue" d="M138.138,-186.114C149.96,-184.919 162.374,-183.664 174.548,-182.434"/>
<polygon fill="midnightblue" stroke="midnightblue" points="175.103,-185.896 184.7,-181.408 174.399,-178.931 175.103,-185.896"/>
</g>
<!-- Node54 -->
<g id="node10" class="node"><title>Node54</title>
<g id="a_node10"><a xlink:href="namespacekoala_1_1utils.html#a2037076cc5a6fbf884023917a0cbfca7" target="_top" xlink:title=" ">
<polygon fill="white" stroke="black" points="208.5,-126.5 208.5,-145.5 309.5,-145.5 309.5,-126.5 208.5,-126.5"/>
<text text-anchor="middle" x="259" y="-133.5" font-family="Helvetica,sans-Serif" font-size="10.00">koala.utils.num2col</text>
</a>
</g>
</g>
<!-- Node45&#45;&gt;Node54 -->
<g id="edge9" class="edge"><title>Node45&#45;&gt;Node54</title>
<path fill="none" stroke="midnightblue" d="M93.6687,-183.368C114.562,-175.103 145.971,-163.254 174,-155 182.742,-152.426 192.084,-150 201.243,-147.798"/>
<polygon fill="midnightblue" stroke="midnightblue" points="202.133,-151.185 211.074,-145.501 200.54,-144.368 202.133,-151.185"/>
</g>
<!-- Node55 -->
<g id="node11" class="node"><title>Node55</title>
<g id="a_node11"><a xlink:href="namespacekoala_1_1_range.html#ae8f7f229cc55d2f36ebac1492f59b195" target="_top" xlink:title=" ">
<polygon fill="white" stroke="black" points="205.5,-77 205.5,-107 312.5,-107 312.5,-77 205.5,-77"/>
<text text-anchor="start" x="213.5" y="-95" font-family="Helvetica,sans-Serif" font-size="10.00">koala.Range.get_cell</text>
<text text-anchor="middle" x="259" y="-84" font-family="Helvetica,sans-Serif" font-size="10.00">_address</text>
</a>
</g>
</g>
<!-- Node45&#45;&gt;Node55 -->
<g id="edge10" class="edge"><title>Node45&#45;&gt;Node55</title>
<path fill="none" stroke="midnightblue" d="M80.4272,-183.46C98.3094,-167.564 136.532,-135.572 174,-117 180.902,-113.579 188.358,-110.534 195.881,-107.849"/>
<polygon fill="midnightblue" stroke="midnightblue" points="197.049,-111.149 205.408,-104.64 194.814,-104.515 197.049,-111.149"/>
</g>
<!-- Node56 -->
<g id="node12" class="node"><title>Node56</title>
<g id="a_node12"><a xlink:href="classkoala_1_1_cell_1_1_cell.html#ae38a5191acad6ce89644e72a5b327af7" target="_top" xlink:title=" ">
<polygon fill="white" stroke="black" points="206,-38.5 206,-57.5 312,-57.5 312,-38.5 206,-38.5"/>
<text text-anchor="middle" x="259" y="-45.5" font-family="Helvetica,sans-Serif" font-size="10.00">koala.Cell.Cell.sheet</text>
</a>
</g>
</g>
<!-- Node45&#45;&gt;Node56 -->
<g id="edge11" class="edge"><title>Node45&#45;&gt;Node56</title>
<path fill="none" stroke="midnightblue" d="M75.0725,-183.381C88.0784,-159.71 125.063,-98.361 174,-68 180.718,-63.8323 188.232,-60.533 195.93,-57.9211"/>
<polygon fill="midnightblue" stroke="midnightblue" points="197.168,-61.2036 205.733,-54.9668 195.148,-54.5014 197.168,-61.2036"/>
</g>
<!-- Node57 -->
<g id="node13" class="node"><title>Node57</title>
<g id="a_node13"><a xlink:href="classkoala_1_1_range_1_1_range_core.html#a5af200dc1145ab55cd85b7a6005a25b0" target="_top" xlink:title=" ">
<polygon fill="white" stroke="black" points="184.5,-0.5 184.5,-19.5 333.5,-19.5 333.5,-0.5 184.5,-0.5"/>
<text text-anchor="middle" x="259" y="-7.5" font-family="Helvetica,sans-Serif" font-size="10.00">koala.Range.RangeCore.sheet</text>
</a>
</g>
</g>
<!-- Node45&#45;&gt;Node57 -->
<g id="edge12" class="edge"><title>Node45&#45;&gt;Node57</title>
<path fill="none" stroke="midnightblue" d="M73.1211,-183.379C82.9083,-154.821 115.858,-69.9881 174,-29 176.75,-27.0616 179.665,-25.3173 182.695,-23.7477"/>
<polygon fill="midnightblue" stroke="midnightblue" points="184.385,-26.8258 192.081,-19.5444 181.524,-20.4371 184.385,-26.8258"/>
</g>
<!-- Node49 -->
<g id="node5" class="node"><title>Node49</title>
<g id="a_node5"><a xlink:href="classkoala_1_1_range_1_1_range_core.html#ac19e8ad2bbd1538974240f9be227c9f0" target="_top" xlink:title=" ">
<polygon fill="white" stroke="black" points="380,-278.5 380,-297.5 525,-297.5 525,-278.5 380,-278.5"/>
<text text-anchor="middle" x="452.5" y="-285.5" font-family="Helvetica,sans-Serif" font-size="10.00">koala.Range.RangeCore.cells</text>
</a>
</g>
</g>
<!-- Node48&#45;&gt;Node49 -->
<g id="edge4" class="edge"><title>Node48&#45;&gt;Node49</title>
<path fill="none" stroke="midnightblue" d="M335.136,-288C346.368,-288 357.997,-288 369.364,-288"/>
<polygon fill="midnightblue" stroke="midnightblue" points="369.712,-291.5 379.712,-288 369.711,-284.5 369.712,-291.5"/>
</g>
<!-- Node50 -->
<g id="node6" class="node"><title>Node50</title>
<g id="a_node6"><a xlink:href="classkoala_1_1_range_1_1_range_core.html#a6b84c30dfe7408345056ed69aa8e3730" target="_top" xlink:title=" ">
<polygon fill="white" stroke="black" points="561,-278.5 561,-297.5 707,-297.5 707,-278.5 561,-278.5"/>
<text text-anchor="middle" x="634" y="-285.5" font-family="Helvetica,sans-Serif" font-size="10.00">koala.Range.RangeCore.order</text>
</a>
</g>
</g>
<!-- Node49&#45;&gt;Node50 -->
<g id="edge5" class="edge"><title>Node49&#45;&gt;Node50</title>
<path fill="none" stroke="midnightblue" d="M525.217,-288C533.548,-288 542.095,-288 550.555,-288"/>
<polygon fill="midnightblue" stroke="midnightblue" points="550.811,-291.5 560.811,-288 550.811,-284.5 550.811,-291.5"/>
</g>
</g>
</svg>
        <g id="navigator" transform="translate(0 0)" fill="#404254">
                <rect fill="#f2f5e9" fill-opacity="0.5" stroke="#606060" stroke-width=".5" x="0" y="0" width="60" height="60"/>
                <use id="zoomplus" xlink:href="#zoomPlus" x="17" y="9" onmousedown="handleZoom(evt,'in')"/>
                <use id="zoomminus" xlink:href="#zoomMin" x="42" y="9" onmousedown="handleZoom(evt,'out')"/>
                <use id="reset" xlink:href="#resetDef" x="30" y="36" onmousedown="handleReset()"/>
                <g id="arrowUp" xlink:href="#dirArrow" transform="translate(30 24)" onmousedown="handlePan(0,-1)">
                  <use xlink:href="#rim" fill="#404040">
                        <set attributeName="fill" to="#808080" begin="arrowUp.mouseover" end="arrowUp.mouseout"/>
                  </use>
                  <path fill="none" stroke="white" stroke-width="1.5" d="M0,-3.0v7 M-2.5,-0.5L0,-3.0L2.5,-0.5"/>
                </g>
                <g id="arrowRight" xlink:href="#dirArrow" transform="rotate(90) translate(36 -43)" onmousedown="handlePan(1,0)">
                  <use xlink:href="#rim" fill="#404040">
                        <set attributeName="fill" to="#808080" begin="arrowRight.mouseover" end="arrowRight.mouseout"/>
                  </use>
                  <path fill="none" stroke="white" stroke-width="1.5" d="M0,-3.0v7 M-2.5,-0.5L0,-3.0L2.5,-0.5"/>
                </g>
                <g id="arrowDown" xlink:href="#dirArrow" transform="rotate(180) translate(-30 -48)" onmousedown="handlePan(0,1)">
                  <use xlink:href="#rim" fill="#404040">
                        <set attributeName="fill" to="#808080" begin="arrowDown.mouseover" end="arrowDown.mouseout"/>
                  </use>
                  <path fill="none" stroke="white" stroke-width="1.5" d="M0,-3.0v7 M-2.5,-0.5L0,-3.0L2.5,-0.5"/>
                </g>
                <g id="arrowLeft" xlink:href="#dirArrow" transform="rotate(270) translate(-36 17)" onmousedown="handlePan(-1,0)">
                  <use xlink:href="#rim" fill="#404040">
                        <set attributeName="fill" to="#808080" begin="arrowLeft.mouseover" end="arrowLeft.mouseout"/>
                  </use>
                  <path fill="none" stroke="white" stroke-width="1.5" d="M0,-3.0v7 M-2.5,-0.5L0,-3.0L2.5,-0.5"/>
                </g>
        </g>
        <svg viewBox="0 0 15 15" width="100%" height="30px" preserveAspectRatio="xMaxYMin meet">
         <g id="arrow_out" transform="scale(0.3 0.3)">
          <a xlink:href="classkoala_1_1_range_1_1_range_core_a0ef0d47a2c8903280c6b5dfdd82eb7b6_cgraph_org.svg" target="_base">
           <rect id="button" ry="5" rx="5" y="6" x="6" height="38" width="38"
                fill="#f2f5e9" fill-opacity="0.5" stroke="#606060" stroke-width="1.0"/>
           <path id="arrow"
             d="M 11.500037,31.436501 C 11.940474,20.09759 22.043105,11.32322 32.158766,21.979434 L 37.068811,17.246167 C 37.068811,17.246167 37.088388,32 37.088388,32 L 22.160133,31.978069 C 22.160133,31.978069 26.997745,27.140456 26.997745,27.140456 C 18.528582,18.264221 13.291696,25.230495 11.500037,31.436501 z"
             style="fill:#404040;"/>
          </a>
         </g>
        </svg>
</svg>
