<?xml version="1.0" encoding="UTF-8" standalone="no"?>
<!DOCTYPE svg PUBLIC "-//W3C//DTD SVG 1.1//EN"
 "http://www.w3.org/Graphics/SVG/1.1/DTD/svg11.dtd">
<!-- Generated by graphviz version 2.38.0 (20140413.2041)
 -->
<!-- Title: koala.Range.RangeCore.is_pointer Pages: 1 -->
<svg width="301pt" height="39pt"
 viewBox="0.00 0.00 301.00 39.00" xmlns="http://www.w3.org/2000/svg" xmlns:xlink="http://www.w3.org/1999/xlink">
<g id="graph0" class="graph" transform="scale(1 1) rotate(0) translate(4 35)">
<title>koala.Range.RangeCore.is_pointer</title>
<polygon fill="white" stroke="none" points="-4,4 -4,-35 297,-35 297,4 -4,4"/>
<!-- Node75 -->
<g id="node1" class="node"><title>Node75</title>
<g id="a_node1"><a xlink:title=" ">
<polygon fill="#bfbfbf" stroke="black" points="161,-0.5 161,-30.5 293,-30.5 293,-0.5 161,-0.5"/>
<text text-anchor="start" x="169" y="-18.5" font-family="Helvetica,sans-Serif" font-size="10.00">koala.Range.RangeCore.is</text>
<text text-anchor="middle" x="227" y="-7.5" font-family="Helvetica,sans-Serif" font-size="10.00">_pointer</text>
</a>
</g>
</g>
<!-- Node76 -->
<g id="node2" class="node"><title>Node76</title>
<g id="a_node2"><a xlink:href="classkoala_1_1_range_1_1_range_core.html#ac49ba3473e8bcd9585eedd4fa9603bf2" target="_top" xlink:title=" ">
<polygon fill="white" stroke="black" points="0,-0.5 0,-30.5 125,-30.5 125,-0.5 0,-0.5"/>
<text text-anchor="start" x="8" y="-18.5" font-family="Helvetica,sans-Serif" font-size="10.00">koala.Range.RangeCore.</text>
<text text-anchor="middle" x="62.5" y="-7.5" font-family="Helvetica,sans-Serif" font-size="10.00">__init__</text>
</a>
</g>
</g>
<!-- Node75&#45;&gt;Node76 -->
<g id="edge1" class="edge"><title>Node75&#45;&gt;Node76</title>
<path fill="none" stroke="midnightblue" d="M150.565,-15.5C142.086,-15.5 133.521,-15.5 125.244,-15.5"/>
<polygon fill="midnightblue" stroke="midnightblue" points="150.841,-19.0001 160.841,-15.5 150.841,-12.0001 150.841,-19.0001"/>
</g>
</g>
</svg>
