<?xml version="1.0" encoding="UTF-8" standalone="no"?>
<!DOCTYPE svg PUBLIC "-//W3C//DTD SVG 1.1//EN"
 "http://www.w3.org/Graphics/SVG/1.1/DTD/svg11.dtd">
<!-- Generated by graphviz version 2.38.0 (20140413.2041)
 -->
<!-- Title: koala.ast.astnodes.OperandNode Pages: 1 -->
<svg width="169pt" height="140pt"
 viewBox="0.00 0.00 169.00 140.00" xmlns="http://www.w3.org/2000/svg" xmlns:xlink="http://www.w3.org/1999/xlink">
<g id="graph0" class="graph" transform="scale(1 1) rotate(0) translate(4 136)">
<title>koala.ast.astnodes.OperandNode</title>
<polygon fill="white" stroke="none" points="-4,4 -4,-136 165,-136 165,4 -4,4"/>
<!-- Node4 -->
<g id="node1" class="node"><title>Node4</title>
<g id="a_node1"><a xlink:title=" ">
<polygon fill="#bfbfbf" stroke="black" points="0,-0.5 0,-19.5 161,-19.5 161,-0.5 0,-0.5"/>
<text text-anchor="middle" x="80.5" y="-7.5" font-family="Helvetica,sans-Serif" font-size="10.00">koala.ast.astnodes.OperandNode</text>
</a>
</g>
</g>
<!-- Node5 -->
<g id="node2" class="node"><title>Node5</title>
<g id="a_node2"><a xlink:href="classkoala_1_1ast_1_1astnodes_1_1_a_s_t_node.html" target="_top" xlink:title=" ">
<polygon fill="white" stroke="black" points="9,-56.5 9,-75.5 152,-75.5 152,-56.5 9,-56.5"/>
<text text-anchor="middle" x="80.5" y="-63.5" font-family="Helvetica,sans-Serif" font-size="10.00">koala.ast.astnodes.ASTNode</text>
</a>
</g>
</g>
<!-- Node5&#45;&gt;Node4 -->
<g id="edge1" class="edge"><title>Node5&#45;&gt;Node4</title>
<path fill="none" stroke="midnightblue" d="M80.5,-45.8045C80.5,-36.9102 80.5,-26.7798 80.5,-19.7511"/>
<polygon fill="midnightblue" stroke="midnightblue" points="77.0001,-46.083 80.5,-56.083 84.0001,-46.083 77.0001,-46.083"/>
</g>
<!-- Node6 -->
<g id="node3" class="node"><title>Node6</title>
<g id="a_node3"><a xlink:title=" ">
<polygon fill="white" stroke="#bfbfbf" points="59,-112.5 59,-131.5 102,-131.5 102,-112.5 59,-112.5"/>
<text text-anchor="middle" x="80.5" y="-119.5" font-family="Helvetica,sans-Serif" font-size="10.00">object</text>
</a>
</g>
</g>
<!-- Node6&#45;&gt;Node5 -->
<g id="edge2" class="edge"><title>Node6&#45;&gt;Node5</title>
<path fill="none" stroke="midnightblue" d="M80.5,-101.805C80.5,-92.9102 80.5,-82.7798 80.5,-75.7511"/>
<polygon fill="midnightblue" stroke="midnightblue" points="77.0001,-102.083 80.5,-112.083 84.0001,-102.083 77.0001,-102.083"/>
</g>
</g>
</svg>
