<?xml version="1.0" encoding="UTF-8" standalone="no"?>
<!DOCTYPE svg PUBLIC "-//W3C//DTD SVG 1.1//EN"
 "http://www.w3.org/Graphics/SVG/1.1/DTD/svg11.dtd">
<!-- Generated by graphviz version 2.38.0 (20140413.2041)
 -->
<!-- Title: koala.Spreadsheet.Spreadsheet.cell_set_formula Pages: 1 -->
<!--zoomable 442 -->
<svg id="main" version="1.1" xmlns="http://www.w3.org/2000/svg" xmlns:xlink="http://www.w3.org/1999/xlink" xml:space="preserve" onload="init(evt)">
<style type="text/css"><![CDATA[
.edge:hover path { stroke: red; }
.edge:hover polygon { stroke: red; fill: red; }
]]></style>
<script type="text/javascript"><![CDATA[
var edges = document.getElementsByTagName('g');
if (edges && edges.length) {
  for (var i=0;i<edges.length;i++) {
    if (edges[i].id.substr(0,4)=='edge') {
      edges[i].setAttribute('class','edge');
    }
  }
}
]]></script>
        <defs>
                <circle id="rim" cx="0" cy="0" r="7"/>
                <circle id="rim2" cx="0" cy="0" r="3.5"/>
                <g id="zoomPlus">
                        <use xlink:href="#rim" fill="#404040">
                                <set attributeName="fill" to="#808080" begin="zoomplus.mouseover" end="zoomplus.mouseout"/>
                        </use>
                        <path d="M-4,0h8M0,-4v8" fill="none" stroke="white" stroke-width="1.5" pointer-events="none"/>
                </g>
                <g id="zoomMin">
                        <use xlink:href="#rim" fill="#404040">
                                <set attributeName="fill" to="#808080" begin="zoomminus.mouseover" end="zoomminus.mouseout"/>
                        </use>
                        <path d="M-4,0h8" fill="none" stroke="white" stroke-width="1.5" pointer-events="none"/>
                </g>
                <g id="dirArrow">
                        <path fill="none" stroke="white" stroke-width="1.5" d="M0,-3.0v7 M-2.5,-0.5L0,-3.0L2.5,-0.5"/>
                </g>
               <g id="resetDef">
                       <use xlink:href="#rim2" fill="#404040">
                               <set attributeName="fill" to="#808080" begin="reset.mouseover" end="reset.mouseout"/>
                       </use>
               </g>
        </defs>

<script type="text/javascript">
var viewWidth = 927;
var viewHeight = 442;
var sectionId = 'dynsection-15';
</script>
<script xlink:href="svgpan.js"/>
<svg id="graph" class="graph">
<g id="viewport">
<title>koala.Spreadsheet.Spreadsheet.cell_set_formula</title>
<polygon fill="white" stroke="none" points="-4,4 -4,-438 923,-438 923,4 -4,4"/>
<!-- Node92 -->
<g id="node1" class="node"><title>Node92</title>
<g id="a_node1"><a xlink:title=" ">
<polygon fill="#bfbfbf" stroke="black" points="0,-94.5 0,-124.5 173,-124.5 173,-94.5 0,-94.5"/>
<text text-anchor="start" x="8" y="-112.5" font-family="Helvetica,sans-Serif" font-size="10.00">koala.Spreadsheet.Spreadsheet.cell</text>
<text text-anchor="middle" x="86.5" y="-101.5" font-family="Helvetica,sans-Serif" font-size="10.00">_set_formula</text>
</a>
</g>
</g>
<!-- Node93 -->
<g id="node2" class="node"><title>Node93</title>
<g id="a_node2"><a xlink:href="namespacekoala_1_1ast.html#aa55446c8aa764f09775f006ee775ec7b" target="_top" xlink:title=" ">
<polygon fill="white" stroke="black" points="252.5,-189.5 252.5,-219.5 359.5,-219.5 359.5,-189.5 252.5,-189.5"/>
<text text-anchor="start" x="260.5" y="-207.5" font-family="Helvetica,sans-Serif" font-size="10.00">koala.ast.graph_from</text>
<text text-anchor="middle" x="306" y="-196.5" font-family="Helvetica,sans-Serif" font-size="10.00">_seeds</text>
</a>
</g>
</g>
<!-- Node92&#45;&gt;Node93 -->
<g id="edge1" class="edge"><title>Node92&#45;&gt;Node93</title>
<path fill="none" stroke="midnightblue" d="M121.964,-124.553C159.636,-141.008 220.09,-167.413 261.123,-185.335"/>
<polygon fill="midnightblue" stroke="midnightblue" points="259.773,-188.565 270.338,-189.36 262.575,-182.15 259.773,-188.565"/>
</g>
<!-- Node109 -->
<g id="node18" class="node"><title>Node109</title>
<g id="a_node18"><a xlink:href="classkoala_1_1_spreadsheet_1_1_spreadsheet.html#adec88c8b31c94969a557cf572ee13c44" target="_top" xlink:title=" ">
<polygon fill="white" stroke="black" points="209,-6 209,-25 403,-25 403,-6 209,-6"/>
<text text-anchor="middle" x="306" y="-13" font-family="Helvetica,sans-Serif" font-size="10.00">koala.Spreadsheet.Spreadsheet.evaluate</text>
</a>
</g>
</g>
<!-- Node92&#45;&gt;Node109 -->
<g id="edge25" class="edge"><title>Node92&#45;&gt;Node109</title>
<path fill="none" stroke="midnightblue" d="M122.445,-94.3973C164.157,-76.3701 233.297,-46.489 273.449,-29.1357"/>
<polygon fill="midnightblue" stroke="midnightblue" points="274.968,-32.2925 282.758,-25.1124 272.191,-25.8669 274.968,-32.2925"/>
</g>
<!-- Node94 -->
<g id="node3" class="node"><title>Node94</title>
<g id="a_node3"><a xlink:href="namespacekoala_1_1ast.html#abb76e7037309a032effde5e5078a86e2" target="_top" xlink:title=" ">
<polygon fill="white" stroke="black" points="475,-366 475,-385 576,-385 576,-366 475,-366"/>
<text text-anchor="middle" x="525.5" y="-373" font-family="Helvetica,sans-Serif" font-size="10.00">koala.ast.cell2code</text>
</a>
</g>
</g>
<!-- Node93&#45;&gt;Node94 -->
<g id="edge2" class="edge"><title>Node93&#45;&gt;Node94</title>
<path fill="none" stroke="midnightblue" d="M315.655,-219.858C334.036,-250.969 380.145,-321.445 439,-356.5 446.963,-361.243 455.981,-364.804 465.1,-367.478"/>
<polygon fill="midnightblue" stroke="midnightblue" points="464.432,-370.92 474.99,-370.045 466.19,-364.145 464.432,-370.92"/>
</g>
<!-- Node99 -->
<g id="node8" class="node"><title>Node99</title>
<g id="a_node8"><a xlink:href="namespacekoala_1_1utils.html#ac7f70de24f29847f700db5eb4cad018c" target="_top" xlink:title=" ">
<polygon fill="white" stroke="black" points="474.5,-176 474.5,-195 576.5,-195 576.5,-176 474.5,-176"/>
<text text-anchor="middle" x="525.5" y="-183" font-family="Helvetica,sans-Serif" font-size="10.00">koala.utils.uniqueify</text>
</a>
</g>
</g>
<!-- Node93&#45;&gt;Node99 -->
<g id="edge7" class="edge"><title>Node93&#45;&gt;Node99</title>
<path fill="none" stroke="midnightblue" d="M359.651,-199.901C391.075,-197.156 431.105,-193.659 463.849,-190.798"/>
<polygon fill="midnightblue" stroke="midnightblue" points="464.547,-194.251 474.204,-189.894 463.937,-187.277 464.547,-194.251"/>
</g>
<!-- Node100 -->
<g id="node9" class="node"><title>Node100</title>
<g id="a_node9"><a xlink:href="namespacekoala_1_1utils.html#a152ac1827f4fdbd036d6e67cdf3acebb" target="_top" xlink:title=" ">
<polygon fill="white" stroke="black" points="658.5,-249 658.5,-268 759.5,-268 759.5,-249 658.5,-249"/>
<text text-anchor="middle" x="709" y="-256" font-family="Helvetica,sans-Serif" font-size="10.00">koala.utils.is_range</text>
</a>
</g>
</g>
<!-- Node93&#45;&gt;Node100 -->
<g id="edge8" class="edge"><title>Node93&#45;&gt;Node100</title>
<path fill="none" stroke="midnightblue" d="M359.583,-213.843C383.737,-217.986 412.78,-222.758 439,-226.5 510.733,-236.739 593.557,-246.244 648.14,-252.19"/>
<polygon fill="midnightblue" stroke="midnightblue" points="648.011,-255.697 658.33,-253.295 648.766,-248.737 648.011,-255.697"/>
</g>
<!-- Node101 -->
<g id="node10" class="node"><title>Node101</title>
<g id="a_node10"><a xlink:href="namespacekoala_1_1ast.html#a3d0179539d74f2668d3917bf28d2edd8" target="_top" xlink:title=" ">
<polygon fill="white" stroke="black" points="462.5,-328 462.5,-347 588.5,-347 588.5,-328 462.5,-328"/>
<text text-anchor="middle" x="525.5" y="-335" font-family="Helvetica,sans-Serif" font-size="10.00">koala.ast.prepare_pointer</text>
</a>
</g>
</g>
<!-- Node93&#45;&gt;Node101 -->
<g id="edge9" class="edge"><title>Node93&#45;&gt;Node101</title>
<path fill="none" stroke="midnightblue" d="M320.952,-219.501C343.552,-242.933 390.544,-288.153 439,-313.5 447.812,-318.109 457.61,-321.919 467.34,-325.041"/>
<polygon fill="midnightblue" stroke="midnightblue" points="466.423,-328.42 477.007,-327.936 468.432,-321.714 466.423,-328.42"/>
</g>
<!-- Node102 -->
<g id="node11" class="node"><title>Node102</title>
<g id="a_node11"><a xlink:href="namespacekoala_1_1utils.html#a1d3620df245d23fea05928298cabc2ac" target="_top" xlink:title=" ">
<polygon fill="white" stroke="black" points="478.5,-126.5 478.5,-156.5 572.5,-156.5 572.5,-126.5 478.5,-126.5"/>
<text text-anchor="start" x="486.5" y="-144.5" font-family="Helvetica,sans-Serif" font-size="10.00">koala.utils.resolve</text>
<text text-anchor="middle" x="525.5" y="-133.5" font-family="Helvetica,sans-Serif" font-size="10.00">_range</text>
</a>
</g>
</g>
<!-- Node93&#45;&gt;Node102 -->
<g id="edge13" class="edge"><title>Node93&#45;&gt;Node102</title>
<path fill="none" stroke="midnightblue" d="M358.82,-189.49C391.87,-179.917 434.69,-167.514 468.518,-157.715"/>
<polygon fill="midnightblue" stroke="midnightblue" points="469.623,-161.039 478.255,-154.895 467.676,-154.316 469.623,-161.039"/>
</g>
<!-- Node104 -->
<g id="node13" class="node"><title>Node104</title>
<g id="a_node13"><a xlink:href="namespacekoala_1_1utils.html#a5c70ac45916995934736ab28b501c8c5" target="_top" xlink:title=" ">
<polygon fill="white" stroke="black" points="648,-209 648,-228 770,-228 770,-209 648,-209"/>
<text text-anchor="middle" x="709" y="-216" font-family="Helvetica,sans-Serif" font-size="10.00">koala.utils.split_address</text>
</a>
</g>
</g>
<!-- Node93&#45;&gt;Node104 -->
<g id="edge20" class="edge"><title>Node93&#45;&gt;Node104</title>
<path fill="none" stroke="midnightblue" d="M359.836,-206.345C431.073,-208.832 558.117,-213.267 637.457,-216.037"/>
<polygon fill="midnightblue" stroke="midnightblue" points="637.73,-219.549 647.846,-216.4 637.974,-212.553 637.73,-219.549"/>
</g>
<!-- Node105 -->
<g id="node14" class="node"><title>Node105</title>
<g id="a_node14"><a xlink:href="namespacekoala_1_1utils.html#a65476c62402a00e3d46dbc99b6a4ea88" target="_top" xlink:title=" ">
<polygon fill="white" stroke="black" points="658.5,-88 658.5,-107 759.5,-107 759.5,-88 658.5,-88"/>
<text text-anchor="middle" x="709" y="-95" font-family="Helvetica,sans-Serif" font-size="10.00">koala.utils.col2num</text>
</a>
</g>
</g>
<!-- Node93&#45;&gt;Node105 -->
<g id="edge23" class="edge"><title>Node93&#45;&gt;Node105</title>
<path fill="none" stroke="midnightblue" d="M316.736,-189.495C336.039,-161.308 382.242,-101.241 439,-78.5 516.777,-47.3379 617.274,-69.0314 670.714,-84.9089"/>
<polygon fill="midnightblue" stroke="midnightblue" points="669.854,-88.3062 680.441,-87.8906 671.906,-81.6135 669.854,-88.3062"/>
</g>
<!-- Node107 -->
<g id="node16" class="node"><title>Node107</title>
<g id="a_node16"><a xlink:href="namespacekoala_1_1utils.html#aabb45efe6343cf3795888c77a434d47d" target="_top" xlink:title=" ">
<polygon fill="white" stroke="black" points="664,-288 664,-307 754,-307 754,-288 664,-288"/>
<text text-anchor="middle" x="709" y="-295" font-family="Helvetica,sans-Serif" font-size="10.00">koala.utils.flatten</text>
</a>
</g>
</g>
<!-- Node93&#45;&gt;Node107 -->
<g id="edge24" class="edge"><title>Node93&#45;&gt;Node107</title>
<path fill="none" stroke="midnightblue" d="M343.732,-219.509C369.922,-229.732 406.169,-242.917 439,-251.5 512.208,-270.639 598.767,-283.801 653.527,-290.995"/>
<polygon fill="midnightblue" stroke="midnightblue" points="653.34,-294.5 663.706,-292.311 654.238,-287.558 653.34,-294.5"/>
</g>
<!-- Node108 -->
<g id="node17" class="node"><title>Node108</title>
<g id="a_node17"><a xlink:href="namespacekoala_1_1utils.html#a71673869f44a8e5ee678759d1c099ada" target="_top" xlink:title=" ">
<polygon fill="white" stroke="black" points="459.5,-88 459.5,-107 591.5,-107 591.5,-88 459.5,-88"/>
<text text-anchor="middle" x="525.5" y="-95" font-family="Helvetica,sans-Serif" font-size="10.00">koala.utils.max_dimension</text>
</a>
</g>
</g>
<!-- Node93&#45;&gt;Node108 -->
<g id="edge21" class="edge"><title>Node93&#45;&gt;Node108</title>
<path fill="none" stroke="midnightblue" d="M324.968,-189.327C349.263,-169.594 394.668,-135.418 439,-116.5 444.874,-113.993 451.122,-111.798 457.463,-109.879"/>
<polygon fill="midnightblue" stroke="midnightblue" points="458.774,-113.147 467.464,-107.086 456.891,-106.405 458.774,-113.147"/>
</g>
<!-- Node95 -->
<g id="node4" class="node"><title>Node95</title>
<g id="a_node4"><a xlink:href="namespacekoala_1_1_range.html#a6a4a2138705cb8cc069ddf925e74d2c1" target="_top" xlink:title=" ">
<polygon fill="white" stroke="black" points="650,-403.5 650,-433.5 768,-433.5 768,-403.5 650,-403.5"/>
<text text-anchor="start" x="658" y="-421.5" font-family="Helvetica,sans-Serif" font-size="10.00">koala.Range.parse_cell</text>
<text text-anchor="middle" x="709" y="-410.5" font-family="Helvetica,sans-Serif" font-size="10.00">_address</text>
</a>
</g>
</g>
<!-- Node94&#45;&gt;Node95 -->
<g id="edge3" class="edge"><title>Node94&#45;&gt;Node95</title>
<path fill="none" stroke="midnightblue" d="M566.781,-385.043C588.26,-390.132 615.269,-396.531 639.9,-402.366"/>
<polygon fill="midnightblue" stroke="midnightblue" points="639.387,-405.841 649.925,-404.741 641.001,-399.03 639.387,-405.841"/>
</g>
<!-- Node96 -->
<g id="node5" class="node"><title>Node96</title>
<g id="a_node5"><a xlink:href="namespacekoala_1_1ast.html#a76e6cdc1c1338001a6d0c4ac4a038087" target="_top" xlink:title=" ">
<polygon fill="white" stroke="black" points="649,-365 649,-384 769,-384 769,-365 649,-365"/>
<text text-anchor="middle" x="709" y="-372" font-family="Helvetica,sans-Serif" font-size="10.00">koala.ast.shunting_yard</text>
</a>
</g>
</g>
<!-- Node94&#45;&gt;Node96 -->
<g id="edge4" class="edge"><title>Node94&#45;&gt;Node96</title>
<path fill="none" stroke="midnightblue" d="M576.096,-375.227C595.398,-375.12 617.852,-374.997 638.703,-374.882"/>
<polygon fill="midnightblue" stroke="midnightblue" points="638.809,-378.381 648.79,-374.826 638.771,-371.381 638.809,-378.381"/>
</g>
<!-- Node98 -->
<g id="node7" class="node"><title>Node98</title>
<g id="a_node7"><a xlink:href="namespacekoala_1_1ast.html#a36277633c59487f9b1c1b256df41e942" target="_top" xlink:title=" ">
<polygon fill="white" stroke="black" points="660,-327 660,-346 758,-346 758,-327 660,-327"/>
<text text-anchor="middle" x="709" y="-334" font-family="Helvetica,sans-Serif" font-size="10.00">koala.ast.build_ast</text>
</a>
</g>
</g>
<!-- Node94&#45;&gt;Node98 -->
<g id="edge6" class="edge"><title>Node94&#45;&gt;Node98</title>
<path fill="none" stroke="midnightblue" d="M570.9,-365.96C595.933,-360.581 627.397,-353.82 653.868,-348.132"/>
<polygon fill="midnightblue" stroke="midnightblue" points="654.703,-351.532 663.744,-346.009 653.232,-344.688 654.703,-351.532"/>
</g>
<!-- Node97 -->
<g id="node6" class="node"><title>Node97</title>
<g id="a_node6"><a xlink:href="namespacekoala_1_1ast.html#a39876c353cfbf071723ede9b5a59eda4" target="_top" xlink:title=" ">
<polygon fill="white" stroke="black" points="806,-365 806,-384 919,-384 919,-365 806,-365"/>
<text text-anchor="middle" x="862.5" y="-372" font-family="Helvetica,sans-Serif" font-size="10.00">koala.ast.create_node</text>
</a>
</g>
</g>
<!-- Node96&#45;&gt;Node97 -->
<g id="edge5" class="edge"><title>Node96&#45;&gt;Node97</title>
<path fill="none" stroke="midnightblue" d="M769.008,-374.5C777.726,-374.5 786.756,-374.5 795.604,-374.5"/>
<polygon fill="midnightblue" stroke="midnightblue" points="795.877,-378 805.877,-374.5 795.877,-371 795.877,-378"/>
</g>
<!-- Node101&#45;&gt;Node95 -->
<g id="edge10" class="edge"><title>Node101&#45;&gt;Node95</title>
<path fill="none" stroke="midnightblue" d="M588.798,-346.848C596.879,-349.341 604.829,-352.5 612,-356.5 632.037,-367.678 629.024,-380.603 648,-393.5 650.707,-395.34 653.57,-397.083 656.52,-398.729"/>
<polygon fill="midnightblue" stroke="midnightblue" points="655.064,-401.916 665.559,-403.371 658.262,-395.689 655.064,-401.916"/>
</g>
<!-- Node101&#45;&gt;Node96 -->
<g id="edge11" class="edge"><title>Node101&#45;&gt;Node96</title>
<path fill="none" stroke="midnightblue" d="M573.241,-347.028C596.966,-351.865 625.985,-357.781 651.011,-362.882"/>
<polygon fill="midnightblue" stroke="midnightblue" points="650.605,-366.372 661.103,-364.94 652.003,-359.513 650.605,-366.372"/>
</g>
<!-- Node101&#45;&gt;Node98 -->
<g id="edge12" class="edge"><title>Node101&#45;&gt;Node98</title>
<path fill="none" stroke="midnightblue" d="M588.708,-337.157C608.454,-337.048 630.206,-336.929 649.669,-336.821"/>
<polygon fill="midnightblue" stroke="midnightblue" points="649.935,-340.32 659.915,-336.765 649.896,-333.32 649.935,-340.32"/>
</g>
<!-- Node102&#45;&gt;Node100 -->
<g id="edge15" class="edge"><title>Node102&#45;&gt;Node100</title>
<path fill="none" stroke="midnightblue" d="M572.889,-147.824C586.626,-151.5 600.935,-157.312 612,-166.5 639.219,-189.103 621.38,-214.195 648,-237.5 650.997,-240.124 654.342,-242.425 657.876,-244.443"/>
<polygon fill="midnightblue" stroke="midnightblue" points="656.444,-247.639 666.964,-248.897 659.525,-241.353 656.444,-247.639"/>
</g>
<!-- Node103 -->
<g id="node12" class="node"><title>Node103</title>
<g id="a_node12"><a xlink:href="namespacekoala_1_1utils.html#a77ace10251dde2f09a457b7b469208cc" target="_top" xlink:title=" ">
<polygon fill="white" stroke="black" points="653.5,-129 653.5,-148 764.5,-148 764.5,-129 653.5,-129"/>
<text text-anchor="middle" x="709" y="-136" font-family="Helvetica,sans-Serif" font-size="10.00">koala.utils.split_range</text>
</a>
</g>
</g>
<!-- Node102&#45;&gt;Node103 -->
<g id="edge14" class="edge"><title>Node102&#45;&gt;Node103</title>
<path fill="none" stroke="midnightblue" d="M572.77,-140.735C594.178,-140.381 619.974,-139.955 643.271,-139.57"/>
<polygon fill="midnightblue" stroke="midnightblue" points="643.486,-143.067 653.427,-139.402 643.37,-136.068 643.486,-143.067"/>
</g>
<!-- Node102&#45;&gt;Node104 -->
<g id="edge16" class="edge"><title>Node102&#45;&gt;Node104</title>
<path fill="none" stroke="midnightblue" d="M572.608,-151.402C585.748,-155.165 599.8,-160.128 612,-166.5 630.212,-176.011 630.191,-185.254 648,-195.5 654.315,-199.134 661.314,-202.41 668.236,-205.275"/>
<polygon fill="midnightblue" stroke="midnightblue" points="666.968,-208.538 677.555,-208.922 669.519,-202.019 666.968,-208.538"/>
</g>
<!-- Node102&#45;&gt;Node105 -->
<g id="edge17" class="edge"><title>Node102&#45;&gt;Node105</title>
<path fill="none" stroke="midnightblue" d="M572.77,-130.283C599.032,-123.916 631.898,-115.949 658.652,-109.463"/>
<polygon fill="midnightblue" stroke="midnightblue" points="659.687,-112.814 668.581,-107.056 658.037,-106.011 659.687,-112.814"/>
</g>
<!-- Node106 -->
<g id="node15" class="node"><title>Node106</title>
<g id="a_node15"><a xlink:href="namespacekoala_1_1utils.html#a2037076cc5a6fbf884023917a0cbfca7" target="_top" xlink:title=" ">
<polygon fill="white" stroke="black" points="658.5,-167 658.5,-186 759.5,-186 759.5,-167 658.5,-167"/>
<text text-anchor="middle" x="709" y="-174" font-family="Helvetica,sans-Serif" font-size="10.00">koala.utils.num2col</text>
</a>
</g>
</g>
<!-- Node102&#45;&gt;Node106 -->
<g id="edge18" class="edge"><title>Node102&#45;&gt;Node106</title>
<path fill="none" stroke="midnightblue" d="M572.77,-150.423C595.847,-154.873 624.023,-160.306 648.67,-165.059"/>
<polygon fill="midnightblue" stroke="midnightblue" points="648.153,-168.524 658.635,-166.981 649.478,-161.65 648.153,-168.524"/>
</g>
<!-- Node102&#45;&gt;Node107 -->
<g id="edge19" class="edge"><title>Node102&#45;&gt;Node107</title>
<path fill="none" stroke="midnightblue" d="M572.911,-146.581C586.969,-150.182 601.461,-156.264 612,-166.5 649.203,-202.634 611.477,-240.679 648,-277.5 650.102,-279.619 652.435,-281.514 654.925,-283.208"/>
<polygon fill="midnightblue" stroke="midnightblue" points="653.457,-286.398 663.893,-288.229 656.877,-280.29 653.457,-286.398"/>
</g>
<!-- Node108&#45;&gt;Node105 -->
<g id="edge22" class="edge"><title>Node108&#45;&gt;Node105</title>
<path fill="none" stroke="midnightblue" d="M591.513,-97.5C609.965,-97.5 629.965,-97.5 648.099,-97.5"/>
<polygon fill="midnightblue" stroke="midnightblue" points="648.247,-101 658.247,-97.5 648.247,-94.0001 648.247,-101"/>
</g>
<!-- Node110 -->
<g id="node19" class="node"><title>Node110</title>
<g id="a_node19"><a xlink:href="classkoala_1_1_spreadsheet_1_1_spreadsheet.html#a8e83a93df65a29d4748b427cb4d77bb2" target="_top" xlink:title=" ">
<polygon fill="white" stroke="black" points="439,-0.5 439,-30.5 612,-30.5 612,-0.5 439,-0.5"/>
<text text-anchor="start" x="447" y="-18.5" font-family="Helvetica,sans-Serif" font-size="10.00">koala.Spreadsheet.Spreadsheet.cell</text>
<text text-anchor="middle" x="525.5" y="-7.5" font-family="Helvetica,sans-Serif" font-size="10.00">_evaluate</text>
</a>
</g>
</g>
<!-- Node109&#45;&gt;Node110 -->
<g id="edge26" class="edge"><title>Node109&#45;&gt;Node110</title>
<path fill="none" stroke="midnightblue" d="M403.032,-8.7912C411.62,-8.73533 420.316,-8.73628 428.9,-8.79406"/>
<polygon fill="midnightblue" stroke="midnightblue" points="428.881,-12.2939 438.914,-8.88798 428.947,-5.29424 428.881,-12.2939"/>
</g>
<!-- Node110&#45;&gt;Node109 -->
<g id="edge27" class="edge"><title>Node110&#45;&gt;Node109</title>
<path fill="none" stroke="midnightblue" d="M438.914,-22.112C430.449,-22.2143 421.789,-22.2597 413.15,-22.2483"/>
<polygon fill="midnightblue" stroke="midnightblue" points="413.045,-18.7479 403.032,-22.2088 413.018,-25.7479 413.045,-18.7479"/>
</g>
<!-- Node111 -->
<g id="node20" class="node"><title>Node111</title>
<g id="a_node20"><a xlink:href="namespacekoala_1_1utils.html#a1585473b2fb474970dbc49794309a0e6" target="_top" xlink:title=" ">
<polygon fill="white" stroke="black" points="656,-0.5 656,-30.5 762,-30.5 762,-0.5 656,-0.5"/>
<text text-anchor="start" x="664" y="-18.5" font-family="Helvetica,sans-Serif" font-size="10.00">koala.utils.is_almost</text>
<text text-anchor="middle" x="709" y="-7.5" font-family="Helvetica,sans-Serif" font-size="10.00">_equal</text>
</a>
</g>
</g>
<!-- Node110&#45;&gt;Node111 -->
<g id="edge28" class="edge"><title>Node110&#45;&gt;Node111</title>
<path fill="none" stroke="midnightblue" d="M612.201,-15.5C623.469,-15.5 634.841,-15.5 645.62,-15.5"/>
<polygon fill="midnightblue" stroke="midnightblue" points="645.749,-19.0001 655.749,-15.5 645.749,-12.0001 645.749,-19.0001"/>
</g>
<!-- Node112 -->
<g id="node21" class="node"><title>Node112</title>
<g id="a_node21"><a xlink:href="namespacekoala_1_1utils.html#af016160edea2b46cb26db3ed307c9648" target="_top" xlink:title=" ">
<polygon fill="white" stroke="black" points="808,-6 808,-25 917,-25 917,-6 808,-6"/>
<text text-anchor="middle" x="862.5" y="-13" font-family="Helvetica,sans-Serif" font-size="10.00">koala.utils.is_number</text>
</a>
</g>
</g>
<!-- Node111&#45;&gt;Node112 -->
<g id="edge29" class="edge"><title>Node111&#45;&gt;Node112</title>
<path fill="none" stroke="midnightblue" d="M762.138,-15.5C773.59,-15.5 785.843,-15.5 797.696,-15.5"/>
<polygon fill="midnightblue" stroke="midnightblue" points="797.979,-19.0001 807.979,-15.5 797.978,-12.0001 797.979,-19.0001"/>
</g>
</g>
</svg>
        <g id="navigator" transform="translate(0 0)" fill="#404254">
                <rect fill="#f2f5e9" fill-opacity="0.5" stroke="#606060" stroke-width=".5" x="0" y="0" width="60" height="60"/>
                <use id="zoomplus" xlink:href="#zoomPlus" x="17" y="9" onmousedown="handleZoom(evt,'in')"/>
                <use id="zoomminus" xlink:href="#zoomMin" x="42" y="9" onmousedown="handleZoom(evt,'out')"/>
                <use id="reset" xlink:href="#resetDef" x="30" y="36" onmousedown="handleReset()"/>
                <g id="arrowUp" xlink:href="#dirArrow" transform="translate(30 24)" onmousedown="handlePan(0,-1)">
                  <use xlink:href="#rim" fill="#404040">
                        <set attributeName="fill" to="#808080" begin="arrowUp.mouseover" end="arrowUp.mouseout"/>
                  </use>
                  <path fill="none" stroke="white" stroke-width="1.5" d="M0,-3.0v7 M-2.5,-0.5L0,-3.0L2.5,-0.5"/>
                </g>
                <g id="arrowRight" xlink:href="#dirArrow" transform="rotate(90) translate(36 -43)" onmousedown="handlePan(1,0)">
                  <use xlink:href="#rim" fill="#404040">
                        <set attributeName="fill" to="#808080" begin="arrowRight.mouseover" end="arrowRight.mouseout"/>
                  </use>
                  <path fill="none" stroke="white" stroke-width="1.5" d="M0,-3.0v7 M-2.5,-0.5L0,-3.0L2.5,-0.5"/>
                </g>
                <g id="arrowDown" xlink:href="#dirArrow" transform="rotate(180) translate(-30 -48)" onmousedown="handlePan(0,1)">
                  <use xlink:href="#rim" fill="#404040">
                        <set attributeName="fill" to="#808080" begin="arrowDown.mouseover" end="arrowDown.mouseout"/>
                  </use>
                  <path fill="none" stroke="white" stroke-width="1.5" d="M0,-3.0v7 M-2.5,-0.5L0,-3.0L2.5,-0.5"/>
                </g>
                <g id="arrowLeft" xlink:href="#dirArrow" transform="rotate(270) translate(-36 17)" onmousedown="handlePan(-1,0)">
                  <use xlink:href="#rim" fill="#404040">
                        <set attributeName="fill" to="#808080" begin="arrowLeft.mouseover" end="arrowLeft.mouseout"/>
                  </use>
                  <path fill="none" stroke="white" stroke-width="1.5" d="M0,-3.0v7 M-2.5,-0.5L0,-3.0L2.5,-0.5"/>
                </g>
        </g>
        <svg viewBox="0 0 15 15" width="100%" height="30px" preserveAspectRatio="xMaxYMin meet">
         <g id="arrow_out" transform="scale(0.3 0.3)">
          <a xlink:href="classkoala_1_1_spreadsheet_1_1_spreadsheet_aa7bdaffc24c26fbf18d5b752b7e49df2_cgraph_org.svg" target="_base">
           <rect id="button" ry="5" rx="5" y="6" x="6" height="38" width="38"
                fill="#f2f5e9" fill-opacity="0.5" stroke="#606060" stroke-width="1.0"/>
           <path id="arrow"
             d="M 11.500037,31.436501 C 11.940474,20.09759 22.043105,11.32322 32.158766,21.979434 L 37.068811,17.246167 C 37.068811,17.246167 37.088388,32 37.088388,32 L 22.160133,31.978069 C 22.160133,31.978069 26.997745,27.140456 26.997745,27.140456 C 18.528582,18.264221 13.291696,25.230495 11.500037,31.436501 z"
             style="fill:#404040;"/>
          </a>
         </g>
        </svg>
</svg>
