<?xml version="1.0" encoding="UTF-8" standalone="no"?>
<!DOCTYPE svg PUBLIC "-//W3C//DTD SVG 1.1//EN"
 "http://www.w3.org/Graphics/SVG/1.1/DTD/svg11.dtd">
<!-- Generated by graphviz version 2.38.0 (20140413.2041)
 -->
<!-- Title: koala.Spreadsheet.Spreadsheet.cell_add Pages: 1 -->
<!--zoomable 369 -->
<svg id="main" version="1.1" xmlns="http://www.w3.org/2000/svg" xmlns:xlink="http://www.w3.org/1999/xlink" xml:space="preserve" onload="init(evt)">
<style type="text/css"><![CDATA[
.edge:hover path { stroke: red; }
.edge:hover polygon { stroke: red; fill: red; }
]]></style>
<script type="text/javascript"><![CDATA[
var edges = document.getElementsByTagName('g');
if (edges && edges.length) {
  for (var i=0;i<edges.length;i++) {
    if (edges[i].id.substr(0,4)=='edge') {
      edges[i].setAttribute('class','edge');
    }
  }
}
]]></script>
        <defs>
                <circle id="rim" cx="0" cy="0" r="7"/>
                <circle id="rim2" cx="0" cy="0" r="3.5"/>
                <g id="zoomPlus">
                        <use xlink:href="#rim" fill="#404040">
                                <set attributeName="fill" to="#808080" begin="zoomplus.mouseover" end="zoomplus.mouseout"/>
                        </use>
                        <path d="M-4,0h8M0,-4v8" fill="none" stroke="white" stroke-width="1.5" pointer-events="none"/>
                </g>
                <g id="zoomMin">
                        <use xlink:href="#rim" fill="#404040">
                                <set attributeName="fill" to="#808080" begin="zoomminus.mouseover" end="zoomminus.mouseout"/>
                        </use>
                        <path d="M-4,0h8" fill="none" stroke="white" stroke-width="1.5" pointer-events="none"/>
                </g>
                <g id="dirArrow">
                        <path fill="none" stroke="white" stroke-width="1.5" d="M0,-3.0v7 M-2.5,-0.5L0,-3.0L2.5,-0.5"/>
                </g>
               <g id="resetDef">
                       <use xlink:href="#rim2" fill="#404040">
                               <set attributeName="fill" to="#808080" begin="reset.mouseover" end="reset.mouseout"/>
                       </use>
               </g>
        </defs>

<script type="text/javascript">
var viewWidth = 820;
var viewHeight = 369;
var sectionId = 'dynsection-6';
</script>
<script xlink:href="svgpan.js"/>
<svg id="graph" class="graph">
<g id="viewport">
<title>koala.Spreadsheet.Spreadsheet.cell_add</title>
<polygon fill="white" stroke="none" points="-4,4 -4,-364.5 816,-364.5 816,4 -4,4"/>
<!-- Node36 -->
<g id="node1" class="node"><title>Node36</title>
<g id="a_node1"><a xlink:title=" ">
<polygon fill="#bfbfbf" stroke="black" points="0,-158.5 0,-177.5 194,-177.5 194,-158.5 0,-158.5"/>
<text text-anchor="middle" x="97" y="-165.5" font-family="Helvetica,sans-Serif" font-size="10.00">koala.Spreadsheet.Spreadsheet.cell_add</text>
</a>
</g>
</g>
<!-- Node37 -->
<g id="node2" class="node"><title>Node37</title>
<g id="a_node2"><a xlink:href="namespacekoala_1_1ast.html#aa55446c8aa764f09775f006ee775ec7b" target="_top" xlink:title=" ">
<polygon fill="white" stroke="black" points="230,-153 230,-183 337,-183 337,-153 230,-153"/>
<text text-anchor="start" x="238" y="-171" font-family="Helvetica,sans-Serif" font-size="10.00">koala.ast.graph_from</text>
<text text-anchor="middle" x="283.5" y="-160" font-family="Helvetica,sans-Serif" font-size="10.00">_seeds</text>
</a>
</g>
</g>
<!-- Node36&#45;&gt;Node37 -->
<g id="edge1" class="edge"><title>Node36&#45;&gt;Node37</title>
<path fill="none" stroke="midnightblue" d="M194.033,-168C202.652,-168 211.227,-168 219.456,-168"/>
<polygon fill="midnightblue" stroke="midnightblue" points="219.672,-171.5 229.672,-168 219.672,-164.5 219.672,-171.5"/>
</g>
<!-- Node38 -->
<g id="node3" class="node"><title>Node38</title>
<g id="a_node3"><a xlink:href="namespacekoala_1_1ast.html#abb76e7037309a032effde5e5078a86e2" target="_top" xlink:title=" ">
<polygon fill="white" stroke="black" points="388.5,-272.5 388.5,-291.5 489.5,-291.5 489.5,-272.5 388.5,-272.5"/>
<text text-anchor="middle" x="439" y="-279.5" font-family="Helvetica,sans-Serif" font-size="10.00">koala.ast.cell2code</text>
</a>
</g>
</g>
<!-- Node37&#45;&gt;Node38 -->
<g id="edge2" class="edge"><title>Node37&#45;&gt;Node38</title>
<path fill="none" stroke="midnightblue" d="M294.63,-183.218C309.403,-204.238 338.849,-241.94 373,-263 376.393,-265.092 380.028,-266.964 383.78,-268.636"/>
<polygon fill="midnightblue" stroke="midnightblue" points="382.694,-271.97 393.28,-272.395 385.269,-265.461 382.694,-271.97"/>
</g>
<!-- Node43 -->
<g id="node8" class="node"><title>Node43</title>
<g id="a_node8"><a xlink:href="namespacekoala_1_1utils.html#ac7f70de24f29847f700db5eb4cad018c" target="_top" xlink:title=" ">
<polygon fill="white" stroke="black" points="388,-234.5 388,-253.5 490,-253.5 490,-234.5 388,-234.5"/>
<text text-anchor="middle" x="439" y="-241.5" font-family="Helvetica,sans-Serif" font-size="10.00">koala.utils.uniqueify</text>
</a>
</g>
</g>
<!-- Node37&#45;&gt;Node43 -->
<g id="edge7" class="edge"><title>Node37&#45;&gt;Node43</title>
<path fill="none" stroke="midnightblue" d="M307.546,-183.073C325.055,-194.142 349.971,-209.089 373,-220 381.293,-223.929 390.416,-227.648 399.138,-230.933"/>
<polygon fill="midnightblue" stroke="midnightblue" points="398.154,-234.3 408.748,-234.445 400.557,-227.725 398.154,-234.3"/>
</g>
<!-- Node44 -->
<g id="node9" class="node"><title>Node44</title>
<g id="a_node9"><a xlink:href="namespacekoala_1_1utils.html#a152ac1827f4fdbd036d6e67cdf3acebb" target="_top" xlink:title=" ">
<polygon fill="white" stroke="black" points="551.5,-196.5 551.5,-215.5 652.5,-215.5 652.5,-196.5 551.5,-196.5"/>
<text text-anchor="middle" x="602" y="-203.5" font-family="Helvetica,sans-Serif" font-size="10.00">koala.utils.is_range</text>
</a>
</g>
</g>
<!-- Node37&#45;&gt;Node44 -->
<g id="edge8" class="edge"><title>Node37&#45;&gt;Node44</title>
<path fill="none" stroke="midnightblue" d="M337.316,-176.816C349.048,-178.645 361.433,-180.477 373,-182 429.865,-189.486 494.954,-196.148 540.991,-200.543"/>
<polygon fill="midnightblue" stroke="midnightblue" points="540.812,-204.041 551.097,-201.5 541.472,-197.073 540.812,-204.041"/>
</g>
<!-- Node45 -->
<g id="node10" class="node"><title>Node45</title>
<g id="a_node10"><a xlink:href="namespacekoala_1_1ast.html#a3d0179539d74f2668d3917bf28d2edd8" target="_top" xlink:title=" ">
<polygon fill="white" stroke="black" points="376,-310.5 376,-329.5 502,-329.5 502,-310.5 376,-310.5"/>
<text text-anchor="middle" x="439" y="-317.5" font-family="Helvetica,sans-Serif" font-size="10.00">koala.ast.prepare_pointer</text>
</a>
</g>
</g>
<!-- Node37&#45;&gt;Node45 -->
<g id="edge9" class="edge"><title>Node37&#45;&gt;Node45</title>
<path fill="none" stroke="midnightblue" d="M290.465,-183.299C302.063,-211.029 330.322,-269.619 373,-301 375.652,-302.95 378.502,-304.701 381.474,-306.273"/>
<polygon fill="midnightblue" stroke="midnightblue" points="380.132,-309.507 390.683,-310.471 383.036,-303.138 380.132,-309.507"/>
</g>
<!-- Node46 -->
<g id="node11" class="node"><title>Node46</title>
<g id="a_node11"><a xlink:href="namespacekoala_1_1utils.html#a1d3620df245d23fea05928298cabc2ac" target="_top" xlink:title=" ">
<polygon fill="white" stroke="black" points="392,-109 392,-139 486,-139 486,-109 392,-109"/>
<text text-anchor="start" x="400" y="-127" font-family="Helvetica,sans-Serif" font-size="10.00">koala.utils.resolve</text>
<text text-anchor="middle" x="439" y="-116" font-family="Helvetica,sans-Serif" font-size="10.00">_range</text>
</a>
</g>
</g>
<!-- Node37&#45;&gt;Node46 -->
<g id="edge13" class="edge"><title>Node37&#45;&gt;Node46</title>
<path fill="none" stroke="midnightblue" d="M336.897,-152.981C351.433,-148.814 367.27,-144.274 382.004,-140.051"/>
<polygon fill="midnightblue" stroke="midnightblue" points="383.35,-143.306 391.999,-137.186 381.421,-136.577 383.35,-143.306"/>
</g>
<!-- Node48 -->
<g id="node13" class="node"><title>Node48</title>
<g id="a_node13"><a xlink:href="namespacekoala_1_1utils.html#a5c70ac45916995934736ab28b501c8c5" target="_top" xlink:title=" ">
<polygon fill="white" stroke="black" points="541,-158.5 541,-177.5 663,-177.5 663,-158.5 541,-158.5"/>
<text text-anchor="middle" x="602" y="-165.5" font-family="Helvetica,sans-Serif" font-size="10.00">koala.utils.split_address</text>
</a>
</g>
</g>
<!-- Node37&#45;&gt;Node48 -->
<g id="edge20" class="edge"><title>Node37&#45;&gt;Node48</title>
<path fill="none" stroke="midnightblue" d="M337.119,-168C390.099,-168 472.148,-168 530.683,-168"/>
<polygon fill="midnightblue" stroke="midnightblue" points="530.96,-171.5 540.96,-168 530.96,-164.5 530.96,-171.5"/>
</g>
<!-- Node49 -->
<g id="node14" class="node"><title>Node49</title>
<g id="a_node14"><a xlink:href="namespacekoala_1_1utils.html#a65476c62402a00e3d46dbc99b6a4ea88" target="_top" xlink:title=" ">
<polygon fill="white" stroke="black" points="551.5,-44.5 551.5,-63.5 652.5,-63.5 652.5,-44.5 551.5,-44.5"/>
<text text-anchor="middle" x="602" y="-51.5" font-family="Helvetica,sans-Serif" font-size="10.00">koala.utils.col2num</text>
</a>
</g>
</g>
<!-- Node37&#45;&gt;Node49 -->
<g id="edge23" class="edge"><title>Node37&#45;&gt;Node49</title>
<path fill="none" stroke="midnightblue" d="M291.699,-152.796C304.257,-128.266 332.727,-80.714 373,-61 426.131,-34.9918 494.885,-36.9517 542.941,-43.0961"/>
<polygon fill="midnightblue" stroke="midnightblue" points="542.485,-46.5661 552.869,-44.4622 543.439,-39.6315 542.485,-46.5661"/>
</g>
<!-- Node51 -->
<g id="node16" class="node"><title>Node51</title>
<g id="a_node16"><a xlink:href="namespacekoala_1_1utils.html#aabb45efe6343cf3795888c77a434d47d" target="_top" xlink:title=" ">
<polygon fill="white" stroke="black" points="557,-0.5 557,-19.5 647,-19.5 647,-0.5 557,-0.5"/>
<text text-anchor="middle" x="602" y="-7.5" font-family="Helvetica,sans-Serif" font-size="10.00">koala.utils.flatten</text>
</a>
</g>
</g>
<!-- Node37&#45;&gt;Node51 -->
<g id="edge24" class="edge"><title>Node37&#45;&gt;Node51</title>
<path fill="none" stroke="midnightblue" d="M289.677,-152.983C300.312,-124.654 327.516,-63.6904 373,-36 425.579,-3.99013 497.745,-1.14841 546.701,-3.92621"/>
<polygon fill="midnightblue" stroke="midnightblue" points="546.569,-7.42513 556.78,-4.59578 547.034,-0.440521 546.569,-7.42513"/>
</g>
<!-- Node52 -->
<g id="node17" class="node"><title>Node52</title>
<g id="a_node17"><a xlink:href="namespacekoala_1_1utils.html#a71673869f44a8e5ee678759d1c099ada" target="_top" xlink:title=" ">
<polygon fill="white" stroke="black" points="373,-70.5 373,-89.5 505,-89.5 505,-70.5 373,-70.5"/>
<text text-anchor="middle" x="439" y="-77.5" font-family="Helvetica,sans-Serif" font-size="10.00">koala.utils.max_dimension</text>
</a>
</g>
</g>
<!-- Node37&#45;&gt;Node52 -->
<g id="edge21" class="edge"><title>Node37&#45;&gt;Node52</title>
<path fill="none" stroke="midnightblue" d="M300.171,-152.742C316.93,-137.196 344.908,-113.387 373,-99 377.349,-96.7726 382,-94.7677 386.739,-92.9716"/>
<polygon fill="midnightblue" stroke="midnightblue" points="388.224,-96.1609 396.523,-89.5741 385.928,-89.5482 388.224,-96.1609"/>
</g>
<!-- Node39 -->
<g id="node4" class="node"><title>Node39</title>
<g id="a_node4"><a xlink:href="namespacekoala_1_1_range.html#a6a4a2138705cb8cc069ddf925e74d2c1" target="_top" xlink:title=" ">
<polygon fill="white" stroke="black" points="543,-330 543,-360 661,-360 661,-330 543,-330"/>
<text text-anchor="start" x="551" y="-348" font-family="Helvetica,sans-Serif" font-size="10.00">koala.Range.parse_cell</text>
<text text-anchor="middle" x="602" y="-337" font-family="Helvetica,sans-Serif" font-size="10.00">_address</text>
</a>
</g>
</g>
<!-- Node38&#45;&gt;Node39 -->
<g id="edge3" class="edge"><title>Node38&#45;&gt;Node39</title>
<path fill="none" stroke="midnightblue" d="M477.564,-291.584C486.666,-294.288 496.283,-297.468 505,-301 521.767,-307.795 524.633,-312.291 541,-320 545.131,-321.946 549.456,-323.902 553.809,-325.815"/>
<polygon fill="midnightblue" stroke="midnightblue" points="552.754,-329.171 563.322,-329.916 555.525,-322.743 552.754,-329.171"/>
</g>
<!-- Node40 -->
<g id="node5" class="node"><title>Node40</title>
<g id="a_node5"><a xlink:href="namespacekoala_1_1ast.html#a76e6cdc1c1338001a6d0c4ac4a038087" target="_top" xlink:title=" ">
<polygon fill="white" stroke="black" points="542,-291.5 542,-310.5 662,-310.5 662,-291.5 542,-291.5"/>
<text text-anchor="middle" x="602" y="-298.5" font-family="Helvetica,sans-Serif" font-size="10.00">koala.ast.shunting_yard</text>
</a>
</g>
</g>
<!-- Node38&#45;&gt;Node40 -->
<g id="edge4" class="edge"><title>Node38&#45;&gt;Node40</title>
<path fill="none" stroke="midnightblue" d="M489.619,-287.856C502.927,-289.426 517.563,-291.153 531.726,-292.825"/>
<polygon fill="midnightblue" stroke="midnightblue" points="531.588,-296.333 541.929,-294.029 532.408,-289.381 531.588,-296.333"/>
</g>
<!-- Node42 -->
<g id="node7" class="node"><title>Node42</title>
<g id="a_node7"><a xlink:href="namespacekoala_1_1ast.html#a36277633c59487f9b1c1b256df41e942" target="_top" xlink:title=" ">
<polygon fill="white" stroke="black" points="553,-253.5 553,-272.5 651,-272.5 651,-253.5 553,-253.5"/>
<text text-anchor="middle" x="602" y="-260.5" font-family="Helvetica,sans-Serif" font-size="10.00">koala.ast.build_ast</text>
</a>
</g>
</g>
<!-- Node38&#45;&gt;Node42 -->
<g id="edge6" class="edge"><title>Node38&#45;&gt;Node42</title>
<path fill="none" stroke="midnightblue" d="M489.619,-276.144C506.456,-274.157 525.418,-271.92 542.859,-269.861"/>
<polygon fill="midnightblue" stroke="midnightblue" points="543.404,-273.321 552.925,-268.673 542.583,-266.37 543.404,-273.321"/>
</g>
<!-- Node41 -->
<g id="node6" class="node"><title>Node41</title>
<g id="a_node6"><a xlink:href="namespacekoala_1_1ast.html#a39876c353cfbf071723ede9b5a59eda4" target="_top" xlink:title=" ">
<polygon fill="white" stroke="black" points="699,-291.5 699,-310.5 812,-310.5 812,-291.5 699,-291.5"/>
<text text-anchor="middle" x="755.5" y="-298.5" font-family="Helvetica,sans-Serif" font-size="10.00">koala.ast.create_node</text>
</a>
</g>
</g>
<!-- Node40&#45;&gt;Node41 -->
<g id="edge5" class="edge"><title>Node40&#45;&gt;Node41</title>
<path fill="none" stroke="midnightblue" d="M662.008,-301C670.726,-301 679.756,-301 688.604,-301"/>
<polygon fill="midnightblue" stroke="midnightblue" points="688.877,-304.5 698.877,-301 688.877,-297.5 688.877,-304.5"/>
</g>
<!-- Node45&#45;&gt;Node39 -->
<g id="edge10" class="edge"><title>Node45&#45;&gt;Node39</title>
<path fill="none" stroke="midnightblue" d="M501.326,-329.523C511.63,-331.123 522.378,-332.792 532.842,-334.416"/>
<polygon fill="midnightblue" stroke="midnightblue" points="532.344,-337.881 542.762,-335.957 533.418,-330.964 532.344,-337.881"/>
</g>
<!-- Node45&#45;&gt;Node40 -->
<g id="edge11" class="edge"><title>Node45&#45;&gt;Node40</title>
<path fill="none" stroke="midnightblue" d="M502.247,-312.654C511.901,-311.515 521.925,-310.332 531.722,-309.176"/>
<polygon fill="midnightblue" stroke="midnightblue" points="532.305,-312.631 541.826,-307.983 531.484,-305.68 532.305,-312.631"/>
</g>
<!-- Node45&#45;&gt;Node42 -->
<g id="edge12" class="edge"><title>Node45&#45;&gt;Node42</title>
<path fill="none" stroke="midnightblue" d="M477.564,-310.416C486.666,-307.712 496.283,-304.532 505,-301 521.767,-294.205 524.309,-288.981 541,-282 546.36,-279.758 552.082,-277.628 557.784,-275.66"/>
<polygon fill="midnightblue" stroke="midnightblue" points="558.902,-278.976 567.294,-272.509 556.701,-272.331 558.902,-278.976"/>
</g>
<!-- Node46&#45;&gt;Node44 -->
<g id="edge15" class="edge"><title>Node46&#45;&gt;Node44</title>
<path fill="none" stroke="midnightblue" d="M460.793,-139.147C480.624,-153.056 511.725,-173.496 541,-187 545.776,-189.203 550.878,-191.25 556.014,-193.121"/>
<polygon fill="midnightblue" stroke="midnightblue" points="555.261,-196.562 565.856,-196.497 557.533,-189.941 555.261,-196.562"/>
</g>
<!-- Node47 -->
<g id="node12" class="node"><title>Node47</title>
<g id="a_node12"><a xlink:href="namespacekoala_1_1utils.html#a77ace10251dde2f09a457b7b469208cc" target="_top" xlink:title=" ">
<polygon fill="white" stroke="black" points="546.5,-82.5 546.5,-101.5 657.5,-101.5 657.5,-82.5 546.5,-82.5"/>
<text text-anchor="middle" x="602" y="-89.5" font-family="Helvetica,sans-Serif" font-size="10.00">koala.utils.split_range</text>
</a>
</g>
</g>
<!-- Node46&#45;&gt;Node47 -->
<g id="edge14" class="edge"><title>Node46&#45;&gt;Node47</title>
<path fill="none" stroke="midnightblue" d="M486.136,-114.83C503.937,-111.292 524.497,-107.205 543.261,-103.476"/>
<polygon fill="midnightblue" stroke="midnightblue" points="544.051,-106.888 553.177,-101.505 542.686,-100.022 544.051,-106.888"/>
</g>
<!-- Node46&#45;&gt;Node48 -->
<g id="edge16" class="edge"><title>Node46&#45;&gt;Node48</title>
<path fill="none" stroke="midnightblue" d="M486.136,-136.609C508.215,-142.643 534.539,-149.837 556.414,-155.815"/>
<polygon fill="midnightblue" stroke="midnightblue" points="555.551,-159.207 566.12,-158.467 557.396,-152.455 555.551,-159.207"/>
</g>
<!-- Node46&#45;&gt;Node49 -->
<g id="edge17" class="edge"><title>Node46&#45;&gt;Node49</title>
<path fill="none" stroke="midnightblue" d="M483.707,-108.982C490.964,-105.983 498.302,-102.627 505,-99 522.355,-89.6014 523.369,-81.8694 541,-73 545.347,-70.8134 549.997,-68.8126 554.713,-66.9992"/>
<polygon fill="midnightblue" stroke="midnightblue" points="556.168,-70.1963 564.411,-63.5404 553.816,-63.6031 556.168,-70.1963"/>
</g>
<!-- Node50 -->
<g id="node15" class="node"><title>Node50</title>
<g id="a_node15"><a xlink:href="namespacekoala_1_1utils.html#a2037076cc5a6fbf884023917a0cbfca7" target="_top" xlink:title=" ">
<polygon fill="white" stroke="black" points="551.5,-120.5 551.5,-139.5 652.5,-139.5 652.5,-120.5 551.5,-120.5"/>
<text text-anchor="middle" x="602" y="-127.5" font-family="Helvetica,sans-Serif" font-size="10.00">koala.utils.num2col</text>
</a>
</g>
</g>
<!-- Node46&#45;&gt;Node50 -->
<g id="edge18" class="edge"><title>Node46&#45;&gt;Node50</title>
<path fill="none" stroke="midnightblue" d="M486.136,-125.719C503.305,-126.359 523.04,-127.095 541.255,-127.773"/>
<polygon fill="midnightblue" stroke="midnightblue" points="541.357,-131.28 551.481,-128.155 541.618,-124.284 541.357,-131.28"/>
</g>
<!-- Node46&#45;&gt;Node51 -->
<g id="edge19" class="edge"><title>Node46&#45;&gt;Node51</title>
<path fill="none" stroke="midnightblue" d="M486.311,-110.819C493.026,-107.638 499.512,-103.744 505,-99 529.69,-77.658 516.607,-56.6809 541,-35 546.044,-30.5172 552.005,-26.7645 558.179,-23.6455"/>
<polygon fill="midnightblue" stroke="midnightblue" points="559.63,-26.8307 567.297,-19.5181 556.744,-20.4537 559.63,-26.8307"/>
</g>
<!-- Node52&#45;&gt;Node49 -->
<g id="edge22" class="edge"><title>Node52&#45;&gt;Node49</title>
<path fill="none" stroke="midnightblue" d="M499.036,-70.4662C512.902,-68.227 527.684,-65.8399 541.567,-63.5979"/>
<polygon fill="midnightblue" stroke="midnightblue" points="542.177,-67.0448 551.491,-61.9953 541.061,-60.1344 542.177,-67.0448"/>
</g>
</g>
</svg>
        <g id="navigator" transform="translate(0 0)" fill="#404254">
                <rect fill="#f2f5e9" fill-opacity="0.5" stroke="#606060" stroke-width=".5" x="0" y="0" width="60" height="60"/>
                <use id="zoomplus" xlink:href="#zoomPlus" x="17" y="9" onmousedown="handleZoom(evt,'in')"/>
                <use id="zoomminus" xlink:href="#zoomMin" x="42" y="9" onmousedown="handleZoom(evt,'out')"/>
                <use id="reset" xlink:href="#resetDef" x="30" y="36" onmousedown="handleReset()"/>
                <g id="arrowUp" xlink:href="#dirArrow" transform="translate(30 24)" onmousedown="handlePan(0,-1)">
                  <use xlink:href="#rim" fill="#404040">
                        <set attributeName="fill" to="#808080" begin="arrowUp.mouseover" end="arrowUp.mouseout"/>
                  </use>
                  <path fill="none" stroke="white" stroke-width="1.5" d="M0,-3.0v7 M-2.5,-0.5L0,-3.0L2.5,-0.5"/>
                </g>
                <g id="arrowRight" xlink:href="#dirArrow" transform="rotate(90) translate(36 -43)" onmousedown="handlePan(1,0)">
                  <use xlink:href="#rim" fill="#404040">
                        <set attributeName="fill" to="#808080" begin="arrowRight.mouseover" end="arrowRight.mouseout"/>
                  </use>
                  <path fill="none" stroke="white" stroke-width="1.5" d="M0,-3.0v7 M-2.5,-0.5L0,-3.0L2.5,-0.5"/>
                </g>
                <g id="arrowDown" xlink:href="#dirArrow" transform="rotate(180) translate(-30 -48)" onmousedown="handlePan(0,1)">
                  <use xlink:href="#rim" fill="#404040">
                        <set attributeName="fill" to="#808080" begin="arrowDown.mouseover" end="arrowDown.mouseout"/>
                  </use>
                  <path fill="none" stroke="white" stroke-width="1.5" d="M0,-3.0v7 M-2.5,-0.5L0,-3.0L2.5,-0.5"/>
                </g>
                <g id="arrowLeft" xlink:href="#dirArrow" transform="rotate(270) translate(-36 17)" onmousedown="handlePan(-1,0)">
                  <use xlink:href="#rim" fill="#404040">
                        <set attributeName="fill" to="#808080" begin="arrowLeft.mouseover" end="arrowLeft.mouseout"/>
                  </use>
                  <path fill="none" stroke="white" stroke-width="1.5" d="M0,-3.0v7 M-2.5,-0.5L0,-3.0L2.5,-0.5"/>
                </g>
        </g>
        <svg viewBox="0 0 15 15" width="100%" height="30px" preserveAspectRatio="xMaxYMin meet">
         <g id="arrow_out" transform="scale(0.3 0.3)">
          <a xlink:href="classkoala_1_1_spreadsheet_1_1_spreadsheet_affd17089825c4b3391c4d6b9b702209c_cgraph_org.svg" target="_base">
           <rect id="button" ry="5" rx="5" y="6" x="6" height="38" width="38"
                fill="#f2f5e9" fill-opacity="0.5" stroke="#606060" stroke-width="1.0"/>
           <path id="arrow"
             d="M 11.500037,31.436501 C 11.940474,20.09759 22.043105,11.32322 32.158766,21.979434 L 37.068811,17.246167 C 37.068811,17.246167 37.088388,32 37.088388,32 L 22.160133,31.978069 C 22.160133,31.978069 26.997745,27.140456 26.997745,27.140456 C 18.528582,18.264221 13.291696,25.230495 11.500037,31.436501 z"
             style="fill:#404040;"/>
          </a>
         </g>
        </svg>
</svg>
