<?xml version="1.0" encoding="UTF-8" standalone="no"?>
<!DOCTYPE svg PUBLIC "-//W3C//DTD SVG 1.1//EN"
 "http://www.w3.org/Graphics/SVG/1.1/DTD/svg11.dtd">
<!-- Generated by graphviz version 2.38.0 (20140413.2041)
 -->
<!-- Title: koala.tokenizer.f_tokens.__iter__ Pages: 1 -->
<svg width="558pt" height="90pt"
 viewBox="0.00 0.00 558.00 89.50" xmlns="http://www.w3.org/2000/svg" xmlns:xlink="http://www.w3.org/1999/xlink">
<g id="graph0" class="graph" transform="scale(1 1) rotate(0) translate(4 85.5)">
<title>koala.tokenizer.f_tokens.__iter__</title>
<polygon fill="white" stroke="none" points="-4,4 -4,-85.5 554,-85.5 554,4 -4,4"/>
<!-- Node2 -->
<g id="node1" class="node"><title>Node2</title>
<g id="a_node1"><a xlink:title=" ">
<polygon fill="#bfbfbf" stroke="black" points="0,-14 0,-44 125,-44 125,-14 0,-14"/>
<text text-anchor="start" x="8" y="-32" font-family="Helvetica,sans-Serif" font-size="10.00">koala.tokenizer.f_tokens.</text>
<text text-anchor="middle" x="62.5" y="-21" font-family="Helvetica,sans-Serif" font-size="10.00">__iter__</text>
</a>
</g>
</g>
<!-- Node3 -->
<g id="node2" class="node"><title>Node3</title>
<g id="a_node2"><a xlink:href="classkoala_1_1_spreadsheet_1_1_spreadsheet.html#ac1d00a30cd87519d3ad14c293d8f77e3" target="_top" xlink:title=" ">
<polygon fill="white" stroke="black" points="161,-38.5 161,-57.5 341,-57.5 341,-38.5 161,-38.5"/>
<text text-anchor="middle" x="251" y="-45.5" font-family="Helvetica,sans-Serif" font-size="10.00">koala.Spreadsheet.Spreadsheet.reset</text>
</a>
</g>
</g>
<!-- Node2&#45;&gt;Node3 -->
<g id="edge1" class="edge"><title>Node2&#45;&gt;Node3</title>
<path fill="none" stroke="midnightblue" d="M125.084,-35.274C133.32,-36.113 141.93,-36.9902 150.611,-37.8746"/>
<polygon fill="midnightblue" stroke="midnightblue" points="150.514,-41.3827 160.817,-38.9143 151.223,-34.4187 150.514,-41.3827"/>
</g>
<!-- Node5 -->
<g id="node4" class="node"><title>Node5</title>
<g id="a_node4"><a xlink:href="classkoala_1_1tokenizer_1_1f__tokens.html#abc6b87ea9d9f925b28158992e8b128a8" target="_top" xlink:title=" ">
<polygon fill="white" stroke="black" points="177.5,-0.5 177.5,-19.5 324.5,-19.5 324.5,-0.5 177.5,-0.5"/>
<text text-anchor="middle" x="251" y="-7.5" font-family="Helvetica,sans-Serif" font-size="10.00">koala.tokenizer.f_tokens.reset</text>
</a>
</g>
</g>
<!-- Node2&#45;&gt;Node5 -->
<g id="edge4" class="edge"><title>Node2&#45;&gt;Node5</title>
<path fill="none" stroke="midnightblue" d="M125.084,-22.726C138.574,-21.3518 153.066,-19.8753 167.233,-18.4321"/>
<polygon fill="midnightblue" stroke="midnightblue" points="167.877,-21.8846 177.471,-17.389 167.168,-14.9207 167.877,-21.8846"/>
</g>
<!-- Node4 -->
<g id="node3" class="node"><title>Node4</title>
<g id="a_node3"><a xlink:href="classkoala_1_1_spreadsheet_1_1_spreadsheet.html#a6a30676c4bbc56ea5d6f78f073312b6e" target="_top" xlink:title=" ">
<polygon fill="white" stroke="black" points="377,-33 377,-63 550,-63 550,-33 377,-33"/>
<text text-anchor="start" x="385" y="-51" font-family="Helvetica,sans-Serif" font-size="10.00">koala.Spreadsheet.Spreadsheet.cell</text>
<text text-anchor="middle" x="463.5" y="-40" font-family="Helvetica,sans-Serif" font-size="10.00">_reset</text>
</a>
</g>
</g>
<!-- Node3&#45;&gt;Node4 -->
<g id="edge2" class="edge"><title>Node3&#45;&gt;Node4</title>
<path fill="none" stroke="midnightblue" d="M341.271,-48C349.636,-48 358.138,-48 366.561,-48"/>
<polygon fill="midnightblue" stroke="midnightblue" points="366.78,-51.5001 376.78,-48 366.78,-44.5001 366.78,-51.5001"/>
</g>
<!-- Node4&#45;&gt;Node4 -->
<g id="edge3" class="edge"><title>Node4&#45;&gt;Node4</title>
<path fill="none" stroke="midnightblue" d="M426.555,-63.159C417.646,-72.5566 429.961,-81.5 463.5,-81.5 483.938,-81.5 496.494,-78.179 501.17,-73.4579"/>
<polygon fill="midnightblue" stroke="midnightblue" points="504.639,-72.8887 500.445,-63.159 497.656,-73.38 504.639,-72.8887"/>
</g>
</g>
</svg>
