<?xml version="1.0" encoding="UTF-8" standalone="no"?>
<!DOCTYPE svg PUBLIC "-//W3C//DTD SVG 1.1//EN"
 "http://www.w3.org/Graphics/SVG/1.1/DTD/svg11.dtd">
<!-- Generated by graphviz version 2.38.0 (20140413.2041)
 -->
<!-- Title: koala.Cell.Cell.range Pages: 1 -->
<svg width="258pt" height="66pt"
 viewBox="0.00 0.00 258.00 66.00" xmlns="http://www.w3.org/2000/svg" xmlns:xlink="http://www.w3.org/1999/xlink">
<g id="graph0" class="graph" transform="scale(1 1) rotate(0) translate(4 62)">
<title>koala.Cell.Cell.range</title>
<polygon fill="white" stroke="none" points="-4,4 -4,-62 254,-62 254,4 -4,4"/>
<!-- Node81 -->
<g id="node1" class="node"><title>Node81</title>
<g id="a_node1"><a xlink:title=" ">
<polygon fill="#bfbfbf" stroke="black" points="144,-19.5 144,-38.5 250,-38.5 250,-19.5 144,-19.5"/>
<text text-anchor="middle" x="197" y="-26.5" font-family="Helvetica,sans-Serif" font-size="10.00">koala.Cell.Cell.range</text>
</a>
</g>
</g>
<!-- Node82 -->
<g id="node2" class="node"><title>Node82</title>
<g id="a_node2"><a xlink:href="classkoala_1_1_cell_1_1_cell.html#a2995774fb814db06dc11d299ae6f6dea" target="_top" xlink:title=" ">
<polygon fill="white" stroke="black" points="1,-38.5 1,-57.5 107,-57.5 107,-38.5 1,-38.5"/>
<text text-anchor="middle" x="54" y="-45.5" font-family="Helvetica,sans-Serif" font-size="10.00">koala.Cell.Cell.range</text>
</a>
</g>
</g>
<!-- Node81&#45;&gt;Node82 -->
<g id="edge1" class="edge"><title>Node81&#45;&gt;Node82</title>
<path fill="none" stroke="midnightblue" d="M133.977,-37.3577C125.095,-38.5546 116.031,-39.776 107.359,-40.9445"/>
<polygon fill="midnightblue" stroke="midnightblue" points="134.454,-40.8251 143.897,-36.0209 133.52,-33.8878 134.454,-40.8251"/>
</g>
<!-- Node83 -->
<g id="node3" class="node"><title>Node83</title>
<g id="a_node3"><a xlink:href="classkoala_1_1_cell_1_1_cell.html#ab74d202bd9f25cf4608c4cb8e86d32df" target="_top" xlink:title=" ">
<polygon fill="white" stroke="black" points="0,-0.5 0,-19.5 108,-19.5 108,-0.5 0,-0.5"/>
<text text-anchor="middle" x="54" y="-7.5" font-family="Helvetica,sans-Serif" font-size="10.00">koala.Cell.Cell.asdict</text>
</a>
</g>
</g>
<!-- Node81&#45;&gt;Node83 -->
<g id="edge2" class="edge"><title>Node81&#45;&gt;Node83</title>
<path fill="none" stroke="midnightblue" d="M133.962,-20.6403C125.406,-19.4874 116.682,-18.3118 108.303,-17.1827"/>
<polygon fill="midnightblue" stroke="midnightblue" points="133.52,-24.1122 143.897,-21.9791 134.454,-17.1749 133.52,-24.1122"/>
</g>
</g>
</svg>
