<?xml version="1.0" encoding="UTF-8" standalone="no"?>
<!DOCTYPE svg PUBLIC "-//W3C//DTD SVG 1.1//EN"
 "http://www.w3.org/Graphics/SVG/1.1/DTD/svg11.dtd">
<!-- Generated by graphviz version 2.38.0 (20140413.2041)
 -->
<!-- Title: koala.Spreadsheet.Spreadsheet.cell_set_value Pages: 1 -->
<svg width="389pt" height="39pt"
 viewBox="0.00 0.00 389.00 39.00" xmlns="http://www.w3.org/2000/svg" xmlns:xlink="http://www.w3.org/1999/xlink">
<g id="graph0" class="graph" transform="scale(1 1) rotate(0) translate(4 35)">
<title>koala.Spreadsheet.Spreadsheet.cell_set_value</title>
<polygon fill="white" stroke="none" points="-4,4 -4,-35 385,-35 385,4 -4,4"/>
<!-- Node136 -->
<g id="node1" class="node"><title>Node136</title>
<g id="a_node1"><a xlink:title=" ">
<polygon fill="#bfbfbf" stroke="black" points="208,-0.5 208,-30.5 381,-30.5 381,-0.5 208,-0.5"/>
<text text-anchor="start" x="216" y="-18.5" font-family="Helvetica,sans-Serif" font-size="10.00">koala.Spreadsheet.Spreadsheet.cell</text>
<text text-anchor="middle" x="294.5" y="-7.5" font-family="Helvetica,sans-Serif" font-size="10.00">_set_value</text>
</a>
</g>
</g>
<!-- Node137 -->
<g id="node2" class="node"><title>Node137</title>
<g id="a_node2"><a xlink:href="classkoala_1_1_spreadsheet_1_1_spreadsheet.html#a1330ffeda88c7bc6905a00e80203eb78" target="_top" xlink:title=" ">
<polygon fill="white" stroke="black" points="0,-0.5 0,-30.5 172,-30.5 172,-0.5 0,-0.5"/>
<text text-anchor="start" x="8" y="-18.5" font-family="Helvetica,sans-Serif" font-size="10.00">koala.Spreadsheet.Spreadsheet.set</text>
<text text-anchor="middle" x="86" y="-7.5" font-family="Helvetica,sans-Serif" font-size="10.00">_value</text>
</a>
</g>
</g>
<!-- Node136&#45;&gt;Node137 -->
<g id="edge1" class="edge"><title>Node136&#45;&gt;Node137</title>
<path fill="none" stroke="midnightblue" d="M197.471,-15.5C189.03,-15.5 180.524,-15.5 172.181,-15.5"/>
<polygon fill="midnightblue" stroke="midnightblue" points="197.719,-19.0001 207.719,-15.5 197.719,-12.0001 197.719,-19.0001"/>
</g>
</g>
</svg>
