<?xml version="1.0" encoding="UTF-8" standalone="no"?>
<!DOCTYPE svg PUBLIC "-//W3C//DTD SVG 1.1//EN"
 "http://www.w3.org/Graphics/SVG/1.1/DTD/svg11.dtd">
<!-- Generated by graphviz version 2.38.0 (20140413.2041)
 -->
<!-- Title: koala.Spreadsheet.Spreadsheet.find_pointer_arguments Pages: 1 -->
<svg width="926pt" height="350pt"
 viewBox="0.00 0.00 926.00 349.50" xmlns="http://www.w3.org/2000/svg" xmlns:xlink="http://www.w3.org/1999/xlink">
<g id="graph0" class="graph" transform="scale(1 1) rotate(0) translate(4 345.5)">
<title>koala.Spreadsheet.Spreadsheet.find_pointer_arguments</title>
<polygon fill="white" stroke="none" points="-4,4 -4,-345.5 922,-345.5 922,4 -4,4"/>
<!-- Node201 -->
<g id="node1" class="node"><title>Node201</title>
<g id="a_node1"><a xlink:title=" ">
<polygon fill="#bfbfbf" stroke="black" points="0,-229 0,-259 173,-259 173,-229 0,-229"/>
<text text-anchor="start" x="8" y="-247" font-family="Helvetica,sans-Serif" font-size="10.00">koala.Spreadsheet.Spreadsheet.find</text>
<text text-anchor="middle" x="86.5" y="-236" font-family="Helvetica,sans-Serif" font-size="10.00">_pointer_arguments</text>
</a>
</g>
</g>
<!-- Node202 -->
<g id="node2" class="node"><title>Node202</title>
<g id="a_node2"><a xlink:href="namespacekoala_1_1_range.html#a6a4a2138705cb8cc069ddf925e74d2c1" target="_top" xlink:title=" ">
<polygon fill="white" stroke="black" points="236,-311 236,-341 354,-341 354,-311 236,-311"/>
<text text-anchor="start" x="244" y="-329" font-family="Helvetica,sans-Serif" font-size="10.00">koala.Range.parse_cell</text>
<text text-anchor="middle" x="295" y="-318" font-family="Helvetica,sans-Serif" font-size="10.00">_address</text>
</a>
</g>
</g>
<!-- Node201&#45;&gt;Node202 -->
<g id="edge1" class="edge"><title>Node201&#45;&gt;Node202</title>
<path fill="none" stroke="midnightblue" d="M116.421,-259.1C140.704,-271.404 176.538,-288.694 209,-301 215.281,-303.381 221.893,-305.678 228.54,-307.849"/>
<polygon fill="midnightblue" stroke="midnightblue" points="227.679,-311.247 238.269,-310.935 229.796,-304.575 227.679,-311.247"/>
</g>
<!-- Node203 -->
<g id="node3" class="node"><title>Node203</title>
<g id="a_node3"><a xlink:href="namespacekoala_1_1ast.html#a76e6cdc1c1338001a6d0c4ac4a038087" target="_top" xlink:title=" ">
<polygon fill="white" stroke="black" points="235,-272.5 235,-291.5 355,-291.5 355,-272.5 235,-272.5"/>
<text text-anchor="middle" x="295" y="-279.5" font-family="Helvetica,sans-Serif" font-size="10.00">koala.ast.shunting_yard</text>
</a>
</g>
</g>
<!-- Node201&#45;&gt;Node203 -->
<g id="edge2" class="edge"><title>Node201&#45;&gt;Node203</title>
<path fill="none" stroke="midnightblue" d="M169.114,-259.019C190.235,-262.905 212.62,-267.025 232.517,-270.686"/>
<polygon fill="midnightblue" stroke="midnightblue" points="231.902,-274.131 242.37,-272.499 233.169,-267.247 231.902,-274.131"/>
</g>
<!-- Node205 -->
<g id="node5" class="node"><title>Node205</title>
<g id="a_node5"><a xlink:href="namespacekoala_1_1ast.html#a36277633c59487f9b1c1b256df41e942" target="_top" xlink:title=" ">
<polygon fill="white" stroke="black" points="246,-234.5 246,-253.5 344,-253.5 344,-234.5 246,-234.5"/>
<text text-anchor="middle" x="295" y="-241.5" font-family="Helvetica,sans-Serif" font-size="10.00">koala.ast.build_ast</text>
</a>
</g>
</g>
<!-- Node201&#45;&gt;Node205 -->
<g id="edge4" class="edge"><title>Node201&#45;&gt;Node205</title>
<path fill="none" stroke="midnightblue" d="M173.281,-244C194.321,-244 216.358,-244 235.759,-244"/>
<polygon fill="midnightblue" stroke="midnightblue" points="235.943,-247.5 245.943,-244 235.943,-240.5 235.943,-247.5"/>
</g>
<!-- Node206 -->
<g id="node6" class="node"><title>Node206</title>
<g id="a_node6"><a xlink:href="namespacekoala_1_1utils.html#aabb45efe6343cf3795888c77a434d47d" target="_top" xlink:title=" ">
<polygon fill="white" stroke="black" points="812,-193.5 812,-212.5 902,-212.5 902,-193.5 812,-193.5"/>
<text text-anchor="middle" x="857" y="-200.5" font-family="Helvetica,sans-Serif" font-size="10.00">koala.utils.flatten</text>
</a>
</g>
</g>
<!-- Node201&#45;&gt;Node206 -->
<g id="edge5" class="edge"><title>Node201&#45;&gt;Node206</title>
<path fill="none" stroke="midnightblue" d="M173.295,-229.259C185.258,-227.591 197.416,-226.099 209,-225 427.953,-204.235 690.22,-202.361 801.645,-202.63"/>
<polygon fill="midnightblue" stroke="midnightblue" points="801.939,-206.131 811.95,-202.662 801.961,-199.131 801.939,-206.131"/>
</g>
<!-- Node207 -->
<g id="node7" class="node"><title>Node207</title>
<g id="a_node7"><a xlink:href="classkoala_1_1_spreadsheet_1_1_spreadsheet.html#a8ebd4153a8499a4bf7fdf0bde89f12f0" target="_top" xlink:title=" ">
<polygon fill="white" stroke="black" points="209,-129 209,-159 381,-159 381,-129 209,-129"/>
<text text-anchor="start" x="217" y="-147" font-family="Helvetica,sans-Serif" font-size="10.00">koala.Spreadsheet.Spreadsheet.get</text>
<text text-anchor="middle" x="295" y="-136" font-family="Helvetica,sans-Serif" font-size="10.00">_pointer_arguments_from_ast</text>
</a>
</g>
</g>
<!-- Node201&#45;&gt;Node207 -->
<g id="edge6" class="edge"><title>Node201&#45;&gt;Node207</title>
<path fill="none" stroke="midnightblue" d="M118.863,-228.812C155.004,-211.31 214.473,-182.512 253.936,-163.402"/>
<polygon fill="midnightblue" stroke="midnightblue" points="255.544,-166.512 263.019,-159.003 252.493,-160.212 255.544,-166.512"/>
</g>
<!-- Node204 -->
<g id="node4" class="node"><title>Node204</title>
<g id="a_node4"><a xlink:href="namespacekoala_1_1ast.html#a39876c353cfbf071723ede9b5a59eda4" target="_top" xlink:title=" ">
<polygon fill="white" stroke="black" points="446.5,-272.5 446.5,-291.5 559.5,-291.5 559.5,-272.5 446.5,-272.5"/>
<text text-anchor="middle" x="503" y="-279.5" font-family="Helvetica,sans-Serif" font-size="10.00">koala.ast.create_node</text>
</a>
</g>
</g>
<!-- Node203&#45;&gt;Node204 -->
<g id="edge3" class="edge"><title>Node203&#45;&gt;Node204</title>
<path fill="none" stroke="midnightblue" d="M355.031,-282C380.431,-282 410.223,-282 436.319,-282"/>
<polygon fill="midnightblue" stroke="midnightblue" points="436.497,-285.5 446.497,-282 436.497,-278.5 436.497,-285.5"/>
</g>
<!-- Node207&#45;&gt;Node207 -->
<g id="edge19" class="edge"><title>Node207&#45;&gt;Node207</title>
<path fill="none" stroke="midnightblue" d="M258.752,-159.159C250.011,-168.557 262.094,-177.5 295,-177.5 315.052,-177.5 327.372,-174.179 331.959,-169.458"/>
<polygon fill="midnightblue" stroke="midnightblue" points="335.429,-168.894 331.248,-159.159 328.445,-169.376 335.429,-168.894"/>
</g>
<!-- Node208 -->
<g id="node8" class="node"><title>Node208</title>
<g id="a_node8"><a xlink:href="namespacekoala_1_1utils.html#af016160edea2b46cb26db3ed307c9648" target="_top" xlink:title=" ">
<polygon fill="white" stroke="black" points="638,-158.5 638,-177.5 747,-177.5 747,-158.5 638,-158.5"/>
<text text-anchor="middle" x="692.5" y="-165.5" font-family="Helvetica,sans-Serif" font-size="10.00">koala.utils.is_number</text>
</a>
</g>
</g>
<!-- Node207&#45;&gt;Node208 -->
<g id="edge7" class="edge"><title>Node207&#45;&gt;Node208</title>
<path fill="none" stroke="midnightblue" d="M381.331,-149.178C455.417,-153.674 561.026,-160.083 627.903,-164.141"/>
<polygon fill="midnightblue" stroke="midnightblue" points="627.693,-167.634 637.887,-164.747 628.118,-160.647 627.693,-167.634"/>
</g>
<!-- Node209 -->
<g id="node9" class="node"><title>Node209</title>
<g id="a_node9"><a xlink:href="classkoala_1_1_spreadsheet_1_1_spreadsheet.html#aa23818eb03be8a82c0969bd5338fdf2d" target="_top" xlink:title=" ">
<polygon fill="white" stroke="black" points="417,-91 417,-121 589,-121 589,-91 417,-91"/>
<text text-anchor="start" x="425" y="-109" font-family="Helvetica,sans-Serif" font-size="10.00">koala.Spreadsheet.Spreadsheet.get</text>
<text text-anchor="middle" x="503" y="-98" font-family="Helvetica,sans-Serif" font-size="10.00">_arguments_from_ast</text>
</a>
</g>
</g>
<!-- Node207&#45;&gt;Node209 -->
<g id="edge8" class="edge"><title>Node207&#45;&gt;Node209</title>
<path fill="none" stroke="midnightblue" d="M377.417,-128.981C388.266,-126.98 399.449,-124.917 410.456,-122.887"/>
<polygon fill="midnightblue" stroke="midnightblue" points="411.301,-126.29 420.5,-121.034 410.031,-119.406 411.301,-126.29"/>
</g>
<!-- Node209&#45;&gt;Node208 -->
<g id="edge17" class="edge"><title>Node209&#45;&gt;Node208</title>
<path fill="none" stroke="midnightblue" d="M544.392,-121.074C567.809,-129.632 597.929,-140.332 625,-149 631.997,-151.24 639.448,-153.495 646.737,-155.63"/>
<polygon fill="midnightblue" stroke="midnightblue" points="645.939,-159.042 656.517,-158.453 647.88,-152.317 645.939,-159.042"/>
</g>
<!-- Node209&#45;&gt;Node209 -->
<g id="edge18" class="edge"><title>Node209&#45;&gt;Node209</title>
<path fill="none" stroke="midnightblue" d="M470.237,-121.159C462.337,-130.557 473.258,-139.5 503,-139.5 521.124,-139.5 532.259,-136.179 536.405,-131.458"/>
<polygon fill="midnightblue" stroke="midnightblue" points="539.879,-130.922 535.763,-121.159 532.892,-131.358 539.879,-130.922"/>
</g>
<!-- Node210 -->
<g id="node10" class="node"><title>Node210</title>
<g id="a_node10"><a xlink:href="namespacekoala_1_1tokenizer.html#aad729e834025da12ee669f20324a9eb8" target="_top" xlink:title=" ">
<polygon fill="white" stroke="black" points="625,-120.5 625,-139.5 760,-139.5 760,-120.5 625,-120.5"/>
<text text-anchor="middle" x="692.5" y="-127.5" font-family="Helvetica,sans-Serif" font-size="10.00">koala.tokenizer.reverse_rpn</text>
</a>
</g>
</g>
<!-- Node209&#45;&gt;Node210 -->
<g id="edge9" class="edge"><title>Node209&#45;&gt;Node210</title>
<path fill="none" stroke="midnightblue" d="M589.246,-116.911C597.705,-117.994 606.258,-119.089 614.625,-120.16"/>
<polygon fill="midnightblue" stroke="midnightblue" points="614.357,-123.654 624.721,-121.452 615.246,-116.711 614.357,-123.654"/>
</g>
<!-- Node211 -->
<g id="node11" class="node"><title>Node211</title>
<g id="a_node11"><a xlink:href="namespacekoala_1_1utils.html#a1d3620df245d23fea05928298cabc2ac" target="_top" xlink:title=" ">
<polygon fill="white" stroke="black" points="645.5,-71 645.5,-101 739.5,-101 739.5,-71 645.5,-71"/>
<text text-anchor="start" x="653.5" y="-89" font-family="Helvetica,sans-Serif" font-size="10.00">koala.utils.resolve</text>
<text text-anchor="middle" x="692.5" y="-78" font-family="Helvetica,sans-Serif" font-size="10.00">_range</text>
</a>
</g>
</g>
<!-- Node209&#45;&gt;Node211 -->
<g id="edge10" class="edge"><title>Node209&#45;&gt;Node211</title>
<path fill="none" stroke="midnightblue" d="M589.246,-96.9071C604.815,-95.2464 620.7,-93.552 635.163,-92.0093"/>
<polygon fill="midnightblue" stroke="midnightblue" points="635.846,-95.4564 645.418,-90.9154 635.104,-88.4958 635.846,-95.4564"/>
</g>
<!-- Node211&#45;&gt;Node206 -->
<g id="edge16" class="edge"><title>Node211&#45;&gt;Node206</title>
<path fill="none" stroke="midnightblue" d="M739.663,-98.2335C747.002,-101.562 754.106,-105.749 760,-111 786.123,-134.27 769.782,-157.837 796,-181 799.461,-184.058 803.383,-186.703 807.524,-188.988"/>
<polygon fill="midnightblue" stroke="midnightblue" points="806.314,-192.289 816.847,-193.439 809.33,-185.972 806.314,-192.289"/>
</g>
<!-- Node212 -->
<g id="node12" class="node"><title>Node212</title>
<g id="a_node12"><a xlink:href="namespacekoala_1_1utils.html#a77ace10251dde2f09a457b7b469208cc" target="_top" xlink:title=" ">
<polygon fill="white" stroke="black" points="801.5,-152.5 801.5,-171.5 912.5,-171.5 912.5,-152.5 801.5,-152.5"/>
<text text-anchor="middle" x="857" y="-159.5" font-family="Helvetica,sans-Serif" font-size="10.00">koala.utils.split_range</text>
</a>
</g>
</g>
<!-- Node211&#45;&gt;Node212 -->
<g id="edge11" class="edge"><title>Node211&#45;&gt;Node212</title>
<path fill="none" stroke="midnightblue" d="M739.612,-100.798C746.646,-103.77 753.664,-107.175 760,-111 778.327,-122.063 777.387,-132.425 796,-143 799.741,-145.125 803.75,-147.046 807.857,-148.775"/>
<polygon fill="midnightblue" stroke="midnightblue" points="806.946,-152.174 817.537,-152.468 809.441,-145.634 806.946,-152.174"/>
</g>
<!-- Node213 -->
<g id="node13" class="node"><title>Node213</title>
<g id="a_node13"><a xlink:href="namespacekoala_1_1utils.html#a152ac1827f4fdbd036d6e67cdf3acebb" target="_top" xlink:title=" ">
<polygon fill="white" stroke="black" points="806.5,-114.5 806.5,-133.5 907.5,-133.5 907.5,-114.5 806.5,-114.5"/>
<text text-anchor="middle" x="857" y="-121.5" font-family="Helvetica,sans-Serif" font-size="10.00">koala.utils.is_range</text>
</a>
</g>
</g>
<!-- Node211&#45;&gt;Node213 -->
<g id="edge12" class="edge"><title>Node211&#45;&gt;Node213</title>
<path fill="none" stroke="midnightblue" d="M739.631,-96.7876C760.113,-101.577 784.282,-107.229 805.271,-112.137"/>
<polygon fill="midnightblue" stroke="midnightblue" points="804.755,-115.611 815.289,-114.48 806.349,-108.795 804.755,-115.611"/>
</g>
<!-- Node214 -->
<g id="node14" class="node"><title>Node214</title>
<g id="a_node14"><a xlink:href="namespacekoala_1_1utils.html#a5c70ac45916995934736ab28b501c8c5" target="_top" xlink:title=" ">
<polygon fill="white" stroke="black" points="796,-76.5 796,-95.5 918,-95.5 918,-76.5 796,-76.5"/>
<text text-anchor="middle" x="857" y="-83.5" font-family="Helvetica,sans-Serif" font-size="10.00">koala.utils.split_address</text>
</a>
</g>
</g>
<!-- Node211&#45;&gt;Node214 -->
<g id="edge13" class="edge"><title>Node211&#45;&gt;Node214</title>
<path fill="none" stroke="midnightblue" d="M739.631,-86C753.948,-86 770.066,-86 785.641,-86"/>
<polygon fill="midnightblue" stroke="midnightblue" points="785.772,-89.5001 795.772,-86 785.772,-82.5001 785.772,-89.5001"/>
</g>
<!-- Node215 -->
<g id="node15" class="node"><title>Node215</title>
<g id="a_node15"><a xlink:href="namespacekoala_1_1utils.html#a65476c62402a00e3d46dbc99b6a4ea88" target="_top" xlink:title=" ">
<polygon fill="white" stroke="black" points="806.5,-38.5 806.5,-57.5 907.5,-57.5 907.5,-38.5 806.5,-38.5"/>
<text text-anchor="middle" x="857" y="-45.5" font-family="Helvetica,sans-Serif" font-size="10.00">koala.utils.col2num</text>
</a>
</g>
</g>
<!-- Node211&#45;&gt;Node215 -->
<g id="edge14" class="edge"><title>Node211&#45;&gt;Node215</title>
<path fill="none" stroke="midnightblue" d="M739.631,-75.2124C760.113,-70.4228 784.282,-64.771 805.271,-59.8628"/>
<polygon fill="midnightblue" stroke="midnightblue" points="806.349,-63.2052 815.289,-57.5201 804.755,-56.3891 806.349,-63.2052"/>
</g>
<!-- Node216 -->
<g id="node16" class="node"><title>Node216</title>
<g id="a_node16"><a xlink:href="namespacekoala_1_1utils.html#a2037076cc5a6fbf884023917a0cbfca7" target="_top" xlink:title=" ">
<polygon fill="white" stroke="black" points="806.5,-0.5 806.5,-19.5 907.5,-19.5 907.5,-0.5 806.5,-0.5"/>
<text text-anchor="middle" x="857" y="-7.5" font-family="Helvetica,sans-Serif" font-size="10.00">koala.utils.num2col</text>
</a>
</g>
</g>
<!-- Node211&#45;&gt;Node216 -->
<g id="edge15" class="edge"><title>Node211&#45;&gt;Node216</title>
<path fill="none" stroke="midnightblue" d="M717.242,-70.9953C737.584,-58.5839 767.954,-41.093 796,-29 801.079,-26.8098 806.496,-24.7429 811.919,-22.836"/>
<polygon fill="midnightblue" stroke="midnightblue" points="813.245,-26.0829 821.613,-19.5846 811.019,-19.4463 813.245,-26.0829"/>
</g>
</g>
</svg>
