<?xml version="1.0" encoding="UTF-8" standalone="no"?>
<!DOCTYPE svg PUBLIC "-//W3C//DTD SVG 1.1//EN"
 "http://www.w3.org/Graphics/SVG/1.1/DTD/svg11.dtd">
<!-- Generated by graphviz version 2.38.0 (20140413.2041)
 -->
<!-- Title: koala.tokenizer.f_tokens.EOF Pages: 1 -->
<svg width="538pt" height="78pt"
 viewBox="0.00 0.00 538.00 77.50" xmlns="http://www.w3.org/2000/svg" xmlns:xlink="http://www.w3.org/1999/xlink">
<g id="graph0" class="graph" transform="scale(1 1) rotate(0) translate(4 73.5)">
<title>koala.tokenizer.f_tokens.EOF</title>
<polygon fill="white" stroke="none" points="-4,4 -4,-73.5 534,-73.5 534,4 -4,4"/>
<!-- Node22 -->
<g id="node1" class="node"><title>Node22</title>
<g id="a_node1"><a xlink:title=" ">
<polygon fill="#bfbfbf" stroke="black" points="384,-28 384,-47 530,-47 530,-28 384,-28"/>
<text text-anchor="middle" x="457" y="-35" font-family="Helvetica,sans-Serif" font-size="10.00">koala.tokenizer.f_tokens.EOF</text>
</a>
</g>
</g>
<!-- Node23 -->
<g id="node2" class="node"><title>Node23</title>
<g id="a_node2"><a xlink:href="classkoala_1_1tokenizer_1_1f__tokens.html#a6e37705a95fc75bad0b35a1502b94a40" target="_top" xlink:title=" ">
<polygon fill="white" stroke="black" points="180,-50 180,-69 348,-69 348,-50 180,-50"/>
<text text-anchor="middle" x="264" y="-57" font-family="Helvetica,sans-Serif" font-size="10.00">koala.tokenizer.f_tokens.moveNext</text>
</a>
</g>
</g>
<!-- Node22&#45;&gt;Node23 -->
<g id="edge1" class="edge"><title>Node22&#45;&gt;Node23</title>
<path fill="none" stroke="midnightblue" d="M373.705,-46.979C365.04,-47.977 356.228,-48.9921 347.56,-49.9904"/>
<polygon fill="midnightblue" stroke="midnightblue" points="374.257,-50.4386 383.791,-45.8173 373.456,-43.4846 374.257,-50.4386"/>
</g>
<!-- Node24 -->
<g id="node3" class="node"><title>Node24</title>
<g id="a_node3"><a xlink:href="classkoala_1_1tokenizer_1_1f__tokens.html#a416ea64c9146f7aece7c225e9d6aa3f9" target="_top" xlink:title=" ">
<polygon fill="white" stroke="black" points="201.5,-0.5 201.5,-30.5 326.5,-30.5 326.5,-0.5 201.5,-0.5"/>
<text text-anchor="start" x="209.5" y="-18.5" font-family="Helvetica,sans-Serif" font-size="10.00">koala.tokenizer.f_tokens.</text>
<text text-anchor="middle" x="264" y="-7.5" font-family="Helvetica,sans-Serif" font-size="10.00">__next__</text>
</a>
</g>
</g>
<!-- Node22&#45;&gt;Node24 -->
<g id="edge2" class="edge"><title>Node22&#45;&gt;Node24</title>
<path fill="none" stroke="midnightblue" d="M373.549,-28.003C357.829,-26.1924 341.629,-24.3264 326.695,-22.6062"/>
<polygon fill="midnightblue" stroke="midnightblue" points="373.456,-31.5154 383.791,-29.1827 374.257,-24.5614 373.456,-31.5154"/>
</g>
<!-- Node25 -->
<g id="node4" class="node"><title>Node25</title>
<g id="a_node4"><a xlink:href="classkoala_1_1tokenizer_1_1f__tokens.html#a3f4c8df9019172e2e2a9967f3fa19e6d" target="_top" xlink:title=" ">
<polygon fill="white" stroke="black" points="0,-6 0,-25 144,-25 144,-6 0,-6"/>
<text text-anchor="middle" x="72" y="-13" font-family="Helvetica,sans-Serif" font-size="10.00">koala.tokenizer.f_tokens.next</text>
</a>
</g>
</g>
<!-- Node24&#45;&gt;Node25 -->
<g id="edge3" class="edge"><title>Node24&#45;&gt;Node25</title>
<path fill="none" stroke="midnightblue" d="M190.897,-15.5C175.628,-15.5 159.519,-15.5 144.281,-15.5"/>
<polygon fill="midnightblue" stroke="midnightblue" points="191.312,-19.0001 201.312,-15.5 191.312,-12.0001 191.312,-19.0001"/>
</g>
</g>
</svg>
