<?xml version="1.0" encoding="UTF-8" standalone="no"?>
<!DOCTYPE svg PUBLIC "-//W3C//DTD SVG 1.1//EN"
 "http://www.w3.org/Graphics/SVG/1.1/DTD/svg11.dtd">
<!-- Generated by graphviz version 2.38.0 (20140413.2041)
 -->
<!-- Title: koala.Spreadsheet.Spreadsheet.evaluate Pages: 1 -->
<svg width="698pt" height="39pt"
 viewBox="0.00 0.00 698.00 39.00" xmlns="http://www.w3.org/2000/svg" xmlns:xlink="http://www.w3.org/1999/xlink">
<g id="graph0" class="graph" transform="scale(1 1) rotate(0) translate(4 35)">
<title>koala.Spreadsheet.Spreadsheet.evaluate</title>
<polygon fill="white" stroke="none" points="-4,4 -4,-35 694,-35 694,4 -4,4"/>
<!-- Node189 -->
<g id="node1" class="node"><title>Node189</title>
<g id="a_node1"><a xlink:title=" ">
<polygon fill="#bfbfbf" stroke="black" points="0,-6 0,-25 194,-25 194,-6 0,-6"/>
<text text-anchor="middle" x="97" y="-13" font-family="Helvetica,sans-Serif" font-size="10.00">koala.Spreadsheet.Spreadsheet.evaluate</text>
</a>
</g>
</g>
<!-- Node190 -->
<g id="node2" class="node"><title>Node190</title>
<g id="a_node2"><a xlink:href="classkoala_1_1_spreadsheet_1_1_spreadsheet.html#a8e83a93df65a29d4748b427cb4d77bb2" target="_top" xlink:title=" ">
<polygon fill="white" stroke="black" points="230,-0.5 230,-30.5 403,-30.5 403,-0.5 230,-0.5"/>
<text text-anchor="start" x="238" y="-18.5" font-family="Helvetica,sans-Serif" font-size="10.00">koala.Spreadsheet.Spreadsheet.cell</text>
<text text-anchor="middle" x="316.5" y="-7.5" font-family="Helvetica,sans-Serif" font-size="10.00">_evaluate</text>
</a>
</g>
</g>
<!-- Node189&#45;&gt;Node190 -->
<g id="edge1" class="edge"><title>Node189&#45;&gt;Node190</title>
<path fill="none" stroke="midnightblue" d="M194.032,-8.7912C202.62,-8.73533 211.316,-8.73628 219.9,-8.79406"/>
<polygon fill="midnightblue" stroke="midnightblue" points="219.881,-12.2939 229.914,-8.88798 219.947,-5.29424 219.881,-12.2939"/>
</g>
<!-- Node190&#45;&gt;Node189 -->
<g id="edge2" class="edge"><title>Node190&#45;&gt;Node189</title>
<path fill="none" stroke="midnightblue" d="M229.914,-22.112C221.449,-22.2143 212.789,-22.2597 204.15,-22.2483"/>
<polygon fill="midnightblue" stroke="midnightblue" points="204.045,-18.7479 194.032,-22.2088 204.018,-25.7479 204.045,-18.7479"/>
</g>
<!-- Node191 -->
<g id="node3" class="node"><title>Node191</title>
<g id="a_node3"><a xlink:href="namespacekoala_1_1utils.html#a1585473b2fb474970dbc49794309a0e6" target="_top" xlink:title=" ">
<polygon fill="white" stroke="black" points="439,-0.5 439,-30.5 545,-30.5 545,-0.5 439,-0.5"/>
<text text-anchor="start" x="447" y="-18.5" font-family="Helvetica,sans-Serif" font-size="10.00">koala.utils.is_almost</text>
<text text-anchor="middle" x="492" y="-7.5" font-family="Helvetica,sans-Serif" font-size="10.00">_equal</text>
</a>
</g>
</g>
<!-- Node190&#45;&gt;Node191 -->
<g id="edge3" class="edge"><title>Node190&#45;&gt;Node191</title>
<path fill="none" stroke="midnightblue" d="M403.233,-15.5C411.757,-15.5 420.295,-15.5 428.515,-15.5"/>
<polygon fill="midnightblue" stroke="midnightblue" points="428.735,-19.0001 438.735,-15.5 428.735,-12.0001 428.735,-19.0001"/>
</g>
<!-- Node192 -->
<g id="node4" class="node"><title>Node192</title>
<g id="a_node4"><a xlink:href="namespacekoala_1_1utils.html#af016160edea2b46cb26db3ed307c9648" target="_top" xlink:title=" ">
<polygon fill="white" stroke="black" points="581,-6 581,-25 690,-25 690,-6 581,-6"/>
<text text-anchor="middle" x="635.5" y="-13" font-family="Helvetica,sans-Serif" font-size="10.00">koala.utils.is_number</text>
</a>
</g>
</g>
<!-- Node191&#45;&gt;Node192 -->
<g id="edge4" class="edge"><title>Node191&#45;&gt;Node192</title>
<path fill="none" stroke="midnightblue" d="M545.287,-15.5C553.459,-15.5 561.984,-15.5 570.383,-15.5"/>
<polygon fill="midnightblue" stroke="midnightblue" points="570.533,-19.0001 580.533,-15.5 570.533,-12.0001 570.533,-19.0001"/>
</g>
</g>
</svg>
