<?xml version="1.0" encoding="UTF-8" standalone="no"?>
<!DOCTYPE svg PUBLIC "-//W3C//DTD SVG 1.1//EN"
 "http://www.w3.org/Graphics/SVG/1.1/DTD/svg11.dtd">
<!-- Generated by graphviz version 2.38.0 (20140413.2041)
 -->
<!-- Title: koala.Range.RangeCore.is_inferior_or_equal Pages: 1 -->
<svg width="448pt" height="78pt"
 viewBox="0.00 0.00 448.00 77.50" xmlns="http://www.w3.org/2000/svg" xmlns:xlink="http://www.w3.org/1999/xlink">
<g id="graph0" class="graph" transform="scale(1 1) rotate(0) translate(4 73.5)">
<title>koala.Range.RangeCore.is_inferior_or_equal</title>
<polygon fill="white" stroke="none" points="-4,4 -4,-73.5 444,-73.5 444,4 -4,4"/>
<!-- Node66 -->
<g id="node1" class="node"><title>Node66</title>
<g id="a_node1"><a xlink:title=" ">
<polygon fill="#bfbfbf" stroke="black" points="0,-22.5 0,-52.5 132,-52.5 132,-22.5 0,-22.5"/>
<text text-anchor="start" x="8" y="-40.5" font-family="Helvetica,sans-Serif" font-size="10.00">koala.Range.RangeCore.is</text>
<text text-anchor="middle" x="66" y="-29.5" font-family="Helvetica,sans-Serif" font-size="10.00">_inferior_or_equal</text>
</a>
</g>
</g>
<!-- Node67 -->
<g id="node2" class="node"><title>Node67</title>
<g id="a_node2"><a xlink:href="namespacekoala_1_1_range.html#aa99855dc7e7d8117eaa831a081e1a6f9" target="_top" xlink:title=" ">
<polygon fill="white" stroke="black" points="168,-50 168,-69 295,-69 295,-50 168,-50"/>
<text text-anchor="middle" x="231.5" y="-57" font-family="Helvetica,sans-Serif" font-size="10.00">koala.Range.check_value</text>
</a>
</g>
</g>
<!-- Node66&#45;&gt;Node67 -->
<g id="edge1" class="edge"><title>Node66&#45;&gt;Node67</title>
<path fill="none" stroke="midnightblue" d="M132.089,-46.2582C140.538,-47.395 149.235,-48.5653 157.798,-49.7174"/>
<polygon fill="midnightblue" stroke="midnightblue" points="157.388,-53.1937 167.765,-51.0586 158.321,-46.2562 157.388,-53.1937"/>
</g>
<!-- Node68 -->
<g id="node3" class="node"><title>Node68</title>
<g id="a_node3"><a xlink:href="namespacekoala_1_1utils.html#a1585473b2fb474970dbc49794309a0e6" target="_top" xlink:title=" ">
<polygon fill="white" stroke="black" points="178.5,-0.5 178.5,-30.5 284.5,-30.5 284.5,-0.5 178.5,-0.5"/>
<text text-anchor="start" x="186.5" y="-18.5" font-family="Helvetica,sans-Serif" font-size="10.00">koala.utils.is_almost</text>
<text text-anchor="middle" x="231.5" y="-7.5" font-family="Helvetica,sans-Serif" font-size="10.00">_equal</text>
</a>
</g>
</g>
<!-- Node66&#45;&gt;Node68 -->
<g id="edge2" class="edge"><title>Node66&#45;&gt;Node68</title>
<path fill="none" stroke="midnightblue" d="M132.089,-28.7418C144.005,-27.1385 156.414,-25.4688 168.244,-23.8769"/>
<polygon fill="midnightblue" stroke="midnightblue" points="169.021,-27.3041 178.465,-22.5017 168.087,-20.3666 169.021,-27.3041"/>
</g>
<!-- Node69 -->
<g id="node4" class="node"><title>Node69</title>
<g id="a_node4"><a xlink:href="namespacekoala_1_1utils.html#af016160edea2b46cb26db3ed307c9648" target="_top" xlink:title=" ">
<polygon fill="white" stroke="black" points="331,-6 331,-25 440,-25 440,-6 331,-6"/>
<text text-anchor="middle" x="385.5" y="-13" font-family="Helvetica,sans-Serif" font-size="10.00">koala.utils.is_number</text>
</a>
</g>
</g>
<!-- Node68&#45;&gt;Node69 -->
<g id="edge3" class="edge"><title>Node68&#45;&gt;Node69</title>
<path fill="none" stroke="midnightblue" d="M284.81,-15.5C296.3,-15.5 308.594,-15.5 320.485,-15.5"/>
<polygon fill="midnightblue" stroke="midnightblue" points="320.802,-19.0001 330.802,-15.5 320.802,-12.0001 320.802,-19.0001"/>
</g>
</g>
</svg>
