<?xml version="1.0" encoding="UTF-8" standalone="no"?>
<!DOCTYPE svg PUBLIC "-//W3C//DTD SVG 1.1//EN"
 "http://www.w3.org/Graphics/SVG/1.1/DTD/svg11.dtd">
<!-- Generated by graphviz version 2.38.0 (20140413.2041)
 -->
<!-- Title: koala.Spreadsheet.Spreadsheet.gen_graph Pages: 1 -->
<svg width="874pt" height="383pt"
 viewBox="0.00 0.00 874.00 383.49" xmlns="http://www.w3.org/2000/svg" xmlns:xlink="http://www.w3.org/1999/xlink">
<g id="graph0" class="graph" transform="scale(1 1) rotate(0) translate(4 379.49)">
<title>koala.Spreadsheet.Spreadsheet.gen_graph</title>
<polygon fill="white" stroke="none" points="-4,4 -4,-379.49 870,-379.49 870,4 -4,4"/>
<!-- Node238 -->
<g id="node1" class="node"><title>Node238</title>
<g id="a_node1"><a xlink:title=" ">
<polygon fill="#bfbfbf" stroke="black" points="0,-185 0,-215 174,-215 174,-185 0,-185"/>
<text text-anchor="start" x="8" y="-203" font-family="Helvetica,sans-Serif" font-size="10.00">koala.Spreadsheet.Spreadsheet.gen</text>
<text text-anchor="middle" x="87" y="-192" font-family="Helvetica,sans-Serif" font-size="10.00">_graph</text>
</a>
</g>
</g>
<!-- Node239 -->
<g id="node2" class="node"><title>Node239</title>
<g id="a_node2"><a xlink:href="namespacekoala_1_1utils.html#aabb45efe6343cf3795888c77a434d47d" target="_top" xlink:title=" ">
<polygon fill="white" stroke="black" points="611,-354.5 611,-373.5 701,-373.5 701,-354.5 611,-354.5"/>
<text text-anchor="middle" x="656" y="-361.5" font-family="Helvetica,sans-Serif" font-size="10.00">koala.utils.flatten</text>
</a>
</g>
</g>
<!-- Node238&#45;&gt;Node239 -->
<g id="edge1" class="edge"><title>Node238&#45;&gt;Node239</title>
<path fill="none" stroke="midnightblue" d="M99.301,-215.134C118.907,-240.241 161.775,-290.282 210,-316 336.96,-383.706 513.073,-378.58 600.809,-370.559"/>
<polygon fill="midnightblue" stroke="midnightblue" points="601.188,-374.039 610.806,-369.597 600.517,-367.071 601.188,-374.039"/>
</g>
<!-- Node240 -->
<g id="node3" class="node"><title>Node240</title>
<g id="a_node3"><a xlink:href="namespacekoala_1_1utils.html#a152ac1827f4fdbd036d6e67cdf3acebb" target="_top" xlink:title=" ">
<polygon fill="white" stroke="black" points="605.5,-304.5 605.5,-323.5 706.5,-323.5 706.5,-304.5 605.5,-304.5"/>
<text text-anchor="middle" x="656" y="-311.5" font-family="Helvetica,sans-Serif" font-size="10.00">koala.utils.is_range</text>
</a>
</g>
</g>
<!-- Node238&#45;&gt;Node240 -->
<g id="edge2" class="edge"><title>Node238&#45;&gt;Node240</title>
<path fill="none" stroke="midnightblue" d="M113.036,-215.038C167.436,-246.73 301.482,-319.555 425,-345 483.331,-357.016 500.169,-354.263 559,-345 580.851,-341.559 604.508,-333.968 622.871,-327.159"/>
<polygon fill="midnightblue" stroke="midnightblue" points="624.122,-330.428 632.217,-323.593 621.626,-323.888 624.122,-330.428"/>
</g>
<!-- Node241 -->
<g id="node4" class="node"><title>Node241</title>
<g id="a_node4"><a xlink:href="namespacekoala_1_1ast.html#a3d0179539d74f2668d3917bf28d2edd8" target="_top" xlink:title=" ">
<polygon fill="white" stroke="black" points="429,-38.5 429,-57.5 555,-57.5 555,-38.5 429,-38.5"/>
<text text-anchor="middle" x="492" y="-45.5" font-family="Helvetica,sans-Serif" font-size="10.00">koala.ast.prepare_pointer</text>
</a>
</g>
</g>
<!-- Node238&#45;&gt;Node241 -->
<g id="edge3" class="edge"><title>Node238&#45;&gt;Node241</title>
<path fill="none" stroke="midnightblue" d="M123.006,-184.899C183.785,-158.971 313.059,-105.105 425,-67 431.598,-64.7541 438.624,-62.5432 445.538,-60.4684"/>
<polygon fill="midnightblue" stroke="midnightblue" points="446.916,-63.7118 455.526,-57.5379 444.945,-56.995 446.916,-63.7118"/>
</g>
<!-- Node246 -->
<g id="node9" class="node"><title>Node246</title>
<g id="a_node9"><a xlink:href="namespacekoala_1_1ast.html#aa55446c8aa764f09775f006ee775ec7b" target="_top" xlink:title=" ">
<polygon fill="white" stroke="black" points="246,-185 246,-215 353,-215 353,-185 246,-185"/>
<text text-anchor="start" x="254" y="-203" font-family="Helvetica,sans-Serif" font-size="10.00">koala.ast.graph_from</text>
<text text-anchor="middle" x="299.5" y="-192" font-family="Helvetica,sans-Serif" font-size="10.00">_seeds</text>
</a>
</g>
</g>
<!-- Node238&#45;&gt;Node246 -->
<g id="edge8" class="edge"><title>Node238&#45;&gt;Node246</title>
<path fill="none" stroke="midnightblue" d="M174.226,-200C194.822,-200 216.423,-200 235.732,-200"/>
<polygon fill="midnightblue" stroke="midnightblue" points="235.902,-203.5 245.902,-200 235.902,-196.5 235.902,-203.5"/>
</g>
<!-- Node255 -->
<g id="node18" class="node"><title>Node255</title>
<g id="a_node18"><a xlink:href="classkoala_1_1_spreadsheet_1_1_spreadsheet.html#ac1318faf81bbc9c0a16d184e534d346f" target="_top" xlink:title=" ">
<polygon fill="white" stroke="black" points="210,-21 210,-51 389,-51 389,-21 210,-21"/>
<text text-anchor="start" x="218" y="-39" font-family="Helvetica,sans-Serif" font-size="10.00">koala.Spreadsheet.Spreadsheet.build</text>
<text text-anchor="middle" x="299.5" y="-28" font-family="Helvetica,sans-Serif" font-size="10.00">_spreadsheet</text>
</a>
</g>
</g>
<!-- Node238&#45;&gt;Node255 -->
<g id="edge28" class="edge"><title>Node238&#45;&gt;Node255</title>
<path fill="none" stroke="midnightblue" d="M107.426,-184.865C145.021,-155.575 227.819,-91.0672 271.031,-57.4007"/>
<polygon fill="midnightblue" stroke="midnightblue" points="273.384,-60.0051 279.121,-51.0982 269.081,-54.4831 273.384,-60.0051"/>
</g>
<!-- Node242 -->
<g id="node5" class="node"><title>Node242</title>
<g id="a_node5"><a xlink:href="namespacekoala_1_1_range.html#a6a4a2138705cb8cc069ddf925e74d2c1" target="_top" xlink:title=" ">
<polygon fill="white" stroke="black" points="597,-90 597,-120 715,-120 715,-90 597,-90"/>
<text text-anchor="start" x="605" y="-108" font-family="Helvetica,sans-Serif" font-size="10.00">koala.Range.parse_cell</text>
<text text-anchor="middle" x="656" y="-97" font-family="Helvetica,sans-Serif" font-size="10.00">_address</text>
</a>
</g>
</g>
<!-- Node241&#45;&gt;Node242 -->
<g id="edge4" class="edge"><title>Node241&#45;&gt;Node242</title>
<path fill="none" stroke="midnightblue" d="M528.476,-57.5314C538.414,-60.3855 549.181,-63.6522 559,-67 575.719,-72.7007 593.792,-79.6435 609.699,-86.0273"/>
<polygon fill="midnightblue" stroke="midnightblue" points="608.709,-89.4027 619.292,-89.9139 611.338,-82.9149 608.709,-89.4027"/>
</g>
<!-- Node243 -->
<g id="node6" class="node"><title>Node243</title>
<g id="a_node6"><a xlink:href="namespacekoala_1_1ast.html#a76e6cdc1c1338001a6d0c4ac4a038087" target="_top" xlink:title=" ">
<polygon fill="white" stroke="black" points="596,-51.5 596,-70.5 716,-70.5 716,-51.5 596,-51.5"/>
<text text-anchor="middle" x="656" y="-58.5" font-family="Helvetica,sans-Serif" font-size="10.00">koala.ast.shunting_yard</text>
</a>
</g>
</g>
<!-- Node241&#45;&gt;Node243 -->
<g id="edge5" class="edge"><title>Node241&#45;&gt;Node243</title>
<path fill="none" stroke="midnightblue" d="M555.17,-52.989C565.208,-53.7945 575.655,-54.6328 585.846,-55.4506"/>
<polygon fill="midnightblue" stroke="midnightblue" points="585.679,-58.9484 595.927,-56.2596 586.239,-51.9708 585.679,-58.9484"/>
</g>
<!-- Node245 -->
<g id="node8" class="node"><title>Node245</title>
<g id="a_node8"><a xlink:href="namespacekoala_1_1ast.html#a36277633c59487f9b1c1b256df41e942" target="_top" xlink:title=" ">
<polygon fill="white" stroke="black" points="607,-13.5 607,-32.5 705,-32.5 705,-13.5 607,-13.5"/>
<text text-anchor="middle" x="656" y="-20.5" font-family="Helvetica,sans-Serif" font-size="10.00">koala.ast.build_ast</text>
</a>
</g>
</g>
<!-- Node241&#45;&gt;Node245 -->
<g id="edge7" class="edge"><title>Node241&#45;&gt;Node245</title>
<path fill="none" stroke="midnightblue" d="M554.707,-38.4773C568.459,-36.355 582.999,-34.1113 596.612,-32.0104"/>
<polygon fill="midnightblue" stroke="midnightblue" points="597.464,-35.4205 606.814,-30.4362 596.397,-28.5024 597.464,-35.4205"/>
</g>
<!-- Node244 -->
<g id="node7" class="node"><title>Node244</title>
<g id="a_node7"><a xlink:href="namespacekoala_1_1ast.html#a39876c353cfbf071723ede9b5a59eda4" target="_top" xlink:title=" ">
<polygon fill="white" stroke="black" points="753,-51.5 753,-70.5 866,-70.5 866,-51.5 753,-51.5"/>
<text text-anchor="middle" x="809.5" y="-58.5" font-family="Helvetica,sans-Serif" font-size="10.00">koala.ast.create_node</text>
</a>
</g>
</g>
<!-- Node243&#45;&gt;Node244 -->
<g id="edge6" class="edge"><title>Node243&#45;&gt;Node244</title>
<path fill="none" stroke="midnightblue" d="M716.008,-61C724.726,-61 733.756,-61 742.604,-61"/>
<polygon fill="midnightblue" stroke="midnightblue" points="742.877,-64.5001 752.877,-61 742.877,-57.5001 742.877,-64.5001"/>
</g>
<!-- Node246&#45;&gt;Node239 -->
<g id="edge27" class="edge"><title>Node246&#45;&gt;Node239</title>
<path fill="none" stroke="midnightblue" d="M308.265,-215.29C324.868,-246.147 367.074,-315.439 425,-345 479.975,-373.055 552.068,-374.226 600.773,-370.709"/>
<polygon fill="midnightblue" stroke="midnightblue" points="601.112,-374.193 610.796,-369.896 600.546,-367.216 601.112,-374.193"/>
</g>
<!-- Node246&#45;&gt;Node240 -->
<g id="edge14" class="edge"><title>Node246&#45;&gt;Node240</title>
<path fill="none" stroke="midnightblue" d="M323.364,-215.258C347.606,-230.759 387.502,-254.37 425,-268 480.978,-288.348 548.073,-300.461 595.307,-307.106"/>
<polygon fill="midnightblue" stroke="midnightblue" points="594.989,-310.595 605.371,-308.482 595.937,-303.66 594.989,-310.595"/>
</g>
<!-- Node246&#45;&gt;Node241 -->
<g id="edge15" class="edge"><title>Node246&#45;&gt;Node241</title>
<path fill="none" stroke="midnightblue" d="M334.545,-184.846C352.578,-175.457 374.029,-161.947 389,-145 414.278,-116.386 396.029,-91.8686 425,-67 426.979,-65.3011 429.102,-63.7538 431.329,-62.3447"/>
<polygon fill="midnightblue" stroke="midnightblue" points="433.157,-65.3375 440.357,-57.5654 429.882,-59.1509 433.157,-65.3375"/>
</g>
<!-- Node247 -->
<g id="node10" class="node"><title>Node247</title>
<g id="a_node10"><a xlink:href="namespacekoala_1_1ast.html#abb76e7037309a032effde5e5078a86e2" target="_top" xlink:title=" ">
<polygon fill="white" stroke="black" points="441.5,-76.5 441.5,-95.5 542.5,-95.5 542.5,-76.5 441.5,-76.5"/>
<text text-anchor="middle" x="492" y="-83.5" font-family="Helvetica,sans-Serif" font-size="10.00">koala.ast.cell2code</text>
</a>
</g>
</g>
<!-- Node246&#45;&gt;Node247 -->
<g id="edge9" class="edge"><title>Node246&#45;&gt;Node247</title>
<path fill="none" stroke="midnightblue" d="M329.382,-184.807C347.385,-174.687 370.552,-160.445 389,-145 407.339,-129.646 404.725,-117.687 425,-105 428.372,-102.89 431.986,-101.007 435.721,-99.3285"/>
<polygon fill="midnightblue" stroke="midnightblue" points="437.191,-102.511 445.189,-95.5619 434.603,-96.0065 437.191,-102.511"/>
</g>
<!-- Node248 -->
<g id="node11" class="node"><title>Node248</title>
<g id="a_node11"><a xlink:href="namespacekoala_1_1utils.html#ac7f70de24f29847f700db5eb4cad018c" target="_top" xlink:title=" ">
<polygon fill="white" stroke="black" points="441,-316.5 441,-335.5 543,-335.5 543,-316.5 441,-316.5"/>
<text text-anchor="middle" x="492" y="-323.5" font-family="Helvetica,sans-Serif" font-size="10.00">koala.utils.uniqueify</text>
</a>
</g>
</g>
<!-- Node246&#45;&gt;Node248 -->
<g id="edge13" class="edge"><title>Node246&#45;&gt;Node248</title>
<path fill="none" stroke="midnightblue" d="M315.347,-215.052C337.497,-236.797 381.292,-277.115 425,-302 432.307,-306.16 440.466,-309.82 448.489,-312.948"/>
<polygon fill="midnightblue" stroke="midnightblue" points="447.547,-316.331 458.14,-316.498 449.963,-309.761 447.547,-316.331"/>
</g>
<!-- Node249 -->
<g id="node12" class="node"><title>Node249</title>
<g id="a_node12"><a xlink:href="namespacekoala_1_1utils.html#a1d3620df245d23fea05928298cabc2ac" target="_top" xlink:title=" ">
<polygon fill="white" stroke="black" points="445,-229 445,-259 539,-259 539,-229 445,-229"/>
<text text-anchor="start" x="453" y="-247" font-family="Helvetica,sans-Serif" font-size="10.00">koala.utils.resolve</text>
<text text-anchor="middle" x="492" y="-236" font-family="Helvetica,sans-Serif" font-size="10.00">_range</text>
</a>
</g>
</g>
<!-- Node246&#45;&gt;Node249 -->
<g id="edge16" class="edge"><title>Node246&#45;&gt;Node249</title>
<path fill="none" stroke="midnightblue" d="M353.059,-212.14C378.435,-218.001 408.907,-225.039 434.75,-231.008"/>
<polygon fill="midnightblue" stroke="midnightblue" points="434.243,-234.483 444.774,-233.323 435.818,-227.662 434.243,-234.483"/>
</g>
<!-- Node251 -->
<g id="node14" class="node"><title>Node251</title>
<g id="a_node14"><a xlink:href="namespacekoala_1_1utils.html#a5c70ac45916995934736ab28b501c8c5" target="_top" xlink:title=" ">
<polygon fill="white" stroke="black" points="595,-190.5 595,-209.5 717,-209.5 717,-190.5 595,-190.5"/>
<text text-anchor="middle" x="656" y="-197.5" font-family="Helvetica,sans-Serif" font-size="10.00">koala.utils.split_address</text>
</a>
</g>
</g>
<!-- Node246&#45;&gt;Node251 -->
<g id="edge23" class="edge"><title>Node246&#45;&gt;Node251</title>
<path fill="none" stroke="midnightblue" d="M353.189,-200C414.648,-200 516.506,-200 584.674,-200"/>
<polygon fill="midnightblue" stroke="midnightblue" points="584.896,-203.5 594.896,-200 584.896,-196.5 584.896,-203.5"/>
</g>
<!-- Node252 -->
<g id="node15" class="node"><title>Node252</title>
<g id="a_node15"><a xlink:href="namespacekoala_1_1utils.html#a65476c62402a00e3d46dbc99b6a4ea88" target="_top" xlink:title=" ">
<polygon fill="white" stroke="black" points="605.5,-152.5 605.5,-171.5 706.5,-171.5 706.5,-152.5 605.5,-152.5"/>
<text text-anchor="middle" x="656" y="-159.5" font-family="Helvetica,sans-Serif" font-size="10.00">koala.utils.col2num</text>
</a>
</g>
</g>
<!-- Node246&#45;&gt;Node252 -->
<g id="edge26" class="edge"><title>Node246&#45;&gt;Node252</title>
<path fill="none" stroke="midnightblue" d="M353.189,-194.352C417.95,-187.41 527.569,-175.66 595.359,-168.393"/>
<polygon fill="midnightblue" stroke="midnightblue" points="595.887,-171.857 605.457,-167.311 595.141,-164.897 595.887,-171.857"/>
</g>
<!-- Node254 -->
<g id="node17" class="node"><title>Node254</title>
<g id="a_node17"><a xlink:href="namespacekoala_1_1utils.html#a71673869f44a8e5ee678759d1c099ada" target="_top" xlink:title=" ">
<polygon fill="white" stroke="black" points="426,-114.5 426,-133.5 558,-133.5 558,-114.5 426,-114.5"/>
<text text-anchor="middle" x="492" y="-121.5" font-family="Helvetica,sans-Serif" font-size="10.00">koala.utils.max_dimension</text>
</a>
</g>
</g>
<!-- Node246&#45;&gt;Node254 -->
<g id="edge24" class="edge"><title>Node246&#45;&gt;Node254</title>
<path fill="none" stroke="midnightblue" d="M335.205,-184.992C360.081,-174.36 394.452,-159.926 425,-148 434.441,-144.314 444.71,-140.492 454.273,-137.01"/>
<polygon fill="midnightblue" stroke="midnightblue" points="455.704,-140.214 463.919,-133.524 453.325,-133.631 455.704,-140.214"/>
</g>
<!-- Node247&#45;&gt;Node242 -->
<g id="edge10" class="edge"><title>Node247&#45;&gt;Node242</title>
<path fill="none" stroke="midnightblue" d="M542.927,-91.8557C556.75,-93.4769 571.997,-95.265 586.673,-96.9864"/>
<polygon fill="midnightblue" stroke="midnightblue" points="586.379,-100.476 596.719,-98.1646 587.195,-93.5235 586.379,-100.476"/>
</g>
<!-- Node247&#45;&gt;Node243 -->
<g id="edge11" class="edge"><title>Node247&#45;&gt;Node243</title>
<path fill="none" stroke="midnightblue" d="M542.927,-78.2952C556.524,-76.197 571.497,-73.8863 585.951,-71.6557"/>
<polygon fill="midnightblue" stroke="midnightblue" points="586.503,-75.1121 595.852,-70.1278 585.435,-68.194 586.503,-75.1121"/>
</g>
<!-- Node247&#45;&gt;Node245 -->
<g id="edge12" class="edge"><title>Node247&#45;&gt;Node245</title>
<path fill="none" stroke="midnightblue" d="M533.909,-76.4814C542.394,-73.8865 551.138,-70.7362 559,-67 576.594,-58.6387 577.518,-50.5926 595,-42 599.541,-39.7679 604.403,-37.7215 609.321,-35.8668"/>
<polygon fill="midnightblue" stroke="midnightblue" points="610.507,-39.1598 618.778,-32.5378 608.183,-32.557 610.507,-39.1598"/>
</g>
<!-- Node249&#45;&gt;Node239 -->
<g id="edge22" class="edge"><title>Node249&#45;&gt;Node239</title>
<path fill="none" stroke="midnightblue" d="M507.942,-259.117C527.019,-277.907 561.573,-310.27 595,-333 604.09,-339.181 614.569,-344.992 624.2,-349.876"/>
<polygon fill="midnightblue" stroke="midnightblue" points="622.948,-353.16 633.466,-354.429 626.035,-346.878 622.948,-353.16"/>
</g>
<!-- Node249&#45;&gt;Node240 -->
<g id="edge18" class="edge"><title>Node249&#45;&gt;Node240</title>
<path fill="none" stroke="midnightblue" d="M527.913,-259.073C538.042,-263.659 549.05,-268.853 559,-274 575.453,-282.51 578.067,-287.491 595,-295 599.994,-297.215 605.326,-299.289 610.674,-301.193"/>
<polygon fill="midnightblue" stroke="midnightblue" points="609.652,-304.542 620.247,-304.431 611.895,-297.911 609.652,-304.542"/>
</g>
<!-- Node250 -->
<g id="node13" class="node"><title>Node250</title>
<g id="a_node13"><a xlink:href="namespacekoala_1_1utils.html#a77ace10251dde2f09a457b7b469208cc" target="_top" xlink:title=" ">
<polygon fill="white" stroke="black" points="600.5,-266.5 600.5,-285.5 711.5,-285.5 711.5,-266.5 600.5,-266.5"/>
<text text-anchor="middle" x="656" y="-273.5" font-family="Helvetica,sans-Serif" font-size="10.00">koala.utils.split_range</text>
</a>
</g>
</g>
<!-- Node249&#45;&gt;Node250 -->
<g id="edge17" class="edge"><title>Node249&#45;&gt;Node250</title>
<path fill="none" stroke="midnightblue" d="M539.423,-253.17C557.334,-256.708 578.022,-260.795 596.902,-264.524"/>
<polygon fill="midnightblue" stroke="midnightblue" points="596.391,-267.99 606.879,-266.495 597.747,-261.123 596.391,-267.99"/>
</g>
<!-- Node249&#45;&gt;Node251 -->
<g id="edge19" class="edge"><title>Node249&#45;&gt;Node251</title>
<path fill="none" stroke="midnightblue" d="M539.423,-231.391C561.639,-225.357 588.127,-218.163 610.137,-212.185"/>
<polygon fill="midnightblue" stroke="midnightblue" points="611.17,-215.531 619.903,-209.533 609.335,-208.776 611.17,-215.531"/>
</g>
<!-- Node249&#45;&gt;Node252 -->
<g id="edge20" class="edge"><title>Node249&#45;&gt;Node252</title>
<path fill="none" stroke="midnightblue" d="M514.022,-228.867C534.066,-214.969 565.486,-194.535 595,-181 599.781,-178.807 604.886,-176.767 610.024,-174.9"/>
<polygon fill="midnightblue" stroke="midnightblue" points="611.541,-178.08 619.867,-171.528 609.273,-171.458 611.541,-178.08"/>
</g>
<!-- Node253 -->
<g id="node16" class="node"><title>Node253</title>
<g id="a_node16"><a xlink:href="namespacekoala_1_1utils.html#a2037076cc5a6fbf884023917a0cbfca7" target="_top" xlink:title=" ">
<polygon fill="white" stroke="black" points="605.5,-228.5 605.5,-247.5 706.5,-247.5 706.5,-228.5 605.5,-228.5"/>
<text text-anchor="middle" x="656" y="-235.5" font-family="Helvetica,sans-Serif" font-size="10.00">koala.utils.num2col</text>
</a>
</g>
</g>
<!-- Node249&#45;&gt;Node253 -->
<g id="edge21" class="edge"><title>Node249&#45;&gt;Node253</title>
<path fill="none" stroke="midnightblue" d="M539.423,-242.281C556.857,-241.635 576.922,-240.892 595.39,-240.208"/>
<polygon fill="midnightblue" stroke="midnightblue" points="595.595,-243.703 605.458,-239.835 595.336,-236.707 595.595,-243.703"/>
</g>
<!-- Node254&#45;&gt;Node252 -->
<g id="edge25" class="edge"><title>Node254&#45;&gt;Node252</title>
<path fill="none" stroke="midnightblue" d="M533.879,-133.589C555.353,-138.626 581.86,-144.844 604.597,-150.177"/>
<polygon fill="midnightblue" stroke="midnightblue" points="603.879,-153.604 614.415,-152.48 605.478,-146.789 603.879,-153.604"/>
</g>
<!-- Node256 -->
<g id="node19" class="node"><title>Node256</title>
<g id="a_node19"><a xlink:href="namespacekoala_1_1_range.html#a1b931a910d6cf77a91b3a9bb8b8e5258" target="_top" xlink:title=" ">
<polygon fill="white" stroke="black" points="425,-0.5 425,-19.5 559,-19.5 559,-0.5 425,-0.5"/>
<text text-anchor="middle" x="492" y="-7.5" font-family="Helvetica,sans-Serif" font-size="10.00">koala.Range.RangeFactory</text>
</a>
</g>
</g>
<!-- Node255&#45;&gt;Node256 -->
<g id="edge29" class="edge"><title>Node255&#45;&gt;Node256</title>
<path fill="none" stroke="midnightblue" d="M389.058,-23.9134C397.623,-22.7443 406.261,-21.5654 414.693,-20.4146"/>
<polygon fill="midnightblue" stroke="midnightblue" points="415.422,-23.8476 424.857,-19.0274 414.475,-16.9119 415.422,-23.8476"/>
</g>
</g>
</svg>
