<?xml version="1.0" encoding="UTF-8" standalone="no"?>
<!DOCTYPE svg PUBLIC "-//W3C//DTD SVG 1.1//EN"
 "http://www.w3.org/Graphics/SVG/1.1/DTD/svg11.dtd">
<!-- Generated by graphviz version 2.38.0 (20140413.2041)
 -->
<!-- Title: koala.Cell.Cell.range Pages: 1 -->
<svg width="266pt" height="66pt"
 viewBox="0.00 0.00 266.00 66.00" xmlns="http://www.w3.org/2000/svg" xmlns:xlink="http://www.w3.org/1999/xlink">
<g id="graph0" class="graph" transform="scale(1 1) rotate(0) translate(4 62)">
<title>koala.Cell.Cell.range</title>
<polygon fill="white" stroke="none" points="-4,4 -4,-62 262,-62 262,4 -4,4"/>
<!-- Node84 -->
<g id="node1" class="node"><title>Node84</title>
<g id="a_node1"><a xlink:title=" ">
<polygon fill="#bfbfbf" stroke="black" points="0,-19.5 0,-38.5 106,-38.5 106,-19.5 0,-19.5"/>
<text text-anchor="middle" x="53" y="-26.5" font-family="Helvetica,sans-Serif" font-size="10.00">koala.Cell.Cell.range</text>
</a>
</g>
</g>
<!-- Node85 -->
<g id="node2" class="node"><title>Node85</title>
<g id="a_node2"><a xlink:href="classkoala_1_1_cell_1_1_cell.html#a10652b432fa62181fe40466e2ddeb5e2" target="_top" xlink:title=" ">
<polygon fill="white" stroke="black" points="147,-38.5 147,-57.5 253,-57.5 253,-38.5 147,-38.5"/>
<text text-anchor="middle" x="200" y="-45.5" font-family="Helvetica,sans-Serif" font-size="10.00">koala.Cell.Cell.range</text>
</a>
</g>
</g>
<!-- Node84&#45;&gt;Node85 -->
<g id="edge1" class="edge"><title>Node84&#45;&gt;Node85</title>
<path fill="none" stroke="midnightblue" d="M106.348,-35.8594C116.204,-37.1509 126.6,-38.5131 136.725,-39.8398"/>
<polygon fill="midnightblue" stroke="midnightblue" points="136.359,-43.3216 146.729,-41.1506 137.268,-36.381 136.359,-43.3216"/>
</g>
<!-- Node86 -->
<g id="node3" class="node"><title>Node86</title>
<g id="a_node3"><a xlink:href="classkoala_1_1_cell_1_1_cell.html#a8612ef40e31a05ab02d6a1d9280ac446" target="_top" xlink:title=" ">
<polygon fill="white" stroke="black" points="142,-0.5 142,-19.5 258,-19.5 258,-0.5 142,-0.5"/>
<text text-anchor="middle" x="200" y="-7.5" font-family="Helvetica,sans-Serif" font-size="10.00">koala.Cell.Cell.address</text>
</a>
</g>
</g>
<!-- Node84&#45;&gt;Node86 -->
<g id="edge2" class="edge"><title>Node84&#45;&gt;Node86</title>
<path fill="none" stroke="midnightblue" d="M106.348,-22.1406C114.628,-21.0557 123.288,-19.9209 131.848,-18.7992"/>
<polygon fill="midnightblue" stroke="midnightblue" points="132.362,-22.2619 141.822,-17.4923 131.452,-15.3212 132.362,-22.2619"/>
</g>
</g>
</svg>
