<?xml version="1.0" encoding="UTF-8" standalone="no"?>
<!DOCTYPE svg PUBLIC "-//W3C//DTD SVG 1.1//EN"
 "http://www.w3.org/Graphics/SVG/1.1/DTD/svg11.dtd">
<!-- Generated by graphviz version 2.38.0 (20140413.2041)
 -->
<!-- Title: koala.tokenizer.f_tokens.next Pages: 1 -->
<svg width="495pt" height="39pt"
 viewBox="0.00 0.00 495.00 39.00" xmlns="http://www.w3.org/2000/svg" xmlns:xlink="http://www.w3.org/1999/xlink">
<g id="graph0" class="graph" transform="scale(1 1) rotate(0) translate(4 35)">
<title>koala.tokenizer.f_tokens.next</title>
<polygon fill="white" stroke="none" points="-4,4 -4,-35 491,-35 491,4 -4,4"/>
<!-- Node29 -->
<g id="node1" class="node"><title>Node29</title>
<g id="a_node1"><a xlink:title=" ">
<polygon fill="#bfbfbf" stroke="black" points="0,-6 0,-25 144,-25 144,-6 0,-6"/>
<text text-anchor="middle" x="72" y="-13" font-family="Helvetica,sans-Serif" font-size="10.00">koala.tokenizer.f_tokens.next</text>
</a>
</g>
</g>
<!-- Node30 -->
<g id="node2" class="node"><title>Node30</title>
<g id="a_node2"><a xlink:href="classkoala_1_1tokenizer_1_1f__tokens.html#a416ea64c9146f7aece7c225e9d6aa3f9" target="_top" xlink:title=" ">
<polygon fill="white" stroke="black" points="180,-0.5 180,-30.5 305,-30.5 305,-0.5 180,-0.5"/>
<text text-anchor="start" x="188" y="-18.5" font-family="Helvetica,sans-Serif" font-size="10.00">koala.tokenizer.f_tokens.</text>
<text text-anchor="middle" x="242.5" y="-7.5" font-family="Helvetica,sans-Serif" font-size="10.00">__next__</text>
</a>
</g>
</g>
<!-- Node29&#45;&gt;Node30 -->
<g id="edge1" class="edge"><title>Node29&#45;&gt;Node30</title>
<path fill="none" stroke="midnightblue" d="M144.459,-15.5C152.813,-15.5 161.338,-15.5 169.697,-15.5"/>
<polygon fill="midnightblue" stroke="midnightblue" points="169.786,-19.0001 179.786,-15.5 169.786,-12.0001 169.786,-19.0001"/>
</g>
<!-- Node31 -->
<g id="node3" class="node"><title>Node31</title>
<g id="a_node3"><a xlink:href="classkoala_1_1tokenizer_1_1f__tokens.html#aaab19289eb38aacb930ea23160243e9e" target="_top" xlink:title=" ">
<polygon fill="white" stroke="black" points="341,-6 341,-25 487,-25 487,-6 341,-6"/>
<text text-anchor="middle" x="414" y="-13" font-family="Helvetica,sans-Serif" font-size="10.00">koala.tokenizer.f_tokens.EOF</text>
</a>
</g>
</g>
<!-- Node30&#45;&gt;Node31 -->
<g id="edge2" class="edge"><title>Node30&#45;&gt;Node31</title>
<path fill="none" stroke="midnightblue" d="M305.173,-15.5C313.473,-15.5 322.093,-15.5 330.68,-15.5"/>
<polygon fill="midnightblue" stroke="midnightblue" points="330.723,-19.0001 340.723,-15.5 330.723,-12.0001 330.723,-19.0001"/>
</g>
</g>
</svg>
