<?xml version="1.0" encoding="UTF-8" standalone="no"?>
<!DOCTYPE svg PUBLIC "-//W3C//DTD SVG 1.1//EN"
 "http://www.w3.org/Graphics/SVG/1.1/DTD/svg11.dtd">
<!-- Generated by graphviz version 2.38.0 (20140413.2041)
 -->
<!-- Title: koala.Cell.Cell.__setstate__ Pages: 1 -->
<svg width="450pt" height="66pt"
 viewBox="0.00 0.00 450.00 66.00" xmlns="http://www.w3.org/2000/svg" xmlns:xlink="http://www.w3.org/1999/xlink">
<g id="graph0" class="graph" transform="scale(1 1) rotate(0) translate(4 62)">
<title>koala.Cell.Cell.__setstate__</title>
<polygon fill="white" stroke="none" points="-4,4 -4,-62 446,-62 446,4 -4,4"/>
<!-- Node6 -->
<g id="node1" class="node"><title>Node6</title>
<g id="a_node1"><a xlink:title=" ">
<polygon fill="#bfbfbf" stroke="black" points="0,-19.5 0,-38.5 138,-38.5 138,-19.5 0,-19.5"/>
<text text-anchor="middle" x="69" y="-26.5" font-family="Helvetica,sans-Serif" font-size="10.00">koala.Cell.Cell.__setstate__</text>
</a>
</g>
</g>
<!-- Node7 -->
<g id="node2" class="node"><title>Node7</title>
<g id="a_node2"><a xlink:href="classkoala_1_1_cell_1_1_cell.html#a432911d1cee360eee9ff0ead3eec44f4" target="_top" xlink:title=" ">
<polygon fill="white" stroke="black" points="174,-19.5 174,-38.5 290,-38.5 290,-19.5 174,-19.5"/>
<text text-anchor="middle" x="232" y="-26.5" font-family="Helvetica,sans-Serif" font-size="10.00">koala.Cell.Cell.compile</text>
</a>
</g>
</g>
<!-- Node6&#45;&gt;Node7 -->
<g id="edge1" class="edge"><title>Node6&#45;&gt;Node7</title>
<path fill="none" stroke="midnightblue" d="M138.278,-29C146.687,-29 155.277,-29 163.672,-29"/>
<polygon fill="midnightblue" stroke="midnightblue" points="163.788,-32.5001 173.788,-29 163.788,-25.5001 163.788,-32.5001"/>
</g>
<!-- Node8 -->
<g id="node3" class="node"><title>Node8</title>
<g id="a_node3"><a xlink:href="classkoala_1_1_cell_1_1_cell.html#a8612ef40e31a05ab02d6a1d9280ac446" target="_top" xlink:title=" ">
<polygon fill="white" stroke="black" points="326,-38.5 326,-57.5 442,-57.5 442,-38.5 326,-38.5"/>
<text text-anchor="middle" x="384" y="-45.5" font-family="Helvetica,sans-Serif" font-size="10.00">koala.Cell.Cell.address</text>
</a>
</g>
</g>
<!-- Node7&#45;&gt;Node8 -->
<g id="edge2" class="edge"><title>Node7&#45;&gt;Node8</title>
<path fill="none" stroke="midnightblue" d="M290.136,-36.2373C298.377,-37.2811 306.923,-38.3636 315.344,-39.4303"/>
<polygon fill="midnightblue" stroke="midnightblue" points="315.165,-42.9354 325.525,-40.7199 316.045,-35.9909 315.165,-42.9354"/>
</g>
<!-- Node9 -->
<g id="node4" class="node"><title>Node9</title>
<g id="a_node4"><a xlink:href="classkoala_1_1_cell_1_1_cell.html#adda37b33a7b16006992d8f391e82e078" target="_top" xlink:title=" ">
<polygon fill="white" stroke="black" points="327.5,-0.5 327.5,-19.5 440.5,-19.5 440.5,-0.5 327.5,-0.5"/>
<text text-anchor="middle" x="384" y="-7.5" font-family="Helvetica,sans-Serif" font-size="10.00">koala.Cell.Cell.formula</text>
</a>
</g>
</g>
<!-- Node7&#45;&gt;Node9 -->
<g id="edge3" class="edge"><title>Node7&#45;&gt;Node9</title>
<path fill="none" stroke="midnightblue" d="M290.136,-21.7627C298.919,-20.6503 308.048,-19.4939 317.004,-18.3595"/>
<polygon fill="midnightblue" stroke="midnightblue" points="317.533,-21.8205 327.014,-17.0916 316.653,-14.876 317.533,-21.8205"/>
</g>
</g>
</svg>
