<?xml version="1.0" encoding="UTF-8" standalone="no"?>
<!DOCTYPE svg PUBLIC "-//W3C//DTD SVG 1.1//EN"
 "http://www.w3.org/Graphics/SVG/1.1/DTD/svg11.dtd">
<!-- Generated by graphviz version 2.38.0 (20140413.2041)
 -->
<!-- Title: koala.Spreadsheet.Spreadsheet.set_formula Pages: 1 -->
<svg width="1135pt" height="442pt"
 viewBox="0.00 0.00 1135.00 442.00" xmlns="http://www.w3.org/2000/svg" xmlns:xlink="http://www.w3.org/1999/xlink">
<g id="graph0" class="graph" transform="scale(1 1) rotate(0) translate(4 438)">
<title>koala.Spreadsheet.Spreadsheet.set_formula</title>
<polygon fill="white" stroke="none" points="-4,4 -4,-438 1131,-438 1131,4 -4,4"/>
<!-- Node302 -->
<g id="node1" class="node"><title>Node302</title>
<g id="a_node1"><a xlink:title=" ">
<polygon fill="#bfbfbf" stroke="black" points="0,-94.5 0,-124.5 172,-124.5 172,-94.5 0,-94.5"/>
<text text-anchor="start" x="8" y="-112.5" font-family="Helvetica,sans-Serif" font-size="10.00">koala.Spreadsheet.Spreadsheet.set</text>
<text text-anchor="middle" x="86" y="-101.5" font-family="Helvetica,sans-Serif" font-size="10.00">_formula</text>
</a>
</g>
</g>
<!-- Node303 -->
<g id="node2" class="node"><title>Node303</title>
<g id="a_node2"><a xlink:href="classkoala_1_1_spreadsheet_1_1_spreadsheet.html#aa7bdaffc24c26fbf18d5b752b7e49df2" target="_top" xlink:title=" ">
<polygon fill="white" stroke="black" points="208,-94.5 208,-124.5 381,-124.5 381,-94.5 208,-94.5"/>
<text text-anchor="start" x="216" y="-112.5" font-family="Helvetica,sans-Serif" font-size="10.00">koala.Spreadsheet.Spreadsheet.cell</text>
<text text-anchor="middle" x="294.5" y="-101.5" font-family="Helvetica,sans-Serif" font-size="10.00">_set_formula</text>
</a>
</g>
</g>
<!-- Node302&#45;&gt;Node303 -->
<g id="edge1" class="edge"><title>Node302&#45;&gt;Node303</title>
<path fill="none" stroke="midnightblue" d="M172.184,-109.5C180.648,-109.5 189.28,-109.5 197.841,-109.5"/>
<polygon fill="midnightblue" stroke="midnightblue" points="197.845,-113 207.845,-109.5 197.845,-106 197.845,-113"/>
</g>
<!-- Node304 -->
<g id="node3" class="node"><title>Node304</title>
<g id="a_node3"><a xlink:href="namespacekoala_1_1ast.html#aa55446c8aa764f09775f006ee775ec7b" target="_top" xlink:title=" ">
<polygon fill="white" stroke="black" points="460.5,-189.5 460.5,-219.5 567.5,-219.5 567.5,-189.5 460.5,-189.5"/>
<text text-anchor="start" x="468.5" y="-207.5" font-family="Helvetica,sans-Serif" font-size="10.00">koala.ast.graph_from</text>
<text text-anchor="middle" x="514" y="-196.5" font-family="Helvetica,sans-Serif" font-size="10.00">_seeds</text>
</a>
</g>
</g>
<!-- Node303&#45;&gt;Node304 -->
<g id="edge2" class="edge"><title>Node303&#45;&gt;Node304</title>
<path fill="none" stroke="midnightblue" d="M329.964,-124.553C367.636,-141.008 428.09,-167.413 469.123,-185.335"/>
<polygon fill="midnightblue" stroke="midnightblue" points="467.773,-188.565 478.338,-189.36 470.575,-182.15 467.773,-188.565"/>
</g>
<!-- Node320 -->
<g id="node19" class="node"><title>Node320</title>
<g id="a_node19"><a xlink:href="classkoala_1_1_spreadsheet_1_1_spreadsheet.html#adec88c8b31c94969a557cf572ee13c44" target="_top" xlink:title=" ">
<polygon fill="white" stroke="black" points="417,-6 417,-25 611,-25 611,-6 417,-6"/>
<text text-anchor="middle" x="514" y="-13" font-family="Helvetica,sans-Serif" font-size="10.00">koala.Spreadsheet.Spreadsheet.evaluate</text>
</a>
</g>
</g>
<!-- Node303&#45;&gt;Node320 -->
<g id="edge26" class="edge"><title>Node303&#45;&gt;Node320</title>
<path fill="none" stroke="midnightblue" d="M330.445,-94.3973C372.157,-76.3701 441.297,-46.489 481.449,-29.1357"/>
<polygon fill="midnightblue" stroke="midnightblue" points="482.968,-32.2925 490.758,-25.1124 480.191,-25.8669 482.968,-32.2925"/>
</g>
<!-- Node305 -->
<g id="node4" class="node"><title>Node305</title>
<g id="a_node4"><a xlink:href="namespacekoala_1_1ast.html#abb76e7037309a032effde5e5078a86e2" target="_top" xlink:title=" ">
<polygon fill="white" stroke="black" points="683,-366 683,-385 784,-385 784,-366 683,-366"/>
<text text-anchor="middle" x="733.5" y="-373" font-family="Helvetica,sans-Serif" font-size="10.00">koala.ast.cell2code</text>
</a>
</g>
</g>
<!-- Node304&#45;&gt;Node305 -->
<g id="edge3" class="edge"><title>Node304&#45;&gt;Node305</title>
<path fill="none" stroke="midnightblue" d="M523.655,-219.858C542.036,-250.969 588.145,-321.445 647,-356.5 654.963,-361.243 663.981,-364.804 673.1,-367.478"/>
<polygon fill="midnightblue" stroke="midnightblue" points="672.432,-370.92 682.99,-370.045 674.19,-364.145 672.432,-370.92"/>
</g>
<!-- Node310 -->
<g id="node9" class="node"><title>Node310</title>
<g id="a_node9"><a xlink:href="namespacekoala_1_1utils.html#ac7f70de24f29847f700db5eb4cad018c" target="_top" xlink:title=" ">
<polygon fill="white" stroke="black" points="682.5,-176 682.5,-195 784.5,-195 784.5,-176 682.5,-176"/>
<text text-anchor="middle" x="733.5" y="-183" font-family="Helvetica,sans-Serif" font-size="10.00">koala.utils.uniqueify</text>
</a>
</g>
</g>
<!-- Node304&#45;&gt;Node310 -->
<g id="edge8" class="edge"><title>Node304&#45;&gt;Node310</title>
<path fill="none" stroke="midnightblue" d="M567.651,-199.901C599.075,-197.156 639.105,-193.659 671.849,-190.798"/>
<polygon fill="midnightblue" stroke="midnightblue" points="672.547,-194.251 682.204,-189.894 671.937,-187.277 672.547,-194.251"/>
</g>
<!-- Node311 -->
<g id="node10" class="node"><title>Node311</title>
<g id="a_node10"><a xlink:href="namespacekoala_1_1utils.html#a152ac1827f4fdbd036d6e67cdf3acebb" target="_top" xlink:title=" ">
<polygon fill="white" stroke="black" points="866.5,-249 866.5,-268 967.5,-268 967.5,-249 866.5,-249"/>
<text text-anchor="middle" x="917" y="-256" font-family="Helvetica,sans-Serif" font-size="10.00">koala.utils.is_range</text>
</a>
</g>
</g>
<!-- Node304&#45;&gt;Node311 -->
<g id="edge9" class="edge"><title>Node304&#45;&gt;Node311</title>
<path fill="none" stroke="midnightblue" d="M567.583,-213.843C591.737,-217.986 620.78,-222.758 647,-226.5 718.733,-236.739 801.557,-246.244 856.14,-252.19"/>
<polygon fill="midnightblue" stroke="midnightblue" points="856.011,-255.697 866.33,-253.295 856.766,-248.737 856.011,-255.697"/>
</g>
<!-- Node312 -->
<g id="node11" class="node"><title>Node312</title>
<g id="a_node11"><a xlink:href="namespacekoala_1_1ast.html#a3d0179539d74f2668d3917bf28d2edd8" target="_top" xlink:title=" ">
<polygon fill="white" stroke="black" points="670.5,-328 670.5,-347 796.5,-347 796.5,-328 670.5,-328"/>
<text text-anchor="middle" x="733.5" y="-335" font-family="Helvetica,sans-Serif" font-size="10.00">koala.ast.prepare_pointer</text>
</a>
</g>
</g>
<!-- Node304&#45;&gt;Node312 -->
<g id="edge10" class="edge"><title>Node304&#45;&gt;Node312</title>
<path fill="none" stroke="midnightblue" d="M528.952,-219.501C551.552,-242.933 598.544,-288.153 647,-313.5 655.812,-318.109 665.61,-321.919 675.34,-325.041"/>
<polygon fill="midnightblue" stroke="midnightblue" points="674.423,-328.42 685.007,-327.936 676.432,-321.714 674.423,-328.42"/>
</g>
<!-- Node313 -->
<g id="node12" class="node"><title>Node313</title>
<g id="a_node12"><a xlink:href="namespacekoala_1_1utils.html#a1d3620df245d23fea05928298cabc2ac" target="_top" xlink:title=" ">
<polygon fill="white" stroke="black" points="686.5,-126.5 686.5,-156.5 780.5,-156.5 780.5,-126.5 686.5,-126.5"/>
<text text-anchor="start" x="694.5" y="-144.5" font-family="Helvetica,sans-Serif" font-size="10.00">koala.utils.resolve</text>
<text text-anchor="middle" x="733.5" y="-133.5" font-family="Helvetica,sans-Serif" font-size="10.00">_range</text>
</a>
</g>
</g>
<!-- Node304&#45;&gt;Node313 -->
<g id="edge14" class="edge"><title>Node304&#45;&gt;Node313</title>
<path fill="none" stroke="midnightblue" d="M566.82,-189.49C599.87,-179.917 642.69,-167.514 676.518,-157.715"/>
<polygon fill="midnightblue" stroke="midnightblue" points="677.623,-161.039 686.255,-154.895 675.676,-154.316 677.623,-161.039"/>
</g>
<!-- Node315 -->
<g id="node14" class="node"><title>Node315</title>
<g id="a_node14"><a xlink:href="namespacekoala_1_1utils.html#a5c70ac45916995934736ab28b501c8c5" target="_top" xlink:title=" ">
<polygon fill="white" stroke="black" points="856,-209 856,-228 978,-228 978,-209 856,-209"/>
<text text-anchor="middle" x="917" y="-216" font-family="Helvetica,sans-Serif" font-size="10.00">koala.utils.split_address</text>
</a>
</g>
</g>
<!-- Node304&#45;&gt;Node315 -->
<g id="edge21" class="edge"><title>Node304&#45;&gt;Node315</title>
<path fill="none" stroke="midnightblue" d="M567.836,-206.345C639.073,-208.832 766.117,-213.267 845.457,-216.037"/>
<polygon fill="midnightblue" stroke="midnightblue" points="845.73,-219.549 855.846,-216.4 845.974,-212.553 845.73,-219.549"/>
</g>
<!-- Node316 -->
<g id="node15" class="node"><title>Node316</title>
<g id="a_node15"><a xlink:href="namespacekoala_1_1utils.html#a65476c62402a00e3d46dbc99b6a4ea88" target="_top" xlink:title=" ">
<polygon fill="white" stroke="black" points="866.5,-88 866.5,-107 967.5,-107 967.5,-88 866.5,-88"/>
<text text-anchor="middle" x="917" y="-95" font-family="Helvetica,sans-Serif" font-size="10.00">koala.utils.col2num</text>
</a>
</g>
</g>
<!-- Node304&#45;&gt;Node316 -->
<g id="edge24" class="edge"><title>Node304&#45;&gt;Node316</title>
<path fill="none" stroke="midnightblue" d="M524.736,-189.495C544.039,-161.308 590.242,-101.241 647,-78.5 724.777,-47.3379 825.274,-69.0314 878.714,-84.9089"/>
<polygon fill="midnightblue" stroke="midnightblue" points="877.854,-88.3062 888.441,-87.8906 879.906,-81.6135 877.854,-88.3062"/>
</g>
<!-- Node318 -->
<g id="node17" class="node"><title>Node318</title>
<g id="a_node17"><a xlink:href="namespacekoala_1_1utils.html#aabb45efe6343cf3795888c77a434d47d" target="_top" xlink:title=" ">
<polygon fill="white" stroke="black" points="872,-288 872,-307 962,-307 962,-288 872,-288"/>
<text text-anchor="middle" x="917" y="-295" font-family="Helvetica,sans-Serif" font-size="10.00">koala.utils.flatten</text>
</a>
</g>
</g>
<!-- Node304&#45;&gt;Node318 -->
<g id="edge25" class="edge"><title>Node304&#45;&gt;Node318</title>
<path fill="none" stroke="midnightblue" d="M551.732,-219.509C577.922,-229.732 614.169,-242.917 647,-251.5 720.208,-270.639 806.767,-283.801 861.527,-290.995"/>
<polygon fill="midnightblue" stroke="midnightblue" points="861.34,-294.5 871.706,-292.311 862.238,-287.558 861.34,-294.5"/>
</g>
<!-- Node319 -->
<g id="node18" class="node"><title>Node319</title>
<g id="a_node18"><a xlink:href="namespacekoala_1_1utils.html#a71673869f44a8e5ee678759d1c099ada" target="_top" xlink:title=" ">
<polygon fill="white" stroke="black" points="667.5,-88 667.5,-107 799.5,-107 799.5,-88 667.5,-88"/>
<text text-anchor="middle" x="733.5" y="-95" font-family="Helvetica,sans-Serif" font-size="10.00">koala.utils.max_dimension</text>
</a>
</g>
</g>
<!-- Node304&#45;&gt;Node319 -->
<g id="edge22" class="edge"><title>Node304&#45;&gt;Node319</title>
<path fill="none" stroke="midnightblue" d="M532.968,-189.327C557.263,-169.594 602.668,-135.418 647,-116.5 652.874,-113.993 659.122,-111.798 665.463,-109.879"/>
<polygon fill="midnightblue" stroke="midnightblue" points="666.774,-113.147 675.464,-107.086 664.891,-106.405 666.774,-113.147"/>
</g>
<!-- Node306 -->
<g id="node5" class="node"><title>Node306</title>
<g id="a_node5"><a xlink:href="namespacekoala_1_1_range.html#a6a4a2138705cb8cc069ddf925e74d2c1" target="_top" xlink:title=" ">
<polygon fill="white" stroke="black" points="858,-403.5 858,-433.5 976,-433.5 976,-403.5 858,-403.5"/>
<text text-anchor="start" x="866" y="-421.5" font-family="Helvetica,sans-Serif" font-size="10.00">koala.Range.parse_cell</text>
<text text-anchor="middle" x="917" y="-410.5" font-family="Helvetica,sans-Serif" font-size="10.00">_address</text>
</a>
</g>
</g>
<!-- Node305&#45;&gt;Node306 -->
<g id="edge4" class="edge"><title>Node305&#45;&gt;Node306</title>
<path fill="none" stroke="midnightblue" d="M774.781,-385.043C796.26,-390.132 823.269,-396.531 847.9,-402.366"/>
<polygon fill="midnightblue" stroke="midnightblue" points="847.387,-405.841 857.925,-404.741 849.001,-399.03 847.387,-405.841"/>
</g>
<!-- Node307 -->
<g id="node6" class="node"><title>Node307</title>
<g id="a_node6"><a xlink:href="namespacekoala_1_1ast.html#a76e6cdc1c1338001a6d0c4ac4a038087" target="_top" xlink:title=" ">
<polygon fill="white" stroke="black" points="857,-365 857,-384 977,-384 977,-365 857,-365"/>
<text text-anchor="middle" x="917" y="-372" font-family="Helvetica,sans-Serif" font-size="10.00">koala.ast.shunting_yard</text>
</a>
</g>
</g>
<!-- Node305&#45;&gt;Node307 -->
<g id="edge5" class="edge"><title>Node305&#45;&gt;Node307</title>
<path fill="none" stroke="midnightblue" d="M784.096,-375.227C803.398,-375.12 825.852,-374.997 846.703,-374.882"/>
<polygon fill="midnightblue" stroke="midnightblue" points="846.809,-378.381 856.79,-374.826 846.771,-371.381 846.809,-378.381"/>
</g>
<!-- Node309 -->
<g id="node8" class="node"><title>Node309</title>
<g id="a_node8"><a xlink:href="namespacekoala_1_1ast.html#a36277633c59487f9b1c1b256df41e942" target="_top" xlink:title=" ">
<polygon fill="white" stroke="black" points="868,-327 868,-346 966,-346 966,-327 868,-327"/>
<text text-anchor="middle" x="917" y="-334" font-family="Helvetica,sans-Serif" font-size="10.00">koala.ast.build_ast</text>
</a>
</g>
</g>
<!-- Node305&#45;&gt;Node309 -->
<g id="edge7" class="edge"><title>Node305&#45;&gt;Node309</title>
<path fill="none" stroke="midnightblue" d="M778.9,-365.96C803.933,-360.581 835.397,-353.82 861.868,-348.132"/>
<polygon fill="midnightblue" stroke="midnightblue" points="862.703,-351.532 871.744,-346.009 861.232,-344.688 862.703,-351.532"/>
</g>
<!-- Node308 -->
<g id="node7" class="node"><title>Node308</title>
<g id="a_node7"><a xlink:href="namespacekoala_1_1ast.html#a39876c353cfbf071723ede9b5a59eda4" target="_top" xlink:title=" ">
<polygon fill="white" stroke="black" points="1014,-365 1014,-384 1127,-384 1127,-365 1014,-365"/>
<text text-anchor="middle" x="1070.5" y="-372" font-family="Helvetica,sans-Serif" font-size="10.00">koala.ast.create_node</text>
</a>
</g>
</g>
<!-- Node307&#45;&gt;Node308 -->
<g id="edge6" class="edge"><title>Node307&#45;&gt;Node308</title>
<path fill="none" stroke="midnightblue" d="M977.008,-374.5C985.726,-374.5 994.756,-374.5 1003.6,-374.5"/>
<polygon fill="midnightblue" stroke="midnightblue" points="1003.88,-378 1013.88,-374.5 1003.88,-371 1003.88,-378"/>
</g>
<!-- Node312&#45;&gt;Node306 -->
<g id="edge11" class="edge"><title>Node312&#45;&gt;Node306</title>
<path fill="none" stroke="midnightblue" d="M796.798,-346.848C804.879,-349.341 812.829,-352.5 820,-356.5 840.037,-367.678 837.024,-380.603 856,-393.5 858.707,-395.34 861.57,-397.083 864.52,-398.729"/>
<polygon fill="midnightblue" stroke="midnightblue" points="863.064,-401.916 873.559,-403.371 866.262,-395.689 863.064,-401.916"/>
</g>
<!-- Node312&#45;&gt;Node307 -->
<g id="edge12" class="edge"><title>Node312&#45;&gt;Node307</title>
<path fill="none" stroke="midnightblue" d="M781.241,-347.028C804.966,-351.865 833.985,-357.781 859.011,-362.882"/>
<polygon fill="midnightblue" stroke="midnightblue" points="858.605,-366.372 869.103,-364.94 860.003,-359.513 858.605,-366.372"/>
</g>
<!-- Node312&#45;&gt;Node309 -->
<g id="edge13" class="edge"><title>Node312&#45;&gt;Node309</title>
<path fill="none" stroke="midnightblue" d="M796.708,-337.157C816.454,-337.048 838.206,-336.929 857.669,-336.821"/>
<polygon fill="midnightblue" stroke="midnightblue" points="857.935,-340.32 867.915,-336.765 857.896,-333.32 857.935,-340.32"/>
</g>
<!-- Node313&#45;&gt;Node311 -->
<g id="edge16" class="edge"><title>Node313&#45;&gt;Node311</title>
<path fill="none" stroke="midnightblue" d="M780.889,-147.824C794.626,-151.5 808.935,-157.312 820,-166.5 847.219,-189.103 829.38,-214.195 856,-237.5 858.997,-240.124 862.342,-242.425 865.876,-244.443"/>
<polygon fill="midnightblue" stroke="midnightblue" points="864.444,-247.639 874.964,-248.897 867.525,-241.353 864.444,-247.639"/>
</g>
<!-- Node314 -->
<g id="node13" class="node"><title>Node314</title>
<g id="a_node13"><a xlink:href="namespacekoala_1_1utils.html#a77ace10251dde2f09a457b7b469208cc" target="_top" xlink:title=" ">
<polygon fill="white" stroke="black" points="861.5,-129 861.5,-148 972.5,-148 972.5,-129 861.5,-129"/>
<text text-anchor="middle" x="917" y="-136" font-family="Helvetica,sans-Serif" font-size="10.00">koala.utils.split_range</text>
</a>
</g>
</g>
<!-- Node313&#45;&gt;Node314 -->
<g id="edge15" class="edge"><title>Node313&#45;&gt;Node314</title>
<path fill="none" stroke="midnightblue" d="M780.77,-140.735C802.178,-140.381 827.974,-139.955 851.271,-139.57"/>
<polygon fill="midnightblue" stroke="midnightblue" points="851.486,-143.067 861.427,-139.402 851.37,-136.068 851.486,-143.067"/>
</g>
<!-- Node313&#45;&gt;Node315 -->
<g id="edge17" class="edge"><title>Node313&#45;&gt;Node315</title>
<path fill="none" stroke="midnightblue" d="M780.608,-151.402C793.748,-155.165 807.8,-160.128 820,-166.5 838.212,-176.011 838.191,-185.254 856,-195.5 862.315,-199.134 869.314,-202.41 876.236,-205.275"/>
<polygon fill="midnightblue" stroke="midnightblue" points="874.968,-208.538 885.555,-208.922 877.519,-202.019 874.968,-208.538"/>
</g>
<!-- Node313&#45;&gt;Node316 -->
<g id="edge18" class="edge"><title>Node313&#45;&gt;Node316</title>
<path fill="none" stroke="midnightblue" d="M780.77,-130.283C807.032,-123.916 839.898,-115.949 866.652,-109.463"/>
<polygon fill="midnightblue" stroke="midnightblue" points="867.687,-112.814 876.581,-107.056 866.037,-106.011 867.687,-112.814"/>
</g>
<!-- Node317 -->
<g id="node16" class="node"><title>Node317</title>
<g id="a_node16"><a xlink:href="namespacekoala_1_1utils.html#a2037076cc5a6fbf884023917a0cbfca7" target="_top" xlink:title=" ">
<polygon fill="white" stroke="black" points="866.5,-167 866.5,-186 967.5,-186 967.5,-167 866.5,-167"/>
<text text-anchor="middle" x="917" y="-174" font-family="Helvetica,sans-Serif" font-size="10.00">koala.utils.num2col</text>
</a>
</g>
</g>
<!-- Node313&#45;&gt;Node317 -->
<g id="edge19" class="edge"><title>Node313&#45;&gt;Node317</title>
<path fill="none" stroke="midnightblue" d="M780.77,-150.423C803.847,-154.873 832.023,-160.306 856.67,-165.059"/>
<polygon fill="midnightblue" stroke="midnightblue" points="856.153,-168.524 866.635,-166.981 857.478,-161.65 856.153,-168.524"/>
</g>
<!-- Node313&#45;&gt;Node318 -->
<g id="edge20" class="edge"><title>Node313&#45;&gt;Node318</title>
<path fill="none" stroke="midnightblue" d="M780.911,-146.581C794.969,-150.182 809.461,-156.264 820,-166.5 857.203,-202.634 819.477,-240.679 856,-277.5 858.102,-279.619 860.435,-281.514 862.925,-283.208"/>
<polygon fill="midnightblue" stroke="midnightblue" points="861.457,-286.398 871.893,-288.229 864.877,-280.29 861.457,-286.398"/>
</g>
<!-- Node319&#45;&gt;Node316 -->
<g id="edge23" class="edge"><title>Node319&#45;&gt;Node316</title>
<path fill="none" stroke="midnightblue" d="M799.513,-97.5C817.965,-97.5 837.965,-97.5 856.099,-97.5"/>
<polygon fill="midnightblue" stroke="midnightblue" points="856.247,-101 866.247,-97.5 856.247,-94.0001 856.247,-101"/>
</g>
<!-- Node321 -->
<g id="node20" class="node"><title>Node321</title>
<g id="a_node20"><a xlink:href="classkoala_1_1_spreadsheet_1_1_spreadsheet.html#a8e83a93df65a29d4748b427cb4d77bb2" target="_top" xlink:title=" ">
<polygon fill="white" stroke="black" points="647,-0.5 647,-30.5 820,-30.5 820,-0.5 647,-0.5"/>
<text text-anchor="start" x="655" y="-18.5" font-family="Helvetica,sans-Serif" font-size="10.00">koala.Spreadsheet.Spreadsheet.cell</text>
<text text-anchor="middle" x="733.5" y="-7.5" font-family="Helvetica,sans-Serif" font-size="10.00">_evaluate</text>
</a>
</g>
</g>
<!-- Node320&#45;&gt;Node321 -->
<g id="edge27" class="edge"><title>Node320&#45;&gt;Node321</title>
<path fill="none" stroke="midnightblue" d="M611.032,-8.7912C619.62,-8.73533 628.316,-8.73628 636.9,-8.79406"/>
<polygon fill="midnightblue" stroke="midnightblue" points="636.881,-12.2939 646.914,-8.88798 636.947,-5.29424 636.881,-12.2939"/>
</g>
<!-- Node321&#45;&gt;Node320 -->
<g id="edge28" class="edge"><title>Node321&#45;&gt;Node320</title>
<path fill="none" stroke="midnightblue" d="M646.914,-22.112C638.449,-22.2143 629.789,-22.2597 621.15,-22.2483"/>
<polygon fill="midnightblue" stroke="midnightblue" points="621.045,-18.7479 611.032,-22.2088 621.018,-25.7479 621.045,-18.7479"/>
</g>
<!-- Node322 -->
<g id="node21" class="node"><title>Node322</title>
<g id="a_node21"><a xlink:href="namespacekoala_1_1utils.html#a1585473b2fb474970dbc49794309a0e6" target="_top" xlink:title=" ">
<polygon fill="white" stroke="black" points="864,-0.5 864,-30.5 970,-30.5 970,-0.5 864,-0.5"/>
<text text-anchor="start" x="872" y="-18.5" font-family="Helvetica,sans-Serif" font-size="10.00">koala.utils.is_almost</text>
<text text-anchor="middle" x="917" y="-7.5" font-family="Helvetica,sans-Serif" font-size="10.00">_equal</text>
</a>
</g>
</g>
<!-- Node321&#45;&gt;Node322 -->
<g id="edge29" class="edge"><title>Node321&#45;&gt;Node322</title>
<path fill="none" stroke="midnightblue" d="M820.201,-15.5C831.469,-15.5 842.841,-15.5 853.62,-15.5"/>
<polygon fill="midnightblue" stroke="midnightblue" points="853.749,-19.0001 863.749,-15.5 853.749,-12.0001 853.749,-19.0001"/>
</g>
<!-- Node323 -->
<g id="node22" class="node"><title>Node323</title>
<g id="a_node22"><a xlink:href="namespacekoala_1_1utils.html#af016160edea2b46cb26db3ed307c9648" target="_top" xlink:title=" ">
<polygon fill="white" stroke="black" points="1016,-6 1016,-25 1125,-25 1125,-6 1016,-6"/>
<text text-anchor="middle" x="1070.5" y="-13" font-family="Helvetica,sans-Serif" font-size="10.00">koala.utils.is_number</text>
</a>
</g>
</g>
<!-- Node322&#45;&gt;Node323 -->
<g id="edge30" class="edge"><title>Node322&#45;&gt;Node323</title>
<path fill="none" stroke="midnightblue" d="M970.138,-15.5C981.59,-15.5 993.843,-15.5 1005.7,-15.5"/>
<polygon fill="midnightblue" stroke="midnightblue" points="1005.98,-19.0001 1015.98,-15.5 1005.98,-12.0001 1005.98,-19.0001"/>
</g>
</g>
</svg>
