<?xml version="1.0" encoding="UTF-8" standalone="no"?>
<!DOCTYPE svg PUBLIC "-//W3C//DTD SVG 1.1//EN"
 "http://www.w3.org/Graphics/SVG/1.1/DTD/svg11.dtd">
<!-- Generated by graphviz version 2.38.0 (20140413.2041)
 -->
<!-- Title: koala.Spreadsheet.Spreadsheet.set_formula Pages: 1 -->
<svg width="1115pt" height="39pt"
 viewBox="0.00 0.00 1115.00 39.00" xmlns="http://www.w3.org/2000/svg" xmlns:xlink="http://www.w3.org/1999/xlink">
<g id="graph0" class="graph" transform="scale(1 1) rotate(0) translate(4 35)">
<title>koala.Spreadsheet.Spreadsheet.set_formula</title>
<polygon fill="white" stroke="none" points="-4,4 -4,-35 1111,-35 1111,4 -4,4"/>
<!-- Node220 -->
<g id="node1" class="node"><title>Node220</title>
<g id="a_node1"><a xlink:title=" ">
<polygon fill="#bfbfbf" stroke="black" points="0,-0.5 0,-30.5 172,-30.5 172,-0.5 0,-0.5"/>
<text text-anchor="start" x="8" y="-18.5" font-family="Helvetica,sans-Serif" font-size="10.00">koala.Spreadsheet.Spreadsheet.set</text>
<text text-anchor="middle" x="86" y="-7.5" font-family="Helvetica,sans-Serif" font-size="10.00">_formula</text>
</a>
</g>
</g>
<!-- Node221 -->
<g id="node2" class="node"><title>Node221</title>
<g id="a_node2"><a xlink:href="classkoala_1_1_spreadsheet_1_1_spreadsheet.html#aa7bdaffc24c26fbf18d5b752b7e49df2" target="_top" xlink:title=" ">
<polygon fill="white" stroke="black" points="208,-0.5 208,-30.5 381,-30.5 381,-0.5 208,-0.5"/>
<text text-anchor="start" x="216" y="-18.5" font-family="Helvetica,sans-Serif" font-size="10.00">koala.Spreadsheet.Spreadsheet.cell</text>
<text text-anchor="middle" x="294.5" y="-7.5" font-family="Helvetica,sans-Serif" font-size="10.00">_set_formula</text>
</a>
</g>
</g>
<!-- Node220&#45;&gt;Node221 -->
<g id="edge1" class="edge"><title>Node220&#45;&gt;Node221</title>
<path fill="none" stroke="midnightblue" d="M172.184,-15.5C180.648,-15.5 189.28,-15.5 197.841,-15.5"/>
<polygon fill="midnightblue" stroke="midnightblue" points="197.845,-19.0001 207.845,-15.5 197.845,-12.0001 197.845,-19.0001"/>
</g>
<!-- Node222 -->
<g id="node3" class="node"><title>Node222</title>
<g id="a_node3"><a xlink:href="classkoala_1_1_spreadsheet_1_1_spreadsheet.html#adec88c8b31c94969a557cf572ee13c44" target="_top" xlink:title=" ">
<polygon fill="white" stroke="black" points="417,-6 417,-25 611,-25 611,-6 417,-6"/>
<text text-anchor="middle" x="514" y="-13" font-family="Helvetica,sans-Serif" font-size="10.00">koala.Spreadsheet.Spreadsheet.evaluate</text>
</a>
</g>
</g>
<!-- Node221&#45;&gt;Node222 -->
<g id="edge2" class="edge"><title>Node221&#45;&gt;Node222</title>
<path fill="none" stroke="midnightblue" d="M381.15,-15.5C389.523,-15.5 398.088,-15.5 406.633,-15.5"/>
<polygon fill="midnightblue" stroke="midnightblue" points="406.643,-19.0001 416.643,-15.5 406.643,-12.0001 406.643,-19.0001"/>
</g>
<!-- Node223 -->
<g id="node4" class="node"><title>Node223</title>
<g id="a_node4"><a xlink:href="classkoala_1_1_spreadsheet_1_1_spreadsheet.html#a8e83a93df65a29d4748b427cb4d77bb2" target="_top" xlink:title=" ">
<polygon fill="white" stroke="black" points="647,-0.5 647,-30.5 820,-30.5 820,-0.5 647,-0.5"/>
<text text-anchor="start" x="655" y="-18.5" font-family="Helvetica,sans-Serif" font-size="10.00">koala.Spreadsheet.Spreadsheet.cell</text>
<text text-anchor="middle" x="733.5" y="-7.5" font-family="Helvetica,sans-Serif" font-size="10.00">_evaluate</text>
</a>
</g>
</g>
<!-- Node222&#45;&gt;Node223 -->
<g id="edge3" class="edge"><title>Node222&#45;&gt;Node223</title>
<path fill="none" stroke="midnightblue" d="M611.032,-8.7912C619.62,-8.73533 628.316,-8.73628 636.9,-8.79406"/>
<polygon fill="midnightblue" stroke="midnightblue" points="636.881,-12.2939 646.914,-8.88798 636.947,-5.29424 636.881,-12.2939"/>
</g>
<!-- Node223&#45;&gt;Node222 -->
<g id="edge4" class="edge"><title>Node223&#45;&gt;Node222</title>
<path fill="none" stroke="midnightblue" d="M646.914,-22.112C638.449,-22.2143 629.789,-22.2597 621.15,-22.2483"/>
<polygon fill="midnightblue" stroke="midnightblue" points="621.045,-18.7479 611.032,-22.2088 621.018,-25.7479 621.045,-18.7479"/>
</g>
<!-- Node224 -->
<g id="node5" class="node"><title>Node224</title>
<g id="a_node5"><a xlink:href="namespacekoala_1_1utils.html#a1585473b2fb474970dbc49794309a0e6" target="_top" xlink:title=" ">
<polygon fill="white" stroke="black" points="856,-0.5 856,-30.5 962,-30.5 962,-0.5 856,-0.5"/>
<text text-anchor="start" x="864" y="-18.5" font-family="Helvetica,sans-Serif" font-size="10.00">koala.utils.is_almost</text>
<text text-anchor="middle" x="909" y="-7.5" font-family="Helvetica,sans-Serif" font-size="10.00">_equal</text>
</a>
</g>
</g>
<!-- Node223&#45;&gt;Node224 -->
<g id="edge5" class="edge"><title>Node223&#45;&gt;Node224</title>
<path fill="none" stroke="midnightblue" d="M820.233,-15.5C828.757,-15.5 837.295,-15.5 845.515,-15.5"/>
<polygon fill="midnightblue" stroke="midnightblue" points="845.735,-19.0001 855.735,-15.5 845.735,-12.0001 845.735,-19.0001"/>
</g>
<!-- Node225 -->
<g id="node6" class="node"><title>Node225</title>
<g id="a_node6"><a xlink:href="namespacekoala_1_1utils.html#af016160edea2b46cb26db3ed307c9648" target="_top" xlink:title=" ">
<polygon fill="white" stroke="black" points="998,-6 998,-25 1107,-25 1107,-6 998,-6"/>
<text text-anchor="middle" x="1052.5" y="-13" font-family="Helvetica,sans-Serif" font-size="10.00">koala.utils.is_number</text>
</a>
</g>
</g>
<!-- Node224&#45;&gt;Node225 -->
<g id="edge6" class="edge"><title>Node224&#45;&gt;Node225</title>
<path fill="none" stroke="midnightblue" d="M962.287,-15.5C970.459,-15.5 978.984,-15.5 987.383,-15.5"/>
<polygon fill="midnightblue" stroke="midnightblue" points="987.533,-19.0001 997.533,-15.5 987.533,-12.0001 987.533,-19.0001"/>
</g>
</g>
</svg>
