<?xml version="1.0" encoding="UTF-8" standalone="no"?>
<!DOCTYPE svg PUBLIC "-//W3C//DTD SVG 1.1//EN"
 "http://www.w3.org/Graphics/SVG/1.1/DTD/svg11.dtd">
<!-- Generated by graphviz version 2.38.0 (20140413.2041)
 -->
<!-- Title: koala.Spreadsheet.Spreadsheet.cell_set_value Pages: 1 -->
<svg width="635pt" height="134pt"
 viewBox="0.00 0.00 635.00 134.00" xmlns="http://www.w3.org/2000/svg" xmlns:xlink="http://www.w3.org/1999/xlink">
<g id="graph0" class="graph" transform="scale(1 1) rotate(0) translate(4 130)">
<title>koala.Spreadsheet.Spreadsheet.cell_set_value</title>
<polygon fill="white" stroke="none" points="-4,4 -4,-130 631,-130 631,4 -4,4"/>
<!-- Node67 -->
<g id="node1" class="node"><title>Node67</title>
<g id="a_node1"><a xlink:title=" ">
<polygon fill="#bfbfbf" stroke="black" points="0,-39 0,-69 173,-69 173,-39 0,-39"/>
<text text-anchor="start" x="8" y="-57" font-family="Helvetica,sans-Serif" font-size="10.00">koala.Spreadsheet.Spreadsheet.cell</text>
<text text-anchor="middle" x="86.5" y="-46" font-family="Helvetica,sans-Serif" font-size="10.00">_set_value</text>
</a>
</g>
</g>
<!-- Node68 -->
<g id="node2" class="node"><title>Node68</title>
<g id="a_node2"><a xlink:href="classkoala_1_1_spreadsheet_1_1_spreadsheet.html#a9d7718c6c87f06155aea63d7e12344f3" target="_top" xlink:title=" ">
<polygon fill="white" stroke="black" points="212,-106.5 212,-125.5 400,-125.5 400,-106.5 212,-106.5"/>
<text text-anchor="middle" x="306" y="-113.5" font-family="Helvetica,sans-Serif" font-size="10.00">koala.Spreadsheet.Spreadsheet.fix_cell</text>
</a>
</g>
</g>
<!-- Node67&#45;&gt;Node68 -->
<g id="edge1" class="edge"><title>Node67&#45;&gt;Node68</title>
<path fill="none" stroke="midnightblue" d="M125.625,-69.0945C149.341,-78.0818 180.624,-89.2148 209,-97 218.871,-99.7082 229.413,-102.194 239.763,-104.412"/>
<polygon fill="midnightblue" stroke="midnightblue" points="239.097,-107.848 249.599,-106.455 240.52,-100.995 239.097,-107.848"/>
</g>
<!-- Node70 -->
<g id="node4" class="node"><title>Node70</title>
<g id="a_node4"><a xlink:href="classkoala_1_1_spreadsheet_1_1_spreadsheet.html#a6a30676c4bbc56ea5d6f78f073312b6e" target="_top" xlink:title=" ">
<polygon fill="white" stroke="black" points="219.5,-39 219.5,-69 392.5,-69 392.5,-39 219.5,-39"/>
<text text-anchor="start" x="227.5" y="-57" font-family="Helvetica,sans-Serif" font-size="10.00">koala.Spreadsheet.Spreadsheet.cell</text>
<text text-anchor="middle" x="306" y="-46" font-family="Helvetica,sans-Serif" font-size="10.00">_reset</text>
</a>
</g>
</g>
<!-- Node67&#45;&gt;Node70 -->
<g id="edge3" class="edge"><title>Node67&#45;&gt;Node70</title>
<path fill="none" stroke="midnightblue" d="M173.15,-54C185.037,-54 197.311,-54 209.366,-54"/>
<polygon fill="midnightblue" stroke="midnightblue" points="209.429,-57.5001 219.428,-54 209.428,-50.5001 209.429,-57.5001"/>
</g>
<!-- Node71 -->
<g id="node5" class="node"><title>Node71</title>
<g id="a_node5"><a xlink:href="classkoala_1_1_spreadsheet_1_1_spreadsheet.html#affd17089825c4b3391c4d6b9b702209c" target="_top" xlink:title=" ">
<polygon fill="white" stroke="black" points="209,-0.5 209,-19.5 403,-19.5 403,-0.5 209,-0.5"/>
<text text-anchor="middle" x="306" y="-7.5" font-family="Helvetica,sans-Serif" font-size="10.00">koala.Spreadsheet.Spreadsheet.cell_add</text>
</a>
</g>
</g>
<!-- Node67&#45;&gt;Node71 -->
<g id="edge5" class="edge"><title>Node67&#45;&gt;Node71</title>
<path fill="none" stroke="midnightblue" d="M161.743,-38.9808C190.005,-33.2633 221.737,-26.844 248.139,-21.5029"/>
<polygon fill="midnightblue" stroke="midnightblue" points="248.871,-24.9258 257.978,-19.5124 247.483,-18.0648 248.871,-24.9258"/>
</g>
<!-- Node69 -->
<g id="node3" class="node"><title>Node69</title>
<g id="a_node3"><a xlink:href="classkoala_1_1_spreadsheet_1_1_spreadsheet.html#a89ffab272ebf76d8e0e331c95234dd2a" target="_top" xlink:title=" ">
<polygon fill="white" stroke="black" points="439,-106.5 439,-125.5 627,-125.5 627,-106.5 439,-106.5"/>
<text text-anchor="middle" x="533" y="-113.5" font-family="Helvetica,sans-Serif" font-size="10.00">koala.Spreadsheet.Spreadsheet.cell_fix</text>
</a>
</g>
</g>
<!-- Node68&#45;&gt;Node69 -->
<g id="edge2" class="edge"><title>Node68&#45;&gt;Node69</title>
<path fill="none" stroke="midnightblue" d="M400.14,-116C409.551,-116 419.149,-116 428.658,-116"/>
<polygon fill="midnightblue" stroke="midnightblue" points="428.93,-119.5 438.93,-116 428.93,-112.5 428.93,-119.5"/>
</g>
<!-- Node70&#45;&gt;Node70 -->
<g id="edge4" class="edge"><title>Node70&#45;&gt;Node70</title>
<path fill="none" stroke="midnightblue" d="M268.009,-69.159C258.848,-78.5566 271.512,-87.5 306,-87.5 327.016,-87.5 339.928,-84.179 344.736,-79.4579"/>
<polygon fill="midnightblue" stroke="midnightblue" points="348.203,-78.8804 343.991,-69.159 341.222,-79.3855 348.203,-78.8804"/>
</g>
</g>
</svg>
