<?xml version="1.0" encoding="UTF-8" standalone="no"?>
<!DOCTYPE svg PUBLIC "-//W3C//DTD SVG 1.1//EN"
 "http://www.w3.org/Graphics/SVG/1.1/DTD/svg11.dtd">
<!-- Generated by graphviz version 2.38.0 (20140413.2041)
 -->
<!-- Title: koala.Range.RangeCore.order Pages: 1 -->
<svg width="711pt" height="66pt"
 viewBox="0.00 0.00 711.00 66.00" xmlns="http://www.w3.org/2000/svg" xmlns:xlink="http://www.w3.org/1999/xlink">
<g id="graph0" class="graph" transform="scale(1 1) rotate(0) translate(4 62)">
<title>koala.Range.RangeCore.order</title>
<polygon fill="white" stroke="none" points="-4,4 -4,-62 707,-62 707,4 -4,4"/>
<!-- Node105 -->
<g id="node1" class="node"><title>Node105</title>
<g id="a_node1"><a xlink:title=" ">
<polygon fill="#bfbfbf" stroke="black" points="557,-19.5 557,-38.5 703,-38.5 703,-19.5 557,-19.5"/>
<text text-anchor="middle" x="630" y="-26.5" font-family="Helvetica,sans-Serif" font-size="10.00">koala.Range.RangeCore.order</text>
</a>
</g>
</g>
<!-- Node106 -->
<g id="node2" class="node"><title>Node106</title>
<g id="a_node2"><a xlink:href="classkoala_1_1_range_1_1_range_core.html#a6557265240f4ca4f91a448f366f66901" target="_top" xlink:title=" ">
<polygon fill="white" stroke="black" points="0,-38.5 0,-57.5 152,-57.5 152,-38.5 0,-38.5"/>
<text text-anchor="middle" x="76" y="-45.5" font-family="Helvetica,sans-Serif" font-size="10.00">koala.Range.RangeCore.values</text>
</a>
</g>
</g>
<!-- Node105&#45;&gt;Node106 -->
<g id="edge1" class="edge"><title>Node105&#45;&gt;Node106</title>
<path fill="none" stroke="midnightblue" d="M546.76,-31.8307C440.071,-35.503 255.438,-41.8581 152.276,-45.409"/>
<polygon fill="midnightblue" stroke="midnightblue" points="546.962,-35.3259 556.836,-31.4839 546.721,-28.3301 546.962,-35.3259"/>
</g>
<!-- Node107 -->
<g id="node3" class="node"><title>Node107</title>
<g id="a_node3"><a xlink:href="classkoala_1_1_range_1_1_range_core.html#ac19e8ad2bbd1538974240f9be227c9f0" target="_top" xlink:title=" ">
<polygon fill="white" stroke="black" points="376,-0.5 376,-19.5 521,-19.5 521,-0.5 376,-0.5"/>
<text text-anchor="middle" x="448.5" y="-7.5" font-family="Helvetica,sans-Serif" font-size="10.00">koala.Range.RangeCore.cells</text>
</a>
</g>
</g>
<!-- Node105&#45;&gt;Node107 -->
<g id="edge2" class="edge"><title>Node105&#45;&gt;Node107</title>
<path fill="none" stroke="midnightblue" d="M546.74,-20.2928C538.147,-19.3832 529.461,-18.4639 521.002,-17.5684"/>
<polygon fill="midnightblue" stroke="midnightblue" points="546.453,-23.782 556.766,-21.3541 547.19,-16.8208 546.453,-23.782"/>
</g>
<!-- Node108 -->
<g id="node4" class="node"><title>Node108</title>
<g id="a_node4"><a xlink:href="classkoala_1_1_range_1_1_range_core.html#a892d149aed9e699ead26e8647200d859" target="_top" xlink:title=" ">
<polygon fill="white" stroke="black" points="188,-0.5 188,-19.5 340,-19.5 340,-0.5 188,-0.5"/>
<text text-anchor="middle" x="264" y="-7.5" font-family="Helvetica,sans-Serif" font-size="10.00">koala.Range.RangeCore.values</text>
</a>
</g>
</g>
<!-- Node107&#45;&gt;Node108 -->
<g id="edge3" class="edge"><title>Node107&#45;&gt;Node108</title>
<path fill="none" stroke="midnightblue" d="M365.862,-10C357.255,-10 348.532,-10 340.005,-10"/>
<polygon fill="midnightblue" stroke="midnightblue" points="365.895,-13.5001 375.895,-10 365.895,-6.5001 365.895,-13.5001"/>
</g>
<!-- Node108&#45;&gt;Node106 -->
<g id="edge4" class="edge"><title>Node108&#45;&gt;Node106</title>
<path fill="none" stroke="midnightblue" d="M206.175,-21.6095C179.721,-27.014 148.642,-33.3635 123.598,-38.4799"/>
<polygon fill="midnightblue" stroke="midnightblue" points="206.967,-25.0199 216.064,-19.589 205.566,-18.1616 206.967,-25.0199"/>
</g>
<!-- Node109 -->
<g id="node5" class="node"><title>Node109</title>
<g id="a_node5"><a xlink:href="classkoala_1_1_range_1_1_range_core.html#a0ef0d47a2c8903280c6b5dfdd82eb7b6" target="_top" xlink:title=" ">
<polygon fill="white" stroke="black" points="7,-0.5 7,-19.5 145,-19.5 145,-0.5 7,-0.5"/>
<text text-anchor="middle" x="76" y="-7.5" font-family="Helvetica,sans-Serif" font-size="10.00">koala.Range.RangeCore.get</text>
</a>
</g>
</g>
<!-- Node108&#45;&gt;Node109 -->
<g id="edge5" class="edge"><title>Node108&#45;&gt;Node109</title>
<path fill="none" stroke="midnightblue" d="M177.881,-10C166.927,-10 155.825,-10 145.191,-10"/>
<polygon fill="midnightblue" stroke="midnightblue" points="177.883,-13.5001 187.883,-10 177.883,-6.5001 177.883,-13.5001"/>
</g>
</g>
</svg>
