<?xml version="1.0" encoding="UTF-8" standalone="no"?>
<!DOCTYPE svg PUBLIC "-//W3C//DTD SVG 1.1//EN"
 "http://www.w3.org/Graphics/SVG/1.1/DTD/svg11.dtd">
<!-- Generated by graphviz version 2.38.0 (20140413.2041)
 -->
<!-- Title: koala.Spreadsheet.Spreadsheet.eval_pointers_from_ast Pages: 1 -->
<svg width="401pt" height="57pt"
 viewBox="0.00 0.00 401.00 57.00" xmlns="http://www.w3.org/2000/svg" xmlns:xlink="http://www.w3.org/1999/xlink">
<g id="graph0" class="graph" transform="scale(1 1) rotate(0) translate(4 53)">
<title>koala.Spreadsheet.Spreadsheet.eval_pointers_from_ast</title>
<polygon fill="white" stroke="none" points="-4,4 -4,-53 397,-53 397,4 -4,4"/>
<!-- Node175 -->
<g id="node1" class="node"><title>Node175</title>
<g id="a_node1"><a xlink:title=" ">
<polygon fill="#bfbfbf" stroke="black" points="218,-0.5 218,-30.5 393,-30.5 393,-0.5 218,-0.5"/>
<text text-anchor="start" x="226" y="-18.5" font-family="Helvetica,sans-Serif" font-size="10.00">koala.Spreadsheet.Spreadsheet.eval</text>
<text text-anchor="middle" x="305.5" y="-7.5" font-family="Helvetica,sans-Serif" font-size="10.00">_pointers_from_ast</text>
</a>
</g>
</g>
<!-- Node175&#45;&gt;Node175 -->
<g id="edge2" class="edge"><title>Node175&#45;&gt;Node175</title>
<path fill="none" stroke="midnightblue" d="M343.525,-40.9579C338.806,-45.679 326.131,-49 305.5,-49 271.645,-49 259.213,-40.0566 268.206,-30.659"/>
<polygon fill="midnightblue" stroke="midnightblue" points="346.994,-40.386 342.794,-30.659 340.011,-40.8818 346.994,-40.386"/>
</g>
<!-- Node176 -->
<g id="node2" class="node"><title>Node176</title>
<g id="a_node2"><a xlink:href="classkoala_1_1_spreadsheet_1_1_spreadsheet.html#a13c2cbec203d01d4d8404e3954dd27d7" target="_top" xlink:title=" ">
<polygon fill="white" stroke="black" points="0,-0.5 0,-30.5 182,-30.5 182,-0.5 0,-0.5"/>
<text text-anchor="start" x="8" y="-18.5" font-family="Helvetica,sans-Serif" font-size="10.00">koala.Spreadsheet.Spreadsheet.clean</text>
<text text-anchor="middle" x="91" y="-7.5" font-family="Helvetica,sans-Serif" font-size="10.00">_pointer</text>
</a>
</g>
</g>
<!-- Node175&#45;&gt;Node176 -->
<g id="edge1" class="edge"><title>Node175&#45;&gt;Node176</title>
<path fill="none" stroke="midnightblue" d="M207.543,-15.5C199.122,-15.5 190.622,-15.5 182.258,-15.5"/>
<polygon fill="midnightblue" stroke="midnightblue" points="207.762,-19.0001 217.762,-15.5 207.762,-12.0001 207.762,-19.0001"/>
</g>
</g>
</svg>
