<?xml version="1.0" encoding="UTF-8" standalone="no"?>
<!DOCTYPE svg PUBLIC "-//W3C//DTD SVG 1.1//EN"
 "http://www.w3.org/Graphics/SVG/1.1/DTD/svg11.dtd">
<!-- Generated by graphviz version 2.38.0 (20140413.2041)
 -->
<!-- Title: koala.Range.RangeCore.__init__ Pages: 1 -->
<svg width="470pt" height="227pt"
 viewBox="0.00 0.00 470.00 226.50" xmlns="http://www.w3.org/2000/svg" xmlns:xlink="http://www.w3.org/1999/xlink">
<g id="graph0" class="graph" transform="scale(1 1) rotate(0) translate(4 222.5)">
<title>koala.Range.RangeCore.__init__</title>
<polygon fill="white" stroke="none" points="-4,4 -4,-222.5 466,-222.5 466,4 -4,4"/>
<!-- Node0 -->
<g id="node1" class="node"><title>Node0</title>
<g id="a_node1"><a xlink:title=" ">
<polygon fill="#bfbfbf" stroke="black" points="0,-98.5 0,-128.5 125,-128.5 125,-98.5 0,-98.5"/>
<text text-anchor="start" x="8" y="-116.5" font-family="Helvetica,sans-Serif" font-size="10.00">koala.Range.RangeCore.</text>
<text text-anchor="middle" x="62.5" y="-105.5" font-family="Helvetica,sans-Serif" font-size="10.00">__init__</text>
</a>
</g>
</g>
<!-- Node1 -->
<g id="node2" class="node"><title>Node1</title>
<g id="a_node2"><a xlink:href="classkoala_1_1_range_1_1_range_core.html#a1ca6fd140686fe3d5f1683cf296853fc" target="_top" xlink:title=" ">
<polygon fill="white" stroke="black" points="161,-197 161,-216 304,-216 304,-197 161,-197"/>
<text text-anchor="middle" x="232.5" y="-204" font-family="Helvetica,sans-Serif" font-size="10.00">koala.Range.RangeCore.type</text>
</a>
</g>
</g>
<!-- Node0&#45;&gt;Node1 -->
<g id="edge1" class="edge"><title>Node0&#45;&gt;Node1</title>
<path fill="none" stroke="midnightblue" d="M79.4368,-128.745C97.7378,-145.458 129.332,-171.959 161,-187.5 165.836,-189.874 171.01,-191.983 176.276,-193.85"/>
<polygon fill="midnightblue" stroke="midnightblue" points="175.208,-197.183 185.8,-196.954 177.377,-190.527 175.208,-197.183"/>
</g>
<!-- Node2 -->
<g id="node3" class="node"><title>Node2</title>
<g id="a_node3"><a xlink:href="classkoala_1_1_range_1_1_range_core.html#a3318a9145abbede4bc01a474dfe4a916" target="_top" xlink:title=" ">
<polygon fill="white" stroke="black" points="170,-147.5 170,-177.5 295,-177.5 295,-147.5 170,-147.5"/>
<text text-anchor="start" x="178" y="-165.5" font-family="Helvetica,sans-Serif" font-size="10.00">koala.Range.RangeCore.</text>
<text text-anchor="middle" x="232.5" y="-154.5" font-family="Helvetica,sans-Serif" font-size="10.00">__build</text>
</a>
</g>
</g>
<!-- Node0&#45;&gt;Node2 -->
<g id="edge2" class="edge"><title>Node0&#45;&gt;Node2</title>
<path fill="none" stroke="midnightblue" d="M115.276,-128.601C132.603,-133.655 152.086,-139.338 170.077,-144.585"/>
<polygon fill="midnightblue" stroke="midnightblue" points="169.315,-148.008 179.895,-147.448 171.275,-141.288 169.315,-148.008"/>
</g>
<!-- Node3 -->
<g id="node4" class="node"><title>Node3</title>
<g id="a_node4"><a xlink:href="namespacekoala_1_1utils.html#a1d3620df245d23fea05928298cabc2ac" target="_top" xlink:title=" ">
<polygon fill="white" stroke="black" points="185.5,-98.5 185.5,-128.5 279.5,-128.5 279.5,-98.5 185.5,-98.5"/>
<text text-anchor="start" x="193.5" y="-116.5" font-family="Helvetica,sans-Serif" font-size="10.00">koala.utils.resolve</text>
<text text-anchor="middle" x="232.5" y="-105.5" font-family="Helvetica,sans-Serif" font-size="10.00">_range</text>
</a>
</g>
</g>
<!-- Node0&#45;&gt;Node3 -->
<g id="edge3" class="edge"><title>Node0&#45;&gt;Node3</title>
<path fill="none" stroke="midnightblue" d="M125.103,-113.5C141.466,-113.5 159.051,-113.5 175.12,-113.5"/>
<polygon fill="midnightblue" stroke="midnightblue" points="175.432,-117 185.432,-113.5 175.432,-110 175.432,-117"/>
</g>
<!-- Node10 -->
<g id="node11" class="node"><title>Node10</title>
<g id="a_node11"><a xlink:href="namespacekoala_1_1_range.html#a6a4a2138705cb8cc069ddf925e74d2c1" target="_top" xlink:title=" ">
<polygon fill="white" stroke="black" points="173.5,-49.5 173.5,-79.5 291.5,-79.5 291.5,-49.5 173.5,-49.5"/>
<text text-anchor="start" x="181.5" y="-67.5" font-family="Helvetica,sans-Serif" font-size="10.00">koala.Range.parse_cell</text>
<text text-anchor="middle" x="232.5" y="-56.5" font-family="Helvetica,sans-Serif" font-size="10.00">_address</text>
</a>
</g>
</g>
<!-- Node0&#45;&gt;Node10 -->
<g id="edge10" class="edge"><title>Node0&#45;&gt;Node10</title>
<path fill="none" stroke="midnightblue" d="M115.276,-98.3986C132.603,-93.3449 152.086,-87.6624 170.077,-82.4152"/>
<polygon fill="midnightblue" stroke="midnightblue" points="171.275,-85.7116 179.895,-79.5516 169.315,-78.9916 171.275,-85.7116"/>
</g>
<!-- Node11 -->
<g id="node12" class="node"><title>Node11</title>
<g id="a_node12"><a xlink:href="classkoala_1_1_range_1_1_range_core.html#a4e211fbfab68b302ca239f5c5697b9f1" target="_top" xlink:title=" ">
<polygon fill="white" stroke="black" points="166.5,-0.5 166.5,-30.5 298.5,-30.5 298.5,-0.5 166.5,-0.5"/>
<text text-anchor="start" x="174.5" y="-18.5" font-family="Helvetica,sans-Serif" font-size="10.00">koala.Range.RangeCore.is</text>
<text text-anchor="middle" x="232.5" y="-7.5" font-family="Helvetica,sans-Serif" font-size="10.00">_pointer</text>
</a>
</g>
</g>
<!-- Node0&#45;&gt;Node11 -->
<g id="edge11" class="edge"><title>Node0&#45;&gt;Node11</title>
<path fill="none" stroke="midnightblue" d="M79.9652,-98.3359C98.4864,-81.9435 130.041,-55.9604 161,-39.5 164.275,-37.7588 167.701,-36.1064 171.204,-34.5448"/>
<polygon fill="midnightblue" stroke="midnightblue" points="172.72,-37.7047 180.602,-30.6247 170.025,-31.2442 172.72,-37.7047"/>
</g>
<!-- Node4 -->
<g id="node5" class="node"><title>Node4</title>
<g id="a_node5"><a xlink:href="namespacekoala_1_1utils.html#a77ace10251dde2f09a457b7b469208cc" target="_top" xlink:title=" ">
<polygon fill="white" stroke="black" points="345.5,-199 345.5,-218 456.5,-218 456.5,-199 345.5,-199"/>
<text text-anchor="middle" x="401" y="-206" font-family="Helvetica,sans-Serif" font-size="10.00">koala.utils.split_range</text>
</a>
</g>
</g>
<!-- Node3&#45;&gt;Node4 -->
<g id="edge4" class="edge"><title>Node3&#45;&gt;Node4</title>
<path fill="none" stroke="midnightblue" d="M279.595,-125.22C288.201,-128.653 296.755,-133.01 304,-138.5 326.113,-155.257 317.604,-173.123 340,-189.5 342.646,-191.435 345.496,-193.177 348.465,-194.746"/>
<polygon fill="midnightblue" stroke="midnightblue" points="347.099,-197.969 357.649,-198.947 350.011,-191.604 347.099,-197.969"/>
</g>
<!-- Node5 -->
<g id="node6" class="node"><title>Node5</title>
<g id="a_node6"><a xlink:href="namespacekoala_1_1utils.html#a152ac1827f4fdbd036d6e67cdf3acebb" target="_top" xlink:title=" ">
<polygon fill="white" stroke="black" points="350.5,-161 350.5,-180 451.5,-180 451.5,-161 350.5,-161"/>
<text text-anchor="middle" x="401" y="-168" font-family="Helvetica,sans-Serif" font-size="10.00">koala.utils.is_range</text>
</a>
</g>
</g>
<!-- Node3&#45;&gt;Node5 -->
<g id="edge5" class="edge"><title>Node3&#45;&gt;Node5</title>
<path fill="none" stroke="midnightblue" d="M276.014,-128.531C285.244,-131.807 294.952,-135.262 304,-138.5 320.017,-144.232 323.888,-146.042 340,-151.5 346.18,-153.593 352.742,-155.744 359.171,-157.811"/>
<polygon fill="midnightblue" stroke="midnightblue" points="358.501,-161.271 369.091,-160.971 360.625,-154.601 358.501,-161.271"/>
</g>
<!-- Node6 -->
<g id="node7" class="node"><title>Node6</title>
<g id="a_node7"><a xlink:href="namespacekoala_1_1utils.html#a5c70ac45916995934736ab28b501c8c5" target="_top" xlink:title=" ">
<polygon fill="white" stroke="black" points="340,-123 340,-142 462,-142 462,-123 340,-123"/>
<text text-anchor="middle" x="401" y="-130" font-family="Helvetica,sans-Serif" font-size="10.00">koala.utils.split_address</text>
</a>
</g>
</g>
<!-- Node3&#45;&gt;Node6 -->
<g id="edge6" class="edge"><title>Node3&#45;&gt;Node6</title>
<path fill="none" stroke="midnightblue" d="M279.88,-118.793C295.259,-120.548 312.741,-122.543 329.516,-124.457"/>
<polygon fill="midnightblue" stroke="midnightblue" points="329.511,-127.979 339.844,-125.635 330.305,-121.024 329.511,-127.979"/>
</g>
<!-- Node7 -->
<g id="node8" class="node"><title>Node7</title>
<g id="a_node8"><a xlink:href="namespacekoala_1_1utils.html#a65476c62402a00e3d46dbc99b6a4ea88" target="_top" xlink:title=" ">
<polygon fill="white" stroke="black" points="350.5,-85 350.5,-104 451.5,-104 451.5,-85 350.5,-85"/>
<text text-anchor="middle" x="401" y="-92" font-family="Helvetica,sans-Serif" font-size="10.00">koala.utils.col2num</text>
</a>
</g>
</g>
<!-- Node3&#45;&gt;Node7 -->
<g id="edge7" class="edge"><title>Node3&#45;&gt;Node7</title>
<path fill="none" stroke="midnightblue" d="M279.88,-108.207C298.562,-106.076 320.348,-103.589 340.199,-101.324"/>
<polygon fill="midnightblue" stroke="midnightblue" points="340.837,-104.774 350.376,-100.163 340.043,-97.8193 340.837,-104.774"/>
</g>
<!-- Node8 -->
<g id="node9" class="node"><title>Node8</title>
<g id="a_node9"><a xlink:href="namespacekoala_1_1utils.html#a2037076cc5a6fbf884023917a0cbfca7" target="_top" xlink:title=" ">
<polygon fill="white" stroke="black" points="350.5,-47 350.5,-66 451.5,-66 451.5,-47 350.5,-47"/>
<text text-anchor="middle" x="401" y="-54" font-family="Helvetica,sans-Serif" font-size="10.00">koala.utils.num2col</text>
</a>
</g>
</g>
<!-- Node3&#45;&gt;Node8 -->
<g id="edge8" class="edge"><title>Node3&#45;&gt;Node8</title>
<path fill="none" stroke="midnightblue" d="M276.014,-98.4687C285.244,-95.1928 294.952,-91.7379 304,-88.5 320.017,-82.7684 323.888,-80.9578 340,-75.5 346.18,-73.4065 352.742,-71.2558 359.171,-69.1885"/>
<polygon fill="midnightblue" stroke="midnightblue" points="360.625,-72.3988 369.091,-66.0288 358.501,-65.729 360.625,-72.3988"/>
</g>
<!-- Node9 -->
<g id="node10" class="node"><title>Node9</title>
<g id="a_node10"><a xlink:href="namespacekoala_1_1utils.html#aabb45efe6343cf3795888c77a434d47d" target="_top" xlink:title=" ">
<polygon fill="white" stroke="black" points="356,-9 356,-28 446,-28 446,-9 356,-9"/>
<text text-anchor="middle" x="401" y="-16" font-family="Helvetica,sans-Serif" font-size="10.00">koala.utils.flatten</text>
</a>
</g>
</g>
<!-- Node3&#45;&gt;Node9 -->
<g id="edge9" class="edge"><title>Node3&#45;&gt;Node9</title>
<path fill="none" stroke="midnightblue" d="M279.595,-101.78C288.201,-98.3472 296.755,-93.9902 304,-88.5 326.113,-71.7433 317.604,-53.8772 340,-37.5 342.646,-35.5651 345.496,-33.8228 348.465,-32.2544"/>
<polygon fill="midnightblue" stroke="midnightblue" points="350.011,-35.396 357.649,-28.0529 347.099,-29.0306 350.011,-35.396"/>
</g>
</g>
</svg>
