<?xml version="1.0" encoding="UTF-8" standalone="no"?>
<!DOCTYPE svg PUBLIC "-//W3C//DTD SVG 1.1//EN"
 "http://www.w3.org/Graphics/SVG/1.1/DTD/svg11.dtd">
<!-- Generated by graphviz version 2.38.0 (20140413.2041)
 -->
<!-- Title: koala.Range.RangeCore.values Pages: 1 -->
<svg width="523pt" height="28pt"
 viewBox="0.00 0.00 523.00 28.00" xmlns="http://www.w3.org/2000/svg" xmlns:xlink="http://www.w3.org/1999/xlink">
<g id="graph0" class="graph" transform="scale(1 1) rotate(0) translate(4 24)">
<title>koala.Range.RangeCore.values</title>
<polygon fill="white" stroke="none" points="-4,4 -4,-24 519,-24 519,4 -4,4"/>
<!-- Node128 -->
<g id="node1" class="node"><title>Node128</title>
<g id="a_node1"><a xlink:title=" ">
<polygon fill="#bfbfbf" stroke="black" points="0,-0.5 0,-19.5 152,-19.5 152,-0.5 0,-0.5"/>
<text text-anchor="middle" x="76" y="-7.5" font-family="Helvetica,sans-Serif" font-size="10.00">koala.Range.RangeCore.values</text>
</a>
</g>
</g>
<!-- Node129 -->
<g id="node2" class="node"><title>Node129</title>
<g id="a_node2"><a xlink:href="classkoala_1_1_range_1_1_range_core.html#ac19e8ad2bbd1538974240f9be227c9f0" target="_top" xlink:title=" ">
<polygon fill="white" stroke="black" points="188,-0.5 188,-19.5 333,-19.5 333,-0.5 188,-0.5"/>
<text text-anchor="middle" x="260.5" y="-7.5" font-family="Helvetica,sans-Serif" font-size="10.00">koala.Range.RangeCore.cells</text>
</a>
</g>
</g>
<!-- Node128&#45;&gt;Node129 -->
<g id="edge1" class="edge"><title>Node128&#45;&gt;Node129</title>
<path fill="none" stroke="midnightblue" d="M152.02,-10C160.407,-10 168.983,-10 177.453,-10"/>
<polygon fill="midnightblue" stroke="midnightblue" points="177.711,-13.5001 187.711,-10 177.711,-6.5001 177.711,-13.5001"/>
</g>
<!-- Node130 -->
<g id="node3" class="node"><title>Node130</title>
<g id="a_node3"><a xlink:href="classkoala_1_1_range_1_1_range_core.html#a6b84c30dfe7408345056ed69aa8e3730" target="_top" xlink:title=" ">
<polygon fill="white" stroke="black" points="369,-0.5 369,-19.5 515,-19.5 515,-0.5 369,-0.5"/>
<text text-anchor="middle" x="442" y="-7.5" font-family="Helvetica,sans-Serif" font-size="10.00">koala.Range.RangeCore.order</text>
</a>
</g>
</g>
<!-- Node129&#45;&gt;Node130 -->
<g id="edge2" class="edge"><title>Node129&#45;&gt;Node130</title>
<path fill="none" stroke="midnightblue" d="M333.217,-10C341.548,-10 350.095,-10 358.555,-10"/>
<polygon fill="midnightblue" stroke="midnightblue" points="358.811,-13.5001 368.811,-10 358.811,-6.5001 358.811,-13.5001"/>
</g>
</g>
</svg>
