<?xml version="1.0" encoding="UTF-8" standalone="no"?>
<!DOCTYPE svg PUBLIC "-//W3C//DTD SVG 1.1//EN"
 "http://www.w3.org/Graphics/SVG/1.1/DTD/svg11.dtd">
<!-- Generated by graphviz version 2.38.0 (20140413.2041)
 -->
<!-- Title: koala.tokenizer.ExcelParserTokens Pages: 1 -->
<svg width="232pt" height="216pt"
 viewBox="0.00 0.00 231.50 216.00" xmlns="http://www.w3.org/2000/svg" xmlns:xlink="http://www.w3.org/1999/xlink">
<g id="graph0" class="graph" transform="scale(1 1) rotate(0) translate(4 212)">
<title>koala.tokenizer.ExcelParserTokens</title>
<polygon fill="white" stroke="none" points="-4,4 -4,-212 227.5,-212 227.5,4 -4,4"/>
<!-- Node4 -->
<g id="node1" class="node"><title>Node4</title>
<g id="a_node1"><a xlink:title=" ">
<polygon fill="#bfbfbf" stroke="black" points="0,-0.5 0,-30.5 139,-30.5 139,-0.5 0,-0.5"/>
<text text-anchor="start" x="8" y="-18.5" font-family="Helvetica,sans-Serif" font-size="10.00">koala.tokenizer.ExcelParser</text>
<text text-anchor="middle" x="69.5" y="-7.5" font-family="Helvetica,sans-Serif" font-size="10.00">Tokens</text>
</a>
</g>
</g>
<!-- Node5 -->
<g id="node2" class="node"><title>Node5</title>
<g id="a_node2"><a xlink:title=" ">
<polygon fill="white" stroke="#bfbfbf" points="18,-188.5 18,-207.5 61,-207.5 61,-188.5 18,-188.5"/>
<text text-anchor="middle" x="39.5" y="-195.5" font-family="Helvetica,sans-Serif" font-size="10.00">object</text>
</a>
</g>
</g>
<!-- Node5&#45;&gt;Node4 -->
<g id="edge1" class="edge"><title>Node5&#45;&gt;Node4</title>
<path fill="none" stroke="midnightblue" d="M42.6429,-178.09C48.6909,-141.701 61.8223,-62.6941 67.1666,-30.5391"/>
<polygon fill="midnightblue" stroke="midnightblue" points="39.134,-177.856 40.947,-188.294 46.0392,-179.003 39.134,-177.856"/>
</g>
<!-- Node6 -->
<g id="node3" class="node"><title>Node6</title>
<g id="a_node3"><a xlink:title=" ">
<polygon fill="white" stroke="#bfbfbf" points="79,-188.5 79,-207.5 120,-207.5 120,-188.5 79,-188.5"/>
<text text-anchor="middle" x="99.5" y="-195.5" font-family="Helvetica,sans-Serif" font-size="10.00">string</text>
</a>
</g>
</g>
<!-- Node6&#45;&gt;Node4 -->
<g id="edge2" class="edge"><title>Node6&#45;&gt;Node4</title>
<path fill="none" stroke="#9a32cd" stroke-dasharray="5,2" d="M96.3571,-178.09C90.3091,-141.701 77.1777,-62.6941 71.8334,-30.5391"/>
<polygon fill="#9a32cd" stroke="#9a32cd" points="92.9608,-179.003 98.053,-188.294 99.866,-177.856 92.9608,-179.003"/>
<text text-anchor="middle" x="158.5" y="-162" font-family="Helvetica,sans-Serif" font-size="10.00"> TOK_SUBTYPE_RANGE</text>
<text text-anchor="middle" x="158.5" y="-151" font-family="Helvetica,sans-Serif" font-size="10.00">TOK_SUBTYPE_UNION</text>
<text text-anchor="middle" x="158.5" y="-140" font-family="Helvetica,sans-Serif" font-size="10.00">TOK_SUBTYPE_LOGICAL</text>
<text text-anchor="middle" x="158.5" y="-129" font-family="Helvetica,sans-Serif" font-size="10.00">TOK_SUBTYPE_START</text>
<text text-anchor="middle" x="158.5" y="-118" font-family="Helvetica,sans-Serif" font-size="10.00">TOK_TYPE_UNKNOWN</text>
<text text-anchor="middle" x="158.5" y="-107" font-family="Helvetica,sans-Serif" font-size="10.00">TOK_SUBTYPE_INTERSECT</text>
<text text-anchor="middle" x="158.5" y="-96" font-family="Helvetica,sans-Serif" font-size="10.00">TOK_TYPE_OP_IN</text>
<text text-anchor="middle" x="158.5" y="-85" font-family="Helvetica,sans-Serif" font-size="10.00">TOK_TYPE_WSPACE</text>
<text text-anchor="middle" x="158.5" y="-74" font-family="Helvetica,sans-Serif" font-size="10.00">TOK_TYPE_OP_PRE</text>
<text text-anchor="middle" x="158.5" y="-63" font-family="Helvetica,sans-Serif" font-size="10.00">TOK_TYPE_SUBEXPR</text>
<text text-anchor="middle" x="158.5" y="-52" font-family="Helvetica,sans-Serif" font-size="10.00">...</text>
</g>
</g>
</svg>
