<?xml version="1.0" encoding="UTF-8" standalone="no"?>
<!DOCTYPE svg PUBLIC "-//W3C//DTD SVG 1.1//EN"
 "http://www.w3.org/Graphics/SVG/1.1/DTD/svg11.dtd">
<!-- Generated by graphviz version 2.38.0 (20140413.2041)
 -->
<!-- Title: koala.Spreadsheet.Spreadsheet.cell_evaluate Pages: 1 -->
<svg width="1322pt" height="127pt"
 viewBox="0.00 0.00 1322.00 127.00" xmlns="http://www.w3.org/2000/svg" xmlns:xlink="http://www.w3.org/1999/xlink">
<g id="graph0" class="graph" transform="scale(1 1) rotate(0) translate(4 123)">
<title>koala.Spreadsheet.Spreadsheet.cell_evaluate</title>
<polygon fill="white" stroke="none" points="-4,4 -4,-123 1318,-123 1318,4 -4,4"/>
<!-- Node61 -->
<g id="node1" class="node"><title>Node61</title>
<g id="a_node1"><a xlink:title=" ">
<polygon fill="#bfbfbf" stroke="black" points="1141,-44.5 1141,-74.5 1314,-74.5 1314,-44.5 1141,-44.5"/>
<text text-anchor="start" x="1149" y="-62.5" font-family="Helvetica,sans-Serif" font-size="10.00">koala.Spreadsheet.Spreadsheet.cell</text>
<text text-anchor="middle" x="1227.5" y="-51.5" font-family="Helvetica,sans-Serif" font-size="10.00">_evaluate</text>
</a>
</g>
</g>
<!-- Node62 -->
<g id="node2" class="node"><title>Node62</title>
<g id="a_node2"><a xlink:href="classkoala_1_1_spreadsheet_1_1_spreadsheet.html#adec88c8b31c94969a557cf572ee13c44" target="_top" xlink:title=" ">
<polygon fill="white" stroke="black" points="911,-50 911,-69 1105,-69 1105,-50 911,-50"/>
<text text-anchor="middle" x="1008" y="-57" font-family="Helvetica,sans-Serif" font-size="10.00">koala.Spreadsheet.Spreadsheet.evaluate</text>
</a>
</g>
</g>
<!-- Node61&#45;&gt;Node62 -->
<g id="edge1" class="edge"><title>Node61&#45;&gt;Node62</title>
<path fill="none" stroke="midnightblue" d="M1130.67,-52.7925C1122.27,-52.737 1113.76,-52.7359 1105.36,-52.7891"/>
<polygon fill="midnightblue" stroke="midnightblue" points="1130.82,-56.294 1140.85,-52.8872 1130.88,-49.2943 1130.82,-56.294"/>
</g>
<!-- Node62&#45;&gt;Node61 -->
<g id="edge9" class="edge"><title>Node62&#45;&gt;Node61</title>
<path fill="none" stroke="midnightblue" d="M1115.37,-66.2486C1123.91,-66.2589 1132.48,-66.2136 1140.85,-66.1128"/>
<polygon fill="midnightblue" stroke="midnightblue" points="1115.37,-62.7486 1105.36,-66.2109 1115.34,-69.7486 1115.37,-62.7486"/>
</g>
<!-- Node63 -->
<g id="node3" class="node"><title>Node63</title>
<g id="a_node3"><a xlink:href="classkoala_1_1_spreadsheet_1_1_spreadsheet.html#aa7bdaffc24c26fbf18d5b752b7e49df2" target="_top" xlink:title=" ">
<polygon fill="white" stroke="black" points="694.5,-88.5 694.5,-118.5 867.5,-118.5 867.5,-88.5 694.5,-88.5"/>
<text text-anchor="start" x="702.5" y="-106.5" font-family="Helvetica,sans-Serif" font-size="10.00">koala.Spreadsheet.Spreadsheet.cell</text>
<text text-anchor="middle" x="781" y="-95.5" font-family="Helvetica,sans-Serif" font-size="10.00">_set_formula</text>
</a>
</g>
</g>
<!-- Node62&#45;&gt;Node63 -->
<g id="edge2" class="edge"><title>Node62&#45;&gt;Node63</title>
<path fill="none" stroke="midnightblue" d="M948.035,-71.0309C920.825,-76.352 888.166,-82.7387 859.039,-88.4346"/>
<polygon fill="midnightblue" stroke="midnightblue" points="949.036,-74.4016 958.178,-69.0473 947.692,-67.5317 949.036,-74.4016"/>
</g>
<!-- Node65 -->
<g id="node5" class="node"><title>Node65</title>
<g id="a_node5"><a xlink:href="classkoala_1_1_spreadsheet_1_1_spreadsheet.html#a5123890c167cf3b1e9e070886d635e74" target="_top" xlink:title=" ">
<polygon fill="white" stroke="black" points="460,-28 460,-47 651,-47 651,-28 460,-28"/>
<text text-anchor="middle" x="555.5" y="-35" font-family="Helvetica,sans-Serif" font-size="10.00">koala.Spreadsheet.Spreadsheet.eval_ref</text>
</a>
</g>
</g>
<!-- Node62&#45;&gt;Node65 -->
<g id="edge4" class="edge"><title>Node62&#45;&gt;Node65</title>
<path fill="none" stroke="midnightblue" d="M900.87,-54.3172C825.174,-50.6206 724.28,-45.6935 651.283,-42.1287"/>
<polygon fill="midnightblue" stroke="midnightblue" points="900.75,-57.8154 910.909,-54.8074 901.092,-50.8237 900.75,-57.8154"/>
</g>
<!-- Node68 -->
<g id="node8" class="node"><title>Node68</title>
<g id="a_node8"><a xlink:href="classkoala_1_1_spreadsheet_1_1_spreadsheet.html#ae7cc9bec504371c4034626c20eef4271" target="_top" xlink:title=" ">
<polygon fill="white" stroke="black" points="687,-0.5 687,-30.5 875,-30.5 875,-0.5 687,-0.5"/>
<text text-anchor="start" x="695" y="-18.5" font-family="Helvetica,sans-Serif" font-size="10.00">koala.Spreadsheet.Spreadsheet.update</text>
<text text-anchor="middle" x="781" y="-7.5" font-family="Helvetica,sans-Serif" font-size="10.00">_range</text>
</a>
</g>
</g>
<!-- Node62&#45;&gt;Node68 -->
<g id="edge7" class="edge"><title>Node62&#45;&gt;Node68</title>
<path fill="none" stroke="midnightblue" d="M948.035,-47.9691C920.825,-42.648 888.166,-36.2613 859.039,-30.5654"/>
<polygon fill="midnightblue" stroke="midnightblue" points="947.692,-51.4683 958.178,-49.9527 949.036,-44.5984 947.692,-51.4683"/>
</g>
<!-- Node64 -->
<g id="node4" class="node"><title>Node64</title>
<g id="a_node4"><a xlink:href="classkoala_1_1_spreadsheet_1_1_spreadsheet.html#af50724d01ff5b3ae09ecc1bdfbfb0fed" target="_top" xlink:title=" ">
<polygon fill="white" stroke="black" points="469.5,-88.5 469.5,-118.5 641.5,-118.5 641.5,-88.5 469.5,-88.5"/>
<text text-anchor="start" x="477.5" y="-106.5" font-family="Helvetica,sans-Serif" font-size="10.00">koala.Spreadsheet.Spreadsheet.set</text>
<text text-anchor="middle" x="555.5" y="-95.5" font-family="Helvetica,sans-Serif" font-size="10.00">_formula</text>
</a>
</g>
</g>
<!-- Node63&#45;&gt;Node64 -->
<g id="edge3" class="edge"><title>Node63&#45;&gt;Node64</title>
<path fill="none" stroke="midnightblue" d="M684.043,-103.5C669.955,-103.5 655.525,-103.5 641.673,-103.5"/>
<polygon fill="midnightblue" stroke="midnightblue" points="684.228,-107 694.228,-103.5 684.228,-100 684.228,-107"/>
</g>
<!-- Node66 -->
<g id="node6" class="node"><title>Node66</title>
<g id="a_node6"><a xlink:href="classkoala_1_1_spreadsheet_1_1_spreadsheet.html#ab55daaddb95ae9af8b490dabebf22092" target="_top" xlink:title=" ">
<polygon fill="white" stroke="black" points="230,-28 230,-47 424,-47 424,-28 230,-28"/>
<text text-anchor="middle" x="327" y="-35" font-family="Helvetica,sans-Serif" font-size="10.00">koala.Spreadsheet.Spreadsheet.cell_free</text>
</a>
</g>
</g>
<!-- Node65&#45;&gt;Node66 -->
<g id="edge5" class="edge"><title>Node65&#45;&gt;Node66</title>
<path fill="none" stroke="midnightblue" d="M449.503,-37.5C441.062,-37.5 432.56,-37.5 424.185,-37.5"/>
<polygon fill="midnightblue" stroke="midnightblue" points="449.756,-41.0001 459.756,-37.5 449.756,-34.0001 449.756,-41.0001"/>
</g>
<!-- Node67 -->
<g id="node7" class="node"><title>Node67</title>
<g id="a_node7"><a xlink:href="classkoala_1_1_spreadsheet_1_1_spreadsheet.html#aebac3e8edbd3df53d783fd229aa95cf4" target="_top" xlink:title=" ">
<polygon fill="white" stroke="black" points="0,-28 0,-47 194,-47 194,-28 0,-28"/>
<text text-anchor="middle" x="97" y="-35" font-family="Helvetica,sans-Serif" font-size="10.00">koala.Spreadsheet.Spreadsheet.free_cell</text>
</a>
</g>
</g>
<!-- Node66&#45;&gt;Node67 -->
<g id="edge6" class="edge"><title>Node66&#45;&gt;Node67</title>
<path fill="none" stroke="midnightblue" d="M219.957,-37.5C211.395,-37.5 202.773,-37.5 194.286,-37.5"/>
<polygon fill="midnightblue" stroke="midnightblue" points="219.968,-41.0001 229.968,-37.5 219.968,-34.0001 219.968,-41.0001"/>
</g>
<!-- Node68&#45;&gt;Node65 -->
<g id="edge8" class="edge"><title>Node68&#45;&gt;Node65</title>
<path fill="none" stroke="midnightblue" d="M676.875,-25.651C668.355,-26.4896 659.768,-27.3349 651.313,-28.1672"/>
<polygon fill="midnightblue" stroke="midnightblue" points="677.225,-29.1335 686.834,-24.6707 676.539,-22.1672 677.225,-29.1335"/>
</g>
</g>
</svg>
