<?xml version="1.0" encoding="UTF-8" standalone="no"?>
<!DOCTYPE svg PUBLIC "-//W3C//DTD SVG 1.1//EN"
 "http://www.w3.org/Graphics/SVG/1.1/DTD/svg11.dtd">
<!-- Generated by graphviz version 2.38.0 (20140413.2041)
 -->
<!-- Title: koala.Spreadsheet.Spreadsheet.eval_pointers_from_ast Pages: 1 -->
<svg width="354pt" height="71pt"
 viewBox="0.00 0.00 354.00 70.50" xmlns="http://www.w3.org/2000/svg" xmlns:xlink="http://www.w3.org/1999/xlink">
<g id="graph0" class="graph" transform="scale(1 1) rotate(0) translate(4 66.5)">
<title>koala.Spreadsheet.Spreadsheet.eval_pointers_from_ast</title>
<polygon fill="white" stroke="none" points="-4,4 -4,-66.5 350,-66.5 350,4 -4,4"/>
<!-- Node172 -->
<g id="node1" class="node"><title>Node172</title>
<g id="a_node1"><a xlink:title=" ">
<polygon fill="#bfbfbf" stroke="black" points="0,-14 0,-44 175,-44 175,-14 0,-14"/>
<text text-anchor="start" x="8" y="-32" font-family="Helvetica,sans-Serif" font-size="10.00">koala.Spreadsheet.Spreadsheet.eval</text>
<text text-anchor="middle" x="87.5" y="-21" font-family="Helvetica,sans-Serif" font-size="10.00">_pointers_from_ast</text>
</a>
</g>
</g>
<!-- Node172&#45;&gt;Node172 -->
<g id="edge2" class="edge"><title>Node172&#45;&gt;Node172</title>
<path fill="none" stroke="midnightblue" d="M54.3886,-44.159C46.4043,-53.5566 57.4414,-62.5 87.5,-62.5 105.817,-62.5 117.071,-59.179 121.261,-54.4579"/>
<polygon fill="midnightblue" stroke="midnightblue" points="124.734,-53.9189 120.611,-44.159 117.748,-54.3594 124.734,-53.9189"/>
</g>
<!-- Node173 -->
<g id="node2" class="node"><title>Node173</title>
<g id="a_node2"><a xlink:href="namespacekoala_1_1tokenizer.html#aad729e834025da12ee669f20324a9eb8" target="_top" xlink:title=" ">
<polygon fill="white" stroke="black" points="211,-38.5 211,-57.5 346,-57.5 346,-38.5 211,-38.5"/>
<text text-anchor="middle" x="278.5" y="-45.5" font-family="Helvetica,sans-Serif" font-size="10.00">koala.tokenizer.reverse_rpn</text>
</a>
</g>
</g>
<!-- Node172&#45;&gt;Node173 -->
<g id="edge1" class="edge"><title>Node172&#45;&gt;Node173</title>
<path fill="none" stroke="midnightblue" d="M175.256,-37.7215C183.742,-38.5745 192.311,-39.436 200.688,-40.2782"/>
<polygon fill="midnightblue" stroke="midnightblue" points="200.493,-43.7761 210.793,-41.294 201.193,-36.8112 200.493,-43.7761"/>
</g>
<!-- Node174 -->
<g id="node3" class="node"><title>Node174</title>
<g id="a_node3"><a xlink:href="namespacekoala_1_1utils.html#aabb45efe6343cf3795888c77a434d47d" target="_top" xlink:title=" ">
<polygon fill="white" stroke="black" points="233.5,-0.5 233.5,-19.5 323.5,-19.5 323.5,-0.5 233.5,-0.5"/>
<text text-anchor="middle" x="278.5" y="-7.5" font-family="Helvetica,sans-Serif" font-size="10.00">koala.utils.flatten</text>
</a>
</g>
</g>
<!-- Node172&#45;&gt;Node174 -->
<g id="edge3" class="edge"><title>Node172&#45;&gt;Node174</title>
<path fill="none" stroke="midnightblue" d="M175.256,-20.2785C191.577,-18.6378 208.208,-16.9659 223.185,-15.4603"/>
<polygon fill="midnightblue" stroke="midnightblue" points="223.665,-18.9298 233.264,-14.447 222.964,-11.9649 223.665,-18.9298"/>
</g>
</g>
</svg>
