<?xml version="1.0" encoding="UTF-8" standalone="no"?>
<!DOCTYPE svg PUBLIC "-//W3C//DTD SVG 1.1//EN"
 "http://www.w3.org/Graphics/SVG/1.1/DTD/svg11.dtd">
<!-- Generated by graphviz version 2.38.0 (20140413.2041)
 -->
<!-- Title: koala.Spreadsheet.Spreadsheet.detect_alive Pages: 1 -->
<!--zoomable 350 -->
<svg id="main" version="1.1" xmlns="http://www.w3.org/2000/svg" xmlns:xlink="http://www.w3.org/1999/xlink" xml:space="preserve" onload="init(evt)">
<style type="text/css"><![CDATA[
.edge:hover path { stroke: red; }
.edge:hover polygon { stroke: red; fill: red; }
]]></style>
<script type="text/javascript"><![CDATA[
var edges = document.getElementsByTagName('g');
if (edges && edges.length) {
  for (var i=0;i<edges.length;i++) {
    if (edges[i].id.substr(0,4)=='edge') {
      edges[i].setAttribute('class','edge');
    }
  }
}
]]></script>
        <defs>
                <circle id="rim" cx="0" cy="0" r="7"/>
                <circle id="rim2" cx="0" cy="0" r="3.5"/>
                <g id="zoomPlus">
                        <use xlink:href="#rim" fill="#404040">
                                <set attributeName="fill" to="#808080" begin="zoomplus.mouseover" end="zoomplus.mouseout"/>
                        </use>
                        <path d="M-4,0h8M0,-4v8" fill="none" stroke="white" stroke-width="1.5" pointer-events="none"/>
                </g>
                <g id="zoomMin">
                        <use xlink:href="#rim" fill="#404040">
                                <set attributeName="fill" to="#808080" begin="zoomminus.mouseover" end="zoomminus.mouseout"/>
                        </use>
                        <path d="M-4,0h8" fill="none" stroke="white" stroke-width="1.5" pointer-events="none"/>
                </g>
                <g id="dirArrow">
                        <path fill="none" stroke="white" stroke-width="1.5" d="M0,-3.0v7 M-2.5,-0.5L0,-3.0L2.5,-0.5"/>
                </g>
               <g id="resetDef">
                       <use xlink:href="#rim2" fill="#404040">
                               <set attributeName="fill" to="#808080" begin="reset.mouseover" end="reset.mouseout"/>
                       </use>
               </g>
        </defs>

<script type="text/javascript">
var viewWidth = 1147;
var viewHeight = 350;
var sectionId = 'dynsection-21';
</script>
<script xlink:href="svgpan.js"/>
<svg id="graph" class="graph">
<g id="viewport">
<title>koala.Spreadsheet.Spreadsheet.detect_alive</title>
<polygon fill="white" stroke="none" points="-4,4 -4,-345.5 1143,-345.5 1143,4 -4,4"/>
<!-- Node150 -->
<g id="node1" class="node"><title>Node150</title>
<g id="a_node1"><a xlink:title=" ">
<polygon fill="#bfbfbf" stroke="black" points="0,-229 0,-259 185,-259 185,-229 0,-229"/>
<text text-anchor="start" x="8" y="-247" font-family="Helvetica,sans-Serif" font-size="10.00">koala.Spreadsheet.Spreadsheet.detect</text>
<text text-anchor="middle" x="92.5" y="-236" font-family="Helvetica,sans-Serif" font-size="10.00">_alive</text>
</a>
</g>
</g>
<!-- Node151 -->
<g id="node2" class="node"><title>Node151</title>
<g id="a_node2"><a xlink:href="classkoala_1_1_spreadsheet_1_1_spreadsheet.html#a6f233266d3e106c54dc37886dba18e9a" target="_top" xlink:title=" ">
<polygon fill="white" stroke="black" points="221,-229 221,-259 394,-259 394,-229 221,-229"/>
<text text-anchor="start" x="229" y="-247" font-family="Helvetica,sans-Serif" font-size="10.00">koala.Spreadsheet.Spreadsheet.find</text>
<text text-anchor="middle" x="307.5" y="-236" font-family="Helvetica,sans-Serif" font-size="10.00">_pointer_arguments</text>
</a>
</g>
</g>
<!-- Node150&#45;&gt;Node151 -->
<g id="edge1" class="edge"><title>Node150&#45;&gt;Node151</title>
<path fill="none" stroke="midnightblue" d="M185.067,-244C193.484,-244 202.028,-244 210.483,-244"/>
<polygon fill="midnightblue" stroke="midnightblue" points="210.738,-247.5 220.738,-244 210.738,-240.5 210.738,-247.5"/>
</g>
<!-- Node152 -->
<g id="node3" class="node"><title>Node152</title>
<g id="a_node3"><a xlink:href="namespacekoala_1_1_range.html#a6a4a2138705cb8cc069ddf925e74d2c1" target="_top" xlink:title=" ">
<polygon fill="white" stroke="black" points="457,-311 457,-341 575,-341 575,-311 457,-311"/>
<text text-anchor="start" x="465" y="-329" font-family="Helvetica,sans-Serif" font-size="10.00">koala.Range.parse_cell</text>
<text text-anchor="middle" x="516" y="-318" font-family="Helvetica,sans-Serif" font-size="10.00">_address</text>
</a>
</g>
</g>
<!-- Node151&#45;&gt;Node152 -->
<g id="edge2" class="edge"><title>Node151&#45;&gt;Node152</title>
<path fill="none" stroke="midnightblue" d="M337.421,-259.1C361.704,-271.404 397.538,-288.694 430,-301 436.281,-303.381 442.893,-305.678 449.54,-307.849"/>
<polygon fill="midnightblue" stroke="midnightblue" points="448.679,-311.247 459.269,-310.935 450.796,-304.575 448.679,-311.247"/>
</g>
<!-- Node153 -->
<g id="node4" class="node"><title>Node153</title>
<g id="a_node4"><a xlink:href="namespacekoala_1_1ast.html#a76e6cdc1c1338001a6d0c4ac4a038087" target="_top" xlink:title=" ">
<polygon fill="white" stroke="black" points="456,-272.5 456,-291.5 576,-291.5 576,-272.5 456,-272.5"/>
<text text-anchor="middle" x="516" y="-279.5" font-family="Helvetica,sans-Serif" font-size="10.00">koala.ast.shunting_yard</text>
</a>
</g>
</g>
<!-- Node151&#45;&gt;Node153 -->
<g id="edge3" class="edge"><title>Node151&#45;&gt;Node153</title>
<path fill="none" stroke="midnightblue" d="M390.114,-259.019C411.235,-262.905 433.62,-267.025 453.517,-270.686"/>
<polygon fill="midnightblue" stroke="midnightblue" points="452.902,-274.131 463.37,-272.499 454.169,-267.247 452.902,-274.131"/>
</g>
<!-- Node155 -->
<g id="node6" class="node"><title>Node155</title>
<g id="a_node6"><a xlink:href="namespacekoala_1_1ast.html#a36277633c59487f9b1c1b256df41e942" target="_top" xlink:title=" ">
<polygon fill="white" stroke="black" points="467,-234.5 467,-253.5 565,-253.5 565,-234.5 467,-234.5"/>
<text text-anchor="middle" x="516" y="-241.5" font-family="Helvetica,sans-Serif" font-size="10.00">koala.ast.build_ast</text>
</a>
</g>
</g>
<!-- Node151&#45;&gt;Node155 -->
<g id="edge5" class="edge"><title>Node151&#45;&gt;Node155</title>
<path fill="none" stroke="midnightblue" d="M394.281,-244C415.321,-244 437.358,-244 456.759,-244"/>
<polygon fill="midnightblue" stroke="midnightblue" points="456.943,-247.5 466.943,-244 456.943,-240.5 456.943,-247.5"/>
</g>
<!-- Node156 -->
<g id="node7" class="node"><title>Node156</title>
<g id="a_node7"><a xlink:href="namespacekoala_1_1utils.html#aabb45efe6343cf3795888c77a434d47d" target="_top" xlink:title=" ">
<polygon fill="white" stroke="black" points="1033,-193.5 1033,-212.5 1123,-212.5 1123,-193.5 1033,-193.5"/>
<text text-anchor="middle" x="1078" y="-200.5" font-family="Helvetica,sans-Serif" font-size="10.00">koala.utils.flatten</text>
</a>
</g>
</g>
<!-- Node151&#45;&gt;Node156 -->
<g id="edge6" class="edge"><title>Node151&#45;&gt;Node156</title>
<path fill="none" stroke="midnightblue" d="M394.295,-229.259C406.258,-227.591 418.416,-226.099 430,-225 648.953,-204.235 911.22,-202.361 1022.64,-202.63"/>
<polygon fill="midnightblue" stroke="midnightblue" points="1022.94,-206.131 1032.95,-202.662 1022.96,-199.131 1022.94,-206.131"/>
</g>
<!-- Node157 -->
<g id="node8" class="node"><title>Node157</title>
<g id="a_node8"><a xlink:href="classkoala_1_1_spreadsheet_1_1_spreadsheet.html#a8ebd4153a8499a4bf7fdf0bde89f12f0" target="_top" xlink:title=" ">
<polygon fill="white" stroke="black" points="430,-129 430,-159 602,-159 602,-129 430,-129"/>
<text text-anchor="start" x="438" y="-147" font-family="Helvetica,sans-Serif" font-size="10.00">koala.Spreadsheet.Spreadsheet.get</text>
<text text-anchor="middle" x="516" y="-136" font-family="Helvetica,sans-Serif" font-size="10.00">_pointer_arguments_from_ast</text>
</a>
</g>
</g>
<!-- Node151&#45;&gt;Node157 -->
<g id="edge7" class="edge"><title>Node151&#45;&gt;Node157</title>
<path fill="none" stroke="midnightblue" d="M339.863,-228.812C376.004,-211.31 435.473,-182.512 474.936,-163.402"/>
<polygon fill="midnightblue" stroke="midnightblue" points="476.544,-166.512 484.019,-159.003 473.493,-160.212 476.544,-166.512"/>
</g>
<!-- Node154 -->
<g id="node5" class="node"><title>Node154</title>
<g id="a_node5"><a xlink:href="namespacekoala_1_1ast.html#a39876c353cfbf071723ede9b5a59eda4" target="_top" xlink:title=" ">
<polygon fill="white" stroke="black" points="667.5,-272.5 667.5,-291.5 780.5,-291.5 780.5,-272.5 667.5,-272.5"/>
<text text-anchor="middle" x="724" y="-279.5" font-family="Helvetica,sans-Serif" font-size="10.00">koala.ast.create_node</text>
</a>
</g>
</g>
<!-- Node153&#45;&gt;Node154 -->
<g id="edge4" class="edge"><title>Node153&#45;&gt;Node154</title>
<path fill="none" stroke="midnightblue" d="M576.031,-282C601.431,-282 631.223,-282 657.319,-282"/>
<polygon fill="midnightblue" stroke="midnightblue" points="657.497,-285.5 667.497,-282 657.497,-278.5 657.497,-285.5"/>
</g>
<!-- Node157&#45;&gt;Node157 -->
<g id="edge20" class="edge"><title>Node157&#45;&gt;Node157</title>
<path fill="none" stroke="midnightblue" d="M479.752,-159.159C471.011,-168.557 483.094,-177.5 516,-177.5 536.052,-177.5 548.372,-174.179 552.959,-169.458"/>
<polygon fill="midnightblue" stroke="midnightblue" points="556.429,-168.894 552.248,-159.159 549.445,-169.376 556.429,-168.894"/>
</g>
<!-- Node158 -->
<g id="node9" class="node"><title>Node158</title>
<g id="a_node9"><a xlink:href="namespacekoala_1_1utils.html#af016160edea2b46cb26db3ed307c9648" target="_top" xlink:title=" ">
<polygon fill="white" stroke="black" points="859,-158.5 859,-177.5 968,-177.5 968,-158.5 859,-158.5"/>
<text text-anchor="middle" x="913.5" y="-165.5" font-family="Helvetica,sans-Serif" font-size="10.00">koala.utils.is_number</text>
</a>
</g>
</g>
<!-- Node157&#45;&gt;Node158 -->
<g id="edge8" class="edge"><title>Node157&#45;&gt;Node158</title>
<path fill="none" stroke="midnightblue" d="M602.331,-149.178C676.417,-153.674 782.026,-160.083 848.903,-164.141"/>
<polygon fill="midnightblue" stroke="midnightblue" points="848.693,-167.634 858.887,-164.747 849.118,-160.647 848.693,-167.634"/>
</g>
<!-- Node159 -->
<g id="node10" class="node"><title>Node159</title>
<g id="a_node10"><a xlink:href="classkoala_1_1_spreadsheet_1_1_spreadsheet.html#aa23818eb03be8a82c0969bd5338fdf2d" target="_top" xlink:title=" ">
<polygon fill="white" stroke="black" points="638,-91 638,-121 810,-121 810,-91 638,-91"/>
<text text-anchor="start" x="646" y="-109" font-family="Helvetica,sans-Serif" font-size="10.00">koala.Spreadsheet.Spreadsheet.get</text>
<text text-anchor="middle" x="724" y="-98" font-family="Helvetica,sans-Serif" font-size="10.00">_arguments_from_ast</text>
</a>
</g>
</g>
<!-- Node157&#45;&gt;Node159 -->
<g id="edge9" class="edge"><title>Node157&#45;&gt;Node159</title>
<path fill="none" stroke="midnightblue" d="M598.417,-128.981C609.266,-126.98 620.449,-124.917 631.456,-122.887"/>
<polygon fill="midnightblue" stroke="midnightblue" points="632.301,-126.29 641.5,-121.034 631.031,-119.406 632.301,-126.29"/>
</g>
<!-- Node159&#45;&gt;Node158 -->
<g id="edge18" class="edge"><title>Node159&#45;&gt;Node158</title>
<path fill="none" stroke="midnightblue" d="M765.392,-121.074C788.809,-129.632 818.929,-140.332 846,-149 852.997,-151.24 860.448,-153.495 867.737,-155.63"/>
<polygon fill="midnightblue" stroke="midnightblue" points="866.939,-159.042 877.517,-158.453 868.88,-152.317 866.939,-159.042"/>
</g>
<!-- Node159&#45;&gt;Node159 -->
<g id="edge19" class="edge"><title>Node159&#45;&gt;Node159</title>
<path fill="none" stroke="midnightblue" d="M691.237,-121.159C683.337,-130.557 694.258,-139.5 724,-139.5 742.124,-139.5 753.259,-136.179 757.405,-131.458"/>
<polygon fill="midnightblue" stroke="midnightblue" points="760.879,-130.922 756.763,-121.159 753.892,-131.358 760.879,-130.922"/>
</g>
<!-- Node160 -->
<g id="node11" class="node"><title>Node160</title>
<g id="a_node11"><a xlink:href="namespacekoala_1_1tokenizer.html#aad729e834025da12ee669f20324a9eb8" target="_top" xlink:title=" ">
<polygon fill="white" stroke="black" points="846,-120.5 846,-139.5 981,-139.5 981,-120.5 846,-120.5"/>
<text text-anchor="middle" x="913.5" y="-127.5" font-family="Helvetica,sans-Serif" font-size="10.00">koala.tokenizer.reverse_rpn</text>
</a>
</g>
</g>
<!-- Node159&#45;&gt;Node160 -->
<g id="edge10" class="edge"><title>Node159&#45;&gt;Node160</title>
<path fill="none" stroke="midnightblue" d="M810.246,-116.911C818.705,-117.994 827.258,-119.089 835.625,-120.16"/>
<polygon fill="midnightblue" stroke="midnightblue" points="835.357,-123.654 845.721,-121.452 836.246,-116.711 835.357,-123.654"/>
</g>
<!-- Node161 -->
<g id="node12" class="node"><title>Node161</title>
<g id="a_node12"><a xlink:href="namespacekoala_1_1utils.html#a1d3620df245d23fea05928298cabc2ac" target="_top" xlink:title=" ">
<polygon fill="white" stroke="black" points="866.5,-71 866.5,-101 960.5,-101 960.5,-71 866.5,-71"/>
<text text-anchor="start" x="874.5" y="-89" font-family="Helvetica,sans-Serif" font-size="10.00">koala.utils.resolve</text>
<text text-anchor="middle" x="913.5" y="-78" font-family="Helvetica,sans-Serif" font-size="10.00">_range</text>
</a>
</g>
</g>
<!-- Node159&#45;&gt;Node161 -->
<g id="edge11" class="edge"><title>Node159&#45;&gt;Node161</title>
<path fill="none" stroke="midnightblue" d="M810.246,-96.9071C825.815,-95.2464 841.7,-93.552 856.163,-92.0093"/>
<polygon fill="midnightblue" stroke="midnightblue" points="856.846,-95.4564 866.418,-90.9154 856.104,-88.4958 856.846,-95.4564"/>
</g>
<!-- Node161&#45;&gt;Node156 -->
<g id="edge17" class="edge"><title>Node161&#45;&gt;Node156</title>
<path fill="none" stroke="midnightblue" d="M960.663,-98.2335C968.002,-101.562 975.106,-105.749 981,-111 1007.12,-134.27 990.782,-157.837 1017,-181 1020.46,-184.058 1024.38,-186.703 1028.52,-188.988"/>
<polygon fill="midnightblue" stroke="midnightblue" points="1027.31,-192.289 1037.85,-193.439 1030.33,-185.972 1027.31,-192.289"/>
</g>
<!-- Node162 -->
<g id="node13" class="node"><title>Node162</title>
<g id="a_node13"><a xlink:href="namespacekoala_1_1utils.html#a77ace10251dde2f09a457b7b469208cc" target="_top" xlink:title=" ">
<polygon fill="white" stroke="black" points="1022.5,-152.5 1022.5,-171.5 1133.5,-171.5 1133.5,-152.5 1022.5,-152.5"/>
<text text-anchor="middle" x="1078" y="-159.5" font-family="Helvetica,sans-Serif" font-size="10.00">koala.utils.split_range</text>
</a>
</g>
</g>
<!-- Node161&#45;&gt;Node162 -->
<g id="edge12" class="edge"><title>Node161&#45;&gt;Node162</title>
<path fill="none" stroke="midnightblue" d="M960.612,-100.798C967.646,-103.77 974.664,-107.175 981,-111 999.327,-122.063 998.387,-132.425 1017,-143 1020.74,-145.125 1024.75,-147.046 1028.86,-148.775"/>
<polygon fill="midnightblue" stroke="midnightblue" points="1027.95,-152.174 1038.54,-152.468 1030.44,-145.634 1027.95,-152.174"/>
</g>
<!-- Node163 -->
<g id="node14" class="node"><title>Node163</title>
<g id="a_node14"><a xlink:href="namespacekoala_1_1utils.html#a152ac1827f4fdbd036d6e67cdf3acebb" target="_top" xlink:title=" ">
<polygon fill="white" stroke="black" points="1027.5,-114.5 1027.5,-133.5 1128.5,-133.5 1128.5,-114.5 1027.5,-114.5"/>
<text text-anchor="middle" x="1078" y="-121.5" font-family="Helvetica,sans-Serif" font-size="10.00">koala.utils.is_range</text>
</a>
</g>
</g>
<!-- Node161&#45;&gt;Node163 -->
<g id="edge13" class="edge"><title>Node161&#45;&gt;Node163</title>
<path fill="none" stroke="midnightblue" d="M960.631,-96.7876C981.113,-101.577 1005.28,-107.229 1026.27,-112.137"/>
<polygon fill="midnightblue" stroke="midnightblue" points="1025.75,-115.611 1036.29,-114.48 1027.35,-108.795 1025.75,-115.611"/>
</g>
<!-- Node164 -->
<g id="node15" class="node"><title>Node164</title>
<g id="a_node15"><a xlink:href="namespacekoala_1_1utils.html#a5c70ac45916995934736ab28b501c8c5" target="_top" xlink:title=" ">
<polygon fill="white" stroke="black" points="1017,-76.5 1017,-95.5 1139,-95.5 1139,-76.5 1017,-76.5"/>
<text text-anchor="middle" x="1078" y="-83.5" font-family="Helvetica,sans-Serif" font-size="10.00">koala.utils.split_address</text>
</a>
</g>
</g>
<!-- Node161&#45;&gt;Node164 -->
<g id="edge14" class="edge"><title>Node161&#45;&gt;Node164</title>
<path fill="none" stroke="midnightblue" d="M960.631,-86C974.948,-86 991.066,-86 1006.64,-86"/>
<polygon fill="midnightblue" stroke="midnightblue" points="1006.77,-89.5001 1016.77,-86 1006.77,-82.5001 1006.77,-89.5001"/>
</g>
<!-- Node165 -->
<g id="node16" class="node"><title>Node165</title>
<g id="a_node16"><a xlink:href="namespacekoala_1_1utils.html#a65476c62402a00e3d46dbc99b6a4ea88" target="_top" xlink:title=" ">
<polygon fill="white" stroke="black" points="1027.5,-38.5 1027.5,-57.5 1128.5,-57.5 1128.5,-38.5 1027.5,-38.5"/>
<text text-anchor="middle" x="1078" y="-45.5" font-family="Helvetica,sans-Serif" font-size="10.00">koala.utils.col2num</text>
</a>
</g>
</g>
<!-- Node161&#45;&gt;Node165 -->
<g id="edge15" class="edge"><title>Node161&#45;&gt;Node165</title>
<path fill="none" stroke="midnightblue" d="M960.631,-75.2124C981.113,-70.4228 1005.28,-64.771 1026.27,-59.8628"/>
<polygon fill="midnightblue" stroke="midnightblue" points="1027.35,-63.2052 1036.29,-57.5201 1025.75,-56.3891 1027.35,-63.2052"/>
</g>
<!-- Node166 -->
<g id="node17" class="node"><title>Node166</title>
<g id="a_node17"><a xlink:href="namespacekoala_1_1utils.html#a2037076cc5a6fbf884023917a0cbfca7" target="_top" xlink:title=" ">
<polygon fill="white" stroke="black" points="1027.5,-0.5 1027.5,-19.5 1128.5,-19.5 1128.5,-0.5 1027.5,-0.5"/>
<text text-anchor="middle" x="1078" y="-7.5" font-family="Helvetica,sans-Serif" font-size="10.00">koala.utils.num2col</text>
</a>
</g>
</g>
<!-- Node161&#45;&gt;Node166 -->
<g id="edge16" class="edge"><title>Node161&#45;&gt;Node166</title>
<path fill="none" stroke="midnightblue" d="M938.242,-70.9953C958.584,-58.5839 988.954,-41.093 1017,-29 1022.08,-26.8098 1027.5,-24.7429 1032.92,-22.836"/>
<polygon fill="midnightblue" stroke="midnightblue" points="1034.24,-26.0829 1042.61,-19.5846 1032.02,-19.4463 1034.24,-26.0829"/>
</g>
</g>
</svg>
        <g id="navigator" transform="translate(0 0)" fill="#404254">
                <rect fill="#f2f5e9" fill-opacity="0.5" stroke="#606060" stroke-width=".5" x="0" y="0" width="60" height="60"/>
                <use id="zoomplus" xlink:href="#zoomPlus" x="17" y="9" onmousedown="handleZoom(evt,'in')"/>
                <use id="zoomminus" xlink:href="#zoomMin" x="42" y="9" onmousedown="handleZoom(evt,'out')"/>
                <use id="reset" xlink:href="#resetDef" x="30" y="36" onmousedown="handleReset()"/>
                <g id="arrowUp" xlink:href="#dirArrow" transform="translate(30 24)" onmousedown="handlePan(0,-1)">
                  <use xlink:href="#rim" fill="#404040">
                        <set attributeName="fill" to="#808080" begin="arrowUp.mouseover" end="arrowUp.mouseout"/>
                  </use>
                  <path fill="none" stroke="white" stroke-width="1.5" d="M0,-3.0v7 M-2.5,-0.5L0,-3.0L2.5,-0.5"/>
                </g>
                <g id="arrowRight" xlink:href="#dirArrow" transform="rotate(90) translate(36 -43)" onmousedown="handlePan(1,0)">
                  <use xlink:href="#rim" fill="#404040">
                        <set attributeName="fill" to="#808080" begin="arrowRight.mouseover" end="arrowRight.mouseout"/>
                  </use>
                  <path fill="none" stroke="white" stroke-width="1.5" d="M0,-3.0v7 M-2.5,-0.5L0,-3.0L2.5,-0.5"/>
                </g>
                <g id="arrowDown" xlink:href="#dirArrow" transform="rotate(180) translate(-30 -48)" onmousedown="handlePan(0,1)">
                  <use xlink:href="#rim" fill="#404040">
                        <set attributeName="fill" to="#808080" begin="arrowDown.mouseover" end="arrowDown.mouseout"/>
                  </use>
                  <path fill="none" stroke="white" stroke-width="1.5" d="M0,-3.0v7 M-2.5,-0.5L0,-3.0L2.5,-0.5"/>
                </g>
                <g id="arrowLeft" xlink:href="#dirArrow" transform="rotate(270) translate(-36 17)" onmousedown="handlePan(-1,0)">
                  <use xlink:href="#rim" fill="#404040">
                        <set attributeName="fill" to="#808080" begin="arrowLeft.mouseover" end="arrowLeft.mouseout"/>
                  </use>
                  <path fill="none" stroke="white" stroke-width="1.5" d="M0,-3.0v7 M-2.5,-0.5L0,-3.0L2.5,-0.5"/>
                </g>
        </g>
        <svg viewBox="0 0 15 15" width="100%" height="30px" preserveAspectRatio="xMaxYMin meet">
         <g id="arrow_out" transform="scale(0.3 0.3)">
          <a xlink:href="classkoala_1_1_spreadsheet_1_1_spreadsheet_a988fc1ddf090bf9746135ce759907a5a_cgraph_org.svg" target="_base">
           <rect id="button" ry="5" rx="5" y="6" x="6" height="38" width="38"
                fill="#f2f5e9" fill-opacity="0.5" stroke="#606060" stroke-width="1.0"/>
           <path id="arrow"
             d="M 11.500037,31.436501 C 11.940474,20.09759 22.043105,11.32322 32.158766,21.979434 L 37.068811,17.246167 C 37.068811,17.246167 37.088388,32 37.088388,32 L 22.160133,31.978069 C 22.160133,31.978069 26.997745,27.140456 26.997745,27.140456 C 18.528582,18.264221 13.291696,25.230495 11.500037,31.436501 z"
             style="fill:#404040;"/>
          </a>
         </g>
        </svg>
</svg>
