<?xml version="1.0" encoding="UTF-8" standalone="no"?>
<!DOCTYPE svg PUBLIC "-//W3C//DTD SVG 1.1//EN"
 "http://www.w3.org/Graphics/SVG/1.1/DTD/svg11.dtd">
<!-- Generated by graphviz version 2.38.0 (20140413.2041)
 -->
<!-- Title: koala.Spreadsheet.Spreadsheet.set_value Pages: 1 -->
<!--zoomable 369 -->
<svg id="main" version="1.1" xmlns="http://www.w3.org/2000/svg" xmlns:xlink="http://www.w3.org/1999/xlink" xml:space="preserve" onload="init(evt)">
<style type="text/css"><![CDATA[
.edge:hover path { stroke: red; }
.edge:hover polygon { stroke: red; fill: red; }
]]></style>
<script type="text/javascript"><![CDATA[
var edges = document.getElementsByTagName('g');
if (edges && edges.length) {
  for (var i=0;i<edges.length;i++) {
    if (edges[i].id.substr(0,4)=='edge') {
      edges[i].setAttribute('class','edge');
    }
  }
}
]]></script>
        <defs>
                <circle id="rim" cx="0" cy="0" r="7"/>
                <circle id="rim2" cx="0" cy="0" r="3.5"/>
                <g id="zoomPlus">
                        <use xlink:href="#rim" fill="#404040">
                                <set attributeName="fill" to="#808080" begin="zoomplus.mouseover" end="zoomplus.mouseout"/>
                        </use>
                        <path d="M-4,0h8M0,-4v8" fill="none" stroke="white" stroke-width="1.5" pointer-events="none"/>
                </g>
                <g id="zoomMin">
                        <use xlink:href="#rim" fill="#404040">
                                <set attributeName="fill" to="#808080" begin="zoomminus.mouseover" end="zoomminus.mouseout"/>
                        </use>
                        <path d="M-4,0h8" fill="none" stroke="white" stroke-width="1.5" pointer-events="none"/>
                </g>
                <g id="dirArrow">
                        <path fill="none" stroke="white" stroke-width="1.5" d="M0,-3.0v7 M-2.5,-0.5L0,-3.0L2.5,-0.5"/>
                </g>
               <g id="resetDef">
                       <use xlink:href="#rim2" fill="#404040">
                               <set attributeName="fill" to="#808080" begin="reset.mouseover" end="reset.mouseout"/>
                       </use>
               </g>
        </defs>

<script type="text/javascript">
var viewWidth = 1318;
var viewHeight = 369;
var sectionId = 'dynsection-46';
</script>
<script xlink:href="svgpan.js"/>
<svg id="graph" class="graph">
<g id="viewport">
<title>koala.Spreadsheet.Spreadsheet.set_value</title>
<polygon fill="white" stroke="none" points="-4,4 -4,-364.5 1314,-364.5 1314,4 -4,4"/>
<!-- Node325 -->
<g id="node1" class="node"><title>Node325</title>
<g id="a_node1"><a xlink:title=" ">
<polygon fill="#bfbfbf" stroke="black" points="0,-197 0,-227 172,-227 172,-197 0,-197"/>
<text text-anchor="start" x="8" y="-215" font-family="Helvetica,sans-Serif" font-size="10.00">koala.Spreadsheet.Spreadsheet.set</text>
<text text-anchor="middle" x="86" y="-204" font-family="Helvetica,sans-Serif" font-size="10.00">_value</text>
</a>
</g>
</g>
<!-- Node326 -->
<g id="node2" class="node"><title>Node326</title>
<g id="a_node2"><a xlink:href="classkoala_1_1_spreadsheet_1_1_spreadsheet.html#a2f695c5a3bc3f8812609bd2ba4ebb784" target="_top" xlink:title=" ">
<polygon fill="white" stroke="black" points="208,-197 208,-227 381,-227 381,-197 208,-197"/>
<text text-anchor="start" x="216" y="-215" font-family="Helvetica,sans-Serif" font-size="10.00">koala.Spreadsheet.Spreadsheet.cell</text>
<text text-anchor="middle" x="294.5" y="-204" font-family="Helvetica,sans-Serif" font-size="10.00">_set_value</text>
</a>
</g>
</g>
<!-- Node325&#45;&gt;Node326 -->
<g id="edge1" class="edge"><title>Node325&#45;&gt;Node326</title>
<path fill="none" stroke="midnightblue" d="M172.184,-212C180.648,-212 189.28,-212 197.841,-212"/>
<polygon fill="midnightblue" stroke="midnightblue" points="197.845,-215.5 207.845,-212 197.845,-208.5 197.845,-215.5"/>
</g>
<!-- Node327 -->
<g id="node3" class="node"><title>Node327</title>
<g id="a_node3"><a xlink:href="classkoala_1_1_spreadsheet_1_1_spreadsheet.html#a9d7718c6c87f06155aea63d7e12344f3" target="_top" xlink:title=" ">
<polygon fill="white" stroke="black" points="420,-264.5 420,-283.5 608,-283.5 608,-264.5 420,-264.5"/>
<text text-anchor="middle" x="514" y="-271.5" font-family="Helvetica,sans-Serif" font-size="10.00">koala.Spreadsheet.Spreadsheet.fix_cell</text>
</a>
</g>
</g>
<!-- Node326&#45;&gt;Node327 -->
<g id="edge2" class="edge"><title>Node326&#45;&gt;Node327</title>
<path fill="none" stroke="midnightblue" d="M334.772,-227.002C358.373,-235.658 389.138,-246.316 417,-254 427.916,-257.011 439.641,-259.807 451.017,-262.297"/>
<polygon fill="midnightblue" stroke="midnightblue" points="450.385,-265.741 460.895,-264.404 451.845,-258.895 450.385,-265.741"/>
</g>
<!-- Node329 -->
<g id="node5" class="node"><title>Node329</title>
<g id="a_node5"><a xlink:href="classkoala_1_1_spreadsheet_1_1_spreadsheet.html#a6a30676c4bbc56ea5d6f78f073312b6e" target="_top" xlink:title=" ">
<polygon fill="white" stroke="black" points="427.5,-197 427.5,-227 600.5,-227 600.5,-197 427.5,-197"/>
<text text-anchor="start" x="435.5" y="-215" font-family="Helvetica,sans-Serif" font-size="10.00">koala.Spreadsheet.Spreadsheet.cell</text>
<text text-anchor="middle" x="514" y="-204" font-family="Helvetica,sans-Serif" font-size="10.00">_reset</text>
</a>
</g>
</g>
<!-- Node326&#45;&gt;Node329 -->
<g id="edge4" class="edge"><title>Node326&#45;&gt;Node329</title>
<path fill="none" stroke="midnightblue" d="M381.15,-212C393.037,-212 405.311,-212 417.366,-212"/>
<polygon fill="midnightblue" stroke="midnightblue" points="417.429,-215.5 427.428,-212 417.428,-208.5 417.429,-215.5"/>
</g>
<!-- Node330 -->
<g id="node6" class="node"><title>Node330</title>
<g id="a_node6"><a xlink:href="classkoala_1_1_spreadsheet_1_1_spreadsheet.html#affd17089825c4b3391c4d6b9b702209c" target="_top" xlink:title=" ">
<polygon fill="white" stroke="black" points="417,-158.5 417,-177.5 611,-177.5 611,-158.5 417,-158.5"/>
<text text-anchor="middle" x="514" y="-165.5" font-family="Helvetica,sans-Serif" font-size="10.00">koala.Spreadsheet.Spreadsheet.cell_add</text>
</a>
</g>
</g>
<!-- Node326&#45;&gt;Node330 -->
<g id="edge6" class="edge"><title>Node326&#45;&gt;Node330</title>
<path fill="none" stroke="midnightblue" d="M368.081,-196.972C384.183,-193.664 401.168,-190.196 417,-187 428.97,-184.584 441.786,-182.027 454.03,-179.598"/>
<polygon fill="midnightblue" stroke="midnightblue" points="455.019,-182.971 464.148,-177.595 453.659,-176.104 455.019,-182.971"/>
</g>
<!-- Node328 -->
<g id="node4" class="node"><title>Node328</title>
<g id="a_node4"><a xlink:href="classkoala_1_1_spreadsheet_1_1_spreadsheet.html#a89ffab272ebf76d8e0e331c95234dd2a" target="_top" xlink:title=" ">
<polygon fill="white" stroke="black" points="647,-264.5 647,-283.5 835,-283.5 835,-264.5 647,-264.5"/>
<text text-anchor="middle" x="741" y="-271.5" font-family="Helvetica,sans-Serif" font-size="10.00">koala.Spreadsheet.Spreadsheet.cell_fix</text>
</a>
</g>
</g>
<!-- Node327&#45;&gt;Node328 -->
<g id="edge3" class="edge"><title>Node327&#45;&gt;Node328</title>
<path fill="none" stroke="midnightblue" d="M608.14,-274C617.551,-274 627.149,-274 636.658,-274"/>
<polygon fill="midnightblue" stroke="midnightblue" points="636.93,-277.5 646.93,-274 636.93,-270.5 636.93,-277.5"/>
</g>
<!-- Node329&#45;&gt;Node329 -->
<g id="edge5" class="edge"><title>Node329&#45;&gt;Node329</title>
<path fill="none" stroke="midnightblue" d="M476.009,-227.159C466.848,-236.557 479.512,-245.5 514,-245.5 535.016,-245.5 547.928,-242.179 552.736,-237.458"/>
<polygon fill="midnightblue" stroke="midnightblue" points="556.203,-236.88 551.991,-227.159 549.222,-237.385 556.203,-236.88"/>
</g>
<!-- Node331 -->
<g id="node7" class="node"><title>Node331</title>
<g id="a_node7"><a xlink:href="namespacekoala_1_1ast.html#aa55446c8aa764f09775f006ee775ec7b" target="_top" xlink:title=" ">
<polygon fill="white" stroke="black" points="687.5,-153 687.5,-183 794.5,-183 794.5,-153 687.5,-153"/>
<text text-anchor="start" x="695.5" y="-171" font-family="Helvetica,sans-Serif" font-size="10.00">koala.ast.graph_from</text>
<text text-anchor="middle" x="741" y="-160" font-family="Helvetica,sans-Serif" font-size="10.00">_seeds</text>
</a>
</g>
</g>
<!-- Node330&#45;&gt;Node331 -->
<g id="edge7" class="edge"><title>Node330&#45;&gt;Node331</title>
<path fill="none" stroke="midnightblue" d="M611.073,-168C633.45,-168 656.713,-168 677.218,-168"/>
<polygon fill="midnightblue" stroke="midnightblue" points="677.357,-171.5 687.357,-168 677.357,-164.5 677.357,-171.5"/>
</g>
<!-- Node332 -->
<g id="node8" class="node"><title>Node332</title>
<g id="a_node8"><a xlink:href="namespacekoala_1_1ast.html#abb76e7037309a032effde5e5078a86e2" target="_top" xlink:title=" ">
<polygon fill="white" stroke="black" points="886.5,-272.5 886.5,-291.5 987.5,-291.5 987.5,-272.5 886.5,-272.5"/>
<text text-anchor="middle" x="937" y="-279.5" font-family="Helvetica,sans-Serif" font-size="10.00">koala.ast.cell2code</text>
</a>
</g>
</g>
<!-- Node331&#45;&gt;Node332 -->
<g id="edge8" class="edge"><title>Node331&#45;&gt;Node332</title>
<path fill="none" stroke="midnightblue" d="M758.667,-183.318C782.101,-204.109 826.878,-241.163 871,-263 875.623,-265.288 880.571,-267.35 885.596,-269.196"/>
<polygon fill="midnightblue" stroke="midnightblue" points="884.696,-272.586 895.291,-272.483 886.944,-265.957 884.696,-272.586"/>
</g>
<!-- Node337 -->
<g id="node13" class="node"><title>Node337</title>
<g id="a_node13"><a xlink:href="namespacekoala_1_1utils.html#ac7f70de24f29847f700db5eb4cad018c" target="_top" xlink:title=" ">
<polygon fill="white" stroke="black" points="886,-234.5 886,-253.5 988,-253.5 988,-234.5 886,-234.5"/>
<text text-anchor="middle" x="937" y="-241.5" font-family="Helvetica,sans-Serif" font-size="10.00">koala.utils.uniqueify</text>
</a>
</g>
</g>
<!-- Node331&#45;&gt;Node337 -->
<g id="edge13" class="edge"><title>Node331&#45;&gt;Node337</title>
<path fill="none" stroke="midnightblue" d="M778.585,-183.082C804.348,-193.62 839.688,-207.911 871,-220 880.412,-223.634 890.633,-227.462 900.123,-230.968"/>
<polygon fill="midnightblue" stroke="midnightblue" points="899.09,-234.317 909.684,-234.483 901.506,-227.747 899.09,-234.317"/>
</g>
<!-- Node338 -->
<g id="node14" class="node"><title>Node338</title>
<g id="a_node14"><a xlink:href="namespacekoala_1_1utils.html#a152ac1827f4fdbd036d6e67cdf3acebb" target="_top" xlink:title=" ">
<polygon fill="white" stroke="black" points="1049.5,-196.5 1049.5,-215.5 1150.5,-215.5 1150.5,-196.5 1049.5,-196.5"/>
<text text-anchor="middle" x="1100" y="-203.5" font-family="Helvetica,sans-Serif" font-size="10.00">koala.utils.is_range</text>
</a>
</g>
</g>
<!-- Node331&#45;&gt;Node338 -->
<g id="edge14" class="edge"><title>Node331&#45;&gt;Node338</title>
<path fill="none" stroke="midnightblue" d="M794.717,-173.76C818.085,-176.303 845.912,-179.318 871,-182 928.03,-188.096 993.099,-194.934 1039.09,-199.747"/>
<polygon fill="midnightblue" stroke="midnightblue" points="1038.87,-203.243 1049.18,-200.803 1039.6,-196.281 1038.87,-203.243"/>
</g>
<!-- Node339 -->
<g id="node15" class="node"><title>Node339</title>
<g id="a_node15"><a xlink:href="namespacekoala_1_1ast.html#a3d0179539d74f2668d3917bf28d2edd8" target="_top" xlink:title=" ">
<polygon fill="white" stroke="black" points="874,-310.5 874,-329.5 1000,-329.5 1000,-310.5 874,-310.5"/>
<text text-anchor="middle" x="937" y="-317.5" font-family="Helvetica,sans-Serif" font-size="10.00">koala.ast.prepare_pointer</text>
</a>
</g>
</g>
<!-- Node331&#45;&gt;Node339 -->
<g id="edge15" class="edge"><title>Node331&#45;&gt;Node339</title>
<path fill="none" stroke="midnightblue" d="M759.913,-183.271C779.233,-200.074 810.514,-228.257 835,-255 852.532,-274.147 849.509,-286.436 871,-301 874.051,-303.067 877.329,-304.913 880.733,-306.561"/>
<polygon fill="midnightblue" stroke="midnightblue" points="879.395,-309.795 889.968,-310.475 882.127,-303.35 879.395,-309.795"/>
</g>
<!-- Node340 -->
<g id="node16" class="node"><title>Node340</title>
<g id="a_node16"><a xlink:href="namespacekoala_1_1utils.html#a1d3620df245d23fea05928298cabc2ac" target="_top" xlink:title=" ">
<polygon fill="white" stroke="black" points="890,-109 890,-139 984,-139 984,-109 890,-109"/>
<text text-anchor="start" x="898" y="-127" font-family="Helvetica,sans-Serif" font-size="10.00">koala.utils.resolve</text>
<text text-anchor="middle" x="937" y="-116" font-family="Helvetica,sans-Serif" font-size="10.00">_range</text>
</a>
</g>
</g>
<!-- Node331&#45;&gt;Node340 -->
<g id="edge19" class="edge"><title>Node331&#45;&gt;Node340</title>
<path fill="none" stroke="midnightblue" d="M794.755,-156.035C821.12,-150.055 853.036,-142.817 879.854,-136.734"/>
<polygon fill="midnightblue" stroke="midnightblue" points="880.882,-140.09 889.86,-134.465 879.333,-133.263 880.882,-140.09"/>
</g>
<!-- Node342 -->
<g id="node18" class="node"><title>Node342</title>
<g id="a_node18"><a xlink:href="namespacekoala_1_1utils.html#a5c70ac45916995934736ab28b501c8c5" target="_top" xlink:title=" ">
<polygon fill="white" stroke="black" points="1039,-158.5 1039,-177.5 1161,-177.5 1161,-158.5 1039,-158.5"/>
<text text-anchor="middle" x="1100" y="-165.5" font-family="Helvetica,sans-Serif" font-size="10.00">koala.utils.split_address</text>
</a>
</g>
</g>
<!-- Node331&#45;&gt;Node342 -->
<g id="edge26" class="edge"><title>Node331&#45;&gt;Node342</title>
<path fill="none" stroke="midnightblue" d="M794.677,-168C856.664,-168 959.84,-168 1028.63,-168"/>
<polygon fill="midnightblue" stroke="midnightblue" points="1028.94,-171.5 1038.94,-168 1028.94,-164.5 1028.94,-171.5"/>
</g>
<!-- Node343 -->
<g id="node19" class="node"><title>Node343</title>
<g id="a_node19"><a xlink:href="namespacekoala_1_1utils.html#a65476c62402a00e3d46dbc99b6a4ea88" target="_top" xlink:title=" ">
<polygon fill="white" stroke="black" points="1049.5,-44.5 1049.5,-63.5 1150.5,-63.5 1150.5,-44.5 1049.5,-44.5"/>
<text text-anchor="middle" x="1100" y="-51.5" font-family="Helvetica,sans-Serif" font-size="10.00">koala.utils.col2num</text>
</a>
</g>
</g>
<!-- Node331&#45;&gt;Node343 -->
<g id="edge29" class="edge"><title>Node331&#45;&gt;Node343</title>
<path fill="none" stroke="midnightblue" d="M754.306,-152.669C775.218,-127.954 820.378,-80.1449 871,-61 925.18,-40.5095 991.878,-41.1487 1039.1,-45.4614"/>
<polygon fill="midnightblue" stroke="midnightblue" points="1038.87,-48.9558 1049.17,-46.4632 1039.57,-41.9902 1038.87,-48.9558"/>
</g>
<!-- Node345 -->
<g id="node21" class="node"><title>Node345</title>
<g id="a_node21"><a xlink:href="namespacekoala_1_1utils.html#aabb45efe6343cf3795888c77a434d47d" target="_top" xlink:title=" ">
<polygon fill="white" stroke="black" points="1055,-0.5 1055,-19.5 1145,-19.5 1145,-0.5 1055,-0.5"/>
<text text-anchor="middle" x="1100" y="-7.5" font-family="Helvetica,sans-Serif" font-size="10.00">koala.utils.flatten</text>
</a>
</g>
</g>
<!-- Node331&#45;&gt;Node345 -->
<g id="edge30" class="edge"><title>Node331&#45;&gt;Node345</title>
<path fill="none" stroke="midnightblue" d="M752.263,-152.569C771.719,-124.732 816.901,-66.5454 871,-40 925.763,-13.1287 996.373,-7.64648 1044.41,-7.59372"/>
<polygon fill="midnightblue" stroke="midnightblue" points="1044.58,-11.0949 1054.6,-7.66349 1044.62,-4.09503 1044.58,-11.0949"/>
</g>
<!-- Node346 -->
<g id="node22" class="node"><title>Node346</title>
<g id="a_node22"><a xlink:href="namespacekoala_1_1utils.html#a71673869f44a8e5ee678759d1c099ada" target="_top" xlink:title=" ">
<polygon fill="white" stroke="black" points="871,-70.5 871,-89.5 1003,-89.5 1003,-70.5 871,-70.5"/>
<text text-anchor="middle" x="937" y="-77.5" font-family="Helvetica,sans-Serif" font-size="10.00">koala.utils.max_dimension</text>
</a>
</g>
</g>
<!-- Node331&#45;&gt;Node346 -->
<g id="edge27" class="edge"><title>Node331&#45;&gt;Node346</title>
<path fill="none" stroke="midnightblue" d="M766.47,-152.934C791.882,-137.767 833.145,-114.462 871,-99 876.578,-96.7216 882.528,-94.594 888.477,-92.6481"/>
<polygon fill="midnightblue" stroke="midnightblue" points="889.916,-95.8659 898.422,-89.5502 887.834,-89.1826 889.916,-95.8659"/>
</g>
<!-- Node333 -->
<g id="node9" class="node"><title>Node333</title>
<g id="a_node9"><a xlink:href="namespacekoala_1_1_range.html#a6a4a2138705cb8cc069ddf925e74d2c1" target="_top" xlink:title=" ">
<polygon fill="white" stroke="black" points="1041,-330 1041,-360 1159,-360 1159,-330 1041,-330"/>
<text text-anchor="start" x="1049" y="-348" font-family="Helvetica,sans-Serif" font-size="10.00">koala.Range.parse_cell</text>
<text text-anchor="middle" x="1100" y="-337" font-family="Helvetica,sans-Serif" font-size="10.00">_address</text>
</a>
</g>
</g>
<!-- Node332&#45;&gt;Node333 -->
<g id="edge9" class="edge"><title>Node332&#45;&gt;Node333</title>
<path fill="none" stroke="midnightblue" d="M975.564,-291.584C984.666,-294.288 994.283,-297.468 1003,-301 1019.77,-307.795 1022.63,-312.291 1039,-320 1043.13,-321.946 1047.46,-323.902 1051.81,-325.815"/>
<polygon fill="midnightblue" stroke="midnightblue" points="1050.75,-329.171 1061.32,-329.916 1053.53,-322.743 1050.75,-329.171"/>
</g>
<!-- Node334 -->
<g id="node10" class="node"><title>Node334</title>
<g id="a_node10"><a xlink:href="namespacekoala_1_1ast.html#a76e6cdc1c1338001a6d0c4ac4a038087" target="_top" xlink:title=" ">
<polygon fill="white" stroke="black" points="1040,-291.5 1040,-310.5 1160,-310.5 1160,-291.5 1040,-291.5"/>
<text text-anchor="middle" x="1100" y="-298.5" font-family="Helvetica,sans-Serif" font-size="10.00">koala.ast.shunting_yard</text>
</a>
</g>
</g>
<!-- Node332&#45;&gt;Node334 -->
<g id="edge10" class="edge"><title>Node332&#45;&gt;Node334</title>
<path fill="none" stroke="midnightblue" d="M987.619,-287.856C1000.93,-289.426 1015.56,-291.153 1029.73,-292.825"/>
<polygon fill="midnightblue" stroke="midnightblue" points="1029.59,-296.333 1039.93,-294.029 1030.41,-289.381 1029.59,-296.333"/>
</g>
<!-- Node336 -->
<g id="node12" class="node"><title>Node336</title>
<g id="a_node12"><a xlink:href="namespacekoala_1_1ast.html#a36277633c59487f9b1c1b256df41e942" target="_top" xlink:title=" ">
<polygon fill="white" stroke="black" points="1051,-253.5 1051,-272.5 1149,-272.5 1149,-253.5 1051,-253.5"/>
<text text-anchor="middle" x="1100" y="-260.5" font-family="Helvetica,sans-Serif" font-size="10.00">koala.ast.build_ast</text>
</a>
</g>
</g>
<!-- Node332&#45;&gt;Node336 -->
<g id="edge12" class="edge"><title>Node332&#45;&gt;Node336</title>
<path fill="none" stroke="midnightblue" d="M987.619,-276.144C1004.46,-274.157 1023.42,-271.92 1040.86,-269.861"/>
<polygon fill="midnightblue" stroke="midnightblue" points="1041.4,-273.321 1050.92,-268.673 1040.58,-266.37 1041.4,-273.321"/>
</g>
<!-- Node335 -->
<g id="node11" class="node"><title>Node335</title>
<g id="a_node11"><a xlink:href="namespacekoala_1_1ast.html#a39876c353cfbf071723ede9b5a59eda4" target="_top" xlink:title=" ">
<polygon fill="white" stroke="black" points="1197,-291.5 1197,-310.5 1310,-310.5 1310,-291.5 1197,-291.5"/>
<text text-anchor="middle" x="1253.5" y="-298.5" font-family="Helvetica,sans-Serif" font-size="10.00">koala.ast.create_node</text>
</a>
</g>
</g>
<!-- Node334&#45;&gt;Node335 -->
<g id="edge11" class="edge"><title>Node334&#45;&gt;Node335</title>
<path fill="none" stroke="midnightblue" d="M1160.01,-301C1168.73,-301 1177.76,-301 1186.6,-301"/>
<polygon fill="midnightblue" stroke="midnightblue" points="1186.88,-304.5 1196.88,-301 1186.88,-297.5 1186.88,-304.5"/>
</g>
<!-- Node339&#45;&gt;Node333 -->
<g id="edge16" class="edge"><title>Node339&#45;&gt;Node333</title>
<path fill="none" stroke="midnightblue" d="M999.326,-329.523C1009.63,-331.123 1020.38,-332.792 1030.84,-334.416"/>
<polygon fill="midnightblue" stroke="midnightblue" points="1030.34,-337.881 1040.76,-335.957 1031.42,-330.964 1030.34,-337.881"/>
</g>
<!-- Node339&#45;&gt;Node334 -->
<g id="edge17" class="edge"><title>Node339&#45;&gt;Node334</title>
<path fill="none" stroke="midnightblue" d="M1000.25,-312.654C1009.9,-311.515 1019.92,-310.332 1029.72,-309.176"/>
<polygon fill="midnightblue" stroke="midnightblue" points="1030.3,-312.631 1039.83,-307.983 1029.48,-305.68 1030.3,-312.631"/>
</g>
<!-- Node339&#45;&gt;Node336 -->
<g id="edge18" class="edge"><title>Node339&#45;&gt;Node336</title>
<path fill="none" stroke="midnightblue" d="M975.564,-310.416C984.666,-307.712 994.283,-304.532 1003,-301 1019.77,-294.205 1022.31,-288.981 1039,-282 1044.36,-279.758 1050.08,-277.628 1055.78,-275.66"/>
<polygon fill="midnightblue" stroke="midnightblue" points="1056.9,-278.976 1065.29,-272.509 1054.7,-272.331 1056.9,-278.976"/>
</g>
<!-- Node340&#45;&gt;Node338 -->
<g id="edge21" class="edge"><title>Node340&#45;&gt;Node338</title>
<path fill="none" stroke="midnightblue" d="M958.793,-139.147C978.624,-153.056 1009.73,-173.496 1039,-187 1043.78,-189.203 1048.88,-191.25 1054.01,-193.121"/>
<polygon fill="midnightblue" stroke="midnightblue" points="1053.26,-196.562 1063.86,-196.497 1055.53,-189.941 1053.26,-196.562"/>
</g>
<!-- Node341 -->
<g id="node17" class="node"><title>Node341</title>
<g id="a_node17"><a xlink:href="namespacekoala_1_1utils.html#a77ace10251dde2f09a457b7b469208cc" target="_top" xlink:title=" ">
<polygon fill="white" stroke="black" points="1044.5,-82.5 1044.5,-101.5 1155.5,-101.5 1155.5,-82.5 1044.5,-82.5"/>
<text text-anchor="middle" x="1100" y="-89.5" font-family="Helvetica,sans-Serif" font-size="10.00">koala.utils.split_range</text>
</a>
</g>
</g>
<!-- Node340&#45;&gt;Node341 -->
<g id="edge20" class="edge"><title>Node340&#45;&gt;Node341</title>
<path fill="none" stroke="midnightblue" d="M984.136,-114.83C1001.94,-111.292 1022.5,-107.205 1041.26,-103.476"/>
<polygon fill="midnightblue" stroke="midnightblue" points="1042.05,-106.888 1051.18,-101.505 1040.69,-100.022 1042.05,-106.888"/>
</g>
<!-- Node340&#45;&gt;Node342 -->
<g id="edge22" class="edge"><title>Node340&#45;&gt;Node342</title>
<path fill="none" stroke="midnightblue" d="M984.136,-136.609C1006.21,-142.643 1032.54,-149.837 1054.41,-155.815"/>
<polygon fill="midnightblue" stroke="midnightblue" points="1053.55,-159.207 1064.12,-158.467 1055.4,-152.455 1053.55,-159.207"/>
</g>
<!-- Node340&#45;&gt;Node343 -->
<g id="edge23" class="edge"><title>Node340&#45;&gt;Node343</title>
<path fill="none" stroke="midnightblue" d="M981.707,-108.982C988.964,-105.983 996.302,-102.627 1003,-99 1020.36,-89.6014 1021.37,-81.8694 1039,-73 1043.35,-70.8134 1048,-68.8126 1052.71,-66.9992"/>
<polygon fill="midnightblue" stroke="midnightblue" points="1054.17,-70.1963 1062.41,-63.5404 1051.82,-63.6031 1054.17,-70.1963"/>
</g>
<!-- Node344 -->
<g id="node20" class="node"><title>Node344</title>
<g id="a_node20"><a xlink:href="namespacekoala_1_1utils.html#a2037076cc5a6fbf884023917a0cbfca7" target="_top" xlink:title=" ">
<polygon fill="white" stroke="black" points="1049.5,-120.5 1049.5,-139.5 1150.5,-139.5 1150.5,-120.5 1049.5,-120.5"/>
<text text-anchor="middle" x="1100" y="-127.5" font-family="Helvetica,sans-Serif" font-size="10.00">koala.utils.num2col</text>
</a>
</g>
</g>
<!-- Node340&#45;&gt;Node344 -->
<g id="edge24" class="edge"><title>Node340&#45;&gt;Node344</title>
<path fill="none" stroke="midnightblue" d="M984.136,-125.719C1001.3,-126.359 1021.04,-127.095 1039.25,-127.773"/>
<polygon fill="midnightblue" stroke="midnightblue" points="1039.36,-131.28 1049.48,-128.155 1039.62,-124.284 1039.36,-131.28"/>
</g>
<!-- Node340&#45;&gt;Node345 -->
<g id="edge25" class="edge"><title>Node340&#45;&gt;Node345</title>
<path fill="none" stroke="midnightblue" d="M984.311,-110.819C991.026,-107.638 997.512,-103.744 1003,-99 1027.69,-77.658 1014.61,-56.6809 1039,-35 1044.04,-30.5172 1050,-26.7645 1056.18,-23.6455"/>
<polygon fill="midnightblue" stroke="midnightblue" points="1057.63,-26.8307 1065.3,-19.5181 1054.74,-20.4537 1057.63,-26.8307"/>
</g>
<!-- Node346&#45;&gt;Node343 -->
<g id="edge28" class="edge"><title>Node346&#45;&gt;Node343</title>
<path fill="none" stroke="midnightblue" d="M997.036,-70.4662C1010.9,-68.227 1025.68,-65.8399 1039.57,-63.5979"/>
<polygon fill="midnightblue" stroke="midnightblue" points="1040.18,-67.0448 1049.49,-61.9953 1039.06,-60.1344 1040.18,-67.0448"/>
</g>
</g>
</svg>
        <g id="navigator" transform="translate(0 0)" fill="#404254">
                <rect fill="#f2f5e9" fill-opacity="0.5" stroke="#606060" stroke-width=".5" x="0" y="0" width="60" height="60"/>
                <use id="zoomplus" xlink:href="#zoomPlus" x="17" y="9" onmousedown="handleZoom(evt,'in')"/>
                <use id="zoomminus" xlink:href="#zoomMin" x="42" y="9" onmousedown="handleZoom(evt,'out')"/>
                <use id="reset" xlink:href="#resetDef" x="30" y="36" onmousedown="handleReset()"/>
                <g id="arrowUp" xlink:href="#dirArrow" transform="translate(30 24)" onmousedown="handlePan(0,-1)">
                  <use xlink:href="#rim" fill="#404040">
                        <set attributeName="fill" to="#808080" begin="arrowUp.mouseover" end="arrowUp.mouseout"/>
                  </use>
                  <path fill="none" stroke="white" stroke-width="1.5" d="M0,-3.0v7 M-2.5,-0.5L0,-3.0L2.5,-0.5"/>
                </g>
                <g id="arrowRight" xlink:href="#dirArrow" transform="rotate(90) translate(36 -43)" onmousedown="handlePan(1,0)">
                  <use xlink:href="#rim" fill="#404040">
                        <set attributeName="fill" to="#808080" begin="arrowRight.mouseover" end="arrowRight.mouseout"/>
                  </use>
                  <path fill="none" stroke="white" stroke-width="1.5" d="M0,-3.0v7 M-2.5,-0.5L0,-3.0L2.5,-0.5"/>
                </g>
                <g id="arrowDown" xlink:href="#dirArrow" transform="rotate(180) translate(-30 -48)" onmousedown="handlePan(0,1)">
                  <use xlink:href="#rim" fill="#404040">
                        <set attributeName="fill" to="#808080" begin="arrowDown.mouseover" end="arrowDown.mouseout"/>
                  </use>
                  <path fill="none" stroke="white" stroke-width="1.5" d="M0,-3.0v7 M-2.5,-0.5L0,-3.0L2.5,-0.5"/>
                </g>
                <g id="arrowLeft" xlink:href="#dirArrow" transform="rotate(270) translate(-36 17)" onmousedown="handlePan(-1,0)">
                  <use xlink:href="#rim" fill="#404040">
                        <set attributeName="fill" to="#808080" begin="arrowLeft.mouseover" end="arrowLeft.mouseout"/>
                  </use>
                  <path fill="none" stroke="white" stroke-width="1.5" d="M0,-3.0v7 M-2.5,-0.5L0,-3.0L2.5,-0.5"/>
                </g>
        </g>
        <svg viewBox="0 0 15 15" width="100%" height="30px" preserveAspectRatio="xMaxYMin meet">
         <g id="arrow_out" transform="scale(0.3 0.3)">
          <a xlink:href="classkoala_1_1_spreadsheet_1_1_spreadsheet_a1330ffeda88c7bc6905a00e80203eb78_cgraph_org.svg" target="_base">
           <rect id="button" ry="5" rx="5" y="6" x="6" height="38" width="38"
                fill="#f2f5e9" fill-opacity="0.5" stroke="#606060" stroke-width="1.0"/>
           <path id="arrow"
             d="M 11.500037,31.436501 C 11.940474,20.09759 22.043105,11.32322 32.158766,21.979434 L 37.068811,17.246167 C 37.068811,17.246167 37.088388,32 37.088388,32 L 22.160133,31.978069 C 22.160133,31.978069 26.997745,27.140456 26.997745,27.140456 C 18.528582,18.264221 13.291696,25.230495 11.500037,31.436501 z"
             style="fill:#404040;"/>
          </a>
         </g>
        </svg>
</svg>
