<?xml version="1.0" encoding="UTF-8" standalone="no"?>
<!DOCTYPE svg PUBLIC "-//W3C//DTD SVG 1.1//EN"
 "http://www.w3.org/Graphics/SVG/1.1/DTD/svg11.dtd">
<!-- Generated by graphviz version 2.38.0 (20140413.2041)
 -->
<!-- Title: koala.Spreadsheet.Spreadsheet.prune_graph Pages: 1 -->
<svg width="354pt" height="66pt"
 viewBox="0.00 0.00 354.00 66.00" xmlns="http://www.w3.org/2000/svg" xmlns:xlink="http://www.w3.org/1999/xlink">
<g id="graph0" class="graph" transform="scale(1 1) rotate(0) translate(4 62)">
<title>koala.Spreadsheet.Spreadsheet.prune_graph</title>
<polygon fill="white" stroke="none" points="-4,4 -4,-62 350,-62 350,4 -4,4"/>
<!-- Node294 -->
<g id="node1" class="node"><title>Node294</title>
<g id="a_node1"><a xlink:title=" ">
<polygon fill="#bfbfbf" stroke="black" points="0,-14 0,-44 182,-44 182,-14 0,-14"/>
<text text-anchor="start" x="8" y="-32" font-family="Helvetica,sans-Serif" font-size="10.00">koala.Spreadsheet.Spreadsheet.prune</text>
<text text-anchor="middle" x="91" y="-21" font-family="Helvetica,sans-Serif" font-size="10.00">_graph</text>
</a>
</g>
</g>
<!-- Node295 -->
<g id="node2" class="node"><title>Node295</title>
<g id="a_node2"><a xlink:href="namespacekoala_1_1ast.html#abd606614d39f5230c3d493d1400c60ed" target="_top" xlink:title=" ">
<polygon fill="white" stroke="black" points="218,-38.5 218,-57.5 346,-57.5 346,-38.5 218,-38.5"/>
<text text-anchor="middle" x="282" y="-45.5" font-family="Helvetica,sans-Serif" font-size="10.00">koala.ast.make_subgraph</text>
</a>
</g>
</g>
<!-- Node294&#45;&gt;Node295 -->
<g id="edge1" class="edge"><title>Node294&#45;&gt;Node295</title>
<path fill="none" stroke="midnightblue" d="M182.072,-38.0548C190.656,-38.9178 199.289,-39.7857 207.687,-40.6299"/>
<polygon fill="midnightblue" stroke="midnightblue" points="207.495,-44.1281 217.795,-41.646 208.195,-37.1632 207.495,-44.1281"/>
</g>
<!-- Node296 -->
<g id="node3" class="node"><title>Node296</title>
<g id="a_node3"><a xlink:href="namespacekoala_1_1utils.html#a152ac1827f4fdbd036d6e67cdf3acebb" target="_top" xlink:title=" ">
<polygon fill="white" stroke="black" points="231.5,-0.5 231.5,-19.5 332.5,-19.5 332.5,-0.5 231.5,-0.5"/>
<text text-anchor="middle" x="282" y="-7.5" font-family="Helvetica,sans-Serif" font-size="10.00">koala.utils.is_range</text>
</a>
</g>
</g>
<!-- Node294&#45;&gt;Node296 -->
<g id="edge2" class="edge"><title>Node294&#45;&gt;Node296</title>
<path fill="none" stroke="midnightblue" d="M182.072,-19.9452C195.368,-18.6086 208.781,-17.2602 221.255,-16.0061"/>
<polygon fill="midnightblue" stroke="midnightblue" points="221.889,-19.4601 231.489,-14.9773 221.189,-12.4952 221.889,-19.4601"/>
</g>
</g>
</svg>
