<?xml version="1.0" encoding="UTF-8" standalone="no"?>
<!DOCTYPE svg PUBLIC "-//W3C//DTD SVG 1.1//EN"
 "http://www.w3.org/Graphics/SVG/1.1/DTD/svg11.dtd">
<!-- Generated by graphviz version 2.38.0 (20140413.2041)
 -->
<!-- Title: koala.Spreadsheet.Spreadsheet.evaluate Pages: 1 -->
<svg width="1113pt" height="176pt"
 viewBox="0.00 0.00 1113.00 176.00" xmlns="http://www.w3.org/2000/svg" xmlns:xlink="http://www.w3.org/1999/xlink">
<g id="graph0" class="graph" transform="scale(1 1) rotate(0) translate(4 172)">
<title>koala.Spreadsheet.Spreadsheet.evaluate</title>
<polygon fill="white" stroke="none" points="-4,4 -4,-172 1109,-172 1109,4 -4,4"/>
<!-- Node193 -->
<g id="node1" class="node"><title>Node193</title>
<g id="a_node1"><a xlink:title=" ">
<polygon fill="#bfbfbf" stroke="black" points="911,-55 911,-74 1105,-74 1105,-55 911,-55"/>
<text text-anchor="middle" x="1008" y="-62" font-family="Helvetica,sans-Serif" font-size="10.00">koala.Spreadsheet.Spreadsheet.evaluate</text>
</a>
</g>
</g>
<!-- Node194 -->
<g id="node2" class="node"><title>Node194</title>
<g id="a_node2"><a xlink:href="classkoala_1_1_spreadsheet_1_1_spreadsheet.html#aa7bdaffc24c26fbf18d5b752b7e49df2" target="_top" xlink:title=" ">
<polygon fill="white" stroke="black" points="694.5,-137.5 694.5,-167.5 867.5,-167.5 867.5,-137.5 694.5,-137.5"/>
<text text-anchor="start" x="702.5" y="-155.5" font-family="Helvetica,sans-Serif" font-size="10.00">koala.Spreadsheet.Spreadsheet.cell</text>
<text text-anchor="middle" x="781" y="-144.5" font-family="Helvetica,sans-Serif" font-size="10.00">_set_formula</text>
</a>
</g>
</g>
<!-- Node193&#45;&gt;Node194 -->
<g id="edge1" class="edge"><title>Node193&#45;&gt;Node194</title>
<path fill="none" stroke="midnightblue" d="M977.574,-78.4621C951.057,-90.7951 910.846,-108.884 875,-122.5 861.202,-127.741 846.042,-132.885 832.038,-137.392"/>
<polygon fill="midnightblue" stroke="midnightblue" points="979.116,-81.6051 986.691,-74.1977 976.15,-75.2645 979.116,-81.6051"/>
</g>
<!-- Node196 -->
<g id="node4" class="node"><title>Node196</title>
<g id="a_node4"><a xlink:href="classkoala_1_1_spreadsheet_1_1_spreadsheet.html#a5123890c167cf3b1e9e070886d635e74" target="_top" xlink:title=" ">
<polygon fill="white" stroke="black" points="460,-77 460,-96 651,-96 651,-77 460,-77"/>
<text text-anchor="middle" x="555.5" y="-84" font-family="Helvetica,sans-Serif" font-size="10.00">koala.Spreadsheet.Spreadsheet.eval_ref</text>
</a>
</g>
</g>
<!-- Node193&#45;&gt;Node196 -->
<g id="edge3" class="edge"><title>Node193&#45;&gt;Node196</title>
<path fill="none" stroke="midnightblue" d="M957.577,-76.1335C932.922,-81.3544 902.553,-86.9138 875,-89.5 799.987,-96.5409 714.602,-95.2373 651.134,-92.4771"/>
<polygon fill="midnightblue" stroke="midnightblue" points="958.386,-79.5394 967.42,-74.0035 956.906,-72.6978 958.386,-79.5394"/>
</g>
<!-- Node199 -->
<g id="node7" class="node"><title>Node199</title>
<g id="a_node7"><a xlink:href="classkoala_1_1_spreadsheet_1_1_spreadsheet.html#ae7cc9bec504371c4034626c20eef4271" target="_top" xlink:title=" ">
<polygon fill="white" stroke="black" points="687,-49.5 687,-79.5 875,-79.5 875,-49.5 687,-49.5"/>
<text text-anchor="start" x="695" y="-67.5" font-family="Helvetica,sans-Serif" font-size="10.00">koala.Spreadsheet.Spreadsheet.update</text>
<text text-anchor="middle" x="781" y="-56.5" font-family="Helvetica,sans-Serif" font-size="10.00">_range</text>
</a>
</g>
</g>
<!-- Node193&#45;&gt;Node199 -->
<g id="edge6" class="edge"><title>Node193&#45;&gt;Node199</title>
<path fill="none" stroke="midnightblue" d="M900.903,-64.5C892.335,-64.5 883.716,-64.5 875.248,-64.5"/>
<polygon fill="midnightblue" stroke="midnightblue" points="900.927,-68.0001 910.927,-64.5 900.927,-61.0001 900.927,-68.0001"/>
</g>
<!-- Node200 -->
<g id="node8" class="node"><title>Node200</title>
<g id="a_node8"><a xlink:href="classkoala_1_1_spreadsheet_1_1_spreadsheet.html#a8e83a93df65a29d4748b427cb4d77bb2" target="_top" xlink:title=" ">
<polygon fill="white" stroke="black" points="694.5,-0.5 694.5,-30.5 867.5,-30.5 867.5,-0.5 694.5,-0.5"/>
<text text-anchor="start" x="702.5" y="-18.5" font-family="Helvetica,sans-Serif" font-size="10.00">koala.Spreadsheet.Spreadsheet.cell</text>
<text text-anchor="middle" x="781" y="-7.5" font-family="Helvetica,sans-Serif" font-size="10.00">_evaluate</text>
</a>
</g>
</g>
<!-- Node193&#45;&gt;Node200 -->
<g id="edge8" class="edge"><title>Node193&#45;&gt;Node200</title>
<path fill="none" stroke="midnightblue" d="M973.249,-52.1637C945.315,-44.5337 904.384,-35.0903 867.549,-27.5559"/>
<polygon fill="midnightblue" stroke="midnightblue" points="972.347,-55.5456 982.921,-54.8858 974.243,-48.8074 972.347,-55.5456"/>
</g>
<!-- Node195 -->
<g id="node3" class="node"><title>Node195</title>
<g id="a_node3"><a xlink:href="classkoala_1_1_spreadsheet_1_1_spreadsheet.html#af50724d01ff5b3ae09ecc1bdfbfb0fed" target="_top" xlink:title=" ">
<polygon fill="white" stroke="black" points="469.5,-137.5 469.5,-167.5 641.5,-167.5 641.5,-137.5 469.5,-137.5"/>
<text text-anchor="start" x="477.5" y="-155.5" font-family="Helvetica,sans-Serif" font-size="10.00">koala.Spreadsheet.Spreadsheet.set</text>
<text text-anchor="middle" x="555.5" y="-144.5" font-family="Helvetica,sans-Serif" font-size="10.00">_formula</text>
</a>
</g>
</g>
<!-- Node194&#45;&gt;Node195 -->
<g id="edge2" class="edge"><title>Node194&#45;&gt;Node195</title>
<path fill="none" stroke="midnightblue" d="M684.043,-152.5C669.955,-152.5 655.525,-152.5 641.673,-152.5"/>
<polygon fill="midnightblue" stroke="midnightblue" points="684.228,-156 694.228,-152.5 684.228,-149 684.228,-156"/>
</g>
<!-- Node197 -->
<g id="node5" class="node"><title>Node197</title>
<g id="a_node5"><a xlink:href="classkoala_1_1_spreadsheet_1_1_spreadsheet.html#ab55daaddb95ae9af8b490dabebf22092" target="_top" xlink:title=" ">
<polygon fill="white" stroke="black" points="230,-77 230,-96 424,-96 424,-77 230,-77"/>
<text text-anchor="middle" x="327" y="-84" font-family="Helvetica,sans-Serif" font-size="10.00">koala.Spreadsheet.Spreadsheet.cell_free</text>
</a>
</g>
</g>
<!-- Node196&#45;&gt;Node197 -->
<g id="edge4" class="edge"><title>Node196&#45;&gt;Node197</title>
<path fill="none" stroke="midnightblue" d="M449.503,-86.5C441.062,-86.5 432.56,-86.5 424.185,-86.5"/>
<polygon fill="midnightblue" stroke="midnightblue" points="449.756,-90.0001 459.756,-86.5 449.756,-83.0001 449.756,-90.0001"/>
</g>
<!-- Node198 -->
<g id="node6" class="node"><title>Node198</title>
<g id="a_node6"><a xlink:href="classkoala_1_1_spreadsheet_1_1_spreadsheet.html#aebac3e8edbd3df53d783fd229aa95cf4" target="_top" xlink:title=" ">
<polygon fill="white" stroke="black" points="0,-77 0,-96 194,-96 194,-77 0,-77"/>
<text text-anchor="middle" x="97" y="-84" font-family="Helvetica,sans-Serif" font-size="10.00">koala.Spreadsheet.Spreadsheet.free_cell</text>
</a>
</g>
</g>
<!-- Node197&#45;&gt;Node198 -->
<g id="edge5" class="edge"><title>Node197&#45;&gt;Node198</title>
<path fill="none" stroke="midnightblue" d="M219.957,-86.5C211.395,-86.5 202.773,-86.5 194.286,-86.5"/>
<polygon fill="midnightblue" stroke="midnightblue" points="219.968,-90.0001 229.968,-86.5 219.968,-83.0001 219.968,-90.0001"/>
</g>
<!-- Node199&#45;&gt;Node196 -->
<g id="edge7" class="edge"><title>Node199&#45;&gt;Node196</title>
<path fill="none" stroke="midnightblue" d="M676.875,-74.651C668.355,-75.4896 659.768,-76.3349 651.313,-77.1672"/>
<polygon fill="midnightblue" stroke="midnightblue" points="677.225,-78.1335 686.834,-73.6707 676.539,-71.1672 677.225,-78.1335"/>
</g>
<!-- Node200&#45;&gt;Node193 -->
<g id="edge9" class="edge"><title>Node200&#45;&gt;Node193</title>
<path fill="none" stroke="midnightblue" d="M835.912,-33.1005C865.281,-40.4794 902.039,-48.6535 933.949,-54.9579"/>
<polygon fill="midnightblue" stroke="midnightblue" points="836.407,-29.6147 825.852,-30.5281 834.673,-36.3965 836.407,-29.6147"/>
</g>
</g>
</svg>
