<?xml version="1.0" encoding="UTF-8" standalone="no"?>
<!DOCTYPE svg PUBLIC "-//W3C//DTD SVG 1.1//EN"
 "http://www.w3.org/Graphics/SVG/1.1/DTD/svg11.dtd">
<!-- Generated by graphviz version 2.38.0 (20140413.2041)
 -->
<!-- Title: koala.tokenizer.f_tokenStack.token Pages: 1 -->
<svg width="394pt" height="104pt"
 viewBox="0.00 0.00 394.00 104.00" xmlns="http://www.w3.org/2000/svg" xmlns:xlink="http://www.w3.org/1999/xlink">
<g id="graph0" class="graph" transform="scale(1 1) rotate(0) translate(4 100)">
<title>koala.tokenizer.f_tokenStack.token</title>
<polygon fill="white" stroke="none" points="-4,4 -4,-100 390,-100 390,4 -4,4"/>
<!-- Node10 -->
<g id="node1" class="node"><title>Node10</title>
<g id="a_node1"><a xlink:title=" ">
<polygon fill="#bfbfbf" stroke="black" points="216,-38.5 216,-57.5 386,-57.5 386,-38.5 216,-38.5"/>
<text text-anchor="middle" x="301" y="-45.5" font-family="Helvetica,sans-Serif" font-size="10.00">koala.tokenizer.f_tokenStack.token</text>
</a>
</g>
</g>
<!-- Node11 -->
<g id="node2" class="node"><title>Node11</title>
<g id="a_node2"><a xlink:href="classkoala_1_1tokenizer_1_1f__token_stack.html#afb8f1f78bb51c5a47be99967d2c06115" target="_top" xlink:title=" ">
<polygon fill="white" stroke="black" points="6.5,-76.5 6.5,-95.5 173.5,-95.5 173.5,-76.5 6.5,-76.5"/>
<text text-anchor="middle" x="90" y="-83.5" font-family="Helvetica,sans-Serif" font-size="10.00">koala.tokenizer.f_tokenStack.value</text>
</a>
</g>
</g>
<!-- Node10&#45;&gt;Node11 -->
<g id="edge1" class="edge"><title>Node10&#45;&gt;Node11</title>
<path fill="none" stroke="midnightblue" d="M237.592,-59.347C207.605,-64.7991 172.066,-71.2607 143.491,-76.4561"/>
<polygon fill="midnightblue" stroke="midnightblue" points="238.318,-62.7724 247.53,-57.54 237.065,-55.8853 238.318,-62.7724"/>
</g>
<!-- Node12 -->
<g id="node3" class="node"><title>Node12</title>
<g id="a_node3"><a xlink:href="classkoala_1_1tokenizer_1_1f__token_stack.html#ae045a936b6cb01a245d9786d456d7eda" target="_top" xlink:title=" ">
<polygon fill="white" stroke="black" points="8,-38.5 8,-57.5 172,-57.5 172,-38.5 8,-38.5"/>
<text text-anchor="middle" x="90" y="-45.5" font-family="Helvetica,sans-Serif" font-size="10.00">koala.tokenizer.f_tokenStack.type</text>
</a>
</g>
</g>
<!-- Node10&#45;&gt;Node12 -->
<g id="edge2" class="edge"><title>Node10&#45;&gt;Node12</title>
<path fill="none" stroke="midnightblue" d="M205.692,-48C194.519,-48 183.188,-48 172.218,-48"/>
<polygon fill="midnightblue" stroke="midnightblue" points="205.895,-51.5001 215.895,-48 205.895,-44.5001 205.895,-51.5001"/>
</g>
<!-- Node13 -->
<g id="node4" class="node"><title>Node13</title>
<g id="a_node4"><a xlink:href="classkoala_1_1tokenizer_1_1f__token_stack.html#a5057ff4fa80f9b53843c7f5f40deddb1" target="_top" xlink:title=" ">
<polygon fill="white" stroke="black" points="0,-0.5 0,-19.5 180,-19.5 180,-0.5 0,-0.5"/>
<text text-anchor="middle" x="90" y="-7.5" font-family="Helvetica,sans-Serif" font-size="10.00">koala.tokenizer.f_tokenStack.subtype</text>
</a>
</g>
</g>
<!-- Node10&#45;&gt;Node13 -->
<g id="edge3" class="edge"><title>Node10&#45;&gt;Node13</title>
<path fill="none" stroke="midnightblue" d="M237.592,-36.653C207.605,-31.2009 172.066,-24.7393 143.491,-19.5439"/>
<polygon fill="midnightblue" stroke="midnightblue" points="237.065,-40.1147 247.53,-38.46 238.318,-33.2276 237.065,-40.1147"/>
</g>
</g>
</svg>
