<?xml version="1.0" encoding="UTF-8" standalone="no"?>
<!DOCTYPE svg PUBLIC "-//W3C//DTD SVG 1.1//EN"
 "http://www.w3.org/Graphics/SVG/1.1/DTD/svg11.dtd">
<!-- Generated by graphviz version 2.38.0 (20140413.2041)
 -->
<!-- Title: koala.Cell.Cell.make_cells Pages: 1 -->
<svg width="402pt" height="218pt"
 viewBox="0.00 0.00 402.00 218.00" xmlns="http://www.w3.org/2000/svg" xmlns:xlink="http://www.w3.org/1999/xlink">
<g id="graph0" class="graph" transform="scale(1 1) rotate(0) translate(4 214)">
<title>koala.Cell.Cell.make_cells</title>
<polygon fill="white" stroke="none" points="-4,4 -4,-214 398,-214 398,4 -4,4"/>
<!-- Node69 -->
<g id="node1" class="node"><title>Node69</title>
<g id="a_node1"><a xlink:title=" ">
<polygon fill="#bfbfbf" stroke="black" points="0,-139 0,-169 106,-169 106,-139 0,-139"/>
<text text-anchor="start" x="8" y="-157" font-family="Helvetica,sans-Serif" font-size="10.00">koala.Cell.Cell.make</text>
<text text-anchor="middle" x="53" y="-146" font-family="Helvetica,sans-Serif" font-size="10.00">_cells</text>
</a>
</g>
</g>
<!-- Node70 -->
<g id="node2" class="node"><title>Node70</title>
<g id="a_node2"><a xlink:href="namespacekoala_1_1utils.html#a77ace10251dde2f09a457b7b469208cc" target="_top" xlink:title=" ">
<polygon fill="white" stroke="black" points="277.5,-190.5 277.5,-209.5 388.5,-209.5 388.5,-190.5 277.5,-190.5"/>
<text text-anchor="middle" x="333" y="-197.5" font-family="Helvetica,sans-Serif" font-size="10.00">koala.utils.split_range</text>
</a>
</g>
</g>
<!-- Node69&#45;&gt;Node70 -->
<g id="edge1" class="edge"><title>Node69&#45;&gt;Node70</title>
<path fill="none" stroke="midnightblue" d="M106.29,-162.652C151.81,-170.184 217.988,-181.135 266.924,-189.232"/>
<polygon fill="midnightblue" stroke="midnightblue" points="266.654,-192.735 277.092,-190.914 267.797,-185.829 266.654,-192.735"/>
</g>
<!-- Node71 -->
<g id="node3" class="node"><title>Node71</title>
<g id="a_node3"><a xlink:href="namespacekoala_1_1utils.html#a1d3620df245d23fea05928298cabc2ac" target="_top" xlink:title=" ">
<polygon fill="white" stroke="black" points="142,-109 142,-139 236,-139 236,-109 142,-109"/>
<text text-anchor="start" x="150" y="-127" font-family="Helvetica,sans-Serif" font-size="10.00">koala.utils.resolve</text>
<text text-anchor="middle" x="189" y="-116" font-family="Helvetica,sans-Serif" font-size="10.00">_range</text>
</a>
</g>
</g>
<!-- Node69&#45;&gt;Node71 -->
<g id="edge2" class="edge"><title>Node69&#45;&gt;Node71</title>
<path fill="none" stroke="midnightblue" d="M106.192,-142.315C114.643,-140.423 123.424,-138.457 131.962,-136.546"/>
<polygon fill="midnightblue" stroke="midnightblue" points="132.844,-139.935 141.838,-134.335 131.315,-133.104 132.844,-139.935"/>
</g>
<!-- Node71&#45;&gt;Node70 -->
<g id="edge3" class="edge"><title>Node71&#45;&gt;Node70</title>
<path fill="none" stroke="midnightblue" d="M208.212,-139.07C224.2,-151.691 248.507,-169.447 272,-181 276.541,-183.233 281.402,-185.28 286.32,-187.135"/>
<polygon fill="midnightblue" stroke="midnightblue" points="285.182,-190.445 295.777,-190.465 287.506,-183.842 285.182,-190.445"/>
</g>
<!-- Node72 -->
<g id="node4" class="node"><title>Node72</title>
<g id="a_node4"><a xlink:href="namespacekoala_1_1utils.html#a152ac1827f4fdbd036d6e67cdf3acebb" target="_top" xlink:title=" ">
<polygon fill="white" stroke="black" points="282.5,-152.5 282.5,-171.5 383.5,-171.5 383.5,-152.5 282.5,-152.5"/>
<text text-anchor="middle" x="333" y="-159.5" font-family="Helvetica,sans-Serif" font-size="10.00">koala.utils.is_range</text>
</a>
</g>
</g>
<!-- Node71&#45;&gt;Node72 -->
<g id="edge4" class="edge"><title>Node71&#45;&gt;Node72</title>
<path fill="none" stroke="midnightblue" d="M236.103,-136.338C252.333,-140.681 270.549,-145.555 286.711,-149.88"/>
<polygon fill="midnightblue" stroke="midnightblue" points="285.907,-153.288 296.472,-152.493 287.717,-146.526 285.907,-153.288"/>
</g>
<!-- Node73 -->
<g id="node5" class="node"><title>Node73</title>
<g id="a_node5"><a xlink:href="namespacekoala_1_1utils.html#a5c70ac45916995934736ab28b501c8c5" target="_top" xlink:title=" ">
<polygon fill="white" stroke="black" points="272,-114.5 272,-133.5 394,-133.5 394,-114.5 272,-114.5"/>
<text text-anchor="middle" x="333" y="-121.5" font-family="Helvetica,sans-Serif" font-size="10.00">koala.utils.split_address</text>
</a>
</g>
</g>
<!-- Node71&#45;&gt;Node73 -->
<g id="edge5" class="edge"><title>Node71&#45;&gt;Node73</title>
<path fill="none" stroke="midnightblue" d="M236.103,-124C244.31,-124 253.026,-124 261.726,-124"/>
<polygon fill="midnightblue" stroke="midnightblue" points="261.902,-127.5 271.902,-124 261.902,-120.5 261.902,-127.5"/>
</g>
<!-- Node74 -->
<g id="node6" class="node"><title>Node74</title>
<g id="a_node6"><a xlink:href="namespacekoala_1_1utils.html#a65476c62402a00e3d46dbc99b6a4ea88" target="_top" xlink:title=" ">
<polygon fill="white" stroke="black" points="282.5,-76.5 282.5,-95.5 383.5,-95.5 383.5,-76.5 282.5,-76.5"/>
<text text-anchor="middle" x="333" y="-83.5" font-family="Helvetica,sans-Serif" font-size="10.00">koala.utils.col2num</text>
</a>
</g>
</g>
<!-- Node71&#45;&gt;Node74 -->
<g id="edge6" class="edge"><title>Node71&#45;&gt;Node74</title>
<path fill="none" stroke="midnightblue" d="M236.103,-111.662C252.333,-107.319 270.549,-102.445 286.711,-98.1196"/>
<polygon fill="midnightblue" stroke="midnightblue" points="287.717,-101.474 296.472,-95.5074 285.907,-94.7116 287.717,-101.474"/>
</g>
<!-- Node75 -->
<g id="node7" class="node"><title>Node75</title>
<g id="a_node7"><a xlink:href="namespacekoala_1_1utils.html#a2037076cc5a6fbf884023917a0cbfca7" target="_top" xlink:title=" ">
<polygon fill="white" stroke="black" points="282.5,-38.5 282.5,-57.5 383.5,-57.5 383.5,-38.5 282.5,-38.5"/>
<text text-anchor="middle" x="333" y="-45.5" font-family="Helvetica,sans-Serif" font-size="10.00">koala.utils.num2col</text>
</a>
</g>
</g>
<!-- Node71&#45;&gt;Node75 -->
<g id="edge7" class="edge"><title>Node71&#45;&gt;Node75</title>
<path fill="none" stroke="midnightblue" d="M208.212,-108.93C224.2,-96.3087 248.507,-78.5535 272,-67 276.541,-64.7668 281.402,-62.7198 286.32,-60.8647"/>
<polygon fill="midnightblue" stroke="midnightblue" points="287.506,-64.1577 295.777,-57.5353 285.182,-57.555 287.506,-64.1577"/>
</g>
<!-- Node76 -->
<g id="node8" class="node"><title>Node76</title>
<g id="a_node8"><a xlink:href="namespacekoala_1_1utils.html#aabb45efe6343cf3795888c77a434d47d" target="_top" xlink:title=" ">
<polygon fill="white" stroke="black" points="288,-0.5 288,-19.5 378,-19.5 378,-0.5 288,-0.5"/>
<text text-anchor="middle" x="333" y="-7.5" font-family="Helvetica,sans-Serif" font-size="10.00">koala.utils.flatten</text>
</a>
</g>
</g>
<!-- Node71&#45;&gt;Node76 -->
<g id="edge8" class="edge"><title>Node71&#45;&gt;Node76</title>
<path fill="none" stroke="midnightblue" d="M199.18,-108.86C212.624,-87.933 239.618,-50.3405 272,-29 275.102,-26.9557 278.438,-25.1193 281.892,-23.4716"/>
<polygon fill="midnightblue" stroke="midnightblue" points="283.372,-26.6461 291.228,-19.5377 280.654,-20.1954 283.372,-26.6461"/>
</g>
</g>
</svg>
