<?xml version="1.0" encoding="UTF-8" standalone="no"?>
<!DOCTYPE svg PUBLIC "-//W3C//DTD SVG 1.1//EN"
 "http://www.w3.org/Graphics/SVG/1.1/DTD/svg11.dtd">
<!-- Generated by graphviz version 2.38.0 (20140413.2041)
 -->
<!-- Title: koala.tokenizer.ASTNode Pages: 1 -->
<svg width="396pt" height="104pt"
 viewBox="0.00 0.00 396.00 104.00" xmlns="http://www.w3.org/2000/svg" xmlns:xlink="http://www.w3.org/1999/xlink">
<g id="graph0" class="graph" transform="scale(1 1) rotate(0) translate(4 100)">
<title>koala.tokenizer.ASTNode</title>
<polygon fill="white" stroke="none" points="-4,4 -4,-100 392,-100 392,4 -4,4"/>
<!-- Node0 -->
<g id="node1" class="node"><title>Node0</title>
<g id="a_node1"><a xlink:title=" ">
<polygon fill="#bfbfbf" stroke="black" points="79,-38.5 79,-57.5 206,-57.5 206,-38.5 79,-38.5"/>
<text text-anchor="middle" x="142.5" y="-45.5" font-family="Helvetica,sans-Serif" font-size="10.00">koala.tokenizer.ASTNode</text>
</a>
</g>
</g>
<!-- Node2 -->
<g id="node3" class="node"><title>Node2</title>
<g id="a_node3"><a xlink:href="classkoala_1_1tokenizer_1_1_function_node.html" target="_top" xlink:title=" ">
<polygon fill="white" stroke="black" points="242,-76.5 242,-95.5 388,-95.5 388,-76.5 242,-76.5"/>
<text text-anchor="middle" x="315" y="-83.5" font-family="Helvetica,sans-Serif" font-size="10.00">koala.tokenizer.FunctionNode</text>
</a>
</g>
</g>
<!-- Node0&#45;&gt;Node2 -->
<g id="edge2" class="edge"><title>Node0&#45;&gt;Node2</title>
<path fill="none" stroke="midnightblue" d="M196.554,-59.8243C220.591,-65.1816 248.632,-71.4311 271.285,-76.4799"/>
<polygon fill="midnightblue" stroke="midnightblue" points="197.046,-56.3483 186.524,-57.589 195.523,-63.1806 197.046,-56.3483"/>
</g>
<!-- Node3 -->
<g id="node4" class="node"><title>Node3</title>
<g id="a_node4"><a xlink:href="classkoala_1_1tokenizer_1_1_operator_node.html" target="_top" xlink:title=" ">
<polygon fill="white" stroke="black" points="242,-38.5 242,-57.5 388,-57.5 388,-38.5 242,-38.5"/>
<text text-anchor="middle" x="315" y="-45.5" font-family="Helvetica,sans-Serif" font-size="10.00">koala.tokenizer.OperatorNode</text>
</a>
</g>
</g>
<!-- Node0&#45;&gt;Node3 -->
<g id="edge3" class="edge"><title>Node0&#45;&gt;Node3</title>
<path fill="none" stroke="midnightblue" d="M216.288,-48C224.794,-48 233.469,-48 241.965,-48"/>
<polygon fill="midnightblue" stroke="midnightblue" points="216.02,-44.5001 206.02,-48 216.02,-51.5001 216.02,-44.5001"/>
</g>
<!-- Node4 -->
<g id="node5" class="node"><title>Node4</title>
<g id="a_node5"><a xlink:href="classkoala_1_1tokenizer_1_1_range_node.html" target="_top" xlink:title=" ">
<polygon fill="white" stroke="black" points="247,-0.5 247,-19.5 383,-19.5 383,-0.5 247,-0.5"/>
<text text-anchor="middle" x="315" y="-7.5" font-family="Helvetica,sans-Serif" font-size="10.00">koala.tokenizer.RangeNode</text>
</a>
</g>
</g>
<!-- Node0&#45;&gt;Node4 -->
<g id="edge4" class="edge"><title>Node0&#45;&gt;Node4</title>
<path fill="none" stroke="midnightblue" d="M196.554,-36.1757C220.591,-30.8184 248.632,-24.5689 271.285,-19.5201"/>
<polygon fill="midnightblue" stroke="midnightblue" points="195.523,-32.8194 186.524,-38.411 197.046,-39.6517 195.523,-32.8194"/>
</g>
<!-- Node1 -->
<g id="node2" class="node"><title>Node1</title>
<g id="a_node2"><a xlink:title=" ">
<polygon fill="white" stroke="#bfbfbf" points="0,-38.5 0,-57.5 43,-57.5 43,-38.5 0,-38.5"/>
<text text-anchor="middle" x="21.5" y="-45.5" font-family="Helvetica,sans-Serif" font-size="10.00">object</text>
</a>
</g>
</g>
<!-- Node1&#45;&gt;Node0 -->
<g id="edge1" class="edge"><title>Node1&#45;&gt;Node0</title>
<path fill="none" stroke="midnightblue" d="M53.3477,-48C61.2226,-48 69.9771,-48 78.8255,-48"/>
<polygon fill="midnightblue" stroke="midnightblue" points="53.2283,-44.5001 43.2282,-48 53.2282,-51.5001 53.2283,-44.5001"/>
</g>
</g>
</svg>
