<?xml version="1.0" encoding="UTF-8" standalone="no"?>
<!DOCTYPE svg PUBLIC "-//W3C//DTD SVG 1.1//EN"
 "http://www.w3.org/Graphics/SVG/1.1/DTD/svg11.dtd">
<!-- Generated by graphviz version 2.38.0 (20140413.2041)
 -->
<!-- Title: koala.Spreadsheet.Spreadsheet.set_value Pages: 1 -->
<svg width="843pt" height="134pt"
 viewBox="0.00 0.00 843.00 134.00" xmlns="http://www.w3.org/2000/svg" xmlns:xlink="http://www.w3.org/1999/xlink">
<g id="graph0" class="graph" transform="scale(1 1) rotate(0) translate(4 130)">
<title>koala.Spreadsheet.Spreadsheet.set_value</title>
<polygon fill="white" stroke="none" points="-4,4 -4,-130 839,-130 839,4 -4,4"/>
<!-- Node227 -->
<g id="node1" class="node"><title>Node227</title>
<g id="a_node1"><a xlink:title=" ">
<polygon fill="#bfbfbf" stroke="black" points="0,-39 0,-69 172,-69 172,-39 0,-39"/>
<text text-anchor="start" x="8" y="-57" font-family="Helvetica,sans-Serif" font-size="10.00">koala.Spreadsheet.Spreadsheet.set</text>
<text text-anchor="middle" x="86" y="-46" font-family="Helvetica,sans-Serif" font-size="10.00">_value</text>
</a>
</g>
</g>
<!-- Node228 -->
<g id="node2" class="node"><title>Node228</title>
<g id="a_node2"><a xlink:href="classkoala_1_1_spreadsheet_1_1_spreadsheet.html#a2f695c5a3bc3f8812609bd2ba4ebb784" target="_top" xlink:title=" ">
<polygon fill="white" stroke="black" points="208,-39 208,-69 381,-69 381,-39 208,-39"/>
<text text-anchor="start" x="216" y="-57" font-family="Helvetica,sans-Serif" font-size="10.00">koala.Spreadsheet.Spreadsheet.cell</text>
<text text-anchor="middle" x="294.5" y="-46" font-family="Helvetica,sans-Serif" font-size="10.00">_set_value</text>
</a>
</g>
</g>
<!-- Node227&#45;&gt;Node228 -->
<g id="edge1" class="edge"><title>Node227&#45;&gt;Node228</title>
<path fill="none" stroke="midnightblue" d="M172.184,-54C180.648,-54 189.28,-54 197.841,-54"/>
<polygon fill="midnightblue" stroke="midnightblue" points="197.845,-57.5001 207.845,-54 197.845,-50.5001 197.845,-57.5001"/>
</g>
<!-- Node229 -->
<g id="node3" class="node"><title>Node229</title>
<g id="a_node3"><a xlink:href="classkoala_1_1_spreadsheet_1_1_spreadsheet.html#a9d7718c6c87f06155aea63d7e12344f3" target="_top" xlink:title=" ">
<polygon fill="white" stroke="black" points="420,-106.5 420,-125.5 608,-125.5 608,-106.5 420,-106.5"/>
<text text-anchor="middle" x="514" y="-113.5" font-family="Helvetica,sans-Serif" font-size="10.00">koala.Spreadsheet.Spreadsheet.fix_cell</text>
</a>
</g>
</g>
<!-- Node228&#45;&gt;Node229 -->
<g id="edge2" class="edge"><title>Node228&#45;&gt;Node229</title>
<path fill="none" stroke="midnightblue" d="M333.625,-69.0945C357.341,-78.0818 388.624,-89.2148 417,-97 426.871,-99.7082 437.413,-102.194 447.763,-104.412"/>
<polygon fill="midnightblue" stroke="midnightblue" points="447.097,-107.848 457.599,-106.455 448.52,-100.995 447.097,-107.848"/>
</g>
<!-- Node231 -->
<g id="node5" class="node"><title>Node231</title>
<g id="a_node5"><a xlink:href="classkoala_1_1_spreadsheet_1_1_spreadsheet.html#a6a30676c4bbc56ea5d6f78f073312b6e" target="_top" xlink:title=" ">
<polygon fill="white" stroke="black" points="427.5,-39 427.5,-69 600.5,-69 600.5,-39 427.5,-39"/>
<text text-anchor="start" x="435.5" y="-57" font-family="Helvetica,sans-Serif" font-size="10.00">koala.Spreadsheet.Spreadsheet.cell</text>
<text text-anchor="middle" x="514" y="-46" font-family="Helvetica,sans-Serif" font-size="10.00">_reset</text>
</a>
</g>
</g>
<!-- Node228&#45;&gt;Node231 -->
<g id="edge4" class="edge"><title>Node228&#45;&gt;Node231</title>
<path fill="none" stroke="midnightblue" d="M381.15,-54C393.037,-54 405.311,-54 417.366,-54"/>
<polygon fill="midnightblue" stroke="midnightblue" points="417.429,-57.5001 427.428,-54 417.428,-50.5001 417.429,-57.5001"/>
</g>
<!-- Node232 -->
<g id="node6" class="node"><title>Node232</title>
<g id="a_node6"><a xlink:href="classkoala_1_1_spreadsheet_1_1_spreadsheet.html#affd17089825c4b3391c4d6b9b702209c" target="_top" xlink:title=" ">
<polygon fill="white" stroke="black" points="417,-0.5 417,-19.5 611,-19.5 611,-0.5 417,-0.5"/>
<text text-anchor="middle" x="514" y="-7.5" font-family="Helvetica,sans-Serif" font-size="10.00">koala.Spreadsheet.Spreadsheet.cell_add</text>
</a>
</g>
</g>
<!-- Node228&#45;&gt;Node232 -->
<g id="edge6" class="edge"><title>Node228&#45;&gt;Node232</title>
<path fill="none" stroke="midnightblue" d="M369.743,-38.9808C398.005,-33.2633 429.737,-26.844 456.139,-21.5029"/>
<polygon fill="midnightblue" stroke="midnightblue" points="456.871,-24.9258 465.978,-19.5124 455.483,-18.0648 456.871,-24.9258"/>
</g>
<!-- Node230 -->
<g id="node4" class="node"><title>Node230</title>
<g id="a_node4"><a xlink:href="classkoala_1_1_spreadsheet_1_1_spreadsheet.html#a89ffab272ebf76d8e0e331c95234dd2a" target="_top" xlink:title=" ">
<polygon fill="white" stroke="black" points="647,-106.5 647,-125.5 835,-125.5 835,-106.5 647,-106.5"/>
<text text-anchor="middle" x="741" y="-113.5" font-family="Helvetica,sans-Serif" font-size="10.00">koala.Spreadsheet.Spreadsheet.cell_fix</text>
</a>
</g>
</g>
<!-- Node229&#45;&gt;Node230 -->
<g id="edge3" class="edge"><title>Node229&#45;&gt;Node230</title>
<path fill="none" stroke="midnightblue" d="M608.14,-116C617.551,-116 627.149,-116 636.658,-116"/>
<polygon fill="midnightblue" stroke="midnightblue" points="636.93,-119.5 646.93,-116 636.93,-112.5 636.93,-119.5"/>
</g>
<!-- Node231&#45;&gt;Node231 -->
<g id="edge5" class="edge"><title>Node231&#45;&gt;Node231</title>
<path fill="none" stroke="midnightblue" d="M476.009,-69.159C466.848,-78.5566 479.512,-87.5 514,-87.5 535.016,-87.5 547.928,-84.179 552.736,-79.4579"/>
<polygon fill="midnightblue" stroke="midnightblue" points="556.203,-78.8804 551.991,-69.159 549.222,-79.3855 556.203,-78.8804"/>
</g>
</g>
</svg>
