<?xml version="1.0" encoding="UTF-8" standalone="no"?>
<!DOCTYPE svg PUBLIC "-//W3C//DTD SVG 1.1//EN"
 "http://www.w3.org/Graphics/SVG/1.1/DTD/svg11.dtd">
<!-- Generated by graphviz version 2.38.0 (20140413.2041)
 -->
<!-- Title: koala.tokenizer.f_tokenStack Pages: 1 -->
<svg width="151pt" height="151pt"
 viewBox="0.00 0.00 151.00 151.00" xmlns="http://www.w3.org/2000/svg" xmlns:xlink="http://www.w3.org/1999/xlink">
<g id="graph0" class="graph" transform="scale(1 1) rotate(0) translate(4 147)">
<title>koala.tokenizer.f_tokenStack</title>
<polygon fill="white" stroke="none" points="-4,4 -4,-147 147,-147 147,4 -4,4"/>
<!-- Node3 -->
<g id="node1" class="node"><title>Node3</title>
<g id="a_node1"><a xlink:title=" ">
<polygon fill="#bfbfbf" stroke="black" points="0,-0.5 0,-19.5 143,-19.5 143,-0.5 0,-0.5"/>
<text text-anchor="middle" x="71.5" y="-7.5" font-family="Helvetica,sans-Serif" font-size="10.00">koala.tokenizer.f_tokenStack</text>
</a>
</g>
</g>
<!-- Node4 -->
<g id="node2" class="node"><title>Node4</title>
<g id="a_node2"><a xlink:href="classkoala_1_1tokenizer_1_1_excel_parser_tokens.html" target="_top" xlink:title=" ">
<polygon fill="white" stroke="black" points="2,-56.5 2,-86.5 141,-86.5 141,-56.5 2,-56.5"/>
<text text-anchor="start" x="10" y="-74.5" font-family="Helvetica,sans-Serif" font-size="10.00">koala.tokenizer.ExcelParser</text>
<text text-anchor="middle" x="71.5" y="-63.5" font-family="Helvetica,sans-Serif" font-size="10.00">Tokens</text>
</a>
</g>
</g>
<!-- Node4&#45;&gt;Node3 -->
<g id="edge1" class="edge"><title>Node4&#45;&gt;Node3</title>
<path fill="none" stroke="midnightblue" d="M71.5,-46.2892C71.5,-36.857 71.5,-26.6548 71.5,-19.6578"/>
<polygon fill="midnightblue" stroke="midnightblue" points="68.0001,-46.3993 71.5,-56.3993 75.0001,-46.3994 68.0001,-46.3993"/>
</g>
<!-- Node5 -->
<g id="node3" class="node"><title>Node5</title>
<g id="a_node3"><a xlink:title=" ">
<polygon fill="white" stroke="#bfbfbf" points="50,-123.5 50,-142.5 93,-142.5 93,-123.5 50,-123.5"/>
<text text-anchor="middle" x="71.5" y="-130.5" font-family="Helvetica,sans-Serif" font-size="10.00">object</text>
</a>
</g>
</g>
<!-- Node5&#45;&gt;Node4 -->
<g id="edge2" class="edge"><title>Node5&#45;&gt;Node4</title>
<path fill="none" stroke="midnightblue" d="M71.5,-113.235C71.5,-104.586 71.5,-94.4969 71.5,-86.523"/>
<polygon fill="midnightblue" stroke="midnightblue" points="68.0001,-113.475 71.5,-123.475 75.0001,-113.475 68.0001,-113.475"/>
</g>
</g>
</svg>
