<?xml version="1.0" encoding="UTF-8" standalone="no"?>
<!DOCTYPE svg PUBLIC "-//W3C//DTD SVG 1.1//EN"
 "http://www.w3.org/Graphics/SVG/1.1/DTD/svg11.dtd">
<!-- Generated by graphviz version 2.38.0 (20140413.2041)
 -->
<!-- Title: koala.ast.astnodes.RangeNode.get_cells Pages: 1 -->
<svg width="426pt" height="218pt"
 viewBox="0.00 0.00 426.00 218.00" xmlns="http://www.w3.org/2000/svg" xmlns:xlink="http://www.w3.org/1999/xlink">
<g id="graph0" class="graph" transform="scale(1 1) rotate(0) translate(4 214)">
<title>koala.ast.astnodes.RangeNode.get_cells</title>
<polygon fill="white" stroke="none" points="-4,4 -4,-214 422,-214 422,4 -4,4"/>
<!-- Node4 -->
<g id="node1" class="node"><title>Node4</title>
<g id="a_node1"><a xlink:title=" ">
<polygon fill="#bfbfbf" stroke="black" points="0,-90 0,-120 130,-120 130,-90 0,-90"/>
<text text-anchor="start" x="8" y="-108" font-family="Helvetica,sans-Serif" font-size="10.00">koala.ast.astnodes.Range</text>
<text text-anchor="middle" x="65" y="-97" font-family="Helvetica,sans-Serif" font-size="10.00">Node.get_cells</text>
</a>
</g>
</g>
<!-- Node5 -->
<g id="node2" class="node"><title>Node5</title>
<g id="a_node2"><a xlink:href="namespacekoala_1_1utils.html#a1d3620df245d23fea05928298cabc2ac" target="_top" xlink:title=" ">
<polygon fill="white" stroke="black" points="166,-90 166,-120 260,-120 260,-90 166,-90"/>
<text text-anchor="start" x="174" y="-108" font-family="Helvetica,sans-Serif" font-size="10.00">koala.utils.resolve</text>
<text text-anchor="middle" x="213" y="-97" font-family="Helvetica,sans-Serif" font-size="10.00">_range</text>
</a>
</g>
</g>
<!-- Node4&#45;&gt;Node5 -->
<g id="edge1" class="edge"><title>Node4&#45;&gt;Node5</title>
<path fill="none" stroke="midnightblue" d="M130.038,-105C138.644,-105 147.419,-105 155.875,-105"/>
<polygon fill="midnightblue" stroke="midnightblue" points="155.997,-108.5 165.997,-105 155.997,-101.5 155.997,-108.5"/>
</g>
<!-- Node6 -->
<g id="node3" class="node"><title>Node6</title>
<g id="a_node3"><a xlink:href="namespacekoala_1_1utils.html#a77ace10251dde2f09a457b7b469208cc" target="_top" xlink:title=" ">
<polygon fill="white" stroke="black" points="301.5,-190.5 301.5,-209.5 412.5,-209.5 412.5,-190.5 301.5,-190.5"/>
<text text-anchor="middle" x="357" y="-197.5" font-family="Helvetica,sans-Serif" font-size="10.00">koala.utils.split_range</text>
</a>
</g>
</g>
<!-- Node5&#45;&gt;Node6 -->
<g id="edge2" class="edge"><title>Node5&#45;&gt;Node6</title>
<path fill="none" stroke="midnightblue" d="M226.683,-120.258C241.625,-137.321 267.984,-164.695 296,-181 299.665,-183.133 303.598,-185.056 307.634,-186.784"/>
<polygon fill="midnightblue" stroke="midnightblue" points="306.568,-190.124 317.157,-190.467 309.093,-183.596 306.568,-190.124"/>
</g>
<!-- Node7 -->
<g id="node4" class="node"><title>Node7</title>
<g id="a_node4"><a xlink:href="namespacekoala_1_1utils.html#a152ac1827f4fdbd036d6e67cdf3acebb" target="_top" xlink:title=" ">
<polygon fill="white" stroke="black" points="306.5,-152.5 306.5,-171.5 407.5,-171.5 407.5,-152.5 306.5,-152.5"/>
<text text-anchor="middle" x="357" y="-159.5" font-family="Helvetica,sans-Serif" font-size="10.00">koala.utils.is_range</text>
</a>
</g>
</g>
<!-- Node5&#45;&gt;Node7 -->
<g id="edge3" class="edge"><title>Node5&#45;&gt;Node7</title>
<path fill="none" stroke="midnightblue" d="M243.978,-120.009C259.333,-127.41 278.448,-136.186 296,-143 301.612,-145.179 307.587,-147.3 313.509,-149.287"/>
<polygon fill="midnightblue" stroke="midnightblue" points="312.761,-152.724 323.353,-152.491 314.928,-146.067 312.761,-152.724"/>
</g>
<!-- Node8 -->
<g id="node5" class="node"><title>Node8</title>
<g id="a_node5"><a xlink:href="namespacekoala_1_1utils.html#a5c70ac45916995934736ab28b501c8c5" target="_top" xlink:title=" ">
<polygon fill="white" stroke="black" points="296,-114.5 296,-133.5 418,-133.5 418,-114.5 296,-114.5"/>
<text text-anchor="middle" x="357" y="-121.5" font-family="Helvetica,sans-Serif" font-size="10.00">koala.utils.split_address</text>
</a>
</g>
</g>
<!-- Node5&#45;&gt;Node8 -->
<g id="edge4" class="edge"><title>Node5&#45;&gt;Node8</title>
<path fill="none" stroke="midnightblue" d="M260.103,-111.169C268.31,-112.267 277.026,-113.433 285.726,-114.597"/>
<polygon fill="midnightblue" stroke="midnightblue" points="285.526,-118.102 295.902,-115.959 286.455,-111.163 285.526,-118.102"/>
</g>
<!-- Node9 -->
<g id="node6" class="node"><title>Node9</title>
<g id="a_node6"><a xlink:href="namespacekoala_1_1utils.html#a65476c62402a00e3d46dbc99b6a4ea88" target="_top" xlink:title=" ">
<polygon fill="white" stroke="black" points="306.5,-76.5 306.5,-95.5 407.5,-95.5 407.5,-76.5 306.5,-76.5"/>
<text text-anchor="middle" x="357" y="-83.5" font-family="Helvetica,sans-Serif" font-size="10.00">koala.utils.col2num</text>
</a>
</g>
</g>
<!-- Node5&#45;&gt;Node9 -->
<g id="edge5" class="edge"><title>Node5&#45;&gt;Node9</title>
<path fill="none" stroke="midnightblue" d="M260.103,-98.8312C271.618,-97.2905 284.133,-95.616 296.205,-94.0008"/>
<polygon fill="midnightblue" stroke="midnightblue" points="296.762,-97.4575 306.209,-92.6622 295.833,-90.5194 296.762,-97.4575"/>
</g>
<!-- Node10 -->
<g id="node7" class="node"><title>Node10</title>
<g id="a_node7"><a xlink:href="namespacekoala_1_1utils.html#a2037076cc5a6fbf884023917a0cbfca7" target="_top" xlink:title=" ">
<polygon fill="white" stroke="black" points="306.5,-38.5 306.5,-57.5 407.5,-57.5 407.5,-38.5 306.5,-38.5"/>
<text text-anchor="middle" x="357" y="-45.5" font-family="Helvetica,sans-Serif" font-size="10.00">koala.utils.num2col</text>
</a>
</g>
</g>
<!-- Node5&#45;&gt;Node10 -->
<g id="edge6" class="edge"><title>Node5&#45;&gt;Node10</title>
<path fill="none" stroke="midnightblue" d="M243.978,-89.9905C259.333,-82.5897 278.448,-73.8142 296,-67 301.612,-64.8214 307.587,-62.7005 313.509,-60.7134"/>
<polygon fill="midnightblue" stroke="midnightblue" points="314.928,-63.9326 323.353,-57.509 312.761,-57.2764 314.928,-63.9326"/>
</g>
<!-- Node11 -->
<g id="node8" class="node"><title>Node11</title>
<g id="a_node8"><a xlink:href="namespacekoala_1_1utils.html#aabb45efe6343cf3795888c77a434d47d" target="_top" xlink:title=" ">
<polygon fill="white" stroke="black" points="312,-0.5 312,-19.5 402,-19.5 402,-0.5 312,-0.5"/>
<text text-anchor="middle" x="357" y="-7.5" font-family="Helvetica,sans-Serif" font-size="10.00">koala.utils.flatten</text>
</a>
</g>
</g>
<!-- Node5&#45;&gt;Node11 -->
<g id="edge7" class="edge"><title>Node5&#45;&gt;Node11</title>
<path fill="none" stroke="midnightblue" d="M226.683,-89.7417C241.625,-72.6788 267.984,-45.3047 296,-29 299.665,-26.8669 303.598,-24.9438 307.634,-23.2162"/>
<polygon fill="midnightblue" stroke="midnightblue" points="309.093,-26.4044 317.157,-19.5328 306.568,-19.8757 309.093,-26.4044"/>
</g>
</g>
</svg>
