<?xml version="1.0" encoding="UTF-8" standalone="no"?>
<!DOCTYPE svg PUBLIC "-//W3C//DTD SVG 1.1//EN"
 "http://www.w3.org/Graphics/SVG/1.1/DTD/svg11.dtd">
<!-- Generated by graphviz version 2.38.0 (20140413.2041)
 -->
<!-- Title: koala.Spreadsheet.Spreadsheet.gen_graph Pages: 1 -->
<svg width="567pt" height="116pt"
 viewBox="0.00 0.00 567.00 115.50" xmlns="http://www.w3.org/2000/svg" xmlns:xlink="http://www.w3.org/1999/xlink">
<g id="graph0" class="graph" transform="scale(1 1) rotate(0) translate(4 111.5)">
<title>koala.Spreadsheet.Spreadsheet.gen_graph</title>
<polygon fill="white" stroke="none" points="-4,4 -4,-111.5 563,-111.5 563,4 -4,4"/>
<!-- Node171 -->
<g id="node1" class="node"><title>Node171</title>
<g id="a_node1"><a xlink:title=" ">
<polygon fill="#bfbfbf" stroke="black" points="0,-44.5 0,-74.5 174,-74.5 174,-44.5 0,-44.5"/>
<text text-anchor="start" x="8" y="-62.5" font-family="Helvetica,sans-Serif" font-size="10.00">koala.Spreadsheet.Spreadsheet.gen</text>
<text text-anchor="middle" x="87" y="-51.5" font-family="Helvetica,sans-Serif" font-size="10.00">_graph</text>
</a>
</g>
</g>
<!-- Node172 -->
<g id="node2" class="node"><title>Node172</title>
<g id="a_node2"><a xlink:href="namespacekoala_1_1utils.html#aabb45efe6343cf3795888c77a434d47d" target="_top" xlink:title=" ">
<polygon fill="white" stroke="black" points="254.5,-88 254.5,-107 344.5,-107 344.5,-88 254.5,-88"/>
<text text-anchor="middle" x="299.5" y="-95" font-family="Helvetica,sans-Serif" font-size="10.00">koala.utils.flatten</text>
</a>
</g>
</g>
<!-- Node171&#45;&gt;Node172 -->
<g id="edge1" class="edge"><title>Node171&#45;&gt;Node172</title>
<path fill="none" stroke="midnightblue" d="M171.195,-74.5186C195.81,-78.9622 222.11,-83.7099 244.378,-87.7297"/>
<polygon fill="midnightblue" stroke="midnightblue" points="243.841,-91.1894 254.304,-89.5217 245.085,-84.3007 243.841,-91.1894"/>
</g>
<!-- Node173 -->
<g id="node3" class="node"><title>Node173</title>
<g id="a_node3"><a xlink:href="namespacekoala_1_1utils.html#a152ac1827f4fdbd036d6e67cdf3acebb" target="_top" xlink:title=" ">
<polygon fill="white" stroke="black" points="249,-50 249,-69 350,-69 350,-50 249,-50"/>
<text text-anchor="middle" x="299.5" y="-57" font-family="Helvetica,sans-Serif" font-size="10.00">koala.utils.is_range</text>
</a>
</g>
</g>
<!-- Node171&#45;&gt;Node173 -->
<g id="edge2" class="edge"><title>Node171&#45;&gt;Node173</title>
<path fill="none" stroke="midnightblue" d="M174.226,-59.5C195.884,-59.5 218.653,-59.5 238.7,-59.5"/>
<polygon fill="midnightblue" stroke="midnightblue" points="238.914,-63.0001 248.914,-59.5 238.914,-56.0001 238.914,-63.0001"/>
</g>
<!-- Node174 -->
<g id="node4" class="node"><title>Node174</title>
<g id="a_node4"><a xlink:href="classkoala_1_1_spreadsheet_1_1_spreadsheet.html#ac1318faf81bbc9c0a16d184e534d346f" target="_top" xlink:title=" ">
<polygon fill="white" stroke="black" points="210,-0.5 210,-30.5 389,-30.5 389,-0.5 210,-0.5"/>
<text text-anchor="start" x="218" y="-18.5" font-family="Helvetica,sans-Serif" font-size="10.00">koala.Spreadsheet.Spreadsheet.build</text>
<text text-anchor="middle" x="299.5" y="-7.5" font-family="Helvetica,sans-Serif" font-size="10.00">_spreadsheet</text>
</a>
</g>
</g>
<!-- Node171&#45;&gt;Node174 -->
<g id="edge3" class="edge"><title>Node171&#45;&gt;Node174</title>
<path fill="none" stroke="midnightblue" d="M159.853,-44.4808C178.127,-40.6612 197.898,-36.5284 216.63,-32.6131"/>
<polygon fill="midnightblue" stroke="midnightblue" points="217.541,-35.9983 226.613,-30.5262 216.109,-29.1464 217.541,-35.9983"/>
</g>
<!-- Node175 -->
<g id="node5" class="node"><title>Node175</title>
<g id="a_node5"><a xlink:href="namespacekoala_1_1_range.html#a1b931a910d6cf77a91b3a9bb8b8e5258" target="_top" xlink:title=" ">
<polygon fill="white" stroke="black" points="425,-6 425,-25 559,-25 559,-6 425,-6"/>
<text text-anchor="middle" x="492" y="-13" font-family="Helvetica,sans-Serif" font-size="10.00">koala.Range.RangeFactory</text>
</a>
</g>
</g>
<!-- Node174&#45;&gt;Node175 -->
<g id="edge4" class="edge"><title>Node174&#45;&gt;Node175</title>
<path fill="none" stroke="midnightblue" d="M389.058,-15.5C397.623,-15.5 406.261,-15.5 414.693,-15.5"/>
<polygon fill="midnightblue" stroke="midnightblue" points="414.857,-19.0001 424.857,-15.5 414.857,-12.0001 414.857,-19.0001"/>
</g>
</g>
</svg>
