<?xml version="1.0" encoding="UTF-8" standalone="no"?>
<!DOCTYPE svg PUBLIC "-//W3C//DTD SVG 1.1//EN"
 "http://www.w3.org/Graphics/SVG/1.1/DTD/svg11.dtd">
<!-- Generated by graphviz version 2.38.0 (20140413.2041)
 -->
<!-- Title: koala.Spreadsheet.Spreadsheet.add_cell Pages: 1 -->
<!--zoomable 369 -->
<svg id="main" version="1.1" xmlns="http://www.w3.org/2000/svg" xmlns:xlink="http://www.w3.org/1999/xlink" xml:space="preserve" onload="init(evt)">
<style type="text/css"><![CDATA[
.edge:hover path { stroke: red; }
.edge:hover polygon { stroke: red; fill: red; }
]]></style>
<script type="text/javascript"><![CDATA[
var edges = document.getElementsByTagName('g');
if (edges && edges.length) {
  for (var i=0;i<edges.length;i++) {
    if (edges[i].id.substr(0,4)=='edge') {
      edges[i].setAttribute('class','edge');
    }
  }
}
]]></script>
        <defs>
                <circle id="rim" cx="0" cy="0" r="7"/>
                <circle id="rim2" cx="0" cy="0" r="3.5"/>
                <g id="zoomPlus">
                        <use xlink:href="#rim" fill="#404040">
                                <set attributeName="fill" to="#808080" begin="zoomplus.mouseover" end="zoomplus.mouseout"/>
                        </use>
                        <path d="M-4,0h8M0,-4v8" fill="none" stroke="white" stroke-width="1.5" pointer-events="none"/>
                </g>
                <g id="zoomMin">
                        <use xlink:href="#rim" fill="#404040">
                                <set attributeName="fill" to="#808080" begin="zoomminus.mouseover" end="zoomminus.mouseout"/>
                        </use>
                        <path d="M-4,0h8" fill="none" stroke="white" stroke-width="1.5" pointer-events="none"/>
                </g>
                <g id="dirArrow">
                        <path fill="none" stroke="white" stroke-width="1.5" d="M0,-3.0v7 M-2.5,-0.5L0,-3.0L2.5,-0.5"/>
                </g>
               <g id="resetDef">
                       <use xlink:href="#rim2" fill="#404040">
                               <set attributeName="fill" to="#808080" begin="reset.mouseover" end="reset.mouseout"/>
                       </use>
               </g>
        </defs>

<script type="text/javascript">
var viewWidth = 1050;
var viewHeight = 369;
var sectionId = 'dynsection-2';
</script>
<script xlink:href="svgpan.js"/>
<svg id="graph" class="graph">
<g id="viewport">
<title>koala.Spreadsheet.Spreadsheet.add_cell</title>
<polygon fill="white" stroke="none" points="-4,4 -4,-364.5 1046,-364.5 1046,4 -4,4"/>
<!-- Node4 -->
<g id="node1" class="node"><title>Node4</title>
<g id="a_node1"><a xlink:title=" ">
<polygon fill="#bfbfbf" stroke="black" points="0,-158.5 0,-177.5 194,-177.5 194,-158.5 0,-158.5"/>
<text text-anchor="middle" x="97" y="-165.5" font-family="Helvetica,sans-Serif" font-size="10.00">koala.Spreadsheet.Spreadsheet.add_cell</text>
</a>
</g>
</g>
<!-- Node5 -->
<g id="node2" class="node"><title>Node5</title>
<g id="a_node2"><a xlink:href="classkoala_1_1_spreadsheet_1_1_spreadsheet.html#affd17089825c4b3391c4d6b9b702209c" target="_top" xlink:title=" ">
<polygon fill="white" stroke="black" points="230,-158.5 230,-177.5 424,-177.5 424,-158.5 230,-158.5"/>
<text text-anchor="middle" x="327" y="-165.5" font-family="Helvetica,sans-Serif" font-size="10.00">koala.Spreadsheet.Spreadsheet.cell_add</text>
</a>
</g>
</g>
<!-- Node4&#45;&gt;Node5 -->
<g id="edge1" class="edge"><title>Node4&#45;&gt;Node5</title>
<path fill="none" stroke="midnightblue" d="M194.032,-168C202.517,-168 211.138,-168 219.7,-168"/>
<polygon fill="midnightblue" stroke="midnightblue" points="219.714,-171.5 229.714,-168 219.714,-164.5 219.714,-171.5"/>
</g>
<!-- Node6 -->
<g id="node3" class="node"><title>Node6</title>
<g id="a_node3"><a xlink:href="namespacekoala_1_1ast.html#aa55446c8aa764f09775f006ee775ec7b" target="_top" xlink:title=" ">
<polygon fill="white" stroke="black" points="460,-153 460,-183 567,-183 567,-153 460,-153"/>
<text text-anchor="start" x="468" y="-171" font-family="Helvetica,sans-Serif" font-size="10.00">koala.ast.graph_from</text>
<text text-anchor="middle" x="513.5" y="-160" font-family="Helvetica,sans-Serif" font-size="10.00">_seeds</text>
</a>
</g>
</g>
<!-- Node5&#45;&gt;Node6 -->
<g id="edge2" class="edge"><title>Node5&#45;&gt;Node6</title>
<path fill="none" stroke="midnightblue" d="M424.033,-168C432.652,-168 441.227,-168 449.456,-168"/>
<polygon fill="midnightblue" stroke="midnightblue" points="449.672,-171.5 459.672,-168 449.672,-164.5 449.672,-171.5"/>
</g>
<!-- Node7 -->
<g id="node4" class="node"><title>Node7</title>
<g id="a_node4"><a xlink:href="namespacekoala_1_1ast.html#abb76e7037309a032effde5e5078a86e2" target="_top" xlink:title=" ">
<polygon fill="white" stroke="black" points="618.5,-272.5 618.5,-291.5 719.5,-291.5 719.5,-272.5 618.5,-272.5"/>
<text text-anchor="middle" x="669" y="-279.5" font-family="Helvetica,sans-Serif" font-size="10.00">koala.ast.cell2code</text>
</a>
</g>
</g>
<!-- Node6&#45;&gt;Node7 -->
<g id="edge3" class="edge"><title>Node6&#45;&gt;Node7</title>
<path fill="none" stroke="midnightblue" d="M524.63,-183.218C539.403,-204.238 568.849,-241.94 603,-263 606.393,-265.092 610.028,-266.964 613.78,-268.636"/>
<polygon fill="midnightblue" stroke="midnightblue" points="612.694,-271.97 623.28,-272.395 615.269,-265.461 612.694,-271.97"/>
</g>
<!-- Node12 -->
<g id="node9" class="node"><title>Node12</title>
<g id="a_node9"><a xlink:href="namespacekoala_1_1utils.html#ac7f70de24f29847f700db5eb4cad018c" target="_top" xlink:title=" ">
<polygon fill="white" stroke="black" points="618,-234.5 618,-253.5 720,-253.5 720,-234.5 618,-234.5"/>
<text text-anchor="middle" x="669" y="-241.5" font-family="Helvetica,sans-Serif" font-size="10.00">koala.utils.uniqueify</text>
</a>
</g>
</g>
<!-- Node6&#45;&gt;Node12 -->
<g id="edge8" class="edge"><title>Node6&#45;&gt;Node12</title>
<path fill="none" stroke="midnightblue" d="M537.546,-183.073C555.055,-194.142 579.971,-209.089 603,-220 611.293,-223.929 620.416,-227.648 629.138,-230.933"/>
<polygon fill="midnightblue" stroke="midnightblue" points="628.154,-234.3 638.748,-234.445 630.557,-227.725 628.154,-234.3"/>
</g>
<!-- Node13 -->
<g id="node10" class="node"><title>Node13</title>
<g id="a_node10"><a xlink:href="namespacekoala_1_1utils.html#a152ac1827f4fdbd036d6e67cdf3acebb" target="_top" xlink:title=" ">
<polygon fill="white" stroke="black" points="781.5,-196.5 781.5,-215.5 882.5,-215.5 882.5,-196.5 781.5,-196.5"/>
<text text-anchor="middle" x="832" y="-203.5" font-family="Helvetica,sans-Serif" font-size="10.00">koala.utils.is_range</text>
</a>
</g>
</g>
<!-- Node6&#45;&gt;Node13 -->
<g id="edge9" class="edge"><title>Node6&#45;&gt;Node13</title>
<path fill="none" stroke="midnightblue" d="M567.316,-176.816C579.048,-178.645 591.433,-180.477 603,-182 659.865,-189.486 724.954,-196.148 770.991,-200.543"/>
<polygon fill="midnightblue" stroke="midnightblue" points="770.812,-204.041 781.097,-201.5 771.472,-197.073 770.812,-204.041"/>
</g>
<!-- Node14 -->
<g id="node11" class="node"><title>Node14</title>
<g id="a_node11"><a xlink:href="namespacekoala_1_1ast.html#a3d0179539d74f2668d3917bf28d2edd8" target="_top" xlink:title=" ">
<polygon fill="white" stroke="black" points="606,-310.5 606,-329.5 732,-329.5 732,-310.5 606,-310.5"/>
<text text-anchor="middle" x="669" y="-317.5" font-family="Helvetica,sans-Serif" font-size="10.00">koala.ast.prepare_pointer</text>
</a>
</g>
</g>
<!-- Node6&#45;&gt;Node14 -->
<g id="edge10" class="edge"><title>Node6&#45;&gt;Node14</title>
<path fill="none" stroke="midnightblue" d="M520.465,-183.299C532.063,-211.029 560.322,-269.619 603,-301 605.652,-302.95 608.502,-304.701 611.474,-306.273"/>
<polygon fill="midnightblue" stroke="midnightblue" points="610.132,-309.507 620.683,-310.471 613.036,-303.138 610.132,-309.507"/>
</g>
<!-- Node15 -->
<g id="node12" class="node"><title>Node15</title>
<g id="a_node12"><a xlink:href="namespacekoala_1_1utils.html#a1d3620df245d23fea05928298cabc2ac" target="_top" xlink:title=" ">
<polygon fill="white" stroke="black" points="622,-109 622,-139 716,-139 716,-109 622,-109"/>
<text text-anchor="start" x="630" y="-127" font-family="Helvetica,sans-Serif" font-size="10.00">koala.utils.resolve</text>
<text text-anchor="middle" x="669" y="-116" font-family="Helvetica,sans-Serif" font-size="10.00">_range</text>
</a>
</g>
</g>
<!-- Node6&#45;&gt;Node15 -->
<g id="edge14" class="edge"><title>Node6&#45;&gt;Node15</title>
<path fill="none" stroke="midnightblue" d="M566.897,-152.981C581.433,-148.814 597.27,-144.274 612.004,-140.051"/>
<polygon fill="midnightblue" stroke="midnightblue" points="613.35,-143.306 621.999,-137.186 611.421,-136.577 613.35,-143.306"/>
</g>
<!-- Node17 -->
<g id="node14" class="node"><title>Node17</title>
<g id="a_node14"><a xlink:href="namespacekoala_1_1utils.html#a5c70ac45916995934736ab28b501c8c5" target="_top" xlink:title=" ">
<polygon fill="white" stroke="black" points="771,-158.5 771,-177.5 893,-177.5 893,-158.5 771,-158.5"/>
<text text-anchor="middle" x="832" y="-165.5" font-family="Helvetica,sans-Serif" font-size="10.00">koala.utils.split_address</text>
</a>
</g>
</g>
<!-- Node6&#45;&gt;Node17 -->
<g id="edge21" class="edge"><title>Node6&#45;&gt;Node17</title>
<path fill="none" stroke="midnightblue" d="M567.119,-168C620.099,-168 702.148,-168 760.683,-168"/>
<polygon fill="midnightblue" stroke="midnightblue" points="760.96,-171.5 770.96,-168 760.96,-164.5 760.96,-171.5"/>
</g>
<!-- Node18 -->
<g id="node15" class="node"><title>Node18</title>
<g id="a_node15"><a xlink:href="namespacekoala_1_1utils.html#a65476c62402a00e3d46dbc99b6a4ea88" target="_top" xlink:title=" ">
<polygon fill="white" stroke="black" points="781.5,-44.5 781.5,-63.5 882.5,-63.5 882.5,-44.5 781.5,-44.5"/>
<text text-anchor="middle" x="832" y="-51.5" font-family="Helvetica,sans-Serif" font-size="10.00">koala.utils.col2num</text>
</a>
</g>
</g>
<!-- Node6&#45;&gt;Node18 -->
<g id="edge24" class="edge"><title>Node6&#45;&gt;Node18</title>
<path fill="none" stroke="midnightblue" d="M521.699,-152.796C534.257,-128.266 562.727,-80.714 603,-61 656.131,-34.9918 724.885,-36.9517 772.941,-43.0961"/>
<polygon fill="midnightblue" stroke="midnightblue" points="772.485,-46.5661 782.869,-44.4622 773.439,-39.6315 772.485,-46.5661"/>
</g>
<!-- Node20 -->
<g id="node17" class="node"><title>Node20</title>
<g id="a_node17"><a xlink:href="namespacekoala_1_1utils.html#aabb45efe6343cf3795888c77a434d47d" target="_top" xlink:title=" ">
<polygon fill="white" stroke="black" points="787,-0.5 787,-19.5 877,-19.5 877,-0.5 787,-0.5"/>
<text text-anchor="middle" x="832" y="-7.5" font-family="Helvetica,sans-Serif" font-size="10.00">koala.utils.flatten</text>
</a>
</g>
</g>
<!-- Node6&#45;&gt;Node20 -->
<g id="edge25" class="edge"><title>Node6&#45;&gt;Node20</title>
<path fill="none" stroke="midnightblue" d="M519.677,-152.983C530.312,-124.654 557.516,-63.6904 603,-36 655.579,-3.99013 727.745,-1.14841 776.701,-3.92621"/>
<polygon fill="midnightblue" stroke="midnightblue" points="776.569,-7.42513 786.78,-4.59578 777.034,-0.440521 776.569,-7.42513"/>
</g>
<!-- Node21 -->
<g id="node18" class="node"><title>Node21</title>
<g id="a_node18"><a xlink:href="namespacekoala_1_1utils.html#a71673869f44a8e5ee678759d1c099ada" target="_top" xlink:title=" ">
<polygon fill="white" stroke="black" points="603,-70.5 603,-89.5 735,-89.5 735,-70.5 603,-70.5"/>
<text text-anchor="middle" x="669" y="-77.5" font-family="Helvetica,sans-Serif" font-size="10.00">koala.utils.max_dimension</text>
</a>
</g>
</g>
<!-- Node6&#45;&gt;Node21 -->
<g id="edge22" class="edge"><title>Node6&#45;&gt;Node21</title>
<path fill="none" stroke="midnightblue" d="M530.171,-152.742C546.93,-137.196 574.908,-113.387 603,-99 607.349,-96.7726 612,-94.7677 616.739,-92.9716"/>
<polygon fill="midnightblue" stroke="midnightblue" points="618.224,-96.1609 626.523,-89.5741 615.928,-89.5482 618.224,-96.1609"/>
</g>
<!-- Node8 -->
<g id="node5" class="node"><title>Node8</title>
<g id="a_node5"><a xlink:href="namespacekoala_1_1_range.html#a6a4a2138705cb8cc069ddf925e74d2c1" target="_top" xlink:title=" ">
<polygon fill="white" stroke="black" points="773,-330 773,-360 891,-360 891,-330 773,-330"/>
<text text-anchor="start" x="781" y="-348" font-family="Helvetica,sans-Serif" font-size="10.00">koala.Range.parse_cell</text>
<text text-anchor="middle" x="832" y="-337" font-family="Helvetica,sans-Serif" font-size="10.00">_address</text>
</a>
</g>
</g>
<!-- Node7&#45;&gt;Node8 -->
<g id="edge4" class="edge"><title>Node7&#45;&gt;Node8</title>
<path fill="none" stroke="midnightblue" d="M707.564,-291.584C716.666,-294.288 726.283,-297.468 735,-301 751.767,-307.795 754.633,-312.291 771,-320 775.131,-321.946 779.456,-323.902 783.809,-325.815"/>
<polygon fill="midnightblue" stroke="midnightblue" points="782.754,-329.171 793.322,-329.916 785.525,-322.743 782.754,-329.171"/>
</g>
<!-- Node9 -->
<g id="node6" class="node"><title>Node9</title>
<g id="a_node6"><a xlink:href="namespacekoala_1_1ast.html#a76e6cdc1c1338001a6d0c4ac4a038087" target="_top" xlink:title=" ">
<polygon fill="white" stroke="black" points="772,-291.5 772,-310.5 892,-310.5 892,-291.5 772,-291.5"/>
<text text-anchor="middle" x="832" y="-298.5" font-family="Helvetica,sans-Serif" font-size="10.00">koala.ast.shunting_yard</text>
</a>
</g>
</g>
<!-- Node7&#45;&gt;Node9 -->
<g id="edge5" class="edge"><title>Node7&#45;&gt;Node9</title>
<path fill="none" stroke="midnightblue" d="M719.619,-287.856C732.927,-289.426 747.563,-291.153 761.726,-292.825"/>
<polygon fill="midnightblue" stroke="midnightblue" points="761.588,-296.333 771.929,-294.029 762.408,-289.381 761.588,-296.333"/>
</g>
<!-- Node11 -->
<g id="node8" class="node"><title>Node11</title>
<g id="a_node8"><a xlink:href="namespacekoala_1_1ast.html#a36277633c59487f9b1c1b256df41e942" target="_top" xlink:title=" ">
<polygon fill="white" stroke="black" points="783,-253.5 783,-272.5 881,-272.5 881,-253.5 783,-253.5"/>
<text text-anchor="middle" x="832" y="-260.5" font-family="Helvetica,sans-Serif" font-size="10.00">koala.ast.build_ast</text>
</a>
</g>
</g>
<!-- Node7&#45;&gt;Node11 -->
<g id="edge7" class="edge"><title>Node7&#45;&gt;Node11</title>
<path fill="none" stroke="midnightblue" d="M719.619,-276.144C736.456,-274.157 755.418,-271.92 772.859,-269.861"/>
<polygon fill="midnightblue" stroke="midnightblue" points="773.404,-273.321 782.925,-268.673 772.583,-266.37 773.404,-273.321"/>
</g>
<!-- Node10 -->
<g id="node7" class="node"><title>Node10</title>
<g id="a_node7"><a xlink:href="namespacekoala_1_1ast.html#a39876c353cfbf071723ede9b5a59eda4" target="_top" xlink:title=" ">
<polygon fill="white" stroke="black" points="929,-291.5 929,-310.5 1042,-310.5 1042,-291.5 929,-291.5"/>
<text text-anchor="middle" x="985.5" y="-298.5" font-family="Helvetica,sans-Serif" font-size="10.00">koala.ast.create_node</text>
</a>
</g>
</g>
<!-- Node9&#45;&gt;Node10 -->
<g id="edge6" class="edge"><title>Node9&#45;&gt;Node10</title>
<path fill="none" stroke="midnightblue" d="M892.008,-301C900.726,-301 909.756,-301 918.604,-301"/>
<polygon fill="midnightblue" stroke="midnightblue" points="918.877,-304.5 928.877,-301 918.877,-297.5 918.877,-304.5"/>
</g>
<!-- Node14&#45;&gt;Node8 -->
<g id="edge11" class="edge"><title>Node14&#45;&gt;Node8</title>
<path fill="none" stroke="midnightblue" d="M731.326,-329.523C741.63,-331.123 752.378,-332.792 762.842,-334.416"/>
<polygon fill="midnightblue" stroke="midnightblue" points="762.344,-337.881 772.762,-335.957 763.418,-330.964 762.344,-337.881"/>
</g>
<!-- Node14&#45;&gt;Node9 -->
<g id="edge12" class="edge"><title>Node14&#45;&gt;Node9</title>
<path fill="none" stroke="midnightblue" d="M732.247,-312.654C741.901,-311.515 751.925,-310.332 761.722,-309.176"/>
<polygon fill="midnightblue" stroke="midnightblue" points="762.305,-312.631 771.826,-307.983 761.484,-305.68 762.305,-312.631"/>
</g>
<!-- Node14&#45;&gt;Node11 -->
<g id="edge13" class="edge"><title>Node14&#45;&gt;Node11</title>
<path fill="none" stroke="midnightblue" d="M707.564,-310.416C716.666,-307.712 726.283,-304.532 735,-301 751.767,-294.205 754.309,-288.981 771,-282 776.36,-279.758 782.082,-277.628 787.784,-275.66"/>
<polygon fill="midnightblue" stroke="midnightblue" points="788.902,-278.976 797.294,-272.509 786.701,-272.331 788.902,-278.976"/>
</g>
<!-- Node15&#45;&gt;Node13 -->
<g id="edge16" class="edge"><title>Node15&#45;&gt;Node13</title>
<path fill="none" stroke="midnightblue" d="M690.793,-139.147C710.624,-153.056 741.725,-173.496 771,-187 775.776,-189.203 780.878,-191.25 786.014,-193.121"/>
<polygon fill="midnightblue" stroke="midnightblue" points="785.261,-196.562 795.856,-196.497 787.533,-189.941 785.261,-196.562"/>
</g>
<!-- Node16 -->
<g id="node13" class="node"><title>Node16</title>
<g id="a_node13"><a xlink:href="namespacekoala_1_1utils.html#a77ace10251dde2f09a457b7b469208cc" target="_top" xlink:title=" ">
<polygon fill="white" stroke="black" points="776.5,-82.5 776.5,-101.5 887.5,-101.5 887.5,-82.5 776.5,-82.5"/>
<text text-anchor="middle" x="832" y="-89.5" font-family="Helvetica,sans-Serif" font-size="10.00">koala.utils.split_range</text>
</a>
</g>
</g>
<!-- Node15&#45;&gt;Node16 -->
<g id="edge15" class="edge"><title>Node15&#45;&gt;Node16</title>
<path fill="none" stroke="midnightblue" d="M716.136,-114.83C733.937,-111.292 754.497,-107.205 773.261,-103.476"/>
<polygon fill="midnightblue" stroke="midnightblue" points="774.051,-106.888 783.177,-101.505 772.686,-100.022 774.051,-106.888"/>
</g>
<!-- Node15&#45;&gt;Node17 -->
<g id="edge17" class="edge"><title>Node15&#45;&gt;Node17</title>
<path fill="none" stroke="midnightblue" d="M716.136,-136.609C738.215,-142.643 764.539,-149.837 786.414,-155.815"/>
<polygon fill="midnightblue" stroke="midnightblue" points="785.551,-159.207 796.12,-158.467 787.396,-152.455 785.551,-159.207"/>
</g>
<!-- Node15&#45;&gt;Node18 -->
<g id="edge18" class="edge"><title>Node15&#45;&gt;Node18</title>
<path fill="none" stroke="midnightblue" d="M713.707,-108.982C720.964,-105.983 728.302,-102.627 735,-99 752.355,-89.6014 753.369,-81.8694 771,-73 775.347,-70.8134 779.997,-68.8126 784.713,-66.9992"/>
<polygon fill="midnightblue" stroke="midnightblue" points="786.168,-70.1963 794.411,-63.5404 783.816,-63.6031 786.168,-70.1963"/>
</g>
<!-- Node19 -->
<g id="node16" class="node"><title>Node19</title>
<g id="a_node16"><a xlink:href="namespacekoala_1_1utils.html#a2037076cc5a6fbf884023917a0cbfca7" target="_top" xlink:title=" ">
<polygon fill="white" stroke="black" points="781.5,-120.5 781.5,-139.5 882.5,-139.5 882.5,-120.5 781.5,-120.5"/>
<text text-anchor="middle" x="832" y="-127.5" font-family="Helvetica,sans-Serif" font-size="10.00">koala.utils.num2col</text>
</a>
</g>
</g>
<!-- Node15&#45;&gt;Node19 -->
<g id="edge19" class="edge"><title>Node15&#45;&gt;Node19</title>
<path fill="none" stroke="midnightblue" d="M716.136,-125.719C733.305,-126.359 753.04,-127.095 771.255,-127.773"/>
<polygon fill="midnightblue" stroke="midnightblue" points="771.357,-131.28 781.481,-128.155 771.618,-124.284 771.357,-131.28"/>
</g>
<!-- Node15&#45;&gt;Node20 -->
<g id="edge20" class="edge"><title>Node15&#45;&gt;Node20</title>
<path fill="none" stroke="midnightblue" d="M716.311,-110.819C723.026,-107.638 729.512,-103.744 735,-99 759.69,-77.658 746.607,-56.6809 771,-35 776.044,-30.5172 782.005,-26.7645 788.179,-23.6455"/>
<polygon fill="midnightblue" stroke="midnightblue" points="789.63,-26.8307 797.297,-19.5181 786.744,-20.4537 789.63,-26.8307"/>
</g>
<!-- Node21&#45;&gt;Node18 -->
<g id="edge23" class="edge"><title>Node21&#45;&gt;Node18</title>
<path fill="none" stroke="midnightblue" d="M729.036,-70.4662C742.902,-68.227 757.684,-65.8399 771.567,-63.5979"/>
<polygon fill="midnightblue" stroke="midnightblue" points="772.177,-67.0448 781.491,-61.9953 771.061,-60.1344 772.177,-67.0448"/>
</g>
</g>
</svg>
        <g id="navigator" transform="translate(0 0)" fill="#404254">
                <rect fill="#f2f5e9" fill-opacity="0.5" stroke="#606060" stroke-width=".5" x="0" y="0" width="60" height="60"/>
                <use id="zoomplus" xlink:href="#zoomPlus" x="17" y="9" onmousedown="handleZoom(evt,'in')"/>
                <use id="zoomminus" xlink:href="#zoomMin" x="42" y="9" onmousedown="handleZoom(evt,'out')"/>
                <use id="reset" xlink:href="#resetDef" x="30" y="36" onmousedown="handleReset()"/>
                <g id="arrowUp" xlink:href="#dirArrow" transform="translate(30 24)" onmousedown="handlePan(0,-1)">
                  <use xlink:href="#rim" fill="#404040">
                        <set attributeName="fill" to="#808080" begin="arrowUp.mouseover" end="arrowUp.mouseout"/>
                  </use>
                  <path fill="none" stroke="white" stroke-width="1.5" d="M0,-3.0v7 M-2.5,-0.5L0,-3.0L2.5,-0.5"/>
                </g>
                <g id="arrowRight" xlink:href="#dirArrow" transform="rotate(90) translate(36 -43)" onmousedown="handlePan(1,0)">
                  <use xlink:href="#rim" fill="#404040">
                        <set attributeName="fill" to="#808080" begin="arrowRight.mouseover" end="arrowRight.mouseout"/>
                  </use>
                  <path fill="none" stroke="white" stroke-width="1.5" d="M0,-3.0v7 M-2.5,-0.5L0,-3.0L2.5,-0.5"/>
                </g>
                <g id="arrowDown" xlink:href="#dirArrow" transform="rotate(180) translate(-30 -48)" onmousedown="handlePan(0,1)">
                  <use xlink:href="#rim" fill="#404040">
                        <set attributeName="fill" to="#808080" begin="arrowDown.mouseover" end="arrowDown.mouseout"/>
                  </use>
                  <path fill="none" stroke="white" stroke-width="1.5" d="M0,-3.0v7 M-2.5,-0.5L0,-3.0L2.5,-0.5"/>
                </g>
                <g id="arrowLeft" xlink:href="#dirArrow" transform="rotate(270) translate(-36 17)" onmousedown="handlePan(-1,0)">
                  <use xlink:href="#rim" fill="#404040">
                        <set attributeName="fill" to="#808080" begin="arrowLeft.mouseover" end="arrowLeft.mouseout"/>
                  </use>
                  <path fill="none" stroke="white" stroke-width="1.5" d="M0,-3.0v7 M-2.5,-0.5L0,-3.0L2.5,-0.5"/>
                </g>
        </g>
        <svg viewBox="0 0 15 15" width="100%" height="30px" preserveAspectRatio="xMaxYMin meet">
         <g id="arrow_out" transform="scale(0.3 0.3)">
          <a xlink:href="classkoala_1_1_spreadsheet_1_1_spreadsheet_a7481e9d34fe1d4347b3b6eed3462b545_cgraph_org.svg" target="_base">
           <rect id="button" ry="5" rx="5" y="6" x="6" height="38" width="38"
                fill="#f2f5e9" fill-opacity="0.5" stroke="#606060" stroke-width="1.0"/>
           <path id="arrow"
             d="M 11.500037,31.436501 C 11.940474,20.09759 22.043105,11.32322 32.158766,21.979434 L 37.068811,17.246167 C 37.068811,17.246167 37.088388,32 37.088388,32 L 22.160133,31.978069 C 22.160133,31.978069 26.997745,27.140456 26.997745,27.140456 C 18.528582,18.264221 13.291696,25.230495 11.500037,31.436501 z"
             style="fill:#404040;"/>
          </a>
         </g>
        </svg>
</svg>
