<?xml version="1.0" encoding="UTF-8" standalone="no"?>
<!DOCTYPE svg PUBLIC "-//W3C//DTD SVG 1.1//EN"
 "http://www.w3.org/Graphics/SVG/1.1/DTD/svg11.dtd">
<!-- Generated by graphviz version 2.38.0 (20140413.2041)
 -->
<!-- Title: koala.tokenizer.f_tokenStack Pages: 1 -->
<svg width="234pt" height="273pt"
 viewBox="0.00 0.00 233.50 273.00" xmlns="http://www.w3.org/2000/svg" xmlns:xlink="http://www.w3.org/1999/xlink">
<g id="graph0" class="graph" transform="scale(1 1) rotate(0) translate(4 269)">
<title>koala.tokenizer.f_tokenStack</title>
<polygon fill="white" stroke="none" points="-4,4 -4,-269 229.5,-269 229.5,4 -4,4"/>
<!-- Node3 -->
<g id="node1" class="node"><title>Node3</title>
<g id="a_node1"><a xlink:title=" ">
<polygon fill="#bfbfbf" stroke="black" points="0,-0.5 0,-19.5 143,-19.5 143,-0.5 0,-0.5"/>
<text text-anchor="middle" x="71.5" y="-7.5" font-family="Helvetica,sans-Serif" font-size="10.00">koala.tokenizer.f_tokenStack</text>
</a>
</g>
</g>
<!-- Node4 -->
<g id="node2" class="node"><title>Node4</title>
<g id="a_node2"><a xlink:href="classkoala_1_1tokenizer_1_1_excel_parser_tokens.html" target="_top" xlink:title=" ">
<polygon fill="white" stroke="black" points="2,-57.5 2,-87.5 141,-87.5 141,-57.5 2,-57.5"/>
<text text-anchor="start" x="10" y="-75.5" font-family="Helvetica,sans-Serif" font-size="10.00">koala.tokenizer.ExcelParser</text>
<text text-anchor="middle" x="71.5" y="-64.5" font-family="Helvetica,sans-Serif" font-size="10.00">Tokens</text>
</a>
</g>
</g>
<!-- Node4&#45;&gt;Node3 -->
<g id="edge1" class="edge"><title>Node4&#45;&gt;Node3</title>
<path fill="none" stroke="midnightblue" d="M71.5,-47.3524C71.5,-37.5132 71.5,-26.7753 71.5,-19.5399"/>
<polygon fill="midnightblue" stroke="midnightblue" points="68.0001,-47.468 71.5,-57.468 75.0001,-47.4681 68.0001,-47.468"/>
</g>
<!-- Node5 -->
<g id="node3" class="node"><title>Node5</title>
<g id="a_node3"><a xlink:title=" ">
<polygon fill="white" stroke="#bfbfbf" points="20,-245.5 20,-264.5 63,-264.5 63,-245.5 20,-245.5"/>
<text text-anchor="middle" x="41.5" y="-252.5" font-family="Helvetica,sans-Serif" font-size="10.00">object</text>
</a>
</g>
</g>
<!-- Node5&#45;&gt;Node4 -->
<g id="edge2" class="edge"><title>Node5&#45;&gt;Node4</title>
<path fill="none" stroke="midnightblue" d="M44.6429,-235.09C50.6909,-198.701 63.8223,-119.694 69.1666,-87.5391"/>
<polygon fill="midnightblue" stroke="midnightblue" points="41.134,-234.856 42.947,-245.294 48.0392,-236.003 41.134,-234.856"/>
</g>
<!-- Node6 -->
<g id="node4" class="node"><title>Node6</title>
<g id="a_node4"><a xlink:title=" ">
<polygon fill="white" stroke="#bfbfbf" points="81,-245.5 81,-264.5 122,-264.5 122,-245.5 81,-245.5"/>
<text text-anchor="middle" x="101.5" y="-252.5" font-family="Helvetica,sans-Serif" font-size="10.00">string</text>
</a>
</g>
</g>
<!-- Node6&#45;&gt;Node4 -->
<g id="edge3" class="edge"><title>Node6&#45;&gt;Node4</title>
<path fill="none" stroke="#9a32cd" stroke-dasharray="5,2" d="M98.3571,-235.09C92.3091,-198.701 79.1777,-119.694 73.8334,-87.5391"/>
<polygon fill="#9a32cd" stroke="#9a32cd" points="94.9608,-236.003 100.053,-245.294 101.866,-234.856 94.9608,-236.003"/>
<text text-anchor="middle" x="160.5" y="-219" font-family="Helvetica,sans-Serif" font-size="10.00"> TOK_SUBTYPE_RANGE</text>
<text text-anchor="middle" x="160.5" y="-208" font-family="Helvetica,sans-Serif" font-size="10.00">TOK_SUBTYPE_UNION</text>
<text text-anchor="middle" x="160.5" y="-197" font-family="Helvetica,sans-Serif" font-size="10.00">TOK_SUBTYPE_LOGICAL</text>
<text text-anchor="middle" x="160.5" y="-186" font-family="Helvetica,sans-Serif" font-size="10.00">TOK_SUBTYPE_START</text>
<text text-anchor="middle" x="160.5" y="-175" font-family="Helvetica,sans-Serif" font-size="10.00">TOK_TYPE_UNKNOWN</text>
<text text-anchor="middle" x="160.5" y="-164" font-family="Helvetica,sans-Serif" font-size="10.00">TOK_SUBTYPE_INTERSECT</text>
<text text-anchor="middle" x="160.5" y="-153" font-family="Helvetica,sans-Serif" font-size="10.00">TOK_TYPE_OP_IN</text>
<text text-anchor="middle" x="160.5" y="-142" font-family="Helvetica,sans-Serif" font-size="10.00">TOK_TYPE_WSPACE</text>
<text text-anchor="middle" x="160.5" y="-131" font-family="Helvetica,sans-Serif" font-size="10.00">TOK_TYPE_OP_PRE</text>
<text text-anchor="middle" x="160.5" y="-120" font-family="Helvetica,sans-Serif" font-size="10.00">TOK_TYPE_SUBEXPR</text>
<text text-anchor="middle" x="160.5" y="-109" font-family="Helvetica,sans-Serif" font-size="10.00">...</text>
</g>
</g>
</svg>
