<?xml version="1.0" encoding="UTF-8" standalone="no"?>
<!DOCTYPE svg PUBLIC "-//W3C//DTD SVG 1.1//EN"
 "http://www.w3.org/Graphics/SVG/1.1/DTD/svg11.dtd">
<!-- Generated by graphviz version 2.38.0 (20140413.2041)
 -->
<!-- Title: koala.Spreadsheet.Spreadsheet.cell_free Pages: 1 -->
<svg width="1379pt" height="166pt"
 viewBox="0.00 0.00 1379.00 165.50" xmlns="http://www.w3.org/2000/svg" xmlns:xlink="http://www.w3.org/1999/xlink">
<g id="graph0" class="graph" transform="scale(1 1) rotate(0) translate(4 161.5)">
<title>koala.Spreadsheet.Spreadsheet.cell_free</title>
<polygon fill="white" stroke="none" points="-4,4 -4,-161.5 1375,-161.5 1375,4 -4,4"/>
<!-- Node42 -->
<g id="node1" class="node"><title>Node42</title>
<g id="a_node1"><a xlink:title=" ">
<polygon fill="#bfbfbf" stroke="black" points="0,-66.5 0,-85.5 194,-85.5 194,-66.5 0,-66.5"/>
<text text-anchor="middle" x="97" y="-73.5" font-family="Helvetica,sans-Serif" font-size="10.00">koala.Spreadsheet.Spreadsheet.cell_free</text>
</a>
</g>
</g>
<!-- Node43 -->
<g id="node2" class="node"><title>Node43</title>
<g id="a_node2"><a xlink:href="classkoala_1_1_spreadsheet_1_1_spreadsheet.html#a5123890c167cf3b1e9e070886d635e74" target="_top" xlink:title=" ">
<polygon fill="white" stroke="black" points="230,-66.5 230,-85.5 421,-85.5 421,-66.5 230,-66.5"/>
<text text-anchor="middle" x="325.5" y="-73.5" font-family="Helvetica,sans-Serif" font-size="10.00">koala.Spreadsheet.Spreadsheet.eval_ref</text>
</a>
</g>
</g>
<!-- Node42&#45;&gt;Node43 -->
<g id="edge1" class="edge"><title>Node42&#45;&gt;Node43</title>
<path fill="none" stroke="midnightblue" d="M194.056,-76C202.549,-76 211.174,-76 219.734,-76"/>
<polygon fill="midnightblue" stroke="midnightblue" points="219.741,-79.5001 229.741,-76 219.741,-72.5001 219.741,-79.5001"/>
</g>
<!-- Node44 -->
<g id="node3" class="node"><title>Node44</title>
<g id="a_node3"><a xlink:href="classkoala_1_1_spreadsheet_1_1_spreadsheet.html#af872335504ee6df6ac5ec0db958bbc97" target="_top" xlink:title=" ">
<polygon fill="white" stroke="black" points="461.5,-127 461.5,-157 640.5,-157 640.5,-127 461.5,-127"/>
<text text-anchor="start" x="469.5" y="-145" font-family="Helvetica,sans-Serif" font-size="10.00">koala.Spreadsheet.Spreadsheet.build</text>
<text text-anchor="middle" x="551" y="-134" font-family="Helvetica,sans-Serif" font-size="10.00">_pointer</text>
</a>
</g>
</g>
<!-- Node43&#45;&gt;Node44 -->
<g id="edge2" class="edge"><title>Node43&#45;&gt;Node44</title>
<path fill="none" stroke="midnightblue" d="M358.999,-85.597C392.96,-95.6258 447.04,-111.596 489,-123.987"/>
<polygon fill="midnightblue" stroke="midnightblue" points="488.26,-127.417 498.842,-126.893 490.242,-120.704 488.26,-127.417"/>
</g>
<!-- Node45 -->
<g id="node4" class="node"><title>Node45</title>
<g id="a_node4"><a xlink:href="classkoala_1_1_spreadsheet_1_1_spreadsheet.html#adec88c8b31c94969a557cf572ee13c44" target="_top" xlink:title=" ">
<polygon fill="white" stroke="black" points="681,-88.5 681,-107.5 875,-107.5 875,-88.5 681,-88.5"/>
<text text-anchor="middle" x="778" y="-95.5" font-family="Helvetica,sans-Serif" font-size="10.00">koala.Spreadsheet.Spreadsheet.evaluate</text>
</a>
</g>
</g>
<!-- Node43&#45;&gt;Node45 -->
<g id="edge3" class="edge"><title>Node43&#45;&gt;Node45</title>
<path fill="none" stroke="midnightblue" d="M421.214,-80.6253C494.2,-84.1895 595.105,-89.1172 670.82,-92.8147"/>
<polygon fill="midnightblue" stroke="midnightblue" points="670.702,-96.3131 680.861,-93.3051 671.043,-89.3214 670.702,-96.3131"/>
</g>
<!-- Node49 -->
<g id="node8" class="node"><title>Node49</title>
<g id="a_node8"><a xlink:href="classkoala_1_1_spreadsheet_1_1_spreadsheet.html#ae7cc9bec504371c4034626c20eef4271" target="_top" xlink:title=" ">
<polygon fill="white" stroke="black" points="457,-39 457,-69 645,-69 645,-39 457,-39"/>
<text text-anchor="start" x="465" y="-57" font-family="Helvetica,sans-Serif" font-size="10.00">koala.Spreadsheet.Spreadsheet.update</text>
<text text-anchor="middle" x="551" y="-46" font-family="Helvetica,sans-Serif" font-size="10.00">_range</text>
</a>
</g>
</g>
<!-- Node43&#45;&gt;Node49 -->
<g id="edge8" class="edge"><title>Node43&#45;&gt;Node49</title>
<path fill="none" stroke="midnightblue" d="M421.284,-66.67C429.75,-65.8367 438.349,-64.9903 446.88,-64.1505"/>
<polygon fill="midnightblue" stroke="midnightblue" points="447.243,-67.6318 456.852,-63.1689 446.557,-60.6655 447.243,-67.6318"/>
</g>
<!-- Node51 -->
<g id="node10" class="node"><title>Node51</title>
<g id="a_node10"><a xlink:href="namespacekoala_1_1utils.html#a152ac1827f4fdbd036d6e67cdf3acebb" target="_top" xlink:title=" ">
<polygon fill="white" stroke="black" points="500.5,-0.5 500.5,-19.5 601.5,-19.5 601.5,-0.5 500.5,-0.5"/>
<text text-anchor="middle" x="551" y="-7.5" font-family="Helvetica,sans-Serif" font-size="10.00">koala.utils.is_range</text>
</a>
</g>
</g>
<!-- Node43&#45;&gt;Node51 -->
<g id="edge11" class="edge"><title>Node43&#45;&gt;Node51</title>
<path fill="none" stroke="midnightblue" d="M349.744,-66.4755C375.59,-56.1576 418.745,-39.7363 457,-29 467.69,-25.9999 479.195,-23.2629 490.345,-20.8583"/>
<polygon fill="midnightblue" stroke="midnightblue" points="491.38,-24.2178 500.452,-18.7455 489.947,-17.3659 491.38,-24.2178"/>
</g>
<!-- Node46 -->
<g id="node5" class="node"><title>Node46</title>
<g id="a_node5"><a xlink:href="classkoala_1_1_spreadsheet_1_1_spreadsheet.html#a8e83a93df65a29d4748b427cb4d77bb2" target="_top" xlink:title=" ">
<polygon fill="white" stroke="black" points="911,-83 911,-113 1084,-113 1084,-83 911,-83"/>
<text text-anchor="start" x="919" y="-101" font-family="Helvetica,sans-Serif" font-size="10.00">koala.Spreadsheet.Spreadsheet.cell</text>
<text text-anchor="middle" x="997.5" y="-90" font-family="Helvetica,sans-Serif" font-size="10.00">_evaluate</text>
</a>
</g>
</g>
<!-- Node45&#45;&gt;Node46 -->
<g id="edge4" class="edge"><title>Node45&#45;&gt;Node46</title>
<path fill="none" stroke="midnightblue" d="M875.032,-91.2912C883.62,-91.2353 892.316,-91.2363 900.9,-91.2941"/>
<polygon fill="midnightblue" stroke="midnightblue" points="900.881,-94.7939 910.914,-91.388 900.947,-87.7942 900.881,-94.7939"/>
</g>
<!-- Node46&#45;&gt;Node45 -->
<g id="edge5" class="edge"><title>Node46&#45;&gt;Node45</title>
<path fill="none" stroke="midnightblue" d="M910.914,-104.612C902.449,-104.714 893.789,-104.76 885.15,-104.748"/>
<polygon fill="midnightblue" stroke="midnightblue" points="885.045,-101.248 875.032,-104.709 885.018,-108.248 885.045,-101.248"/>
</g>
<!-- Node47 -->
<g id="node6" class="node"><title>Node47</title>
<g id="a_node6"><a xlink:href="namespacekoala_1_1utils.html#a1585473b2fb474970dbc49794309a0e6" target="_top" xlink:title=" ">
<polygon fill="white" stroke="black" points="1120,-83 1120,-113 1226,-113 1226,-83 1120,-83"/>
<text text-anchor="start" x="1128" y="-101" font-family="Helvetica,sans-Serif" font-size="10.00">koala.utils.is_almost</text>
<text text-anchor="middle" x="1173" y="-90" font-family="Helvetica,sans-Serif" font-size="10.00">_equal</text>
</a>
</g>
</g>
<!-- Node46&#45;&gt;Node47 -->
<g id="edge6" class="edge"><title>Node46&#45;&gt;Node47</title>
<path fill="none" stroke="midnightblue" d="M1084.23,-98C1092.76,-98 1101.29,-98 1109.52,-98"/>
<polygon fill="midnightblue" stroke="midnightblue" points="1109.73,-101.5 1119.73,-98 1109.73,-94.5001 1109.73,-101.5"/>
</g>
<!-- Node48 -->
<g id="node7" class="node"><title>Node48</title>
<g id="a_node7"><a xlink:href="namespacekoala_1_1utils.html#af016160edea2b46cb26db3ed307c9648" target="_top" xlink:title=" ">
<polygon fill="white" stroke="black" points="1262,-88.5 1262,-107.5 1371,-107.5 1371,-88.5 1262,-88.5"/>
<text text-anchor="middle" x="1316.5" y="-95.5" font-family="Helvetica,sans-Serif" font-size="10.00">koala.utils.is_number</text>
</a>
</g>
</g>
<!-- Node47&#45;&gt;Node48 -->
<g id="edge7" class="edge"><title>Node47&#45;&gt;Node48</title>
<path fill="none" stroke="midnightblue" d="M1226.29,-98C1234.46,-98 1242.98,-98 1251.38,-98"/>
<polygon fill="midnightblue" stroke="midnightblue" points="1251.53,-101.5 1261.53,-98 1251.53,-94.5001 1251.53,-101.5"/>
</g>
<!-- Node49&#45;&gt;Node45 -->
<g id="edge10" class="edge"><title>Node49&#45;&gt;Node45</title>
<path fill="none" stroke="midnightblue" d="M628.803,-69.0192C658.169,-74.7619 691.155,-81.2125 718.539,-86.5676"/>
<polygon fill="midnightblue" stroke="midnightblue" points="717.871,-90.0032 728.357,-88.4876 719.215,-83.1334 717.871,-90.0032"/>
</g>
<!-- Node50 -->
<g id="node9" class="node"><title>Node50</title>
<g id="a_node9"><a xlink:href="namespacekoala_1_1_range.html#ae8f7f229cc55d2f36ebac1492f59b195" target="_top" xlink:title=" ">
<polygon fill="white" stroke="black" points="724.5,-39 724.5,-69 831.5,-69 831.5,-39 724.5,-39"/>
<text text-anchor="start" x="732.5" y="-57" font-family="Helvetica,sans-Serif" font-size="10.00">koala.Range.get_cell</text>
<text text-anchor="middle" x="778" y="-46" font-family="Helvetica,sans-Serif" font-size="10.00">_address</text>
</a>
</g>
</g>
<!-- Node49&#45;&gt;Node50 -->
<g id="edge9" class="edge"><title>Node49&#45;&gt;Node50</title>
<path fill="none" stroke="midnightblue" d="M645.14,-54C668.413,-54 692.825,-54 714.23,-54"/>
<polygon fill="midnightblue" stroke="midnightblue" points="714.478,-57.5001 724.478,-54 714.478,-50.5001 714.478,-57.5001"/>
</g>
</g>
</svg>
