<?xml version="1.0" encoding="UTF-8" standalone="no"?>
<!DOCTYPE svg PUBLIC "-//W3C//DTD SVG 1.1//EN"
 "http://www.w3.org/Graphics/SVG/1.1/DTD/svg11.dtd">
<!-- Generated by graphviz version 2.38.0 (20140413.2041)
 -->
<!-- Title: koala.Cell.Cell.formula Pages: 1 -->
<svg width="447pt" height="104pt"
 viewBox="0.00 0.00 447.00 104.00" xmlns="http://www.w3.org/2000/svg" xmlns:xlink="http://www.w3.org/1999/xlink">
<g id="graph0" class="graph" transform="scale(1 1) rotate(0) translate(4 100)">
<title>koala.Cell.Cell.formula</title>
<polygon fill="white" stroke="none" points="-4,4 -4,-100 443,-100 443,4 -4,4"/>
<!-- Node47 -->
<g id="node1" class="node"><title>Node47</title>
<g id="a_node1"><a xlink:title=" ">
<polygon fill="#bfbfbf" stroke="black" points="326,-38.5 326,-57.5 439,-57.5 439,-38.5 326,-38.5"/>
<text text-anchor="middle" x="382.5" y="-45.5" font-family="Helvetica,sans-Serif" font-size="10.00">koala.Cell.Cell.formula</text>
</a>
</g>
</g>
<!-- Node48 -->
<g id="node2" class="node"><title>Node48</title>
<g id="a_node2"><a xlink:href="classkoala_1_1_cell_1_1_cell.html#a04bd75e2c229ef18e6e19705492008e6" target="_top" xlink:title=" ">
<polygon fill="white" stroke="black" points="175.5,-76.5 175.5,-95.5 288.5,-95.5 288.5,-76.5 175.5,-76.5"/>
<text text-anchor="middle" x="232" y="-83.5" font-family="Helvetica,sans-Serif" font-size="10.00">koala.Cell.Cell.formula</text>
</a>
</g>
</g>
<!-- Node47&#45;&gt;Node48 -->
<g id="edge1" class="edge"><title>Node47&#45;&gt;Node48</title>
<path fill="none" stroke="midnightblue" d="M334.167,-60.1121C313.485,-65.4044 289.581,-71.5213 270.203,-76.4799"/>
<polygon fill="midnightblue" stroke="midnightblue" points="335.207,-63.4589 344.027,-57.589 333.472,-56.6774 335.207,-63.4589"/>
</g>
<!-- Node49 -->
<g id="node3" class="node"><title>Node49</title>
<g id="a_node3"><a xlink:href="classkoala_1_1_cell_1_1_cell.html#a432911d1cee360eee9ff0ead3eec44f4" target="_top" xlink:title=" ">
<polygon fill="white" stroke="black" points="174,-38.5 174,-57.5 290,-57.5 290,-38.5 174,-38.5"/>
<text text-anchor="middle" x="232" y="-45.5" font-family="Helvetica,sans-Serif" font-size="10.00">koala.Cell.Cell.compile</text>
</a>
</g>
</g>
<!-- Node47&#45;&gt;Node49 -->
<g id="edge2" class="edge"><title>Node47&#45;&gt;Node49</title>
<path fill="none" stroke="midnightblue" d="M315.514,-48C307.011,-48 298.362,-48 290.021,-48"/>
<polygon fill="midnightblue" stroke="midnightblue" points="315.782,-51.5001 325.782,-48 315.782,-44.5001 315.782,-51.5001"/>
</g>
<!-- Node51 -->
<g id="node5" class="node"><title>Node51</title>
<g id="a_node5"><a xlink:href="classkoala_1_1_cell_1_1_cell.html#ab74d202bd9f25cf4608c4cb8e86d32df" target="_top" xlink:title=" ">
<polygon fill="white" stroke="black" points="178,-0.5 178,-19.5 286,-19.5 286,-0.5 178,-0.5"/>
<text text-anchor="middle" x="232" y="-7.5" font-family="Helvetica,sans-Serif" font-size="10.00">koala.Cell.Cell.asdict</text>
</a>
</g>
</g>
<!-- Node47&#45;&gt;Node51 -->
<g id="edge4" class="edge"><title>Node47&#45;&gt;Node51</title>
<path fill="none" stroke="midnightblue" d="M334.167,-35.8879C313.485,-30.5956 289.581,-24.4787 270.203,-19.5201"/>
<polygon fill="midnightblue" stroke="midnightblue" points="333.472,-39.3226 344.027,-38.411 335.207,-32.5411 333.472,-39.3226"/>
</g>
<!-- Node50 -->
<g id="node4" class="node"><title>Node50</title>
<g id="a_node4"><a xlink:href="classkoala_1_1_cell_1_1_cell.html#a3263a336b4e6f538f140af84d72b75c0" target="_top" xlink:title=" ">
<polygon fill="white" stroke="black" points="0,-38.5 0,-57.5 138,-57.5 138,-38.5 0,-38.5"/>
<text text-anchor="middle" x="69" y="-45.5" font-family="Helvetica,sans-Serif" font-size="10.00">koala.Cell.Cell.__setstate__</text>
</a>
</g>
</g>
<!-- Node49&#45;&gt;Node50 -->
<g id="edge3" class="edge"><title>Node49&#45;&gt;Node50</title>
<path fill="none" stroke="midnightblue" d="M163.602,-48C155.152,-48 146.505,-48 138.045,-48"/>
<polygon fill="midnightblue" stroke="midnightblue" points="163.784,-51.5001 173.784,-48 163.784,-44.5001 163.784,-51.5001"/>
</g>
</g>
</svg>
