<?xml version="1.0" encoding="UTF-8" standalone="no"?>
<!DOCTYPE svg PUBLIC "-//W3C//DTD SVG 1.1//EN"
 "http://www.w3.org/Graphics/SVG/1.1/DTD/svg11.dtd">
<!-- Generated by graphviz version 2.38.0 (20140413.2041)
 -->
<!-- Title: koala.Cell.Cell.value Pages: 1 -->
<svg width="256pt" height="66pt"
 viewBox="0.00 0.00 256.00 66.00" xmlns="http://www.w3.org/2000/svg" xmlns:xlink="http://www.w3.org/1999/xlink">
<g id="graph0" class="graph" transform="scale(1 1) rotate(0) translate(4 62)">
<title>koala.Cell.Cell.value</title>
<polygon fill="white" stroke="none" points="-4,4 -4,-62 252,-62 252,4 -4,4"/>
<!-- Node97 -->
<g id="node1" class="node"><title>Node97</title>
<g id="a_node1"><a xlink:title=" ">
<polygon fill="#bfbfbf" stroke="black" points="144,-19.5 144,-38.5 248,-38.5 248,-19.5 144,-19.5"/>
<text text-anchor="middle" x="196" y="-26.5" font-family="Helvetica,sans-Serif" font-size="10.00">koala.Cell.Cell.value</text>
</a>
</g>
</g>
<!-- Node98 -->
<g id="node2" class="node"><title>Node98</title>
<g id="a_node2"><a xlink:href="classkoala_1_1_cell_1_1_cell.html#ad0360265e667f4804e8ca4102e900227" target="_top" xlink:title=" ">
<polygon fill="white" stroke="black" points="2,-38.5 2,-57.5 106,-57.5 106,-38.5 2,-38.5"/>
<text text-anchor="middle" x="54" y="-45.5" font-family="Helvetica,sans-Serif" font-size="10.00">koala.Cell.Cell.value</text>
</a>
</g>
</g>
<!-- Node97&#45;&gt;Node98 -->
<g id="edge1" class="edge"><title>Node97&#45;&gt;Node98</title>
<path fill="none" stroke="midnightblue" d="M133.529,-37.3426C124.449,-38.5748 115.175,-39.8334 106.33,-41.0338"/>
<polygon fill="midnightblue" stroke="midnightblue" points="134.226,-40.7801 143.664,-35.967 133.284,-33.8437 134.226,-40.7801"/>
</g>
<!-- Node99 -->
<g id="node3" class="node"><title>Node99</title>
<g id="a_node3"><a xlink:href="classkoala_1_1_cell_1_1_cell.html#ab74d202bd9f25cf4608c4cb8e86d32df" target="_top" xlink:title=" ">
<polygon fill="white" stroke="black" points="0,-0.5 0,-19.5 108,-19.5 108,-0.5 0,-0.5"/>
<text text-anchor="middle" x="54" y="-7.5" font-family="Helvetica,sans-Serif" font-size="10.00">koala.Cell.Cell.asdict</text>
</a>
</g>
</g>
<!-- Node97&#45;&gt;Node99 -->
<g id="edge2" class="edge"><title>Node97&#45;&gt;Node99</title>
<path fill="none" stroke="midnightblue" d="M133.499,-20.6534C125.069,-19.5094 116.473,-18.3428 108.209,-17.2212"/>
<polygon fill="midnightblue" stroke="midnightblue" points="133.284,-24.1563 143.664,-22.033 134.226,-17.2199 133.284,-24.1563"/>
</g>
</g>
</svg>
