<?xml version="1.0" encoding="UTF-8" standalone="no"?>
<!DOCTYPE svg PUBLIC "-//W3C//DTD SVG 1.1//EN"
 "http://www.w3.org/Graphics/SVG/1.1/DTD/svg11.dtd">
<!-- Generated by graphviz version 2.38.0 (20140413.2041)
 -->
<!-- Title: koala.tokenizer.ExcelParser Pages: 1 -->
<svg width="232pt" height="273pt"
 viewBox="0.00 0.00 231.50 273.00" xmlns="http://www.w3.org/2000/svg" xmlns:xlink="http://www.w3.org/1999/xlink">
<g id="graph0" class="graph" transform="scale(1 1) rotate(0) translate(4 269)">
<title>koala.tokenizer.ExcelParser</title>
<polygon fill="white" stroke="none" points="-4,4 -4,-269 227.5,-269 227.5,4 -4,4"/>
<!-- Node3 -->
<g id="node1" class="node"><title>Node3</title>
<g id="a_node1"><a xlink:title=" ">
<polygon fill="#bfbfbf" stroke="black" points="0,-0.5 0,-19.5 139,-19.5 139,-0.5 0,-0.5"/>
<text text-anchor="middle" x="69.5" y="-7.5" font-family="Helvetica,sans-Serif" font-size="10.00">koala.tokenizer.ExcelParser</text>
</a>
</g>
</g>
<!-- Node4 -->
<g id="node2" class="node"><title>Node4</title>
<g id="a_node2"><a xlink:href="classkoala_1_1tokenizer_1_1_excel_parser_tokens.html" target="_top" xlink:title=" ">
<polygon fill="white" stroke="black" points="0,-57.5 0,-87.5 139,-87.5 139,-57.5 0,-57.5"/>
<text text-anchor="start" x="8" y="-75.5" font-family="Helvetica,sans-Serif" font-size="10.00">koala.tokenizer.ExcelParser</text>
<text text-anchor="middle" x="69.5" y="-64.5" font-family="Helvetica,sans-Serif" font-size="10.00">Tokens</text>
</a>
</g>
</g>
<!-- Node4&#45;&gt;Node3 -->
<g id="edge1" class="edge"><title>Node4&#45;&gt;Node3</title>
<path fill="none" stroke="midnightblue" d="M69.5,-47.3524C69.5,-37.5132 69.5,-26.7753 69.5,-19.5399"/>
<polygon fill="midnightblue" stroke="midnightblue" points="66.0001,-47.468 69.5,-57.468 73.0001,-47.4681 66.0001,-47.468"/>
</g>
<!-- Node5 -->
<g id="node3" class="node"><title>Node5</title>
<g id="a_node3"><a xlink:title=" ">
<polygon fill="white" stroke="#bfbfbf" points="18,-245.5 18,-264.5 61,-264.5 61,-245.5 18,-245.5"/>
<text text-anchor="middle" x="39.5" y="-252.5" font-family="Helvetica,sans-Serif" font-size="10.00">object</text>
</a>
</g>
</g>
<!-- Node5&#45;&gt;Node4 -->
<g id="edge2" class="edge"><title>Node5&#45;&gt;Node4</title>
<path fill="none" stroke="midnightblue" d="M42.6429,-235.09C48.6909,-198.701 61.8223,-119.694 67.1666,-87.5391"/>
<polygon fill="midnightblue" stroke="midnightblue" points="39.134,-234.856 40.947,-245.294 46.0392,-236.003 39.134,-234.856"/>
</g>
<!-- Node6 -->
<g id="node4" class="node"><title>Node6</title>
<g id="a_node4"><a xlink:title=" ">
<polygon fill="white" stroke="#bfbfbf" points="79,-245.5 79,-264.5 120,-264.5 120,-245.5 79,-245.5"/>
<text text-anchor="middle" x="99.5" y="-252.5" font-family="Helvetica,sans-Serif" font-size="10.00">string</text>
</a>
</g>
</g>
<!-- Node6&#45;&gt;Node4 -->
<g id="edge3" class="edge"><title>Node6&#45;&gt;Node4</title>
<path fill="none" stroke="#9a32cd" stroke-dasharray="5,2" d="M96.3571,-235.09C90.3091,-198.701 77.1777,-119.694 71.8334,-87.5391"/>
<polygon fill="#9a32cd" stroke="#9a32cd" points="92.9608,-236.003 98.053,-245.294 99.866,-234.856 92.9608,-236.003"/>
<text text-anchor="middle" x="158.5" y="-219" font-family="Helvetica,sans-Serif" font-size="10.00"> TOK_SUBTYPE_RANGE</text>
<text text-anchor="middle" x="158.5" y="-208" font-family="Helvetica,sans-Serif" font-size="10.00">TOK_SUBTYPE_UNION</text>
<text text-anchor="middle" x="158.5" y="-197" font-family="Helvetica,sans-Serif" font-size="10.00">TOK_SUBTYPE_LOGICAL</text>
<text text-anchor="middle" x="158.5" y="-186" font-family="Helvetica,sans-Serif" font-size="10.00">TOK_SUBTYPE_START</text>
<text text-anchor="middle" x="158.5" y="-175" font-family="Helvetica,sans-Serif" font-size="10.00">TOK_TYPE_UNKNOWN</text>
<text text-anchor="middle" x="158.5" y="-164" font-family="Helvetica,sans-Serif" font-size="10.00">TOK_SUBTYPE_INTERSECT</text>
<text text-anchor="middle" x="158.5" y="-153" font-family="Helvetica,sans-Serif" font-size="10.00">TOK_TYPE_OP_IN</text>
<text text-anchor="middle" x="158.5" y="-142" font-family="Helvetica,sans-Serif" font-size="10.00">TOK_TYPE_WSPACE</text>
<text text-anchor="middle" x="158.5" y="-131" font-family="Helvetica,sans-Serif" font-size="10.00">TOK_TYPE_OP_PRE</text>
<text text-anchor="middle" x="158.5" y="-120" font-family="Helvetica,sans-Serif" font-size="10.00">TOK_TYPE_SUBEXPR</text>
<text text-anchor="middle" x="158.5" y="-109" font-family="Helvetica,sans-Serif" font-size="10.00">...</text>
</g>
</g>
</svg>
