<?xml version="1.0" encoding="UTF-8" standalone="no"?>
<!DOCTYPE svg PUBLIC "-//W3C//DTD SVG 1.1//EN"
 "http://www.w3.org/Graphics/SVG/1.1/DTD/svg11.dtd">
<!-- Generated by graphviz version 2.38.0 (20140413.2041)
 -->
<!-- Title: koala.Cell.Cell.address Pages: 1 -->
<svg width="468pt" height="180pt"
 viewBox="0.00 0.00 468.00 180.00" xmlns="http://www.w3.org/2000/svg" xmlns:xlink="http://www.w3.org/1999/xlink">
<g id="graph0" class="graph" transform="scale(1 1) rotate(0) translate(4 176)">
<title>koala.Cell.Cell.address</title>
<polygon fill="white" stroke="none" points="-4,4 -4,-176 464,-176 464,4 -4,4"/>
<!-- Node15 -->
<g id="node1" class="node"><title>Node15</title>
<g id="a_node1"><a xlink:title=" ">
<polygon fill="#bfbfbf" stroke="black" points="344,-76.5 344,-95.5 460,-95.5 460,-76.5 344,-76.5"/>
<text text-anchor="middle" x="402" y="-83.5" font-family="Helvetica,sans-Serif" font-size="10.00">koala.Cell.Cell.address</text>
</a>
</g>
</g>
<!-- Node16 -->
<g id="node2" class="node"><title>Node16</title>
<g id="a_node2"><a xlink:href="classkoala_1_1_cell_1_1_cell.html#a2995774fb814db06dc11d299ae6f6dea" target="_top" xlink:title=" ">
<polygon fill="white" stroke="black" points="188,-152.5 188,-171.5 294,-171.5 294,-152.5 188,-152.5"/>
<text text-anchor="middle" x="241" y="-159.5" font-family="Helvetica,sans-Serif" font-size="10.00">koala.Cell.Cell.range</text>
</a>
</g>
</g>
<!-- Node15&#45;&gt;Node16 -->
<g id="edge1" class="edge"><title>Node15&#45;&gt;Node16</title>
<path fill="none" stroke="midnightblue" d="M379.568,-101.451C361.283,-114.054 333.912,-131.581 308,-143 299.707,-146.654 290.522,-149.813 281.704,-152.449"/>
<polygon fill="midnightblue" stroke="midnightblue" points="381.585,-104.312 387.768,-95.7082 377.57,-98.5781 381.585,-104.312"/>
</g>
<!-- Node17 -->
<g id="node3" class="node"><title>Node17</title>
<g id="a_node3"><a xlink:href="classkoala_1_1_cell_1_1_cell.html#a6a9fb3af4ac7878a39c83ffcea12ee38" target="_top" xlink:title=" ">
<polygon fill="white" stroke="black" points="174,-114.5 174,-133.5 308,-133.5 308,-114.5 174,-114.5"/>
<text text-anchor="middle" x="241" y="-121.5" font-family="Helvetica,sans-Serif" font-size="10.00">koala.Cell.Cell.clean_name</text>
</a>
</g>
</g>
<!-- Node15&#45;&gt;Node17 -->
<g id="edge2" class="edge"><title>Node15&#45;&gt;Node17</title>
<path fill="none" stroke="midnightblue" d="M350.923,-97.968C328.642,-103.293 302.771,-109.476 281.834,-114.48"/>
<polygon fill="midnightblue" stroke="midnightblue" points="351.965,-101.318 360.878,-95.589 350.338,-94.5094 351.965,-101.318"/>
</g>
<!-- Node18 -->
<g id="node4" class="node"><title>Node18</title>
<g id="a_node4"><a xlink:href="classkoala_1_1_cell_1_1_cell.html#a432911d1cee360eee9ff0ead3eec44f4" target="_top" xlink:title=" ">
<polygon fill="white" stroke="black" points="183,-76.5 183,-95.5 299,-95.5 299,-76.5 183,-76.5"/>
<text text-anchor="middle" x="241" y="-83.5" font-family="Helvetica,sans-Serif" font-size="10.00">koala.Cell.Cell.compile</text>
</a>
</g>
</g>
<!-- Node15&#45;&gt;Node18 -->
<g id="edge3" class="edge"><title>Node15&#45;&gt;Node18</title>
<path fill="none" stroke="midnightblue" d="M333.255,-86C321.862,-86 310.139,-86 299.052,-86"/>
<polygon fill="midnightblue" stroke="midnightblue" points="333.597,-89.5001 343.597,-86 333.597,-82.5001 333.597,-89.5001"/>
</g>
<!-- Node20 -->
<g id="node6" class="node"><title>Node20</title>
<g id="a_node6"><a xlink:href="classkoala_1_1_cell_1_1_cell.html#aedc2da34adba1698f1c5cfac79cc075a" target="_top" xlink:title=" ">
<polygon fill="white" stroke="black" points="184,-38.5 184,-57.5 298,-57.5 298,-38.5 184,-38.5"/>
<text text-anchor="middle" x="241" y="-45.5" font-family="Helvetica,sans-Serif" font-size="10.00">koala.Cell.Cell.__str__</text>
</a>
</g>
</g>
<!-- Node15&#45;&gt;Node20 -->
<g id="edge5" class="edge"><title>Node15&#45;&gt;Node20</title>
<path fill="none" stroke="midnightblue" d="M350.923,-74.032C328.642,-68.7069 302.771,-62.5238 281.834,-57.5201"/>
<polygon fill="midnightblue" stroke="midnightblue" points="350.338,-77.4906 360.878,-76.411 351.965,-70.6823 350.338,-77.4906"/>
</g>
<!-- Node21 -->
<g id="node7" class="node"><title>Node21</title>
<g id="a_node7"><a xlink:href="classkoala_1_1_cell_1_1_cell.html#ab74d202bd9f25cf4608c4cb8e86d32df" target="_top" xlink:title=" ">
<polygon fill="white" stroke="black" points="187,-0.5 187,-19.5 295,-19.5 295,-0.5 187,-0.5"/>
<text text-anchor="middle" x="241" y="-7.5" font-family="Helvetica,sans-Serif" font-size="10.00">koala.Cell.Cell.asdict</text>
</a>
</g>
</g>
<!-- Node15&#45;&gt;Node21 -->
<g id="edge6" class="edge"><title>Node15&#45;&gt;Node21</title>
<path fill="none" stroke="midnightblue" d="M379.568,-70.5487C361.283,-57.9455 333.912,-40.4191 308,-29 299.707,-25.3457 290.522,-22.1865 281.704,-19.5506"/>
<polygon fill="midnightblue" stroke="midnightblue" points="377.57,-73.4219 387.768,-76.2918 381.585,-67.6883 377.57,-73.4219"/>
</g>
<!-- Node19 -->
<g id="node5" class="node"><title>Node19</title>
<g id="a_node5"><a xlink:href="classkoala_1_1_cell_1_1_cell.html#a3263a336b4e6f538f140af84d72b75c0" target="_top" xlink:title=" ">
<polygon fill="white" stroke="black" points="0,-76.5 0,-95.5 138,-95.5 138,-76.5 0,-76.5"/>
<text text-anchor="middle" x="69" y="-83.5" font-family="Helvetica,sans-Serif" font-size="10.00">koala.Cell.Cell.__setstate__</text>
</a>
</g>
</g>
<!-- Node18&#45;&gt;Node19 -->
<g id="edge4" class="edge"><title>Node18&#45;&gt;Node19</title>
<path fill="none" stroke="midnightblue" d="M172.641,-86C161.288,-86 149.495,-86 138.123,-86"/>
<polygon fill="midnightblue" stroke="midnightblue" points="172.92,-89.5001 182.92,-86 172.92,-82.5001 172.92,-89.5001"/>
</g>
</g>
</svg>
