<?xml version="1.0" encoding="UTF-8" standalone="no"?>
<!DOCTYPE svg PUBLIC "-//W3C//DTD SVG 1.1//EN"
 "http://www.w3.org/Graphics/SVG/1.1/DTD/svg11.dtd">
<!-- Generated by graphviz version 2.38.0 (20140413.2041)
 -->
<!-- Title: Graphical Class Hierarchy Pages: 1 -->
<svg width="747pt" height="413pt"
 viewBox="0.00 0.00 747.00 413.00" xmlns="http://www.w3.org/2000/svg" xmlns:xlink="http://www.w3.org/1999/xlink">
<g id="graph0" class="graph" transform="scale(1 1) rotate(0) translate(4 409)">
<title>Graphical Class Hierarchy</title>
<polygon fill="white" stroke="none" points="-4,4 -4,-409 743,-409 743,4 -4,4"/>
<!-- Node1 -->
<g id="node1" class="node"><title>Node1</title>
<g id="a_node1"><a xlink:href="classkoala_1_1ast_1_1astnodes_1_1_function_node.html" target="_top" xlink:title=" ">
<polygon fill="white" stroke="black" points="0,-202.5 0,-221.5 162,-221.5 162,-202.5 0,-202.5"/>
<text text-anchor="middle" x="81" y="-209.5" font-family="Helvetica,sans-Serif" font-size="10.00">koala.ast.astnodes.FunctionNode</text>
</a>
</g>
</g>
<!-- Node0 -->
<g id="node2" class="node"><title>Node0</title>
<g id="a_node2"><a xlink:href="classkoala_1_1ast_1_1astnodes_1_1_a_s_t_node.html" target="_top" xlink:title=" ">
<polygon fill="white" stroke="black" points="204,-366.5 204,-385.5 347,-385.5 347,-366.5 204,-366.5"/>
<text text-anchor="middle" x="275.5" y="-373.5" font-family="Helvetica,sans-Serif" font-size="10.00">koala.ast.astnodes.ASTNode</text>
</a>
</g>
</g>
<!-- Node1&#45;&gt;Node0 -->
<g id="edge1" class="edge"><title>Node1&#45;&gt;Node0</title>
<path fill="none" stroke="midnightblue" d="M94.6391,-230.155C112.952,-259.778 149.991,-317.245 198,-348 213.787,-358.113 234.586,-362.843 250.511,-366.435"/>
<polygon fill="midnightblue" stroke="midnightblue" points="97.5852,-228.264 89.3613,-221.584 91.6247,-231.934 97.5852,-228.264"/>
</g>
<!-- Node7 -->
<g id="node6" class="node"><title>Node7</title>
<g id="a_node6"><a xlink:href="classkoala_1_1ast_1_1_operator.html" target="_top" xlink:title=" ">
<polygon fill="white" stroke="black" points="227,-328.5 227,-347.5 324,-347.5 324,-328.5 227,-328.5"/>
<text text-anchor="middle" x="275.5" y="-335.5" font-family="Helvetica,sans-Serif" font-size="10.00">koala.ast.Operator</text>
</a>
</g>
</g>
<!-- Node1&#45;&gt;Node7 -->
<g id="edge6" class="edge"><title>Node1&#45;&gt;Node7</title>
<path fill="none" stroke="midnightblue" d="M96.0461,-229.613C116.095,-253.539 155.252,-295.965 198,-319 206.915,-323.804 217.068,-327.418 226.998,-330.129"/>
<polygon fill="midnightblue" stroke="midnightblue" points="98.6039,-227.212 89.553,-221.705 93.1939,-231.655 98.6039,-227.212"/>
</g>
<!-- Node8 -->
<g id="node7" class="node"><title>Node8</title>
<g id="a_node7"><a xlink:href="classkoala_1_1_cell_base_1_1_cell_base.html" target="_top" xlink:title=" ">
<polygon fill="white" stroke="black" points="213.5,-290.5 213.5,-309.5 337.5,-309.5 337.5,-290.5 213.5,-290.5"/>
<text text-anchor="middle" x="275.5" y="-297.5" font-family="Helvetica,sans-Serif" font-size="10.00">koala.CellBase.CellBase</text>
</a>
</g>
</g>
<!-- Node1&#45;&gt;Node8 -->
<g id="edge7" class="edge"><title>Node1&#45;&gt;Node8</title>
<path fill="none" stroke="midnightblue" d="M103.719,-227.574C126.296,-243.11 163.142,-266.67 198,-281 207.113,-284.746 217.151,-287.888 226.873,-290.469"/>
<polygon fill="midnightblue" stroke="midnightblue" points="105.446,-224.511 95.2429,-221.655 101.438,-230.25 105.446,-224.511"/>
</g>
<!-- Node10 -->
<g id="node9" class="node"><title>Node10</title>
<g id="a_node9"><a xlink:href="classkoala_1_1_excel_compiler_1_1_excel_compiler.html" target="_top" xlink:title=" ">
<polygon fill="white" stroke="black" points="208.5,-241 208.5,-271 342.5,-271 342.5,-241 208.5,-241"/>
<text text-anchor="start" x="216.5" y="-259" font-family="Helvetica,sans-Serif" font-size="10.00">koala.ExcelCompiler.Excel</text>
<text text-anchor="middle" x="275.5" y="-248" font-family="Helvetica,sans-Serif" font-size="10.00">Compiler</text>
</a>
</g>
</g>
<!-- Node1&#45;&gt;Node10 -->
<g id="edge9" class="edge"><title>Node1&#45;&gt;Node10</title>
<path fill="none" stroke="midnightblue" d="M133.683,-223.813C156.711,-229.077 184.109,-235.339 208.589,-240.935"/>
<polygon fill="midnightblue" stroke="midnightblue" points="134.298,-220.364 123.77,-221.547 132.738,-227.188 134.298,-220.364"/>
</g>
<!-- Node11 -->
<g id="node10" class="node"><title>Node11</title>
<g id="a_node10"><a xlink:href="classkoala_1_1_spreadsheet_1_1_spreadsheet.html" target="_top" xlink:title=" ">
<polygon fill="white" stroke="black" points="198,-202.5 198,-221.5 353,-221.5 353,-202.5 198,-202.5"/>
<text text-anchor="middle" x="275.5" y="-209.5" font-family="Helvetica,sans-Serif" font-size="10.00">koala.Spreadsheet.Spreadsheet</text>
</a>
</g>
</g>
<!-- Node1&#45;&gt;Node11 -->
<g id="edge10" class="edge"><title>Node1&#45;&gt;Node11</title>
<path fill="none" stroke="midnightblue" d="M172.507,-212C180.959,-212 189.471,-212 197.78,-212"/>
<polygon fill="midnightblue" stroke="midnightblue" points="172.243,-208.5 162.243,-212 172.243,-215.5 172.243,-208.5"/>
</g>
<!-- Node12 -->
<g id="node11" class="node"><title>Node12</title>
<g id="a_node11"><a xlink:href="classkoala_1_1tokenizer_1_1_a_s_t_node.html" target="_top" xlink:title=" ">
<polygon fill="white" stroke="black" points="212,-164.5 212,-183.5 339,-183.5 339,-164.5 212,-164.5"/>
<text text-anchor="middle" x="275.5" y="-171.5" font-family="Helvetica,sans-Serif" font-size="10.00">koala.tokenizer.ASTNode</text>
</a>
</g>
</g>
<!-- Node1&#45;&gt;Node12 -->
<g id="edge11" class="edge"><title>Node1&#45;&gt;Node12</title>
<path fill="none" stroke="midnightblue" d="M140.45,-200.462C167.906,-195.042 200.241,-188.659 226.273,-183.52"/>
<polygon fill="midnightblue" stroke="midnightblue" points="139.709,-197.041 130.576,-202.411 141.064,-203.908 139.709,-197.041"/>
</g>
<!-- Node16 -->
<g id="node15" class="node"><title>Node16</title>
<g id="a_node15"><a xlink:href="classkoala_1_1tokenizer_1_1_excel_parser_tokens.html" target="_top" xlink:title=" ">
<polygon fill="white" stroke="black" points="206,-115 206,-145 345,-145 345,-115 206,-115"/>
<text text-anchor="start" x="214" y="-133" font-family="Helvetica,sans-Serif" font-size="10.00">koala.tokenizer.ExcelParser</text>
<text text-anchor="middle" x="275.5" y="-122" font-family="Helvetica,sans-Serif" font-size="10.00">Tokens</text>
</a>
</g>
</g>
<!-- Node1&#45;&gt;Node16 -->
<g id="edge15" class="edge"><title>Node1&#45;&gt;Node16</title>
<path fill="none" stroke="midnightblue" d="M108.616,-197.583C131.816,-185.343 166.578,-167.78 198,-155 206.542,-151.526 215.765,-148.181 224.749,-145.13"/>
<polygon fill="midnightblue" stroke="midnightblue" points="106.909,-194.527 99.7242,-202.313 110.197,-200.707 106.909,-194.527"/>
</g>
<!-- Node19 -->
<g id="node18" class="node"><title>Node19</title>
<g id="a_node18"><a xlink:href="classkoala_1_1tokenizer_1_1f__token.html" target="_top" xlink:title=" ">
<polygon fill="white" stroke="black" points="217,-76.5 217,-95.5 334,-95.5 334,-76.5 217,-76.5"/>
<text text-anchor="middle" x="275.5" y="-83.5" font-family="Helvetica,sans-Serif" font-size="10.00">koala.tokenizer.f_token</text>
</a>
</g>
</g>
<!-- Node1&#45;&gt;Node19 -->
<g id="edge18" class="edge"><title>Node1&#45;&gt;Node19</title>
<path fill="none" stroke="midnightblue" d="M96.123,-194.631C116.262,-171.02 155.523,-129.098 198,-106 205.96,-101.672 214.9,-98.246 223.786,-95.545"/>
<polygon fill="midnightblue" stroke="midnightblue" points="93.329,-192.516 89.5982,-202.432 98.6985,-197.007 93.329,-192.516"/>
</g>
<!-- Node20 -->
<g id="node19" class="node"><title>Node20</title>
<g id="a_node19"><a xlink:href="classkoala_1_1tokenizer_1_1f__tokens.html" target="_top" xlink:title=" ">
<polygon fill="white" stroke="black" points="214.5,-38.5 214.5,-57.5 336.5,-57.5 336.5,-38.5 214.5,-38.5"/>
<text text-anchor="middle" x="275.5" y="-45.5" font-family="Helvetica,sans-Serif" font-size="10.00">koala.tokenizer.f_tokens</text>
</a>
</g>
</g>
<!-- Node1&#45;&gt;Node20 -->
<g id="edge19" class="edge"><title>Node1&#45;&gt;Node20</title>
<path fill="none" stroke="midnightblue" d="M91.488,-193.508C108.457,-162.359 147.051,-99.6385 198,-67 204.107,-63.0876 210.965,-59.9809 218,-57.5138"/>
<polygon fill="midnightblue" stroke="midnightblue" points="88.3471,-191.96 86.75,-202.434 94.5301,-195.242 88.3471,-191.96"/>
</g>
<!-- Node21 -->
<g id="node20" class="node"><title>Node21</title>
<g id="a_node20"><a xlink:href="classkoala_1_1tokenizer_1_1_operator.html" target="_top" xlink:title=" ">
<polygon fill="white" stroke="black" points="214,-0.5 214,-19.5 337,-19.5 337,-0.5 214,-0.5"/>
<text text-anchor="middle" x="275.5" y="-7.5" font-family="Helvetica,sans-Serif" font-size="10.00">koala.tokenizer.Operator</text>
</a>
</g>
</g>
<!-- Node1&#45;&gt;Node21 -->
<g id="edge20" class="edge"><title>Node1&#45;&gt;Node21</title>
<path fill="none" stroke="midnightblue" d="M88.7296,-192.427C102.762,-154.647 138.846,-71.646 198,-29 203.328,-25.1586 209.348,-22.0898 215.612,-19.6388"/>
<polygon fill="midnightblue" stroke="midnightblue" points="85.302,-191.617 85.2178,-202.211 91.8904,-193.982 85.302,-191.617"/>
</g>
<!-- Node0&#45;&gt;Node1 -->
<g id="edge2" class="edge"><title>Node0&#45;&gt;Node1</title>
<path fill="none" stroke="midnightblue" d="M195.111,-363.551C135.066,-321.14 95.805,-248.339 84.9973,-221.573"/>
<polygon fill="midnightblue" stroke="midnightblue" points="193.466,-366.662 203.72,-369.325 197.365,-360.848 193.466,-366.662"/>
</g>
<!-- Node2 -->
<g id="node3" class="node"><title>Node2</title>
<g id="a_node3"><a xlink:href="classkoala_1_1ast_1_1astnodes_1_1_operand_node.html" target="_top" xlink:title=" ">
<polygon fill="white" stroke="black" points="389.5,-385.5 389.5,-404.5 550.5,-404.5 550.5,-385.5 389.5,-385.5"/>
<text text-anchor="middle" x="470" y="-392.5" font-family="Helvetica,sans-Serif" font-size="10.00">koala.ast.astnodes.OperandNode</text>
</a>
</g>
</g>
<!-- Node0&#45;&gt;Node2 -->
<g id="edge3" class="edge"><title>Node0&#45;&gt;Node2</title>
<path fill="none" stroke="midnightblue" d="M357.181,-383.963C367.811,-385.012 378.7,-386.087 389.313,-387.135"/>
<polygon fill="midnightblue" stroke="midnightblue" points="357.382,-380.466 347.087,-382.967 356.695,-387.432 357.382,-380.466"/>
</g>
<!-- Node4 -->
<g id="node5" class="node"><title>Node4</title>
<g id="a_node5"><a xlink:href="classkoala_1_1ast_1_1astnodes_1_1_operator_node.html" target="_top" xlink:title=" ">
<polygon fill="white" stroke="black" points="389,-347.5 389,-366.5 551,-366.5 551,-347.5 389,-347.5"/>
<text text-anchor="middle" x="470" y="-354.5" font-family="Helvetica,sans-Serif" font-size="10.00">koala.ast.astnodes.OperatorNode</text>
</a>
</g>
</g>
<!-- Node0&#45;&gt;Node4 -->
<g id="edge5" class="edge"><title>Node0&#45;&gt;Node4</title>
<path fill="none" stroke="midnightblue" d="M357.101,-368.045C367.647,-367.004 378.449,-365.937 388.985,-364.898"/>
<polygon fill="midnightblue" stroke="midnightblue" points="356.695,-364.568 347.087,-369.033 357.382,-371.534 356.695,-364.568"/>
</g>
<!-- Node3 -->
<g id="node4" class="node"><title>Node3</title>
<g id="a_node4"><a xlink:href="classkoala_1_1ast_1_1astnodes_1_1_range_node.html" target="_top" xlink:title=" ">
<polygon fill="white" stroke="black" points="587,-385.5 587,-404.5 739,-404.5 739,-385.5 587,-385.5"/>
<text text-anchor="middle" x="663" y="-392.5" font-family="Helvetica,sans-Serif" font-size="10.00">koala.ast.astnodes.RangeNode</text>
</a>
</g>
</g>
<!-- Node2&#45;&gt;Node3 -->
<g id="edge4" class="edge"><title>Node2&#45;&gt;Node3</title>
<path fill="none" stroke="midnightblue" d="M560.787,-395C569.489,-395 578.254,-395 586.793,-395"/>
<polygon fill="midnightblue" stroke="midnightblue" points="560.618,-391.5 550.618,-395 560.618,-398.5 560.618,-391.5"/>
</g>
<!-- Node9 -->
<g id="node8" class="node"><title>Node9</title>
<g id="a_node8"><a xlink:href="classkoala_1_1_cell_1_1_cell.html" target="_top" xlink:title=" ">
<polygon fill="white" stroke="black" points="430.5,-290.5 430.5,-309.5 509.5,-309.5 509.5,-290.5 430.5,-290.5"/>
<text text-anchor="middle" x="470" y="-297.5" font-family="Helvetica,sans-Serif" font-size="10.00">koala.Cell.Cell</text>
</a>
</g>
</g>
<!-- Node8&#45;&gt;Node9 -->
<g id="edge8" class="edge"><title>Node8&#45;&gt;Node9</title>
<path fill="none" stroke="midnightblue" d="M347.818,-300C375.776,-300 406.749,-300 430.383,-300"/>
<polygon fill="midnightblue" stroke="midnightblue" points="347.673,-296.5 337.673,-300 347.673,-303.5 347.673,-296.5"/>
</g>
<!-- Node13 -->
<g id="node12" class="node"><title>Node13</title>
<g id="a_node12"><a xlink:href="classkoala_1_1tokenizer_1_1_function_node.html" target="_top" xlink:title=" ">
<polygon fill="white" stroke="black" points="397,-234.5 397,-253.5 543,-253.5 543,-234.5 397,-234.5"/>
<text text-anchor="middle" x="470" y="-241.5" font-family="Helvetica,sans-Serif" font-size="10.00">koala.tokenizer.FunctionNode</text>
</a>
</g>
</g>
<!-- Node12&#45;&gt;Node13 -->
<g id="edge12" class="edge"><title>Node12&#45;&gt;Node13</title>
<path fill="none" stroke="midnightblue" d="M338.765,-186.716C343.694,-188.545 348.5,-190.628 353,-193 371.938,-202.981 370.011,-215.116 389,-225 396.471,-228.889 404.748,-231.994 413.062,-234.471"/>
<polygon fill="midnightblue" stroke="midnightblue" points="339.779,-183.364 329.185,-183.503 337.553,-190.001 339.779,-183.364"/>
</g>
<!-- Node14 -->
<g id="node13" class="node"><title>Node14</title>
<g id="a_node13"><a xlink:href="classkoala_1_1tokenizer_1_1_operator_node.html" target="_top" xlink:title=" ">
<polygon fill="white" stroke="black" points="397,-196.5 397,-215.5 543,-215.5 543,-196.5 397,-196.5"/>
<text text-anchor="middle" x="470" y="-203.5" font-family="Helvetica,sans-Serif" font-size="10.00">koala.tokenizer.OperatorNode</text>
</a>
</g>
</g>
<!-- Node12&#45;&gt;Node14 -->
<g id="edge13" class="edge"><title>Node12&#45;&gt;Node14</title>
<path fill="none" stroke="midnightblue" d="M343.736,-185.177C365.89,-188.86 390.306,-192.918 411.653,-196.467"/>
<polygon fill="midnightblue" stroke="midnightblue" points="344.174,-181.702 333.735,-183.514 343.026,-188.607 344.174,-181.702"/>
</g>
<!-- Node15 -->
<g id="node14" class="node"><title>Node15</title>
<g id="a_node14"><a xlink:href="classkoala_1_1tokenizer_1_1_range_node.html" target="_top" xlink:title=" ">
<polygon fill="white" stroke="black" points="402,-158.5 402,-177.5 538,-177.5 538,-158.5 402,-158.5"/>
<text text-anchor="middle" x="470" y="-165.5" font-family="Helvetica,sans-Serif" font-size="10.00">koala.tokenizer.RangeNode</text>
</a>
</g>
</g>
<!-- Node12&#45;&gt;Node15 -->
<g id="edge14" class="edge"><title>Node12&#45;&gt;Node15</title>
<path fill="none" stroke="midnightblue" d="M349.736,-171.717C366.797,-171.186 384.884,-170.622 401.676,-170.098"/>
<polygon fill="midnightblue" stroke="midnightblue" points="349.151,-168.234 339.265,-172.044 349.37,-175.23 349.151,-168.234"/>
</g>
<!-- Node17 -->
<g id="node16" class="node"><title>Node17</title>
<g id="a_node16"><a xlink:href="classkoala_1_1tokenizer_1_1_excel_parser.html" target="_top" xlink:title=" ">
<polygon fill="white" stroke="black" points="400.5,-120.5 400.5,-139.5 539.5,-139.5 539.5,-120.5 400.5,-120.5"/>
<text text-anchor="middle" x="470" y="-127.5" font-family="Helvetica,sans-Serif" font-size="10.00">koala.tokenizer.ExcelParser</text>
</a>
</g>
</g>
<!-- Node16&#45;&gt;Node17 -->
<g id="edge16" class="edge"><title>Node16&#45;&gt;Node17</title>
<path fill="none" stroke="midnightblue" d="M355.392,-130C370.3,-130 385.783,-130 400.345,-130"/>
<polygon fill="midnightblue" stroke="midnightblue" points="355.182,-126.5 345.182,-130 355.182,-133.5 355.182,-126.5"/>
</g>
<!-- Node18 -->
<g id="node17" class="node"><title>Node18</title>
<g id="a_node17"><a xlink:href="classkoala_1_1tokenizer_1_1f__token_stack.html" target="_top" xlink:title=" ">
<polygon fill="white" stroke="black" points="398.5,-82.5 398.5,-101.5 541.5,-101.5 541.5,-82.5 398.5,-82.5"/>
<text text-anchor="middle" x="470" y="-89.5" font-family="Helvetica,sans-Serif" font-size="10.00">koala.tokenizer.f_tokenStack</text>
</a>
</g>
</g>
<!-- Node16&#45;&gt;Node18 -->
<g id="edge17" class="edge"><title>Node16&#45;&gt;Node18</title>
<path fill="none" stroke="midnightblue" d="M355.245,-114.456C377.381,-110.086 400.795,-105.464 420.59,-101.556"/>
<polygon fill="midnightblue" stroke="midnightblue" points="354.314,-111.072 345.182,-116.442 355.67,-117.939 354.314,-111.072"/>
</g>
</g>
</svg>
