<?xml version="1.0" encoding="UTF-8" standalone="no"?>
<!DOCTYPE svg PUBLIC "-//W3C//DTD SVG 1.1//EN"
 "http://www.w3.org/Graphics/SVG/1.1/DTD/svg11.dtd">
<!-- Generated by graphviz version 2.38.0 (20140413.2041)
 -->
<!-- Title: Graphical Class Hierarchy Pages: 1 -->
<svg width="460pt" height="318pt"
 viewBox="0.00 0.00 460.00 318.00" xmlns="http://www.w3.org/2000/svg" xmlns:xlink="http://www.w3.org/1999/xlink">
<g id="graph0" class="graph" transform="scale(1 1) rotate(0) translate(4 314)">
<title>Graphical Class Hierarchy</title>
<polygon fill="white" stroke="none" points="-4,4 -4,-314 456,-314 456,4 -4,4"/>
<!-- Node1 -->
<g id="node1" class="node"><title>Node1</title>
<g id="a_node1"><a xlink:href="classkoala_1_1_cell_1_1_cell.html" target="_top" xlink:title=" ">
<polygon fill="white" stroke="black" points="0,-164.5 0,-183.5 79,-183.5 79,-164.5 0,-164.5"/>
<text text-anchor="middle" x="39.5" y="-171.5" font-family="Helvetica,sans-Serif" font-size="10.00">koala.Cell.Cell</text>
</a>
</g>
</g>
<!-- Node0 -->
<g id="node2" class="node"><title>Node0</title>
<g id="a_node2"><a xlink:href="classkoala_1_1_cell_base_1_1_cell_base.html" target="_top" xlink:title=" ">
<polygon fill="white" stroke="black" points="130.5,-290.5 130.5,-309.5 254.5,-309.5 254.5,-290.5 130.5,-290.5"/>
<text text-anchor="middle" x="192.5" y="-297.5" font-family="Helvetica,sans-Serif" font-size="10.00">koala.CellBase.CellBase</text>
</a>
</g>
</g>
<!-- Node1&#45;&gt;Node0 -->
<g id="edge1" class="edge"><title>Node1&#45;&gt;Node0</title>
<path fill="none" stroke="midnightblue" d="M51.6215,-192.636C63.686,-215.069 85.2805,-251.536 115,-272 129.991,-282.322 150.053,-287.047 165.872,-290.467"/>
<polygon fill="midnightblue" stroke="midnightblue" points="54.6637,-190.902 46.8961,-183.697 48.4751,-194.173 54.6637,-190.902"/>
</g>
<!-- Node4 -->
<g id="node3" class="node"><title>Node4</title>
<g id="a_node3"><a xlink:href="classkoala_1_1_excel_compiler_1_1_excel_compiler.html" target="_top" xlink:title=" ">
<polygon fill="white" stroke="black" points="125.5,-241 125.5,-271 259.5,-271 259.5,-241 125.5,-241"/>
<text text-anchor="start" x="133.5" y="-259" font-family="Helvetica,sans-Serif" font-size="10.00">koala.ExcelCompiler.Excel</text>
<text text-anchor="middle" x="192.5" y="-248" font-family="Helvetica,sans-Serif" font-size="10.00">Compiler</text>
</a>
</g>
</g>
<!-- Node1&#45;&gt;Node4 -->
<g id="edge3" class="edge"><title>Node1&#45;&gt;Node4</title>
<path fill="none" stroke="midnightblue" d="M58.4522,-190.535C72.8461,-203.071 94.0383,-219.968 115,-231 122.048,-234.709 129.75,-238.006 137.465,-240.891"/>
<polygon fill="midnightblue" stroke="midnightblue" points="60.612,-187.772 50.8161,-183.736 55.9569,-193 60.612,-187.772"/>
</g>
<!-- Node5 -->
<g id="node4" class="node"><title>Node5</title>
<g id="a_node4"><a xlink:href="classkoala_1_1_spreadsheet_1_1_spreadsheet.html" target="_top" xlink:title=" ">
<polygon fill="white" stroke="black" points="115,-202.5 115,-221.5 270,-221.5 270,-202.5 115,-202.5"/>
<text text-anchor="middle" x="192.5" y="-209.5" font-family="Helvetica,sans-Serif" font-size="10.00">koala.Spreadsheet.Spreadsheet</text>
</a>
</g>
</g>
<!-- Node1&#45;&gt;Node5 -->
<g id="edge4" class="edge"><title>Node1&#45;&gt;Node5</title>
<path fill="none" stroke="midnightblue" d="M87.3712,-186.001C96.5307,-188.333 106.064,-190.751 115,-193 127.342,-196.106 140.813,-199.463 152.963,-202.479"/>
<polygon fill="midnightblue" stroke="midnightblue" points="88.1798,-182.596 77.6251,-183.517 86.4506,-189.379 88.1798,-182.596"/>
</g>
<!-- Node6 -->
<g id="node5" class="node"><title>Node6</title>
<g id="a_node5"><a xlink:href="classkoala_1_1tokenizer_1_1_a_s_t_node.html" target="_top" xlink:title=" ">
<polygon fill="white" stroke="black" points="129,-164.5 129,-183.5 256,-183.5 256,-164.5 129,-164.5"/>
<text text-anchor="middle" x="192.5" y="-171.5" font-family="Helvetica,sans-Serif" font-size="10.00">koala.tokenizer.ASTNode</text>
</a>
</g>
</g>
<!-- Node1&#45;&gt;Node6 -->
<g id="edge5" class="edge"><title>Node1&#45;&gt;Node6</title>
<path fill="none" stroke="midnightblue" d="M89.5806,-174C102.068,-174 115.659,-174 128.726,-174"/>
<polygon fill="midnightblue" stroke="midnightblue" points="89.3863,-170.5 79.3863,-174 89.3862,-177.5 89.3863,-170.5"/>
</g>
<!-- Node10 -->
<g id="node9" class="node"><title>Node10</title>
<g id="a_node9"><a xlink:href="classkoala_1_1tokenizer_1_1_excel_parser_tokens.html" target="_top" xlink:title=" ">
<polygon fill="white" stroke="black" points="123,-115 123,-145 262,-145 262,-115 123,-115"/>
<text text-anchor="start" x="131" y="-133" font-family="Helvetica,sans-Serif" font-size="10.00">koala.tokenizer.ExcelParser</text>
<text text-anchor="middle" x="192.5" y="-122" font-family="Helvetica,sans-Serif" font-size="10.00">Tokens</text>
</a>
</g>
</g>
<!-- Node1&#45;&gt;Node10 -->
<g id="edge9" class="edge"><title>Node1&#45;&gt;Node10</title>
<path fill="none" stroke="midnightblue" d="M83.2442,-161.545C100.836,-156.419 121.371,-150.435 139.798,-145.065"/>
<polygon fill="midnightblue" stroke="midnightblue" points="81.8863,-158.295 73.2648,-164.453 83.8446,-165.015 81.8863,-158.295"/>
</g>
<!-- Node13 -->
<g id="node12" class="node"><title>Node13</title>
<g id="a_node12"><a xlink:href="classkoala_1_1tokenizer_1_1f__token.html" target="_top" xlink:title=" ">
<polygon fill="white" stroke="black" points="134,-76.5 134,-95.5 251,-95.5 251,-76.5 134,-76.5"/>
<text text-anchor="middle" x="192.5" y="-83.5" font-family="Helvetica,sans-Serif" font-size="10.00">koala.tokenizer.f_token</text>
</a>
</g>
</g>
<!-- Node1&#45;&gt;Node13 -->
<g id="edge12" class="edge"><title>Node1&#45;&gt;Node13</title>
<path fill="none" stroke="midnightblue" d="M55.3899,-156.217C69.2836,-140.744 91.3718,-118.84 115,-106 122.961,-101.674 131.902,-98.2494 140.788,-95.5487"/>
<polygon fill="midnightblue" stroke="midnightblue" points="52.4907,-154.216 48.5564,-164.054 57.7666,-158.817 52.4907,-154.216"/>
</g>
<!-- Node14 -->
<g id="node13" class="node"><title>Node14</title>
<g id="a_node13"><a xlink:href="classkoala_1_1tokenizer_1_1f__tokens.html" target="_top" xlink:title=" ">
<polygon fill="white" stroke="black" points="131.5,-38.5 131.5,-57.5 253.5,-57.5 253.5,-38.5 131.5,-38.5"/>
<text text-anchor="middle" x="192.5" y="-45.5" font-family="Helvetica,sans-Serif" font-size="10.00">koala.tokenizer.f_tokens</text>
</a>
</g>
</g>
<!-- Node1&#45;&gt;Node14 -->
<g id="edge13" class="edge"><title>Node1&#45;&gt;Node14</title>
<path fill="none" stroke="midnightblue" d="M48.5252,-155.026C59.7686,-130.8 82.5372,-89.3529 115,-67 120.636,-63.1195 126.988,-60.03 133.562,-57.5706"/>
<polygon fill="midnightblue" stroke="midnightblue" points="45.2893,-153.689 44.4176,-164.248 51.6837,-156.537 45.2893,-153.689"/>
</g>
<!-- Node15 -->
<g id="node14" class="node"><title>Node15</title>
<g id="a_node14"><a xlink:href="classkoala_1_1tokenizer_1_1_operator.html" target="_top" xlink:title=" ">
<polygon fill="white" stroke="black" points="131,-0.5 131,-19.5 254,-19.5 254,-0.5 131,-0.5"/>
<text text-anchor="middle" x="192.5" y="-7.5" font-family="Helvetica,sans-Serif" font-size="10.00">koala.tokenizer.Operator</text>
</a>
</g>
</g>
<!-- Node1&#45;&gt;Node15 -->
<g id="edge14" class="edge"><title>Node1&#45;&gt;Node15</title>
<path fill="none" stroke="midnightblue" d="M45.0076,-154.355C53.2703,-122.92 73.8985,-61.55 115,-29 119.828,-25.1768 125.322,-22.1106 131.099,-19.6535"/>
<polygon fill="midnightblue" stroke="midnightblue" points="41.5086,-153.926 42.508,-164.473 48.3043,-155.605 41.5086,-153.926"/>
</g>
<!-- Node0&#45;&gt;Node1 -->
<g id="edge2" class="edge"><title>Node0&#45;&gt;Node1</title>
<path fill="none" stroke="midnightblue" d="M121,-293.7C118.93,-292.556 116.923,-291.324 115,-290 75.2896,-262.657 50.0852,-206.741 42.7385,-183.544"/>
<polygon fill="midnightblue" stroke="midnightblue" points="119.89,-297.047 130.426,-298.16 122.884,-290.719 119.89,-297.047"/>
</g>
<!-- Node7 -->
<g id="node6" class="node"><title>Node7</title>
<g id="a_node6"><a xlink:href="classkoala_1_1tokenizer_1_1_function_node.html" target="_top" xlink:title=" ">
<polygon fill="white" stroke="black" points="306,-234.5 306,-253.5 452,-253.5 452,-234.5 306,-234.5"/>
<text text-anchor="middle" x="379" y="-241.5" font-family="Helvetica,sans-Serif" font-size="10.00">koala.tokenizer.FunctionNode</text>
</a>
</g>
</g>
<!-- Node6&#45;&gt;Node7 -->
<g id="edge6" class="edge"><title>Node6&#45;&gt;Node7</title>
<path fill="none" stroke="midnightblue" d="M255.765,-186.716C260.694,-188.545 265.5,-190.628 270,-193 288.938,-202.981 287.135,-214.881 306,-225 313.177,-228.85 321.183,-231.955 329.173,-234.45"/>
<polygon fill="midnightblue" stroke="midnightblue" points="256.779,-183.364 246.185,-183.503 254.553,-190.001 256.779,-183.364"/>
</g>
<!-- Node8 -->
<g id="node7" class="node"><title>Node8</title>
<g id="a_node7"><a xlink:href="classkoala_1_1tokenizer_1_1_operator_node.html" target="_top" xlink:title=" ">
<polygon fill="white" stroke="black" points="306,-196.5 306,-215.5 452,-215.5 452,-196.5 306,-196.5"/>
<text text-anchor="middle" x="379" y="-203.5" font-family="Helvetica,sans-Serif" font-size="10.00">koala.tokenizer.OperatorNode</text>
</a>
</g>
</g>
<!-- Node6&#45;&gt;Node8 -->
<g id="edge7" class="edge"><title>Node6&#45;&gt;Node8</title>
<path fill="none" stroke="midnightblue" d="M258.229,-185.227C279.386,-188.896 302.669,-192.934 323.036,-196.467"/>
<polygon fill="midnightblue" stroke="midnightblue" points="258.808,-181.775 248.357,-183.514 257.611,-188.672 258.808,-181.775"/>
</g>
<!-- Node9 -->
<g id="node8" class="node"><title>Node9</title>
<g id="a_node8"><a xlink:href="classkoala_1_1tokenizer_1_1_range_node.html" target="_top" xlink:title=" ">
<polygon fill="white" stroke="black" points="311,-158.5 311,-177.5 447,-177.5 447,-158.5 311,-158.5"/>
<text text-anchor="middle" x="379" y="-165.5" font-family="Helvetica,sans-Serif" font-size="10.00">koala.tokenizer.RangeNode</text>
</a>
</g>
</g>
<!-- Node6&#45;&gt;Node9 -->
<g id="edge8" class="edge"><title>Node6&#45;&gt;Node9</title>
<path fill="none" stroke="midnightblue" d="M266.242,-171.634C280.903,-171.158 296.254,-170.658 310.718,-170.188"/>
<polygon fill="midnightblue" stroke="midnightblue" points="266.102,-168.137 256.221,-171.96 266.329,-175.133 266.102,-168.137"/>
</g>
<!-- Node11 -->
<g id="node10" class="node"><title>Node11</title>
<g id="a_node10"><a xlink:href="classkoala_1_1tokenizer_1_1_excel_parser.html" target="_top" xlink:title=" ">
<polygon fill="white" stroke="black" points="309.5,-120.5 309.5,-139.5 448.5,-139.5 448.5,-120.5 309.5,-120.5"/>
<text text-anchor="middle" x="379" y="-127.5" font-family="Helvetica,sans-Serif" font-size="10.00">koala.tokenizer.ExcelParser</text>
</a>
</g>
</g>
<!-- Node10&#45;&gt;Node11 -->
<g id="edge10" class="edge"><title>Node10&#45;&gt;Node11</title>
<path fill="none" stroke="midnightblue" d="M272.401,-130C284.657,-130 297.234,-130 309.242,-130"/>
<polygon fill="midnightblue" stroke="midnightblue" points="272.201,-126.5 262.201,-130 272.201,-133.5 272.201,-126.5"/>
</g>
<!-- Node12 -->
<g id="node11" class="node"><title>Node12</title>
<g id="a_node11"><a xlink:href="classkoala_1_1tokenizer_1_1f__token_stack.html" target="_top" xlink:title=" ">
<polygon fill="white" stroke="black" points="307.5,-82.5 307.5,-101.5 450.5,-101.5 450.5,-82.5 307.5,-82.5"/>
<text text-anchor="middle" x="379" y="-89.5" font-family="Helvetica,sans-Serif" font-size="10.00">koala.tokenizer.f_tokenStack</text>
</a>
</g>
</g>
<!-- Node10&#45;&gt;Node12 -->
<g id="edge11" class="edge"><title>Node10&#45;&gt;Node12</title>
<path fill="none" stroke="midnightblue" d="M272.077,-113.816C292.38,-109.635 313.586,-105.267 331.644,-101.548"/>
<polygon fill="midnightblue" stroke="midnightblue" points="271.289,-110.405 262.201,-115.85 272.701,-117.261 271.289,-110.405"/>
</g>
</g>
</svg>
