<?xml version="1.0" encoding="UTF-8" standalone="no"?>
<!DOCTYPE svg PUBLIC "-//W3C//DTD SVG 1.1//EN"
 "http://www.w3.org/Graphics/SVG/1.1/DTD/svg11.dtd">
<!-- Generated by graphviz version 2.38.0 (20140413.2041)
 -->
<!-- Title: koala.excellib.match Pages: 1 -->
<svg width="397pt" height="47pt"
 viewBox="0.00 0.00 397.00 47.00" xmlns="http://www.w3.org/2000/svg" xmlns:xlink="http://www.w3.org/1999/xlink">
<g id="graph0" class="graph" transform="scale(1 1) rotate(0) translate(4 43)">
<title>koala.excellib.match</title>
<polygon fill="white" stroke="none" points="-4,4 -4,-43 393,-43 393,4 -4,4"/>
<!-- Node68 -->
<g id="node1" class="node"><title>Node68</title>
<g id="a_node1"><a xlink:title=" ">
<polygon fill="#bfbfbf" stroke="black" points="0,-19.5 0,-38.5 106,-38.5 106,-19.5 0,-19.5"/>
<text text-anchor="middle" x="53" y="-26.5" font-family="Helvetica,sans-Serif" font-size="10.00">koala.excellib.match</text>
</a>
</g>
</g>
<!-- Node69 -->
<g id="node2" class="node"><title>Node69</title>
<g id="a_node2"><a xlink:href="namespacekoala_1_1utils.html#af016160edea2b46cb26db3ed307c9648" target="_top" xlink:title=" ">
<polygon fill="white" stroke="black" points="280,-19.5 280,-38.5 389,-38.5 389,-19.5 280,-19.5"/>
<text text-anchor="middle" x="334.5" y="-26.5" font-family="Helvetica,sans-Serif" font-size="10.00">koala.utils.is_number</text>
</a>
</g>
</g>
<!-- Node68&#45;&gt;Node69 -->
<g id="edge1" class="edge"><title>Node68&#45;&gt;Node69</title>
<path fill="none" stroke="midnightblue" d="M106.244,-29C152.415,-29 219.908,-29 269.346,-29"/>
<polygon fill="midnightblue" stroke="midnightblue" points="269.608,-32.5001 279.608,-29 269.608,-25.5001 269.608,-32.5001"/>
</g>
<!-- Node70 -->
<g id="node3" class="node"><title>Node70</title>
<g id="a_node3"><a xlink:href="namespacekoala_1_1excellib.html#a6dcf62baa7fac4da767ba2674087266b" target="_top" xlink:title=" ">
<polygon fill="white" stroke="black" points="142,-0.5 142,-19.5 244,-19.5 244,-0.5 142,-0.5"/>
<text text-anchor="middle" x="193" y="-7.5" font-family="Helvetica,sans-Serif" font-size="10.00">koala.excellib.index</text>
</a>
</g>
</g>
<!-- Node68&#45;&gt;Node70 -->
<g id="edge2" class="edge"><title>Node68&#45;&gt;Node70</title>
<path fill="none" stroke="midnightblue" d="M106.172,-21.8169C114.42,-20.6813 123.01,-19.4987 131.429,-18.3394"/>
<polygon fill="midnightblue" stroke="midnightblue" points="132.152,-21.7731 141.581,-16.9418 131.197,-14.8385 132.152,-21.7731"/>
</g>
<!-- Node70&#45;&gt;Node69 -->
<g id="edge3" class="edge"><title>Node70&#45;&gt;Node69</title>
<path fill="none" stroke="midnightblue" d="M244.363,-16.8594C252.665,-17.9902 261.364,-19.1751 269.939,-20.3429"/>
<polygon fill="midnightblue" stroke="midnightblue" points="269.534,-23.82 279.915,-21.7017 270.479,-16.884 269.534,-23.82"/>
</g>
</g>
</svg>
