<?xml version="1.0" encoding="UTF-8" standalone="no"?>
<!DOCTYPE svg PUBLIC "-//W3C//DTD SVG 1.1//EN"
 "http://www.w3.org/Graphics/SVG/1.1/DTD/svg11.dtd">
<!-- Generated by graphviz version 2.38.0 (20140413.2041)
 -->
<!-- Title: koala.Range.parse_cell_address Pages: 1 -->
<!--zoomable 225 -->
<svg id="main" version="1.1" xmlns="http://www.w3.org/2000/svg" xmlns:xlink="http://www.w3.org/1999/xlink" xml:space="preserve" onload="init(evt)">
<style type="text/css"><![CDATA[
.edge:hover path { stroke: red; }
.edge:hover polygon { stroke: red; fill: red; }
]]></style>
<script type="text/javascript"><![CDATA[
var edges = document.getElementsByTagName('g');
if (edges && edges.length) {
  for (var i=0;i<edges.length;i++) {
    if (edges[i].id.substr(0,4)=='edge') {
      edges[i].setAttribute('class','edge');
    }
  }
}
]]></script>
        <defs>
                <circle id="rim" cx="0" cy="0" r="7"/>
                <circle id="rim2" cx="0" cy="0" r="3.5"/>
                <g id="zoomPlus">
                        <use xlink:href="#rim" fill="#404040">
                                <set attributeName="fill" to="#808080" begin="zoomplus.mouseover" end="zoomplus.mouseout"/>
                        </use>
                        <path d="M-4,0h8M0,-4v8" fill="none" stroke="white" stroke-width="1.5" pointer-events="none"/>
                </g>
                <g id="zoomMin">
                        <use xlink:href="#rim" fill="#404040">
                                <set attributeName="fill" to="#808080" begin="zoomminus.mouseover" end="zoomminus.mouseout"/>
                        </use>
                        <path d="M-4,0h8" fill="none" stroke="white" stroke-width="1.5" pointer-events="none"/>
                </g>
                <g id="dirArrow">
                        <path fill="none" stroke="white" stroke-width="1.5" d="M0,-3.0v7 M-2.5,-0.5L0,-3.0L2.5,-0.5"/>
                </g>
               <g id="resetDef">
                       <use xlink:href="#rim2" fill="#404040">
                               <set attributeName="fill" to="#808080" begin="reset.mouseover" end="reset.mouseout"/>
                       </use>
               </g>
        </defs>

<script type="text/javascript">
var viewWidth = 1233;
var viewHeight = 225;
var sectionId = 'dynsection-2';
</script>
<script xlink:href="svgpan.js"/>
<svg id="graph" class="graph">
<g id="viewport">
<title>koala.Range.parse_cell_address</title>
<polygon fill="white" stroke="none" points="-4,4 -4,-221 1229,-221 1229,4 -4,4"/>
<!-- Node22 -->
<g id="node1" class="node"><title>Node22</title>
<g id="a_node1"><a xlink:title=" ">
<polygon fill="#bfbfbf" stroke="black" points="1107,-98.5 1107,-128.5 1225,-128.5 1225,-98.5 1107,-98.5"/>
<text text-anchor="start" x="1115" y="-116.5" font-family="Helvetica,sans-Serif" font-size="10.00">koala.Range.parse_cell</text>
<text text-anchor="middle" x="1166" y="-105.5" font-family="Helvetica,sans-Serif" font-size="10.00">_address</text>
</a>
</g>
</g>
<!-- Node23 -->
<g id="node2" class="node"><title>Node23</title>
<g id="a_node2"><a xlink:href="namespacekoala_1_1ast.html#abb76e7037309a032effde5e5078a86e2" target="_top" xlink:title=" ">
<polygon fill="white" stroke="black" points="929.5,-148 929.5,-167 1030.5,-167 1030.5,-148 929.5,-148"/>
<text text-anchor="middle" x="980" y="-155" font-family="Helvetica,sans-Serif" font-size="10.00">koala.ast.cell2code</text>
</a>
</g>
</g>
<!-- Node22&#45;&gt;Node23 -->
<g id="edge1" class="edge"><title>Node22&#45;&gt;Node23</title>
<path fill="none" stroke="midnightblue" d="M1100.64,-131.09C1090.74,-133.66 1080.61,-136.209 1071,-138.5 1057.17,-141.795 1042.08,-145.096 1028.28,-148"/>
<polygon fill="midnightblue" stroke="midnightblue" points="1101.66,-134.442 1110.44,-128.522 1099.88,-127.67 1101.66,-134.442"/>
</g>
<!-- Node32 -->
<g id="node11" class="node"><title>Node32</title>
<g id="a_node11"><a xlink:href="namespacekoala_1_1ast.html#a3d0179539d74f2668d3917bf28d2edd8" target="_top" xlink:title=" ">
<polygon fill="white" stroke="black" points="917,-186 917,-205 1043,-205 1043,-186 917,-186"/>
<text text-anchor="middle" x="980" y="-193" font-family="Helvetica,sans-Serif" font-size="10.00">koala.ast.prepare_pointer</text>
</a>
</g>
</g>
<!-- Node22&#45;&gt;Node32 -->
<g id="edge10" class="edge"><title>Node22&#45;&gt;Node32</title>
<path fill="none" stroke="midnightblue" d="M1138.88,-135.01C1120.84,-148.821 1095.73,-166.065 1071,-176.5 1061.88,-180.349 1051.9,-183.448 1042,-185.934"/>
<polygon fill="midnightblue" stroke="midnightblue" points="1141.42,-137.47 1147.14,-128.55 1137.1,-131.957 1141.42,-137.47"/>
</g>
<!-- Node33 -->
<g id="node12" class="node"><title>Node33</title>
<g id="a_node12"><a xlink:href="classkoala_1_1_range_1_1_range_core.html#ac49ba3473e8bcd9585eedd4fa9603bf2" target="_top" xlink:title=" ">
<polygon fill="white" stroke="black" points="917.5,-98.5 917.5,-128.5 1042.5,-128.5 1042.5,-98.5 917.5,-98.5"/>
<text text-anchor="start" x="925.5" y="-116.5" font-family="Helvetica,sans-Serif" font-size="10.00">koala.Range.RangeCore.</text>
<text text-anchor="middle" x="980" y="-105.5" font-family="Helvetica,sans-Serif" font-size="10.00">__init__</text>
</a>
</g>
</g>
<!-- Node22&#45;&gt;Node33 -->
<g id="edge13" class="edge"><title>Node22&#45;&gt;Node33</title>
<path fill="none" stroke="midnightblue" d="M1096.54,-113.5C1078.87,-113.5 1059.95,-113.5 1042.65,-113.5"/>
<polygon fill="midnightblue" stroke="midnightblue" points="1096.78,-117 1106.78,-113.5 1096.78,-110 1096.78,-117"/>
</g>
<!-- Node34 -->
<g id="node13" class="node"><title>Node34</title>
<g id="a_node13"><a xlink:href="classkoala_1_1_spreadsheet_1_1_spreadsheet.html#a13c2cbec203d01d4d8404e3954dd27d7" target="_top" xlink:title=" ">
<polygon fill="white" stroke="black" points="889,-49.5 889,-79.5 1071,-79.5 1071,-49.5 889,-49.5"/>
<text text-anchor="start" x="897" y="-67.5" font-family="Helvetica,sans-Serif" font-size="10.00">koala.Spreadsheet.Spreadsheet.clean</text>
<text text-anchor="middle" x="980" y="-56.5" font-family="Helvetica,sans-Serif" font-size="10.00">_pointer</text>
</a>
</g>
</g>
<!-- Node22&#45;&gt;Node34 -->
<g id="edge14" class="edge"><title>Node22&#45;&gt;Node34</title>
<path fill="none" stroke="midnightblue" d="M1098.82,-95.8771C1078.69,-90.5163 1056.77,-84.6775 1037.35,-79.5062"/>
<polygon fill="midnightblue" stroke="midnightblue" points="1097.98,-99.2741 1108.54,-98.4654 1099.78,-92.5098 1097.98,-99.2741"/>
</g>
<!-- Node35 -->
<g id="node14" class="node"><title>Node35</title>
<g id="a_node14"><a xlink:href="classkoala_1_1_spreadsheet_1_1_spreadsheet.html#a6f233266d3e106c54dc37886dba18e9a" target="_top" xlink:title=" ">
<polygon fill="white" stroke="black" points="893.5,-0.5 893.5,-30.5 1066.5,-30.5 1066.5,-0.5 893.5,-0.5"/>
<text text-anchor="start" x="901.5" y="-18.5" font-family="Helvetica,sans-Serif" font-size="10.00">koala.Spreadsheet.Spreadsheet.find</text>
<text text-anchor="middle" x="980" y="-7.5" font-family="Helvetica,sans-Serif" font-size="10.00">_pointer_arguments</text>
</a>
</g>
</g>
<!-- Node22&#45;&gt;Node35 -->
<g id="edge15" class="edge"><title>Node22&#45;&gt;Node35</title>
<path fill="none" stroke="midnightblue" d="M1142.11,-91.0673C1124.13,-74.6059 1097.74,-52.8739 1071,-39.5 1064.2,-36.1003 1056.87,-33.1399 1049.42,-30.5722"/>
<polygon fill="midnightblue" stroke="midnightblue" points="1140.05,-93.9373 1149.75,-98.2109 1144.83,-88.8243 1140.05,-93.9373"/>
</g>
<!-- Node24 -->
<g id="node3" class="node"><title>Node24</title>
<g id="a_node3"><a xlink:href="namespacekoala_1_1ast.html#aa55446c8aa764f09775f006ee775ec7b" target="_top" xlink:title=" ">
<polygon fill="white" stroke="black" points="707,-142.5 707,-172.5 814,-172.5 814,-142.5 707,-142.5"/>
<text text-anchor="start" x="715" y="-160.5" font-family="Helvetica,sans-Serif" font-size="10.00">koala.ast.graph_from</text>
<text text-anchor="middle" x="760.5" y="-149.5" font-family="Helvetica,sans-Serif" font-size="10.00">_seeds</text>
</a>
</g>
</g>
<!-- Node23&#45;&gt;Node24 -->
<g id="edge2" class="edge"><title>Node23&#45;&gt;Node24</title>
<path fill="none" stroke="midnightblue" d="M919.006,-157.5C886.203,-157.5 845.937,-157.5 814.33,-157.5"/>
<polygon fill="midnightblue" stroke="midnightblue" points="919.374,-161 929.374,-157.5 919.374,-154 919.374,-161"/>
</g>
<!-- Node25 -->
<g id="node4" class="node"><title>Node25</title>
<g id="a_node4"><a xlink:href="classkoala_1_1_spreadsheet_1_1_spreadsheet.html#a80d6ad19a13ccd80ca76f3f94975f7b5" target="_top" xlink:title=" ">
<polygon fill="white" stroke="black" points="448,-186.5 448,-216.5 622,-216.5 622,-186.5 448,-186.5"/>
<text text-anchor="start" x="456" y="-204.5" font-family="Helvetica,sans-Serif" font-size="10.00">koala.Spreadsheet.Spreadsheet.gen</text>
<text text-anchor="middle" x="535" y="-193.5" font-family="Helvetica,sans-Serif" font-size="10.00">_graph</text>
</a>
</g>
</g>
<!-- Node24&#45;&gt;Node25 -->
<g id="edge3" class="edge"><title>Node24&#45;&gt;Node25</title>
<path fill="none" stroke="midnightblue" d="M697.002,-169.804C670.772,-174.968 640.018,-181.022 612.456,-186.448"/>
<polygon fill="midnightblue" stroke="midnightblue" points="697.681,-173.237 706.817,-167.872 696.329,-166.369 697.681,-173.237"/>
</g>
<!-- Node26 -->
<g id="node5" class="node"><title>Node26</title>
<g id="a_node5"><a xlink:href="classkoala_1_1_spreadsheet_1_1_spreadsheet.html#affd17089825c4b3391c4d6b9b702209c" target="_top" xlink:title=" ">
<polygon fill="white" stroke="black" points="438,-148 438,-167 632,-167 632,-148 438,-148"/>
<text text-anchor="middle" x="535" y="-155" font-family="Helvetica,sans-Serif" font-size="10.00">koala.Spreadsheet.Spreadsheet.cell_add</text>
</a>
</g>
</g>
<!-- Node24&#45;&gt;Node26 -->
<g id="edge4" class="edge"><title>Node24&#45;&gt;Node26</title>
<path fill="none" stroke="midnightblue" d="M696.601,-157.5C676.576,-157.5 653.946,-157.5 632.126,-157.5"/>
<polygon fill="midnightblue" stroke="midnightblue" points="696.817,-161 706.817,-157.5 696.817,-154 696.817,-161"/>
</g>
<!-- Node30 -->
<g id="node9" class="node"><title>Node30</title>
<g id="a_node9"><a xlink:href="classkoala_1_1_spreadsheet_1_1_spreadsheet.html#aa7bdaffc24c26fbf18d5b752b7e49df2" target="_top" xlink:title=" ">
<polygon fill="white" stroke="black" points="448.5,-95.5 448.5,-125.5 621.5,-125.5 621.5,-95.5 448.5,-95.5"/>
<text text-anchor="start" x="456.5" y="-113.5" font-family="Helvetica,sans-Serif" font-size="10.00">koala.Spreadsheet.Spreadsheet.cell</text>
<text text-anchor="middle" x="535" y="-102.5" font-family="Helvetica,sans-Serif" font-size="10.00">_set_formula</text>
</a>
</g>
</g>
<!-- Node24&#45;&gt;Node30 -->
<g id="edge8" class="edge"><title>Node24&#45;&gt;Node30</title>
<path fill="none" stroke="midnightblue" d="M696.814,-144.318C668.996,-138.468 636.117,-131.554 607.361,-125.507"/>
<polygon fill="midnightblue" stroke="midnightblue" points="696.31,-147.788 706.817,-146.421 697.751,-140.938 696.31,-147.788"/>
</g>
<!-- Node27 -->
<g id="node6" class="node"><title>Node27</title>
<g id="a_node6"><a xlink:href="classkoala_1_1_spreadsheet_1_1_spreadsheet.html#a7481e9d34fe1d4347b3b6eed3462b545" target="_top" xlink:title=" ">
<polygon fill="white" stroke="black" points="208,-192 208,-211 402,-211 402,-192 208,-192"/>
<text text-anchor="middle" x="305" y="-199" font-family="Helvetica,sans-Serif" font-size="10.00">koala.Spreadsheet.Spreadsheet.add_cell</text>
</a>
</g>
</g>
<!-- Node26&#45;&gt;Node27 -->
<g id="edge5" class="edge"><title>Node26&#45;&gt;Node27</title>
<path fill="none" stroke="midnightblue" d="M474.366,-169.008C437.335,-176.155 390.311,-185.23 355.376,-191.971"/>
<polygon fill="midnightblue" stroke="midnightblue" points="475.372,-172.379 484.527,-167.047 474.045,-165.506 475.372,-172.379"/>
</g>
<!-- Node28 -->
<g id="node7" class="node"><title>Node28</title>
<g id="a_node7"><a xlink:href="classkoala_1_1_spreadsheet_1_1_spreadsheet.html#a2f695c5a3bc3f8812609bd2ba4ebb784" target="_top" xlink:title=" ">
<polygon fill="white" stroke="black" points="218.5,-142.5 218.5,-172.5 391.5,-172.5 391.5,-142.5 218.5,-142.5"/>
<text text-anchor="start" x="226.5" y="-160.5" font-family="Helvetica,sans-Serif" font-size="10.00">koala.Spreadsheet.Spreadsheet.cell</text>
<text text-anchor="middle" x="305" y="-149.5" font-family="Helvetica,sans-Serif" font-size="10.00">_set_value</text>
</a>
</g>
</g>
<!-- Node26&#45;&gt;Node28 -->
<g id="edge6" class="edge"><title>Node26&#45;&gt;Node28</title>
<path fill="none" stroke="midnightblue" d="M427.853,-157.5C415.764,-157.5 403.557,-157.5 391.778,-157.5"/>
<polygon fill="midnightblue" stroke="midnightblue" points="427.968,-161 437.968,-157.5 427.968,-154 427.968,-161"/>
</g>
<!-- Node29 -->
<g id="node8" class="node"><title>Node29</title>
<g id="a_node8"><a xlink:href="classkoala_1_1_spreadsheet_1_1_spreadsheet.html#a1330ffeda88c7bc6905a00e80203eb78" target="_top" xlink:title=" ">
<polygon fill="white" stroke="black" points="0,-142.5 0,-172.5 172,-172.5 172,-142.5 0,-142.5"/>
<text text-anchor="start" x="8" y="-160.5" font-family="Helvetica,sans-Serif" font-size="10.00">koala.Spreadsheet.Spreadsheet.set</text>
<text text-anchor="middle" x="86" y="-149.5" font-family="Helvetica,sans-Serif" font-size="10.00">_value</text>
</a>
</g>
</g>
<!-- Node28&#45;&gt;Node29 -->
<g id="edge7" class="edge"><title>Node28&#45;&gt;Node29</title>
<path fill="none" stroke="midnightblue" d="M208.209,-157.5C196.197,-157.5 183.975,-157.5 172.141,-157.5"/>
<polygon fill="midnightblue" stroke="midnightblue" points="208.236,-161 218.236,-157.5 208.236,-154 208.236,-161"/>
</g>
<!-- Node31 -->
<g id="node10" class="node"><title>Node31</title>
<g id="a_node10"><a xlink:href="classkoala_1_1_spreadsheet_1_1_spreadsheet.html#af50724d01ff5b3ae09ecc1bdfbfb0fed" target="_top" xlink:title=" ">
<polygon fill="white" stroke="black" points="219,-93.5 219,-123.5 391,-123.5 391,-93.5 219,-93.5"/>
<text text-anchor="start" x="227" y="-111.5" font-family="Helvetica,sans-Serif" font-size="10.00">koala.Spreadsheet.Spreadsheet.set</text>
<text text-anchor="middle" x="305" y="-100.5" font-family="Helvetica,sans-Serif" font-size="10.00">_formula</text>
</a>
</g>
</g>
<!-- Node30&#45;&gt;Node31 -->
<g id="edge9" class="edge"><title>Node30&#45;&gt;Node31</title>
<path fill="none" stroke="midnightblue" d="M438.278,-109.66C422.674,-109.523 406.6,-109.382 391.269,-109.248"/>
<polygon fill="midnightblue" stroke="midnightblue" points="438.422,-113.162 448.453,-109.75 438.484,-106.162 438.422,-113.162"/>
</g>
<!-- Node32&#45;&gt;Node24 -->
<g id="edge11" class="edge"><title>Node32&#45;&gt;Node24</title>
<path fill="none" stroke="midnightblue" d="M914.267,-184.19C882.356,-178.615 844.363,-171.977 814.248,-166.716"/>
<polygon fill="midnightblue" stroke="midnightblue" points="913.943,-187.687 924.396,-185.96 915.148,-180.791 913.943,-187.687"/>
</g>
<!-- Node32&#45;&gt;Node25 -->
<g id="edge12" class="edge"><title>Node32&#45;&gt;Node25</title>
<path fill="none" stroke="midnightblue" d="M906.743,-196.479C828.949,-197.532 705.232,-199.208 622.362,-200.33"/>
<polygon fill="midnightblue" stroke="midnightblue" points="906.985,-199.976 916.936,-196.341 906.89,-192.976 906.985,-199.976"/>
</g>
<!-- Node36 -->
<g id="node15" class="node"><title>Node36</title>
<g id="a_node15"><a xlink:href="classkoala_1_1_spreadsheet_1_1_spreadsheet.html#a988fc1ddf090bf9746135ce759907a5a" target="_top" xlink:title=" ">
<polygon fill="white" stroke="black" points="668,-0.5 668,-30.5 853,-30.5 853,-0.5 668,-0.5"/>
<text text-anchor="start" x="676" y="-18.5" font-family="Helvetica,sans-Serif" font-size="10.00">koala.Spreadsheet.Spreadsheet.detect</text>
<text text-anchor="middle" x="760.5" y="-7.5" font-family="Helvetica,sans-Serif" font-size="10.00">_alive</text>
</a>
</g>
</g>
<!-- Node35&#45;&gt;Node36 -->
<g id="edge16" class="edge"><title>Node35&#45;&gt;Node36</title>
<path fill="none" stroke="midnightblue" d="M883.064,-15.5C873.129,-15.5 863.05,-15.5 853.164,-15.5"/>
<polygon fill="midnightblue" stroke="midnightblue" points="883.35,-19.0001 893.35,-15.5 883.35,-12.0001 883.35,-19.0001"/>
</g>
</g>
</svg>
        <g id="navigator" transform="translate(0 0)" fill="#404254">
                <rect fill="#f2f5e9" fill-opacity="0.5" stroke="#606060" stroke-width=".5" x="0" y="0" width="60" height="60"/>
                <use id="zoomplus" xlink:href="#zoomPlus" x="17" y="9" onmousedown="handleZoom(evt,'in')"/>
                <use id="zoomminus" xlink:href="#zoomMin" x="42" y="9" onmousedown="handleZoom(evt,'out')"/>
                <use id="reset" xlink:href="#resetDef" x="30" y="36" onmousedown="handleReset()"/>
                <g id="arrowUp" xlink:href="#dirArrow" transform="translate(30 24)" onmousedown="handlePan(0,-1)">
                  <use xlink:href="#rim" fill="#404040">
                        <set attributeName="fill" to="#808080" begin="arrowUp.mouseover" end="arrowUp.mouseout"/>
                  </use>
                  <path fill="none" stroke="white" stroke-width="1.5" d="M0,-3.0v7 M-2.5,-0.5L0,-3.0L2.5,-0.5"/>
                </g>
                <g id="arrowRight" xlink:href="#dirArrow" transform="rotate(90) translate(36 -43)" onmousedown="handlePan(1,0)">
                  <use xlink:href="#rim" fill="#404040">
                        <set attributeName="fill" to="#808080" begin="arrowRight.mouseover" end="arrowRight.mouseout"/>
                  </use>
                  <path fill="none" stroke="white" stroke-width="1.5" d="M0,-3.0v7 M-2.5,-0.5L0,-3.0L2.5,-0.5"/>
                </g>
                <g id="arrowDown" xlink:href="#dirArrow" transform="rotate(180) translate(-30 -48)" onmousedown="handlePan(0,1)">
                  <use xlink:href="#rim" fill="#404040">
                        <set attributeName="fill" to="#808080" begin="arrowDown.mouseover" end="arrowDown.mouseout"/>
                  </use>
                  <path fill="none" stroke="white" stroke-width="1.5" d="M0,-3.0v7 M-2.5,-0.5L0,-3.0L2.5,-0.5"/>
                </g>
                <g id="arrowLeft" xlink:href="#dirArrow" transform="rotate(270) translate(-36 17)" onmousedown="handlePan(-1,0)">
                  <use xlink:href="#rim" fill="#404040">
                        <set attributeName="fill" to="#808080" begin="arrowLeft.mouseover" end="arrowLeft.mouseout"/>
                  </use>
                  <path fill="none" stroke="white" stroke-width="1.5" d="M0,-3.0v7 M-2.5,-0.5L0,-3.0L2.5,-0.5"/>
                </g>
        </g>
        <svg viewBox="0 0 15 15" width="100%" height="30px" preserveAspectRatio="xMaxYMin meet">
         <g id="arrow_out" transform="scale(0.3 0.3)">
          <a xlink:href="namespacekoala_1_1_range_a6a4a2138705cb8cc069ddf925e74d2c1_icgraph_org.svg" target="_base">
           <rect id="button" ry="5" rx="5" y="6" x="6" height="38" width="38"
                fill="#f2f5e9" fill-opacity="0.5" stroke="#606060" stroke-width="1.0"/>
           <path id="arrow"
             d="M 11.500037,31.436501 C 11.940474,20.09759 22.043105,11.32322 32.158766,21.979434 L 37.068811,17.246167 C 37.068811,17.246167 37.088388,32 37.088388,32 L 22.160133,31.978069 C 22.160133,31.978069 26.997745,27.140456 26.997745,27.140456 C 18.528582,18.264221 13.291696,25.230495 11.500037,31.436501 z"
             style="fill:#404040;"/>
          </a>
         </g>
        </svg>
</svg>
