<?xml version="1.0" encoding="UTF-8" standalone="no"?>
<!DOCTYPE svg PUBLIC "-//W3C//DTD SVG 1.1//EN"
 "http://www.w3.org/Graphics/SVG/1.1/DTD/svg11.dtd">
<!-- Generated by graphviz version 2.38.0 (20140413.2041)
 -->
<!-- Title: koala.utils.normalize_year Pages: 1 -->
<svg width="575pt" height="72pt"
 viewBox="0.00 0.00 575.00 71.50" xmlns="http://www.w3.org/2000/svg" xmlns:xlink="http://www.w3.org/1999/xlink">
<g id="graph0" class="graph" transform="scale(1 1) rotate(0) translate(4 67.5)">
<title>koala.utils.normalize_year</title>
<polygon fill="white" stroke="none" points="-4,4 -4,-67.5 571,-67.5 571,4 -4,4"/>
<!-- Node197 -->
<g id="node1" class="node"><title>Node197</title>
<g id="a_node1"><a xlink:title=" ">
<polygon fill="#bfbfbf" stroke="black" points="0,-16.5 0,-35.5 130,-35.5 130,-16.5 0,-16.5"/>
<text text-anchor="middle" x="65" y="-23.5" font-family="Helvetica,sans-Serif" font-size="10.00">koala.utils.normalize_year</text>
</a>
</g>
</g>
<!-- Node198 -->
<g id="node2" class="node"><title>Node198</title>
<g id="a_node2"><a xlink:href="namespacekoala_1_1utils.html#a6ca2acad4db5fefe21c0941c1622f5e4" target="_top" xlink:title=" ">
<polygon fill="white" stroke="black" points="166,-33 166,-63 267,-63 267,-33 166,-33"/>
<text text-anchor="start" x="174" y="-51" font-family="Helvetica,sans-Serif" font-size="10.00">koala.utils.get_max</text>
<text text-anchor="middle" x="216.5" y="-40" font-family="Helvetica,sans-Serif" font-size="10.00">_days_in_month</text>
</a>
</g>
</g>
<!-- Node197&#45;&gt;Node198 -->
<g id="edge1" class="edge"><title>Node197&#45;&gt;Node198</title>
<path fill="none" stroke="midnightblue" d="M130.269,-35.4577C138.709,-36.6996 147.33,-37.9683 155.691,-39.1987"/>
<polygon fill="midnightblue" stroke="midnightblue" points="155.329,-42.683 165.732,-40.6762 156.348,-35.7575 155.329,-42.683"/>
</g>
<!-- Node200 -->
<g id="node4" class="node"><title>Node200</title>
<g id="a_node4"><a xlink:href="namespacekoala_1_1utils.html#aa5132ee97ef859e71f955428648f3359" target="_top" xlink:title=" ">
<polygon fill="white" stroke="black" points="303,-0.5 303,-19.5 422,-19.5 422,-0.5 303,-0.5"/>
<text text-anchor="middle" x="362.5" y="-7.5" font-family="Helvetica,sans-Serif" font-size="10.00">koala.utils.is_leap_year</text>
</a>
</g>
</g>
<!-- Node197&#45;&gt;Node200 -->
<g id="edge5" class="edge"><title>Node197&#45;&gt;Node200</title>
<path fill="none" stroke="midnightblue" d="M130.119,-22.5282C177.978,-19.9369 243.292,-16.4004 292.324,-13.7456"/>
<polygon fill="midnightblue" stroke="midnightblue" points="292.732,-17.2287 302.528,-13.1931 292.353,-10.239 292.732,-17.2287"/>
</g>
<!-- Node199 -->
<g id="node3" class="node"><title>Node199</title>
<g id="a_node3"><a xlink:href="namespacekoala_1_1utils.html#af016160edea2b46cb26db3ed307c9648" target="_top" xlink:title=" ">
<polygon fill="white" stroke="black" points="458,-19.5 458,-38.5 567,-38.5 567,-19.5 458,-19.5"/>
<text text-anchor="middle" x="512.5" y="-26.5" font-family="Helvetica,sans-Serif" font-size="10.00">koala.utils.is_number</text>
</a>
</g>
</g>
<!-- Node198&#45;&gt;Node199 -->
<g id="edge2" class="edge"><title>Node198&#45;&gt;Node199</title>
<path fill="none" stroke="midnightblue" d="M267.041,-44.7984C316.699,-41.5892 393.362,-36.6348 447.578,-33.131"/>
<polygon fill="midnightblue" stroke="midnightblue" points="448.014,-36.6102 457.768,-32.4725 447.563,-29.6248 448.014,-36.6102"/>
</g>
<!-- Node198&#45;&gt;Node200 -->
<g id="edge3" class="edge"><title>Node198&#45;&gt;Node200</title>
<path fill="none" stroke="midnightblue" d="M267.057,-34.9226C282.807,-30.7663 300.148,-26.19 315.627,-22.1054"/>
<polygon fill="midnightblue" stroke="midnightblue" points="316.718,-25.4375 325.494,-19.5017 314.932,-18.6692 316.718,-25.4375"/>
</g>
<!-- Node200&#45;&gt;Node199 -->
<g id="edge4" class="edge"><title>Node200&#45;&gt;Node199</title>
<path fill="none" stroke="midnightblue" d="M422.419,-17.5639C430.671,-18.6233 439.185,-19.7163 447.526,-20.7871"/>
<polygon fill="midnightblue" stroke="midnightblue" points="447.22,-24.2765 457.584,-22.0784 448.112,-17.3335 447.22,-24.2765"/>
</g>
</g>
</svg>
