<?xml version="1.0" encoding="UTF-8" standalone="no"?>
<!DOCTYPE svg PUBLIC "-//W3C//DTD SVG 1.1//EN"
 "http://www.w3.org/Graphics/SVG/1.1/DTD/svg11.dtd">
<!-- Generated by graphviz version 2.38.0 (20140413.2041)
 -->
<!-- Title: koala.Range.get_cell_address Pages: 1 -->
<svg width="1026pt" height="78pt"
 viewBox="0.00 0.00 1026.00 77.50" xmlns="http://www.w3.org/2000/svg" xmlns:xlink="http://www.w3.org/1999/xlink">
<g id="graph0" class="graph" transform="scale(1 1) rotate(0) translate(4 73.5)">
<title>koala.Range.get_cell_address</title>
<polygon fill="white" stroke="none" points="-4,4 -4,-73.5 1022,-73.5 1022,4 -4,4"/>
<!-- Node15 -->
<g id="node1" class="node"><title>Node15</title>
<g id="a_node1"><a xlink:title=" ">
<polygon fill="#bfbfbf" stroke="black" points="911,-22.5 911,-52.5 1018,-52.5 1018,-22.5 911,-22.5"/>
<text text-anchor="start" x="919" y="-40.5" font-family="Helvetica,sans-Serif" font-size="10.00">koala.Range.get_cell</text>
<text text-anchor="middle" x="964.5" y="-29.5" font-family="Helvetica,sans-Serif" font-size="10.00">_address</text>
</a>
</g>
</g>
<!-- Node16 -->
<g id="node2" class="node"><title>Node16</title>
<g id="a_node2"><a xlink:href="classkoala_1_1_range_1_1_range_core.html#a0ef0d47a2c8903280c6b5dfdd82eb7b6" target="_top" xlink:title=" ">
<polygon fill="white" stroke="black" points="712,-50 712,-69 850,-69 850,-50 712,-50"/>
<text text-anchor="middle" x="781" y="-57" font-family="Helvetica,sans-Serif" font-size="10.00">koala.Range.RangeCore.get</text>
</a>
</g>
</g>
<!-- Node15&#45;&gt;Node16 -->
<g id="edge1" class="edge"><title>Node15&#45;&gt;Node16</title>
<path fill="none" stroke="midnightblue" d="M900.131,-45.1811C884.013,-47.1348 866.624,-49.2425 850.274,-51.2244"/>
<polygon fill="midnightblue" stroke="midnightblue" points="901.009,-48.6004 910.515,-43.9225 900.166,-41.6513 901.009,-48.6004"/>
</g>
<!-- Node17 -->
<g id="node3" class="node"><title>Node17</title>
<g id="a_node3"><a xlink:href="classkoala_1_1_spreadsheet_1_1_spreadsheet.html#ae7cc9bec504371c4034626c20eef4271" target="_top" xlink:title=" ">
<polygon fill="white" stroke="black" points="687,-0.5 687,-30.5 875,-30.5 875,-0.5 687,-0.5"/>
<text text-anchor="start" x="695" y="-18.5" font-family="Helvetica,sans-Serif" font-size="10.00">koala.Spreadsheet.Spreadsheet.update</text>
<text text-anchor="middle" x="781" y="-7.5" font-family="Helvetica,sans-Serif" font-size="10.00">_range</text>
</a>
</g>
</g>
<!-- Node15&#45;&gt;Node17 -->
<g id="edge2" class="edge"><title>Node15&#45;&gt;Node17</title>
<path fill="none" stroke="midnightblue" d="M900.32,-29.8418C892.113,-28.847 883.573,-27.8119 875.007,-26.7735"/>
<polygon fill="midnightblue" stroke="midnightblue" points="900.166,-33.3487 910.515,-31.0775 901.009,-26.3996 900.166,-33.3487"/>
</g>
<!-- Node18 -->
<g id="node4" class="node"><title>Node18</title>
<g id="a_node4"><a xlink:href="classkoala_1_1_spreadsheet_1_1_spreadsheet.html#a5123890c167cf3b1e9e070886d635e74" target="_top" xlink:title=" ">
<polygon fill="white" stroke="black" points="460,-6 460,-25 651,-25 651,-6 460,-6"/>
<text text-anchor="middle" x="555.5" y="-13" font-family="Helvetica,sans-Serif" font-size="10.00">koala.Spreadsheet.Spreadsheet.eval_ref</text>
</a>
</g>
</g>
<!-- Node17&#45;&gt;Node18 -->
<g id="edge3" class="edge"><title>Node17&#45;&gt;Node18</title>
<path fill="none" stroke="midnightblue" d="M676.598,-15.5C668.169,-15.5 659.676,-15.5 651.313,-15.5"/>
<polygon fill="midnightblue" stroke="midnightblue" points="676.834,-19.0001 686.834,-15.5 676.834,-12.0001 676.834,-19.0001"/>
</g>
<!-- Node19 -->
<g id="node5" class="node"><title>Node19</title>
<g id="a_node5"><a xlink:href="classkoala_1_1_spreadsheet_1_1_spreadsheet.html#ab55daaddb95ae9af8b490dabebf22092" target="_top" xlink:title=" ">
<polygon fill="white" stroke="black" points="230,-6 230,-25 424,-25 424,-6 230,-6"/>
<text text-anchor="middle" x="327" y="-13" font-family="Helvetica,sans-Serif" font-size="10.00">koala.Spreadsheet.Spreadsheet.cell_free</text>
</a>
</g>
</g>
<!-- Node18&#45;&gt;Node19 -->
<g id="edge4" class="edge"><title>Node18&#45;&gt;Node19</title>
<path fill="none" stroke="midnightblue" d="M449.503,-15.5C441.062,-15.5 432.56,-15.5 424.185,-15.5"/>
<polygon fill="midnightblue" stroke="midnightblue" points="449.756,-19.0001 459.756,-15.5 449.756,-12.0001 449.756,-19.0001"/>
</g>
<!-- Node20 -->
<g id="node6" class="node"><title>Node20</title>
<g id="a_node6"><a xlink:href="classkoala_1_1_spreadsheet_1_1_spreadsheet.html#aebac3e8edbd3df53d783fd229aa95cf4" target="_top" xlink:title=" ">
<polygon fill="white" stroke="black" points="0,-6 0,-25 194,-25 194,-6 0,-6"/>
<text text-anchor="middle" x="97" y="-13" font-family="Helvetica,sans-Serif" font-size="10.00">koala.Spreadsheet.Spreadsheet.free_cell</text>
</a>
</g>
</g>
<!-- Node19&#45;&gt;Node20 -->
<g id="edge5" class="edge"><title>Node19&#45;&gt;Node20</title>
<path fill="none" stroke="midnightblue" d="M219.957,-15.5C211.395,-15.5 202.773,-15.5 194.286,-15.5"/>
<polygon fill="midnightblue" stroke="midnightblue" points="219.968,-19.0001 229.968,-15.5 219.968,-12.0001 219.968,-19.0001"/>
</g>
</g>
</svg>
