<?xml version="1.0" encoding="UTF-8" standalone="no"?>
<!DOCTYPE svg PUBLIC "-//W3C//DTD SVG 1.1//EN"
 "http://www.w3.org/Graphics/SVG/1.1/DTD/svg11.dtd">
<!-- Generated by graphviz version 2.38.0 (20140413.2041)
 -->
<!-- Title: koala.utils.flatten Pages: 1 -->
<svg width="1165pt" height="464pt"
 viewBox="0.00 0.00 1165.00 463.50" xmlns="http://www.w3.org/2000/svg" xmlns:xlink="http://www.w3.org/1999/xlink">
<g id="graph0" class="graph" transform="scale(1 1) rotate(0) translate(4 459.5)">
<title>koala.utils.flatten</title>
<polygon fill="white" stroke="none" points="-4,4 -4,-459.5 1161,-459.5 1161,4 -4,4"/>
<!-- Node55 -->
<g id="node1" class="node"><title>Node55</title>
<g id="a_node1"><a xlink:title=" ">
<polygon fill="#bfbfbf" stroke="black" points="1067,-316 1067,-335 1157,-335 1157,-316 1067,-316"/>
<text text-anchor="middle" x="1112" y="-323" font-family="Helvetica,sans-Serif" font-size="10.00">koala.utils.flatten</text>
</a>
</g>
</g>
<!-- Node56 -->
<g id="node2" class="node"><title>Node56</title>
<g id="a_node2"><a xlink:href="namespacekoala_1_1excellib.html#af7346e1c78e8d155e009419f8fbc40cf" target="_top" xlink:title=" ">
<polygon fill="white" stroke="black" points="895,-436 895,-455 992,-455 992,-436 895,-436"/>
<text text-anchor="middle" x="943.5" y="-443" font-family="Helvetica,sans-Serif" font-size="10.00">koala.excellib.xlog</text>
</a>
</g>
</g>
<!-- Node55&#45;&gt;Node56 -->
<g id="edge1" class="edge"><title>Node55&#45;&gt;Node56</title>
<path fill="none" stroke="midnightblue" d="M1100.64,-343.668C1087.31,-365.415 1062.12,-401.407 1031,-421.5 1019.35,-429.024 1005.34,-434.217 992.029,-437.791"/>
<polygon fill="midnightblue" stroke="midnightblue" points="1103.67,-345.432 1105.76,-335.047 1097.65,-341.858 1103.67,-345.432"/>
</g>
<!-- Node57 -->
<g id="node3" class="node"><title>Node57</title>
<g id="a_node3"><a xlink:href="namespacekoala_1_1excellib.html#a57dca05f5a67dc67a01edf5344f18466" target="_top" xlink:title=" ">
<polygon fill="white" stroke="black" points="675,-379 675,-398 783,-398 783,-379 675,-379"/>
<text text-anchor="middle" x="729" y="-386" font-family="Helvetica,sans-Serif" font-size="10.00">koala.excellib.concat</text>
</a>
</g>
</g>
<!-- Node55&#45;&gt;Node57 -->
<g id="edge2" class="edge"><title>Node55&#45;&gt;Node57</title>
<path fill="none" stroke="midnightblue" d="M1096.04,-342.493C1081.28,-357.863 1057.17,-379.431 1031,-388.5 946.071,-417.926 839.389,-407.811 778.523,-398.005"/>
<polygon fill="midnightblue" stroke="midnightblue" points="1098.64,-344.835 1102.87,-335.12 1093.51,-340.078 1098.64,-344.835"/>
</g>
<!-- Node58 -->
<g id="node4" class="node"><title>Node58</title>
<g id="a_node4"><a xlink:href="namespacekoala_1_1excellib.html#a256079d2d18ead40b358e73933d58c6d" target="_top" xlink:title=" ">
<polygon fill="white" stroke="black" points="877.5,-360 877.5,-379 1009.5,-379 1009.5,-360 877.5,-360"/>
<text text-anchor="middle" x="943.5" y="-367" font-family="Helvetica,sans-Serif" font-size="10.00">koala.excellib.concatenate</text>
</a>
</g>
</g>
<!-- Node55&#45;&gt;Node58 -->
<g id="edge3" class="edge"><title>Node55&#45;&gt;Node58</title>
<path fill="none" stroke="midnightblue" d="M1072.95,-338.13C1059.74,-342.317 1044.78,-346.84 1031,-350.5 1018.22,-353.894 1004.26,-357.151 991.366,-359.982"/>
<polygon fill="midnightblue" stroke="midnightblue" points="1074.21,-341.401 1082.66,-335.013 1072.07,-334.736 1074.21,-341.401"/>
</g>
<!-- Node59 -->
<g id="node5" class="node"><title>Node59</title>
<g id="a_node5"><a xlink:href="classkoala_1_1_spreadsheet_1_1_spreadsheet.html#a80d6ad19a13ccd80ca76f3f94975f7b5" target="_top" xlink:title=" ">
<polygon fill="white" stroke="black" points="856.5,-310.5 856.5,-340.5 1030.5,-340.5 1030.5,-310.5 856.5,-310.5"/>
<text text-anchor="start" x="864.5" y="-328.5" font-family="Helvetica,sans-Serif" font-size="10.00">koala.Spreadsheet.Spreadsheet.gen</text>
<text text-anchor="middle" x="943.5" y="-317.5" font-family="Helvetica,sans-Serif" font-size="10.00">_graph</text>
</a>
</g>
</g>
<!-- Node55&#45;&gt;Node59 -->
<g id="edge5" class="edge"><title>Node55&#45;&gt;Node59</title>
<path fill="none" stroke="midnightblue" d="M1056.57,-325.5C1048.28,-325.5 1039.55,-325.5 1030.77,-325.5"/>
<polygon fill="midnightblue" stroke="midnightblue" points="1056.82,-329 1066.82,-325.5 1056.82,-322 1056.82,-329"/>
</g>
<!-- Node60 -->
<g id="node6" class="node"><title>Node60</title>
<g id="a_node6"><a xlink:href="classkoala_1_1_spreadsheet_1_1_spreadsheet.html#af4c45ee9335aadc10ba61c0db30a33b2" target="_top" xlink:title=" ">
<polygon fill="white" stroke="black" points="856,-243.5 856,-273.5 1031,-273.5 1031,-243.5 856,-243.5"/>
<text text-anchor="start" x="864" y="-261.5" font-family="Helvetica,sans-Serif" font-size="10.00">koala.Spreadsheet.Spreadsheet.eval</text>
<text text-anchor="middle" x="943.5" y="-250.5" font-family="Helvetica,sans-Serif" font-size="10.00">_pointers_from_ast</text>
</a>
</g>
</g>
<!-- Node55&#45;&gt;Node60 -->
<g id="edge6" class="edge"><title>Node55&#45;&gt;Node60</title>
<path fill="none" stroke="midnightblue" d="M1077.51,-312.023C1049.82,-300.881 1010.53,-285.07 981.83,-273.522"/>
<polygon fill="midnightblue" stroke="midnightblue" points="1076.56,-315.414 1087.14,-315.901 1079.17,-308.92 1076.56,-315.414"/>
</g>
<!-- Node62 -->
<g id="node8" class="node"><title>Node62</title>
<g id="a_node8"><a xlink:href="classkoala_1_1_spreadsheet_1_1_spreadsheet.html#a6f233266d3e106c54dc37886dba18e9a" target="_top" xlink:title=" ">
<polygon fill="white" stroke="black" points="221,-134.5 221,-164.5 394,-164.5 394,-134.5 221,-134.5"/>
<text text-anchor="start" x="229" y="-152.5" font-family="Helvetica,sans-Serif" font-size="10.00">koala.Spreadsheet.Spreadsheet.find</text>
<text text-anchor="middle" x="307.5" y="-141.5" font-family="Helvetica,sans-Serif" font-size="10.00">_pointer_arguments</text>
</a>
</g>
</g>
<!-- Node55&#45;&gt;Node62 -->
<g id="edge9" class="edge"><title>Node55&#45;&gt;Node62</title>
<path fill="none" stroke="midnightblue" d="M1100.8,-306.909C1087.75,-285.156 1062.96,-250.017 1031,-233.5 953.033,-193.208 725.159,-204.773 638,-194.5 555.002,-184.718 460.518,-171.611 394.073,-162.066"/>
<polygon fill="midnightblue" stroke="midnightblue" points="1097.92,-308.932 1105.95,-315.847 1103.99,-305.435 1097.92,-308.932"/>
</g>
<!-- Node64 -->
<g id="node10" class="node"><title>Node64</title>
<g id="a_node10"><a xlink:href="namespacekoala_1_1utils.html#a1d3620df245d23fea05928298cabc2ac" target="_top" xlink:title=" ">
<polygon fill="white" stroke="black" points="896.5,-111.5 896.5,-141.5 990.5,-141.5 990.5,-111.5 896.5,-111.5"/>
<text text-anchor="start" x="904.5" y="-129.5" font-family="Helvetica,sans-Serif" font-size="10.00">koala.utils.resolve</text>
<text text-anchor="middle" x="943.5" y="-118.5" font-family="Helvetica,sans-Serif" font-size="10.00">_range</text>
</a>
</g>
</g>
<!-- Node55&#45;&gt;Node64 -->
<g id="edge11" class="edge"><title>Node55&#45;&gt;Node64</title>
<path fill="none" stroke="midnightblue" d="M1101.3,-306.774C1087.59,-281.256 1060.87,-234.814 1031,-200.5 1011.15,-177.692 984.128,-155.715 965.599,-141.722"/>
<polygon fill="midnightblue" stroke="midnightblue" points="1098.28,-308.549 1106.05,-315.752 1104.47,-305.276 1098.28,-308.549"/>
</g>
<!-- Node58&#45;&gt;Node57 -->
<g id="edge4" class="edge"><title>Node58&#45;&gt;Node57</title>
<path fill="none" stroke="midnightblue" d="M867.24,-376.229C839.515,-378.708 808.706,-381.463 783.314,-383.733"/>
<polygon fill="midnightblue" stroke="midnightblue" points="867.65,-379.706 877.299,-375.33 867.027,-372.734 867.65,-379.706"/>
</g>
<!-- Node60&#45;&gt;Node60 -->
<g id="edge8" class="edge"><title>Node60&#45;&gt;Node60</title>
<path fill="none" stroke="midnightblue" d="M973.352,-283.958C969.647,-288.679 959.696,-292 943.5,-292 916.922,-292 907.163,-283.057 914.223,-273.659"/>
<polygon fill="midnightblue" stroke="midnightblue" points="976.829,-283.449 972.777,-273.659 969.84,-283.838 976.829,-283.449"/>
</g>
<!-- Node61 -->
<g id="node7" class="node"><title>Node61</title>
<g id="a_node7"><a xlink:href="classkoala_1_1_spreadsheet_1_1_spreadsheet.html#a13c2cbec203d01d4d8404e3954dd27d7" target="_top" xlink:title=" ">
<polygon fill="white" stroke="black" points="638,-243.5 638,-273.5 820,-273.5 820,-243.5 638,-243.5"/>
<text text-anchor="start" x="646" y="-261.5" font-family="Helvetica,sans-Serif" font-size="10.00">koala.Spreadsheet.Spreadsheet.clean</text>
<text text-anchor="middle" x="729" y="-250.5" font-family="Helvetica,sans-Serif" font-size="10.00">_pointer</text>
</a>
</g>
</g>
<!-- Node60&#45;&gt;Node61 -->
<g id="edge7" class="edge"><title>Node60&#45;&gt;Node61</title>
<path fill="none" stroke="midnightblue" d="M845.543,-258.5C837.122,-258.5 828.622,-258.5 820.258,-258.5"/>
<polygon fill="midnightblue" stroke="midnightblue" points="845.762,-262 855.762,-258.5 845.762,-255 845.762,-262"/>
</g>
<!-- Node63 -->
<g id="node9" class="node"><title>Node63</title>
<g id="a_node9"><a xlink:href="classkoala_1_1_spreadsheet_1_1_spreadsheet.html#a988fc1ddf090bf9746135ce759907a5a" target="_top" xlink:title=" ">
<polygon fill="white" stroke="black" points="0,-134.5 0,-164.5 185,-164.5 185,-134.5 0,-134.5"/>
<text text-anchor="start" x="8" y="-152.5" font-family="Helvetica,sans-Serif" font-size="10.00">koala.Spreadsheet.Spreadsheet.detect</text>
<text text-anchor="middle" x="92.5" y="-141.5" font-family="Helvetica,sans-Serif" font-size="10.00">_alive</text>
</a>
</g>
</g>
<!-- Node62&#45;&gt;Node63 -->
<g id="edge10" class="edge"><title>Node62&#45;&gt;Node63</title>
<path fill="none" stroke="midnightblue" d="M210.588,-149.5C202.18,-149.5 193.683,-149.5 185.31,-149.5"/>
<polygon fill="midnightblue" stroke="midnightblue" points="210.785,-153 220.785,-149.5 210.785,-146 210.785,-153"/>
</g>
<!-- Node65 -->
<g id="node11" class="node"><title>Node65</title>
<g id="a_node11"><a xlink:href="classkoala_1_1_cell_1_1_cell.html#ab1fa079614840ca386e0970338c2d8f0" target="_top" xlink:title=" ">
<polygon fill="white" stroke="black" points="676,-155.5 676,-185.5 782,-185.5 782,-155.5 676,-155.5"/>
<text text-anchor="start" x="684" y="-173.5" font-family="Helvetica,sans-Serif" font-size="10.00">koala.Cell.Cell.make</text>
<text text-anchor="middle" x="729" y="-162.5" font-family="Helvetica,sans-Serif" font-size="10.00">_cells</text>
</a>
</g>
</g>
<!-- Node64&#45;&gt;Node65 -->
<g id="edge12" class="edge"><title>Node64&#45;&gt;Node65</title>
<path fill="none" stroke="midnightblue" d="M886.236,-138.15C854.035,-144.818 813.9,-153.128 782.373,-159.656"/>
<polygon fill="midnightblue" stroke="midnightblue" points="887.308,-141.502 896.391,-136.047 885.889,-134.648 887.308,-141.502"/>
</g>
<!-- Node66 -->
<g id="node12" class="node"><title>Node66</title>
<g id="a_node12"><a xlink:href="namespacekoala_1_1excellib.html#ab1d9d224f4ee11e755d39b5ad520f371" target="_top" xlink:title=" ">
<polygon fill="white" stroke="black" points="678,-117 678,-136 780,-136 780,-117 678,-117"/>
<text text-anchor="middle" x="729" y="-124" font-family="Helvetica,sans-Serif" font-size="10.00">koala.excellib.offset</text>
</a>
</g>
</g>
<!-- Node64&#45;&gt;Node66 -->
<g id="edge13" class="edge"><title>Node64&#45;&gt;Node66</title>
<path fill="none" stroke="midnightblue" d="M886.007,-126.5C853.066,-126.5 811.881,-126.5 780.101,-126.5"/>
<polygon fill="midnightblue" stroke="midnightblue" points="886.391,-130 896.391,-126.5 886.391,-123 886.391,-130"/>
</g>
<!-- Node67 -->
<g id="node13" class="node"><title>Node67</title>
<g id="a_node13"><a xlink:href="classkoala_1_1_range_1_1_range_core.html#ac49ba3473e8bcd9585eedd4fa9603bf2" target="_top" xlink:title=" ">
<polygon fill="white" stroke="black" points="666.5,-67.5 666.5,-97.5 791.5,-97.5 791.5,-67.5 666.5,-67.5"/>
<text text-anchor="start" x="674.5" y="-85.5" font-family="Helvetica,sans-Serif" font-size="10.00">koala.Range.RangeCore.</text>
<text text-anchor="middle" x="729" y="-74.5" font-family="Helvetica,sans-Serif" font-size="10.00">__init__</text>
</a>
</g>
</g>
<!-- Node64&#45;&gt;Node67 -->
<g id="edge14" class="edge"><title>Node64&#45;&gt;Node67</title>
<path fill="none" stroke="midnightblue" d="M886.385,-114.881C857.27,-108.852 821.64,-101.475 791.747,-95.2853"/>
<polygon fill="midnightblue" stroke="midnightblue" points="885.889,-118.352 896.391,-116.953 887.308,-111.498 885.889,-118.352"/>
</g>
<!-- Node68 -->
<g id="node14" class="node"><title>Node68</title>
<g id="a_node14"><a xlink:href="classkoala_1_1_spreadsheet_1_1_spreadsheet.html#aa23818eb03be8a82c0969bd5338fdf2d" target="_top" xlink:title=" ">
<polygon fill="white" stroke="black" points="643,-0.5 643,-30.5 815,-30.5 815,-0.5 643,-0.5"/>
<text text-anchor="start" x="651" y="-18.5" font-family="Helvetica,sans-Serif" font-size="10.00">koala.Spreadsheet.Spreadsheet.get</text>
<text text-anchor="middle" x="729" y="-7.5" font-family="Helvetica,sans-Serif" font-size="10.00">_arguments_from_ast</text>
</a>
</g>
</g>
<!-- Node64&#45;&gt;Node68 -->
<g id="edge15" class="edge"><title>Node64&#45;&gt;Node68</title>
<path fill="none" stroke="midnightblue" d="M908.148,-106.221C883.801,-92.0788 850.222,-73.0347 820,-57.5 801.751,-48.1197 781.021,-38.3848 764.059,-30.6518"/>
<polygon fill="midnightblue" stroke="midnightblue" points="906.599,-109.37 917.001,-111.384 910.126,-103.323 906.599,-109.37"/>
</g>
<!-- Node68&#45;&gt;Node68 -->
<g id="edge16" class="edge"><title>Node68&#45;&gt;Node68</title>
<path fill="none" stroke="midnightblue" d="M766.67,-40.9579C761.994,-45.679 749.438,-49 729,-49 695.461,-49 683.146,-40.0566 692.055,-30.659"/>
<polygon fill="midnightblue" stroke="midnightblue" points="770.139,-40.3887 765.945,-30.659 763.156,-40.88 770.139,-40.3887"/>
</g>
<!-- Node69 -->
<g id="node15" class="node"><title>Node69</title>
<g id="a_node15"><a xlink:href="classkoala_1_1_spreadsheet_1_1_spreadsheet.html#a8ebd4153a8499a4bf7fdf0bde89f12f0" target="_top" xlink:title=" ">
<polygon fill="white" stroke="black" points="430,-69.5 430,-99.5 602,-99.5 602,-69.5 430,-69.5"/>
<text text-anchor="start" x="438" y="-87.5" font-family="Helvetica,sans-Serif" font-size="10.00">koala.Spreadsheet.Spreadsheet.get</text>
<text text-anchor="middle" x="516" y="-76.5" font-family="Helvetica,sans-Serif" font-size="10.00">_pointer_arguments_from_ast</text>
</a>
</g>
</g>
<!-- Node68&#45;&gt;Node69 -->
<g id="edge17" class="edge"><title>Node68&#45;&gt;Node69</title>
<path fill="none" stroke="midnightblue" d="M672.145,-33.7653C638.068,-44.909 595.04,-58.9799 562.946,-69.475"/>
<polygon fill="midnightblue" stroke="midnightblue" points="673.539,-36.992 681.956,-30.5571 671.363,-30.3387 673.539,-36.992"/>
</g>
<!-- Node69&#45;&gt;Node62 -->
<g id="edge18" class="edge"><title>Node69&#45;&gt;Node62</title>
<path fill="none" stroke="midnightblue" d="M457.488,-102.603C425.689,-112.612 386.636,-124.905 356.492,-134.394"/>
<polygon fill="midnightblue" stroke="midnightblue" points="458.618,-105.917 467.106,-99.5757 456.516,-99.2397 458.618,-105.917"/>
</g>
<!-- Node69&#45;&gt;Node69 -->
<g id="edge19" class="edge"><title>Node69&#45;&gt;Node69</title>
<path fill="none" stroke="midnightblue" d="M552.959,-109.958C548.372,-114.679 536.052,-118 516,-118 483.094,-118 471.011,-109.057 479.752,-99.659"/>
<polygon fill="midnightblue" stroke="midnightblue" points="556.429,-109.394 552.248,-99.659 549.445,-109.876 556.429,-109.394"/>
</g>
</g>
</svg>
