<?xml version="1.0" encoding="UTF-8" standalone="no"?>
<!DOCTYPE svg PUBLIC "-//W3C//DTD SVG 1.1//EN"
 "http://www.w3.org/Graphics/SVG/1.1/DTD/svg11.dtd">
<!-- Generated by graphviz version 2.38.0 (20140413.2041)
 -->
<!-- Title: koala.utils.is_leap_year Pages: 1 -->
<!--zoomable 180 -->
<svg id="main" version="1.1" xmlns="http://www.w3.org/2000/svg" xmlns:xlink="http://www.w3.org/1999/xlink" xml:space="preserve" onload="init(evt)">
<style type="text/css"><![CDATA[
.edge:hover path { stroke: red; }
.edge:hover polygon { stroke: red; fill: red; }
]]></style>
<script type="text/javascript"><![CDATA[
var edges = document.getElementsByTagName('g');
if (edges && edges.length) {
  for (var i=0;i<edges.length;i++) {
    if (edges[i].id.substr(0,4)=='edge') {
      edges[i].setAttribute('class','edge');
    }
  }
}
]]></script>
        <defs>
                <circle id="rim" cx="0" cy="0" r="7"/>
                <circle id="rim2" cx="0" cy="0" r="3.5"/>
                <g id="zoomPlus">
                        <use xlink:href="#rim" fill="#404040">
                                <set attributeName="fill" to="#808080" begin="zoomplus.mouseover" end="zoomplus.mouseout"/>
                        </use>
                        <path d="M-4,0h8M0,-4v8" fill="none" stroke="white" stroke-width="1.5" pointer-events="none"/>
                </g>
                <g id="zoomMin">
                        <use xlink:href="#rim" fill="#404040">
                                <set attributeName="fill" to="#808080" begin="zoomminus.mouseover" end="zoomminus.mouseout"/>
                        </use>
                        <path d="M-4,0h8" fill="none" stroke="white" stroke-width="1.5" pointer-events="none"/>
                </g>
                <g id="dirArrow">
                        <path fill="none" stroke="white" stroke-width="1.5" d="M0,-3.0v7 M-2.5,-0.5L0,-3.0L2.5,-0.5"/>
                </g>
               <g id="resetDef">
                       <use xlink:href="#rim2" fill="#404040">
                               <set attributeName="fill" to="#808080" begin="reset.mouseover" end="reset.mouseout"/>
                       </use>
               </g>
        </defs>

<script type="text/javascript">
var viewWidth = 731;
var viewHeight = 180;
var sectionId = 'dynsection-21';
</script>
<script xlink:href="svgpan.js"/>
<svg id="graph" class="graph">
<g id="viewport">
<title>koala.utils.is_leap_year</title>
<polygon fill="white" stroke="none" points="-4,4 -4,-176 727,-176 727,4 -4,4"/>
<!-- Node112 -->
<g id="node1" class="node"><title>Node112</title>
<g id="a_node1"><a xlink:title=" ">
<polygon fill="#bfbfbf" stroke="black" points="604,-101.5 604,-120.5 723,-120.5 723,-101.5 604,-101.5"/>
<text text-anchor="middle" x="663.5" y="-108.5" font-family="Helvetica,sans-Serif" font-size="10.00">koala.utils.is_leap_year</text>
</a>
</g>
</g>
<!-- Node113 -->
<g id="node2" class="node"><title>Node113</title>
<g id="a_node2"><a xlink:href="namespacekoala_1_1excellib.html#a298991fcfa2174f09d7d5627a1e50b79" target="_top" xlink:title=" ">
<polygon fill="white" stroke="black" points="0,-152.5 0,-171.5 113,-171.5 113,-152.5 0,-152.5"/>
<text text-anchor="middle" x="56.5" y="-159.5" font-family="Helvetica,sans-Serif" font-size="10.00">koala.excellib.yearfrac</text>
</a>
</g>
</g>
<!-- Node112&#45;&gt;Node113 -->
<g id="edge1" class="edge"><title>Node112&#45;&gt;Node113</title>
<path fill="none" stroke="midnightblue" d="M602.631,-122.327C591.156,-124.34 579.222,-126.326 568,-128 433.871,-148.014 400.377,-155.986 265,-164 213.535,-167.047 200.552,-164.563 149,-164 137.402,-163.873 124.978,-163.656 113.142,-163.411"/>
<polygon fill="midnightblue" stroke="midnightblue" points="603.336,-125.756 612.568,-120.558 602.109,-118.865 603.336,-125.756"/>
</g>
<!-- Node114 -->
<g id="node3" class="node"><title>Node114</title>
<g id="a_node3"><a xlink:href="namespacekoala_1_1utils.html#a6ca2acad4db5fefe21c0941c1622f5e4" target="_top" xlink:title=" ">
<polygon fill="white" stroke="black" points="467,-74 467,-104 568,-104 568,-74 467,-74"/>
<text text-anchor="start" x="475" y="-92" font-family="Helvetica,sans-Serif" font-size="10.00">koala.utils.get_max</text>
<text text-anchor="middle" x="517.5" y="-81" font-family="Helvetica,sans-Serif" font-size="10.00">_days_in_month</text>
</a>
</g>
</g>
<!-- Node112&#45;&gt;Node114 -->
<g id="edge2" class="edge"><title>Node112&#45;&gt;Node114</title>
<path fill="none" stroke="midnightblue" d="M593.854,-100.512C585.221,-99.1934 576.523,-97.8646 568.258,-96.602"/>
<polygon fill="midnightblue" stroke="midnightblue" points="593.516,-104.001 603.93,-102.052 594.573,-97.0816 593.516,-104.001"/>
</g>
<!-- Node115 -->
<g id="node4" class="node"><title>Node115</title>
<g id="a_node4"><a xlink:href="namespacekoala_1_1utils.html#a6a29ca0b64c84fe42f7d41190820477c" target="_top" xlink:title=" ">
<polygon fill="white" stroke="black" points="301,-35.5 301,-54.5 431,-54.5 431,-35.5 301,-35.5"/>
<text text-anchor="middle" x="366" y="-42.5" font-family="Helvetica,sans-Serif" font-size="10.00">koala.utils.normalize_year</text>
</a>
</g>
</g>
<!-- Node112&#45;&gt;Node115 -->
<g id="edge12" class="edge"><title>Node112&#45;&gt;Node115</title>
<path fill="none" stroke="midnightblue" d="M638.854,-96.1691C620.315,-85.3161 593.475,-71.2671 568,-64 523.339,-51.2595 471.063,-46.6175 431.02,-45.1039"/>
<polygon fill="midnightblue" stroke="midnightblue" points="637.117,-99.2082 647.493,-101.348 640.716,-93.2045 637.117,-99.2082"/>
</g>
<!-- Node118 -->
<g id="node7" class="node"><title>Node118</title>
<g id="a_node7"><a xlink:href="namespacekoala_1_1utils.html#a37fde0505838c8954ad814bd03f331c3" target="_top" xlink:title=" ">
<polygon fill="white" stroke="black" points="305,-95.5 305,-114.5 427,-114.5 427,-95.5 305,-95.5"/>
<text text-anchor="middle" x="366" y="-102.5" font-family="Helvetica,sans-Serif" font-size="10.00">koala.utils.date_from_int</text>
</a>
</g>
</g>
<!-- Node112&#45;&gt;Node118 -->
<g id="edge13" class="edge"><title>Node112&#45;&gt;Node118</title>
<path fill="none" stroke="midnightblue" d="M593.688,-112.626C585.04,-112.781 576.315,-112.912 568,-113 523.114,-113.475 511.853,-114.791 467,-113 454.122,-112.486 440.333,-111.6 427.237,-110.601"/>
<polygon fill="midnightblue" stroke="midnightblue" points="593.843,-116.124 603.775,-112.436 593.711,-109.125 593.843,-116.124"/>
</g>
<!-- Node114&#45;&gt;Node115 -->
<g id="edge3" class="edge"><title>Node114&#45;&gt;Node115</title>
<path fill="none" stroke="midnightblue" d="M456.964,-71.4778C437.421,-65.7258 416.428,-59.5474 399.641,-54.6067"/>
<polygon fill="midnightblue" stroke="midnightblue" points="456.137,-74.8828 466.719,-74.3486 458.114,-68.1676 456.137,-74.8828"/>
</g>
<!-- Node114&#45;&gt;Node118 -->
<g id="edge7" class="edge"><title>Node114&#45;&gt;Node118</title>
<path fill="none" stroke="midnightblue" d="M456.744,-95.3953C447.022,-96.4358 436.946,-97.5141 427.213,-98.5558"/>
<polygon fill="midnightblue" stroke="midnightblue" points="457.148,-98.8721 466.719,-94.3278 456.403,-91.9119 457.148,-98.8721"/>
</g>
<!-- Node116 -->
<g id="node5" class="node"><title>Node116</title>
<g id="a_node5"><a xlink:href="namespacekoala_1_1excellib.html#ac993fb561979c98ece430fb6d643ce17" target="_top" xlink:title=" ">
<polygon fill="white" stroke="black" points="158,-0.5 158,-19.5 256,-19.5 256,-0.5 158,-0.5"/>
<text text-anchor="middle" x="207" y="-7.5" font-family="Helvetica,sans-Serif" font-size="10.00">koala.excellib.date</text>
</a>
</g>
</g>
<!-- Node115&#45;&gt;Node116 -->
<g id="edge4" class="edge"><title>Node115&#45;&gt;Node116</title>
<path fill="none" stroke="midnightblue" d="M312.222,-33.2342C292.256,-28.7831 269.794,-23.7757 250.849,-19.5523"/>
<polygon fill="midnightblue" stroke="midnightblue" points="311.577,-36.6763 322.099,-35.4361 313.1,-29.844 311.577,-36.6763"/>
</g>
<!-- Node116&#45;&gt;Node113 -->
<g id="edge5" class="edge"><title>Node116&#45;&gt;Node113</title>
<path fill="none" stroke="midnightblue" d="M156.884,-23.9496C154.117,-25.4689 151.463,-27.1471 149,-29 103.087,-63.5406 72.0319,-128.049 61.4808,-152.38"/>
<polygon fill="midnightblue" stroke="midnightblue" points="158.481,-27.066 166.018,-19.6193 155.482,-20.7409 158.481,-27.066"/>
</g>
<!-- Node117 -->
<g id="node6" class="node"><title>Node117</title>
<g id="a_node6"><a xlink:href="namespacekoala_1_1excellib.html#aef0e50530221c9b41d2ec2093f3280e3" target="_top" xlink:title=" ">
<polygon fill="white" stroke="black" points="5,-0.5 5,-19.5 108,-19.5 108,-0.5 5,-0.5"/>
<text text-anchor="middle" x="56.5" y="-7.5" font-family="Helvetica,sans-Serif" font-size="10.00">koala.excellib.today</text>
</a>
</g>
</g>
<!-- Node116&#45;&gt;Node117 -->
<g id="edge6" class="edge"><title>Node116&#45;&gt;Node117</title>
<path fill="none" stroke="midnightblue" d="M147.5,-10C134.45,-10 120.72,-10 108.025,-10"/>
<polygon fill="midnightblue" stroke="midnightblue" points="147.786,-13.5001 157.786,-10 147.786,-6.5001 147.786,-13.5001"/>
</g>
<!-- Node118&#45;&gt;Node113 -->
<g id="edge11" class="edge"><title>Node118&#45;&gt;Node113</title>
<path fill="none" stroke="midnightblue" d="M335.541,-118.627C315.966,-127.068 289.458,-137.345 265,-143 214.423,-154.694 155.349,-159.248 113.195,-160.992"/>
<polygon fill="midnightblue" stroke="midnightblue" points="337.085,-121.771 344.825,-114.536 334.263,-115.365 337.085,-121.771"/>
</g>
<!-- Node119 -->
<g id="node8" class="node"><title>Node119</title>
<g id="a_node8"><a xlink:href="namespacekoala_1_1excellib.html#ae4d8e7957ed6e634cb78fbbfa9cc5898" target="_top" xlink:title=" ">
<polygon fill="white" stroke="black" points="149,-38.5 149,-57.5 265,-57.5 265,-38.5 149,-38.5"/>
<text text-anchor="middle" x="207" y="-45.5" font-family="Helvetica,sans-Serif" font-size="10.00">koala.excellib.eomonth</text>
</a>
</g>
</g>
<!-- Node118&#45;&gt;Node119 -->
<g id="edge8" class="edge"><title>Node118&#45;&gt;Node119</title>
<path fill="none" stroke="midnightblue" d="M330.895,-91.6394C311.624,-84.1908 287.048,-74.8599 265,-67 256.059,-63.8125 246.272,-60.4903 237.37,-57.532"/>
<polygon fill="midnightblue" stroke="midnightblue" points="329.859,-94.9914 340.448,-95.3451 332.39,-88.4653 329.859,-94.9914"/>
</g>
<!-- Node120 -->
<g id="node9" class="node"><title>Node120</title>
<g id="a_node9"><a xlink:href="namespacekoala_1_1excellib.html#ae09c8176bd57c233c6d55f6644c15c65" target="_top" xlink:title=" ">
<polygon fill="white" stroke="black" points="158,-114.5 158,-133.5 256,-133.5 256,-114.5 158,-114.5"/>
<text text-anchor="middle" x="207" y="-121.5" font-family="Helvetica,sans-Serif" font-size="10.00">koala.excellib.year</text>
</a>
</g>
</g>
<!-- Node118&#45;&gt;Node120 -->
<g id="edge9" class="edge"><title>Node118&#45;&gt;Node120</title>
<path fill="none" stroke="midnightblue" d="M294.453,-113.538C281.504,-115.105 268.263,-116.707 256.159,-118.172"/>
<polygon fill="midnightblue" stroke="midnightblue" points="295.242,-116.968 304.749,-112.292 294.401,-110.018 295.242,-116.968"/>
</g>
<!-- Node121 -->
<g id="node10" class="node"><title>Node121</title>
<g id="a_node10"><a xlink:href="namespacekoala_1_1excellib.html#a66569fac1521a5ac9a579cbbb1ac3138" target="_top" xlink:title=" ">
<polygon fill="white" stroke="black" points="154,-76.5 154,-95.5 260,-95.5 260,-76.5 154,-76.5"/>
<text text-anchor="middle" x="207" y="-83.5" font-family="Helvetica,sans-Serif" font-size="10.00">koala.excellib.month</text>
</a>
</g>
</g>
<!-- Node118&#45;&gt;Node121 -->
<g id="edge10" class="edge"><title>Node118&#45;&gt;Node121</title>
<path fill="none" stroke="midnightblue" d="M294.644,-96.4855C283.045,-95.0819 271.207,-93.6492 260.156,-92.3119"/>
<polygon fill="midnightblue" stroke="midnightblue" points="294.401,-99.9816 304.749,-97.7084 295.242,-93.0323 294.401,-99.9816"/>
</g>
</g>
</svg>
        <g id="navigator" transform="translate(0 0)" fill="#404254">
                <rect fill="#f2f5e9" fill-opacity="0.5" stroke="#606060" stroke-width=".5" x="0" y="0" width="60" height="60"/>
                <use id="zoomplus" xlink:href="#zoomPlus" x="17" y="9" onmousedown="handleZoom(evt,'in')"/>
                <use id="zoomminus" xlink:href="#zoomMin" x="42" y="9" onmousedown="handleZoom(evt,'out')"/>
                <use id="reset" xlink:href="#resetDef" x="30" y="36" onmousedown="handleReset()"/>
                <g id="arrowUp" xlink:href="#dirArrow" transform="translate(30 24)" onmousedown="handlePan(0,-1)">
                  <use xlink:href="#rim" fill="#404040">
                        <set attributeName="fill" to="#808080" begin="arrowUp.mouseover" end="arrowUp.mouseout"/>
                  </use>
                  <path fill="none" stroke="white" stroke-width="1.5" d="M0,-3.0v7 M-2.5,-0.5L0,-3.0L2.5,-0.5"/>
                </g>
                <g id="arrowRight" xlink:href="#dirArrow" transform="rotate(90) translate(36 -43)" onmousedown="handlePan(1,0)">
                  <use xlink:href="#rim" fill="#404040">
                        <set attributeName="fill" to="#808080" begin="arrowRight.mouseover" end="arrowRight.mouseout"/>
                  </use>
                  <path fill="none" stroke="white" stroke-width="1.5" d="M0,-3.0v7 M-2.5,-0.5L0,-3.0L2.5,-0.5"/>
                </g>
                <g id="arrowDown" xlink:href="#dirArrow" transform="rotate(180) translate(-30 -48)" onmousedown="handlePan(0,1)">
                  <use xlink:href="#rim" fill="#404040">
                        <set attributeName="fill" to="#808080" begin="arrowDown.mouseover" end="arrowDown.mouseout"/>
                  </use>
                  <path fill="none" stroke="white" stroke-width="1.5" d="M0,-3.0v7 M-2.5,-0.5L0,-3.0L2.5,-0.5"/>
                </g>
                <g id="arrowLeft" xlink:href="#dirArrow" transform="rotate(270) translate(-36 17)" onmousedown="handlePan(-1,0)">
                  <use xlink:href="#rim" fill="#404040">
                        <set attributeName="fill" to="#808080" begin="arrowLeft.mouseover" end="arrowLeft.mouseout"/>
                  </use>
                  <path fill="none" stroke="white" stroke-width="1.5" d="M0,-3.0v7 M-2.5,-0.5L0,-3.0L2.5,-0.5"/>
                </g>
        </g>
        <svg viewBox="0 0 15 15" width="100%" height="30px" preserveAspectRatio="xMaxYMin meet">
         <g id="arrow_out" transform="scale(0.3 0.3)">
          <a xlink:href="namespacekoala_1_1utils_aa5132ee97ef859e71f955428648f3359_icgraph_org.svg" target="_base">
           <rect id="button" ry="5" rx="5" y="6" x="6" height="38" width="38"
                fill="#f2f5e9" fill-opacity="0.5" stroke="#606060" stroke-width="1.0"/>
           <path id="arrow"
             d="M 11.500037,31.436501 C 11.940474,20.09759 22.043105,11.32322 32.158766,21.979434 L 37.068811,17.246167 C 37.068811,17.246167 37.088388,32 37.088388,32 L 22.160133,31.978069 C 22.160133,31.978069 26.997745,27.140456 26.997745,27.140456 C 18.528582,18.264221 13.291696,25.230495 11.500037,31.436501 z"
             style="fill:#404040;"/>
          </a>
         </g>
        </svg>
</svg>
