<?xml version="1.0" encoding="UTF-8" standalone="no"?>
<!DOCTYPE svg PUBLIC "-//W3C//DTD SVG 1.1//EN"
 "http://www.w3.org/Graphics/SVG/1.1/DTD/svg11.dtd">
<!-- Generated by graphviz version 2.38.0 (20140413.2041)
 -->
<!-- Title: koala.reader.read_sheets Pages: 1 -->
<svg width="423pt" height="39pt"
 viewBox="0.00 0.00 423.00 39.00" xmlns="http://www.w3.org/2000/svg" xmlns:xlink="http://www.w3.org/1999/xlink">
<g id="graph0" class="graph" transform="scale(1 1) rotate(0) translate(4 35)">
<title>koala.reader.read_sheets</title>
<polygon fill="white" stroke="none" points="-4,4 -4,-35 419,-35 419,4 -4,4"/>
<!-- Node33 -->
<g id="node1" class="node"><title>Node33</title>
<g id="a_node1"><a xlink:title=" ">
<polygon fill="#bfbfbf" stroke="black" points="289,-6 289,-25 415,-25 415,-6 289,-6"/>
<text text-anchor="middle" x="352" y="-13" font-family="Helvetica,sans-Serif" font-size="10.00">koala.reader.read_sheets</text>
</a>
</g>
</g>
<!-- Node34 -->
<g id="node2" class="node"><title>Node34</title>
<g id="a_node2"><a xlink:href="namespacekoala_1_1reader.html#ae60c7e099adcc35e694f074c896612d7" target="_top" xlink:title=" ">
<polygon fill="white" stroke="black" points="153,-0.5 153,-30.5 253,-30.5 253,-0.5 153,-0.5"/>
<text text-anchor="start" x="161" y="-18.5" font-family="Helvetica,sans-Serif" font-size="10.00">koala.reader.detect</text>
<text text-anchor="middle" x="203" y="-7.5" font-family="Helvetica,sans-Serif" font-size="10.00">_worksheets</text>
</a>
</g>
</g>
<!-- Node33&#45;&gt;Node34 -->
<g id="edge1" class="edge"><title>Node33&#45;&gt;Node34</title>
<path fill="none" stroke="midnightblue" d="M278.557,-15.5C269.92,-15.5 261.263,-15.5 253.064,-15.5"/>
<polygon fill="midnightblue" stroke="midnightblue" points="278.659,-19.0001 288.659,-15.5 278.659,-12.0001 278.659,-19.0001"/>
</g>
<!-- Node35 -->
<g id="node3" class="node"><title>Node35</title>
<g id="a_node3"><a xlink:href="namespacekoala_1_1reader.html#aa773ee24a28b1e66657ee4fcd95d6a62" target="_top" xlink:title=" ">
<polygon fill="white" stroke="black" points="0,-6 0,-25 117,-25 117,-6 0,-6"/>
<text text-anchor="middle" x="58.5" y="-13" font-family="Helvetica,sans-Serif" font-size="10.00">koala.reader.read_cells</text>
</a>
</g>
</g>
<!-- Node34&#45;&gt;Node35 -->
<g id="edge2" class="edge"><title>Node34&#45;&gt;Node35</title>
<path fill="none" stroke="midnightblue" d="M142.866,-15.5C134.47,-15.5 125.843,-15.5 117.47,-15.5"/>
<polygon fill="midnightblue" stroke="midnightblue" points="142.96,-19.0001 152.96,-15.5 142.96,-12.0001 142.96,-19.0001"/>
</g>
</g>
</svg>
