<?xml version="1.0" encoding="UTF-8" standalone="no"?>
<!DOCTYPE svg PUBLIC "-//W3C//DTD SVG 1.1//EN"
 "http://www.w3.org/Graphics/SVG/1.1/DTD/svg11.dtd">
<!-- Generated by graphviz version 2.38.0 (20140413.2041)
 -->
<!-- Title: koala.utils.flatten Pages: 1 -->
<!--zoomable 470 -->
<svg id="main" version="1.1" xmlns="http://www.w3.org/2000/svg" xmlns:xlink="http://www.w3.org/1999/xlink" xml:space="preserve" onload="init(evt)">
<style type="text/css"><![CDATA[
.edge:hover path { stroke: red; }
.edge:hover polygon { stroke: red; fill: red; }
]]></style>
<script type="text/javascript"><![CDATA[
var edges = document.getElementsByTagName('g');
if (edges && edges.length) {
  for (var i=0;i<edges.length;i++) {
    if (edges[i].id.substr(0,4)=='edge') {
      edges[i].setAttribute('class','edge');
    }
  }
}
]]></script>
        <defs>
                <circle id="rim" cx="0" cy="0" r="7"/>
                <circle id="rim2" cx="0" cy="0" r="3.5"/>
                <g id="zoomPlus">
                        <use xlink:href="#rim" fill="#404040">
                                <set attributeName="fill" to="#808080" begin="zoomplus.mouseover" end="zoomplus.mouseout"/>
                        </use>
                        <path d="M-4,0h8M0,-4v8" fill="none" stroke="white" stroke-width="1.5" pointer-events="none"/>
                </g>
                <g id="zoomMin">
                        <use xlink:href="#rim" fill="#404040">
                                <set attributeName="fill" to="#808080" begin="zoomminus.mouseover" end="zoomminus.mouseout"/>
                        </use>
                        <path d="M-4,0h8" fill="none" stroke="white" stroke-width="1.5" pointer-events="none"/>
                </g>
                <g id="dirArrow">
                        <path fill="none" stroke="white" stroke-width="1.5" d="M0,-3.0v7 M-2.5,-0.5L0,-3.0L2.5,-0.5"/>
                </g>
               <g id="resetDef">
                       <use xlink:href="#rim2" fill="#404040">
                               <set attributeName="fill" to="#808080" begin="reset.mouseover" end="reset.mouseout"/>
                       </use>
               </g>
        </defs>

<script type="text/javascript">
var viewWidth = 1208;
var viewHeight = 470;
var sectionId = 'dynsection-10';
</script>
<script xlink:href="svgpan.js"/>
<svg id="graph" class="graph">
<g id="viewport">
<title>koala.utils.flatten</title>
<polygon fill="white" stroke="none" points="-4,4 -4,-466.098 1204,-466.098 1204,4 -4,4"/>
<!-- Node64 -->
<g id="node1" class="node"><title>Node64</title>
<g id="a_node1"><a xlink:title=" ">
<polygon fill="#bfbfbf" stroke="black" points="1110,-284.768 1110,-303.768 1200,-303.768 1200,-284.768 1110,-284.768"/>
<text text-anchor="middle" x="1155" y="-291.768" font-family="Helvetica,sans-Serif" font-size="10.00">koala.utils.flatten</text>
</a>
</g>
</g>
<!-- Node65 -->
<g id="node2" class="node"><title>Node65</title>
<g id="a_node2"><a xlink:href="namespacekoala_1_1ast.html#aa55446c8aa764f09775f006ee775ec7b" target="_top" xlink:title=" ">
<polygon fill="white" stroke="black" points="718.5,-281.268 718.5,-311.268 825.5,-311.268 825.5,-281.268 718.5,-281.268"/>
<text text-anchor="start" x="726.5" y="-299.268" font-family="Helvetica,sans-Serif" font-size="10.00">koala.ast.graph_from</text>
<text text-anchor="middle" x="772" y="-288.268" font-family="Helvetica,sans-Serif" font-size="10.00">_seeds</text>
</a>
</g>
</g>
<!-- Node64&#45;&gt;Node65 -->
<g id="edge1" class="edge"><title>Node64&#45;&gt;Node65</title>
<path fill="none" stroke="midnightblue" d="M1136.74,-277.399C1121.61,-263.87 1098.28,-245.923 1074,-238.268 999.82,-214.885 971.487,-210.072 899,-238.268 878.771,-246.137 881.981,-260.74 863,-271.268 851.513,-277.64 838.285,-282.482 825.568,-286.125"/>
<polygon fill="midnightblue" stroke="midnightblue" points="1134.55,-280.136 1144.26,-284.367 1139.31,-275.002 1134.55,-280.136"/>
</g>
<!-- Node66 -->
<g id="node3" class="node"><title>Node66</title>
<g id="a_node3"><a xlink:href="classkoala_1_1_spreadsheet_1_1_spreadsheet.html#a80d6ad19a13ccd80ca76f3f94975f7b5" target="_top" xlink:title=" ">
<polygon fill="white" stroke="black" points="461,-400.268 461,-430.268 635,-430.268 635,-400.268 461,-400.268"/>
<text text-anchor="start" x="469" y="-418.268" font-family="Helvetica,sans-Serif" font-size="10.00">koala.Spreadsheet.Spreadsheet.gen</text>
<text text-anchor="middle" x="548" y="-407.268" font-family="Helvetica,sans-Serif" font-size="10.00">_graph</text>
</a>
</g>
</g>
<!-- Node64&#45;&gt;Node66 -->
<g id="edge13" class="edge"><title>Node64&#45;&gt;Node66</title>
<path fill="none" stroke="midnightblue" d="M1147.34,-313.45C1136.69,-340.826 1112.95,-390.124 1074,-411.268 920.199,-494.766 701.787,-455.267 602.193,-430.299"/>
<polygon fill="midnightblue" stroke="midnightblue" points="1150.72,-314.418 1150.9,-303.825 1144.15,-311.992 1150.72,-314.418"/>
</g>
<!-- Node73 -->
<g id="node10" class="node"><title>Node73</title>
<g id="a_node10"><a xlink:href="namespacekoala_1_1excellib.html#af7346e1c78e8d155e009419f8fbc40cf" target="_top" xlink:title=" ">
<polygon fill="white" stroke="black" points="938,-353.768 938,-372.768 1035,-372.768 1035,-353.768 938,-353.768"/>
<text text-anchor="middle" x="986.5" y="-360.768" font-family="Helvetica,sans-Serif" font-size="10.00">koala.excellib.xlog</text>
</a>
</g>
</g>
<!-- Node64&#45;&gt;Node73 -->
<g id="edge9" class="edge"><title>Node64&#45;&gt;Node73</title>
<path fill="none" stroke="midnightblue" d="M1133.38,-309.93C1117.83,-321.037 1095.55,-335.475 1074,-344.268 1061.76,-349.264 1047.98,-353.047 1035.08,-355.869"/>
<polygon fill="midnightblue" stroke="midnightblue" points="1135.7,-312.571 1141.71,-303.844 1131.57,-306.92 1135.7,-312.571"/>
</g>
<!-- Node74 -->
<g id="node11" class="node"><title>Node74</title>
<g id="a_node11"><a xlink:href="namespacekoala_1_1excellib.html#a57dca05f5a67dc67a01edf5344f18466" target="_top" xlink:title=" ">
<polygon fill="white" stroke="black" points="718,-387.768 718,-406.768 826,-406.768 826,-387.768 718,-387.768"/>
<text text-anchor="middle" x="772" y="-394.768" font-family="Helvetica,sans-Serif" font-size="10.00">koala.excellib.concat</text>
</a>
</g>
</g>
<!-- Node64&#45;&gt;Node74 -->
<g id="edge10" class="edge"><title>Node64&#45;&gt;Node74</title>
<path fill="none" stroke="midnightblue" d="M1143.52,-312.648C1130.34,-333.745 1105.57,-367.353 1074,-382.268 994.169,-419.986 888.794,-414.496 826.239,-406.373"/>
<polygon fill="midnightblue" stroke="midnightblue" points="1146.59,-314.322 1148.74,-303.947 1140.59,-310.72 1146.59,-314.322"/>
</g>
<!-- Node75 -->
<g id="node12" class="node"><title>Node75</title>
<g id="a_node12"><a xlink:href="namespacekoala_1_1excellib.html#a256079d2d18ead40b358e73933d58c6d" target="_top" xlink:title=" ">
<polygon fill="white" stroke="black" points="920.5,-315.768 920.5,-334.768 1052.5,-334.768 1052.5,-315.768 920.5,-315.768"/>
<text text-anchor="middle" x="986.5" y="-322.768" font-family="Helvetica,sans-Serif" font-size="10.00">koala.excellib.concatenate</text>
</a>
</g>
</g>
<!-- Node64&#45;&gt;Node75 -->
<g id="edge11" class="edge"><title>Node64&#45;&gt;Node75</title>
<path fill="none" stroke="midnightblue" d="M1099.8,-304.359C1080.16,-308.016 1058.05,-312.133 1038.68,-315.739"/>
<polygon fill="midnightblue" stroke="midnightblue" points="1100.63,-307.765 1109.82,-302.494 1099.35,-300.884 1100.63,-307.765"/>
</g>
<!-- Node76 -->
<g id="node13" class="node"><title>Node76</title>
<g id="a_node13"><a xlink:href="classkoala_1_1_spreadsheet_1_1_spreadsheet.html#af4c45ee9335aadc10ba61c0db30a33b2" target="_top" xlink:title=" ">
<polygon fill="white" stroke="black" points="899,-248.268 899,-278.268 1074,-278.268 1074,-248.268 899,-248.268"/>
<text text-anchor="start" x="907" y="-266.268" font-family="Helvetica,sans-Serif" font-size="10.00">koala.Spreadsheet.Spreadsheet.eval</text>
<text text-anchor="middle" x="986.5" y="-255.268" font-family="Helvetica,sans-Serif" font-size="10.00">_pointers_from_ast</text>
</a>
</g>
</g>
<!-- Node64&#45;&gt;Node76 -->
<g id="edge14" class="edge"><title>Node64&#45;&gt;Node76</title>
<path fill="none" stroke="midnightblue" d="M1099.94,-284.202C1089.81,-282.316 1079.02,-280.307 1068.28,-278.309"/>
<polygon fill="midnightblue" stroke="midnightblue" points="1099.35,-287.652 1109.82,-286.042 1100.63,-280.771 1099.35,-287.652"/>
</g>
<!-- Node78 -->
<g id="node15" class="node"><title>Node78</title>
<g id="a_node15"><a xlink:href="classkoala_1_1_spreadsheet_1_1_spreadsheet.html#a6f233266d3e106c54dc37886dba18e9a" target="_top" xlink:title=" ">
<polygon fill="white" stroke="black" points="231.5,-78.2681 231.5,-108.268 404.5,-108.268 404.5,-78.2681 231.5,-78.2681"/>
<text text-anchor="start" x="239.5" y="-96.2681" font-family="Helvetica,sans-Serif" font-size="10.00">koala.Spreadsheet.Spreadsheet.find</text>
<text text-anchor="middle" x="318" y="-85.2681" font-family="Helvetica,sans-Serif" font-size="10.00">_pointer_arguments</text>
</a>
</g>
</g>
<!-- Node64&#45;&gt;Node78 -->
<g id="edge17" class="edge"><title>Node64&#45;&gt;Node78</title>
<path fill="none" stroke="midnightblue" d="M1146.9,-274.872C1135.31,-245.235 1109.95,-188.136 1074,-150.268 997.839,-70.0461 969.324,-48.7858 863,-18.2681 676.746,35.1917 443.333,-43.513 355.049,-78.2178"/>
<polygon fill="midnightblue" stroke="midnightblue" points="1143.72,-276.356 1150.55,-284.462 1150.27,-273.871 1143.72,-276.356"/>
</g>
<!-- Node80 -->
<g id="node17" class="node"><title>Node80</title>
<g id="a_node17"><a xlink:href="namespacekoala_1_1utils.html#a1d3620df245d23fea05928298cabc2ac" target="_top" xlink:title=" ">
<polygon fill="white" stroke="black" points="939.5,-160.268 939.5,-190.268 1033.5,-190.268 1033.5,-160.268 939.5,-160.268"/>
<text text-anchor="start" x="947.5" y="-178.268" font-family="Helvetica,sans-Serif" font-size="10.00">koala.utils.resolve</text>
<text text-anchor="middle" x="986.5" y="-167.268" font-family="Helvetica,sans-Serif" font-size="10.00">_range</text>
</a>
</g>
</g>
<!-- Node64&#45;&gt;Node80 -->
<g id="edge19" class="edge"><title>Node64&#45;&gt;Node80</title>
<path fill="none" stroke="midnightblue" d="M1141.88,-275.986C1127.76,-256.01 1102.69,-224.319 1074,-205.268 1061.82,-197.178 1047.22,-191.028 1033.52,-186.469"/>
<polygon fill="midnightblue" stroke="midnightblue" points="1139.18,-278.242 1147.73,-284.5 1144.95,-274.276 1139.18,-278.242"/>
</g>
<!-- Node65&#45;&gt;Node66 -->
<g id="edge2" class="edge"><title>Node65&#45;&gt;Node66</title>
<path fill="none" stroke="midnightblue" d="M708.636,-309.722C699.172,-312.665 689.678,-316.159 681,-320.268 668.974,-325.962 603.091,-374.778 569.183,-400.125"/>
<polygon fill="midnightblue" stroke="midnightblue" points="709.838,-313.017 718.453,-306.852 707.873,-306.299 709.838,-313.017"/>
</g>
<!-- Node67 -->
<g id="node4" class="node"><title>Node67</title>
<g id="a_node4"><a xlink:href="classkoala_1_1_spreadsheet_1_1_spreadsheet.html#affd17089825c4b3391c4d6b9b702209c" target="_top" xlink:title=" ">
<polygon fill="white" stroke="black" points="451,-262.768 451,-281.768 645,-281.768 645,-262.768 451,-262.768"/>
<text text-anchor="middle" x="548" y="-269.768" font-family="Helvetica,sans-Serif" font-size="10.00">koala.Spreadsheet.Spreadsheet.cell_add</text>
</a>
</g>
</g>
<!-- Node65&#45;&gt;Node67 -->
<g id="edge3" class="edge"><title>Node65&#45;&gt;Node67</title>
<path fill="none" stroke="midnightblue" d="M708.177,-289.476C686.146,-287.095 660.974,-284.373 637.251,-281.809"/>
<polygon fill="midnightblue" stroke="midnightblue" points="708.071,-292.985 718.389,-290.58 708.823,-286.026 708.071,-292.985"/>
</g>
<!-- Node71 -->
<g id="node8" class="node"><title>Node71</title>
<g id="a_node8"><a xlink:href="classkoala_1_1_spreadsheet_1_1_spreadsheet.html#aa7bdaffc24c26fbf18d5b752b7e49df2" target="_top" xlink:title=" ">
<polygon fill="white" stroke="black" points="461.5,-304.268 461.5,-334.268 634.5,-334.268 634.5,-304.268 461.5,-304.268"/>
<text text-anchor="start" x="469.5" y="-322.268" font-family="Helvetica,sans-Serif" font-size="10.00">koala.Spreadsheet.Spreadsheet.cell</text>
<text text-anchor="middle" x="548" y="-311.268" font-family="Helvetica,sans-Serif" font-size="10.00">_set_formula</text>
</a>
</g>
</g>
<!-- Node65&#45;&gt;Node71 -->
<g id="edge7" class="edge"><title>Node65&#45;&gt;Node71</title>
<path fill="none" stroke="midnightblue" d="M708.153,-302.779C685.318,-305.145 659.11,-307.86 634.64,-310.395"/>
<polygon fill="midnightblue" stroke="midnightblue" points="708.803,-306.231 718.389,-301.719 708.082,-299.268 708.803,-306.231"/>
</g>
<!-- Node68 -->
<g id="node5" class="node"><title>Node68</title>
<g id="a_node5"><a xlink:href="classkoala_1_1_spreadsheet_1_1_spreadsheet.html#a7481e9d34fe1d4347b3b6eed3462b545" target="_top" xlink:title=" ">
<polygon fill="white" stroke="black" points="221,-218.768 221,-237.768 415,-237.768 415,-218.768 221,-218.768"/>
<text text-anchor="middle" x="318" y="-225.768" font-family="Helvetica,sans-Serif" font-size="10.00">koala.Spreadsheet.Spreadsheet.add_cell</text>
</a>
</g>
</g>
<!-- Node67&#45;&gt;Node68 -->
<g id="edge4" class="edge"><title>Node67&#45;&gt;Node68</title>
<path fill="none" stroke="midnightblue" d="M487.366,-260.76C450.335,-253.613 403.311,-244.539 368.376,-237.797"/>
<polygon fill="midnightblue" stroke="midnightblue" points="487.045,-264.262 497.527,-262.721 488.372,-257.389 487.045,-264.262"/>
</g>
<!-- Node69 -->
<g id="node6" class="node"><title>Node69</title>
<g id="a_node6"><a xlink:href="classkoala_1_1_spreadsheet_1_1_spreadsheet.html#a2f695c5a3bc3f8812609bd2ba4ebb784" target="_top" xlink:title=" ">
<polygon fill="white" stroke="black" points="231.5,-257.268 231.5,-287.268 404.5,-287.268 404.5,-257.268 231.5,-257.268"/>
<text text-anchor="start" x="239.5" y="-275.268" font-family="Helvetica,sans-Serif" font-size="10.00">koala.Spreadsheet.Spreadsheet.cell</text>
<text text-anchor="middle" x="318" y="-264.268" font-family="Helvetica,sans-Serif" font-size="10.00">_set_value</text>
</a>
</g>
</g>
<!-- Node67&#45;&gt;Node69 -->
<g id="edge5" class="edge"><title>Node67&#45;&gt;Node69</title>
<path fill="none" stroke="midnightblue" d="M440.853,-272.268C428.764,-272.268 416.557,-272.268 404.778,-272.268"/>
<polygon fill="midnightblue" stroke="midnightblue" points="440.968,-275.768 450.968,-272.268 440.968,-268.768 440.968,-275.768"/>
</g>
<!-- Node70 -->
<g id="node7" class="node"><title>Node70</title>
<g id="a_node7"><a xlink:href="classkoala_1_1_spreadsheet_1_1_spreadsheet.html#a1330ffeda88c7bc6905a00e80203eb78" target="_top" xlink:title=" ">
<polygon fill="white" stroke="black" points="6.5,-257.268 6.5,-287.268 178.5,-287.268 178.5,-257.268 6.5,-257.268"/>
<text text-anchor="start" x="14.5" y="-275.268" font-family="Helvetica,sans-Serif" font-size="10.00">koala.Spreadsheet.Spreadsheet.set</text>
<text text-anchor="middle" x="92.5" y="-264.268" font-family="Helvetica,sans-Serif" font-size="10.00">_value</text>
</a>
</g>
</g>
<!-- Node69&#45;&gt;Node70 -->
<g id="edge6" class="edge"><title>Node69&#45;&gt;Node70</title>
<path fill="none" stroke="midnightblue" d="M221.043,-272.268C206.955,-272.268 192.525,-272.268 178.673,-272.268"/>
<polygon fill="midnightblue" stroke="midnightblue" points="221.228,-275.768 231.228,-272.268 221.228,-268.768 221.228,-275.768"/>
</g>
<!-- Node72 -->
<g id="node9" class="node"><title>Node72</title>
<g id="a_node9"><a xlink:href="classkoala_1_1_spreadsheet_1_1_spreadsheet.html#af50724d01ff5b3ae09ecc1bdfbfb0fed" target="_top" xlink:title=" ">
<polygon fill="white" stroke="black" points="232,-306.268 232,-336.268 404,-336.268 404,-306.268 232,-306.268"/>
<text text-anchor="start" x="240" y="-324.268" font-family="Helvetica,sans-Serif" font-size="10.00">koala.Spreadsheet.Spreadsheet.set</text>
<text text-anchor="middle" x="318" y="-313.268" font-family="Helvetica,sans-Serif" font-size="10.00">_formula</text>
</a>
</g>
</g>
<!-- Node71&#45;&gt;Node72 -->
<g id="edge8" class="edge"><title>Node71&#45;&gt;Node72</title>
<path fill="none" stroke="midnightblue" d="M451.278,-320.108C435.674,-320.245 419.6,-320.386 404.269,-320.52"/>
<polygon fill="midnightblue" stroke="midnightblue" points="451.484,-323.606 461.453,-320.019 451.422,-316.606 451.484,-323.606"/>
</g>
<!-- Node75&#45;&gt;Node74 -->
<g id="edge12" class="edge"><title>Node75&#45;&gt;Node74</title>
<path fill="none" stroke="midnightblue" d="M917.328,-337.577C911.026,-339.508 904.826,-341.725 899,-344.268 881.147,-352.061 880.504,-360.72 863,-369.268 847.267,-376.952 828.963,-383.104 812.986,-387.662"/>
<polygon fill="midnightblue" stroke="midnightblue" points="918.599,-340.855 927.275,-334.774 916.7,-334.118 918.599,-340.855"/>
</g>
<!-- Node76&#45;&gt;Node76 -->
<g id="edge16" class="edge"><title>Node76&#45;&gt;Node76</title>
<path fill="none" stroke="midnightblue" d="M1016.35,-288.726C1012.65,-293.447 1002.7,-296.768 986.5,-296.768 959.922,-296.768 950.163,-287.825 957.223,-278.427"/>
<polygon fill="midnightblue" stroke="midnightblue" points="1019.83,-288.217 1015.78,-278.427 1012.84,-288.606 1019.83,-288.217"/>
</g>
<!-- Node77 -->
<g id="node14" class="node"><title>Node77</title>
<g id="a_node14"><a xlink:href="classkoala_1_1_spreadsheet_1_1_spreadsheet.html#a13c2cbec203d01d4d8404e3954dd27d7" target="_top" xlink:title=" ">
<polygon fill="white" stroke="black" points="681,-330.268 681,-360.268 863,-360.268 863,-330.268 681,-330.268"/>
<text text-anchor="start" x="689" y="-348.268" font-family="Helvetica,sans-Serif" font-size="10.00">koala.Spreadsheet.Spreadsheet.clean</text>
<text text-anchor="middle" x="772" y="-337.268" font-family="Helvetica,sans-Serif" font-size="10.00">_pointer</text>
</a>
</g>
</g>
<!-- Node76&#45;&gt;Node77 -->
<g id="edge15" class="edge"><title>Node76&#45;&gt;Node77</title>
<path fill="none" stroke="midnightblue" d="M947.318,-283.018C923.492,-294.841 891.95,-309.594 863,-320.268 853.262,-323.858 842.768,-327.216 832.505,-330.233"/>
<polygon fill="midnightblue" stroke="midnightblue" points="949.001,-286.089 956.375,-278.481 945.866,-279.831 949.001,-286.089"/>
</g>
<!-- Node79 -->
<g id="node16" class="node"><title>Node79</title>
<g id="a_node16"><a xlink:href="classkoala_1_1_spreadsheet_1_1_spreadsheet.html#a988fc1ddf090bf9746135ce759907a5a" target="_top" xlink:title=" ">
<polygon fill="white" stroke="black" points="0,-78.2681 0,-108.268 185,-108.268 185,-78.2681 0,-78.2681"/>
<text text-anchor="start" x="8" y="-96.2681" font-family="Helvetica,sans-Serif" font-size="10.00">koala.Spreadsheet.Spreadsheet.detect</text>
<text text-anchor="middle" x="92.5" y="-85.2681" font-family="Helvetica,sans-Serif" font-size="10.00">_alive</text>
</a>
</g>
</g>
<!-- Node78&#45;&gt;Node79 -->
<g id="edge18" class="edge"><title>Node78&#45;&gt;Node79</title>
<path fill="none" stroke="midnightblue" d="M220.932,-93.2681C209.13,-93.2681 197.091,-93.2681 185.353,-93.2681"/>
<polygon fill="midnightblue" stroke="midnightblue" points="221.228,-96.7682 231.228,-93.2681 221.228,-89.7682 221.228,-96.7682"/>
</g>
<!-- Node80&#45;&gt;Node65 -->
<g id="edge20" class="edge"><title>Node80&#45;&gt;Node65</title>
<path fill="none" stroke="midnightblue" d="M929.53,-187.898C918.605,-192.154 907.819,-197.8 899,-205.268 873.501,-226.861 889.165,-250.488 863,-271.268 852.333,-279.74 838.976,-285.344 825.843,-289.05"/>
<polygon fill="midnightblue" stroke="midnightblue" points="930.861,-191.14 939.121,-184.504 928.526,-184.541 930.861,-191.14"/>
</g>
<!-- Node81 -->
<g id="node18" class="node"><title>Node81</title>
<g id="a_node18"><a xlink:href="classkoala_1_1ast_1_1astnodes_1_1_range_node.html#ab02ae79ae481ec81f309633ac5a99606" target="_top" xlink:title=" ">
<polygon fill="white" stroke="black" points="707,-165.268 707,-195.268 837,-195.268 837,-165.268 707,-165.268"/>
<text text-anchor="start" x="715" y="-183.268" font-family="Helvetica,sans-Serif" font-size="10.00">koala.ast.astnodes.Range</text>
<text text-anchor="middle" x="772" y="-172.268" font-family="Helvetica,sans-Serif" font-size="10.00">Node.get_cells</text>
</a>
</g>
</g>
<!-- Node80&#45;&gt;Node81 -->
<g id="edge21" class="edge"><title>Node80&#45;&gt;Node81</title>
<path fill="none" stroke="midnightblue" d="M929.258,-176.591C900.946,-177.258 866.496,-178.068 837.156,-178.759"/>
<polygon fill="midnightblue" stroke="midnightblue" points="929.476,-180.087 939.391,-176.353 929.311,-173.089 929.476,-180.087"/>
</g>
<!-- Node82 -->
<g id="node19" class="node"><title>Node82</title>
<g id="a_node19"><a xlink:href="classkoala_1_1_cell_1_1_cell.html#ab1fa079614840ca386e0970338c2d8f0" target="_top" xlink:title=" ">
<polygon fill="white" stroke="black" points="719,-116.268 719,-146.268 825,-146.268 825,-116.268 719,-116.268"/>
<text text-anchor="start" x="727" y="-134.268" font-family="Helvetica,sans-Serif" font-size="10.00">koala.Cell.Cell.make</text>
<text text-anchor="middle" x="772" y="-123.268" font-family="Helvetica,sans-Serif" font-size="10.00">_cells</text>
</a>
</g>
</g>
<!-- Node80&#45;&gt;Node82 -->
<g id="edge22" class="edge"><title>Node80&#45;&gt;Node82</title>
<path fill="none" stroke="midnightblue" d="M929.236,-163.618C897.035,-156.951 856.9,-148.64 825.373,-142.112"/>
<polygon fill="midnightblue" stroke="midnightblue" points="928.889,-167.12 939.391,-165.721 930.308,-160.266 928.889,-167.12"/>
</g>
<!-- Node83 -->
<g id="node20" class="node"><title>Node83</title>
<g id="a_node20"><a xlink:href="namespacekoala_1_1excellib.html#ab1d9d224f4ee11e755d39b5ad520f371" target="_top" xlink:title=" ">
<polygon fill="white" stroke="black" points="721,-77.7681 721,-96.7681 823,-96.7681 823,-77.7681 721,-77.7681"/>
<text text-anchor="middle" x="772" y="-84.7681" font-family="Helvetica,sans-Serif" font-size="10.00">koala.excellib.offset</text>
</a>
</g>
</g>
<!-- Node80&#45;&gt;Node83 -->
<g id="edge23" class="edge"><title>Node80&#45;&gt;Node83</title>
<path fill="none" stroke="midnightblue" d="M954.828,-154.494C930.796,-139.1 896.012,-118.713 863,-106.268 850.448,-101.536 836.443,-97.8639 823.291,-95.0654"/>
<polygon fill="midnightblue" stroke="midnightblue" points="953.194,-157.607 963.486,-160.123 957.009,-151.738 953.194,-157.607"/>
</g>
<!-- Node84 -->
<g id="node21" class="node"><title>Node84</title>
<g id="a_node21"><a xlink:href="classkoala_1_1_range_1_1_range_core.html#ac49ba3473e8bcd9585eedd4fa9603bf2" target="_top" xlink:title=" ">
<polygon fill="white" stroke="black" points="709.5,-28.2681 709.5,-58.2681 834.5,-58.2681 834.5,-28.2681 709.5,-28.2681"/>
<text text-anchor="start" x="717.5" y="-46.2681" font-family="Helvetica,sans-Serif" font-size="10.00">koala.Range.RangeCore.</text>
<text text-anchor="middle" x="772" y="-35.2681" font-family="Helvetica,sans-Serif" font-size="10.00">__init__</text>
</a>
</g>
</g>
<!-- Node80&#45;&gt;Node84 -->
<g id="edge24" class="edge"><title>Node80&#45;&gt;Node84</title>
<path fill="none" stroke="midnightblue" d="M965.374,-152.442C942.769,-128.167 903.866,-90.3002 863,-68.2681 854.293,-63.5738 844.625,-59.6971 834.949,-56.515"/>
<polygon fill="midnightblue" stroke="midnightblue" points="963.06,-155.098 972.394,-160.11 968.223,-150.371 963.06,-155.098"/>
</g>
<!-- Node85 -->
<g id="node22" class="node"><title>Node85</title>
<g id="a_node22"><a xlink:href="classkoala_1_1_spreadsheet_1_1_spreadsheet.html#aa23818eb03be8a82c0969bd5338fdf2d" target="_top" xlink:title=" ">
<polygon fill="white" stroke="black" points="686,-214.268 686,-244.268 858,-244.268 858,-214.268 686,-214.268"/>
<text text-anchor="start" x="694" y="-232.268" font-family="Helvetica,sans-Serif" font-size="10.00">koala.Spreadsheet.Spreadsheet.get</text>
<text text-anchor="middle" x="772" y="-221.268" font-family="Helvetica,sans-Serif" font-size="10.00">_arguments_from_ast</text>
</a>
</g>
</g>
<!-- Node80&#45;&gt;Node85 -->
<g id="edge25" class="edge"><title>Node80&#45;&gt;Node85</title>
<path fill="none" stroke="midnightblue" d="M929.529,-189.491C899.611,-197.094 862.78,-206.453 832.363,-214.183"/>
<polygon fill="midnightblue" stroke="midnightblue" points="930.561,-192.84 939.391,-186.985 928.837,-186.056 930.561,-192.84"/>
</g>
<!-- Node85&#45;&gt;Node85 -->
<g id="edge26" class="edge"><title>Node85&#45;&gt;Node85</title>
<path fill="none" stroke="midnightblue" d="M810.025,-254.726C805.306,-259.447 792.631,-262.768 772,-262.768 738.145,-262.768 725.713,-253.825 734.706,-244.427"/>
<polygon fill="midnightblue" stroke="midnightblue" points="813.494,-254.154 809.294,-244.427 806.511,-254.65 813.494,-254.154"/>
</g>
<!-- Node86 -->
<g id="node23" class="node"><title>Node86</title>
<g id="a_node23"><a xlink:href="classkoala_1_1_spreadsheet_1_1_spreadsheet.html#a8ebd4153a8499a4bf7fdf0bde89f12f0" target="_top" xlink:title=" ">
<polygon fill="white" stroke="black" points="462,-182.268 462,-212.268 634,-212.268 634,-182.268 462,-182.268"/>
<text text-anchor="start" x="470" y="-200.268" font-family="Helvetica,sans-Serif" font-size="10.00">koala.Spreadsheet.Spreadsheet.get</text>
<text text-anchor="middle" x="548" y="-189.268" font-family="Helvetica,sans-Serif" font-size="10.00">_pointer_arguments_from_ast</text>
</a>
</g>
</g>
<!-- Node85&#45;&gt;Node86 -->
<g id="edge27" class="edge"><title>Node85&#45;&gt;Node86</title>
<path fill="none" stroke="midnightblue" d="M675.833,-215.55C662.041,-213.562 647.917,-211.526 634.335,-209.569"/>
<polygon fill="midnightblue" stroke="midnightblue" points="675.407,-219.025 685.804,-216.988 676.406,-212.097 675.407,-219.025"/>
</g>
<!-- Node86&#45;&gt;Node78 -->
<g id="edge28" class="edge"><title>Node86&#45;&gt;Node78</title>
<path fill="none" stroke="midnightblue" d="M504.554,-177.907C460.49,-157.808 392.484,-126.787 352.193,-108.409"/>
<polygon fill="midnightblue" stroke="midnightblue" points="503.296,-181.18 513.847,-182.146 506.201,-174.811 503.296,-181.18"/>
</g>
<!-- Node86&#45;&gt;Node86 -->
<g id="edge29" class="edge"><title>Node86&#45;&gt;Node86</title>
<path fill="none" stroke="midnightblue" d="M587.802,-222.726C582.862,-227.447 569.595,-230.768 548,-230.768 512.563,-230.768 499.55,-221.825 508.963,-212.427"/>
<polygon fill="midnightblue" stroke="midnightblue" points="591.268,-222.14 587.037,-212.427 584.288,-222.659 591.268,-222.14"/>
</g>
</g>
</svg>
        <g id="navigator" transform="translate(0 0)" fill="#404254">
                <rect fill="#f2f5e9" fill-opacity="0.5" stroke="#606060" stroke-width=".5" x="0" y="0" width="60" height="60"/>
                <use id="zoomplus" xlink:href="#zoomPlus" x="17" y="9" onmousedown="handleZoom(evt,'in')"/>
                <use id="zoomminus" xlink:href="#zoomMin" x="42" y="9" onmousedown="handleZoom(evt,'out')"/>
                <use id="reset" xlink:href="#resetDef" x="30" y="36" onmousedown="handleReset()"/>
                <g id="arrowUp" xlink:href="#dirArrow" transform="translate(30 24)" onmousedown="handlePan(0,-1)">
                  <use xlink:href="#rim" fill="#404040">
                        <set attributeName="fill" to="#808080" begin="arrowUp.mouseover" end="arrowUp.mouseout"/>
                  </use>
                  <path fill="none" stroke="white" stroke-width="1.5" d="M0,-3.0v7 M-2.5,-0.5L0,-3.0L2.5,-0.5"/>
                </g>
                <g id="arrowRight" xlink:href="#dirArrow" transform="rotate(90) translate(36 -43)" onmousedown="handlePan(1,0)">
                  <use xlink:href="#rim" fill="#404040">
                        <set attributeName="fill" to="#808080" begin="arrowRight.mouseover" end="arrowRight.mouseout"/>
                  </use>
                  <path fill="none" stroke="white" stroke-width="1.5" d="M0,-3.0v7 M-2.5,-0.5L0,-3.0L2.5,-0.5"/>
                </g>
                <g id="arrowDown" xlink:href="#dirArrow" transform="rotate(180) translate(-30 -48)" onmousedown="handlePan(0,1)">
                  <use xlink:href="#rim" fill="#404040">
                        <set attributeName="fill" to="#808080" begin="arrowDown.mouseover" end="arrowDown.mouseout"/>
                  </use>
                  <path fill="none" stroke="white" stroke-width="1.5" d="M0,-3.0v7 M-2.5,-0.5L0,-3.0L2.5,-0.5"/>
                </g>
                <g id="arrowLeft" xlink:href="#dirArrow" transform="rotate(270) translate(-36 17)" onmousedown="handlePan(-1,0)">
                  <use xlink:href="#rim" fill="#404040">
                        <set attributeName="fill" to="#808080" begin="arrowLeft.mouseover" end="arrowLeft.mouseout"/>
                  </use>
                  <path fill="none" stroke="white" stroke-width="1.5" d="M0,-3.0v7 M-2.5,-0.5L0,-3.0L2.5,-0.5"/>
                </g>
        </g>
        <svg viewBox="0 0 15 15" width="100%" height="30px" preserveAspectRatio="xMaxYMin meet">
         <g id="arrow_out" transform="scale(0.3 0.3)">
          <a xlink:href="namespacekoala_1_1utils_aabb45efe6343cf3795888c77a434d47d_icgraph_org.svg" target="_base">
           <rect id="button" ry="5" rx="5" y="6" x="6" height="38" width="38"
                fill="#f2f5e9" fill-opacity="0.5" stroke="#606060" stroke-width="1.0"/>
           <path id="arrow"
             d="M 11.500037,31.436501 C 11.940474,20.09759 22.043105,11.32322 32.158766,21.979434 L 37.068811,17.246167 C 37.068811,17.246167 37.088388,32 37.088388,32 L 22.160133,31.978069 C 22.160133,31.978069 26.997745,27.140456 26.997745,27.140456 C 18.528582,18.264221 13.291696,25.230495 11.500037,31.436501 z"
             style="fill:#404040;"/>
          </a>
         </g>
        </svg>
</svg>
