<?xml version="1.0" encoding="UTF-8" standalone="no"?>
<!DOCTYPE svg PUBLIC "-//W3C//DTD SVG 1.1//EN"
 "http://www.w3.org/Graphics/SVG/1.1/DTD/svg11.dtd">
<!-- Generated by graphviz version 2.38.0 (20140413.2041)
 -->
<!-- Title: koala.excellib.yearfrac Pages: 1 -->
<svg width="858pt" height="174pt"
 viewBox="0.00 0.00 858.00 174.39" xmlns="http://www.w3.org/2000/svg" xmlns:xlink="http://www.w3.org/1999/xlink">
<g id="graph0" class="graph" transform="scale(1 1) rotate(0) translate(4 170.394)">
<title>koala.excellib.yearfrac</title>
<polygon fill="white" stroke="none" points="-4,4 -4,-170.394 854,-170.394 854,4 -4,4"/>
<!-- Node180 -->
<g id="node1" class="node"><title>Node180</title>
<g id="a_node1"><a xlink:title=" ">
<polygon fill="#bfbfbf" stroke="black" points="0,-99.8943 0,-118.894 113,-118.894 113,-99.8943 0,-99.8943"/>
<text text-anchor="middle" x="56.5" y="-106.894" font-family="Helvetica,sans-Serif" font-size="10.00">koala.excellib.yearfrac</text>
</a>
</g>
</g>
<!-- Node181 -->
<g id="node2" class="node"><title>Node181</title>
<g id="a_node2"><a xlink:href="namespacekoala_1_1excellib.html#ac993fb561979c98ece430fb6d643ce17" target="_top" xlink:title=" ">
<polygon fill="white" stroke="black" points="149,-80.8943 149,-99.8943 247,-99.8943 247,-80.8943 149,-80.8943"/>
<text text-anchor="middle" x="198" y="-87.8943" font-family="Helvetica,sans-Serif" font-size="10.00">koala.excellib.date</text>
</a>
</g>
</g>
<!-- Node180&#45;&gt;Node181 -->
<g id="edge1" class="edge"><title>Node180&#45;&gt;Node181</title>
<path fill="none" stroke="midnightblue" d="M113.035,-101.83C121.554,-100.67 130.369,-99.4694 138.941,-98.3019"/>
<polygon fill="midnightblue" stroke="midnightblue" points="139.425,-101.768 148.861,-96.9509 138.48,-94.8325 139.425,-101.768"/>
</g>
<!-- Node184 -->
<g id="node5" class="node"><title>Node184</title>
<g id="a_node5"><a xlink:href="namespacekoala_1_1utils.html#af016160edea2b46cb26db3ed307c9648" target="_top" xlink:title=" ">
<polygon fill="white" stroke="black" points="741,-55.8943 741,-74.8943 850,-74.8943 850,-55.8943 741,-55.8943"/>
<text text-anchor="middle" x="795.5" y="-62.8943" font-family="Helvetica,sans-Serif" font-size="10.00">koala.utils.is_number</text>
</a>
</g>
</g>
<!-- Node180&#45;&gt;Node184 -->
<g id="edge9" class="edge"><title>Node180&#45;&gt;Node184</title>
<path fill="none" stroke="midnightblue" d="M86.3051,-118.935C137.937,-135.161 249.928,-166.394 347,-166.394 347,-166.394 347,-166.394 500.5,-166.394 605.488,-166.394 720.682,-108.074 769.948,-80.067"/>
<polygon fill="midnightblue" stroke="midnightblue" points="771.991,-82.9288 778.9,-74.8961 768.49,-76.8674 771.991,-82.9288"/>
</g>
<!-- Node185 -->
<g id="node6" class="node"><title>Node185</title>
<g id="a_node6"><a xlink:href="namespacekoala_1_1utils.html#aa5132ee97ef859e71f955428648f3359" target="_top" xlink:title=" ">
<polygon fill="white" stroke="black" points="586,-74.8943 586,-93.8943 705,-93.8943 705,-74.8943 586,-74.8943"/>
<text text-anchor="middle" x="645.5" y="-81.8943" font-family="Helvetica,sans-Serif" font-size="10.00">koala.utils.is_leap_year</text>
</a>
</g>
</g>
<!-- Node180&#45;&gt;Node185 -->
<g id="edge8" class="edge"><title>Node180&#45;&gt;Node185</title>
<path fill="none" stroke="midnightblue" d="M113.141,-112.163C204.647,-115.894 392.476,-120.094 550,-101.394 562.156,-99.9511 575.115,-97.937 587.415,-95.7983"/>
<polygon fill="midnightblue" stroke="midnightblue" points="588.333,-99.1896 597.56,-93.9822 587.1,-92.2991 588.333,-99.1896"/>
</g>
<!-- Node186 -->
<g id="node7" class="node"><title>Node186</title>
<g id="a_node7"><a xlink:href="namespacekoala_1_1utils.html#a37fde0505838c8954ad814bd03f331c3" target="_top" xlink:title=" ">
<polygon fill="white" stroke="black" points="287,-4.89426 287,-23.8943 409,-23.8943 409,-4.89426 287,-4.89426"/>
<text text-anchor="middle" x="348" y="-11.8943" font-family="Helvetica,sans-Serif" font-size="10.00">koala.utils.date_from_int</text>
</a>
</g>
</g>
<!-- Node180&#45;&gt;Node186 -->
<g id="edge10" class="edge"><title>Node180&#45;&gt;Node186</title>
<path fill="none" stroke="midnightblue" d="M78.6805,-99.7941C97.0577,-91.6594 124.487,-79.9816 149,-71.3943 199.573,-53.6773 258.759,-37.1769 299.16,-26.5361"/>
<polygon fill="midnightblue" stroke="midnightblue" points="300.221,-29.8763 309.01,-23.9598 298.45,-23.1041 300.221,-29.8763"/>
</g>
<!-- Node182 -->
<g id="node3" class="node"><title>Node182</title>
<g id="a_node3"><a xlink:href="namespacekoala_1_1utils.html#a6a29ca0b64c84fe42f7d41190820477c" target="_top" xlink:title=" ">
<polygon fill="white" stroke="black" points="283,-80.8943 283,-99.8943 413,-99.8943 413,-80.8943 283,-80.8943"/>
<text text-anchor="middle" x="348" y="-87.8943" font-family="Helvetica,sans-Serif" font-size="10.00">koala.utils.normalize_year</text>
</a>
</g>
</g>
<!-- Node181&#45;&gt;Node182 -->
<g id="edge2" class="edge"><title>Node181&#45;&gt;Node182</title>
<path fill="none" stroke="midnightblue" d="M247.051,-90.3943C255.241,-90.3943 263.917,-90.3943 272.599,-90.3943"/>
<polygon fill="midnightblue" stroke="midnightblue" points="272.767,-93.8944 282.767,-90.3943 272.767,-86.8944 272.767,-93.8944"/>
</g>
<!-- Node183 -->
<g id="node4" class="node"><title>Node183</title>
<g id="a_node4"><a xlink:href="namespacekoala_1_1utils.html#a6ca2acad4db5fefe21c0941c1622f5e4" target="_top" xlink:title=" ">
<polygon fill="white" stroke="black" points="449,-31.3943 449,-61.3943 550,-61.3943 550,-31.3943 449,-31.3943"/>
<text text-anchor="start" x="457" y="-49.3943" font-family="Helvetica,sans-Serif" font-size="10.00">koala.utils.get_max</text>
<text text-anchor="middle" x="499.5" y="-38.3943" font-family="Helvetica,sans-Serif" font-size="10.00">_days_in_month</text>
</a>
</g>
</g>
<!-- Node182&#45;&gt;Node183 -->
<g id="edge3" class="edge"><title>Node182&#45;&gt;Node183</title>
<path fill="none" stroke="midnightblue" d="M381.439,-80.8469C398.263,-75.8955 419.35,-69.6893 438.975,-63.9134"/>
<polygon fill="midnightblue" stroke="midnightblue" points="440.164,-67.2119 448.769,-61.0308 438.188,-60.4967 440.164,-67.2119"/>
</g>
<!-- Node182&#45;&gt;Node185 -->
<g id="edge7" class="edge"><title>Node182&#45;&gt;Node185</title>
<path fill="none" stroke="midnightblue" d="M413.119,-89.0923C460.978,-88.1206 526.292,-86.7944 575.324,-85.7988"/>
<polygon fill="midnightblue" stroke="midnightblue" points="575.601,-89.294 585.528,-85.5917 575.459,-82.2955 575.601,-89.294"/>
</g>
<!-- Node183&#45;&gt;Node184 -->
<g id="edge4" class="edge"><title>Node183&#45;&gt;Node184</title>
<path fill="none" stroke="midnightblue" d="M550.041,-49.5959C599.699,-52.805 676.362,-57.7595 730.578,-61.2632"/>
<polygon fill="midnightblue" stroke="midnightblue" points="730.563,-64.7695 740.768,-61.9218 731.014,-57.784 730.563,-64.7695"/>
</g>
<!-- Node183&#45;&gt;Node185 -->
<g id="edge5" class="edge"><title>Node183&#45;&gt;Node185</title>
<path fill="none" stroke="midnightblue" d="M550.057,-59.4717C565.807,-63.6279 583.148,-68.2043 598.627,-72.2888"/>
<polygon fill="midnightblue" stroke="midnightblue" points="597.932,-75.7251 608.494,-74.8926 599.718,-68.9568 597.932,-75.7251"/>
</g>
<!-- Node185&#45;&gt;Node184 -->
<g id="edge6" class="edge"><title>Node185&#45;&gt;Node184</title>
<path fill="none" stroke="midnightblue" d="M705.419,-76.8304C713.671,-75.7709 722.185,-74.6779 730.526,-73.6072"/>
<polygon fill="midnightblue" stroke="midnightblue" points="731.112,-77.0608 740.584,-72.3158 730.22,-70.1178 731.112,-77.0608"/>
</g>
<!-- Node186&#45;&gt;Node183 -->
<g id="edge13" class="edge"><title>Node186&#45;&gt;Node183</title>
<path fill="none" stroke="midnightblue" d="M393.45,-23.9087C407.783,-26.9766 423.905,-30.4274 439.136,-33.6876"/>
<polygon fill="midnightblue" stroke="midnightblue" points="438.478,-37.1259 448.989,-35.7965 439.943,-30.2809 438.478,-37.1259"/>
</g>
<!-- Node186&#45;&gt;Node184 -->
<g id="edge11" class="edge"><title>Node186&#45;&gt;Node184</title>
<path fill="none" stroke="midnightblue" d="M409.195,-6.69329C422.295,-5.31959 436.095,-4.10192 449,-3.39426 493.822,-0.936486 505.457,2.16537 550,-3.39426 624.646,-12.7112 709.205,-37.441 756.762,-52.704"/>
<polygon fill="midnightblue" stroke="midnightblue" points="755.74,-56.0518 766.332,-55.8082 757.9,-49.3934 755.74,-56.0518"/>
</g>
<!-- Node186&#45;&gt;Node185 -->
<g id="edge12" class="edge"><title>Node186&#45;&gt;Node185</title>
<path fill="none" stroke="midnightblue" d="M409.4,-8.02451C450.101,-5.76312 504.464,-6.7373 550,-21.3943 579.679,-30.9474 608.748,-52.735 626.637,-67.9985"/>
<polygon fill="midnightblue" stroke="midnightblue" points="624.653,-70.9137 634.475,-74.8852 629.273,-65.6553 624.653,-70.9137"/>
</g>
</g>
</svg>
