<?xml version="1.0" encoding="UTF-8" standalone="no"?>
<!DOCTYPE svg PUBLIC "-//W3C//DTD SVG 1.1//EN"
 "http://www.w3.org/Graphics/SVG/1.1/DTD/svg11.dtd">
<!-- Generated by graphviz version 2.38.0 (20140413.2041)
 -->
<!-- Title: koala.reader.detect_worksheets Pages: 1 -->
<svg width="426pt" height="116pt"
 viewBox="0.00 0.00 426.00 115.50" xmlns="http://www.w3.org/2000/svg" xmlns:xlink="http://www.w3.org/1999/xlink">
<g id="graph0" class="graph" transform="scale(1 1) rotate(0) translate(4 111.5)">
<title>koala.reader.detect_worksheets</title>
<polygon fill="white" stroke="none" points="-4,4 -4,-111.5 422,-111.5 422,4 -4,4"/>
<!-- Node0 -->
<g id="node1" class="node"><title>Node0</title>
<g id="a_node1"><a xlink:title=" ">
<polygon fill="#bfbfbf" stroke="black" points="0,-33 0,-63 100,-63 100,-33 0,-33"/>
<text text-anchor="start" x="8" y="-51" font-family="Helvetica,sans-Serif" font-size="10.00">koala.reader.detect</text>
<text text-anchor="middle" x="50" y="-40" font-family="Helvetica,sans-Serif" font-size="10.00">_worksheets</text>
</a>
</g>
</g>
<!-- Node1 -->
<g id="node2" class="node"><title>Node1</title>
<g id="a_node2"><a xlink:href="namespacekoala_1_1reader.html#a5f9592bd3f289279493ce69276c63427" target="_top" xlink:title=" ">
<polygon fill="white" stroke="black" points="136,-77 136,-107 265,-107 265,-77 136,-77"/>
<text text-anchor="start" x="144" y="-95" font-family="Helvetica,sans-Serif" font-size="10.00">koala.reader.read_content</text>
<text text-anchor="middle" x="200.5" y="-84" font-family="Helvetica,sans-Serif" font-size="10.00">_types</text>
</a>
</g>
</g>
<!-- Node0&#45;&gt;Node1 -->
<g id="edge1" class="edge"><title>Node0&#45;&gt;Node1</title>
<path fill="none" stroke="midnightblue" d="M100.036,-62.5292C112.49,-66.2194 126.019,-70.2278 138.97,-74.0653"/>
<polygon fill="midnightblue" stroke="midnightblue" points="138.152,-77.4733 148.735,-76.9584 140.141,-70.7617 138.152,-77.4733"/>
</g>
<!-- Node2 -->
<g id="node3" class="node"><title>Node2</title>
<g id="a_node3"><a xlink:href="namespacekoala_1_1reader.html#ae778d4e8030a1008c0a89bf89da6fcd9" target="_top" xlink:title=" ">
<polygon fill="white" stroke="black" points="144,-38.5 144,-57.5 257,-57.5 257,-38.5 144,-38.5"/>
<text text-anchor="middle" x="200.5" y="-45.5" font-family="Helvetica,sans-Serif" font-size="10.00">koala.reader.read_rels</text>
</a>
</g>
</g>
<!-- Node0&#45;&gt;Node2 -->
<g id="edge2" class="edge"><title>Node0&#45;&gt;Node2</title>
<path fill="none" stroke="midnightblue" d="M100.036,-48C110.773,-48 122.308,-48 133.584,-48"/>
<polygon fill="midnightblue" stroke="midnightblue" points="133.836,-51.5001 143.836,-48 133.836,-44.5001 133.836,-51.5001"/>
</g>
<!-- Node4 -->
<g id="node5" class="node"><title>Node4</title>
<g id="a_node5"><a xlink:href="namespacekoala_1_1reader.html#ab5a4c4fc938a80a54bcbe8fe8aad78b4" target="_top" xlink:title=" ">
<polygon fill="white" stroke="black" points="137.5,-0.5 137.5,-19.5 263.5,-19.5 263.5,-0.5 137.5,-0.5"/>
<text text-anchor="middle" x="200.5" y="-7.5" font-family="Helvetica,sans-Serif" font-size="10.00">koala.reader.read_sheets</text>
</a>
</g>
</g>
<!-- Node0&#45;&gt;Node4 -->
<g id="edge4" class="edge"><title>Node0&#45;&gt;Node4</title>
<path fill="none" stroke="midnightblue" d="M100.036,-35.4521C116.827,-31.1554 135.57,-26.3593 152.219,-22.0989"/>
<polygon fill="midnightblue" stroke="midnightblue" points="153.459,-25.3945 162.279,-19.5246 151.723,-18.613 153.459,-25.3945"/>
</g>
<!-- Node3 -->
<g id="node4" class="node"><title>Node3</title>
<g id="a_node4"><a xlink:href="namespacekoala_1_1utils.html#a314c097702e0771ec09427982ac1a2a3" target="_top" xlink:title=" ">
<polygon fill="white" stroke="black" points="301,-19.5 301,-38.5 418,-38.5 418,-19.5 301,-19.5"/>
<text text-anchor="middle" x="359.5" y="-26.5" font-family="Helvetica,sans-Serif" font-size="10.00">koala.utils.safe_iterator</text>
</a>
</g>
</g>
<!-- Node2&#45;&gt;Node3 -->
<g id="edge3" class="edge"><title>Node2&#45;&gt;Node3</title>
<path fill="none" stroke="midnightblue" d="M257.294,-41.2478C268.091,-39.9412 279.515,-38.5587 290.648,-37.2114"/>
<polygon fill="midnightblue" stroke="midnightblue" points="291.256,-40.6634 300.764,-35.9872 290.415,-33.7141 291.256,-40.6634"/>
</g>
<!-- Node4&#45;&gt;Node3 -->
<g id="edge5" class="edge"><title>Node4&#45;&gt;Node3</title>
<path fill="none" stroke="midnightblue" d="M263.551,-17.5093C272.518,-18.5945 281.786,-19.7161 290.856,-20.8138"/>
<polygon fill="midnightblue" stroke="midnightblue" points="290.638,-24.3129 300.986,-22.0397 291.479,-17.3636 290.638,-24.3129"/>
</g>
</g>
</svg>
