<?xml version="1.0" encoding="UTF-8" standalone="no"?>
<!DOCTYPE svg PUBLIC "-//W3C//DTD SVG 1.1//EN"
 "http://www.w3.org/Graphics/SVG/1.1/DTD/svg11.dtd">
<!-- Generated by graphviz version 2.38.0 (20140413.2041)
 -->
<!-- Title: koala.ast.graph_from_seeds Pages: 1 -->
<!--zoomable 132 -->
<svg id="main" version="1.1" xmlns="http://www.w3.org/2000/svg" xmlns:xlink="http://www.w3.org/1999/xlink" xml:space="preserve" onload="init(evt)">
<style type="text/css"><![CDATA[
.edge:hover path { stroke: red; }
.edge:hover polygon { stroke: red; fill: red; }
]]></style>
<script type="text/javascript"><![CDATA[
var edges = document.getElementsByTagName('g');
if (edges && edges.length) {
  for (var i=0;i<edges.length;i++) {
    if (edges[i].id.substr(0,4)=='edge') {
      edges[i].setAttribute('class','edge');
    }
  }
}
]]></script>
        <defs>
                <circle id="rim" cx="0" cy="0" r="7"/>
                <circle id="rim2" cx="0" cy="0" r="3.5"/>
                <g id="zoomPlus">
                        <use xlink:href="#rim" fill="#404040">
                                <set attributeName="fill" to="#808080" begin="zoomplus.mouseover" end="zoomplus.mouseout"/>
                        </use>
                        <path d="M-4,0h8M0,-4v8" fill="none" stroke="white" stroke-width="1.5" pointer-events="none"/>
                </g>
                <g id="zoomMin">
                        <use xlink:href="#rim" fill="#404040">
                                <set attributeName="fill" to="#808080" begin="zoomminus.mouseover" end="zoomminus.mouseout"/>
                        </use>
                        <path d="M-4,0h8" fill="none" stroke="white" stroke-width="1.5" pointer-events="none"/>
                </g>
                <g id="dirArrow">
                        <path fill="none" stroke="white" stroke-width="1.5" d="M0,-3.0v7 M-2.5,-0.5L0,-3.0L2.5,-0.5"/>
                </g>
               <g id="resetDef">
                       <use xlink:href="#rim2" fill="#404040">
                               <set attributeName="fill" to="#808080" begin="reset.mouseover" end="reset.mouseout"/>
                       </use>
               </g>
        </defs>

<script type="text/javascript">
var viewWidth = 783;
var viewHeight = 132;
var sectionId = 'dynsection-5';
</script>
<script xlink:href="svgpan.js"/>
<svg id="graph" class="graph">
<g id="viewport">
<title>koala.ast.graph_from_seeds</title>
<polygon fill="white" stroke="none" points="-4,4 -4,-128 779,-128 779,4 -4,4"/>
<!-- Node61 -->
<g id="node1" class="node"><title>Node61</title>
<g id="a_node1"><a xlink:title=" ">
<polygon fill="#bfbfbf" stroke="black" points="668,-49.5 668,-79.5 775,-79.5 775,-49.5 668,-49.5"/>
<text text-anchor="start" x="676" y="-67.5" font-family="Helvetica,sans-Serif" font-size="10.00">koala.ast.graph_from</text>
<text text-anchor="middle" x="721.5" y="-56.5" font-family="Helvetica,sans-Serif" font-size="10.00">_seeds</text>
</a>
</g>
</g>
<!-- Node62 -->
<g id="node2" class="node"><title>Node62</title>
<g id="a_node2"><a xlink:href="classkoala_1_1_spreadsheet_1_1_spreadsheet.html#a80d6ad19a13ccd80ca76f3f94975f7b5" target="_top" xlink:title=" ">
<polygon fill="white" stroke="black" points="448,-93.5 448,-123.5 622,-123.5 622,-93.5 448,-93.5"/>
<text text-anchor="start" x="456" y="-111.5" font-family="Helvetica,sans-Serif" font-size="10.00">koala.Spreadsheet.Spreadsheet.gen</text>
<text text-anchor="middle" x="535" y="-100.5" font-family="Helvetica,sans-Serif" font-size="10.00">_graph</text>
</a>
</g>
</g>
<!-- Node61&#45;&gt;Node62 -->
<g id="edge1" class="edge"><title>Node61&#45;&gt;Node62</title>
<path fill="none" stroke="midnightblue" d="M657.888,-79.4318C638.895,-83.9613 618.027,-88.9381 599.008,-93.4738"/>
<polygon fill="midnightblue" stroke="midnightblue" points="658.714,-82.833 667.63,-77.1086 657.091,-76.024 658.714,-82.833"/>
</g>
<!-- Node63 -->
<g id="node3" class="node"><title>Node63</title>
<g id="a_node3"><a xlink:href="classkoala_1_1_spreadsheet_1_1_spreadsheet.html#affd17089825c4b3391c4d6b9b702209c" target="_top" xlink:title=" ">
<polygon fill="white" stroke="black" points="438,-55 438,-74 632,-74 632,-55 438,-55"/>
<text text-anchor="middle" x="535" y="-62" font-family="Helvetica,sans-Serif" font-size="10.00">koala.Spreadsheet.Spreadsheet.cell_add</text>
</a>
</g>
</g>
<!-- Node61&#45;&gt;Node63 -->
<g id="edge2" class="edge"><title>Node61&#45;&gt;Node63</title>
<path fill="none" stroke="midnightblue" d="M657.443,-64.5C649.238,-64.5 640.69,-64.5 632.097,-64.5"/>
<polygon fill="midnightblue" stroke="midnightblue" points="657.63,-68.0001 667.63,-64.5 657.63,-61.0001 657.63,-68.0001"/>
</g>
<!-- Node67 -->
<g id="node7" class="node"><title>Node67</title>
<g id="a_node7"><a xlink:href="classkoala_1_1_spreadsheet_1_1_spreadsheet.html#aa7bdaffc24c26fbf18d5b752b7e49df2" target="_top" xlink:title=" ">
<polygon fill="white" stroke="black" points="448.5,-3.5 448.5,-33.5 621.5,-33.5 621.5,-3.5 448.5,-3.5"/>
<text text-anchor="start" x="456.5" y="-21.5" font-family="Helvetica,sans-Serif" font-size="10.00">koala.Spreadsheet.Spreadsheet.cell</text>
<text text-anchor="middle" x="535" y="-10.5" font-family="Helvetica,sans-Serif" font-size="10.00">_set_formula</text>
</a>
</g>
</g>
<!-- Node61&#45;&gt;Node67 -->
<g id="edge6" class="edge"><title>Node61&#45;&gt;Node67</title>
<path fill="none" stroke="midnightblue" d="M657.765,-48.8587C637.917,-43.9101 616.031,-38.4535 596.353,-33.5474"/>
<polygon fill="midnightblue" stroke="midnightblue" points="657.08,-52.295 667.63,-51.3182 658.773,-45.503 657.08,-52.295"/>
</g>
<!-- Node64 -->
<g id="node4" class="node"><title>Node64</title>
<g id="a_node4"><a xlink:href="classkoala_1_1_spreadsheet_1_1_spreadsheet.html#a7481e9d34fe1d4347b3b6eed3462b545" target="_top" xlink:title=" ">
<polygon fill="white" stroke="black" points="208,-99 208,-118 402,-118 402,-99 208,-99"/>
<text text-anchor="middle" x="305" y="-106" font-family="Helvetica,sans-Serif" font-size="10.00">koala.Spreadsheet.Spreadsheet.add_cell</text>
</a>
</g>
</g>
<!-- Node63&#45;&gt;Node64 -->
<g id="edge3" class="edge"><title>Node63&#45;&gt;Node64</title>
<path fill="none" stroke="midnightblue" d="M474.366,-76.0083C437.335,-83.1546 390.311,-92.2296 355.376,-98.9713"/>
<polygon fill="midnightblue" stroke="midnightblue" points="475.372,-79.3789 484.527,-74.0473 474.045,-72.5057 475.372,-79.3789"/>
</g>
<!-- Node65 -->
<g id="node5" class="node"><title>Node65</title>
<g id="a_node5"><a xlink:href="classkoala_1_1_spreadsheet_1_1_spreadsheet.html#a2f695c5a3bc3f8812609bd2ba4ebb784" target="_top" xlink:title=" ">
<polygon fill="white" stroke="black" points="218.5,-49.5 218.5,-79.5 391.5,-79.5 391.5,-49.5 218.5,-49.5"/>
<text text-anchor="start" x="226.5" y="-67.5" font-family="Helvetica,sans-Serif" font-size="10.00">koala.Spreadsheet.Spreadsheet.cell</text>
<text text-anchor="middle" x="305" y="-56.5" font-family="Helvetica,sans-Serif" font-size="10.00">_set_value</text>
</a>
</g>
</g>
<!-- Node63&#45;&gt;Node65 -->
<g id="edge4" class="edge"><title>Node63&#45;&gt;Node65</title>
<path fill="none" stroke="midnightblue" d="M427.853,-64.5C415.764,-64.5 403.557,-64.5 391.778,-64.5"/>
<polygon fill="midnightblue" stroke="midnightblue" points="427.968,-68.0001 437.968,-64.5 427.968,-61.0001 427.968,-68.0001"/>
</g>
<!-- Node66 -->
<g id="node6" class="node"><title>Node66</title>
<g id="a_node6"><a xlink:href="classkoala_1_1_spreadsheet_1_1_spreadsheet.html#a1330ffeda88c7bc6905a00e80203eb78" target="_top" xlink:title=" ">
<polygon fill="white" stroke="black" points="0,-49.5 0,-79.5 172,-79.5 172,-49.5 0,-49.5"/>
<text text-anchor="start" x="8" y="-67.5" font-family="Helvetica,sans-Serif" font-size="10.00">koala.Spreadsheet.Spreadsheet.set</text>
<text text-anchor="middle" x="86" y="-56.5" font-family="Helvetica,sans-Serif" font-size="10.00">_value</text>
</a>
</g>
</g>
<!-- Node65&#45;&gt;Node66 -->
<g id="edge5" class="edge"><title>Node65&#45;&gt;Node66</title>
<path fill="none" stroke="midnightblue" d="M208.209,-64.5C196.197,-64.5 183.975,-64.5 172.141,-64.5"/>
<polygon fill="midnightblue" stroke="midnightblue" points="208.236,-68.0001 218.236,-64.5 208.236,-61.0001 208.236,-68.0001"/>
</g>
<!-- Node68 -->
<g id="node8" class="node"><title>Node68</title>
<g id="a_node8"><a xlink:href="classkoala_1_1_spreadsheet_1_1_spreadsheet.html#af50724d01ff5b3ae09ecc1bdfbfb0fed" target="_top" xlink:title=" ">
<polygon fill="white" stroke="black" points="219,-0.5 219,-30.5 391,-30.5 391,-0.5 219,-0.5"/>
<text text-anchor="start" x="227" y="-18.5" font-family="Helvetica,sans-Serif" font-size="10.00">koala.Spreadsheet.Spreadsheet.set</text>
<text text-anchor="middle" x="305" y="-7.5" font-family="Helvetica,sans-Serif" font-size="10.00">_formula</text>
</a>
</g>
</g>
<!-- Node67&#45;&gt;Node68 -->
<g id="edge7" class="edge"><title>Node67&#45;&gt;Node68</title>
<path fill="none" stroke="midnightblue" d="M438.278,-17.2405C422.674,-17.0352 406.6,-16.8237 391.269,-16.622"/>
<polygon fill="midnightblue" stroke="midnightblue" points="438.407,-20.7424 448.453,-17.3744 438.499,-13.743 438.407,-20.7424"/>
</g>
</g>
</svg>
        <g id="navigator" transform="translate(0 0)" fill="#404254">
                <rect fill="#f2f5e9" fill-opacity="0.5" stroke="#606060" stroke-width=".5" x="0" y="0" width="60" height="60"/>
                <use id="zoomplus" xlink:href="#zoomPlus" x="17" y="9" onmousedown="handleZoom(evt,'in')"/>
                <use id="zoomminus" xlink:href="#zoomMin" x="42" y="9" onmousedown="handleZoom(evt,'out')"/>
                <use id="reset" xlink:href="#resetDef" x="30" y="36" onmousedown="handleReset()"/>
                <g id="arrowUp" xlink:href="#dirArrow" transform="translate(30 24)" onmousedown="handlePan(0,-1)">
                  <use xlink:href="#rim" fill="#404040">
                        <set attributeName="fill" to="#808080" begin="arrowUp.mouseover" end="arrowUp.mouseout"/>
                  </use>
                  <path fill="none" stroke="white" stroke-width="1.5" d="M0,-3.0v7 M-2.5,-0.5L0,-3.0L2.5,-0.5"/>
                </g>
                <g id="arrowRight" xlink:href="#dirArrow" transform="rotate(90) translate(36 -43)" onmousedown="handlePan(1,0)">
                  <use xlink:href="#rim" fill="#404040">
                        <set attributeName="fill" to="#808080" begin="arrowRight.mouseover" end="arrowRight.mouseout"/>
                  </use>
                  <path fill="none" stroke="white" stroke-width="1.5" d="M0,-3.0v7 M-2.5,-0.5L0,-3.0L2.5,-0.5"/>
                </g>
                <g id="arrowDown" xlink:href="#dirArrow" transform="rotate(180) translate(-30 -48)" onmousedown="handlePan(0,1)">
                  <use xlink:href="#rim" fill="#404040">
                        <set attributeName="fill" to="#808080" begin="arrowDown.mouseover" end="arrowDown.mouseout"/>
                  </use>
                  <path fill="none" stroke="white" stroke-width="1.5" d="M0,-3.0v7 M-2.5,-0.5L0,-3.0L2.5,-0.5"/>
                </g>
                <g id="arrowLeft" xlink:href="#dirArrow" transform="rotate(270) translate(-36 17)" onmousedown="handlePan(-1,0)">
                  <use xlink:href="#rim" fill="#404040">
                        <set attributeName="fill" to="#808080" begin="arrowLeft.mouseover" end="arrowLeft.mouseout"/>
                  </use>
                  <path fill="none" stroke="white" stroke-width="1.5" d="M0,-3.0v7 M-2.5,-0.5L0,-3.0L2.5,-0.5"/>
                </g>
        </g>
        <svg viewBox="0 0 15 15" width="100%" height="30px" preserveAspectRatio="xMaxYMin meet">
         <g id="arrow_out" transform="scale(0.3 0.3)">
          <a xlink:href="namespacekoala_1_1ast_aa55446c8aa764f09775f006ee775ec7b_icgraph_org.svg" target="_base">
           <rect id="button" ry="5" rx="5" y="6" x="6" height="38" width="38"
                fill="#f2f5e9" fill-opacity="0.5" stroke="#606060" stroke-width="1.0"/>
           <path id="arrow"
             d="M 11.500037,31.436501 C 11.940474,20.09759 22.043105,11.32322 32.158766,21.979434 L 37.068811,17.246167 C 37.068811,17.246167 37.088388,32 37.088388,32 L 22.160133,31.978069 C 22.160133,31.978069 26.997745,27.140456 26.997745,27.140456 C 18.528582,18.264221 13.291696,25.230495 11.500037,31.436501 z"
             style="fill:#404040;"/>
          </a>
         </g>
        </svg>
</svg>
