<?xml version="1.0" encoding="UTF-8" standalone="no"?>
<!DOCTYPE svg PUBLIC "-//W3C//DTD SVG 1.1//EN"
 "http://www.w3.org/Graphics/SVG/1.1/DTD/svg11.dtd">
<!-- Generated by graphviz version 2.38.0 (20140413.2041)
 -->
<!-- Title: koala.excellib.month Pages: 1 -->
<svg width="709pt" height="135pt"
 viewBox="0.00 0.00 709.00 134.50" xmlns="http://www.w3.org/2000/svg" xmlns:xlink="http://www.w3.org/1999/xlink">
<g id="graph0" class="graph" transform="scale(1 1) rotate(0) translate(4 130.5)">
<title>koala.excellib.month</title>
<polygon fill="white" stroke="none" points="-4,4 -4,-130.5 705,-130.5 705,4 -4,4"/>
<!-- Node76 -->
<g id="node1" class="node"><title>Node76</title>
<g id="a_node1"><a xlink:title=" ">
<polygon fill="#bfbfbf" stroke="black" points="0,-107 0,-126 106,-126 106,-107 0,-107"/>
<text text-anchor="middle" x="53" y="-114" font-family="Helvetica,sans-Serif" font-size="10.00">koala.excellib.month</text>
</a>
</g>
</g>
<!-- Node77 -->
<g id="node2" class="node"><title>Node77</title>
<g id="a_node2"><a xlink:href="namespacekoala_1_1utils.html#af016160edea2b46cb26db3ed307c9648" target="_top" xlink:title=" ">
<polygon fill="white" stroke="black" points="592,-69 592,-88 701,-88 701,-69 592,-69"/>
<text text-anchor="middle" x="646.5" y="-76" font-family="Helvetica,sans-Serif" font-size="10.00">koala.utils.is_number</text>
</a>
</g>
</g>
<!-- Node76&#45;&gt;Node77 -->
<g id="edge1" class="edge"><title>Node76&#45;&gt;Node77</title>
<path fill="none" stroke="midnightblue" d="M106.269,-117.458C197.791,-118.482 392.852,-117.753 556,-97.5 569.566,-95.8159 584.126,-93.1167 597.479,-90.2754"/>
<polygon fill="midnightblue" stroke="midnightblue" points="598.403,-93.6559 607.417,-88.0893 596.899,-86.8193 598.403,-93.6559"/>
</g>
<!-- Node78 -->
<g id="node3" class="node"><title>Node78</title>
<g id="a_node3"><a xlink:href="namespacekoala_1_1utils.html#a37fde0505838c8954ad814bd03f331c3" target="_top" xlink:title=" ">
<polygon fill="white" stroke="black" points="142,-69 142,-88 264,-88 264,-69 142,-69"/>
<text text-anchor="middle" x="203" y="-76" font-family="Helvetica,sans-Serif" font-size="10.00">koala.utils.date_from_int</text>
</a>
</g>
</g>
<!-- Node76&#45;&gt;Node78 -->
<g id="edge2" class="edge"><title>Node76&#45;&gt;Node78</title>
<path fill="none" stroke="midnightblue" d="M91.3466,-106.911C110.701,-101.942 134.53,-95.8233 155.113,-90.5387"/>
<polygon fill="midnightblue" stroke="midnightblue" points="156.107,-93.8971 164.922,-88.0201 154.366,-87.117 156.107,-93.8971"/>
</g>
<!-- Node78&#45;&gt;Node77 -->
<g id="edge3" class="edge"><title>Node78&#45;&gt;Node77</title>
<path fill="none" stroke="midnightblue" d="M264.153,-82.1141C276.03,-82.6918 288.405,-83.1982 300,-83.5 398.252,-86.0569 512.258,-83.293 581.609,-80.9716"/>
<polygon fill="midnightblue" stroke="midnightblue" points="582.053,-84.4585 591.928,-80.6184 581.814,-77.4626 582.053,-84.4585"/>
</g>
<!-- Node79 -->
<g id="node4" class="node"><title>Node79</title>
<g id="a_node4"><a xlink:href="namespacekoala_1_1utils.html#aa5132ee97ef859e71f955428648f3359" target="_top" xlink:title=" ">
<polygon fill="white" stroke="black" points="437,-50 437,-69 556,-69 556,-50 437,-50"/>
<text text-anchor="middle" x="496.5" y="-57" font-family="Helvetica,sans-Serif" font-size="10.00">koala.utils.is_leap_year</text>
</a>
</g>
</g>
<!-- Node78&#45;&gt;Node79 -->
<g id="edge4" class="edge"><title>Node78&#45;&gt;Node79</title>
<path fill="none" stroke="midnightblue" d="M264.046,-74.5862C311.192,-71.5132 376.894,-67.2308 426.256,-64.0133"/>
<polygon fill="midnightblue" stroke="midnightblue" points="426.778,-67.4868 436.529,-63.3437 426.323,-60.5016 426.778,-67.4868"/>
</g>
<!-- Node80 -->
<g id="node5" class="node"><title>Node80</title>
<g id="a_node5"><a xlink:href="namespacekoala_1_1utils.html#a6ca2acad4db5fefe21c0941c1622f5e4" target="_top" xlink:title=" ">
<polygon fill="white" stroke="black" points="300,-0.5 300,-30.5 401,-30.5 401,-0.5 300,-0.5"/>
<text text-anchor="start" x="308" y="-18.5" font-family="Helvetica,sans-Serif" font-size="10.00">koala.utils.get_max</text>
<text text-anchor="middle" x="350.5" y="-7.5" font-family="Helvetica,sans-Serif" font-size="10.00">_days_in_month</text>
</a>
</g>
</g>
<!-- Node78&#45;&gt;Node80 -->
<g id="edge6" class="edge"><title>Node78&#45;&gt;Node80</title>
<path fill="none" stroke="midnightblue" d="M226.098,-68.9317C247.056,-59.8572 279.147,-45.9619 305.351,-34.6161"/>
<polygon fill="midnightblue" stroke="midnightblue" points="306.921,-37.7504 314.707,-30.565 304.139,-31.3267 306.921,-37.7504"/>
</g>
<!-- Node79&#45;&gt;Node77 -->
<g id="edge5" class="edge"><title>Node79&#45;&gt;Node77</title>
<path fill="none" stroke="midnightblue" d="M556.419,-67.0639C564.671,-68.1233 573.185,-69.2163 581.526,-70.2871"/>
<polygon fill="midnightblue" stroke="midnightblue" points="581.22,-73.7765 591.584,-71.5784 582.112,-66.8335 581.22,-73.7765"/>
</g>
<!-- Node80&#45;&gt;Node77 -->
<g id="edge7" class="edge"><title>Node80&#45;&gt;Node77</title>
<path fill="none" stroke="midnightblue" d="M401.411,-17.7004C443.28,-20.4683 504.346,-26.6715 556,-40.5 577.601,-46.2829 600.811,-56.2559 618.182,-64.5342"/>
<polygon fill="midnightblue" stroke="midnightblue" points="616.661,-67.6866 627.184,-68.9215 619.728,-61.3942 616.661,-67.6866"/>
</g>
<!-- Node80&#45;&gt;Node79 -->
<g id="edge8" class="edge"><title>Node80&#45;&gt;Node79</title>
<path fill="none" stroke="midnightblue" d="M400.654,-30.5192C418.062,-35.8383 437.457,-41.7647 454.15,-46.8654"/>
<polygon fill="midnightblue" stroke="midnightblue" points="453.567,-50.3467 464.153,-49.9217 455.612,-43.6522 453.567,-50.3467"/>
</g>
</g>
</svg>
