<?xml version="1.0" encoding="UTF-8" standalone="no"?>
<!DOCTYPE svg PUBLIC "-//W3C//DTD SVG 1.1//EN"
 "http://www.w3.org/Graphics/SVG/1.1/DTD/svg11.dtd">
<!-- Generated by graphviz version 2.38.0 (20140413.2041)
 -->
<!-- Title: koala.Range.check_value Pages: 1 -->
<svg width="336pt" height="513pt"
 viewBox="0.00 0.00 336.00 512.50" xmlns="http://www.w3.org/2000/svg" xmlns:xlink="http://www.w3.org/1999/xlink">
<g id="graph0" class="graph" transform="scale(1 1) rotate(0) translate(4 508.5)">
<title>koala.Range.check_value</title>
<polygon fill="white" stroke="none" points="-4,4 -4,-508.5 332,-508.5 332,4 -4,4"/>
<!-- Node1 -->
<g id="node1" class="node"><title>Node1</title>
<g id="a_node1"><a xlink:title=" ">
<polygon fill="#bfbfbf" stroke="black" points="201,-273 201,-292 328,-292 328,-273 201,-273"/>
<text text-anchor="middle" x="264.5" y="-280" font-family="Helvetica,sans-Serif" font-size="10.00">koala.Range.check_value</text>
</a>
</g>
</g>
<!-- Node2 -->
<g id="node2" class="node"><title>Node2</title>
<g id="a_node2"><a xlink:href="classkoala_1_1_range_1_1_range_core.html#a6aa8e8ce376140bb3f2193cb46ea5b69" target="_top" xlink:title=" ">
<polygon fill="white" stroke="black" points="12.5,-485 12.5,-504 152.5,-504 152.5,-485 12.5,-485"/>
<text text-anchor="middle" x="82.5" y="-492" font-family="Helvetica,sans-Serif" font-size="10.00">koala.Range.RangeCore.add</text>
</a>
</g>
</g>
<!-- Node1&#45;&gt;Node2 -->
<g id="edge1" class="edge"><title>Node1&#45;&gt;Node2</title>
<path fill="none" stroke="midnightblue" d="M259.256,-302.336C249.736,-341.802 222.829,-430.25 165,-475.5 160.08,-479.35 154.513,-482.443 148.656,-484.924"/>
<polygon fill="midnightblue" stroke="midnightblue" points="262.717,-302.903 261.536,-292.374 255.893,-301.341 262.717,-302.903"/>
</g>
<!-- Node3 -->
<g id="node3" class="node"><title>Node3</title>
<g id="a_node3"><a xlink:href="classkoala_1_1_range_1_1_range_core.html#a9f564ecc1adafeeebd78cd66bb49b7b6" target="_top" xlink:title=" ">
<polygon fill="white" stroke="black" points="0,-447 0,-466 165,-466 165,-447 0,-447"/>
<text text-anchor="middle" x="82.5" y="-454" font-family="Helvetica,sans-Serif" font-size="10.00">koala.Range.RangeCore.substract</text>
</a>
</g>
</g>
<!-- Node1&#45;&gt;Node3 -->
<g id="edge2" class="edge"><title>Node1&#45;&gt;Node3</title>
<path fill="none" stroke="midnightblue" d="M256.81,-301.847C244.286,-335.064 214.047,-402.716 165,-437.5 159.549,-441.366 153.425,-444.456 147.046,-446.925"/>
<polygon fill="midnightblue" stroke="midnightblue" points="260.132,-302.951 260.255,-292.357 253.553,-300.562 260.132,-302.951"/>
</g>
<!-- Node4 -->
<g id="node4" class="node"><title>Node4</title>
<g id="a_node4"><a xlink:href="classkoala_1_1_range_1_1_range_core.html#a119d090dd5f2737d2f261578eaeb4622" target="_top" xlink:title=" ">
<polygon fill="white" stroke="black" points="7,-409 7,-428 158,-428 158,-409 7,-409"/>
<text text-anchor="middle" x="82.5" y="-416" font-family="Helvetica,sans-Serif" font-size="10.00">koala.Range.RangeCore.minus</text>
</a>
</g>
</g>
<!-- Node1&#45;&gt;Node4 -->
<g id="edge3" class="edge"><title>Node1&#45;&gt;Node4</title>
<path fill="none" stroke="midnightblue" d="M253.155,-301.093C237.574,-327.291 205.545,-374.64 165,-399.5 158.683,-403.373 151.649,-406.457 144.433,-408.913"/>
<polygon fill="midnightblue" stroke="midnightblue" points="256.333,-302.589 258.304,-292.179 250.271,-299.087 256.333,-302.589"/>
</g>
<!-- Node5 -->
<g id="node5" class="node"><title>Node5</title>
<g id="a_node5"><a xlink:href="classkoala_1_1_range_1_1_range_core.html#a5fe100f117b3c2ba846c0f39977788e6" target="_top" xlink:title=" ">
<polygon fill="white" stroke="black" points="3.5,-371 3.5,-390 161.5,-390 161.5,-371 3.5,-371"/>
<text text-anchor="middle" x="82.5" y="-378" font-family="Helvetica,sans-Serif" font-size="10.00">koala.Range.RangeCore.multiply</text>
</a>
</g>
</g>
<!-- Node1&#45;&gt;Node5 -->
<g id="edge4" class="edge"><title>Node1&#45;&gt;Node5</title>
<path fill="none" stroke="midnightblue" d="M246.973,-299.719C228.625,-317.815 197.313,-345.791 165,-361.5 157.029,-365.375 148.23,-368.482 139.449,-370.967"/>
<polygon fill="midnightblue" stroke="midnightblue" points="249.893,-301.745 254.448,-292.179 244.922,-296.816 249.893,-301.745"/>
</g>
<!-- Node6 -->
<g id="node6" class="node"><title>Node6</title>
<g id="a_node6"><a xlink:href="classkoala_1_1_range_1_1_range_core.html#a2204b0c5b3103eb38d142613225b8179" target="_top" xlink:title=" ">
<polygon fill="white" stroke="black" points="8,-333 8,-352 157,-352 157,-333 8,-333"/>
<text text-anchor="middle" x="82.5" y="-340" font-family="Helvetica,sans-Serif" font-size="10.00">koala.Range.RangeCore.divide</text>
</a>
</g>
</g>
<!-- Node1&#45;&gt;Node6 -->
<g id="edge5" class="edge"><title>Node1&#45;&gt;Node6</title>
<path fill="none" stroke="midnightblue" d="M233.94,-296.313C214.624,-304.96 188.679,-315.87 165,-323.5 153.937,-327.065 141.83,-330.257 130.411,-332.962"/>
<polygon fill="midnightblue" stroke="midnightblue" points="235.457,-299.468 243.119,-292.151 232.567,-293.093 235.457,-299.468"/>
</g>
<!-- Node7 -->
<g id="node7" class="node"><title>Node7</title>
<g id="a_node7"><a xlink:href="classkoala_1_1_range_1_1_range_core.html#ad55f12302c78edf790af8bdd3559b598" target="_top" xlink:title=" ">
<polygon fill="white" stroke="black" points="7.5,-295 7.5,-314 157.5,-314 157.5,-295 7.5,-295"/>
<text text-anchor="middle" x="82.5" y="-302" font-family="Helvetica,sans-Serif" font-size="10.00">koala.Range.RangeCore.power</text>
</a>
</g>
</g>
<!-- Node1&#45;&gt;Node7 -->
<g id="edge6" class="edge"><title>Node1&#45;&gt;Node7</title>
<path fill="none" stroke="midnightblue" d="M190.551,-291.416C179.732,-292.738 168.572,-294.102 157.727,-295.428"/>
<polygon fill="midnightblue" stroke="midnightblue" points="191.296,-294.851 200.797,-290.164 190.447,-287.903 191.296,-294.851"/>
</g>
<!-- Node8 -->
<g id="node8" class="node"><title>Node8</title>
<g id="a_node8"><a xlink:href="classkoala_1_1_range_1_1_range_core.html#a06ded3b0da724d99e3804d4d2744f7a8" target="_top" xlink:title=" ">
<polygon fill="white" stroke="black" points="16.5,-245.5 16.5,-275.5 148.5,-275.5 148.5,-245.5 16.5,-245.5"/>
<text text-anchor="start" x="24.5" y="-263.5" font-family="Helvetica,sans-Serif" font-size="10.00">koala.Range.RangeCore.is</text>
<text text-anchor="middle" x="82.5" y="-252.5" font-family="Helvetica,sans-Serif" font-size="10.00">_equal</text>
</a>
</g>
</g>
<!-- Node1&#45;&gt;Node8 -->
<g id="edge7" class="edge"><title>Node1&#45;&gt;Node8</title>
<path fill="none" stroke="midnightblue" d="M190.788,-273.613C176.874,-271.912 162.388,-270.142 148.728,-268.472"/>
<polygon fill="midnightblue" stroke="midnightblue" points="190.447,-277.097 200.797,-274.836 191.296,-270.149 190.447,-277.097"/>
</g>
<!-- Node9 -->
<g id="node9" class="node"><title>Node9</title>
<g id="a_node9"><a xlink:href="classkoala_1_1_range_1_1_range_core.html#a8db47d4a388f2d540c3bdab4a1151014" target="_top" xlink:title=" ">
<polygon fill="white" stroke="black" points="16.5,-196.5 16.5,-226.5 148.5,-226.5 148.5,-196.5 16.5,-196.5"/>
<text text-anchor="start" x="24.5" y="-214.5" font-family="Helvetica,sans-Serif" font-size="10.00">koala.Range.RangeCore.is</text>
<text text-anchor="middle" x="82.5" y="-203.5" font-family="Helvetica,sans-Serif" font-size="10.00">_not_equal</text>
</a>
</g>
</g>
<!-- Node1&#45;&gt;Node9 -->
<g id="edge8" class="edge"><title>Node1&#45;&gt;Node9</title>
<path fill="none" stroke="midnightblue" d="M235.751,-268.274C216.259,-258.596 189.412,-245.892 165,-236.5 155.883,-232.993 146.05,-229.632 136.477,-226.576"/>
<polygon fill="midnightblue" stroke="midnightblue" points="234.446,-271.534 244.954,-272.889 237.584,-265.277 234.446,-271.534"/>
</g>
<!-- Node10 -->
<g id="node10" class="node"><title>Node10</title>
<g id="a_node10"><a xlink:href="classkoala_1_1_range_1_1_range_core.html#a5ecd2e3f06420d2fc212002ad98ef646" target="_top" xlink:title=" ">
<polygon fill="white" stroke="black" points="16.5,-147.5 16.5,-177.5 148.5,-177.5 148.5,-147.5 16.5,-147.5"/>
<text text-anchor="start" x="24.5" y="-165.5" font-family="Helvetica,sans-Serif" font-size="10.00">koala.Range.RangeCore.is</text>
<text text-anchor="middle" x="82.5" y="-154.5" font-family="Helvetica,sans-Serif" font-size="10.00">_strictly_superior</text>
</a>
</g>
</g>
<!-- Node1&#45;&gt;Node10 -->
<g id="edge9" class="edge"><title>Node1&#45;&gt;Node10</title>
<path fill="none" stroke="midnightblue" d="M249.829,-265.001C232.338,-243.744 200.081,-208.171 165,-187.5 158.497,-183.668 151.35,-180.371 144.075,-177.547"/>
<polygon fill="midnightblue" stroke="midnightblue" points="247.188,-267.302 256.186,-272.895 252.64,-262.911 247.188,-267.302"/>
</g>
<!-- Node11 -->
<g id="node11" class="node"><title>Node11</title>
<g id="a_node11"><a xlink:href="classkoala_1_1_range_1_1_range_core.html#a96aef41b36bb121a05c1bbed3422dd84" target="_top" xlink:title=" ">
<polygon fill="white" stroke="black" points="16.5,-98.5 16.5,-128.5 148.5,-128.5 148.5,-98.5 16.5,-98.5"/>
<text text-anchor="start" x="24.5" y="-116.5" font-family="Helvetica,sans-Serif" font-size="10.00">koala.Range.RangeCore.is</text>
<text text-anchor="middle" x="82.5" y="-105.5" font-family="Helvetica,sans-Serif" font-size="10.00">_strictly_inferior</text>
</a>
</g>
</g>
<!-- Node1&#45;&gt;Node11 -->
<g id="edge10" class="edge"><title>Node1&#45;&gt;Node11</title>
<path fill="none" stroke="midnightblue" d="M255.608,-263.565C241.807,-232.758 210.375,-171.88 165,-138.5 159.754,-134.641 153.905,-131.37 147.813,-128.599"/>
<polygon fill="midnightblue" stroke="midnightblue" points="252.414,-264.997 259.606,-272.776 258.835,-262.209 252.414,-264.997"/>
</g>
<!-- Node12 -->
<g id="node12" class="node"><title>Node12</title>
<g id="a_node12"><a xlink:href="classkoala_1_1_range_1_1_range_core.html#a8773fb91d158e9b17e6a5df16ed8f00c" target="_top" xlink:title=" ">
<polygon fill="white" stroke="black" points="16.5,-49.5 16.5,-79.5 148.5,-79.5 148.5,-49.5 16.5,-49.5"/>
<text text-anchor="start" x="24.5" y="-67.5" font-family="Helvetica,sans-Serif" font-size="10.00">koala.Range.RangeCore.is</text>
<text text-anchor="middle" x="82.5" y="-56.5" font-family="Helvetica,sans-Serif" font-size="10.00">_superior_or_equal</text>
</a>
</g>
</g>
<!-- Node1&#45;&gt;Node12 -->
<g id="edge11" class="edge"><title>Node1&#45;&gt;Node12</title>
<path fill="none" stroke="midnightblue" d="M258.923,-262.745C248.864,-223.753 221.122,-136.605 165,-89.5 160.125,-85.4086 154.589,-81.9864 148.751,-79.1239"/>
<polygon fill="midnightblue" stroke="midnightblue" points="255.609,-263.924 261.395,-272.799 262.406,-262.253 255.609,-263.924"/>
</g>
<!-- Node13 -->
<g id="node13" class="node"><title>Node13</title>
<g id="a_node13"><a xlink:href="classkoala_1_1_range_1_1_range_core.html#a59561675b3aed193d0492a43de52b852" target="_top" xlink:title=" ">
<polygon fill="white" stroke="black" points="16.5,-0.5 16.5,-30.5 148.5,-30.5 148.5,-0.5 16.5,-0.5"/>
<text text-anchor="start" x="24.5" y="-18.5" font-family="Helvetica,sans-Serif" font-size="10.00">koala.Range.RangeCore.is</text>
<text text-anchor="middle" x="82.5" y="-7.5" font-family="Helvetica,sans-Serif" font-size="10.00">_inferior_or_equal</text>
</a>
</g>
</g>
<!-- Node1&#45;&gt;Node13 -->
<g id="edge12" class="edge"><title>Node1&#45;&gt;Node13</title>
<path fill="none" stroke="midnightblue" d="M261.215,-262.921C254.826,-217.142 232.57,-102.314 165,-40.5 160.195,-36.1045 154.634,-32.4814 148.72,-29.4951"/>
<polygon fill="midnightblue" stroke="midnightblue" points="257.764,-263.528 262.515,-272.998 264.706,-262.632 257.764,-263.528"/>
</g>
</g>
</svg>
