<?xml version="1.0" encoding="UTF-8" standalone="no"?>
<!DOCTYPE svg PUBLIC "-//W3C//DTD SVG 1.1//EN"
 "http://www.w3.org/Graphics/SVG/1.1/DTD/svg11.dtd">
<!-- Generated by graphviz version 2.38.0 (20140413.2041)
 -->
<!-- Title: koala.utils.get_max_days_in_month Pages: 1 -->
<svg width="409pt" height="53pt"
 viewBox="0.00 0.00 409.00 52.50" xmlns="http://www.w3.org/2000/svg" xmlns:xlink="http://www.w3.org/1999/xlink">
<g id="graph0" class="graph" transform="scale(1 1) rotate(0) translate(4 48.5)">
<title>koala.utils.get_max_days_in_month</title>
<polygon fill="white" stroke="none" points="-4,4 -4,-48.5 405,-48.5 405,4 -4,4"/>
<!-- Node77 -->
<g id="node1" class="node"><title>Node77</title>
<g id="a_node1"><a xlink:title=" ">
<polygon fill="#bfbfbf" stroke="black" points="0,-14 0,-44 101,-44 101,-14 0,-14"/>
<text text-anchor="start" x="8" y="-32" font-family="Helvetica,sans-Serif" font-size="10.00">koala.utils.get_max</text>
<text text-anchor="middle" x="50.5" y="-21" font-family="Helvetica,sans-Serif" font-size="10.00">_days_in_month</text>
</a>
</g>
</g>
<!-- Node78 -->
<g id="node2" class="node"><title>Node78</title>
<g id="a_node2"><a xlink:href="namespacekoala_1_1utils.html#af016160edea2b46cb26db3ed307c9648" target="_top" xlink:title=" ">
<polygon fill="white" stroke="black" points="292,-19.5 292,-38.5 401,-38.5 401,-19.5 292,-19.5"/>
<text text-anchor="middle" x="346.5" y="-26.5" font-family="Helvetica,sans-Serif" font-size="10.00">koala.utils.is_number</text>
</a>
</g>
</g>
<!-- Node77&#45;&gt;Node78 -->
<g id="edge1" class="edge"><title>Node77&#45;&gt;Node78</title>
<path fill="none" stroke="midnightblue" d="M101.041,-29C150.699,-29 227.362,-29 281.578,-29"/>
<polygon fill="midnightblue" stroke="midnightblue" points="281.768,-32.5001 291.768,-29 281.768,-25.5001 281.768,-32.5001"/>
</g>
<!-- Node79 -->
<g id="node3" class="node"><title>Node79</title>
<g id="a_node3"><a xlink:href="namespacekoala_1_1utils.html#aa5132ee97ef859e71f955428648f3359" target="_top" xlink:title=" ">
<polygon fill="white" stroke="black" points="137,-0.5 137,-19.5 256,-19.5 256,-0.5 137,-0.5"/>
<text text-anchor="middle" x="196.5" y="-7.5" font-family="Helvetica,sans-Serif" font-size="10.00">koala.utils.is_leap_year</text>
</a>
</g>
</g>
<!-- Node77&#45;&gt;Node79 -->
<g id="edge2" class="edge"><title>Node77&#45;&gt;Node79</title>
<path fill="none" stroke="midnightblue" d="M101.057,-22.4613C109.36,-21.3657 118.106,-20.2117 126.788,-19.0662"/>
<polygon fill="midnightblue" stroke="midnightblue" points="127.464,-22.5074 136.92,-17.7293 126.548,-15.5676 127.464,-22.5074"/>
</g>
<!-- Node79&#45;&gt;Node78 -->
<g id="edge3" class="edge"><title>Node79&#45;&gt;Node78</title>
<path fill="none" stroke="midnightblue" d="M256.419,-17.5639C264.671,-18.6233 273.185,-19.7163 281.526,-20.7871"/>
<polygon fill="midnightblue" stroke="midnightblue" points="281.22,-24.2765 291.584,-22.0784 282.112,-17.3335 281.22,-24.2765"/>
</g>
</g>
</svg>
