<?xml version="1.0" encoding="UTF-8" standalone="no"?>
<!DOCTYPE svg PUBLIC "-//W3C//DTD SVG 1.1//EN"
 "http://www.w3.org/Graphics/SVG/1.1/DTD/svg11.dtd">
<!-- Generated by graphviz version 2.38.0 (20140413.2041)
 -->
<!-- Title: koala.utils.normalize_year Pages: 1 -->
<svg width="421pt" height="66pt"
 viewBox="0.00 0.00 421.00 66.00" xmlns="http://www.w3.org/2000/svg" xmlns:xlink="http://www.w3.org/1999/xlink">
<g id="graph0" class="graph" transform="scale(1 1) rotate(0) translate(4 62)">
<title>koala.utils.normalize_year</title>
<polygon fill="white" stroke="none" points="-4,4 -4,-62 417,-62 417,4 -4,4"/>
<!-- Node234 -->
<g id="node1" class="node"><title>Node234</title>
<g id="a_node1"><a xlink:title=" ">
<polygon fill="#bfbfbf" stroke="black" points="283,-19.5 283,-38.5 413,-38.5 413,-19.5 283,-19.5"/>
<text text-anchor="middle" x="348" y="-26.5" font-family="Helvetica,sans-Serif" font-size="10.00">koala.utils.normalize_year</text>
</a>
</g>
</g>
<!-- Node235 -->
<g id="node2" class="node"><title>Node235</title>
<g id="a_node2"><a xlink:href="namespacekoala_1_1excellib.html#ac993fb561979c98ece430fb6d643ce17" target="_top" xlink:title=" ">
<polygon fill="white" stroke="black" points="149,-19.5 149,-38.5 247,-38.5 247,-19.5 149,-19.5"/>
<text text-anchor="middle" x="198" y="-26.5" font-family="Helvetica,sans-Serif" font-size="10.00">koala.excellib.date</text>
</a>
</g>
</g>
<!-- Node234&#45;&gt;Node235 -->
<g id="edge1" class="edge"><title>Node234&#45;&gt;Node235</title>
<path fill="none" stroke="midnightblue" d="M272.739,-29C264.022,-29 255.309,-29 247.085,-29"/>
<polygon fill="midnightblue" stroke="midnightblue" points="272.946,-32.5001 282.946,-29 272.946,-25.5001 272.946,-32.5001"/>
</g>
<!-- Node236 -->
<g id="node3" class="node"><title>Node236</title>
<g id="a_node3"><a xlink:href="namespacekoala_1_1excellib.html#a298991fcfa2174f09d7d5627a1e50b79" target="_top" xlink:title=" ">
<polygon fill="white" stroke="black" points="0,-38.5 0,-57.5 113,-57.5 113,-38.5 0,-38.5"/>
<text text-anchor="middle" x="56.5" y="-45.5" font-family="Helvetica,sans-Serif" font-size="10.00">koala.excellib.yearfrac</text>
</a>
</g>
</g>
<!-- Node235&#45;&gt;Node236 -->
<g id="edge2" class="edge"><title>Node235&#45;&gt;Node236</title>
<path fill="none" stroke="midnightblue" d="M138.828,-36.923C130.373,-38.0747 121.683,-39.2582 113.276,-40.4032"/>
<polygon fill="midnightblue" stroke="midnightblue" points="139.556,-40.3563 148.992,-35.5387 138.611,-33.4204 139.556,-40.3563"/>
</g>
<!-- Node237 -->
<g id="node4" class="node"><title>Node237</title>
<g id="a_node4"><a xlink:href="namespacekoala_1_1excellib.html#aef0e50530221c9b41d2ec2093f3280e3" target="_top" xlink:title=" ">
<polygon fill="white" stroke="black" points="5,-0.5 5,-19.5 108,-19.5 108,-0.5 5,-0.5"/>
<text text-anchor="middle" x="56.5" y="-7.5" font-family="Helvetica,sans-Serif" font-size="10.00">koala.excellib.today</text>
</a>
</g>
</g>
<!-- Node235&#45;&gt;Node237 -->
<g id="edge3" class="edge"><title>Node235&#45;&gt;Node237</title>
<path fill="none" stroke="midnightblue" d="M139,-21.1004C128.862,-19.7195 118.382,-18.2922 108.452,-16.9397"/>
<polygon fill="midnightblue" stroke="midnightblue" points="138.611,-24.5796 148.992,-22.4613 139.556,-17.6437 138.611,-24.5796"/>
</g>
</g>
</svg>
