<?xml version="1.0" encoding="UTF-8" standalone="no"?>
<!DOCTYPE svg PUBLIC "-//W3C//DTD SVG 1.1//EN"
 "http://www.w3.org/Graphics/SVG/1.1/DTD/svg11.dtd">
<!-- Generated by graphviz version 2.38.0 (20140413.2041)
 -->
<!-- Title: koala.excellib.offset Pages: 1 -->
<svg width="398pt" height="218pt"
 viewBox="0.00 0.00 398.00 218.00" xmlns="http://www.w3.org/2000/svg" xmlns:xlink="http://www.w3.org/1999/xlink">
<g id="graph0" class="graph" transform="scale(1 1) rotate(0) translate(4 214)">
<title>koala.excellib.offset</title>
<polygon fill="white" stroke="none" points="-4,4 -4,-214 394,-214 394,4 -4,4"/>
<!-- Node88 -->
<g id="node1" class="node"><title>Node88</title>
<g id="a_node1"><a xlink:title=" ">
<polygon fill="#bfbfbf" stroke="black" points="0,-60.5 0,-79.5 102,-79.5 102,-60.5 0,-60.5"/>
<text text-anchor="middle" x="51" y="-67.5" font-family="Helvetica,sans-Serif" font-size="10.00">koala.excellib.offset</text>
</a>
</g>
</g>
<!-- Node89 -->
<g id="node2" class="node"><title>Node89</title>
<g id="a_node2"><a xlink:href="namespacekoala_1_1utils.html#a152ac1827f4fdbd036d6e67cdf3acebb" target="_top" xlink:title=" ">
<polygon fill="white" stroke="black" points="278.5,-190.5 278.5,-209.5 379.5,-209.5 379.5,-190.5 278.5,-190.5"/>
<text text-anchor="middle" x="329" y="-197.5" font-family="Helvetica,sans-Serif" font-size="10.00">koala.utils.is_range</text>
</a>
</g>
</g>
<!-- Node88&#45;&gt;Node89 -->
<g id="edge1" class="edge"><title>Node88&#45;&gt;Node89</title>
<path fill="none" stroke="midnightblue" d="M68.0575,-79.5252C103.293,-100.138 190.44,-149.556 268,-181 273.449,-183.209 279.258,-185.329 285.036,-187.3"/>
<polygon fill="midnightblue" stroke="midnightblue" points="284.067,-190.665 294.66,-190.464 286.253,-184.016 284.067,-190.665"/>
</g>
<!-- Node90 -->
<g id="node3" class="node"><title>Node90</title>
<g id="a_node3"><a xlink:href="namespacekoala_1_1utils.html#a1d3620df245d23fea05928298cabc2ac" target="_top" xlink:title=" ">
<polygon fill="white" stroke="black" points="138,-77 138,-107 232,-107 232,-77 138,-77"/>
<text text-anchor="start" x="146" y="-95" font-family="Helvetica,sans-Serif" font-size="10.00">koala.utils.resolve</text>
<text text-anchor="middle" x="185" y="-84" font-family="Helvetica,sans-Serif" font-size="10.00">_range</text>
</a>
</g>
</g>
<!-- Node88&#45;&gt;Node90 -->
<g id="edge2" class="edge"><title>Node88&#45;&gt;Node90</title>
<path fill="none" stroke="midnightblue" d="M102.28,-78.38C110.568,-79.7613 119.206,-81.2011 127.631,-82.6052"/>
<polygon fill="midnightblue" stroke="midnightblue" points="127.324,-86.1022 137.763,-84.2939 128.475,-79.1974 127.324,-86.1022"/>
</g>
<!-- Node93 -->
<g id="node6" class="node"><title>Node93</title>
<g id="a_node6"><a xlink:href="namespacekoala_1_1utils.html#a65476c62402a00e3d46dbc99b6a4ea88" target="_top" xlink:title=" ">
<polygon fill="white" stroke="black" points="278.5,-38.5 278.5,-57.5 379.5,-57.5 379.5,-38.5 278.5,-38.5"/>
<text text-anchor="middle" x="329" y="-45.5" font-family="Helvetica,sans-Serif" font-size="10.00">koala.utils.col2num</text>
</a>
</g>
</g>
<!-- Node88&#45;&gt;Node93 -->
<g id="edge9" class="edge"><title>Node88&#45;&gt;Node93</title>
<path fill="none" stroke="midnightblue" d="M102.302,-65.9904C148.898,-62.2763 218.271,-56.7465 267.793,-52.7991"/>
<polygon fill="midnightblue" stroke="midnightblue" points="268.354,-56.2656 278.044,-51.982 267.798,-49.2877 268.354,-56.2656"/>
</g>
<!-- Node94 -->
<g id="node7" class="node"><title>Node94</title>
<g id="a_node7"><a xlink:href="namespacekoala_1_1utils.html#a2037076cc5a6fbf884023917a0cbfca7" target="_top" xlink:title=" ">
<polygon fill="white" stroke="black" points="278.5,-0.5 278.5,-19.5 379.5,-19.5 379.5,-0.5 278.5,-0.5"/>
<text text-anchor="middle" x="329" y="-7.5" font-family="Helvetica,sans-Serif" font-size="10.00">koala.utils.num2col</text>
</a>
</g>
</g>
<!-- Node88&#45;&gt;Node94 -->
<g id="edge10" class="edge"><title>Node88&#45;&gt;Node94</title>
<path fill="none" stroke="midnightblue" d="M95.733,-60.4928C144.041,-49.9911 221.87,-33.0718 273.958,-21.7484"/>
<polygon fill="midnightblue" stroke="midnightblue" points="274.987,-25.1063 284.015,-19.5618 273.5,-18.2661 274.987,-25.1063"/>
</g>
<!-- Node90&#45;&gt;Node89 -->
<g id="edge4" class="edge"><title>Node90&#45;&gt;Node89</title>
<path fill="none" stroke="midnightblue" d="M196.115,-107.165C210.049,-126.924 236.976,-161.268 268,-181 271.184,-183.025 274.6,-184.849 278.129,-186.49"/>
<polygon fill="midnightblue" stroke="midnightblue" points="277.069,-189.839 287.648,-190.418 279.739,-183.368 277.069,-189.839"/>
</g>
<!-- Node91 -->
<g id="node4" class="node"><title>Node91</title>
<g id="a_node4"><a xlink:href="namespacekoala_1_1utils.html#a77ace10251dde2f09a457b7b469208cc" target="_top" xlink:title=" ">
<polygon fill="white" stroke="black" points="273.5,-152.5 273.5,-171.5 384.5,-171.5 384.5,-152.5 273.5,-152.5"/>
<text text-anchor="middle" x="329" y="-159.5" font-family="Helvetica,sans-Serif" font-size="10.00">koala.utils.split_range</text>
</a>
</g>
</g>
<!-- Node90&#45;&gt;Node91 -->
<g id="edge3" class="edge"><title>Node90&#45;&gt;Node91</title>
<path fill="none" stroke="midnightblue" d="M207.097,-107.177C223.19,-118.234 246.224,-132.972 268,-143 272.778,-145.2 277.88,-147.245 283.017,-149.114"/>
<polygon fill="midnightblue" stroke="midnightblue" points="282.265,-152.556 292.859,-152.489 284.535,-145.935 282.265,-152.556"/>
</g>
<!-- Node92 -->
<g id="node5" class="node"><title>Node92</title>
<g id="a_node5"><a xlink:href="namespacekoala_1_1utils.html#a5c70ac45916995934736ab28b501c8c5" target="_top" xlink:title=" ">
<polygon fill="white" stroke="black" points="268,-114.5 268,-133.5 390,-133.5 390,-114.5 268,-114.5"/>
<text text-anchor="middle" x="329" y="-121.5" font-family="Helvetica,sans-Serif" font-size="10.00">koala.utils.split_address</text>
</a>
</g>
</g>
<!-- Node90&#45;&gt;Node92 -->
<g id="edge5" class="edge"><title>Node90&#45;&gt;Node92</title>
<path fill="none" stroke="midnightblue" d="M232.103,-102.389C245.918,-105.503 261.174,-108.941 275.375,-112.141"/>
<polygon fill="midnightblue" stroke="midnightblue" points="274.97,-115.637 285.495,-114.421 276.509,-108.808 274.97,-115.637"/>
</g>
<!-- Node90&#45;&gt;Node93 -->
<g id="edge6" class="edge"><title>Node90&#45;&gt;Node93</title>
<path fill="none" stroke="midnightblue" d="M232.103,-77.7145C249.84,-72.2187 269.95,-65.9874 287.157,-60.6556"/>
<polygon fill="midnightblue" stroke="midnightblue" points="288.397,-63.9356 296.913,-57.6326 286.325,-57.2493 288.397,-63.9356"/>
</g>
<!-- Node90&#45;&gt;Node94 -->
<g id="edge7" class="edge"><title>Node90&#45;&gt;Node94</title>
<path fill="none" stroke="midnightblue" d="M202.093,-76.8714C217.831,-62.7791 243.011,-42.0378 268,-29 272.199,-26.8093 276.696,-24.8158 281.27,-23.0154"/>
<polygon fill="midnightblue" stroke="midnightblue" points="282.492,-26.2952 290.695,-19.59 280.101,-19.7162 282.492,-26.2952"/>
</g>
<!-- Node95 -->
<g id="node8" class="node"><title>Node95</title>
<g id="a_node8"><a xlink:href="namespacekoala_1_1utils.html#aabb45efe6343cf3795888c77a434d47d" target="_top" xlink:title=" ">
<polygon fill="white" stroke="black" points="284,-76.5 284,-95.5 374,-95.5 374,-76.5 284,-76.5"/>
<text text-anchor="middle" x="329" y="-83.5" font-family="Helvetica,sans-Serif" font-size="10.00">koala.utils.flatten</text>
</a>
</g>
</g>
<!-- Node90&#45;&gt;Node95 -->
<g id="edge8" class="edge"><title>Node90&#45;&gt;Node95</title>
<path fill="none" stroke="midnightblue" d="M232.103,-90.052C245.268,-89.4957 259.74,-88.8842 273.363,-88.3086"/>
<polygon fill="midnightblue" stroke="midnightblue" points="273.735,-91.7961 283.578,-87.877 273.44,-84.8023 273.735,-91.7961"/>
</g>
</g>
</svg>
