<?xml version="1.0" encoding="UTF-8" standalone="no"?>
<!DOCTYPE svg PUBLIC "-//W3C//DTD SVG 1.1//EN"
 "http://www.w3.org/Graphics/SVG/1.1/DTD/svg11.dtd">
<!-- Generated by graphviz version 2.38.0 (20140413.2041)
 -->
<!-- Title: koala.utils.resolve_range Pages: 1 -->
<svg width="260pt" height="218pt"
 viewBox="0.00 0.00 260.00 218.00" xmlns="http://www.w3.org/2000/svg" xmlns:xlink="http://www.w3.org/1999/xlink">
<g id="graph0" class="graph" transform="scale(1 1) rotate(0) translate(4 214)">
<title>koala.utils.resolve_range</title>
<polygon fill="white" stroke="none" points="-4,4 -4,-214 256,-214 256,4 -4,4"/>
<!-- Node229 -->
<g id="node1" class="node"><title>Node229</title>
<g id="a_node1"><a xlink:title=" ">
<polygon fill="#bfbfbf" stroke="black" points="0,-90 0,-120 94,-120 94,-90 0,-90"/>
<text text-anchor="start" x="8" y="-108" font-family="Helvetica,sans-Serif" font-size="10.00">koala.utils.resolve</text>
<text text-anchor="middle" x="47" y="-97" font-family="Helvetica,sans-Serif" font-size="10.00">_range</text>
</a>
</g>
</g>
<!-- Node230 -->
<g id="node2" class="node"><title>Node230</title>
<g id="a_node2"><a xlink:href="namespacekoala_1_1utils.html#a77ace10251dde2f09a457b7b469208cc" target="_top" xlink:title=" ">
<polygon fill="white" stroke="black" points="135.5,-190.5 135.5,-209.5 246.5,-209.5 246.5,-190.5 135.5,-190.5"/>
<text text-anchor="middle" x="191" y="-197.5" font-family="Helvetica,sans-Serif" font-size="10.00">koala.utils.split_range</text>
</a>
</g>
</g>
<!-- Node229&#45;&gt;Node230 -->
<g id="edge1" class="edge"><title>Node229&#45;&gt;Node230</title>
<path fill="none" stroke="midnightblue" d="M60.6831,-120.258C75.6247,-137.321 101.984,-164.695 130,-181 133.665,-183.133 137.598,-185.056 141.634,-186.784"/>
<polygon fill="midnightblue" stroke="midnightblue" points="140.568,-190.124 151.157,-190.467 143.093,-183.596 140.568,-190.124"/>
</g>
<!-- Node231 -->
<g id="node3" class="node"><title>Node231</title>
<g id="a_node3"><a xlink:href="namespacekoala_1_1utils.html#a152ac1827f4fdbd036d6e67cdf3acebb" target="_top" xlink:title=" ">
<polygon fill="white" stroke="black" points="140.5,-152.5 140.5,-171.5 241.5,-171.5 241.5,-152.5 140.5,-152.5"/>
<text text-anchor="middle" x="191" y="-159.5" font-family="Helvetica,sans-Serif" font-size="10.00">koala.utils.is_range</text>
</a>
</g>
</g>
<!-- Node229&#45;&gt;Node231 -->
<g id="edge2" class="edge"><title>Node229&#45;&gt;Node231</title>
<path fill="none" stroke="midnightblue" d="M77.9776,-120.009C93.3332,-127.41 112.448,-136.186 130,-143 135.612,-145.179 141.587,-147.3 147.509,-149.287"/>
<polygon fill="midnightblue" stroke="midnightblue" points="146.761,-152.724 157.353,-152.491 148.928,-146.067 146.761,-152.724"/>
</g>
<!-- Node232 -->
<g id="node4" class="node"><title>Node232</title>
<g id="a_node4"><a xlink:href="namespacekoala_1_1utils.html#a5c70ac45916995934736ab28b501c8c5" target="_top" xlink:title=" ">
<polygon fill="white" stroke="black" points="130,-114.5 130,-133.5 252,-133.5 252,-114.5 130,-114.5"/>
<text text-anchor="middle" x="191" y="-121.5" font-family="Helvetica,sans-Serif" font-size="10.00">koala.utils.split_address</text>
</a>
</g>
</g>
<!-- Node229&#45;&gt;Node232 -->
<g id="edge3" class="edge"><title>Node229&#45;&gt;Node232</title>
<path fill="none" stroke="midnightblue" d="M94.1033,-111.169C102.31,-112.267 111.026,-113.433 119.726,-114.597"/>
<polygon fill="midnightblue" stroke="midnightblue" points="119.526,-118.102 129.902,-115.959 120.455,-111.163 119.526,-118.102"/>
</g>
<!-- Node233 -->
<g id="node5" class="node"><title>Node233</title>
<g id="a_node5"><a xlink:href="namespacekoala_1_1utils.html#a65476c62402a00e3d46dbc99b6a4ea88" target="_top" xlink:title=" ">
<polygon fill="white" stroke="black" points="140.5,-76.5 140.5,-95.5 241.5,-95.5 241.5,-76.5 140.5,-76.5"/>
<text text-anchor="middle" x="191" y="-83.5" font-family="Helvetica,sans-Serif" font-size="10.00">koala.utils.col2num</text>
</a>
</g>
</g>
<!-- Node229&#45;&gt;Node233 -->
<g id="edge4" class="edge"><title>Node229&#45;&gt;Node233</title>
<path fill="none" stroke="midnightblue" d="M94.1033,-98.8312C105.618,-97.2905 118.133,-95.616 130.205,-94.0008"/>
<polygon fill="midnightblue" stroke="midnightblue" points="130.762,-97.4575 140.209,-92.6622 129.833,-90.5194 130.762,-97.4575"/>
</g>
<!-- Node234 -->
<g id="node6" class="node"><title>Node234</title>
<g id="a_node6"><a xlink:href="namespacekoala_1_1utils.html#a2037076cc5a6fbf884023917a0cbfca7" target="_top" xlink:title=" ">
<polygon fill="white" stroke="black" points="140.5,-38.5 140.5,-57.5 241.5,-57.5 241.5,-38.5 140.5,-38.5"/>
<text text-anchor="middle" x="191" y="-45.5" font-family="Helvetica,sans-Serif" font-size="10.00">koala.utils.num2col</text>
</a>
</g>
</g>
<!-- Node229&#45;&gt;Node234 -->
<g id="edge5" class="edge"><title>Node229&#45;&gt;Node234</title>
<path fill="none" stroke="midnightblue" d="M77.9776,-89.9905C93.3332,-82.5897 112.448,-73.8142 130,-67 135.612,-64.8214 141.587,-62.7005 147.509,-60.7134"/>
<polygon fill="midnightblue" stroke="midnightblue" points="148.928,-63.9326 157.353,-57.509 146.761,-57.2764 148.928,-63.9326"/>
</g>
<!-- Node235 -->
<g id="node7" class="node"><title>Node235</title>
<g id="a_node7"><a xlink:href="namespacekoala_1_1utils.html#aabb45efe6343cf3795888c77a434d47d" target="_top" xlink:title=" ">
<polygon fill="white" stroke="black" points="146,-0.5 146,-19.5 236,-19.5 236,-0.5 146,-0.5"/>
<text text-anchor="middle" x="191" y="-7.5" font-family="Helvetica,sans-Serif" font-size="10.00">koala.utils.flatten</text>
</a>
</g>
</g>
<!-- Node229&#45;&gt;Node235 -->
<g id="edge6" class="edge"><title>Node229&#45;&gt;Node235</title>
<path fill="none" stroke="midnightblue" d="M60.6831,-89.7417C75.6247,-72.6788 101.984,-45.3047 130,-29 133.665,-26.8669 137.598,-24.9438 141.634,-23.2162"/>
<polygon fill="midnightblue" stroke="midnightblue" points="143.093,-26.4044 151.157,-19.5328 140.568,-19.8757 143.093,-26.4044"/>
</g>
</g>
</svg>
