<?xml version="1.0" encoding="UTF-8" standalone="no"?>
<!DOCTYPE svg PUBLIC "-//W3C//DTD SVG 1.1//EN"
 "http://www.w3.org/Graphics/SVG/1.1/DTD/svg11.dtd">
<!-- Generated by graphviz version 2.38.0 (20140413.2041)
 -->
<!-- Title: koala.reader.read_content_types Pages: 1 -->
<svg width="426pt" height="61pt"
 viewBox="0.00 0.00 426.00 61.00" xmlns="http://www.w3.org/2000/svg" xmlns:xlink="http://www.w3.org/1999/xlink">
<g id="graph0" class="graph" transform="scale(1 1) rotate(0) translate(4 57)">
<title>koala.reader.read_content_types</title>
<polygon fill="white" stroke="none" points="-4,4 -4,-57 422,-57 422,4 -4,4"/>
<!-- Node20 -->
<g id="node1" class="node"><title>Node20</title>
<g id="a_node1"><a xlink:title=" ">
<polygon fill="#bfbfbf" stroke="black" points="289,-22.5 289,-52.5 418,-52.5 418,-22.5 289,-22.5"/>
<text text-anchor="start" x="297" y="-40.5" font-family="Helvetica,sans-Serif" font-size="10.00">koala.reader.read_content</text>
<text text-anchor="middle" x="353.5" y="-29.5" font-family="Helvetica,sans-Serif" font-size="10.00">_types</text>
</a>
</g>
</g>
<!-- Node21 -->
<g id="node2" class="node"><title>Node21</title>
<g id="a_node2"><a xlink:href="namespacekoala_1_1reader.html#aa773ee24a28b1e66657ee4fcd95d6a62" target="_top" xlink:title=" ">
<polygon fill="white" stroke="black" points="0,-28 0,-47 117,-47 117,-28 0,-28"/>
<text text-anchor="middle" x="58.5" y="-35" font-family="Helvetica,sans-Serif" font-size="10.00">koala.reader.read_cells</text>
</a>
</g>
</g>
<!-- Node20&#45;&gt;Node21 -->
<g id="edge1" class="edge"><title>Node20&#45;&gt;Node21</title>
<path fill="none" stroke="midnightblue" d="M278.694,-39.9734C270.033,-40.1902 261.321,-40.3746 253,-40.5 208.561,-41.1698 197.439,-41.2127 153,-40.5 141.47,-40.3151 129.144,-40.002 117.35,-39.646"/>
<polygon fill="midnightblue" stroke="midnightblue" points="278.907,-43.4691 288.81,-39.7058 278.721,-36.4716 278.907,-43.4691"/>
</g>
<!-- Node22 -->
<g id="node3" class="node"><title>Node22</title>
<g id="a_node3"><a xlink:href="namespacekoala_1_1reader.html#ae60c7e099adcc35e694f074c896612d7" target="_top" xlink:title=" ">
<polygon fill="white" stroke="black" points="153,-0.5 153,-30.5 253,-30.5 253,-0.5 153,-0.5"/>
<text text-anchor="start" x="161" y="-18.5" font-family="Helvetica,sans-Serif" font-size="10.00">koala.reader.detect</text>
<text text-anchor="middle" x="203" y="-7.5" font-family="Helvetica,sans-Serif" font-size="10.00">_worksheets</text>
</a>
</g>
</g>
<!-- Node20&#45;&gt;Node22 -->
<g id="edge2" class="edge"><title>Node20&#45;&gt;Node22</title>
<path fill="none" stroke="midnightblue" d="M278.654,-26.5599C270.104,-25.2932 261.546,-24.0254 253.435,-22.8238"/>
<polygon fill="midnightblue" stroke="midnightblue" points="278.256,-30.039 288.661,-28.0423 279.282,-23.1146 278.256,-30.039"/>
</g>
<!-- Node22&#45;&gt;Node21 -->
<g id="edge3" class="edge"><title>Node22&#45;&gt;Node21</title>
<path fill="none" stroke="midnightblue" d="M142.866,-24.6295C134.47,-25.9257 125.843,-27.2575 117.47,-28.5503"/>
<polygon fill="midnightblue" stroke="midnightblue" points="143.611,-28.056 152.96,-23.0712 142.543,-21.138 143.611,-28.056"/>
</g>
</g>
</svg>
