<?xml version="1.0" encoding="UTF-8" standalone="no"?>
<!DOCTYPE svg PUBLIC "-//W3C//DTD SVG 1.1//EN"
 "http://www.w3.org/Graphics/SVG/1.1/DTD/svg11.dtd">
<!-- Generated by graphviz version 2.38.0 (20140413.2041)
 -->
<!-- Title: koala.reader.read_cells Pages: 1 -->
<svg width="600pt" height="158pt"
 viewBox="0.00 0.00 600.00 157.50" xmlns="http://www.w3.org/2000/svg" xmlns:xlink="http://www.w3.org/1999/xlink">
<g id="graph0" class="graph" transform="scale(1 1) rotate(0) translate(4 153.5)">
<title>koala.reader.read_cells</title>
<polygon fill="white" stroke="none" points="-4,4 -4,-153.5 596,-153.5 596,4 -4,4"/>
<!-- Node10 -->
<g id="node1" class="node"><title>Node10</title>
<g id="a_node1"><a xlink:title=" ">
<polygon fill="#bfbfbf" stroke="black" points="0,-68.5 0,-87.5 117,-87.5 117,-68.5 0,-68.5"/>
<text text-anchor="middle" x="58.5" y="-75.5" font-family="Helvetica,sans-Serif" font-size="10.00">koala.reader.read_cells</text>
</a>
</g>
</g>
<!-- Node11 -->
<g id="node2" class="node"><title>Node11</title>
<g id="a_node2"><a xlink:href="namespacekoala_1_1reader.html#a5f9592bd3f289279493ce69276c63427" target="_top" xlink:title=" ">
<polygon fill="white" stroke="black" points="310,-119 310,-149 439,-149 439,-119 310,-119"/>
<text text-anchor="start" x="318" y="-137" font-family="Helvetica,sans-Serif" font-size="10.00">koala.reader.read_content</text>
<text text-anchor="middle" x="374.5" y="-126" font-family="Helvetica,sans-Serif" font-size="10.00">_types</text>
</a>
</g>
</g>
<!-- Node10&#45;&gt;Node11 -->
<g id="edge1" class="edge"><title>Node10&#45;&gt;Node11</title>
<path fill="none" stroke="midnightblue" d="M72.6041,-87.5773C89.9714,-99.6433 122.04,-119.793 153,-128 200.635,-140.628 256.096,-142.076 299.479,-140.394"/>
<polygon fill="midnightblue" stroke="midnightblue" points="299.838,-143.881 309.669,-139.933 299.521,-136.889 299.838,-143.881"/>
</g>
<!-- Node12 -->
<g id="node3" class="node"><title>Node12</title>
<g id="a_node3"><a xlink:href="namespacekoala_1_1reader.html#ad9cd2a2faadefe1b72910ec506e5451b" target="_top" xlink:title=" ">
<polygon fill="white" stroke="black" points="153,-88 153,-118 274,-118 274,-88 153,-88"/>
<text text-anchor="start" x="161" y="-106" font-family="Helvetica,sans-Serif" font-size="10.00">koala.reader.read_string</text>
<text text-anchor="middle" x="213.5" y="-95" font-family="Helvetica,sans-Serif" font-size="10.00">_table</text>
</a>
</g>
</g>
<!-- Node10&#45;&gt;Node12 -->
<g id="edge2" class="edge"><title>Node10&#45;&gt;Node12</title>
<path fill="none" stroke="midnightblue" d="M117.343,-87.4514C125.675,-88.813 134.323,-90.2259 142.855,-91.6201"/>
<polygon fill="midnightblue" stroke="midnightblue" points="142.36,-95.0855 152.793,-93.244 143.489,-88.1771 142.36,-95.0855"/>
</g>
<!-- Node13 -->
<g id="node4" class="node"><title>Node13</title>
<g id="a_node4"><a xlink:href="namespacekoala_1_1reader.html#ae60c7e099adcc35e694f074c896612d7" target="_top" xlink:title=" ">
<polygon fill="white" stroke="black" points="163.5,-39 163.5,-69 263.5,-69 263.5,-39 163.5,-39"/>
<text text-anchor="start" x="171.5" y="-57" font-family="Helvetica,sans-Serif" font-size="10.00">koala.reader.detect</text>
<text text-anchor="middle" x="213.5" y="-46" font-family="Helvetica,sans-Serif" font-size="10.00">_worksheets</text>
</a>
</g>
</g>
<!-- Node10&#45;&gt;Node13 -->
<g id="edge3" class="edge"><title>Node10&#45;&gt;Node13</title>
<path fill="none" stroke="midnightblue" d="M117.343,-68.9266C128.993,-67.0991 141.258,-65.1752 152.965,-63.3389"/>
<polygon fill="midnightblue" stroke="midnightblue" points="153.743,-66.7597 163.079,-61.7522 152.658,-59.8443 153.743,-66.7597"/>
</g>
<!-- Node17 -->
<g id="node8" class="node"><title>Node17</title>
<g id="a_node8"><a xlink:href="namespacekoala_1_1utils.html#a65476c62402a00e3d46dbc99b6a4ea88" target="_top" xlink:title=" ">
<polygon fill="white" stroke="black" points="163,-0.5 163,-19.5 264,-19.5 264,-0.5 163,-0.5"/>
<text text-anchor="middle" x="213.5" y="-7.5" font-family="Helvetica,sans-Serif" font-size="10.00">koala.utils.col2num</text>
</a>
</g>
</g>
<!-- Node10&#45;&gt;Node17 -->
<g id="edge9" class="edge"><title>Node10&#45;&gt;Node17</title>
<path fill="none" stroke="midnightblue" d="M75.6356,-68.4398C93.9499,-57.8522 124.931,-40.7321 153,-29 158.19,-26.8307 163.72,-24.7604 169.239,-22.838"/>
<polygon fill="midnightblue" stroke="midnightblue" points="170.709,-26.0369 179.085,-19.5481 168.491,-19.3977 170.709,-26.0369"/>
</g>
<!-- Node13&#45;&gt;Node11 -->
<g id="edge4" class="edge"><title>Node13&#45;&gt;Node11</title>
<path fill="none" stroke="midnightblue" d="M253.861,-69.039C260.644,-71.868 267.575,-74.912 274,-78 296.416,-88.7734 320.76,-102.438 339.758,-113.572"/>
<polygon fill="midnightblue" stroke="midnightblue" points="338.233,-116.737 348.623,-118.811 341.795,-110.71 338.233,-116.737"/>
</g>
<!-- Node14 -->
<g id="node5" class="node"><title>Node14</title>
<g id="a_node5"><a xlink:href="namespacekoala_1_1reader.html#ae778d4e8030a1008c0a89bf89da6fcd9" target="_top" xlink:title=" ">
<polygon fill="white" stroke="black" points="318,-56.5 318,-75.5 431,-75.5 431,-56.5 318,-56.5"/>
<text text-anchor="middle" x="374.5" y="-63.5" font-family="Helvetica,sans-Serif" font-size="10.00">koala.reader.read_rels</text>
</a>
</g>
</g>
<!-- Node13&#45;&gt;Node14 -->
<g id="edge5" class="edge"><title>Node13&#45;&gt;Node14</title>
<path fill="none" stroke="midnightblue" d="M263.503,-57.6983C277.515,-58.7558 293.016,-59.9258 307.854,-61.0456"/>
<polygon fill="midnightblue" stroke="midnightblue" points="307.758,-64.5482 317.993,-61.8108 308.285,-57.5681 307.758,-64.5482"/>
</g>
<!-- Node16 -->
<g id="node7" class="node"><title>Node16</title>
<g id="a_node7"><a xlink:href="namespacekoala_1_1reader.html#ab5a4c4fc938a80a54bcbe8fe8aad78b4" target="_top" xlink:title=" ">
<polygon fill="white" stroke="black" points="311.5,-18.5 311.5,-37.5 437.5,-37.5 437.5,-18.5 311.5,-18.5"/>
<text text-anchor="middle" x="374.5" y="-25.5" font-family="Helvetica,sans-Serif" font-size="10.00">koala.reader.read_sheets</text>
</a>
</g>
</g>
<!-- Node13&#45;&gt;Node16 -->
<g id="edge7" class="edge"><title>Node13&#45;&gt;Node16</title>
<path fill="none" stroke="midnightblue" d="M263.503,-45.987C276.646,-43.8378 291.099,-41.4743 305.086,-39.1872"/>
<polygon fill="midnightblue" stroke="midnightblue" points="305.859,-42.6074 315.163,-37.5394 304.729,-35.6992 305.859,-42.6074"/>
</g>
<!-- Node15 -->
<g id="node6" class="node"><title>Node15</title>
<g id="a_node6"><a xlink:href="namespacekoala_1_1utils.html#a314c097702e0771ec09427982ac1a2a3" target="_top" xlink:title=" ">
<polygon fill="white" stroke="black" points="475,-37.5 475,-56.5 592,-56.5 592,-37.5 475,-37.5"/>
<text text-anchor="middle" x="533.5" y="-44.5" font-family="Helvetica,sans-Serif" font-size="10.00">koala.utils.safe_iterator</text>
</a>
</g>
</g>
<!-- Node14&#45;&gt;Node15 -->
<g id="edge6" class="edge"><title>Node14&#45;&gt;Node15</title>
<path fill="none" stroke="midnightblue" d="M431.294,-59.2478C442.091,-57.9412 453.515,-56.5587 464.648,-55.2114"/>
<polygon fill="midnightblue" stroke="midnightblue" points="465.256,-58.6634 474.764,-53.9872 464.415,-51.7141 465.256,-58.6634"/>
</g>
<!-- Node16&#45;&gt;Node15 -->
<g id="edge8" class="edge"><title>Node16&#45;&gt;Node15</title>
<path fill="none" stroke="midnightblue" d="M437.551,-35.5093C446.518,-36.5945 455.786,-37.7161 464.856,-38.8138"/>
<polygon fill="midnightblue" stroke="midnightblue" points="464.638,-42.3129 474.986,-40.0397 465.479,-35.3636 464.638,-42.3129"/>
</g>
</g>
</svg>
