<?xml version="1.0" encoding="UTF-8" standalone="no"?>
<!DOCTYPE svg PUBLIC "-//W3C//DTD SVG 1.1//EN"
 "http://www.w3.org/Graphics/SVG/1.1/DTD/svg11.dtd">
<!-- Generated by graphviz version 2.38.0 (20140413.2041)
 -->
<!-- Title: koala.utils.extract_numeric_values Pages: 1 -->
<svg width="250pt" height="142pt"
 viewBox="0.00 0.00 250.00 142.00" xmlns="http://www.w3.org/2000/svg" xmlns:xlink="http://www.w3.org/1999/xlink">
<g id="graph0" class="graph" transform="scale(1 1) rotate(0) translate(4 138)">
<title>koala.utils.extract_numeric_values</title>
<polygon fill="white" stroke="none" points="-4,4 -4,-138 246,-138 246,4 -4,4"/>
<!-- Node50 -->
<g id="node1" class="node"><title>Node50</title>
<g id="a_node1"><a xlink:title=" ">
<polygon fill="#bfbfbf" stroke="black" points="148,-52 148,-82 242,-82 242,-52 148,-52"/>
<text text-anchor="start" x="156" y="-70" font-family="Helvetica,sans-Serif" font-size="10.00">koala.utils.extract</text>
<text text-anchor="middle" x="195" y="-59" font-family="Helvetica,sans-Serif" font-size="10.00">_numeric_values</text>
</a>
</g>
</g>
<!-- Node51 -->
<g id="node2" class="node"><title>Node51</title>
<g id="a_node2"><a xlink:href="namespacekoala_1_1excellib.html#abb26a17a65544252cb4852ce6805d8ea" target="_top" xlink:title=" ">
<polygon fill="white" stroke="black" points="4.5,-114.5 4.5,-133.5 107.5,-133.5 107.5,-114.5 4.5,-114.5"/>
<text text-anchor="middle" x="56" y="-121.5" font-family="Helvetica,sans-Serif" font-size="10.00">koala.excellib.xmax</text>
</a>
</g>
</g>
<!-- Node50&#45;&gt;Node51 -->
<g id="edge1" class="edge"><title>Node50&#45;&gt;Node51</title>
<path fill="none" stroke="midnightblue" d="M154.215,-86.4226C140.918,-92.649 125.935,-99.3812 112,-105 103.755,-108.325 94.6794,-111.609 86.3186,-114.487"/>
<polygon fill="midnightblue" stroke="midnightblue" points="156.018,-89.4416 163.561,-82.0013 153.025,-83.1139 156.018,-89.4416"/>
</g>
<!-- Node52 -->
<g id="node3" class="node"><title>Node52</title>
<g id="a_node3"><a xlink:href="namespacekoala_1_1excellib.html#a99f6a78d4c327fc958fa45ca6287af27" target="_top" xlink:title=" ">
<polygon fill="white" stroke="black" points="6,-76.5 6,-95.5 106,-95.5 106,-76.5 6,-76.5"/>
<text text-anchor="middle" x="56" y="-83.5" font-family="Helvetica,sans-Serif" font-size="10.00">koala.excellib.xmin</text>
</a>
</g>
</g>
<!-- Node50&#45;&gt;Node52 -->
<g id="edge2" class="edge"><title>Node50&#45;&gt;Node52</title>
<path fill="none" stroke="midnightblue" d="M138.093,-74.7535C127.594,-76.2096 116.686,-77.7223 106.403,-79.1485"/>
<polygon fill="midnightblue" stroke="midnightblue" points="138.575,-78.2202 148,-73.3796 137.614,-71.2866 138.575,-78.2202"/>
</g>
<!-- Node53 -->
<g id="node4" class="node"><title>Node53</title>
<g id="a_node4"><a xlink:href="namespacekoala_1_1excellib.html#a41a6149eadc24da5da24a7258f03499e" target="_top" xlink:title=" ">
<polygon fill="white" stroke="black" points="4.5,-38.5 4.5,-57.5 107.5,-57.5 107.5,-38.5 4.5,-38.5"/>
<text text-anchor="middle" x="56" y="-45.5" font-family="Helvetica,sans-Serif" font-size="10.00">koala.excellib.xsum</text>
</a>
</g>
</g>
<!-- Node50&#45;&gt;Node53 -->
<g id="edge3" class="edge"><title>Node50&#45;&gt;Node53</title>
<path fill="none" stroke="midnightblue" d="M137.817,-59.2082C127.887,-57.831 117.599,-56.4043 107.827,-55.049"/>
<polygon fill="midnightblue" stroke="midnightblue" points="137.614,-62.7134 148,-60.6204 138.575,-55.7798 137.614,-62.7134"/>
</g>
<!-- Node54 -->
<g id="node5" class="node"><title>Node54</title>
<g id="a_node5"><a xlink:href="namespacekoala_1_1excellib.html#a555c12148d11b62feb1945157168ea66" target="_top" xlink:title=" ">
<polygon fill="white" stroke="black" points="0,-0.5 0,-19.5 112,-19.5 112,-0.5 0,-0.5"/>
<text text-anchor="middle" x="56" y="-7.5" font-family="Helvetica,sans-Serif" font-size="10.00">koala.excellib.average</text>
</a>
</g>
</g>
<!-- Node50&#45;&gt;Node54 -->
<g id="edge4" class="edge"><title>Node50&#45;&gt;Node54</title>
<path fill="none" stroke="midnightblue" d="M154.215,-47.5774C140.918,-41.351 125.935,-34.6188 112,-29 103.755,-25.6754 94.6794,-22.3913 86.3186,-19.5128"/>
<polygon fill="midnightblue" stroke="midnightblue" points="153.025,-50.8861 163.561,-51.9987 156.018,-44.5584 153.025,-50.8861"/>
</g>
</g>
</svg>
