<?xml version="1.0" encoding="UTF-8" standalone="no"?>
<!DOCTYPE svg PUBLIC "-//W3C//DTD SVG 1.1//EN"
 "http://www.w3.org/Graphics/SVG/1.1/DTD/svg11.dtd">
<!-- Generated by graphviz version 2.38.0 (20140413.2041)
 -->
<!-- Title: koala.excellib.irr Pages: 1 -->
<svg width="374pt" height="88pt"
 viewBox="0.00 0.00 374.00 88.00" xmlns="http://www.w3.org/2000/svg" xmlns:xlink="http://www.w3.org/1999/xlink">
<g id="graph0" class="graph" transform="scale(1 1) rotate(0) translate(4 84)">
<title>koala.excellib.irr</title>
<polygon fill="white" stroke="none" points="-4,4 -4,-84 370,-84 370,4 -4,4"/>
<!-- Node53 -->
<g id="node1" class="node"><title>Node53</title>
<g id="a_node1"><a xlink:title=" ">
<polygon fill="#bfbfbf" stroke="black" points="0,-30 0,-49 87,-49 87,-30 0,-30"/>
<text text-anchor="middle" x="43.5" y="-37" font-family="Helvetica,sans-Serif" font-size="10.00">koala.excellib.irr</text>
</a>
</g>
</g>
<!-- Node54 -->
<g id="node2" class="node"><title>Node54</title>
<g id="a_node2"><a xlink:href="namespacekoala_1_1utils.html#adeefbb82b9a8c72e5c67197400767f0b" target="_top" xlink:title=" ">
<polygon fill="white" stroke="black" points="127,-49.5 127,-79.5 217,-79.5 217,-49.5 127,-49.5"/>
<text text-anchor="start" x="135" y="-67.5" font-family="Helvetica,sans-Serif" font-size="10.00">koala.utils.is_not</text>
<text text-anchor="middle" x="172" y="-56.5" font-family="Helvetica,sans-Serif" font-size="10.00">_number_input</text>
</a>
</g>
</g>
<!-- Node53&#45;&gt;Node54 -->
<g id="edge1" class="edge"><title>Node53&#45;&gt;Node54</title>
<path fill="none" stroke="midnightblue" d="M87.3271,-47.9639C96.7963,-49.8352 106.95,-51.8418 116.804,-53.7893"/>
<polygon fill="midnightblue" stroke="midnightblue" points="116.434,-57.2838 126.923,-55.7891 117.791,-50.4167 116.434,-57.2838"/>
</g>
<!-- Node56 -->
<g id="node4" class="node"><title>Node56</title>
<g id="a_node4"><a xlink:href="namespacekoala_1_1utils.html#a344ae2d72b1cec3fadbfec9418af8394" target="_top" xlink:title=" ">
<polygon fill="white" stroke="black" points="123,-0.5 123,-30.5 221,-30.5 221,-0.5 123,-0.5"/>
<text text-anchor="start" x="131" y="-18.5" font-family="Helvetica,sans-Serif" font-size="10.00">koala.utils.numeric</text>
<text text-anchor="middle" x="172" y="-7.5" font-family="Helvetica,sans-Serif" font-size="10.00">_error</text>
</a>
</g>
</g>
<!-- Node53&#45;&gt;Node56 -->
<g id="edge3" class="edge"><title>Node53&#45;&gt;Node56</title>
<path fill="none" stroke="midnightblue" d="M87.3271,-31.3747C95.57,-29.8108 104.331,-28.1486 112.962,-26.5111"/>
<polygon fill="midnightblue" stroke="midnightblue" points="113.823,-29.9103 122.995,-24.6076 112.518,-23.033 113.823,-29.9103"/>
</g>
<!-- Node55 -->
<g id="node3" class="node"><title>Node55</title>
<g id="a_node3"><a xlink:href="namespacekoala_1_1utils.html#af016160edea2b46cb26db3ed307c9648" target="_top" xlink:title=" ">
<polygon fill="white" stroke="black" points="257,-55 257,-74 366,-74 366,-55 257,-55"/>
<text text-anchor="middle" x="311.5" y="-62" font-family="Helvetica,sans-Serif" font-size="10.00">koala.utils.is_number</text>
</a>
</g>
</g>
<!-- Node54&#45;&gt;Node55 -->
<g id="edge2" class="edge"><title>Node54&#45;&gt;Node55</title>
<path fill="none" stroke="midnightblue" d="M217.263,-64.5C226.585,-64.5 236.599,-64.5 246.482,-64.5"/>
<polygon fill="midnightblue" stroke="midnightblue" points="246.699,-68.0001 256.699,-64.5 246.699,-61.0001 246.699,-68.0001"/>
</g>
</g>
</svg>
