<?xml version="1.0" encoding="UTF-8" standalone="no"?>
<!DOCTYPE svg PUBLIC "-//W3C//DTD SVG 1.1//EN"
 "http://www.w3.org/Graphics/SVG/1.1/DTD/svg11.dtd">
<!-- Generated by graphviz version 2.38.0 (20140413.2041)
 -->
<!-- Title: koala.excellib.eomonth Pages: 1 -->
<svg width="719pt" height="111pt"
 viewBox="0.00 0.00 719.00 111.03" xmlns="http://www.w3.org/2000/svg" xmlns:xlink="http://www.w3.org/1999/xlink">
<g id="graph0" class="graph" transform="scale(1 1) rotate(0) translate(4 107.032)">
<title>koala.excellib.eomonth</title>
<polygon fill="white" stroke="none" points="-4,4 -4,-107.032 715,-107.032 715,4 -4,4"/>
<!-- Node40 -->
<g id="node1" class="node"><title>Node40</title>
<g id="a_node1"><a xlink:title=" ">
<polygon fill="#bfbfbf" stroke="black" points="0,-69 0,-88 116,-88 116,-69 0,-69"/>
<text text-anchor="middle" x="58" y="-76" font-family="Helvetica,sans-Serif" font-size="10.00">koala.excellib.eomonth</text>
</a>
</g>
</g>
<!-- Node41 -->
<g id="node2" class="node"><title>Node41</title>
<g id="a_node2"><a xlink:href="namespacekoala_1_1utils.html#af016160edea2b46cb26db3ed307c9648" target="_top" xlink:title=" ">
<polygon fill="white" stroke="black" points="602,-69 602,-88 711,-88 711,-69 602,-69"/>
<text text-anchor="middle" x="656.5" y="-76" font-family="Helvetica,sans-Serif" font-size="10.00">koala.utils.is_number</text>
</a>
</g>
</g>
<!-- Node40&#45;&gt;Node41 -->
<g id="edge1" class="edge"><title>Node40&#45;&gt;Node41</title>
<path fill="none" stroke="midnightblue" d="M96.7426,-88.0096C113.541,-91.7746 133.637,-95.6434 152,-97.5 211.005,-103.466 450.81,-106.741 566,-95.5 578.298,-94.2999 591.425,-92.249 603.73,-89.9784"/>
<polygon fill="midnightblue" stroke="midnightblue" points="604.678,-93.3602 613.837,-88.0333 603.355,-86.4864 604.678,-93.3602"/>
</g>
<!-- Node42 -->
<g id="node3" class="node"><title>Node42</title>
<g id="a_node3"><a xlink:href="namespacekoala_1_1utils.html#a37fde0505838c8954ad814bd03f331c3" target="_top" xlink:title=" ">
<polygon fill="white" stroke="black" points="152,-69 152,-88 274,-88 274,-69 152,-69"/>
<text text-anchor="middle" x="213" y="-76" font-family="Helvetica,sans-Serif" font-size="10.00">koala.utils.date_from_int</text>
</a>
</g>
</g>
<!-- Node40&#45;&gt;Node42 -->
<g id="edge2" class="edge"><title>Node40&#45;&gt;Node42</title>
<path fill="none" stroke="midnightblue" d="M116.407,-78.5C124.666,-78.5 133.242,-78.5 141.715,-78.5"/>
<polygon fill="midnightblue" stroke="midnightblue" points="141.972,-82.0001 151.972,-78.5 141.972,-75.0001 141.972,-82.0001"/>
</g>
<!-- Node45 -->
<g id="node6" class="node"><title>Node45</title>
<g id="a_node6"><a xlink:href="namespacekoala_1_1utils.html#aa1e8802a8e424693b12bf2c3ca1c305f" target="_top" xlink:title=" ">
<polygon fill="white" stroke="black" points="152,-31 152,-50 274,-50 274,-31 152,-31"/>
<text text-anchor="middle" x="213" y="-38" font-family="Helvetica,sans-Serif" font-size="10.00">koala.utils.int_from_date</text>
</a>
</g>
</g>
<!-- Node40&#45;&gt;Node45 -->
<g id="edge9" class="edge"><title>Node40&#45;&gt;Node45</title>
<path fill="none" stroke="midnightblue" d="M97.6084,-68.911C117.707,-63.9191 142.475,-57.7676 163.819,-52.4666"/>
<polygon fill="midnightblue" stroke="midnightblue" points="164.808,-55.8274 173.669,-50.0201 163.12,-49.0338 164.808,-55.8274"/>
</g>
<!-- Node42&#45;&gt;Node41 -->
<g id="edge3" class="edge"><title>Node42&#45;&gt;Node41</title>
<path fill="none" stroke="midnightblue" d="M274.16,-81.3913C286.036,-81.8535 298.409,-82.2586 310,-82.5 408.26,-84.5462 522.264,-82.3349 591.612,-80.4775"/>
<polygon fill="midnightblue" stroke="midnightblue" points="592.03,-83.9675 601.931,-80.1949 591.838,-76.9701 592.03,-83.9675"/>
</g>
<!-- Node43 -->
<g id="node4" class="node"><title>Node43</title>
<g id="a_node4"><a xlink:href="namespacekoala_1_1utils.html#aa5132ee97ef859e71f955428648f3359" target="_top" xlink:title=" ">
<polygon fill="white" stroke="black" points="447,-50 447,-69 566,-69 566,-50 447,-50"/>
<text text-anchor="middle" x="506.5" y="-57" font-family="Helvetica,sans-Serif" font-size="10.00">koala.utils.is_leap_year</text>
</a>
</g>
</g>
<!-- Node42&#45;&gt;Node43 -->
<g id="edge4" class="edge"><title>Node42&#45;&gt;Node43</title>
<path fill="none" stroke="midnightblue" d="M274.046,-74.5862C321.192,-71.5132 386.894,-67.2308 436.256,-64.0133"/>
<polygon fill="midnightblue" stroke="midnightblue" points="436.778,-67.4868 446.529,-63.3437 436.323,-60.5016 436.778,-67.4868"/>
</g>
<!-- Node44 -->
<g id="node5" class="node"><title>Node44</title>
<g id="a_node5"><a xlink:href="namespacekoala_1_1utils.html#a6ca2acad4db5fefe21c0941c1622f5e4" target="_top" xlink:title=" ">
<polygon fill="white" stroke="black" points="310,-0.5 310,-30.5 411,-30.5 411,-0.5 310,-0.5"/>
<text text-anchor="start" x="318" y="-18.5" font-family="Helvetica,sans-Serif" font-size="10.00">koala.utils.get_max</text>
<text text-anchor="middle" x="360.5" y="-7.5" font-family="Helvetica,sans-Serif" font-size="10.00">_days_in_month</text>
</a>
</g>
</g>
<!-- Node42&#45;&gt;Node44 -->
<g id="edge6" class="edge"><title>Node42&#45;&gt;Node44</title>
<path fill="none" stroke="midnightblue" d="M247.681,-68.9316C256.361,-66.1684 265.615,-62.9561 274,-59.5 290.872,-52.5456 308.924,-43.5078 324.073,-35.4337"/>
<polygon fill="midnightblue" stroke="midnightblue" points="325.96,-38.3922 333.093,-30.5583 322.632,-32.2341 325.96,-38.3922"/>
</g>
<!-- Node43&#45;&gt;Node41 -->
<g id="edge5" class="edge"><title>Node43&#45;&gt;Node41</title>
<path fill="none" stroke="midnightblue" d="M566.419,-67.0639C574.671,-68.1233 583.185,-69.2163 591.526,-70.2871"/>
<polygon fill="midnightblue" stroke="midnightblue" points="591.22,-73.7765 601.584,-71.5784 592.112,-66.8335 591.22,-73.7765"/>
</g>
<!-- Node44&#45;&gt;Node41 -->
<g id="edge7" class="edge"><title>Node44&#45;&gt;Node41</title>
<path fill="none" stroke="midnightblue" d="M411.411,-17.7004C453.28,-20.4683 514.346,-26.6715 566,-40.5 587.601,-46.2829 610.811,-56.2559 628.182,-64.5342"/>
<polygon fill="midnightblue" stroke="midnightblue" points="626.661,-67.6866 637.184,-68.9215 629.728,-61.3942 626.661,-67.6866"/>
</g>
<!-- Node44&#45;&gt;Node43 -->
<g id="edge8" class="edge"><title>Node44&#45;&gt;Node43</title>
<path fill="none" stroke="midnightblue" d="M410.654,-30.5192C428.062,-35.8383 447.457,-41.7647 464.15,-46.8654"/>
<polygon fill="midnightblue" stroke="midnightblue" points="463.567,-50.3467 474.153,-49.9217 465.612,-43.6522 463.567,-50.3467"/>
</g>
</g>
</svg>
