<?xml version="1.0" encoding="UTF-8" standalone="no"?>
<!DOCTYPE svg PUBLIC "-//W3C//DTD SVG 1.1//EN"
 "http://www.w3.org/Graphics/SVG/1.1/DTD/svg11.dtd">
<!-- Generated by graphviz version 2.38.0 (20140413.2041)
 -->
<!-- Title: koala.utils.split_range Pages: 1 -->
<!--zoomable 194 -->
<svg id="main" version="1.1" xmlns="http://www.w3.org/2000/svg" xmlns:xlink="http://www.w3.org/1999/xlink" xml:space="preserve" onload="init(evt)">
<style type="text/css"><![CDATA[
.edge:hover path { stroke: red; }
.edge:hover polygon { stroke: red; fill: red; }
]]></style>
<script type="text/javascript"><![CDATA[
var edges = document.getElementsByTagName('g');
if (edges && edges.length) {
  for (var i=0;i<edges.length;i++) {
    if (edges[i].id.substr(0,4)=='edge') {
      edges[i].setAttribute('class','edge');
    }
  }
}
]]></script>
        <defs>
                <circle id="rim" cx="0" cy="0" r="7"/>
                <circle id="rim2" cx="0" cy="0" r="3.5"/>
                <g id="zoomPlus">
                        <use xlink:href="#rim" fill="#404040">
                                <set attributeName="fill" to="#808080" begin="zoomplus.mouseover" end="zoomplus.mouseout"/>
                        </use>
                        <path d="M-4,0h8M0,-4v8" fill="none" stroke="white" stroke-width="1.5" pointer-events="none"/>
                </g>
                <g id="zoomMin">
                        <use xlink:href="#rim" fill="#404040">
                                <set attributeName="fill" to="#808080" begin="zoomminus.mouseover" end="zoomminus.mouseout"/>
                        </use>
                        <path d="M-4,0h8" fill="none" stroke="white" stroke-width="1.5" pointer-events="none"/>
                </g>
                <g id="dirArrow">
                        <path fill="none" stroke="white" stroke-width="1.5" d="M0,-3.0v7 M-2.5,-0.5L0,-3.0L2.5,-0.5"/>
                </g>
               <g id="resetDef">
                       <use xlink:href="#rim2" fill="#404040">
                               <set attributeName="fill" to="#808080" begin="reset.mouseover" end="reset.mouseout"/>
                       </use>
               </g>
        </defs>

<script type="text/javascript">
var viewWidth = 1095;
var viewHeight = 194;
var sectionId = 'dynsection-36';
</script>
<script xlink:href="svgpan.js"/>
<svg id="graph" class="graph">
<g id="viewport">
<title>koala.utils.split_range</title>
<polygon fill="white" stroke="none" points="-4,4 -4,-190 1091,-190 1091,4 -4,4"/>
<!-- Node267 -->
<g id="node1" class="node"><title>Node267</title>
<g id="a_node1"><a xlink:title=" ">
<polygon fill="#bfbfbf" stroke="black" points="976,-139 976,-158 1087,-158 1087,-139 976,-139"/>
<text text-anchor="middle" x="1031.5" y="-146" font-family="Helvetica,sans-Serif" font-size="10.00">koala.utils.split_range</text>
</a>
</g>
</g>
<!-- Node268 -->
<g id="node2" class="node"><title>Node268</title>
<g id="a_node2"><a xlink:href="classkoala_1_1_cell_1_1_cell.html#ab1fa079614840ca386e0970338c2d8f0" target="_top" xlink:title=" ">
<polygon fill="white" stroke="black" points="671,-155.5 671,-185.5 777,-185.5 777,-155.5 671,-155.5"/>
<text text-anchor="start" x="679" y="-173.5" font-family="Helvetica,sans-Serif" font-size="10.00">koala.Cell.Cell.make</text>
<text text-anchor="middle" x="724" y="-162.5" font-family="Helvetica,sans-Serif" font-size="10.00">_cells</text>
</a>
</g>
</g>
<!-- Node267&#45;&gt;Node268 -->
<g id="edge1" class="edge"><title>Node267&#45;&gt;Node268</title>
<path fill="none" stroke="midnightblue" d="M965.682,-153.168C909.488,-157.214 829.216,-162.995 777.105,-166.748"/>
<polygon fill="midnightblue" stroke="midnightblue" points="966.16,-156.642 975.883,-152.433 965.657,-149.661 966.16,-156.642"/>
</g>
<!-- Node269 -->
<g id="node3" class="node"><title>Node269</title>
<g id="a_node3"><a xlink:href="namespacekoala_1_1utils.html#a1d3620df245d23fea05928298cabc2ac" target="_top" xlink:title=" ">
<polygon fill="white" stroke="black" points="846,-111.5 846,-141.5 940,-141.5 940,-111.5 846,-111.5"/>
<text text-anchor="start" x="854" y="-129.5" font-family="Helvetica,sans-Serif" font-size="10.00">koala.utils.resolve</text>
<text text-anchor="middle" x="893" y="-118.5" font-family="Helvetica,sans-Serif" font-size="10.00">_range</text>
</a>
</g>
</g>
<!-- Node267&#45;&gt;Node269 -->
<g id="edge2" class="edge"><title>Node267&#45;&gt;Node269</title>
<path fill="none" stroke="midnightblue" d="M965.78,-138.069C957.216,-136.689 948.577,-135.296 940.406,-133.979"/>
<polygon fill="midnightblue" stroke="midnightblue" points="965.337,-141.543 975.767,-139.679 966.451,-134.632 965.337,-141.543"/>
</g>
<!-- Node269&#45;&gt;Node268 -->
<g id="edge3" class="edge"><title>Node269&#45;&gt;Node268</title>
<path fill="none" stroke="midnightblue" d="M836.176,-141.208C817.109,-146.232 795.87,-151.828 777.107,-156.771"/>
<polygon fill="midnightblue" stroke="midnightblue" points="837.146,-144.572 845.924,-138.64 835.363,-137.803 837.146,-144.572"/>
</g>
<!-- Node270 -->
<g id="node4" class="node"><title>Node270</title>
<g id="a_node4"><a xlink:href="namespacekoala_1_1excellib.html#ab1d9d224f4ee11e755d39b5ad520f371" target="_top" xlink:title=" ">
<polygon fill="white" stroke="black" points="673,-117 673,-136 775,-136 775,-117 673,-117"/>
<text text-anchor="middle" x="724" y="-124" font-family="Helvetica,sans-Serif" font-size="10.00">koala.excellib.offset</text>
</a>
</g>
</g>
<!-- Node269&#45;&gt;Node270 -->
<g id="edge4" class="edge"><title>Node269&#45;&gt;Node270</title>
<path fill="none" stroke="midnightblue" d="M835.86,-126.5C816.164,-126.5 794.185,-126.5 775.024,-126.5"/>
<polygon fill="midnightblue" stroke="midnightblue" points="835.924,-130 845.924,-126.5 835.924,-123 835.924,-130"/>
</g>
<!-- Node271 -->
<g id="node5" class="node"><title>Node271</title>
<g id="a_node5"><a xlink:href="classkoala_1_1_range_1_1_range_core.html#ac49ba3473e8bcd9585eedd4fa9603bf2" target="_top" xlink:title=" ">
<polygon fill="white" stroke="black" points="661.5,-67.5 661.5,-97.5 786.5,-97.5 786.5,-67.5 661.5,-67.5"/>
<text text-anchor="start" x="669.5" y="-85.5" font-family="Helvetica,sans-Serif" font-size="10.00">koala.Range.RangeCore.</text>
<text text-anchor="middle" x="724" y="-74.5" font-family="Helvetica,sans-Serif" font-size="10.00">__init__</text>
</a>
</g>
</g>
<!-- Node269&#45;&gt;Node271 -->
<g id="edge5" class="edge"><title>Node269&#45;&gt;Node271</title>
<path fill="none" stroke="midnightblue" d="M835.924,-111.726C818.544,-107.146 799.382,-102.098 781.944,-97.5032"/>
<polygon fill="midnightblue" stroke="midnightblue" points="835.363,-115.197 845.924,-114.36 837.146,-108.428 835.363,-115.197"/>
</g>
<!-- Node272 -->
<g id="node6" class="node"><title>Node272</title>
<g id="a_node6"><a xlink:href="classkoala_1_1_spreadsheet_1_1_spreadsheet.html#aa23818eb03be8a82c0969bd5338fdf2d" target="_top" xlink:title=" ">
<polygon fill="white" stroke="black" points="638,-0.5 638,-30.5 810,-30.5 810,-0.5 638,-0.5"/>
<text text-anchor="start" x="646" y="-18.5" font-family="Helvetica,sans-Serif" font-size="10.00">koala.Spreadsheet.Spreadsheet.get</text>
<text text-anchor="middle" x="724" y="-7.5" font-family="Helvetica,sans-Serif" font-size="10.00">_arguments_from_ast</text>
</a>
</g>
</g>
<!-- Node269&#45;&gt;Node272 -->
<g id="edge6" class="edge"><title>Node269&#45;&gt;Node272</title>
<path fill="none" stroke="midnightblue" d="M868.588,-104.169C852.802,-89.794 831.083,-71.2893 810,-57.5 794.434,-47.3189 776.048,-37.9425 760.365,-30.6441"/>
<polygon fill="midnightblue" stroke="midnightblue" points="866.546,-107.048 876.267,-111.263 871.296,-101.906 866.546,-107.048"/>
</g>
<!-- Node272&#45;&gt;Node272 -->
<g id="edge7" class="edge"><title>Node272&#45;&gt;Node272</title>
<path fill="none" stroke="midnightblue" d="M753.852,-40.9579C750.147,-45.679 740.196,-49 724,-49 697.422,-49 687.663,-40.0566 694.723,-30.659"/>
<polygon fill="midnightblue" stroke="midnightblue" points="757.329,-40.4487 753.277,-30.659 750.34,-40.8383 757.329,-40.4487"/>
</g>
<!-- Node273 -->
<g id="node7" class="node"><title>Node273</title>
<g id="a_node7"><a xlink:href="classkoala_1_1_spreadsheet_1_1_spreadsheet.html#a8ebd4153a8499a4bf7fdf0bde89f12f0" target="_top" xlink:title=" ">
<polygon fill="white" stroke="black" points="430,-0.5 430,-30.5 602,-30.5 602,-0.5 430,-0.5"/>
<text text-anchor="start" x="438" y="-18.5" font-family="Helvetica,sans-Serif" font-size="10.00">koala.Spreadsheet.Spreadsheet.get</text>
<text text-anchor="middle" x="516" y="-7.5" font-family="Helvetica,sans-Serif" font-size="10.00">_pointer_arguments_from_ast</text>
</a>
</g>
</g>
<!-- Node272&#45;&gt;Node273 -->
<g id="edge8" class="edge"><title>Node272&#45;&gt;Node273</title>
<path fill="none" stroke="midnightblue" d="M627.486,-15.5C619.053,-15.5 610.552,-15.5 602.211,-15.5"/>
<polygon fill="midnightblue" stroke="midnightblue" points="627.725,-19.0001 637.725,-15.5 627.725,-12.0001 627.725,-19.0001"/>
</g>
<!-- Node273&#45;&gt;Node273 -->
<g id="edge11" class="edge"><title>Node273&#45;&gt;Node273</title>
<path fill="none" stroke="midnightblue" d="M552.959,-40.9579C548.372,-45.679 536.052,-49 516,-49 483.094,-49 471.011,-40.0566 479.752,-30.659"/>
<polygon fill="midnightblue" stroke="midnightblue" points="556.429,-40.3943 552.248,-30.659 549.445,-40.8763 556.429,-40.3943"/>
</g>
<!-- Node274 -->
<g id="node8" class="node"><title>Node274</title>
<g id="a_node8"><a xlink:href="classkoala_1_1_spreadsheet_1_1_spreadsheet.html#a6f233266d3e106c54dc37886dba18e9a" target="_top" xlink:title=" ">
<polygon fill="white" stroke="black" points="221,-0.5 221,-30.5 394,-30.5 394,-0.5 221,-0.5"/>
<text text-anchor="start" x="229" y="-18.5" font-family="Helvetica,sans-Serif" font-size="10.00">koala.Spreadsheet.Spreadsheet.find</text>
<text text-anchor="middle" x="307.5" y="-7.5" font-family="Helvetica,sans-Serif" font-size="10.00">_pointer_arguments</text>
</a>
</g>
</g>
<!-- Node273&#45;&gt;Node274 -->
<g id="edge9" class="edge"><title>Node273&#45;&gt;Node274</title>
<path fill="none" stroke="midnightblue" d="M419.538,-15.5C411.071,-15.5 402.533,-15.5 394.155,-15.5"/>
<polygon fill="midnightblue" stroke="midnightblue" points="419.816,-19.0001 429.816,-15.5 419.816,-12.0001 419.816,-19.0001"/>
</g>
<!-- Node275 -->
<g id="node9" class="node"><title>Node275</title>
<g id="a_node9"><a xlink:href="classkoala_1_1_spreadsheet_1_1_spreadsheet.html#a988fc1ddf090bf9746135ce759907a5a" target="_top" xlink:title=" ">
<polygon fill="white" stroke="black" points="0,-0.5 0,-30.5 185,-30.5 185,-0.5 0,-0.5"/>
<text text-anchor="start" x="8" y="-18.5" font-family="Helvetica,sans-Serif" font-size="10.00">koala.Spreadsheet.Spreadsheet.detect</text>
<text text-anchor="middle" x="92.5" y="-7.5" font-family="Helvetica,sans-Serif" font-size="10.00">_alive</text>
</a>
</g>
</g>
<!-- Node274&#45;&gt;Node275 -->
<g id="edge10" class="edge"><title>Node274&#45;&gt;Node275</title>
<path fill="none" stroke="midnightblue" d="M210.588,-15.5C202.18,-15.5 193.683,-15.5 185.31,-15.5"/>
<polygon fill="midnightblue" stroke="midnightblue" points="210.785,-19.0001 220.785,-15.5 210.785,-12.0001 210.785,-19.0001"/>
</g>
</g>
</svg>
        <g id="navigator" transform="translate(0 0)" fill="#404254">
                <rect fill="#f2f5e9" fill-opacity="0.5" stroke="#606060" stroke-width=".5" x="0" y="0" width="60" height="60"/>
                <use id="zoomplus" xlink:href="#zoomPlus" x="17" y="9" onmousedown="handleZoom(evt,'in')"/>
                <use id="zoomminus" xlink:href="#zoomMin" x="42" y="9" onmousedown="handleZoom(evt,'out')"/>
                <use id="reset" xlink:href="#resetDef" x="30" y="36" onmousedown="handleReset()"/>
                <g id="arrowUp" xlink:href="#dirArrow" transform="translate(30 24)" onmousedown="handlePan(0,-1)">
                  <use xlink:href="#rim" fill="#404040">
                        <set attributeName="fill" to="#808080" begin="arrowUp.mouseover" end="arrowUp.mouseout"/>
                  </use>
                  <path fill="none" stroke="white" stroke-width="1.5" d="M0,-3.0v7 M-2.5,-0.5L0,-3.0L2.5,-0.5"/>
                </g>
                <g id="arrowRight" xlink:href="#dirArrow" transform="rotate(90) translate(36 -43)" onmousedown="handlePan(1,0)">
                  <use xlink:href="#rim" fill="#404040">
                        <set attributeName="fill" to="#808080" begin="arrowRight.mouseover" end="arrowRight.mouseout"/>
                  </use>
                  <path fill="none" stroke="white" stroke-width="1.5" d="M0,-3.0v7 M-2.5,-0.5L0,-3.0L2.5,-0.5"/>
                </g>
                <g id="arrowDown" xlink:href="#dirArrow" transform="rotate(180) translate(-30 -48)" onmousedown="handlePan(0,1)">
                  <use xlink:href="#rim" fill="#404040">
                        <set attributeName="fill" to="#808080" begin="arrowDown.mouseover" end="arrowDown.mouseout"/>
                  </use>
                  <path fill="none" stroke="white" stroke-width="1.5" d="M0,-3.0v7 M-2.5,-0.5L0,-3.0L2.5,-0.5"/>
                </g>
                <g id="arrowLeft" xlink:href="#dirArrow" transform="rotate(270) translate(-36 17)" onmousedown="handlePan(-1,0)">
                  <use xlink:href="#rim" fill="#404040">
                        <set attributeName="fill" to="#808080" begin="arrowLeft.mouseover" end="arrowLeft.mouseout"/>
                  </use>
                  <path fill="none" stroke="white" stroke-width="1.5" d="M0,-3.0v7 M-2.5,-0.5L0,-3.0L2.5,-0.5"/>
                </g>
        </g>
        <svg viewBox="0 0 15 15" width="100%" height="30px" preserveAspectRatio="xMaxYMin meet">
         <g id="arrow_out" transform="scale(0.3 0.3)">
          <a xlink:href="namespacekoala_1_1utils_a77ace10251dde2f09a457b7b469208cc_icgraph_org.svg" target="_base">
           <rect id="button" ry="5" rx="5" y="6" x="6" height="38" width="38"
                fill="#f2f5e9" fill-opacity="0.5" stroke="#606060" stroke-width="1.0"/>
           <path id="arrow"
             d="M 11.500037,31.436501 C 11.940474,20.09759 22.043105,11.32322 32.158766,21.979434 L 37.068811,17.246167 C 37.068811,17.246167 37.088388,32 37.088388,32 L 22.160133,31.978069 C 22.160133,31.978069 26.997745,27.140456 26.997745,27.140456 C 18.528582,18.264221 13.291696,25.230495 11.500037,31.436501 z"
             style="fill:#404040;"/>
          </a>
         </g>
        </svg>
</svg>
