<?xml version="1.0" encoding="UTF-8" standalone="no"?>
<!DOCTYPE svg PUBLIC "-//W3C//DTD SVG 1.1//EN"
 "http://www.w3.org/Graphics/SVG/1.1/DTD/svg11.dtd">
<!-- Generated by graphviz version 2.38.0 (20140413.2041)
 -->
<!-- Title: koala.utils.criteria_parser Pages: 1 -->
<svg width="431pt" height="142pt"
 viewBox="0.00 0.00 431.00 142.00" xmlns="http://www.w3.org/2000/svg" xmlns:xlink="http://www.w3.org/1999/xlink">
<g id="graph0" class="graph" transform="scale(1 1) rotate(0) translate(4 138)">
<title>koala.utils.criteria_parser</title>
<polygon fill="white" stroke="none" points="-4,4 -4,-138 427,-138 427,4 -4,4"/>
<!-- Node24 -->
<g id="node1" class="node"><title>Node24</title>
<g id="a_node1"><a xlink:title=" ">
<polygon fill="#bfbfbf" stroke="black" points="330,-52 330,-82 423,-82 423,-52 330,-52"/>
<text text-anchor="start" x="338" y="-70" font-family="Helvetica,sans-Serif" font-size="10.00">koala.utils.criteria</text>
<text text-anchor="middle" x="376.5" y="-59" font-family="Helvetica,sans-Serif" font-size="10.00">_parser</text>
</a>
</g>
</g>
<!-- Node25 -->
<g id="node2" class="node"><title>Node25</title>
<g id="a_node2"><a xlink:href="namespacekoala_1_1utils.html#ad21271884394217f55fa9144173c9e1e" target="_top" xlink:title=" ">
<polygon fill="white" stroke="black" points="149,-52 149,-82 294,-82 294,-52 149,-52"/>
<text text-anchor="start" x="157" y="-70" font-family="Helvetica,sans-Serif" font-size="10.00">koala.utils.find_corresponding</text>
<text text-anchor="middle" x="221.5" y="-59" font-family="Helvetica,sans-Serif" font-size="10.00">_index</text>
</a>
</g>
</g>
<!-- Node24&#45;&gt;Node25 -->
<g id="edge1" class="edge"><title>Node24&#45;&gt;Node25</title>
<path fill="none" stroke="midnightblue" d="M319.394,-67C311.173,-67 302.613,-67 294.134,-67"/>
<polygon fill="midnightblue" stroke="midnightblue" points="319.595,-70.5001 329.595,-67 319.595,-63.5001 319.595,-70.5001"/>
</g>
<!-- Node26 -->
<g id="node3" class="node"><title>Node26</title>
<g id="a_node3"><a xlink:href="namespacekoala_1_1excellib.html#a07c837baf8d5edb51a9e58ec4c51b763" target="_top" xlink:title=" ">
<polygon fill="white" stroke="black" points="5.5,-114.5 5.5,-133.5 107.5,-133.5 107.5,-114.5 5.5,-114.5"/>
<text text-anchor="middle" x="56.5" y="-121.5" font-family="Helvetica,sans-Serif" font-size="10.00">koala.excellib.sumif</text>
</a>
</g>
</g>
<!-- Node25&#45;&gt;Node26 -->
<g id="edge2" class="edge"><title>Node25&#45;&gt;Node26</title>
<path fill="none" stroke="midnightblue" d="M168.609,-85.4599C150.973,-91.7026 131.141,-98.6887 113,-105 104.054,-108.112 94.2839,-111.471 85.4683,-114.486"/>
<polygon fill="midnightblue" stroke="midnightblue" points="169.9,-88.716 178.157,-82.0772 167.562,-82.1179 169.9,-88.716"/>
</g>
<!-- Node27 -->
<g id="node4" class="node"><title>Node27</title>
<g id="a_node4"><a xlink:href="namespacekoala_1_1excellib.html#af19b0582f4f732ba5b2cffd9b3f145a1" target="_top" xlink:title=" ">
<polygon fill="white" stroke="black" points="3,-76.5 3,-95.5 110,-95.5 110,-76.5 3,-76.5"/>
<text text-anchor="middle" x="56.5" y="-83.5" font-family="Helvetica,sans-Serif" font-size="10.00">koala.excellib.sumifs</text>
</a>
</g>
</g>
<!-- Node25&#45;&gt;Node27 -->
<g id="edge3" class="edge"><title>Node25&#45;&gt;Node27</title>
<path fill="none" stroke="midnightblue" d="M138.596,-76.5471C129.043,-77.6606 119.498,-78.7733 110.485,-79.8239"/>
<polygon fill="midnightblue" stroke="midnightblue" points="139.004,-80.0233 148.531,-75.389 138.193,-73.0704 139.004,-80.0233"/>
</g>
<!-- Node28 -->
<g id="node5" class="node"><title>Node28</title>
<g id="a_node5"><a xlink:href="namespacekoala_1_1excellib.html#a2093289e7e91ce2015f3bade22a03df1" target="_top" xlink:title=" ">
<polygon fill="white" stroke="black" points="3,-38.5 3,-57.5 110,-57.5 110,-38.5 3,-38.5"/>
<text text-anchor="middle" x="56.5" y="-45.5" font-family="Helvetica,sans-Serif" font-size="10.00">koala.excellib.countif</text>
</a>
</g>
</g>
<!-- Node25&#45;&gt;Node28 -->
<g id="edge4" class="edge"><title>Node25&#45;&gt;Node28</title>
<path fill="none" stroke="midnightblue" d="M138.596,-57.4529C129.043,-56.3394 119.498,-55.2267 110.485,-54.1761"/>
<polygon fill="midnightblue" stroke="midnightblue" points="138.193,-60.9296 148.531,-58.611 139.004,-53.9767 138.193,-60.9296"/>
</g>
<!-- Node29 -->
<g id="node6" class="node"><title>Node29</title>
<g id="a_node6"><a xlink:href="namespacekoala_1_1excellib.html#ab862890501984c3c1dd522f3ac0078ee" target="_top" xlink:title=" ">
<polygon fill="white" stroke="black" points="0,-0.5 0,-19.5 113,-19.5 113,-0.5 0,-0.5"/>
<text text-anchor="middle" x="56.5" y="-7.5" font-family="Helvetica,sans-Serif" font-size="10.00">koala.excellib.countifs</text>
</a>
</g>
</g>
<!-- Node25&#45;&gt;Node29 -->
<g id="edge5" class="edge"><title>Node25&#45;&gt;Node29</title>
<path fill="none" stroke="midnightblue" d="M168.609,-48.5401C150.973,-42.2974 131.141,-35.3113 113,-29 104.054,-25.8878 94.2839,-22.5293 85.4683,-19.5142"/>
<polygon fill="midnightblue" stroke="midnightblue" points="167.562,-51.8821 178.157,-51.9228 169.9,-45.284 167.562,-51.8821"/>
</g>
</g>
</svg>
