<?xml version="1.0" encoding="UTF-8" standalone="no"?>
<!DOCTYPE svg PUBLIC "-//W3C//DTD SVG 1.1//EN"
 "http://www.w3.org/Graphics/SVG/1.1/DTD/svg11.dtd">
<!-- Generated by graphviz version 2.38.0 (20140413.2041)
 -->
<!-- Title: koala.excellib.concat Pages: 1 -->
<svg width="410pt" height="47pt"
 viewBox="0.00 0.00 410.00 47.00" xmlns="http://www.w3.org/2000/svg" xmlns:xlink="http://www.w3.org/1999/xlink">
<g id="graph0" class="graph" transform="scale(1 1) rotate(0) translate(4 43)">
<title>koala.excellib.concat</title>
<polygon fill="white" stroke="none" points="-4,4 -4,-43 406,-43 406,4 -4,4"/>
<!-- Node9 -->
<g id="node1" class="node"><title>Node9</title>
<g id="a_node1"><a xlink:title=" ">
<polygon fill="#bfbfbf" stroke="black" points="0,-0.5 0,-19.5 108,-19.5 108,-0.5 0,-0.5"/>
<text text-anchor="middle" x="54" y="-7.5" font-family="Helvetica,sans-Serif" font-size="10.00">koala.excellib.concat</text>
</a>
</g>
</g>
<!-- Node10 -->
<g id="node2" class="node"><title>Node10</title>
<g id="a_node2"><a xlink:href="namespacekoala_1_1excellib.html#a256079d2d18ead40b358e73933d58c6d" target="_top" xlink:title=" ">
<polygon fill="white" stroke="black" points="144,-19.5 144,-38.5 276,-38.5 276,-19.5 144,-19.5"/>
<text text-anchor="middle" x="210" y="-26.5" font-family="Helvetica,sans-Serif" font-size="10.00">koala.excellib.concatenate</text>
</a>
</g>
</g>
<!-- Node9&#45;&gt;Node10 -->
<g id="edge1" class="edge"><title>Node9&#45;&gt;Node10</title>
<path fill="none" stroke="midnightblue" d="M108.43,-16.592C116.672,-17.6088 125.312,-18.6749 133.921,-19.737"/>
<polygon fill="midnightblue" stroke="midnightblue" points="133.633,-23.228 143.987,-20.9789 134.49,-16.2806 133.633,-23.228"/>
</g>
<!-- Node11 -->
<g id="node3" class="node"><title>Node11</title>
<g id="a_node3"><a xlink:href="namespacekoala_1_1utils.html#aabb45efe6343cf3795888c77a434d47d" target="_top" xlink:title=" ">
<polygon fill="white" stroke="black" points="312,-0.5 312,-19.5 402,-19.5 402,-0.5 312,-0.5"/>
<text text-anchor="middle" x="357" y="-7.5" font-family="Helvetica,sans-Serif" font-size="10.00">koala.utils.flatten</text>
</a>
</g>
</g>
<!-- Node9&#45;&gt;Node11 -->
<g id="edge3" class="edge"><title>Node9&#45;&gt;Node11</title>
<path fill="none" stroke="midnightblue" d="M108.12,-10C162.504,-10 246.617,-10 301.498,-10"/>
<polygon fill="midnightblue" stroke="midnightblue" points="301.729,-13.5001 311.729,-10 301.729,-6.5001 301.729,-13.5001"/>
</g>
<!-- Node10&#45;&gt;Node11 -->
<g id="edge2" class="edge"><title>Node10&#45;&gt;Node11</title>
<path fill="none" stroke="midnightblue" d="M276.289,-20.4449C284.839,-19.3245 293.525,-18.1864 301.864,-17.0937"/>
<polygon fill="midnightblue" stroke="midnightblue" points="302.37,-20.5574 311.831,-15.7877 301.461,-13.6167 302.37,-20.5574"/>
</g>
</g>
</svg>
