<?xml version="1.0" encoding="UTF-8" standalone="no"?>
<!DOCTYPE svg PUBLIC "-//W3C//DTD SVG 1.1//EN"
 "http://www.w3.org/Graphics/SVG/1.1/DTD/svg11.dtd">
<!-- Generated by graphviz version 2.38.0 (20140413.2041)
 -->
<!-- Title: koala.utils.split_range Pages: 1 -->
<svg width="1138pt" height="292pt"
 viewBox="0.00 0.00 1138.00 292.00" xmlns="http://www.w3.org/2000/svg" xmlns:xlink="http://www.w3.org/1999/xlink">
<g id="graph0" class="graph" transform="scale(1 1) rotate(0) translate(4 288)">
<title>koala.utils.split_range</title>
<polygon fill="white" stroke="none" points="-4,4 -4,-288 1134,-288 1134,4 -4,4"/>
<!-- Node327 -->
<g id="node1" class="node"><title>Node327</title>
<g id="a_node1"><a xlink:title=" ">
<polygon fill="#bfbfbf" stroke="black" points="1019,-196 1019,-215 1130,-215 1130,-196 1019,-196"/>
<text text-anchor="middle" x="1074.5" y="-203" font-family="Helvetica,sans-Serif" font-size="10.00">koala.utils.split_range</text>
</a>
</g>
</g>
<!-- Node328 -->
<g id="node2" class="node"><title>Node328</title>
<g id="a_node2"><a xlink:href="classkoala_1_1_cell_1_1_cell.html#ab1fa079614840ca386e0970338c2d8f0" target="_top" xlink:title=" ">
<polygon fill="white" stroke="black" points="714,-253.5 714,-283.5 820,-283.5 820,-253.5 714,-253.5"/>
<text text-anchor="start" x="722" y="-271.5" font-family="Helvetica,sans-Serif" font-size="10.00">koala.Cell.Cell.make</text>
<text text-anchor="middle" x="767" y="-260.5" font-family="Helvetica,sans-Serif" font-size="10.00">_cells</text>
</a>
</g>
</g>
<!-- Node327&#45;&gt;Node328 -->
<g id="edge1" class="edge"><title>Node327&#45;&gt;Node328</title>
<path fill="none" stroke="midnightblue" d="M1017.3,-217.091C961.002,-228.699 875.062,-246.422 820.22,-257.731"/>
<polygon fill="midnightblue" stroke="midnightblue" points="1018.01,-220.516 1027.1,-215.068 1016.6,-213.66 1018.01,-220.516"/>
</g>
<!-- Node329 -->
<g id="node3" class="node"><title>Node329</title>
<g id="a_node3"><a xlink:href="namespacekoala_1_1utils.html#a1d3620df245d23fea05928298cabc2ac" target="_top" xlink:title=" ">
<polygon fill="white" stroke="black" points="889,-155.5 889,-185.5 983,-185.5 983,-155.5 889,-155.5"/>
<text text-anchor="start" x="897" y="-173.5" font-family="Helvetica,sans-Serif" font-size="10.00">koala.utils.resolve</text>
<text text-anchor="middle" x="936" y="-162.5" font-family="Helvetica,sans-Serif" font-size="10.00">_range</text>
</a>
</g>
</g>
<!-- Node327&#45;&gt;Node329 -->
<g id="edge2" class="edge"><title>Node327&#45;&gt;Node329</title>
<path fill="none" stroke="midnightblue" d="M1026.27,-193.39C1012.27,-189.799 996.951,-185.872 983.022,-182.301"/>
<polygon fill="midnightblue" stroke="midnightblue" points="1025.64,-196.843 1036.2,-195.936 1027.38,-190.062 1025.64,-196.843"/>
</g>
<!-- Node329&#45;&gt;Node328 -->
<g id="edge12" class="edge"><title>Node329&#45;&gt;Node328</title>
<path fill="none" stroke="midnightblue" d="M915.093,-193.394C899.667,-209.808 876.945,-231.273 853,-244.5 842.933,-250.061 831.469,-254.423 820.291,-257.812"/>
<polygon fill="midnightblue" stroke="midnightblue" points="917.876,-195.537 922.053,-185.8 912.716,-190.808 917.876,-195.537"/>
</g>
<!-- Node330 -->
<g id="node4" class="node"><title>Node330</title>
<g id="a_node4"><a xlink:href="namespacekoala_1_1ast.html#aa55446c8aa764f09775f006ee775ec7b" target="_top" xlink:title=" ">
<polygon fill="white" stroke="black" points="713.5,-204.5 713.5,-234.5 820.5,-234.5 820.5,-204.5 713.5,-204.5"/>
<text text-anchor="start" x="721.5" y="-222.5" font-family="Helvetica,sans-Serif" font-size="10.00">koala.ast.graph_from</text>
<text text-anchor="middle" x="767" y="-211.5" font-family="Helvetica,sans-Serif" font-size="10.00">_seeds</text>
</a>
</g>
</g>
<!-- Node329&#45;&gt;Node330 -->
<g id="edge3" class="edge"><title>Node329&#45;&gt;Node330</title>
<path fill="none" stroke="midnightblue" d="M878.961,-187.754C870.278,-190.379 861.404,-193.033 853,-195.5 842.554,-198.567 831.364,-201.779 820.646,-204.819"/>
<polygon fill="midnightblue" stroke="midnightblue" points="880.096,-191.067 888.649,-184.815 878.063,-184.369 880.096,-191.067"/>
</g>
<!-- Node338 -->
<g id="node12" class="node"><title>Node338</title>
<g id="a_node12"><a xlink:href="classkoala_1_1ast_1_1astnodes_1_1_range_node.html#ab02ae79ae481ec81f309633ac5a99606" target="_top" xlink:title=" ">
<polygon fill="white" stroke="black" points="702,-155.5 702,-185.5 832,-185.5 832,-155.5 702,-155.5"/>
<text text-anchor="start" x="710" y="-173.5" font-family="Helvetica,sans-Serif" font-size="10.00">koala.ast.astnodes.Range</text>
<text text-anchor="middle" x="767" y="-162.5" font-family="Helvetica,sans-Serif" font-size="10.00">Node.get_cells</text>
</a>
</g>
</g>
<!-- Node329&#45;&gt;Node338 -->
<g id="edge11" class="edge"><title>Node329&#45;&gt;Node338</title>
<path fill="none" stroke="midnightblue" d="M878.774,-170.5C863.768,-170.5 847.442,-170.5 832.05,-170.5"/>
<polygon fill="midnightblue" stroke="midnightblue" points="878.924,-174 888.924,-170.5 878.924,-167 878.924,-174"/>
</g>
<!-- Node339 -->
<g id="node13" class="node"><title>Node339</title>
<g id="a_node13"><a xlink:href="namespacekoala_1_1excellib.html#ab1d9d224f4ee11e755d39b5ad520f371" target="_top" xlink:title=" ">
<polygon fill="white" stroke="black" points="716,-117 716,-136 818,-136 818,-117 716,-117"/>
<text text-anchor="middle" x="767" y="-124" font-family="Helvetica,sans-Serif" font-size="10.00">koala.excellib.offset</text>
</a>
</g>
</g>
<!-- Node329&#45;&gt;Node339 -->
<g id="edge13" class="edge"><title>Node329&#45;&gt;Node339</title>
<path fill="none" stroke="midnightblue" d="M879.077,-152.831C870.378,-150.262 861.469,-147.734 853,-145.5 840.28,-142.144 826.388,-138.875 813.591,-136.021"/>
<polygon fill="midnightblue" stroke="midnightblue" points="878.19,-156.219 888.774,-155.735 880.199,-149.514 878.19,-156.219"/>
</g>
<!-- Node340 -->
<g id="node14" class="node"><title>Node340</title>
<g id="a_node14"><a xlink:href="classkoala_1_1_range_1_1_range_core.html#ac49ba3473e8bcd9585eedd4fa9603bf2" target="_top" xlink:title=" ">
<polygon fill="white" stroke="black" points="704.5,-67.5 704.5,-97.5 829.5,-97.5 829.5,-67.5 704.5,-67.5"/>
<text text-anchor="start" x="712.5" y="-85.5" font-family="Helvetica,sans-Serif" font-size="10.00">koala.Range.RangeCore.</text>
<text text-anchor="middle" x="767" y="-74.5" font-family="Helvetica,sans-Serif" font-size="10.00">__init__</text>
</a>
</g>
</g>
<!-- Node329&#45;&gt;Node340 -->
<g id="edge14" class="edge"><title>Node329&#45;&gt;Node340</title>
<path fill="none" stroke="midnightblue" d="M911.383,-148.553C895.806,-135.081 874.393,-118.382 853,-107.5 845.597,-103.734 837.534,-100.444 829.421,-97.5977"/>
<polygon fill="midnightblue" stroke="midnightblue" points="909.156,-151.255 918.966,-155.255 913.792,-146.01 909.156,-151.255"/>
</g>
<!-- Node341 -->
<g id="node15" class="node"><title>Node341</title>
<g id="a_node15"><a xlink:href="classkoala_1_1_spreadsheet_1_1_spreadsheet.html#aa23818eb03be8a82c0969bd5338fdf2d" target="_top" xlink:title=" ">
<polygon fill="white" stroke="black" points="681,-0.5 681,-30.5 853,-30.5 853,-0.5 681,-0.5"/>
<text text-anchor="start" x="689" y="-18.5" font-family="Helvetica,sans-Serif" font-size="10.00">koala.Spreadsheet.Spreadsheet.get</text>
<text text-anchor="middle" x="767" y="-7.5" font-family="Helvetica,sans-Serif" font-size="10.00">_arguments_from_ast</text>
</a>
</g>
</g>
<!-- Node329&#45;&gt;Node341 -->
<g id="edge15" class="edge"><title>Node329&#45;&gt;Node341</title>
<path fill="none" stroke="midnightblue" d="M922.16,-146.35C907.957,-121.478 883.058,-82.8687 853,-57.5 839.918,-46.459 823.437,-37.4571 808.477,-30.6598"/>
<polygon fill="midnightblue" stroke="midnightblue" points="919.142,-148.124 927.069,-155.154 925.256,-144.715 919.142,-148.124"/>
</g>
<!-- Node331 -->
<g id="node5" class="node"><title>Node331</title>
<g id="a_node5"><a xlink:href="classkoala_1_1_spreadsheet_1_1_spreadsheet.html#a80d6ad19a13ccd80ca76f3f94975f7b5" target="_top" xlink:title=" ">
<polygon fill="white" stroke="black" points="461,-248.5 461,-278.5 635,-278.5 635,-248.5 461,-248.5"/>
<text text-anchor="start" x="469" y="-266.5" font-family="Helvetica,sans-Serif" font-size="10.00">koala.Spreadsheet.Spreadsheet.gen</text>
<text text-anchor="middle" x="548" y="-255.5" font-family="Helvetica,sans-Serif" font-size="10.00">_graph</text>
</a>
</g>
</g>
<!-- Node330&#45;&gt;Node331 -->
<g id="edge4" class="edge"><title>Node330&#45;&gt;Node331</title>
<path fill="none" stroke="midnightblue" d="M703.364,-232.2C678.318,-237.279 649.277,-243.167 623.186,-248.458"/>
<polygon fill="midnightblue" stroke="midnightblue" points="704.365,-235.569 713.47,-230.151 702.974,-228.708 704.365,-235.569"/>
</g>
<!-- Node332 -->
<g id="node6" class="node"><title>Node332</title>
<g id="a_node6"><a xlink:href="classkoala_1_1_spreadsheet_1_1_spreadsheet.html#affd17089825c4b3391c4d6b9b702209c" target="_top" xlink:title=" ">
<polygon fill="white" stroke="black" points="451,-210 451,-229 645,-229 645,-210 451,-210"/>
<text text-anchor="middle" x="548" y="-217" font-family="Helvetica,sans-Serif" font-size="10.00">koala.Spreadsheet.Spreadsheet.cell_add</text>
</a>
</g>
</g>
<!-- Node330&#45;&gt;Node332 -->
<g id="edge5" class="edge"><title>Node330&#45;&gt;Node332</title>
<path fill="none" stroke="midnightblue" d="M703.321,-219.5C685.146,-219.5 664.871,-219.5 645.147,-219.5"/>
<polygon fill="midnightblue" stroke="midnightblue" points="703.47,-223 713.47,-219.5 703.47,-216 703.47,-223"/>
</g>
<!-- Node336 -->
<g id="node10" class="node"><title>Node336</title>
<g id="a_node10"><a xlink:href="classkoala_1_1_spreadsheet_1_1_spreadsheet.html#aa7bdaffc24c26fbf18d5b752b7e49df2" target="_top" xlink:title=" ">
<polygon fill="white" stroke="black" points="461.5,-158.5 461.5,-188.5 634.5,-188.5 634.5,-158.5 461.5,-158.5"/>
<text text-anchor="start" x="469.5" y="-176.5" font-family="Helvetica,sans-Serif" font-size="10.00">koala.Spreadsheet.Spreadsheet.cell</text>
<text text-anchor="middle" x="548" y="-165.5" font-family="Helvetica,sans-Serif" font-size="10.00">_set_formula</text>
</a>
</g>
</g>
<!-- Node330&#45;&gt;Node336 -->
<g id="edge9" class="edge"><title>Node330&#45;&gt;Node336</title>
<path fill="none" stroke="midnightblue" d="M703.673,-206.288C677.503,-200.74 646.928,-194.259 619.904,-188.53"/>
<polygon fill="midnightblue" stroke="midnightblue" points="702.962,-209.715 713.47,-208.365 704.414,-202.867 702.962,-209.715"/>
</g>
<!-- Node333 -->
<g id="node7" class="node"><title>Node333</title>
<g id="a_node7"><a xlink:href="classkoala_1_1_spreadsheet_1_1_spreadsheet.html#a7481e9d34fe1d4347b3b6eed3462b545" target="_top" xlink:title=" ">
<polygon fill="white" stroke="black" points="221,-254 221,-273 415,-273 415,-254 221,-254"/>
<text text-anchor="middle" x="318" y="-261" font-family="Helvetica,sans-Serif" font-size="10.00">koala.Spreadsheet.Spreadsheet.add_cell</text>
</a>
</g>
</g>
<!-- Node332&#45;&gt;Node333 -->
<g id="edge6" class="edge"><title>Node332&#45;&gt;Node333</title>
<path fill="none" stroke="midnightblue" d="M487.366,-231.008C450.335,-238.155 403.311,-247.23 368.376,-253.971"/>
<polygon fill="midnightblue" stroke="midnightblue" points="488.372,-234.379 497.527,-229.047 487.045,-227.506 488.372,-234.379"/>
</g>
<!-- Node334 -->
<g id="node8" class="node"><title>Node334</title>
<g id="a_node8"><a xlink:href="classkoala_1_1_spreadsheet_1_1_spreadsheet.html#a2f695c5a3bc3f8812609bd2ba4ebb784" target="_top" xlink:title=" ">
<polygon fill="white" stroke="black" points="231.5,-204.5 231.5,-234.5 404.5,-234.5 404.5,-204.5 231.5,-204.5"/>
<text text-anchor="start" x="239.5" y="-222.5" font-family="Helvetica,sans-Serif" font-size="10.00">koala.Spreadsheet.Spreadsheet.cell</text>
<text text-anchor="middle" x="318" y="-211.5" font-family="Helvetica,sans-Serif" font-size="10.00">_set_value</text>
</a>
</g>
</g>
<!-- Node332&#45;&gt;Node334 -->
<g id="edge7" class="edge"><title>Node332&#45;&gt;Node334</title>
<path fill="none" stroke="midnightblue" d="M440.853,-219.5C428.764,-219.5 416.557,-219.5 404.778,-219.5"/>
<polygon fill="midnightblue" stroke="midnightblue" points="440.968,-223 450.968,-219.5 440.968,-216 440.968,-223"/>
</g>
<!-- Node335 -->
<g id="node9" class="node"><title>Node335</title>
<g id="a_node9"><a xlink:href="classkoala_1_1_spreadsheet_1_1_spreadsheet.html#a1330ffeda88c7bc6905a00e80203eb78" target="_top" xlink:title=" ">
<polygon fill="white" stroke="black" points="6.5,-204.5 6.5,-234.5 178.5,-234.5 178.5,-204.5 6.5,-204.5"/>
<text text-anchor="start" x="14.5" y="-222.5" font-family="Helvetica,sans-Serif" font-size="10.00">koala.Spreadsheet.Spreadsheet.set</text>
<text text-anchor="middle" x="92.5" y="-211.5" font-family="Helvetica,sans-Serif" font-size="10.00">_value</text>
</a>
</g>
</g>
<!-- Node334&#45;&gt;Node335 -->
<g id="edge8" class="edge"><title>Node334&#45;&gt;Node335</title>
<path fill="none" stroke="midnightblue" d="M221.043,-219.5C206.955,-219.5 192.525,-219.5 178.673,-219.5"/>
<polygon fill="midnightblue" stroke="midnightblue" points="221.228,-223 231.228,-219.5 221.228,-216 221.228,-223"/>
</g>
<!-- Node337 -->
<g id="node11" class="node"><title>Node337</title>
<g id="a_node11"><a xlink:href="classkoala_1_1_spreadsheet_1_1_spreadsheet.html#af50724d01ff5b3ae09ecc1bdfbfb0fed" target="_top" xlink:title=" ">
<polygon fill="white" stroke="black" points="232,-155.5 232,-185.5 404,-185.5 404,-155.5 232,-155.5"/>
<text text-anchor="start" x="240" y="-173.5" font-family="Helvetica,sans-Serif" font-size="10.00">koala.Spreadsheet.Spreadsheet.set</text>
<text text-anchor="middle" x="318" y="-162.5" font-family="Helvetica,sans-Serif" font-size="10.00">_formula</text>
</a>
</g>
</g>
<!-- Node336&#45;&gt;Node337 -->
<g id="edge10" class="edge"><title>Node336&#45;&gt;Node337</title>
<path fill="none" stroke="midnightblue" d="M451.278,-172.241C435.674,-172.035 419.6,-171.824 404.269,-171.622"/>
<polygon fill="midnightblue" stroke="midnightblue" points="451.407,-175.742 461.453,-172.374 451.499,-168.743 451.407,-175.742"/>
</g>
<!-- Node341&#45;&gt;Node341 -->
<g id="edge16" class="edge"><title>Node341&#45;&gt;Node341</title>
<path fill="none" stroke="midnightblue" d="M796.852,-40.9579C793.147,-45.679 783.196,-49 767,-49 740.422,-49 730.663,-40.0566 737.723,-30.659"/>
<polygon fill="midnightblue" stroke="midnightblue" points="800.329,-40.4487 796.277,-30.659 793.34,-40.8383 800.329,-40.4487"/>
</g>
<!-- Node342 -->
<g id="node16" class="node"><title>Node342</title>
<g id="a_node16"><a xlink:href="classkoala_1_1_spreadsheet_1_1_spreadsheet.html#a8ebd4153a8499a4bf7fdf0bde89f12f0" target="_top" xlink:title=" ">
<polygon fill="white" stroke="black" points="462,-0.5 462,-30.5 634,-30.5 634,-0.5 462,-0.5"/>
<text text-anchor="start" x="470" y="-18.5" font-family="Helvetica,sans-Serif" font-size="10.00">koala.Spreadsheet.Spreadsheet.get</text>
<text text-anchor="middle" x="548" y="-7.5" font-family="Helvetica,sans-Serif" font-size="10.00">_pointer_arguments_from_ast</text>
</a>
</g>
</g>
<!-- Node341&#45;&gt;Node342 -->
<g id="edge17" class="edge"><title>Node341&#45;&gt;Node342</title>
<path fill="none" stroke="midnightblue" d="M670.727,-15.5C658.586,-15.5 646.221,-15.5 634.252,-15.5"/>
<polygon fill="midnightblue" stroke="midnightblue" points="670.859,-19.0001 680.859,-15.5 670.859,-12.0001 670.859,-19.0001"/>
</g>
<!-- Node342&#45;&gt;Node342 -->
<g id="edge20" class="edge"><title>Node342&#45;&gt;Node342</title>
<path fill="none" stroke="midnightblue" d="M586.736,-40.9579C581.928,-45.679 569.016,-49 548,-49 513.512,-49 500.848,-40.0566 510.009,-30.659"/>
<polygon fill="midnightblue" stroke="midnightblue" points="590.203,-40.3804 585.991,-30.659 583.222,-40.8855 590.203,-40.3804"/>
</g>
<!-- Node343 -->
<g id="node17" class="node"><title>Node343</title>
<g id="a_node17"><a xlink:href="classkoala_1_1_spreadsheet_1_1_spreadsheet.html#a6f233266d3e106c54dc37886dba18e9a" target="_top" xlink:title=" ">
<polygon fill="white" stroke="black" points="231.5,-0.5 231.5,-30.5 404.5,-30.5 404.5,-0.5 231.5,-0.5"/>
<text text-anchor="start" x="239.5" y="-18.5" font-family="Helvetica,sans-Serif" font-size="10.00">koala.Spreadsheet.Spreadsheet.find</text>
<text text-anchor="middle" x="318" y="-7.5" font-family="Helvetica,sans-Serif" font-size="10.00">_pointer_arguments</text>
</a>
</g>
</g>
<!-- Node342&#45;&gt;Node343 -->
<g id="edge18" class="edge"><title>Node342&#45;&gt;Node343</title>
<path fill="none" stroke="midnightblue" d="M451.661,-15.5C436.144,-15.5 420.152,-15.5 404.879,-15.5"/>
<polygon fill="midnightblue" stroke="midnightblue" points="451.777,-19.0001 461.777,-15.5 451.777,-12.0001 451.777,-19.0001"/>
</g>
<!-- Node344 -->
<g id="node18" class="node"><title>Node344</title>
<g id="a_node18"><a xlink:href="classkoala_1_1_spreadsheet_1_1_spreadsheet.html#a988fc1ddf090bf9746135ce759907a5a" target="_top" xlink:title=" ">
<polygon fill="white" stroke="black" points="0,-0.5 0,-30.5 185,-30.5 185,-0.5 0,-0.5"/>
<text text-anchor="start" x="8" y="-18.5" font-family="Helvetica,sans-Serif" font-size="10.00">koala.Spreadsheet.Spreadsheet.detect</text>
<text text-anchor="middle" x="92.5" y="-7.5" font-family="Helvetica,sans-Serif" font-size="10.00">_alive</text>
</a>
</g>
</g>
<!-- Node343&#45;&gt;Node344 -->
<g id="edge19" class="edge"><title>Node343&#45;&gt;Node344</title>
<path fill="none" stroke="midnightblue" d="M220.932,-15.5C209.13,-15.5 197.091,-15.5 185.353,-15.5"/>
<polygon fill="midnightblue" stroke="midnightblue" points="221.228,-19.0001 231.228,-15.5 221.228,-12.0001 221.228,-19.0001"/>
</g>
</g>
</svg>
