<?xml version="1.0" encoding="UTF-8" standalone="no"?>
<!DOCTYPE svg PUBLIC "-//W3C//DTD SVG 1.1//EN"
 "http://www.w3.org/Graphics/SVG/1.1/DTD/svg11.dtd">
<!-- Generated by graphviz version 2.38.0 (20140413.2041)
 -->
<!-- Title: koala.excellib.xirr Pages: 1 -->
<!--zoomable 95 -->
<svg id="main" version="1.1" xmlns="http://www.w3.org/2000/svg" xmlns:xlink="http://www.w3.org/1999/xlink" xml:space="preserve" onload="init(evt)">
<style type="text/css"><![CDATA[
.edge:hover path { stroke: red; }
.edge:hover polygon { stroke: red; fill: red; }
]]></style>
<script type="text/javascript"><![CDATA[
var edges = document.getElementsByTagName('g');
if (edges && edges.length) {
  for (var i=0;i<edges.length;i++) {
    if (edges[i].id.substr(0,4)=='edge') {
      edges[i].setAttribute('class','edge');
    }
  }
}
]]></script>
        <defs>
                <circle id="rim" cx="0" cy="0" r="7"/>
                <circle id="rim2" cx="0" cy="0" r="3.5"/>
                <g id="zoomPlus">
                        <use xlink:href="#rim" fill="#404040">
                                <set attributeName="fill" to="#808080" begin="zoomplus.mouseover" end="zoomplus.mouseout"/>
                        </use>
                        <path d="M-4,0h8M0,-4v8" fill="none" stroke="white" stroke-width="1.5" pointer-events="none"/>
                </g>
                <g id="zoomMin">
                        <use xlink:href="#rim" fill="#404040">
                                <set attributeName="fill" to="#808080" begin="zoomminus.mouseover" end="zoomminus.mouseout"/>
                        </use>
                        <path d="M-4,0h8" fill="none" stroke="white" stroke-width="1.5" pointer-events="none"/>
                </g>
                <g id="dirArrow">
                        <path fill="none" stroke="white" stroke-width="1.5" d="M0,-3.0v7 M-2.5,-0.5L0,-3.0L2.5,-0.5"/>
                </g>
               <g id="resetDef">
                       <use xlink:href="#rim2" fill="#404040">
                               <set attributeName="fill" to="#808080" begin="reset.mouseover" end="reset.mouseout"/>
                       </use>
               </g>
        </defs>

<script type="text/javascript">
var viewWidth = 513;
var viewHeight = 95;
var sectionId = 'dynsection-25';
</script>
<script xlink:href="svgpan.js"/>
<svg id="graph" class="graph">
<g id="viewport">
<title>koala.excellib.xirr</title>
<polygon fill="white" stroke="none" points="-4,4 -4,-91 509,-91 509,4 -4,4"/>
<!-- Node144 -->
<g id="node1" class="node"><title>Node144</title>
<g id="a_node1"><a xlink:title=" ">
<polygon fill="#bfbfbf" stroke="black" points="0,-31 0,-50 92,-50 92,-31 0,-31"/>
<text text-anchor="middle" x="46" y="-38" font-family="Helvetica,sans-Serif" font-size="10.00">koala.excellib.xirr</text>
</a>
</g>
</g>
<!-- Node145 -->
<g id="node2" class="node"><title>Node145</title>
<g id="a_node2"><a xlink:href="namespacekoala_1_1utils.html#adeefbb82b9a8c72e5c67197400767f0b" target="_top" xlink:title=" ">
<polygon fill="white" stroke="black" points="266,-56.5 266,-86.5 356,-86.5 356,-56.5 266,-56.5"/>
<text text-anchor="start" x="274" y="-74.5" font-family="Helvetica,sans-Serif" font-size="10.00">koala.utils.is_not</text>
<text text-anchor="middle" x="311" y="-63.5" font-family="Helvetica,sans-Serif" font-size="10.00">_number_input</text>
</a>
</g>
</g>
<!-- Node144&#45;&gt;Node145 -->
<g id="edge1" class="edge"><title>Node144&#45;&gt;Node145</title>
<path fill="none" stroke="midnightblue" d="M82.2416,-50.0978C96.3668,-53.5946 112.857,-57.2404 128,-59.5 170.473,-65.8375 219.02,-68.8281 255.287,-70.2392"/>
<polygon fill="midnightblue" stroke="midnightblue" points="255.531,-73.7502 265.651,-70.6126 255.783,-66.7547 255.531,-73.7502"/>
</g>
<!-- Node147 -->
<g id="node4" class="node"><title>Node147</title>
<g id="a_node4"><a xlink:href="namespacekoala_1_1utils.html#a344ae2d72b1cec3fadbfec9418af8394" target="_top" xlink:title=" ">
<polygon fill="white" stroke="black" points="262,-0.5 262,-30.5 360,-30.5 360,-0.5 262,-0.5"/>
<text text-anchor="start" x="270" y="-18.5" font-family="Helvetica,sans-Serif" font-size="10.00">koala.utils.numeric</text>
<text text-anchor="middle" x="311" y="-7.5" font-family="Helvetica,sans-Serif" font-size="10.00">_error</text>
</a>
</g>
</g>
<!-- Node144&#45;&gt;Node147 -->
<g id="edge3" class="edge"><title>Node144&#45;&gt;Node147</title>
<path fill="none" stroke="midnightblue" d="M81.0123,-30.9451C95.3909,-27.3185 112.392,-23.5672 128,-21.5 169.076,-16.0597 215.796,-14.6172 251.616,-14.505"/>
<polygon fill="midnightblue" stroke="midnightblue" points="251.887,-18.005 261.888,-14.5081 251.89,-11.005 251.887,-18.005"/>
</g>
<!-- Node148 -->
<g id="node5" class="node"><title>Node148</title>
<g id="a_node5"><a xlink:href="namespacekoala_1_1excellib.html#a4b33b1607230861cabb4eebf0442154e" target="_top" xlink:title=" ">
<polygon fill="white" stroke="black" points="128,-31 128,-50 226,-50 226,-31 128,-31"/>
<text text-anchor="middle" x="177" y="-38" font-family="Helvetica,sans-Serif" font-size="10.00">koala.excellib.xnpv</text>
</a>
</g>
</g>
<!-- Node144&#45;&gt;Node148 -->
<g id="edge4" class="edge"><title>Node144&#45;&gt;Node148</title>
<path fill="none" stroke="midnightblue" d="M92.1179,-40.5C100.279,-40.5 108.897,-40.5 117.378,-40.5"/>
<polygon fill="midnightblue" stroke="midnightblue" points="117.615,-44.0001 127.615,-40.5 117.615,-37.0001 117.615,-44.0001"/>
</g>
<!-- Node146 -->
<g id="node3" class="node"><title>Node146</title>
<g id="a_node3"><a xlink:href="namespacekoala_1_1utils.html#af016160edea2b46cb26db3ed307c9648" target="_top" xlink:title=" ">
<polygon fill="white" stroke="black" points="396,-62 396,-81 505,-81 505,-62 396,-62"/>
<text text-anchor="middle" x="450.5" y="-69" font-family="Helvetica,sans-Serif" font-size="10.00">koala.utils.is_number</text>
</a>
</g>
</g>
<!-- Node145&#45;&gt;Node146 -->
<g id="edge2" class="edge"><title>Node145&#45;&gt;Node146</title>
<path fill="none" stroke="midnightblue" d="M356.263,-71.5C365.585,-71.5 375.599,-71.5 385.482,-71.5"/>
<polygon fill="midnightblue" stroke="midnightblue" points="385.699,-75.0001 395.699,-71.5 385.699,-68.0001 385.699,-75.0001"/>
</g>
<!-- Node148&#45;&gt;Node145 -->
<g id="edge5" class="edge"><title>Node148&#45;&gt;Node145</title>
<path fill="none" stroke="midnightblue" d="M218.681,-50.054C230.397,-52.8053 243.367,-55.8513 255.764,-58.7629"/>
<polygon fill="midnightblue" stroke="midnightblue" points="255.014,-62.1818 265.549,-61.0609 256.615,-55.3672 255.014,-62.1818"/>
</g>
<!-- Node148&#45;&gt;Node147 -->
<g id="edge6" class="edge"><title>Node148&#45;&gt;Node147</title>
<path fill="none" stroke="midnightblue" d="M226.028,-31.4037C234.4,-29.8182 243.188,-28.1537 251.798,-26.5231"/>
<polygon fill="midnightblue" stroke="midnightblue" points="252.612,-29.9312 261.786,-24.6314 251.309,-23.0535 252.612,-29.9312"/>
</g>
</g>
</svg>
        <g id="navigator" transform="translate(0 0)" fill="#404254">
                <rect fill="#f2f5e9" fill-opacity="0.5" stroke="#606060" stroke-width=".5" x="0" y="0" width="60" height="60"/>
                <use id="zoomplus" xlink:href="#zoomPlus" x="17" y="9" onmousedown="handleZoom(evt,'in')"/>
                <use id="zoomminus" xlink:href="#zoomMin" x="42" y="9" onmousedown="handleZoom(evt,'out')"/>
                <use id="reset" xlink:href="#resetDef" x="30" y="36" onmousedown="handleReset()"/>
                <g id="arrowUp" xlink:href="#dirArrow" transform="translate(30 24)" onmousedown="handlePan(0,-1)">
                  <use xlink:href="#rim" fill="#404040">
                        <set attributeName="fill" to="#808080" begin="arrowUp.mouseover" end="arrowUp.mouseout"/>
                  </use>
                  <path fill="none" stroke="white" stroke-width="1.5" d="M0,-3.0v7 M-2.5,-0.5L0,-3.0L2.5,-0.5"/>
                </g>
                <g id="arrowRight" xlink:href="#dirArrow" transform="rotate(90) translate(36 -43)" onmousedown="handlePan(1,0)">
                  <use xlink:href="#rim" fill="#404040">
                        <set attributeName="fill" to="#808080" begin="arrowRight.mouseover" end="arrowRight.mouseout"/>
                  </use>
                  <path fill="none" stroke="white" stroke-width="1.5" d="M0,-3.0v7 M-2.5,-0.5L0,-3.0L2.5,-0.5"/>
                </g>
                <g id="arrowDown" xlink:href="#dirArrow" transform="rotate(180) translate(-30 -48)" onmousedown="handlePan(0,1)">
                  <use xlink:href="#rim" fill="#404040">
                        <set attributeName="fill" to="#808080" begin="arrowDown.mouseover" end="arrowDown.mouseout"/>
                  </use>
                  <path fill="none" stroke="white" stroke-width="1.5" d="M0,-3.0v7 M-2.5,-0.5L0,-3.0L2.5,-0.5"/>
                </g>
                <g id="arrowLeft" xlink:href="#dirArrow" transform="rotate(270) translate(-36 17)" onmousedown="handlePan(-1,0)">
                  <use xlink:href="#rim" fill="#404040">
                        <set attributeName="fill" to="#808080" begin="arrowLeft.mouseover" end="arrowLeft.mouseout"/>
                  </use>
                  <path fill="none" stroke="white" stroke-width="1.5" d="M0,-3.0v7 M-2.5,-0.5L0,-3.0L2.5,-0.5"/>
                </g>
        </g>
        <svg viewBox="0 0 15 15" width="100%" height="30px" preserveAspectRatio="xMaxYMin meet">
         <g id="arrow_out" transform="scale(0.3 0.3)">
          <a xlink:href="namespacekoala_1_1excellib_a0ec13d0eb9e9bd4b9cc9a25abca30090_cgraph_org.svg" target="_base">
           <rect id="button" ry="5" rx="5" y="6" x="6" height="38" width="38"
                fill="#f2f5e9" fill-opacity="0.5" stroke="#606060" stroke-width="1.0"/>
           <path id="arrow"
             d="M 11.500037,31.436501 C 11.940474,20.09759 22.043105,11.32322 32.158766,21.979434 L 37.068811,17.246167 C 37.068811,17.246167 37.088388,32 37.088388,32 L 22.160133,31.978069 C 22.160133,31.978069 26.997745,27.140456 26.997745,27.140456 C 18.528582,18.264221 13.291696,25.230495 11.500037,31.436501 z"
             style="fill:#404040;"/>
          </a>
         </g>
        </svg>
</svg>
