<?xml version="1.0" encoding="UTF-8" standalone="no"?>
<!DOCTYPE svg PUBLIC "-//W3C//DTD SVG 1.1//EN"
 "http://www.w3.org/Graphics/SVG/1.1/DTD/svg11.dtd">
<!-- Generated by graphviz version 2.38.0 (20140413.2041)
 -->
<!-- Title: koala.utils.is_range Pages: 1 -->
<svg width="1247pt" height="378pt"
 viewBox="0.00 0.00 1247.00 377.50" xmlns="http://www.w3.org/2000/svg" xmlns:xlink="http://www.w3.org/1999/xlink">
<g id="graph0" class="graph" transform="scale(1 1) rotate(0) translate(4 373.5)">
<title>koala.utils.is_range</title>
<polygon fill="white" stroke="none" points="-4,4 -4,-373.5 1243,-373.5 1243,4 -4,4"/>
<!-- Node196 -->
<g id="node1" class="node"><title>Node196</title>
<g id="a_node1"><a xlink:title=" ">
<polygon fill="#bfbfbf" stroke="black" points="1138,-209.5 1138,-228.5 1239,-228.5 1239,-209.5 1138,-209.5"/>
<text text-anchor="middle" x="1188.5" y="-216.5" font-family="Helvetica,sans-Serif" font-size="10.00">koala.utils.is_range</text>
</a>
</g>
</g>
<!-- Node197 -->
<g id="node2" class="node"><title>Node197</title>
<g id="a_node2"><a xlink:href="namespacekoala_1_1ast.html#aa55446c8aa764f09775f006ee775ec7b" target="_top" xlink:title=" ">
<polygon fill="white" stroke="black" points="724.5,-292 724.5,-322 831.5,-322 831.5,-292 724.5,-292"/>
<text text-anchor="start" x="732.5" y="-310" font-family="Helvetica,sans-Serif" font-size="10.00">koala.ast.graph_from</text>
<text text-anchor="middle" x="778" y="-299" font-family="Helvetica,sans-Serif" font-size="10.00">_seeds</text>
</a>
</g>
</g>
<!-- Node196&#45;&gt;Node197 -->
<g id="edge1" class="edge"><title>Node196&#45;&gt;Node197</title>
<path fill="none" stroke="midnightblue" d="M1165.55,-234.1C1148.88,-244.799 1124.97,-258.53 1102,-266 1010.08,-295.895 896.842,-304.146 831.779,-306.329"/>
<polygon fill="midnightblue" stroke="midnightblue" points="1167.59,-236.949 1174.02,-228.528 1163.74,-231.102 1167.59,-236.949"/>
</g>
<!-- Node198 -->
<g id="node3" class="node"><title>Node198</title>
<g id="a_node3"><a xlink:href="classkoala_1_1_spreadsheet_1_1_spreadsheet.html#a80d6ad19a13ccd80ca76f3f94975f7b5" target="_top" xlink:title=" ">
<polygon fill="white" stroke="black" points="461,-339 461,-369 635,-369 635,-339 461,-339"/>
<text text-anchor="start" x="469" y="-357" font-family="Helvetica,sans-Serif" font-size="10.00">koala.Spreadsheet.Spreadsheet.gen</text>
<text text-anchor="middle" x="548" y="-346" font-family="Helvetica,sans-Serif" font-size="10.00">_graph</text>
</a>
</g>
</g>
<!-- Node196&#45;&gt;Node198 -->
<g id="edge10" class="edge"><title>Node196&#45;&gt;Node198</title>
<path fill="none" stroke="midnightblue" d="M1173.62,-236.711C1158.22,-255.012 1131.59,-282.84 1102,-297 950.075,-369.691 748.324,-369.768 635.263,-362.449"/>
<polygon fill="midnightblue" stroke="midnightblue" points="1176.64,-238.555 1180.25,-228.595 1171.21,-234.129 1176.64,-238.555"/>
</g>
<!-- Node205 -->
<g id="node10" class="node"><title>Node205</title>
<g id="a_node10"><a xlink:href="namespacekoala_1_1excellib.html#ab1d9d224f4ee11e755d39b5ad520f371" target="_top" xlink:title=" ">
<polygon fill="white" stroke="black" points="727,-253.5 727,-272.5 829,-272.5 829,-253.5 727,-253.5"/>
<text text-anchor="middle" x="778" y="-260.5" font-family="Helvetica,sans-Serif" font-size="10.00">koala.excellib.offset</text>
</a>
</g>
</g>
<!-- Node196&#45;&gt;Node205 -->
<g id="edge9" class="edge"><title>Node196&#45;&gt;Node205</title>
<path fill="none" stroke="midnightblue" d="M1149.59,-231.504C1134.88,-235.86 1117.81,-240.323 1102,-243 1006.44,-259.182 893.008,-262.637 829.175,-263.169"/>
<polygon fill="midnightblue" stroke="midnightblue" points="1150.8,-234.794 1159.34,-228.529 1148.76,-228.098 1150.8,-234.794"/>
</g>
<!-- Node206 -->
<g id="node11" class="node"><title>Node206</title>
<g id="a_node11"><a xlink:href="classkoala_1_1_spreadsheet_1_1_spreadsheet.html#a93793cfeb2a3d72e5cba2ea2c65be25e" target="_top" xlink:title=" ">
<polygon fill="white" stroke="black" points="915.5,-155 915.5,-185 1097.5,-185 1097.5,-155 915.5,-155"/>
<text text-anchor="start" x="923.5" y="-173" font-family="Helvetica,sans-Serif" font-size="10.00">koala.Spreadsheet.Spreadsheet.prune</text>
<text text-anchor="middle" x="1006.5" y="-162" font-family="Helvetica,sans-Serif" font-size="10.00">_graph</text>
</a>
</g>
</g>
<!-- Node196&#45;&gt;Node206 -->
<g id="edge11" class="edge"><title>Node196&#45;&gt;Node206</title>
<path fill="none" stroke="midnightblue" d="M1146.08,-206.565C1132.11,-202.457 1116.41,-197.934 1102,-194 1091.06,-191.012 1079.37,-187.944 1068.08,-185.043"/>
<polygon fill="midnightblue" stroke="midnightblue" points="1145.32,-209.991 1155.91,-209.469 1147.31,-203.278 1145.32,-209.991"/>
</g>
<!-- Node207 -->
<g id="node12" class="node"><title>Node207</title>
<g id="a_node12"><a xlink:href="classkoala_1_1_spreadsheet_1_1_spreadsheet.html#a13c2cbec203d01d4d8404e3954dd27d7" target="_top" xlink:title=" ">
<polygon fill="white" stroke="black" points="915.5,-106 915.5,-136 1097.5,-136 1097.5,-106 915.5,-106"/>
<text text-anchor="start" x="923.5" y="-124" font-family="Helvetica,sans-Serif" font-size="10.00">koala.Spreadsheet.Spreadsheet.clean</text>
<text text-anchor="middle" x="1006.5" y="-113" font-family="Helvetica,sans-Serif" font-size="10.00">_pointer</text>
</a>
</g>
</g>
<!-- Node196&#45;&gt;Node207 -->
<g id="edge12" class="edge"><title>Node196&#45;&gt;Node207</title>
<path fill="none" stroke="midnightblue" d="M1172.4,-201.94C1156.51,-185.029 1129.97,-159.598 1102,-145 1095.4,-141.554 1088.27,-138.583 1081,-136.026"/>
<polygon fill="midnightblue" stroke="midnightblue" points="1169.97,-204.465 1179.31,-209.472 1175.13,-199.735 1169.97,-204.465"/>
</g>
<!-- Node208 -->
<g id="node13" class="node"><title>Node208</title>
<g id="a_node13"><a xlink:href="classkoala_1_1_spreadsheet_1_1_spreadsheet.html#a5123890c167cf3b1e9e070886d635e74" target="_top" xlink:title=" ">
<polygon fill="white" stroke="black" points="911,-34.5 911,-53.5 1102,-53.5 1102,-34.5 911,-34.5"/>
<text text-anchor="middle" x="1006.5" y="-41.5" font-family="Helvetica,sans-Serif" font-size="10.00">koala.Spreadsheet.Spreadsheet.eval_ref</text>
</a>
</g>
</g>
<!-- Node196&#45;&gt;Node208 -->
<g id="edge13" class="edge"><title>Node196&#45;&gt;Node208</title>
<path fill="none" stroke="midnightblue" d="M1177.97,-200.087C1164.12,-174.049 1136.29,-126.884 1102,-96 1080.99,-77.076 1051.89,-62.3848 1031.55,-53.517"/>
<polygon fill="midnightblue" stroke="midnightblue" points="1175.02,-201.99 1182.73,-209.252 1181.23,-198.764 1175.02,-201.99"/>
</g>
<!-- Node211 -->
<g id="node16" class="node"><title>Node211</title>
<g id="a_node16"><a xlink:href="namespacekoala_1_1utils.html#a1d3620df245d23fea05928298cabc2ac" target="_top" xlink:title=" ">
<polygon fill="white" stroke="black" points="959.5,-204 959.5,-234 1053.5,-234 1053.5,-204 959.5,-204"/>
<text text-anchor="start" x="967.5" y="-222" font-family="Helvetica,sans-Serif" font-size="10.00">koala.utils.resolve</text>
<text text-anchor="middle" x="1006.5" y="-211" font-family="Helvetica,sans-Serif" font-size="10.00">_range</text>
</a>
</g>
</g>
<!-- Node196&#45;&gt;Node211 -->
<g id="edge16" class="edge"><title>Node196&#45;&gt;Node211</title>
<path fill="none" stroke="midnightblue" d="M1127.72,-219C1103.58,-219 1076.16,-219 1053.6,-219"/>
<polygon fill="midnightblue" stroke="midnightblue" points="1127.84,-222.5 1137.84,-219 1127.84,-215.5 1127.84,-222.5"/>
</g>
<!-- Node197&#45;&gt;Node198 -->
<g id="edge2" class="edge"><title>Node197&#45;&gt;Node198</title>
<path fill="none" stroke="midnightblue" d="M714.533,-319.877C685.929,-325.773 651.843,-332.8 622.057,-338.94"/>
<polygon fill="midnightblue" stroke="midnightblue" points="715.319,-323.289 724.406,-317.842 713.905,-316.433 715.319,-323.289"/>
</g>
<!-- Node199 -->
<g id="node4" class="node"><title>Node199</title>
<g id="a_node4"><a xlink:href="classkoala_1_1_spreadsheet_1_1_spreadsheet.html#affd17089825c4b3391c4d6b9b702209c" target="_top" xlink:title=" ">
<polygon fill="white" stroke="black" points="451,-251.5 451,-270.5 645,-270.5 645,-251.5 451,-251.5"/>
<text text-anchor="middle" x="548" y="-258.5" font-family="Helvetica,sans-Serif" font-size="10.00">koala.Spreadsheet.Spreadsheet.cell_add</text>
</a>
</g>
</g>
<!-- Node197&#45;&gt;Node199 -->
<g id="edge3" class="edge"><title>Node197&#45;&gt;Node199</title>
<path fill="none" stroke="midnightblue" d="M714.158,-294.321C676.896,-286.804 630.435,-277.43 596.29,-270.541"/>
<polygon fill="midnightblue" stroke="midnightblue" points="713.911,-297.842 724.406,-296.389 715.296,-290.98 713.911,-297.842"/>
</g>
<!-- Node203 -->
<g id="node8" class="node"><title>Node203</title>
<g id="a_node8"><a xlink:href="classkoala_1_1_spreadsheet_1_1_spreadsheet.html#aa7bdaffc24c26fbf18d5b752b7e49df2" target="_top" xlink:title=" ">
<polygon fill="white" stroke="black" points="461.5,-290 461.5,-320 634.5,-320 634.5,-290 461.5,-290"/>
<text text-anchor="start" x="469.5" y="-308" font-family="Helvetica,sans-Serif" font-size="10.00">koala.Spreadsheet.Spreadsheet.cell</text>
<text text-anchor="middle" x="548" y="-297" font-family="Helvetica,sans-Serif" font-size="10.00">_set_formula</text>
</a>
</g>
</g>
<!-- Node197&#45;&gt;Node203 -->
<g id="edge7" class="edge"><title>Node197&#45;&gt;Node203</title>
<path fill="none" stroke="midnightblue" d="M714.165,-306.449C689.658,-306.234 661.171,-305.984 634.825,-305.753"/>
<polygon fill="midnightblue" stroke="midnightblue" points="714.376,-309.951 724.406,-306.539 714.437,-302.951 714.376,-309.951"/>
</g>
<!-- Node200 -->
<g id="node5" class="node"><title>Node200</title>
<g id="a_node5"><a xlink:href="classkoala_1_1_spreadsheet_1_1_spreadsheet.html#a7481e9d34fe1d4347b3b6eed3462b545" target="_top" xlink:title=" ">
<polygon fill="white" stroke="black" points="221,-251.5 221,-270.5 415,-270.5 415,-251.5 221,-251.5"/>
<text text-anchor="middle" x="318" y="-258.5" font-family="Helvetica,sans-Serif" font-size="10.00">koala.Spreadsheet.Spreadsheet.add_cell</text>
</a>
</g>
</g>
<!-- Node199&#45;&gt;Node200 -->
<g id="edge4" class="edge"><title>Node199&#45;&gt;Node200</title>
<path fill="none" stroke="midnightblue" d="M440.957,-261C432.395,-261 423.773,-261 415.286,-261"/>
<polygon fill="midnightblue" stroke="midnightblue" points="440.968,-264.5 450.968,-261 440.968,-257.5 440.968,-264.5"/>
</g>
<!-- Node201 -->
<g id="node6" class="node"><title>Node201</title>
<g id="a_node6"><a xlink:href="classkoala_1_1_spreadsheet_1_1_spreadsheet.html#a2f695c5a3bc3f8812609bd2ba4ebb784" target="_top" xlink:title=" ">
<polygon fill="white" stroke="black" points="231.5,-202 231.5,-232 404.5,-232 404.5,-202 231.5,-202"/>
<text text-anchor="start" x="239.5" y="-220" font-family="Helvetica,sans-Serif" font-size="10.00">koala.Spreadsheet.Spreadsheet.cell</text>
<text text-anchor="middle" x="318" y="-209" font-family="Helvetica,sans-Serif" font-size="10.00">_set_value</text>
</a>
</g>
</g>
<!-- Node199&#45;&gt;Node201 -->
<g id="edge5" class="edge"><title>Node199&#45;&gt;Node201</title>
<path fill="none" stroke="midnightblue" d="M487.613,-249.539C459.967,-244.204 426.711,-237.786 397.066,-232.065"/>
<polygon fill="midnightblue" stroke="midnightblue" points="487.045,-252.994 497.527,-251.453 488.372,-246.121 487.045,-252.994"/>
</g>
<!-- Node202 -->
<g id="node7" class="node"><title>Node202</title>
<g id="a_node7"><a xlink:href="classkoala_1_1_spreadsheet_1_1_spreadsheet.html#a1330ffeda88c7bc6905a00e80203eb78" target="_top" xlink:title=" ">
<polygon fill="white" stroke="black" points="6.5,-202 6.5,-232 178.5,-232 178.5,-202 6.5,-202"/>
<text text-anchor="start" x="14.5" y="-220" font-family="Helvetica,sans-Serif" font-size="10.00">koala.Spreadsheet.Spreadsheet.set</text>
<text text-anchor="middle" x="92.5" y="-209" font-family="Helvetica,sans-Serif" font-size="10.00">_value</text>
</a>
</g>
</g>
<!-- Node201&#45;&gt;Node202 -->
<g id="edge6" class="edge"><title>Node201&#45;&gt;Node202</title>
<path fill="none" stroke="midnightblue" d="M221.043,-217C206.955,-217 192.525,-217 178.673,-217"/>
<polygon fill="midnightblue" stroke="midnightblue" points="221.228,-220.5 231.228,-217 221.228,-213.5 221.228,-220.5"/>
</g>
<!-- Node204 -->
<g id="node9" class="node"><title>Node204</title>
<g id="a_node9"><a xlink:href="classkoala_1_1_spreadsheet_1_1_spreadsheet.html#af50724d01ff5b3ae09ecc1bdfbfb0fed" target="_top" xlink:title=" ">
<polygon fill="white" stroke="black" points="232,-290 232,-320 404,-320 404,-290 232,-290"/>
<text text-anchor="start" x="240" y="-308" font-family="Helvetica,sans-Serif" font-size="10.00">koala.Spreadsheet.Spreadsheet.set</text>
<text text-anchor="middle" x="318" y="-297" font-family="Helvetica,sans-Serif" font-size="10.00">_formula</text>
</a>
</g>
</g>
<!-- Node203&#45;&gt;Node204 -->
<g id="edge8" class="edge"><title>Node203&#45;&gt;Node204</title>
<path fill="none" stroke="midnightblue" d="M451.278,-305C435.674,-305 419.6,-305 404.269,-305"/>
<polygon fill="midnightblue" stroke="midnightblue" points="451.453,-308.5 461.453,-305 451.452,-301.5 451.453,-308.5"/>
</g>
<!-- Node209 -->
<g id="node14" class="node"><title>Node209</title>
<g id="a_node14"><a xlink:href="classkoala_1_1_spreadsheet_1_1_spreadsheet.html#ab55daaddb95ae9af8b490dabebf22092" target="_top" xlink:title=" ">
<polygon fill="white" stroke="black" points="681,-0.5 681,-19.5 875,-19.5 875,-0.5 681,-0.5"/>
<text text-anchor="middle" x="778" y="-7.5" font-family="Helvetica,sans-Serif" font-size="10.00">koala.Spreadsheet.Spreadsheet.cell_free</text>
</a>
</g>
</g>
<!-- Node208&#45;&gt;Node209 -->
<g id="edge14" class="edge"><title>Node208&#45;&gt;Node209</title>
<path fill="none" stroke="midnightblue" d="M932.056,-32.9752C903.132,-28.6335 870.239,-23.696 842.379,-19.5138"/>
<polygon fill="midnightblue" stroke="midnightblue" points="931.697,-36.4606 942.106,-34.4839 932.736,-29.5381 931.697,-36.4606"/>
</g>
<!-- Node210 -->
<g id="node15" class="node"><title>Node210</title>
<g id="a_node15"><a xlink:href="classkoala_1_1_spreadsheet_1_1_spreadsheet.html#aebac3e8edbd3df53d783fd229aa95cf4" target="_top" xlink:title=" ">
<polygon fill="white" stroke="black" points="451,-0.5 451,-19.5 645,-19.5 645,-0.5 451,-0.5"/>
<text text-anchor="middle" x="548" y="-7.5" font-family="Helvetica,sans-Serif" font-size="10.00">koala.Spreadsheet.Spreadsheet.free_cell</text>
</a>
</g>
</g>
<!-- Node209&#45;&gt;Node210 -->
<g id="edge15" class="edge"><title>Node209&#45;&gt;Node210</title>
<path fill="none" stroke="midnightblue" d="M670.957,-10C662.395,-10 653.773,-10 645.286,-10"/>
<polygon fill="midnightblue" stroke="midnightblue" points="670.968,-13.5001 680.968,-10 670.968,-6.5001 670.968,-13.5001"/>
</g>
<!-- Node211&#45;&gt;Node197 -->
<g id="edge17" class="edge"><title>Node211&#45;&gt;Node197</title>
<path fill="none" stroke="midnightblue" d="M969.173,-238.907C943.443,-252.414 907.808,-269.94 875,-282 861.26,-287.051 846.06,-291.504 831.886,-295.199"/>
<polygon fill="midnightblue" stroke="midnightblue" points="970.986,-241.908 978.181,-234.13 967.707,-235.723 970.986,-241.908"/>
</g>
<!-- Node211&#45;&gt;Node205 -->
<g id="edge20" class="edge"><title>Node211&#45;&gt;Node205</title>
<path fill="none" stroke="midnightblue" d="M949.221,-229.933C912.052,-237.153 863.812,-246.524 828.181,-253.446"/>
<polygon fill="midnightblue" stroke="midnightblue" points="950.242,-233.3 959.391,-227.957 948.907,-226.428 950.242,-233.3"/>
</g>
<!-- Node212 -->
<g id="node17" class="node"><title>Node212</title>
<g id="a_node17"><a xlink:href="classkoala_1_1ast_1_1astnodes_1_1_range_node.html#ab02ae79ae481ec81f309633ac5a99606" target="_top" xlink:title=" ">
<polygon fill="white" stroke="black" points="713,-204 713,-234 843,-234 843,-204 713,-204"/>
<text text-anchor="start" x="721" y="-222" font-family="Helvetica,sans-Serif" font-size="10.00">koala.ast.astnodes.Range</text>
<text text-anchor="middle" x="778" y="-211" font-family="Helvetica,sans-Serif" font-size="10.00">Node.get_cells</text>
</a>
</g>
</g>
<!-- Node211&#45;&gt;Node212 -->
<g id="edge18" class="edge"><title>Node211&#45;&gt;Node212</title>
<path fill="none" stroke="midnightblue" d="M949.245,-219C917.035,-219 876.504,-219 843.07,-219"/>
<polygon fill="midnightblue" stroke="midnightblue" points="949.391,-222.5 959.391,-219 949.391,-215.5 949.391,-222.5"/>
</g>
<!-- Node213 -->
<g id="node18" class="node"><title>Node213</title>
<g id="a_node18"><a xlink:href="classkoala_1_1_cell_1_1_cell.html#ab1fa079614840ca386e0970338c2d8f0" target="_top" xlink:title=" ">
<polygon fill="white" stroke="black" points="725,-155 725,-185 831,-185 831,-155 725,-155"/>
<text text-anchor="start" x="733" y="-173" font-family="Helvetica,sans-Serif" font-size="10.00">koala.Cell.Cell.make</text>
<text text-anchor="middle" x="778" y="-162" font-family="Helvetica,sans-Serif" font-size="10.00">_cells</text>
</a>
</g>
</g>
<!-- Node211&#45;&gt;Node213 -->
<g id="edge19" class="edge"><title>Node211&#45;&gt;Node213</title>
<path fill="none" stroke="midnightblue" d="M949.505,-206.886C913.399,-199.075 866.757,-188.985 831.385,-181.333"/>
<polygon fill="midnightblue" stroke="midnightblue" points="948.877,-210.331 959.391,-209.025 950.358,-203.49 948.877,-210.331"/>
</g>
<!-- Node214 -->
<g id="node19" class="node"><title>Node214</title>
<g id="a_node19"><a xlink:href="classkoala_1_1_range_1_1_range_core.html#ac49ba3473e8bcd9585eedd4fa9603bf2" target="_top" xlink:title=" ">
<polygon fill="white" stroke="black" points="715.5,-106 715.5,-136 840.5,-136 840.5,-106 715.5,-106"/>
<text text-anchor="start" x="723.5" y="-124" font-family="Helvetica,sans-Serif" font-size="10.00">koala.Range.RangeCore.</text>
<text text-anchor="middle" x="778" y="-113" font-family="Helvetica,sans-Serif" font-size="10.00">__init__</text>
</a>
</g>
</g>
<!-- Node211&#45;&gt;Node214 -->
<g id="edge21" class="edge"><title>Node211&#45;&gt;Node214</title>
<path fill="none" stroke="midnightblue" d="M949.068,-210.702C935.821,-207.014 922.289,-201.689 911,-194 888.664,-178.788 897.439,-160.059 875,-145 864.729,-138.107 852.642,-133.193 840.573,-129.69"/>
<polygon fill="midnightblue" stroke="midnightblue" points="948.551,-214.18 959.102,-213.215 950.252,-207.39 948.551,-214.18"/>
</g>
<!-- Node215 -->
<g id="node20" class="node"><title>Node215</title>
<g id="a_node20"><a xlink:href="classkoala_1_1_spreadsheet_1_1_spreadsheet.html#aa23818eb03be8a82c0969bd5338fdf2d" target="_top" xlink:title=" ">
<polygon fill="white" stroke="black" points="692,-39 692,-69 864,-69 864,-39 692,-39"/>
<text text-anchor="start" x="700" y="-57" font-family="Helvetica,sans-Serif" font-size="10.00">koala.Spreadsheet.Spreadsheet.get</text>
<text text-anchor="middle" x="778" y="-46" font-family="Helvetica,sans-Serif" font-size="10.00">_arguments_from_ast</text>
</a>
</g>
</g>
<!-- Node211&#45;&gt;Node215 -->
<g id="edge22" class="edge"><title>Node211&#45;&gt;Node215</title>
<path fill="none" stroke="midnightblue" d="M949.362,-213.372C935.499,-209.66 921.601,-203.655 911,-194 876.693,-162.757 906.806,-129.786 875,-96 863.777,-84.0786 848.58,-75.3484 833.591,-69.039"/>
<polygon fill="midnightblue" stroke="midnightblue" points="948.872,-216.851 959.403,-215.69 950.446,-210.03 948.872,-216.851"/>
</g>
<!-- Node215&#45;&gt;Node215 -->
<g id="edge23" class="edge"><title>Node215&#45;&gt;Node215</title>
<path fill="none" stroke="midnightblue" d="M818.513,-79.4579C813.485,-84.179 799.98,-87.5 778,-87.5 741.93,-87.5 728.685,-78.5566 738.266,-69.159"/>
<polygon fill="midnightblue" stroke="midnightblue" points="821.978,-78.8664 817.734,-69.159 814.998,-79.3946 821.978,-78.8664"/>
</g>
<!-- Node216 -->
<g id="node21" class="node"><title>Node216</title>
<g id="a_node21"><a xlink:href="classkoala_1_1_spreadsheet_1_1_spreadsheet.html#a8ebd4153a8499a4bf7fdf0bde89f12f0" target="_top" xlink:title=" ">
<polygon fill="white" stroke="black" points="462,-39 462,-69 634,-69 634,-39 462,-39"/>
<text text-anchor="start" x="470" y="-57" font-family="Helvetica,sans-Serif" font-size="10.00">koala.Spreadsheet.Spreadsheet.get</text>
<text text-anchor="middle" x="548" y="-46" font-family="Helvetica,sans-Serif" font-size="10.00">_pointer_arguments_from_ast</text>
</a>
</g>
</g>
<!-- Node215&#45;&gt;Node216 -->
<g id="edge24" class="edge"><title>Node215&#45;&gt;Node216</title>
<path fill="none" stroke="midnightblue" d="M681.522,-54C665.791,-54 649.576,-54 634.12,-54"/>
<polygon fill="midnightblue" stroke="midnightblue" points="681.777,-57.5001 691.777,-54 681.777,-50.5001 681.777,-57.5001"/>
</g>
<!-- Node216&#45;&gt;Node216 -->
<g id="edge27" class="edge"><title>Node216&#45;&gt;Node216</title>
<path fill="none" stroke="midnightblue" d="M589.242,-79.092C584.489,-84.0065 570.742,-87.5 548,-87.5 511.613,-87.5 498.253,-78.5566 507.918,-69.159"/>
<polygon fill="midnightblue" stroke="midnightblue" points="592.718,-78.6858 588.082,-69.159 585.765,-79.4973 592.718,-78.6858"/>
</g>
<!-- Node217 -->
<g id="node22" class="node"><title>Node217</title>
<g id="a_node22"><a xlink:href="classkoala_1_1_spreadsheet_1_1_spreadsheet.html#a6f233266d3e106c54dc37886dba18e9a" target="_top" xlink:title=" ">
<polygon fill="white" stroke="black" points="231.5,-39 231.5,-69 404.5,-69 404.5,-39 231.5,-39"/>
<text text-anchor="start" x="239.5" y="-57" font-family="Helvetica,sans-Serif" font-size="10.00">koala.Spreadsheet.Spreadsheet.find</text>
<text text-anchor="middle" x="318" y="-46" font-family="Helvetica,sans-Serif" font-size="10.00">_pointer_arguments</text>
</a>
</g>
</g>
<!-- Node216&#45;&gt;Node217 -->
<g id="edge25" class="edge"><title>Node216&#45;&gt;Node217</title>
<path fill="none" stroke="midnightblue" d="M451.661,-54C436.144,-54 420.152,-54 404.879,-54"/>
<polygon fill="midnightblue" stroke="midnightblue" points="451.777,-57.5001 461.777,-54 451.777,-50.5001 451.777,-57.5001"/>
</g>
<!-- Node218 -->
<g id="node23" class="node"><title>Node218</title>
<g id="a_node23"><a xlink:href="classkoala_1_1_spreadsheet_1_1_spreadsheet.html#a988fc1ddf090bf9746135ce759907a5a" target="_top" xlink:title=" ">
<polygon fill="white" stroke="black" points="0,-39 0,-69 185,-69 185,-39 0,-39"/>
<text text-anchor="start" x="8" y="-57" font-family="Helvetica,sans-Serif" font-size="10.00">koala.Spreadsheet.Spreadsheet.detect</text>
<text text-anchor="middle" x="92.5" y="-46" font-family="Helvetica,sans-Serif" font-size="10.00">_alive</text>
</a>
</g>
</g>
<!-- Node217&#45;&gt;Node218 -->
<g id="edge26" class="edge"><title>Node217&#45;&gt;Node218</title>
<path fill="none" stroke="midnightblue" d="M220.932,-54C209.13,-54 197.091,-54 185.353,-54"/>
<polygon fill="midnightblue" stroke="midnightblue" points="221.228,-57.5001 231.228,-54 221.228,-50.5001 221.228,-57.5001"/>
</g>
</g>
</svg>
