<?xml version="1.0" encoding="UTF-8" standalone="no"?>
<!DOCTYPE svg PUBLIC "-//W3C//DTD SVG 1.1//EN"
 "http://www.w3.org/Graphics/SVG/1.1/DTD/svg11.dtd">
<!-- Generated by graphviz version 2.38.0 (20140413.2041)
 -->
<!-- Title: koala.utils.is_range Pages: 1 -->
<svg width="1226pt" height="380pt"
 viewBox="0.00 0.00 1226.00 379.50" xmlns="http://www.w3.org/2000/svg" xmlns:xlink="http://www.w3.org/1999/xlink">
<g id="graph0" class="graph" transform="scale(1 1) rotate(0) translate(4 375.5)">
<title>koala.utils.is_range</title>
<polygon fill="white" stroke="none" points="-4,4 -4,-375.5 1222,-375.5 1222,4 -4,4"/>
<!-- Node179 -->
<g id="node1" class="node"><title>Node179</title>
<g id="a_node1"><a xlink:title=" ">
<polygon fill="#bfbfbf" stroke="black" points="1117,-234 1117,-253 1218,-253 1218,-234 1117,-234"/>
<text text-anchor="middle" x="1167.5" y="-241" font-family="Helvetica,sans-Serif" font-size="10.00">koala.utils.is_range</text>
</a>
</g>
</g>
<!-- Node180 -->
<g id="node2" class="node"><title>Node180</title>
<g id="a_node2"><a xlink:href="namespacekoala_1_1excellib.html#ab1d9d224f4ee11e755d39b5ad520f371" target="_top" xlink:title=" ">
<polygon fill="white" stroke="black" points="706,-166 706,-185 808,-185 808,-166 706,-166"/>
<text text-anchor="middle" x="757" y="-173" font-family="Helvetica,sans-Serif" font-size="10.00">koala.excellib.offset</text>
</a>
</g>
</g>
<!-- Node179&#45;&gt;Node180 -->
<g id="edge1" class="edge"><title>Node179&#45;&gt;Node180</title>
<path fill="none" stroke="midnightblue" d="M1145.67,-227.877C1129.09,-216.388 1104.8,-201.59 1081,-194.5 987.732,-166.71 872.769,-167.832 808.193,-171.461"/>
<polygon fill="midnightblue" stroke="midnightblue" points="1143.86,-230.887 1154.03,-233.849 1147.93,-225.19 1143.86,-230.887"/>
</g>
<!-- Node181 -->
<g id="node3" class="node"><title>Node181</title>
<g id="a_node3"><a xlink:href="classkoala_1_1_spreadsheet_1_1_spreadsheet.html#a80d6ad19a13ccd80ca76f3f94975f7b5" target="_top" xlink:title=" ">
<polygon fill="white" stroke="black" points="898.5,-302.5 898.5,-332.5 1072.5,-332.5 1072.5,-302.5 898.5,-302.5"/>
<text text-anchor="start" x="906.5" y="-320.5" font-family="Helvetica,sans-Serif" font-size="10.00">koala.Spreadsheet.Spreadsheet.gen</text>
<text text-anchor="middle" x="985.5" y="-309.5" font-family="Helvetica,sans-Serif" font-size="10.00">_graph</text>
</a>
</g>
</g>
<!-- Node179&#45;&gt;Node181 -->
<g id="edge2" class="edge"><title>Node179&#45;&gt;Node181</title>
<path fill="none" stroke="midnightblue" d="M1144.02,-258.565C1127.24,-269.257 1103.43,-283.291 1081,-292.5 1071.89,-296.238 1062.06,-299.565 1052.3,-302.476"/>
<polygon fill="midnightblue" stroke="midnightblue" points="1146.08,-261.399 1152.56,-253.02 1142.27,-255.527 1146.08,-261.399"/>
</g>
<!-- Node182 -->
<g id="node4" class="node"><title>Node182</title>
<g id="a_node4"><a xlink:href="classkoala_1_1_spreadsheet_1_1_spreadsheet.html#a93793cfeb2a3d72e5cba2ea2c65be25e" target="_top" xlink:title=" ">
<polygon fill="white" stroke="black" points="894.5,-253.5 894.5,-283.5 1076.5,-283.5 1076.5,-253.5 894.5,-253.5"/>
<text text-anchor="start" x="902.5" y="-271.5" font-family="Helvetica,sans-Serif" font-size="10.00">koala.Spreadsheet.Spreadsheet.prune</text>
<text text-anchor="middle" x="985.5" y="-260.5" font-family="Helvetica,sans-Serif" font-size="10.00">_graph</text>
</a>
</g>
</g>
<!-- Node179&#45;&gt;Node182 -->
<g id="edge3" class="edge"><title>Node179&#45;&gt;Node182</title>
<path fill="none" stroke="midnightblue" d="M1106.63,-251.815C1097.02,-253.15 1086.89,-254.557 1076.76,-255.965"/>
<polygon fill="midnightblue" stroke="midnightblue" points="1107.41,-255.24 1116.84,-250.398 1106.45,-248.307 1107.41,-255.24"/>
</g>
<!-- Node183 -->
<g id="node5" class="node"><title>Node183</title>
<g id="a_node5"><a xlink:href="classkoala_1_1_spreadsheet_1_1_spreadsheet.html#a13c2cbec203d01d4d8404e3954dd27d7" target="_top" xlink:title=" ">
<polygon fill="white" stroke="black" points="894.5,-204.5 894.5,-234.5 1076.5,-234.5 1076.5,-204.5 894.5,-204.5"/>
<text text-anchor="start" x="902.5" y="-222.5" font-family="Helvetica,sans-Serif" font-size="10.00">koala.Spreadsheet.Spreadsheet.clean</text>
<text text-anchor="middle" x="985.5" y="-211.5" font-family="Helvetica,sans-Serif" font-size="10.00">_pointer</text>
</a>
</g>
</g>
<!-- Node179&#45;&gt;Node183 -->
<g id="edge4" class="edge"><title>Node179&#45;&gt;Node183</title>
<path fill="none" stroke="midnightblue" d="M1106.63,-235.518C1097.02,-234.236 1086.89,-232.885 1076.76,-231.534"/>
<polygon fill="midnightblue" stroke="midnightblue" points="1106.46,-239.026 1116.84,-236.878 1107.39,-232.087 1106.46,-239.026"/>
</g>
<!-- Node184 -->
<g id="node6" class="node"><title>Node184</title>
<g id="a_node6"><a xlink:href="classkoala_1_1_spreadsheet_1_1_spreadsheet.html#a5123890c167cf3b1e9e070886d635e74" target="_top" xlink:title=" ">
<polygon fill="white" stroke="black" points="890,-352 890,-371 1081,-371 1081,-352 890,-352"/>
<text text-anchor="middle" x="985.5" y="-359" font-family="Helvetica,sans-Serif" font-size="10.00">koala.Spreadsheet.Spreadsheet.eval_ref</text>
</a>
</g>
</g>
<!-- Node179&#45;&gt;Node184 -->
<g id="edge5" class="edge"><title>Node179&#45;&gt;Node184</title>
<path fill="none" stroke="midnightblue" d="M1155.83,-261.731C1141.69,-284.192 1114.56,-321.791 1081,-341.5 1073.63,-345.831 1065.44,-349.23 1057.06,-351.897"/>
<polygon fill="midnightblue" stroke="midnightblue" points="1158.86,-263.487 1161.08,-253.128 1152.89,-259.842 1158.86,-263.487"/>
</g>
<!-- Node187 -->
<g id="node9" class="node"><title>Node187</title>
<g id="a_node9"><a xlink:href="namespacekoala_1_1utils.html#a1d3620df245d23fea05928298cabc2ac" target="_top" xlink:title=" ">
<polygon fill="white" stroke="black" points="938.5,-116.5 938.5,-146.5 1032.5,-146.5 1032.5,-116.5 938.5,-116.5"/>
<text text-anchor="start" x="946.5" y="-134.5" font-family="Helvetica,sans-Serif" font-size="10.00">koala.utils.resolve</text>
<text text-anchor="middle" x="985.5" y="-123.5" font-family="Helvetica,sans-Serif" font-size="10.00">_range</text>
</a>
</g>
</g>
<!-- Node179&#45;&gt;Node187 -->
<g id="edge8" class="edge"><title>Node179&#45;&gt;Node187</title>
<path fill="none" stroke="midnightblue" d="M1152.55,-226.022C1136.94,-207.541 1110,-178.727 1081,-161.5 1066.2,-152.71 1048.54,-146.209 1032.52,-141.551"/>
<polygon fill="midnightblue" stroke="midnightblue" points="1150.02,-228.45 1159.08,-233.938 1155.42,-223.997 1150.02,-228.45"/>
</g>
<!-- Node185 -->
<g id="node7" class="node"><title>Node185</title>
<g id="a_node7"><a xlink:href="classkoala_1_1_spreadsheet_1_1_spreadsheet.html#ab55daaddb95ae9af8b490dabebf22092" target="_top" xlink:title=" ">
<polygon fill="white" stroke="black" points="660,-352 660,-371 854,-371 854,-352 660,-352"/>
<text text-anchor="middle" x="757" y="-359" font-family="Helvetica,sans-Serif" font-size="10.00">koala.Spreadsheet.Spreadsheet.cell_free</text>
</a>
</g>
</g>
<!-- Node184&#45;&gt;Node185 -->
<g id="edge6" class="edge"><title>Node184&#45;&gt;Node185</title>
<path fill="none" stroke="midnightblue" d="M879.503,-361.5C871.062,-361.5 862.56,-361.5 854.185,-361.5"/>
<polygon fill="midnightblue" stroke="midnightblue" points="879.756,-365 889.756,-361.5 879.756,-358 879.756,-365"/>
</g>
<!-- Node186 -->
<g id="node8" class="node"><title>Node186</title>
<g id="a_node8"><a xlink:href="classkoala_1_1_spreadsheet_1_1_spreadsheet.html#aebac3e8edbd3df53d783fd229aa95cf4" target="_top" xlink:title=" ">
<polygon fill="white" stroke="black" points="430,-352 430,-371 624,-371 624,-352 430,-352"/>
<text text-anchor="middle" x="527" y="-359" font-family="Helvetica,sans-Serif" font-size="10.00">koala.Spreadsheet.Spreadsheet.free_cell</text>
</a>
</g>
</g>
<!-- Node185&#45;&gt;Node186 -->
<g id="edge7" class="edge"><title>Node185&#45;&gt;Node186</title>
<path fill="none" stroke="midnightblue" d="M649.957,-361.5C641.395,-361.5 632.773,-361.5 624.286,-361.5"/>
<polygon fill="midnightblue" stroke="midnightblue" points="649.968,-365 659.968,-361.5 649.968,-358 649.968,-365"/>
</g>
<!-- Node187&#45;&gt;Node180 -->
<g id="edge10" class="edge"><title>Node187&#45;&gt;Node180</title>
<path fill="none" stroke="midnightblue" d="M928.221,-142.433C891.052,-149.653 842.812,-159.024 807.181,-165.946"/>
<polygon fill="midnightblue" stroke="midnightblue" points="929.242,-145.8 938.391,-140.457 927.907,-138.928 929.242,-145.8"/>
</g>
<!-- Node188 -->
<g id="node10" class="node"><title>Node188</title>
<g id="a_node10"><a xlink:href="classkoala_1_1_cell_1_1_cell.html#ab1fa079614840ca386e0970338c2d8f0" target="_top" xlink:title=" ">
<polygon fill="white" stroke="black" points="704,-0.5 704,-30.5 810,-30.5 810,-0.5 704,-0.5"/>
<text text-anchor="start" x="712" y="-18.5" font-family="Helvetica,sans-Serif" font-size="10.00">koala.Cell.Cell.make</text>
<text text-anchor="middle" x="757" y="-7.5" font-family="Helvetica,sans-Serif" font-size="10.00">_cells</text>
</a>
</g>
</g>
<!-- Node187&#45;&gt;Node188 -->
<g id="edge9" class="edge"><title>Node187&#45;&gt;Node188</title>
<path fill="none" stroke="midnightblue" d="M959.761,-109.799C934.72,-88.9081 894.078,-57.8572 854,-39.5 840.255,-33.2043 824.616,-28.401 810.009,-24.8079"/>
<polygon fill="midnightblue" stroke="midnightblue" points="957.738,-112.672 967.632,-116.461 962.26,-107.329 957.738,-112.672"/>
</g>
<!-- Node189 -->
<g id="node11" class="node"><title>Node189</title>
<g id="a_node11"><a xlink:href="classkoala_1_1_range_1_1_range_core.html#ac49ba3473e8bcd9585eedd4fa9603bf2" target="_top" xlink:title=" ">
<polygon fill="white" stroke="black" points="694.5,-116.5 694.5,-146.5 819.5,-146.5 819.5,-116.5 694.5,-116.5"/>
<text text-anchor="start" x="702.5" y="-134.5" font-family="Helvetica,sans-Serif" font-size="10.00">koala.Range.RangeCore.</text>
<text text-anchor="middle" x="757" y="-123.5" font-family="Helvetica,sans-Serif" font-size="10.00">__init__</text>
</a>
</g>
</g>
<!-- Node187&#45;&gt;Node189 -->
<g id="edge11" class="edge"><title>Node187&#45;&gt;Node189</title>
<path fill="none" stroke="midnightblue" d="M928.003,-131.5C895.003,-131.5 853.334,-131.5 819.509,-131.5"/>
<polygon fill="midnightblue" stroke="midnightblue" points="928.391,-135 938.391,-131.5 928.391,-128 928.391,-135"/>
</g>
<!-- Node190 -->
<g id="node12" class="node"><title>Node190</title>
<g id="a_node12"><a xlink:href="classkoala_1_1_spreadsheet_1_1_spreadsheet.html#aa23818eb03be8a82c0969bd5338fdf2d" target="_top" xlink:title=" ">
<polygon fill="white" stroke="black" points="671,-49.5 671,-79.5 843,-79.5 843,-49.5 671,-49.5"/>
<text text-anchor="start" x="679" y="-67.5" font-family="Helvetica,sans-Serif" font-size="10.00">koala.Spreadsheet.Spreadsheet.get</text>
<text text-anchor="middle" x="757" y="-56.5" font-family="Helvetica,sans-Serif" font-size="10.00">_arguments_from_ast</text>
</a>
</g>
</g>
<!-- Node187&#45;&gt;Node190 -->
<g id="edge12" class="edge"><title>Node187&#45;&gt;Node190</title>
<path fill="none" stroke="midnightblue" d="M928.363,-114.894C891.726,-104.057 844.287,-90.0241 808.775,-79.5196"/>
<polygon fill="midnightblue" stroke="midnightblue" points="927.809,-118.38 938.391,-117.861 929.795,-111.668 927.809,-118.38"/>
</g>
<!-- Node190&#45;&gt;Node190 -->
<g id="edge13" class="edge"><title>Node190&#45;&gt;Node190</title>
<path fill="none" stroke="midnightblue" d="M797.513,-89.9579C792.485,-94.679 778.98,-98 757,-98 720.93,-98 707.685,-89.0566 717.266,-79.659"/>
<polygon fill="midnightblue" stroke="midnightblue" points="800.978,-89.3664 796.734,-79.659 793.998,-89.8946 800.978,-89.3664"/>
</g>
<!-- Node191 -->
<g id="node13" class="node"><title>Node191</title>
<g id="a_node13"><a xlink:href="classkoala_1_1_spreadsheet_1_1_spreadsheet.html#a8ebd4153a8499a4bf7fdf0bde89f12f0" target="_top" xlink:title=" ">
<polygon fill="white" stroke="black" points="441,-49.5 441,-79.5 613,-79.5 613,-49.5 441,-49.5"/>
<text text-anchor="start" x="449" y="-67.5" font-family="Helvetica,sans-Serif" font-size="10.00">koala.Spreadsheet.Spreadsheet.get</text>
<text text-anchor="middle" x="527" y="-56.5" font-family="Helvetica,sans-Serif" font-size="10.00">_pointer_arguments_from_ast</text>
</a>
</g>
</g>
<!-- Node190&#45;&gt;Node191 -->
<g id="edge14" class="edge"><title>Node190&#45;&gt;Node191</title>
<path fill="none" stroke="midnightblue" d="M660.522,-64.5C644.791,-64.5 628.576,-64.5 613.12,-64.5"/>
<polygon fill="midnightblue" stroke="midnightblue" points="660.777,-68.0001 670.777,-64.5 660.777,-61.0001 660.777,-68.0001"/>
</g>
<!-- Node191&#45;&gt;Node191 -->
<g id="edge17" class="edge"><title>Node191&#45;&gt;Node191</title>
<path fill="none" stroke="midnightblue" d="M565.736,-89.9579C560.928,-94.679 548.016,-98 527,-98 492.512,-98 479.848,-89.0566 489.009,-79.659"/>
<polygon fill="midnightblue" stroke="midnightblue" points="569.203,-89.3804 564.991,-79.659 562.222,-89.8855 569.203,-89.3804"/>
</g>
<!-- Node192 -->
<g id="node14" class="node"><title>Node192</title>
<g id="a_node14"><a xlink:href="classkoala_1_1_spreadsheet_1_1_spreadsheet.html#a6f233266d3e106c54dc37886dba18e9a" target="_top" xlink:title=" ">
<polygon fill="white" stroke="black" points="221,-49.5 221,-79.5 394,-79.5 394,-49.5 221,-49.5"/>
<text text-anchor="start" x="229" y="-67.5" font-family="Helvetica,sans-Serif" font-size="10.00">koala.Spreadsheet.Spreadsheet.find</text>
<text text-anchor="middle" x="307.5" y="-56.5" font-family="Helvetica,sans-Serif" font-size="10.00">_pointer_arguments</text>
</a>
</g>
</g>
<!-- Node191&#45;&gt;Node192 -->
<g id="edge15" class="edge"><title>Node191&#45;&gt;Node192</title>
<path fill="none" stroke="midnightblue" d="M430.806,-64.5C418.62,-64.5 406.204,-64.5 394.182,-64.5"/>
<polygon fill="midnightblue" stroke="midnightblue" points="430.974,-68.0001 440.974,-64.5 430.974,-61.0001 430.974,-68.0001"/>
</g>
<!-- Node193 -->
<g id="node15" class="node"><title>Node193</title>
<g id="a_node15"><a xlink:href="classkoala_1_1_spreadsheet_1_1_spreadsheet.html#a988fc1ddf090bf9746135ce759907a5a" target="_top" xlink:title=" ">
<polygon fill="white" stroke="black" points="0,-49.5 0,-79.5 185,-79.5 185,-49.5 0,-49.5"/>
<text text-anchor="start" x="8" y="-67.5" font-family="Helvetica,sans-Serif" font-size="10.00">koala.Spreadsheet.Spreadsheet.detect</text>
<text text-anchor="middle" x="92.5" y="-56.5" font-family="Helvetica,sans-Serif" font-size="10.00">_alive</text>
</a>
</g>
</g>
<!-- Node192&#45;&gt;Node193 -->
<g id="edge16" class="edge"><title>Node192&#45;&gt;Node193</title>
<path fill="none" stroke="midnightblue" d="M210.588,-64.5C202.18,-64.5 193.683,-64.5 185.31,-64.5"/>
<polygon fill="midnightblue" stroke="midnightblue" points="210.785,-68.0001 220.785,-64.5 210.785,-61.0001 210.785,-68.0001"/>
</g>
</g>
</svg>
