<?xml version="1.0" encoding="UTF-8" standalone="no"?>
<!DOCTYPE svg PUBLIC "-//W3C//DTD SVG 1.1//EN"
 "http://www.w3.org/Graphics/SVG/1.1/DTD/svg11.dtd">
<!-- Generated by graphviz version 2.38.0 (20140413.2041)
 -->
<!-- Title: koala.excellib.xmin Pages: 1 -->
<svg width="383pt" height="39pt"
 viewBox="0.00 0.00 383.00 39.00" xmlns="http://www.w3.org/2000/svg" xmlns:xlink="http://www.w3.org/1999/xlink">
<g id="graph0" class="graph" transform="scale(1 1) rotate(0) translate(4 35)">
<title>koala.excellib.xmin</title>
<polygon fill="white" stroke="none" points="-4,4 -4,-35 379,-35 379,4 -4,4"/>
<!-- Node157 -->
<g id="node1" class="node"><title>Node157</title>
<g id="a_node1"><a xlink:title=" ">
<polygon fill="#bfbfbf" stroke="black" points="0,-6 0,-25 100,-25 100,-6 0,-6"/>
<text text-anchor="middle" x="50" y="-13" font-family="Helvetica,sans-Serif" font-size="10.00">koala.excellib.xmin</text>
</a>
</g>
</g>
<!-- Node158 -->
<g id="node2" class="node"><title>Node158</title>
<g id="a_node2"><a xlink:href="namespacekoala_1_1utils.html#a5887e70dda0744f50150e674d5127941" target="_top" xlink:title=" ">
<polygon fill="white" stroke="black" points="136,-0.5 136,-30.5 230,-30.5 230,-0.5 136,-0.5"/>
<text text-anchor="start" x="144" y="-18.5" font-family="Helvetica,sans-Serif" font-size="10.00">koala.utils.extract</text>
<text text-anchor="middle" x="183" y="-7.5" font-family="Helvetica,sans-Serif" font-size="10.00">_numeric_values</text>
</a>
</g>
</g>
<!-- Node157&#45;&gt;Node158 -->
<g id="edge1" class="edge"><title>Node157&#45;&gt;Node158</title>
<path fill="none" stroke="midnightblue" d="M100.152,-15.5C108.411,-15.5 117.039,-15.5 125.466,-15.5"/>
<polygon fill="midnightblue" stroke="midnightblue" points="125.607,-19.0001 135.607,-15.5 125.607,-12.0001 125.607,-19.0001"/>
</g>
<!-- Node159 -->
<g id="node3" class="node"><title>Node159</title>
<g id="a_node3"><a xlink:href="namespacekoala_1_1utils.html#af016160edea2b46cb26db3ed307c9648" target="_top" xlink:title=" ">
<polygon fill="white" stroke="black" points="266,-6 266,-25 375,-25 375,-6 266,-6"/>
<text text-anchor="middle" x="320.5" y="-13" font-family="Helvetica,sans-Serif" font-size="10.00">koala.utils.is_number</text>
</a>
</g>
</g>
<!-- Node158&#45;&gt;Node159 -->
<g id="edge2" class="edge"><title>Node158&#45;&gt;Node159</title>
<path fill="none" stroke="midnightblue" d="M230.252,-15.5C238.518,-15.5 247.26,-15.5 255.911,-15.5"/>
<polygon fill="midnightblue" stroke="midnightblue" points="255.991,-19.0001 265.991,-15.5 255.991,-12.0001 255.991,-19.0001"/>
</g>
</g>
</svg>
