<?xml version="1.0" encoding="UTF-8" standalone="no"?>
<!DOCTYPE svg PUBLIC "-//W3C//DTD SVG 1.1//EN"
 "http://www.w3.org/Graphics/SVG/1.1/DTD/svg11.dtd">
<!-- Generated by graphviz version 2.38.0 (20140413.2041)
 -->
<!-- Title: koala.utils.num2col Pages: 1 -->
<svg width="1129pt" height="286pt"
 viewBox="0.00 0.00 1129.00 286.00" xmlns="http://www.w3.org/2000/svg" xmlns:xlink="http://www.w3.org/1999/xlink">
<g id="graph0" class="graph" transform="scale(1 1) rotate(0) translate(4 282)">
<title>koala.utils.num2col</title>
<polygon fill="white" stroke="none" points="-4,4 -4,-282 1125,-282 1125,4 -4,4"/>
<!-- Node206 -->
<g id="node1" class="node"><title>Node206</title>
<g id="a_node1"><a xlink:title=" ">
<polygon fill="#bfbfbf" stroke="black" points="1020,-171 1020,-190 1121,-190 1121,-171 1020,-171"/>
<text text-anchor="middle" x="1070.5" y="-178" font-family="Helvetica,sans-Serif" font-size="10.00">koala.utils.num2col</text>
</a>
</g>
</g>
<!-- Node207 -->
<g id="node2" class="node"><title>Node207</title>
<g id="a_node2"><a xlink:href="classkoala_1_1_cell_1_1_cell.html#abb9596a2117f4095a27eab5cddc46f17" target="_top" xlink:title=" ">
<polygon fill="white" stroke="black" points="867.5,-247.5 867.5,-277.5 962.5,-277.5 962.5,-247.5 867.5,-247.5"/>
<text text-anchor="start" x="875.5" y="-265.5" font-family="Helvetica,sans-Serif" font-size="10.00">koala.Cell.Cell.inc</text>
<text text-anchor="middle" x="915" y="-254.5" font-family="Helvetica,sans-Serif" font-size="10.00">_col_address</text>
</a>
</g>
</g>
<!-- Node206&#45;&gt;Node207 -->
<g id="edge1" class="edge"><title>Node206&#45;&gt;Node207</title>
<path fill="none" stroke="midnightblue" d="M1046.35,-195.714C1029.42,-206.563 1005.7,-221.175 984,-232.5 973.933,-237.753 962.752,-242.94 952.412,-247.485"/>
<polygon fill="midnightblue" stroke="midnightblue" points="1048.51,-198.486 1055.01,-190.118 1044.71,-192.608 1048.51,-198.486"/>
</g>
<!-- Node208 -->
<g id="node3" class="node"><title>Node208</title>
<g id="a_node3"><a xlink:href="namespacekoala_1_1excellib.html#ab1d9d224f4ee11e755d39b5ad520f371" target="_top" xlink:title=" ">
<polygon fill="white" stroke="black" points="673,-215 673,-234 775,-234 775,-215 673,-215"/>
<text text-anchor="middle" x="724" y="-222" font-family="Helvetica,sans-Serif" font-size="10.00">koala.excellib.offset</text>
</a>
</g>
</g>
<!-- Node206&#45;&gt;Node208 -->
<g id="edge2" class="edge"><title>Node206&#45;&gt;Node208</title>
<path fill="none" stroke="midnightblue" d="M1021.43,-192.265C1009.27,-194.941 996.202,-197.563 984,-199.5 911.946,-210.939 827.726,-217.895 775.367,-221.472"/>
<polygon fill="midnightblue" stroke="midnightblue" points="1022.4,-195.634 1031.39,-190.018 1020.86,-188.805 1022.4,-195.634"/>
</g>
<!-- Node209 -->
<g id="node4" class="node"><title>Node209</title>
<g id="a_node4"><a xlink:href="classkoala_1_1_range_1_1_range_core.html#a0ef0d47a2c8903280c6b5dfdd82eb7b6" target="_top" xlink:title=" ">
<polygon fill="white" stroke="black" points="846,-171 846,-190 984,-190 984,-171 846,-171"/>
<text text-anchor="middle" x="915" y="-178" font-family="Helvetica,sans-Serif" font-size="10.00">koala.Range.RangeCore.get</text>
</a>
</g>
</g>
<!-- Node206&#45;&gt;Node209 -->
<g id="edge3" class="edge"><title>Node206&#45;&gt;Node209</title>
<path fill="none" stroke="midnightblue" d="M1009.6,-180.5C1001.2,-180.5 992.531,-180.5 984.003,-180.5"/>
<polygon fill="midnightblue" stroke="midnightblue" points="1009.66,-184 1019.66,-180.5 1009.66,-177 1009.66,-184"/>
</g>
<!-- Node210 -->
<g id="node5" class="node"><title>Node210</title>
<g id="a_node5"><a xlink:href="namespacekoala_1_1utils.html#a1d3620df245d23fea05928298cabc2ac" target="_top" xlink:title=" ">
<polygon fill="white" stroke="black" points="868,-121.5 868,-151.5 962,-151.5 962,-121.5 868,-121.5"/>
<text text-anchor="start" x="876" y="-139.5" font-family="Helvetica,sans-Serif" font-size="10.00">koala.utils.resolve</text>
<text text-anchor="middle" x="915" y="-128.5" font-family="Helvetica,sans-Serif" font-size="10.00">_range</text>
</a>
</g>
</g>
<!-- Node206&#45;&gt;Node210 -->
<g id="edge4" class="edge"><title>Node206&#45;&gt;Node210</title>
<path fill="none" stroke="midnightblue" d="M1026.39,-168.143C1006.34,-162.394 982.46,-155.55 962.052,-149.701"/>
<polygon fill="midnightblue" stroke="midnightblue" points="1025.62,-171.562 1036.19,-170.953 1027.54,-164.833 1025.62,-171.562"/>
</g>
<!-- Node217 -->
<g id="node12" class="node"><title>Node217</title>
<g id="a_node12"><a xlink:href="namespacekoala_1_1utils.html#af031634c3e0574470f15601cb3462677" target="_top" xlink:title=" ">
<polygon fill="white" stroke="black" points="854,-47 854,-66 976,-66 976,-47 854,-47"/>
<text text-anchor="middle" x="915" y="-54" font-family="Helvetica,sans-Serif" font-size="10.00">koala.utils.index2addres</text>
</a>
</g>
</g>
<!-- Node206&#45;&gt;Node217 -->
<g id="edge14" class="edge"><title>Node206&#45;&gt;Node217</title>
<path fill="none" stroke="midnightblue" d="M1049.56,-164.396C1017.22,-138.266 954.278,-87.4214 927.989,-66.1849"/>
<polygon fill="midnightblue" stroke="midnightblue" points="1047.48,-167.209 1057.46,-170.77 1051.88,-161.763 1047.48,-167.209"/>
</g>
<!-- Node210&#45;&gt;Node208 -->
<g id="edge6" class="edge"><title>Node210&#45;&gt;Node208</title>
<path fill="none" stroke="midnightblue" d="M858.521,-153.98C854.13,-156.228 849.894,-158.728 846,-161.5 825.417,-176.154 831.508,-192.24 810,-205.5 799.574,-211.928 787.236,-216.19 775.24,-219.014"/>
<polygon fill="midnightblue" stroke="midnightblue" points="860.1,-157.106 867.691,-149.715 857.148,-150.759 860.1,-157.106"/>
</g>
<!-- Node211 -->
<g id="node6" class="node"><title>Node211</title>
<g id="a_node6"><a xlink:href="classkoala_1_1_cell_1_1_cell.html#ab1fa079614840ca386e0970338c2d8f0" target="_top" xlink:title=" ">
<polygon fill="white" stroke="black" points="671,-165.5 671,-195.5 777,-195.5 777,-165.5 671,-165.5"/>
<text text-anchor="start" x="679" y="-183.5" font-family="Helvetica,sans-Serif" font-size="10.00">koala.Cell.Cell.make</text>
<text text-anchor="middle" x="724" y="-172.5" font-family="Helvetica,sans-Serif" font-size="10.00">_cells</text>
</a>
</g>
</g>
<!-- Node210&#45;&gt;Node211 -->
<g id="edge5" class="edge"><title>Node210&#45;&gt;Node211</title>
<path fill="none" stroke="midnightblue" d="M857.839,-149.575C832.257,-155.53 802.161,-162.537 777.09,-168.373"/>
<polygon fill="midnightblue" stroke="midnightblue" points="858.819,-152.94 867.765,-147.264 857.232,-146.122 858.819,-152.94"/>
</g>
<!-- Node212 -->
<g id="node7" class="node"><title>Node212</title>
<g id="a_node7"><a xlink:href="classkoala_1_1_range_1_1_range_core.html#ac49ba3473e8bcd9585eedd4fa9603bf2" target="_top" xlink:title=" ">
<polygon fill="white" stroke="black" points="661.5,-116.5 661.5,-146.5 786.5,-146.5 786.5,-116.5 661.5,-116.5"/>
<text text-anchor="start" x="669.5" y="-134.5" font-family="Helvetica,sans-Serif" font-size="10.00">koala.Range.RangeCore.</text>
<text text-anchor="middle" x="724" y="-123.5" font-family="Helvetica,sans-Serif" font-size="10.00">__init__</text>
</a>
</g>
</g>
<!-- Node210&#45;&gt;Node212 -->
<g id="edge7" class="edge"><title>Node210&#45;&gt;Node212</title>
<path fill="none" stroke="midnightblue" d="M857.768,-135.012C835.435,-134.422 809.671,-133.74 786.815,-133.135"/>
<polygon fill="midnightblue" stroke="midnightblue" points="857.676,-138.511 867.765,-135.277 857.861,-131.514 857.676,-138.511"/>
</g>
<!-- Node213 -->
<g id="node8" class="node"><title>Node213</title>
<g id="a_node8"><a xlink:href="classkoala_1_1_spreadsheet_1_1_spreadsheet.html#aa23818eb03be8a82c0969bd5338fdf2d" target="_top" xlink:title=" ">
<polygon fill="white" stroke="black" points="638,-49.5 638,-79.5 810,-79.5 810,-49.5 638,-49.5"/>
<text text-anchor="start" x="646" y="-67.5" font-family="Helvetica,sans-Serif" font-size="10.00">koala.Spreadsheet.Spreadsheet.get</text>
<text text-anchor="middle" x="724" y="-56.5" font-family="Helvetica,sans-Serif" font-size="10.00">_arguments_from_ast</text>
</a>
</g>
</g>
<!-- Node210&#45;&gt;Node213 -->
<g id="edge8" class="edge"><title>Node210&#45;&gt;Node213</title>
<path fill="none" stroke="midnightblue" d="M864.985,-117.827C833.742,-105.925 793.788,-90.7051 764.568,-79.5737"/>
<polygon fill="midnightblue" stroke="midnightblue" points="863.789,-121.117 874.379,-121.406 866.281,-114.576 863.789,-121.117"/>
</g>
<!-- Node213&#45;&gt;Node213 -->
<g id="edge9" class="edge"><title>Node213&#45;&gt;Node213</title>
<path fill="none" stroke="midnightblue" d="M757.761,-89.9579C753.571,-94.679 742.317,-98 724,-98 693.941,-98 682.904,-89.0566 690.889,-79.659"/>
<polygon fill="midnightblue" stroke="midnightblue" points="761.234,-89.4189 757.111,-79.659 754.248,-89.8594 761.234,-89.4189"/>
</g>
<!-- Node214 -->
<g id="node9" class="node"><title>Node214</title>
<g id="a_node9"><a xlink:href="classkoala_1_1_spreadsheet_1_1_spreadsheet.html#a8ebd4153a8499a4bf7fdf0bde89f12f0" target="_top" xlink:title=" ">
<polygon fill="white" stroke="black" points="430,-49.5 430,-79.5 602,-79.5 602,-49.5 430,-49.5"/>
<text text-anchor="start" x="438" y="-67.5" font-family="Helvetica,sans-Serif" font-size="10.00">koala.Spreadsheet.Spreadsheet.get</text>
<text text-anchor="middle" x="516" y="-56.5" font-family="Helvetica,sans-Serif" font-size="10.00">_pointer_arguments_from_ast</text>
</a>
</g>
</g>
<!-- Node213&#45;&gt;Node214 -->
<g id="edge10" class="edge"><title>Node213&#45;&gt;Node214</title>
<path fill="none" stroke="midnightblue" d="M627.486,-64.5C619.053,-64.5 610.552,-64.5 602.211,-64.5"/>
<polygon fill="midnightblue" stroke="midnightblue" points="627.725,-68.0001 637.725,-64.5 627.725,-61.0001 627.725,-68.0001"/>
</g>
<!-- Node214&#45;&gt;Node214 -->
<g id="edge13" class="edge"><title>Node214&#45;&gt;Node214</title>
<path fill="none" stroke="midnightblue" d="M552.959,-89.9579C548.372,-94.679 536.052,-98 516,-98 483.094,-98 471.011,-89.0566 479.752,-79.659"/>
<polygon fill="midnightblue" stroke="midnightblue" points="556.429,-89.3943 552.248,-79.659 549.445,-89.8763 556.429,-89.3943"/>
</g>
<!-- Node215 -->
<g id="node10" class="node"><title>Node215</title>
<g id="a_node10"><a xlink:href="classkoala_1_1_spreadsheet_1_1_spreadsheet.html#a6f233266d3e106c54dc37886dba18e9a" target="_top" xlink:title=" ">
<polygon fill="white" stroke="black" points="221,-49.5 221,-79.5 394,-79.5 394,-49.5 221,-49.5"/>
<text text-anchor="start" x="229" y="-67.5" font-family="Helvetica,sans-Serif" font-size="10.00">koala.Spreadsheet.Spreadsheet.find</text>
<text text-anchor="middle" x="307.5" y="-56.5" font-family="Helvetica,sans-Serif" font-size="10.00">_pointer_arguments</text>
</a>
</g>
</g>
<!-- Node214&#45;&gt;Node215 -->
<g id="edge11" class="edge"><title>Node214&#45;&gt;Node215</title>
<path fill="none" stroke="midnightblue" d="M419.538,-64.5C411.071,-64.5 402.533,-64.5 394.155,-64.5"/>
<polygon fill="midnightblue" stroke="midnightblue" points="419.816,-68.0001 429.816,-64.5 419.816,-61.0001 419.816,-68.0001"/>
</g>
<!-- Node216 -->
<g id="node11" class="node"><title>Node216</title>
<g id="a_node11"><a xlink:href="classkoala_1_1_spreadsheet_1_1_spreadsheet.html#a988fc1ddf090bf9746135ce759907a5a" target="_top" xlink:title=" ">
<polygon fill="white" stroke="black" points="0,-49.5 0,-79.5 185,-79.5 185,-49.5 0,-49.5"/>
<text text-anchor="start" x="8" y="-67.5" font-family="Helvetica,sans-Serif" font-size="10.00">koala.Spreadsheet.Spreadsheet.detect</text>
<text text-anchor="middle" x="92.5" y="-56.5" font-family="Helvetica,sans-Serif" font-size="10.00">_alive</text>
</a>
</g>
</g>
<!-- Node215&#45;&gt;Node216 -->
<g id="edge12" class="edge"><title>Node215&#45;&gt;Node216</title>
<path fill="none" stroke="midnightblue" d="M210.588,-64.5C202.18,-64.5 193.683,-64.5 185.31,-64.5"/>
<polygon fill="midnightblue" stroke="midnightblue" points="210.785,-68.0001 220.785,-64.5 210.785,-61.0001 210.785,-68.0001"/>
</g>
<!-- Node218 -->
<g id="node13" class="node"><title>Node218</title>
<g id="a_node13"><a xlink:href="namespacekoala_1_1utils.html#ad9c798e1b08d19581bc20264bea1f11f" target="_top" xlink:title=" ">
<polygon fill="white" stroke="black" points="671,-0.5 671,-30.5 777,-30.5 777,-0.5 671,-0.5"/>
<text text-anchor="start" x="679" y="-18.5" font-family="Helvetica,sans-Serif" font-size="10.00">koala.utils.get_linest</text>
<text text-anchor="middle" x="724" y="-7.5" font-family="Helvetica,sans-Serif" font-size="10.00">_degree</text>
</a>
</g>
</g>
<!-- Node217&#45;&gt;Node218 -->
<g id="edge15" class="edge"><title>Node217&#45;&gt;Node218</title>
<path fill="none" stroke="midnightblue" d="M860.111,-44.8099C834.135,-39.1748 803.103,-32.443 777.333,-26.8527"/>
<polygon fill="midnightblue" stroke="midnightblue" points="859.65,-48.2911 870.165,-46.9907 861.134,-41.4502 859.65,-48.2911"/>
</g>
</g>
</svg>
