<?xml version="1.0" encoding="UTF-8" standalone="no"?>
<!DOCTYPE svg PUBLIC "-//W3C//DTD SVG 1.1//EN"
 "http://www.w3.org/Graphics/SVG/1.1/DTD/svg11.dtd">
<!-- Generated by graphviz version 2.38.0 (20140413.2041)
 -->
<!-- Title: koala.ast.build_ast Pages: 1 -->
<svg width="1213pt" height="176pt"
 viewBox="0.00 0.00 1213.00 176.00" xmlns="http://www.w3.org/2000/svg" xmlns:xlink="http://www.w3.org/1999/xlink">
<g id="graph0" class="graph" transform="scale(1 1) rotate(0) translate(4 172)">
<title>koala.ast.build_ast</title>
<polygon fill="white" stroke="none" points="-4,4 -4,-172 1209,-172 1209,4 -4,4"/>
<!-- Node1 -->
<g id="node1" class="node"><title>Node1</title>
<g id="a_node1"><a xlink:title=" ">
<polygon fill="#bfbfbf" stroke="black" points="1107,-77 1107,-96 1205,-96 1205,-77 1107,-77"/>
<text text-anchor="middle" x="1156" y="-84" font-family="Helvetica,sans-Serif" font-size="10.00">koala.ast.build_ast</text>
</a>
</g>
</g>
<!-- Node2 -->
<g id="node2" class="node"><title>Node2</title>
<g id="a_node2"><a xlink:href="namespacekoala_1_1ast.html#abb76e7037309a032effde5e5078a86e2" target="_top" xlink:title=" ">
<polygon fill="white" stroke="black" points="929.5,-99 929.5,-118 1030.5,-118 1030.5,-99 929.5,-99"/>
<text text-anchor="middle" x="980" y="-106" font-family="Helvetica,sans-Serif" font-size="10.00">koala.ast.cell2code</text>
</a>
</g>
</g>
<!-- Node1&#45;&gt;Node2 -->
<g id="edge1" class="edge"><title>Node1&#45;&gt;Node2</title>
<path fill="none" stroke="midnightblue" d="M1097.01,-93.8325C1075.51,-96.55 1051.35,-99.6047 1030.67,-102.22"/>
<polygon fill="midnightblue" stroke="midnightblue" points="1097.51,-97.2967 1106.99,-92.5698 1096.63,-90.3519 1097.51,-97.2967"/>
</g>
<!-- Node11 -->
<g id="node11" class="node"><title>Node11</title>
<g id="a_node11"><a xlink:href="namespacekoala_1_1ast.html#a3d0179539d74f2668d3917bf28d2edd8" target="_top" xlink:title=" ">
<polygon fill="white" stroke="black" points="917,-137 917,-156 1043,-156 1043,-137 917,-137"/>
<text text-anchor="middle" x="980" y="-144" font-family="Helvetica,sans-Serif" font-size="10.00">koala.ast.prepare_pointer</text>
</a>
</g>
</g>
<!-- Node1&#45;&gt;Node11 -->
<g id="edge10" class="edge"><title>Node1&#45;&gt;Node11</title>
<path fill="none" stroke="midnightblue" d="M1129.56,-100.958C1113.26,-109.706 1091.4,-120.489 1071,-127.5 1060.13,-131.237 1048.25,-134.376 1036.8,-136.956"/>
<polygon fill="midnightblue" stroke="midnightblue" points="1131.38,-103.956 1138.47,-96.086 1128.02,-97.8147 1131.38,-103.956"/>
</g>
<!-- Node12 -->
<g id="node12" class="node"><title>Node12</title>
<g id="a_node12"><a xlink:href="classkoala_1_1_spreadsheet_1_1_spreadsheet.html#a13c2cbec203d01d4d8404e3954dd27d7" target="_top" xlink:title=" ">
<polygon fill="white" stroke="black" points="889,-49.5 889,-79.5 1071,-79.5 1071,-49.5 889,-49.5"/>
<text text-anchor="start" x="897" y="-67.5" font-family="Helvetica,sans-Serif" font-size="10.00">koala.Spreadsheet.Spreadsheet.clean</text>
<text text-anchor="middle" x="980" y="-56.5" font-family="Helvetica,sans-Serif" font-size="10.00">_pointer</text>
</a>
</g>
</g>
<!-- Node1&#45;&gt;Node12 -->
<g id="edge13" class="edge"><title>Node1&#45;&gt;Node12</title>
<path fill="none" stroke="midnightblue" d="M1097.06,-79.1747C1088.74,-78.1223 1080.02,-77.0193 1071.25,-75.9107"/>
<polygon fill="midnightblue" stroke="midnightblue" points="1096.63,-82.6481 1106.99,-80.4302 1097.51,-75.7033 1096.63,-82.6481"/>
</g>
<!-- Node13 -->
<g id="node13" class="node"><title>Node13</title>
<g id="a_node13"><a xlink:href="classkoala_1_1_spreadsheet_1_1_spreadsheet.html#a6f233266d3e106c54dc37886dba18e9a" target="_top" xlink:title=" ">
<polygon fill="white" stroke="black" points="893.5,-0.5 893.5,-30.5 1066.5,-30.5 1066.5,-0.5 893.5,-0.5"/>
<text text-anchor="start" x="901.5" y="-18.5" font-family="Helvetica,sans-Serif" font-size="10.00">koala.Spreadsheet.Spreadsheet.find</text>
<text text-anchor="middle" x="980" y="-7.5" font-family="Helvetica,sans-Serif" font-size="10.00">_pointer_arguments</text>
</a>
</g>
</g>
<!-- Node1&#45;&gt;Node13 -->
<g id="edge14" class="edge"><title>Node1&#45;&gt;Node13</title>
<path fill="none" stroke="midnightblue" d="M1131.51,-71.2581C1115.09,-61.1358 1092.36,-48.1642 1071,-39.5 1062.91,-36.2175 1054.23,-33.252 1045.56,-30.6157"/>
<polygon fill="midnightblue" stroke="midnightblue" points="1130.06,-74.4813 1140.39,-76.8346 1133.78,-68.553 1130.06,-74.4813"/>
</g>
<!-- Node3 -->
<g id="node3" class="node"><title>Node3</title>
<g id="a_node3"><a xlink:href="namespacekoala_1_1ast.html#aa55446c8aa764f09775f006ee775ec7b" target="_top" xlink:title=" ">
<polygon fill="white" stroke="black" points="707,-93.5 707,-123.5 814,-123.5 814,-93.5 707,-93.5"/>
<text text-anchor="start" x="715" y="-111.5" font-family="Helvetica,sans-Serif" font-size="10.00">koala.ast.graph_from</text>
<text text-anchor="middle" x="760.5" y="-100.5" font-family="Helvetica,sans-Serif" font-size="10.00">_seeds</text>
</a>
</g>
</g>
<!-- Node2&#45;&gt;Node3 -->
<g id="edge2" class="edge"><title>Node2&#45;&gt;Node3</title>
<path fill="none" stroke="midnightblue" d="M919.006,-108.5C886.203,-108.5 845.937,-108.5 814.33,-108.5"/>
<polygon fill="midnightblue" stroke="midnightblue" points="919.374,-112 929.374,-108.5 919.374,-105 919.374,-112"/>
</g>
<!-- Node4 -->
<g id="node4" class="node"><title>Node4</title>
<g id="a_node4"><a xlink:href="classkoala_1_1_spreadsheet_1_1_spreadsheet.html#a80d6ad19a13ccd80ca76f3f94975f7b5" target="_top" xlink:title=" ">
<polygon fill="white" stroke="black" points="448,-137.5 448,-167.5 622,-167.5 622,-137.5 448,-137.5"/>
<text text-anchor="start" x="456" y="-155.5" font-family="Helvetica,sans-Serif" font-size="10.00">koala.Spreadsheet.Spreadsheet.gen</text>
<text text-anchor="middle" x="535" y="-144.5" font-family="Helvetica,sans-Serif" font-size="10.00">_graph</text>
</a>
</g>
</g>
<!-- Node3&#45;&gt;Node4 -->
<g id="edge3" class="edge"><title>Node3&#45;&gt;Node4</title>
<path fill="none" stroke="midnightblue" d="M697.002,-120.804C670.772,-125.968 640.018,-132.022 612.456,-137.448"/>
<polygon fill="midnightblue" stroke="midnightblue" points="697.681,-124.237 706.817,-118.872 696.329,-117.369 697.681,-124.237"/>
</g>
<!-- Node5 -->
<g id="node5" class="node"><title>Node5</title>
<g id="a_node5"><a xlink:href="classkoala_1_1_spreadsheet_1_1_spreadsheet.html#affd17089825c4b3391c4d6b9b702209c" target="_top" xlink:title=" ">
<polygon fill="white" stroke="black" points="438,-99 438,-118 632,-118 632,-99 438,-99"/>
<text text-anchor="middle" x="535" y="-106" font-family="Helvetica,sans-Serif" font-size="10.00">koala.Spreadsheet.Spreadsheet.cell_add</text>
</a>
</g>
</g>
<!-- Node3&#45;&gt;Node5 -->
<g id="edge4" class="edge"><title>Node3&#45;&gt;Node5</title>
<path fill="none" stroke="midnightblue" d="M696.601,-108.5C676.576,-108.5 653.946,-108.5 632.126,-108.5"/>
<polygon fill="midnightblue" stroke="midnightblue" points="696.817,-112 706.817,-108.5 696.817,-105 696.817,-112"/>
</g>
<!-- Node9 -->
<g id="node9" class="node"><title>Node9</title>
<g id="a_node9"><a xlink:href="classkoala_1_1_spreadsheet_1_1_spreadsheet.html#aa7bdaffc24c26fbf18d5b752b7e49df2" target="_top" xlink:title=" ">
<polygon fill="white" stroke="black" points="448.5,-46.5 448.5,-76.5 621.5,-76.5 621.5,-46.5 448.5,-46.5"/>
<text text-anchor="start" x="456.5" y="-64.5" font-family="Helvetica,sans-Serif" font-size="10.00">koala.Spreadsheet.Spreadsheet.cell</text>
<text text-anchor="middle" x="535" y="-53.5" font-family="Helvetica,sans-Serif" font-size="10.00">_set_formula</text>
</a>
</g>
</g>
<!-- Node3&#45;&gt;Node9 -->
<g id="edge8" class="edge"><title>Node3&#45;&gt;Node9</title>
<path fill="none" stroke="midnightblue" d="M696.814,-95.3177C668.996,-89.4679 636.117,-82.5538 607.361,-76.5066"/>
<polygon fill="midnightblue" stroke="midnightblue" points="696.31,-98.7883 706.817,-97.4212 697.751,-91.9381 696.31,-98.7883"/>
</g>
<!-- Node6 -->
<g id="node6" class="node"><title>Node6</title>
<g id="a_node6"><a xlink:href="classkoala_1_1_spreadsheet_1_1_spreadsheet.html#a7481e9d34fe1d4347b3b6eed3462b545" target="_top" xlink:title=" ">
<polygon fill="white" stroke="black" points="208,-143 208,-162 402,-162 402,-143 208,-143"/>
<text text-anchor="middle" x="305" y="-150" font-family="Helvetica,sans-Serif" font-size="10.00">koala.Spreadsheet.Spreadsheet.add_cell</text>
</a>
</g>
</g>
<!-- Node5&#45;&gt;Node6 -->
<g id="edge5" class="edge"><title>Node5&#45;&gt;Node6</title>
<path fill="none" stroke="midnightblue" d="M474.366,-120.008C437.335,-127.155 390.311,-136.23 355.376,-142.971"/>
<polygon fill="midnightblue" stroke="midnightblue" points="475.372,-123.379 484.527,-118.047 474.045,-116.506 475.372,-123.379"/>
</g>
<!-- Node7 -->
<g id="node7" class="node"><title>Node7</title>
<g id="a_node7"><a xlink:href="classkoala_1_1_spreadsheet_1_1_spreadsheet.html#a2f695c5a3bc3f8812609bd2ba4ebb784" target="_top" xlink:title=" ">
<polygon fill="white" stroke="black" points="218.5,-93.5 218.5,-123.5 391.5,-123.5 391.5,-93.5 218.5,-93.5"/>
<text text-anchor="start" x="226.5" y="-111.5" font-family="Helvetica,sans-Serif" font-size="10.00">koala.Spreadsheet.Spreadsheet.cell</text>
<text text-anchor="middle" x="305" y="-100.5" font-family="Helvetica,sans-Serif" font-size="10.00">_set_value</text>
</a>
</g>
</g>
<!-- Node5&#45;&gt;Node7 -->
<g id="edge6" class="edge"><title>Node5&#45;&gt;Node7</title>
<path fill="none" stroke="midnightblue" d="M427.853,-108.5C415.764,-108.5 403.557,-108.5 391.778,-108.5"/>
<polygon fill="midnightblue" stroke="midnightblue" points="427.968,-112 437.968,-108.5 427.968,-105 427.968,-112"/>
</g>
<!-- Node8 -->
<g id="node8" class="node"><title>Node8</title>
<g id="a_node8"><a xlink:href="classkoala_1_1_spreadsheet_1_1_spreadsheet.html#a1330ffeda88c7bc6905a00e80203eb78" target="_top" xlink:title=" ">
<polygon fill="white" stroke="black" points="0,-93.5 0,-123.5 172,-123.5 172,-93.5 0,-93.5"/>
<text text-anchor="start" x="8" y="-111.5" font-family="Helvetica,sans-Serif" font-size="10.00">koala.Spreadsheet.Spreadsheet.set</text>
<text text-anchor="middle" x="86" y="-100.5" font-family="Helvetica,sans-Serif" font-size="10.00">_value</text>
</a>
</g>
</g>
<!-- Node7&#45;&gt;Node8 -->
<g id="edge7" class="edge"><title>Node7&#45;&gt;Node8</title>
<path fill="none" stroke="midnightblue" d="M208.209,-108.5C196.197,-108.5 183.975,-108.5 172.141,-108.5"/>
<polygon fill="midnightblue" stroke="midnightblue" points="208.236,-112 218.236,-108.5 208.236,-105 208.236,-112"/>
</g>
<!-- Node10 -->
<g id="node10" class="node"><title>Node10</title>
<g id="a_node10"><a xlink:href="classkoala_1_1_spreadsheet_1_1_spreadsheet.html#af50724d01ff5b3ae09ecc1bdfbfb0fed" target="_top" xlink:title=" ">
<polygon fill="white" stroke="black" points="219,-44.5 219,-74.5 391,-74.5 391,-44.5 219,-44.5"/>
<text text-anchor="start" x="227" y="-62.5" font-family="Helvetica,sans-Serif" font-size="10.00">koala.Spreadsheet.Spreadsheet.set</text>
<text text-anchor="middle" x="305" y="-51.5" font-family="Helvetica,sans-Serif" font-size="10.00">_formula</text>
</a>
</g>
</g>
<!-- Node9&#45;&gt;Node10 -->
<g id="edge9" class="edge"><title>Node9&#45;&gt;Node10</title>
<path fill="none" stroke="midnightblue" d="M438.278,-60.6603C422.674,-60.5235 406.6,-60.3825 391.269,-60.248"/>
<polygon fill="midnightblue" stroke="midnightblue" points="438.422,-64.1616 448.453,-60.7496 438.484,-57.1619 438.422,-64.1616"/>
</g>
<!-- Node11&#45;&gt;Node3 -->
<g id="edge11" class="edge"><title>Node11&#45;&gt;Node3</title>
<path fill="none" stroke="midnightblue" d="M914.267,-135.19C882.356,-129.615 844.363,-122.977 814.248,-117.716"/>
<polygon fill="midnightblue" stroke="midnightblue" points="913.943,-138.687 924.396,-136.96 915.148,-131.791 913.943,-138.687"/>
</g>
<!-- Node11&#45;&gt;Node4 -->
<g id="edge12" class="edge"><title>Node11&#45;&gt;Node4</title>
<path fill="none" stroke="midnightblue" d="M906.743,-147.479C828.949,-148.532 705.232,-150.208 622.362,-151.33"/>
<polygon fill="midnightblue" stroke="midnightblue" points="906.985,-150.976 916.936,-147.341 906.89,-143.976 906.985,-150.976"/>
</g>
<!-- Node14 -->
<g id="node14" class="node"><title>Node14</title>
<g id="a_node14"><a xlink:href="classkoala_1_1_spreadsheet_1_1_spreadsheet.html#a988fc1ddf090bf9746135ce759907a5a" target="_top" xlink:title=" ">
<polygon fill="white" stroke="black" points="668,-0.5 668,-30.5 853,-30.5 853,-0.5 668,-0.5"/>
<text text-anchor="start" x="676" y="-18.5" font-family="Helvetica,sans-Serif" font-size="10.00">koala.Spreadsheet.Spreadsheet.detect</text>
<text text-anchor="middle" x="760.5" y="-7.5" font-family="Helvetica,sans-Serif" font-size="10.00">_alive</text>
</a>
</g>
</g>
<!-- Node13&#45;&gt;Node14 -->
<g id="edge15" class="edge"><title>Node13&#45;&gt;Node14</title>
<path fill="none" stroke="midnightblue" d="M883.064,-15.5C873.129,-15.5 863.05,-15.5 853.164,-15.5"/>
<polygon fill="midnightblue" stroke="midnightblue" points="883.35,-19.0001 893.35,-15.5 883.35,-12.0001 883.35,-19.0001"/>
</g>
</g>
</svg>
