<?xml version="1.0" encoding="UTF-8" standalone="no"?>
<!DOCTYPE svg PUBLIC "-//W3C//DTD SVG 1.1//EN"
 "http://www.w3.org/Graphics/SVG/1.1/DTD/svg11.dtd">
<!-- Generated by graphviz version 2.38.0 (20140413.2041)
 -->
<!-- Title: koala.utils.get_max_days_in_month Pages: 1 -->
<svg width="576pt" height="180pt"
 viewBox="0.00 0.00 576.00 180.00" xmlns="http://www.w3.org/2000/svg" xmlns:xlink="http://www.w3.org/1999/xlink">
<g id="graph0" class="graph" transform="scale(1 1) rotate(0) translate(4 176)">
<title>koala.utils.get_max_days_in_month</title>
<polygon fill="white" stroke="none" points="-4,4 -4,-176 572,-176 572,4 -4,4"/>
<!-- Node80 -->
<g id="node1" class="node"><title>Node80</title>
<g id="a_node1"><a xlink:title=" ">
<polygon fill="#bfbfbf" stroke="black" points="467,-99 467,-129 568,-129 568,-99 467,-99"/>
<text text-anchor="start" x="475" y="-117" font-family="Helvetica,sans-Serif" font-size="10.00">koala.utils.get_max</text>
<text text-anchor="middle" x="517.5" y="-106" font-family="Helvetica,sans-Serif" font-size="10.00">_days_in_month</text>
</a>
</g>
</g>
<!-- Node81 -->
<g id="node2" class="node"><title>Node81</title>
<g id="a_node2"><a xlink:href="namespacekoala_1_1utils.html#a6a29ca0b64c84fe42f7d41190820477c" target="_top" xlink:title=" ">
<polygon fill="white" stroke="black" points="301,-133.5 301,-152.5 431,-152.5 431,-133.5 301,-133.5"/>
<text text-anchor="middle" x="366" y="-140.5" font-family="Helvetica,sans-Serif" font-size="10.00">koala.utils.normalize_year</text>
</a>
</g>
</g>
<!-- Node80&#45;&gt;Node81 -->
<g id="edge1" class="edge"><title>Node80&#45;&gt;Node81</title>
<path fill="none" stroke="midnightblue" d="M456.589,-125.621C443.133,-128.232 429.008,-130.972 416.055,-133.484"/>
<polygon fill="midnightblue" stroke="midnightblue" points="457.568,-128.997 466.719,-123.657 456.235,-122.125 457.568,-128.997"/>
</g>
<!-- Node85 -->
<g id="node6" class="node"><title>Node85</title>
<g id="a_node6"><a xlink:href="namespacekoala_1_1utils.html#a37fde0505838c8954ad814bd03f331c3" target="_top" xlink:title=" ">
<polygon fill="white" stroke="black" points="305,-76.5 305,-95.5 427,-95.5 427,-76.5 305,-76.5"/>
<text text-anchor="middle" x="366" y="-83.5" font-family="Helvetica,sans-Serif" font-size="10.00">koala.utils.date_from_int</text>
</a>
</g>
</g>
<!-- Node80&#45;&gt;Node85 -->
<g id="edge5" class="edge"><title>Node80&#45;&gt;Node85</title>
<path fill="none" stroke="midnightblue" d="M456.583,-102.778C443.744,-100.374 430.297,-97.855 417.84,-95.522"/>
<polygon fill="midnightblue" stroke="midnightblue" points="456.245,-106.276 466.719,-104.676 457.534,-99.3952 456.245,-106.276"/>
</g>
<!-- Node82 -->
<g id="node3" class="node"><title>Node82</title>
<g id="a_node3"><a xlink:href="namespacekoala_1_1excellib.html#ac993fb561979c98ece430fb6d643ce17" target="_top" xlink:title=" ">
<polygon fill="white" stroke="black" points="158,-152.5 158,-171.5 256,-171.5 256,-152.5 158,-152.5"/>
<text text-anchor="middle" x="207" y="-159.5" font-family="Helvetica,sans-Serif" font-size="10.00">koala.excellib.date</text>
</a>
</g>
</g>
<!-- Node81&#45;&gt;Node82 -->
<g id="edge2" class="edge"><title>Node81&#45;&gt;Node82</title>
<path fill="none" stroke="midnightblue" d="M290.476,-152.019C278.791,-153.433 266.987,-154.861 256.105,-156.178"/>
<polygon fill="midnightblue" stroke="midnightblue" points="291.182,-155.459 300.689,-150.783 290.341,-148.51 291.182,-155.459"/>
</g>
<!-- Node83 -->
<g id="node4" class="node"><title>Node83</title>
<g id="a_node4"><a xlink:href="namespacekoala_1_1excellib.html#a298991fcfa2174f09d7d5627a1e50b79" target="_top" xlink:title=" ">
<polygon fill="white" stroke="black" points="0,-114.5 0,-133.5 113,-133.5 113,-114.5 0,-114.5"/>
<text text-anchor="middle" x="56.5" y="-121.5" font-family="Helvetica,sans-Serif" font-size="10.00">koala.excellib.yearfrac</text>
</a>
</g>
</g>
<!-- Node82&#45;&gt;Node83 -->
<g id="edge3" class="edge"><title>Node82&#45;&gt;Node83</title>
<path fill="none" stroke="midnightblue" d="M158.667,-149.888C137.985,-144.596 114.081,-138.479 94.7034,-133.52"/>
<polygon fill="midnightblue" stroke="midnightblue" points="157.972,-153.323 168.527,-152.411 159.707,-146.541 157.972,-153.323"/>
</g>
<!-- Node84 -->
<g id="node5" class="node"><title>Node84</title>
<g id="a_node5"><a xlink:href="namespacekoala_1_1excellib.html#aef0e50530221c9b41d2ec2093f3280e3" target="_top" xlink:title=" ">
<polygon fill="white" stroke="black" points="5,-152.5 5,-171.5 108,-171.5 108,-152.5 5,-152.5"/>
<text text-anchor="middle" x="56.5" y="-159.5" font-family="Helvetica,sans-Serif" font-size="10.00">koala.excellib.today</text>
</a>
</g>
</g>
<!-- Node82&#45;&gt;Node84 -->
<g id="edge4" class="edge"><title>Node82&#45;&gt;Node84</title>
<path fill="none" stroke="midnightblue" d="M147.5,-162C134.45,-162 120.72,-162 108.025,-162"/>
<polygon fill="midnightblue" stroke="midnightblue" points="147.786,-165.5 157.786,-162 147.786,-158.5 147.786,-165.5"/>
</g>
<!-- Node85&#45;&gt;Node83 -->
<g id="edge9" class="edge"><title>Node85&#45;&gt;Node83</title>
<path fill="none" stroke="midnightblue" d="M309.978,-97.4404C295.402,-100.201 279.645,-102.943 265,-105 213.773,-112.195 155.03,-117.28 113.153,-120.368"/>
<polygon fill="midnightblue" stroke="midnightblue" points="310.697,-100.866 319.853,-95.535 309.371,-93.9932 310.697,-100.866"/>
</g>
<!-- Node86 -->
<g id="node7" class="node"><title>Node86</title>
<g id="a_node7"><a xlink:href="namespacekoala_1_1excellib.html#ae4d8e7957ed6e634cb78fbbfa9cc5898" target="_top" xlink:title=" ">
<polygon fill="white" stroke="black" points="149,-76.5 149,-95.5 265,-95.5 265,-76.5 149,-76.5"/>
<text text-anchor="middle" x="207" y="-83.5" font-family="Helvetica,sans-Serif" font-size="10.00">koala.excellib.eomonth</text>
</a>
</g>
</g>
<!-- Node85&#45;&gt;Node86 -->
<g id="edge6" class="edge"><title>Node85&#45;&gt;Node86</title>
<path fill="none" stroke="midnightblue" d="M294.602,-86C284.781,-86 274.789,-86 265.25,-86"/>
<polygon fill="midnightblue" stroke="midnightblue" points="294.749,-89.5001 304.749,-86 294.749,-82.5001 294.749,-89.5001"/>
</g>
<!-- Node87 -->
<g id="node8" class="node"><title>Node87</title>
<g id="a_node8"><a xlink:href="namespacekoala_1_1excellib.html#ae09c8176bd57c233c6d55f6644c15c65" target="_top" xlink:title=" ">
<polygon fill="white" stroke="black" points="158,-38.5 158,-57.5 256,-57.5 256,-38.5 158,-38.5"/>
<text text-anchor="middle" x="207" y="-45.5" font-family="Helvetica,sans-Serif" font-size="10.00">koala.excellib.year</text>
</a>
</g>
</g>
<!-- Node85&#45;&gt;Node87 -->
<g id="edge7" class="edge"><title>Node85&#45;&gt;Node87</title>
<path fill="none" stroke="midnightblue" d="M315.553,-74.032C293.552,-68.7069 268.006,-62.5238 247.333,-57.5201"/>
<polygon fill="midnightblue" stroke="midnightblue" points="314.84,-77.4602 325.382,-76.411 316.486,-70.6567 314.84,-77.4602"/>
</g>
<!-- Node88 -->
<g id="node9" class="node"><title>Node88</title>
<g id="a_node9"><a xlink:href="namespacekoala_1_1excellib.html#a66569fac1521a5ac9a579cbbb1ac3138" target="_top" xlink:title=" ">
<polygon fill="white" stroke="black" points="154,-0.5 154,-19.5 260,-19.5 260,-0.5 154,-0.5"/>
<text text-anchor="middle" x="207" y="-7.5" font-family="Helvetica,sans-Serif" font-size="10.00">koala.excellib.month</text>
</a>
</g>
</g>
<!-- Node85&#45;&gt;Node88 -->
<g id="edge8" class="edge"><title>Node85&#45;&gt;Node88</title>
<path fill="none" stroke="midnightblue" d="M341.582,-70.899C321.741,-58.5374 292.252,-41.167 265,-29 257.19,-25.5129 248.534,-22.3103 240.377,-19.5678"/>
<polygon fill="midnightblue" stroke="midnightblue" points="339.91,-73.9822 350.236,-76.3547 343.643,-68.0608 339.91,-73.9822"/>
</g>
</g>
</svg>
