<?xml version="1.0" encoding="UTF-8" standalone="no"?>
<!DOCTYPE svg PUBLIC "-//W3C//DTD SVG 1.1//EN"
 "http://www.w3.org/Graphics/SVG/1.1/DTD/svg11.dtd">
<!-- Generated by graphviz version 2.38.0 (20140413.2041)
 -->
<!-- Title: koala.utils.num2col Pages: 1 -->
<svg width="1172pt" height="354pt"
 viewBox="0.00 0.00 1172.00 354.00" xmlns="http://www.w3.org/2000/svg" xmlns:xlink="http://www.w3.org/1999/xlink">
<g id="graph0" class="graph" transform="scale(1 1) rotate(0) translate(4 350)">
<title>koala.utils.num2col</title>
<polygon fill="white" stroke="none" points="-4,4 -4,-350 1168,-350 1168,4 -4,4"/>
<!-- Node239 -->
<g id="node1" class="node"><title>Node239</title>
<g id="a_node1"><a xlink:title=" ">
<polygon fill="#bfbfbf" stroke="black" points="1063,-239 1063,-258 1164,-258 1164,-239 1063,-239"/>
<text text-anchor="middle" x="1113.5" y="-246" font-family="Helvetica,sans-Serif" font-size="10.00">koala.utils.num2col</text>
</a>
</g>
</g>
<!-- Node240 -->
<g id="node2" class="node"><title>Node240</title>
<g id="a_node2"><a xlink:href="classkoala_1_1_cell_1_1_cell.html#abb9596a2117f4095a27eab5cddc46f17" target="_top" xlink:title=" ">
<polygon fill="white" stroke="black" points="910.5,-315.5 910.5,-345.5 1005.5,-345.5 1005.5,-315.5 910.5,-315.5"/>
<text text-anchor="start" x="918.5" y="-333.5" font-family="Helvetica,sans-Serif" font-size="10.00">koala.Cell.Cell.inc</text>
<text text-anchor="middle" x="958" y="-322.5" font-family="Helvetica,sans-Serif" font-size="10.00">_col_address</text>
</a>
</g>
</g>
<!-- Node239&#45;&gt;Node240 -->
<g id="edge1" class="edge"><title>Node239&#45;&gt;Node240</title>
<path fill="none" stroke="midnightblue" d="M1089.35,-263.714C1072.42,-274.563 1048.7,-289.175 1027,-300.5 1016.93,-305.753 1005.75,-310.94 995.412,-315.485"/>
<polygon fill="midnightblue" stroke="midnightblue" points="1091.51,-266.486 1098.01,-258.118 1087.71,-260.608 1091.51,-266.486"/>
</g>
<!-- Node241 -->
<g id="node3" class="node"><title>Node241</title>
<g id="a_node3"><a xlink:href="namespacekoala_1_1excellib.html#ab1d9d224f4ee11e755d39b5ad520f371" target="_top" xlink:title=" ">
<polygon fill="white" stroke="black" points="716,-313 716,-332 818,-332 818,-313 716,-313"/>
<text text-anchor="middle" x="767" y="-320" font-family="Helvetica,sans-Serif" font-size="10.00">koala.excellib.offset</text>
</a>
</g>
</g>
<!-- Node239&#45;&gt;Node241 -->
<g id="edge2" class="edge"><title>Node239&#45;&gt;Node241</title>
<path fill="none" stroke="midnightblue" d="M1060.05,-260.237C1049.13,-262.658 1037.69,-265.176 1027,-267.5 952.209,-283.751 865.145,-302.128 813.411,-312.992"/>
<polygon fill="midnightblue" stroke="midnightblue" points="1060.89,-263.635 1069.9,-258.05 1059.38,-256.802 1060.89,-263.635"/>
</g>
<!-- Node242 -->
<g id="node4" class="node"><title>Node242</title>
<g id="a_node4"><a xlink:href="classkoala_1_1_range_1_1_range_core.html#a0ef0d47a2c8903280c6b5dfdd82eb7b6" target="_top" xlink:title=" ">
<polygon fill="white" stroke="black" points="889,-239 889,-258 1027,-258 1027,-239 889,-239"/>
<text text-anchor="middle" x="958" y="-246" font-family="Helvetica,sans-Serif" font-size="10.00">koala.Range.RangeCore.get</text>
</a>
</g>
</g>
<!-- Node239&#45;&gt;Node242 -->
<g id="edge3" class="edge"><title>Node239&#45;&gt;Node242</title>
<path fill="none" stroke="midnightblue" d="M1052.6,-248.5C1044.2,-248.5 1035.53,-248.5 1027,-248.5"/>
<polygon fill="midnightblue" stroke="midnightblue" points="1052.66,-252 1062.66,-248.5 1052.66,-245 1052.66,-252"/>
</g>
<!-- Node243 -->
<g id="node5" class="node"><title>Node243</title>
<g id="a_node5"><a xlink:href="namespacekoala_1_1utils.html#a1d3620df245d23fea05928298cabc2ac" target="_top" xlink:title=" ">
<polygon fill="white" stroke="black" points="911,-189.5 911,-219.5 1005,-219.5 1005,-189.5 911,-189.5"/>
<text text-anchor="start" x="919" y="-207.5" font-family="Helvetica,sans-Serif" font-size="10.00">koala.utils.resolve</text>
<text text-anchor="middle" x="958" y="-196.5" font-family="Helvetica,sans-Serif" font-size="10.00">_range</text>
</a>
</g>
</g>
<!-- Node239&#45;&gt;Node243 -->
<g id="edge4" class="edge"><title>Node239&#45;&gt;Node243</title>
<path fill="none" stroke="midnightblue" d="M1069.39,-236.143C1049.34,-230.394 1025.46,-223.55 1005.05,-217.701"/>
<polygon fill="midnightblue" stroke="midnightblue" points="1068.62,-239.562 1079.19,-238.953 1070.54,-232.833 1068.62,-239.562"/>
</g>
<!-- Node259 -->
<g id="node21" class="node"><title>Node259</title>
<g id="a_node21"><a xlink:href="namespacekoala_1_1utils.html#a0f71e1a528bfb85e982246f961151507" target="_top" xlink:title=" ">
<polygon fill="white" stroke="black" points="897,-91 897,-110 1019,-110 1019,-91 897,-91"/>
<text text-anchor="middle" x="958" y="-98" font-family="Helvetica,sans-Serif" font-size="10.00">koala.utils.index2addres</text>
</a>
</g>
</g>
<!-- Node239&#45;&gt;Node259 -->
<g id="edge23" class="edge"><title>Node239&#45;&gt;Node259</title>
<path fill="none" stroke="midnightblue" d="M1095.03,-231.651C1062.67,-200.46 994.431,-134.661 968.909,-110.054"/>
<polygon fill="midnightblue" stroke="midnightblue" points="1092.8,-234.368 1102.43,-238.789 1097.66,-229.329 1092.8,-234.368"/>
</g>
<!-- Node243&#45;&gt;Node241 -->
<g id="edge15" class="edge"><title>Node243&#45;&gt;Node241</title>
<path fill="none" stroke="midnightblue" d="M901.71,-220.495C897.133,-223.074 892.809,-226.056 889,-229.5 861.872,-254.031 881.691,-280.818 853,-303.5 843.036,-311.377 830.459,-316.131 818.057,-318.962"/>
<polygon fill="midnightblue" stroke="midnightblue" points="903.347,-223.59 910.756,-216.017 900.242,-217.317 903.347,-223.59"/>
</g>
<!-- Node244 -->
<g id="node6" class="node"><title>Node244</title>
<g id="a_node6"><a xlink:href="namespacekoala_1_1ast.html#aa55446c8aa764f09775f006ee775ec7b" target="_top" xlink:title=" ">
<polygon fill="white" stroke="black" points="713.5,-263.5 713.5,-293.5 820.5,-293.5 820.5,-263.5 713.5,-263.5"/>
<text text-anchor="start" x="721.5" y="-281.5" font-family="Helvetica,sans-Serif" font-size="10.00">koala.ast.graph_from</text>
<text text-anchor="middle" x="767" y="-270.5" font-family="Helvetica,sans-Serif" font-size="10.00">_seeds</text>
</a>
</g>
</g>
<!-- Node243&#45;&gt;Node244 -->
<g id="edge5" class="edge"><title>Node243&#45;&gt;Node244</title>
<path fill="none" stroke="midnightblue" d="M901.5,-223.551C897.212,-225.431 893,-227.419 889,-229.5 871.718,-238.489 870.615,-246.184 853,-254.5 842.878,-259.279 831.616,-263.284 820.689,-266.568"/>
<polygon fill="midnightblue" stroke="midnightblue" points="903.069,-226.689 910.953,-219.611 900.376,-220.228 903.069,-226.689"/>
</g>
<!-- Node252 -->
<g id="node14" class="node"><title>Node252</title>
<g id="a_node14"><a xlink:href="classkoala_1_1ast_1_1astnodes_1_1_range_node.html#ab02ae79ae481ec81f309633ac5a99606" target="_top" xlink:title=" ">
<polygon fill="white" stroke="black" points="702,-214.5 702,-244.5 832,-244.5 832,-214.5 702,-214.5"/>
<text text-anchor="start" x="710" y="-232.5" font-family="Helvetica,sans-Serif" font-size="10.00">koala.ast.astnodes.Range</text>
<text text-anchor="middle" x="767" y="-221.5" font-family="Helvetica,sans-Serif" font-size="10.00">Node.get_cells</text>
</a>
</g>
</g>
<!-- Node243&#45;&gt;Node252 -->
<g id="edge13" class="edge"><title>Node243&#45;&gt;Node252</title>
<path fill="none" stroke="midnightblue" d="M900.798,-211.934C879.266,-214.782 854.542,-218.053 832.308,-220.994"/>
<polygon fill="midnightblue" stroke="midnightblue" points="901.311,-215.397 910.765,-210.616 900.393,-208.457 901.311,-215.397"/>
</g>
<!-- Node253 -->
<g id="node15" class="node"><title>Node253</title>
<g id="a_node15"><a xlink:href="classkoala_1_1_cell_1_1_cell.html#ab1fa079614840ca386e0970338c2d8f0" target="_top" xlink:title=" ">
<polygon fill="white" stroke="black" points="714,-165.5 714,-195.5 820,-195.5 820,-165.5 714,-165.5"/>
<text text-anchor="start" x="722" y="-183.5" font-family="Helvetica,sans-Serif" font-size="10.00">koala.Cell.Cell.make</text>
<text text-anchor="middle" x="767" y="-172.5" font-family="Helvetica,sans-Serif" font-size="10.00">_cells</text>
</a>
</g>
</g>
<!-- Node243&#45;&gt;Node253 -->
<g id="edge14" class="edge"><title>Node243&#45;&gt;Node253</title>
<path fill="none" stroke="midnightblue" d="M900.839,-197.368C875.257,-194.12 845.161,-190.298 820.09,-187.115"/>
<polygon fill="midnightblue" stroke="midnightblue" points="900.404,-200.841 910.765,-198.629 901.286,-193.897 900.404,-200.841"/>
</g>
<!-- Node254 -->
<g id="node16" class="node"><title>Node254</title>
<g id="a_node16"><a xlink:href="classkoala_1_1_range_1_1_range_core.html#ac49ba3473e8bcd9585eedd4fa9603bf2" target="_top" xlink:title=" ">
<polygon fill="white" stroke="black" points="704.5,-116.5 704.5,-146.5 829.5,-146.5 829.5,-116.5 704.5,-116.5"/>
<text text-anchor="start" x="712.5" y="-134.5" font-family="Helvetica,sans-Serif" font-size="10.00">koala.Range.RangeCore.</text>
<text text-anchor="middle" x="767" y="-123.5" font-family="Helvetica,sans-Serif" font-size="10.00">__init__</text>
</a>
</g>
</g>
<!-- Node243&#45;&gt;Node254 -->
<g id="edge16" class="edge"><title>Node243&#45;&gt;Node254</title>
<path fill="none" stroke="midnightblue" d="M919.278,-184.882C899.815,-175.236 875.493,-163.909 853,-155.5 844.526,-152.332 835.443,-149.35 826.482,-146.635"/>
<polygon fill="midnightblue" stroke="midnightblue" points="917.905,-188.109 928.413,-189.462 921.042,-181.852 917.905,-188.109"/>
</g>
<!-- Node255 -->
<g id="node17" class="node"><title>Node255</title>
<g id="a_node17"><a xlink:href="classkoala_1_1_spreadsheet_1_1_spreadsheet.html#aa23818eb03be8a82c0969bd5338fdf2d" target="_top" xlink:title=" ">
<polygon fill="white" stroke="black" points="681,-49.5 681,-79.5 853,-79.5 853,-49.5 681,-49.5"/>
<text text-anchor="start" x="689" y="-67.5" font-family="Helvetica,sans-Serif" font-size="10.00">koala.Spreadsheet.Spreadsheet.get</text>
<text text-anchor="middle" x="767" y="-56.5" font-family="Helvetica,sans-Serif" font-size="10.00">_arguments_from_ast</text>
</a>
</g>
</g>
<!-- Node243&#45;&gt;Node255 -->
<g id="edge17" class="edge"><title>Node243&#45;&gt;Node255</title>
<path fill="none" stroke="midnightblue" d="M936.7,-181.819C916.834,-160.53 884.975,-128.72 853,-106.5 837.996,-96.0735 820.023,-86.7926 804.477,-79.624"/>
<polygon fill="midnightblue" stroke="midnightblue" points="934.353,-184.437 943.703,-189.421 939.502,-179.695 934.353,-184.437"/>
</g>
<!-- Node245 -->
<g id="node7" class="node"><title>Node245</title>
<g id="a_node7"><a xlink:href="classkoala_1_1_spreadsheet_1_1_spreadsheet.html#a80d6ad19a13ccd80ca76f3f94975f7b5" target="_top" xlink:title=" ">
<polygon fill="white" stroke="black" points="461,-307.5 461,-337.5 635,-337.5 635,-307.5 461,-307.5"/>
<text text-anchor="start" x="469" y="-325.5" font-family="Helvetica,sans-Serif" font-size="10.00">koala.Spreadsheet.Spreadsheet.gen</text>
<text text-anchor="middle" x="548" y="-314.5" font-family="Helvetica,sans-Serif" font-size="10.00">_graph</text>
</a>
</g>
</g>
<!-- Node244&#45;&gt;Node245 -->
<g id="edge6" class="edge"><title>Node244&#45;&gt;Node245</title>
<path fill="none" stroke="midnightblue" d="M703.364,-291.2C678.318,-296.279 649.277,-302.167 623.186,-307.458"/>
<polygon fill="midnightblue" stroke="midnightblue" points="704.365,-294.569 713.47,-289.151 702.974,-287.708 704.365,-294.569"/>
</g>
<!-- Node246 -->
<g id="node8" class="node"><title>Node246</title>
<g id="a_node8"><a xlink:href="classkoala_1_1_spreadsheet_1_1_spreadsheet.html#affd17089825c4b3391c4d6b9b702209c" target="_top" xlink:title=" ">
<polygon fill="white" stroke="black" points="451,-269 451,-288 645,-288 645,-269 451,-269"/>
<text text-anchor="middle" x="548" y="-276" font-family="Helvetica,sans-Serif" font-size="10.00">koala.Spreadsheet.Spreadsheet.cell_add</text>
</a>
</g>
</g>
<!-- Node244&#45;&gt;Node246 -->
<g id="edge7" class="edge"><title>Node244&#45;&gt;Node246</title>
<path fill="none" stroke="midnightblue" d="M703.321,-278.5C685.146,-278.5 664.871,-278.5 645.147,-278.5"/>
<polygon fill="midnightblue" stroke="midnightblue" points="703.47,-282 713.47,-278.5 703.47,-275 703.47,-282"/>
</g>
<!-- Node250 -->
<g id="node12" class="node"><title>Node250</title>
<g id="a_node12"><a xlink:href="classkoala_1_1_spreadsheet_1_1_spreadsheet.html#aa7bdaffc24c26fbf18d5b752b7e49df2" target="_top" xlink:title=" ">
<polygon fill="white" stroke="black" points="461.5,-217.5 461.5,-247.5 634.5,-247.5 634.5,-217.5 461.5,-217.5"/>
<text text-anchor="start" x="469.5" y="-235.5" font-family="Helvetica,sans-Serif" font-size="10.00">koala.Spreadsheet.Spreadsheet.cell</text>
<text text-anchor="middle" x="548" y="-224.5" font-family="Helvetica,sans-Serif" font-size="10.00">_set_formula</text>
</a>
</g>
</g>
<!-- Node244&#45;&gt;Node250 -->
<g id="edge11" class="edge"><title>Node244&#45;&gt;Node250</title>
<path fill="none" stroke="midnightblue" d="M703.673,-265.288C677.503,-259.74 646.928,-253.259 619.904,-247.53"/>
<polygon fill="midnightblue" stroke="midnightblue" points="702.962,-268.715 713.47,-267.365 704.414,-261.867 702.962,-268.715"/>
</g>
<!-- Node247 -->
<g id="node9" class="node"><title>Node247</title>
<g id="a_node9"><a xlink:href="classkoala_1_1_spreadsheet_1_1_spreadsheet.html#a7481e9d34fe1d4347b3b6eed3462b545" target="_top" xlink:title=" ">
<polygon fill="white" stroke="black" points="221,-313 221,-332 415,-332 415,-313 221,-313"/>
<text text-anchor="middle" x="318" y="-320" font-family="Helvetica,sans-Serif" font-size="10.00">koala.Spreadsheet.Spreadsheet.add_cell</text>
</a>
</g>
</g>
<!-- Node246&#45;&gt;Node247 -->
<g id="edge8" class="edge"><title>Node246&#45;&gt;Node247</title>
<path fill="none" stroke="midnightblue" d="M487.366,-290.008C450.335,-297.155 403.311,-306.23 368.376,-312.971"/>
<polygon fill="midnightblue" stroke="midnightblue" points="488.372,-293.379 497.527,-288.047 487.045,-286.506 488.372,-293.379"/>
</g>
<!-- Node248 -->
<g id="node10" class="node"><title>Node248</title>
<g id="a_node10"><a xlink:href="classkoala_1_1_spreadsheet_1_1_spreadsheet.html#a2f695c5a3bc3f8812609bd2ba4ebb784" target="_top" xlink:title=" ">
<polygon fill="white" stroke="black" points="231.5,-263.5 231.5,-293.5 404.5,-293.5 404.5,-263.5 231.5,-263.5"/>
<text text-anchor="start" x="239.5" y="-281.5" font-family="Helvetica,sans-Serif" font-size="10.00">koala.Spreadsheet.Spreadsheet.cell</text>
<text text-anchor="middle" x="318" y="-270.5" font-family="Helvetica,sans-Serif" font-size="10.00">_set_value</text>
</a>
</g>
</g>
<!-- Node246&#45;&gt;Node248 -->
<g id="edge9" class="edge"><title>Node246&#45;&gt;Node248</title>
<path fill="none" stroke="midnightblue" d="M440.853,-278.5C428.764,-278.5 416.557,-278.5 404.778,-278.5"/>
<polygon fill="midnightblue" stroke="midnightblue" points="440.968,-282 450.968,-278.5 440.968,-275 440.968,-282"/>
</g>
<!-- Node249 -->
<g id="node11" class="node"><title>Node249</title>
<g id="a_node11"><a xlink:href="classkoala_1_1_spreadsheet_1_1_spreadsheet.html#a1330ffeda88c7bc6905a00e80203eb78" target="_top" xlink:title=" ">
<polygon fill="white" stroke="black" points="6.5,-263.5 6.5,-293.5 178.5,-293.5 178.5,-263.5 6.5,-263.5"/>
<text text-anchor="start" x="14.5" y="-281.5" font-family="Helvetica,sans-Serif" font-size="10.00">koala.Spreadsheet.Spreadsheet.set</text>
<text text-anchor="middle" x="92.5" y="-270.5" font-family="Helvetica,sans-Serif" font-size="10.00">_value</text>
</a>
</g>
</g>
<!-- Node248&#45;&gt;Node249 -->
<g id="edge10" class="edge"><title>Node248&#45;&gt;Node249</title>
<path fill="none" stroke="midnightblue" d="M221.043,-278.5C206.955,-278.5 192.525,-278.5 178.673,-278.5"/>
<polygon fill="midnightblue" stroke="midnightblue" points="221.228,-282 231.228,-278.5 221.228,-275 221.228,-282"/>
</g>
<!-- Node251 -->
<g id="node13" class="node"><title>Node251</title>
<g id="a_node13"><a xlink:href="classkoala_1_1_spreadsheet_1_1_spreadsheet.html#af50724d01ff5b3ae09ecc1bdfbfb0fed" target="_top" xlink:title=" ">
<polygon fill="white" stroke="black" points="232,-214.5 232,-244.5 404,-244.5 404,-214.5 232,-214.5"/>
<text text-anchor="start" x="240" y="-232.5" font-family="Helvetica,sans-Serif" font-size="10.00">koala.Spreadsheet.Spreadsheet.set</text>
<text text-anchor="middle" x="318" y="-221.5" font-family="Helvetica,sans-Serif" font-size="10.00">_formula</text>
</a>
</g>
</g>
<!-- Node250&#45;&gt;Node251 -->
<g id="edge12" class="edge"><title>Node250&#45;&gt;Node251</title>
<path fill="none" stroke="midnightblue" d="M451.278,-231.241C435.674,-231.035 419.6,-230.824 404.269,-230.622"/>
<polygon fill="midnightblue" stroke="midnightblue" points="451.407,-234.742 461.453,-231.374 451.499,-227.743 451.407,-234.742"/>
</g>
<!-- Node255&#45;&gt;Node255 -->
<g id="edge18" class="edge"><title>Node255&#45;&gt;Node255</title>
<path fill="none" stroke="midnightblue" d="M800.761,-89.9579C796.571,-94.679 785.317,-98 767,-98 736.941,-98 725.904,-89.0566 733.889,-79.659"/>
<polygon fill="midnightblue" stroke="midnightblue" points="804.234,-89.4189 800.111,-79.659 797.248,-89.8594 804.234,-89.4189"/>
</g>
<!-- Node256 -->
<g id="node18" class="node"><title>Node256</title>
<g id="a_node18"><a xlink:href="classkoala_1_1_spreadsheet_1_1_spreadsheet.html#a8ebd4153a8499a4bf7fdf0bde89f12f0" target="_top" xlink:title=" ">
<polygon fill="white" stroke="black" points="462,-49.5 462,-79.5 634,-79.5 634,-49.5 462,-49.5"/>
<text text-anchor="start" x="470" y="-67.5" font-family="Helvetica,sans-Serif" font-size="10.00">koala.Spreadsheet.Spreadsheet.get</text>
<text text-anchor="middle" x="548" y="-56.5" font-family="Helvetica,sans-Serif" font-size="10.00">_pointer_arguments_from_ast</text>
</a>
</g>
</g>
<!-- Node255&#45;&gt;Node256 -->
<g id="edge19" class="edge"><title>Node255&#45;&gt;Node256</title>
<path fill="none" stroke="midnightblue" d="M670.727,-64.5C658.586,-64.5 646.221,-64.5 634.252,-64.5"/>
<polygon fill="midnightblue" stroke="midnightblue" points="670.859,-68.0001 680.859,-64.5 670.859,-61.0001 670.859,-68.0001"/>
</g>
<!-- Node256&#45;&gt;Node256 -->
<g id="edge22" class="edge"><title>Node256&#45;&gt;Node256</title>
<path fill="none" stroke="midnightblue" d="M586.736,-89.9579C581.928,-94.679 569.016,-98 548,-98 513.512,-98 500.848,-89.0566 510.009,-79.659"/>
<polygon fill="midnightblue" stroke="midnightblue" points="590.203,-89.3804 585.991,-79.659 583.222,-89.8855 590.203,-89.3804"/>
</g>
<!-- Node257 -->
<g id="node19" class="node"><title>Node257</title>
<g id="a_node19"><a xlink:href="classkoala_1_1_spreadsheet_1_1_spreadsheet.html#a6f233266d3e106c54dc37886dba18e9a" target="_top" xlink:title=" ">
<polygon fill="white" stroke="black" points="231.5,-49.5 231.5,-79.5 404.5,-79.5 404.5,-49.5 231.5,-49.5"/>
<text text-anchor="start" x="239.5" y="-67.5" font-family="Helvetica,sans-Serif" font-size="10.00">koala.Spreadsheet.Spreadsheet.find</text>
<text text-anchor="middle" x="318" y="-56.5" font-family="Helvetica,sans-Serif" font-size="10.00">_pointer_arguments</text>
</a>
</g>
</g>
<!-- Node256&#45;&gt;Node257 -->
<g id="edge20" class="edge"><title>Node256&#45;&gt;Node257</title>
<path fill="none" stroke="midnightblue" d="M451.661,-64.5C436.144,-64.5 420.152,-64.5 404.879,-64.5"/>
<polygon fill="midnightblue" stroke="midnightblue" points="451.777,-68.0001 461.777,-64.5 451.777,-61.0001 451.777,-68.0001"/>
</g>
<!-- Node258 -->
<g id="node20" class="node"><title>Node258</title>
<g id="a_node20"><a xlink:href="classkoala_1_1_spreadsheet_1_1_spreadsheet.html#a988fc1ddf090bf9746135ce759907a5a" target="_top" xlink:title=" ">
<polygon fill="white" stroke="black" points="0,-49.5 0,-79.5 185,-79.5 185,-49.5 0,-49.5"/>
<text text-anchor="start" x="8" y="-67.5" font-family="Helvetica,sans-Serif" font-size="10.00">koala.Spreadsheet.Spreadsheet.detect</text>
<text text-anchor="middle" x="92.5" y="-56.5" font-family="Helvetica,sans-Serif" font-size="10.00">_alive</text>
</a>
</g>
</g>
<!-- Node257&#45;&gt;Node258 -->
<g id="edge21" class="edge"><title>Node257&#45;&gt;Node258</title>
<path fill="none" stroke="midnightblue" d="M220.932,-64.5C209.13,-64.5 197.091,-64.5 185.353,-64.5"/>
<polygon fill="midnightblue" stroke="midnightblue" points="221.228,-68.0001 231.228,-64.5 221.228,-61.0001 221.228,-68.0001"/>
</g>
<!-- Node260 -->
<g id="node22" class="node"><title>Node260</title>
<g id="a_node22"><a xlink:href="namespacekoala_1_1utils.html#ad9c798e1b08d19581bc20264bea1f11f" target="_top" xlink:title=" ">
<polygon fill="white" stroke="black" points="714,-0.5 714,-30.5 820,-30.5 820,-0.5 714,-0.5"/>
<text text-anchor="start" x="722" y="-18.5" font-family="Helvetica,sans-Serif" font-size="10.00">koala.utils.get_linest</text>
<text text-anchor="middle" x="767" y="-7.5" font-family="Helvetica,sans-Serif" font-size="10.00">_degree</text>
</a>
</g>
</g>
<!-- Node259&#45;&gt;Node260 -->
<g id="edge24" class="edge"><title>Node259&#45;&gt;Node260</title>
<path fill="none" stroke="midnightblue" d="M934.823,-85.232C914.342,-71.6911 882.691,-52.152 853,-39.5 842.702,-35.1118 831.366,-31.2748 820.42,-28.0313"/>
<polygon fill="midnightblue" stroke="midnightblue" points="932.883,-88.1457 943.138,-90.8076 936.782,-82.3316 932.883,-88.1457"/>
</g>
</g>
</svg>
