<?xml version="1.0" encoding="UTF-8" standalone="no"?>
<!DOCTYPE svg PUBLIC "-//W3C//DTD SVG 1.1//EN"
 "http://www.w3.org/Graphics/SVG/1.1/DTD/svg11.dtd">
<!-- Generated by graphviz version 2.38.0 (20140413.2041)
 -->
<!-- Title: koala.excellib.xsum Pages: 1 -->
<svg width="386pt" height="39pt"
 viewBox="0.00 0.00 386.00 39.00" xmlns="http://www.w3.org/2000/svg" xmlns:xlink="http://www.w3.org/1999/xlink">
<g id="graph0" class="graph" transform="scale(1 1) rotate(0) translate(4 35)">
<title>koala.excellib.xsum</title>
<polygon fill="white" stroke="none" points="-4,4 -4,-35 382,-35 382,4 -4,4"/>
<!-- Node170 -->
<g id="node1" class="node"><title>Node170</title>
<g id="a_node1"><a xlink:title=" ">
<polygon fill="#bfbfbf" stroke="black" points="0,-6 0,-25 103,-25 103,-6 0,-6"/>
<text text-anchor="middle" x="51.5" y="-13" font-family="Helvetica,sans-Serif" font-size="10.00">koala.excellib.xsum</text>
</a>
</g>
</g>
<!-- Node171 -->
<g id="node2" class="node"><title>Node171</title>
<g id="a_node2"><a xlink:href="namespacekoala_1_1utils.html#a5887e70dda0744f50150e674d5127941" target="_top" xlink:title=" ">
<polygon fill="white" stroke="black" points="139,-0.5 139,-30.5 233,-30.5 233,-0.5 139,-0.5"/>
<text text-anchor="start" x="147" y="-18.5" font-family="Helvetica,sans-Serif" font-size="10.00">koala.utils.extract</text>
<text text-anchor="middle" x="186" y="-7.5" font-family="Helvetica,sans-Serif" font-size="10.00">_numeric_values</text>
</a>
</g>
</g>
<!-- Node170&#45;&gt;Node171 -->
<g id="edge1" class="edge"><title>Node170&#45;&gt;Node171</title>
<path fill="none" stroke="midnightblue" d="M103.349,-15.5C111.65,-15.5 120.293,-15.5 128.717,-15.5"/>
<polygon fill="midnightblue" stroke="midnightblue" points="128.844,-19.0001 138.844,-15.5 128.844,-12.0001 128.844,-19.0001"/>
</g>
<!-- Node172 -->
<g id="node3" class="node"><title>Node172</title>
<g id="a_node3"><a xlink:href="namespacekoala_1_1utils.html#af016160edea2b46cb26db3ed307c9648" target="_top" xlink:title=" ">
<polygon fill="white" stroke="black" points="269,-6 269,-25 378,-25 378,-6 269,-6"/>
<text text-anchor="middle" x="323.5" y="-13" font-family="Helvetica,sans-Serif" font-size="10.00">koala.utils.is_number</text>
</a>
</g>
</g>
<!-- Node171&#45;&gt;Node172 -->
<g id="edge2" class="edge"><title>Node171&#45;&gt;Node172</title>
<path fill="none" stroke="midnightblue" d="M233.252,-15.5C241.518,-15.5 250.26,-15.5 258.911,-15.5"/>
<polygon fill="midnightblue" stroke="midnightblue" points="258.991,-19.0001 268.991,-15.5 258.991,-12.0001 258.991,-19.0001"/>
</g>
</g>
</svg>
