<?xml version="1.0" encoding="UTF-8" standalone="no"?>
<!DOCTYPE svg PUBLIC "-//W3C//DTD SVG 1.1//EN"
 "http://www.w3.org/Graphics/SVG/1.1/DTD/svg11.dtd">
<!-- Generated by graphviz version 2.38.0 (20140413.2041)
 -->
<!-- Title: koala.utils.is_leap_year Pages: 1 -->
<svg width="731pt" height="180pt"
 viewBox="0.00 0.00 731.00 180.00" xmlns="http://www.w3.org/2000/svg" xmlns:xlink="http://www.w3.org/1999/xlink">
<g id="graph0" class="graph" transform="scale(1 1) rotate(0) translate(4 176)">
<title>koala.utils.is_leap_year</title>
<polygon fill="white" stroke="none" points="-4,4 -4,-176 727,-176 727,4 -4,4"/>
<!-- Node129 -->
<g id="node1" class="node"><title>Node129</title>
<g id="a_node1"><a xlink:title=" ">
<polygon fill="#bfbfbf" stroke="black" points="604,-101.5 604,-120.5 723,-120.5 723,-101.5 604,-101.5"/>
<text text-anchor="middle" x="663.5" y="-108.5" font-family="Helvetica,sans-Serif" font-size="10.00">koala.utils.is_leap_year</text>
</a>
</g>
</g>
<!-- Node130 -->
<g id="node2" class="node"><title>Node130</title>
<g id="a_node2"><a xlink:href="namespacekoala_1_1excellib.html#a298991fcfa2174f09d7d5627a1e50b79" target="_top" xlink:title=" ">
<polygon fill="white" stroke="black" points="0,-152.5 0,-171.5 113,-171.5 113,-152.5 0,-152.5"/>
<text text-anchor="middle" x="56.5" y="-159.5" font-family="Helvetica,sans-Serif" font-size="10.00">koala.excellib.yearfrac</text>
</a>
</g>
</g>
<!-- Node129&#45;&gt;Node130 -->
<g id="edge1" class="edge"><title>Node129&#45;&gt;Node130</title>
<path fill="none" stroke="midnightblue" d="M602.631,-122.327C591.156,-124.34 579.222,-126.326 568,-128 433.871,-148.014 400.377,-155.986 265,-164 213.535,-167.047 200.552,-164.563 149,-164 137.402,-163.873 124.978,-163.656 113.142,-163.411"/>
<polygon fill="midnightblue" stroke="midnightblue" points="603.336,-125.756 612.568,-120.558 602.109,-118.865 603.336,-125.756"/>
</g>
<!-- Node131 -->
<g id="node3" class="node"><title>Node131</title>
<g id="a_node3"><a xlink:href="namespacekoala_1_1utils.html#a6ca2acad4db5fefe21c0941c1622f5e4" target="_top" xlink:title=" ">
<polygon fill="white" stroke="black" points="467,-74 467,-104 568,-104 568,-74 467,-74"/>
<text text-anchor="start" x="475" y="-92" font-family="Helvetica,sans-Serif" font-size="10.00">koala.utils.get_max</text>
<text text-anchor="middle" x="517.5" y="-81" font-family="Helvetica,sans-Serif" font-size="10.00">_days_in_month</text>
</a>
</g>
</g>
<!-- Node129&#45;&gt;Node131 -->
<g id="edge2" class="edge"><title>Node129&#45;&gt;Node131</title>
<path fill="none" stroke="midnightblue" d="M593.854,-100.512C585.221,-99.1934 576.523,-97.8646 568.258,-96.602"/>
<polygon fill="midnightblue" stroke="midnightblue" points="593.516,-104.001 603.93,-102.052 594.573,-97.0816 593.516,-104.001"/>
</g>
<!-- Node132 -->
<g id="node4" class="node"><title>Node132</title>
<g id="a_node4"><a xlink:href="namespacekoala_1_1utils.html#a6a29ca0b64c84fe42f7d41190820477c" target="_top" xlink:title=" ">
<polygon fill="white" stroke="black" points="301,-35.5 301,-54.5 431,-54.5 431,-35.5 301,-35.5"/>
<text text-anchor="middle" x="366" y="-42.5" font-family="Helvetica,sans-Serif" font-size="10.00">koala.utils.normalize_year</text>
</a>
</g>
</g>
<!-- Node129&#45;&gt;Node132 -->
<g id="edge12" class="edge"><title>Node129&#45;&gt;Node132</title>
<path fill="none" stroke="midnightblue" d="M638.854,-96.1691C620.315,-85.3161 593.475,-71.2671 568,-64 523.339,-51.2595 471.063,-46.6175 431.02,-45.1039"/>
<polygon fill="midnightblue" stroke="midnightblue" points="637.117,-99.2082 647.493,-101.348 640.716,-93.2045 637.117,-99.2082"/>
</g>
<!-- Node135 -->
<g id="node7" class="node"><title>Node135</title>
<g id="a_node7"><a xlink:href="namespacekoala_1_1utils.html#a37fde0505838c8954ad814bd03f331c3" target="_top" xlink:title=" ">
<polygon fill="white" stroke="black" points="305,-95.5 305,-114.5 427,-114.5 427,-95.5 305,-95.5"/>
<text text-anchor="middle" x="366" y="-102.5" font-family="Helvetica,sans-Serif" font-size="10.00">koala.utils.date_from_int</text>
</a>
</g>
</g>
<!-- Node129&#45;&gt;Node135 -->
<g id="edge13" class="edge"><title>Node129&#45;&gt;Node135</title>
<path fill="none" stroke="midnightblue" d="M593.688,-112.626C585.04,-112.781 576.315,-112.912 568,-113 523.114,-113.475 511.853,-114.791 467,-113 454.122,-112.486 440.333,-111.6 427.237,-110.601"/>
<polygon fill="midnightblue" stroke="midnightblue" points="593.843,-116.124 603.775,-112.436 593.711,-109.125 593.843,-116.124"/>
</g>
<!-- Node131&#45;&gt;Node132 -->
<g id="edge3" class="edge"><title>Node131&#45;&gt;Node132</title>
<path fill="none" stroke="midnightblue" d="M456.964,-71.4778C437.421,-65.7258 416.428,-59.5474 399.641,-54.6067"/>
<polygon fill="midnightblue" stroke="midnightblue" points="456.137,-74.8828 466.719,-74.3486 458.114,-68.1676 456.137,-74.8828"/>
</g>
<!-- Node131&#45;&gt;Node135 -->
<g id="edge7" class="edge"><title>Node131&#45;&gt;Node135</title>
<path fill="none" stroke="midnightblue" d="M456.744,-95.3953C447.022,-96.4358 436.946,-97.5141 427.213,-98.5558"/>
<polygon fill="midnightblue" stroke="midnightblue" points="457.148,-98.8721 466.719,-94.3278 456.403,-91.9119 457.148,-98.8721"/>
</g>
<!-- Node133 -->
<g id="node5" class="node"><title>Node133</title>
<g id="a_node5"><a xlink:href="namespacekoala_1_1excellib.html#ac993fb561979c98ece430fb6d643ce17" target="_top" xlink:title=" ">
<polygon fill="white" stroke="black" points="158,-0.5 158,-19.5 256,-19.5 256,-0.5 158,-0.5"/>
<text text-anchor="middle" x="207" y="-7.5" font-family="Helvetica,sans-Serif" font-size="10.00">koala.excellib.date</text>
</a>
</g>
</g>
<!-- Node132&#45;&gt;Node133 -->
<g id="edge4" class="edge"><title>Node132&#45;&gt;Node133</title>
<path fill="none" stroke="midnightblue" d="M312.222,-33.2342C292.256,-28.7831 269.794,-23.7757 250.849,-19.5523"/>
<polygon fill="midnightblue" stroke="midnightblue" points="311.577,-36.6763 322.099,-35.4361 313.1,-29.844 311.577,-36.6763"/>
</g>
<!-- Node133&#45;&gt;Node130 -->
<g id="edge5" class="edge"><title>Node133&#45;&gt;Node130</title>
<path fill="none" stroke="midnightblue" d="M156.884,-23.9496C154.117,-25.4689 151.463,-27.1471 149,-29 103.087,-63.5406 72.0319,-128.049 61.4808,-152.38"/>
<polygon fill="midnightblue" stroke="midnightblue" points="158.481,-27.066 166.018,-19.6193 155.482,-20.7409 158.481,-27.066"/>
</g>
<!-- Node134 -->
<g id="node6" class="node"><title>Node134</title>
<g id="a_node6"><a xlink:href="namespacekoala_1_1excellib.html#aef0e50530221c9b41d2ec2093f3280e3" target="_top" xlink:title=" ">
<polygon fill="white" stroke="black" points="5,-0.5 5,-19.5 108,-19.5 108,-0.5 5,-0.5"/>
<text text-anchor="middle" x="56.5" y="-7.5" font-family="Helvetica,sans-Serif" font-size="10.00">koala.excellib.today</text>
</a>
</g>
</g>
<!-- Node133&#45;&gt;Node134 -->
<g id="edge6" class="edge"><title>Node133&#45;&gt;Node134</title>
<path fill="none" stroke="midnightblue" d="M147.5,-10C134.45,-10 120.72,-10 108.025,-10"/>
<polygon fill="midnightblue" stroke="midnightblue" points="147.786,-13.5001 157.786,-10 147.786,-6.5001 147.786,-13.5001"/>
</g>
<!-- Node135&#45;&gt;Node130 -->
<g id="edge11" class="edge"><title>Node135&#45;&gt;Node130</title>
<path fill="none" stroke="midnightblue" d="M335.541,-118.627C315.966,-127.068 289.458,-137.345 265,-143 214.423,-154.694 155.349,-159.248 113.195,-160.992"/>
<polygon fill="midnightblue" stroke="midnightblue" points="337.085,-121.771 344.825,-114.536 334.263,-115.365 337.085,-121.771"/>
</g>
<!-- Node136 -->
<g id="node8" class="node"><title>Node136</title>
<g id="a_node8"><a xlink:href="namespacekoala_1_1excellib.html#ae4d8e7957ed6e634cb78fbbfa9cc5898" target="_top" xlink:title=" ">
<polygon fill="white" stroke="black" points="149,-38.5 149,-57.5 265,-57.5 265,-38.5 149,-38.5"/>
<text text-anchor="middle" x="207" y="-45.5" font-family="Helvetica,sans-Serif" font-size="10.00">koala.excellib.eomonth</text>
</a>
</g>
</g>
<!-- Node135&#45;&gt;Node136 -->
<g id="edge8" class="edge"><title>Node135&#45;&gt;Node136</title>
<path fill="none" stroke="midnightblue" d="M330.895,-91.6394C311.624,-84.1908 287.048,-74.8599 265,-67 256.059,-63.8125 246.272,-60.4903 237.37,-57.532"/>
<polygon fill="midnightblue" stroke="midnightblue" points="329.859,-94.9914 340.448,-95.3451 332.39,-88.4653 329.859,-94.9914"/>
</g>
<!-- Node137 -->
<g id="node9" class="node"><title>Node137</title>
<g id="a_node9"><a xlink:href="namespacekoala_1_1excellib.html#ae09c8176bd57c233c6d55f6644c15c65" target="_top" xlink:title=" ">
<polygon fill="white" stroke="black" points="158,-114.5 158,-133.5 256,-133.5 256,-114.5 158,-114.5"/>
<text text-anchor="middle" x="207" y="-121.5" font-family="Helvetica,sans-Serif" font-size="10.00">koala.excellib.year</text>
</a>
</g>
</g>
<!-- Node135&#45;&gt;Node137 -->
<g id="edge9" class="edge"><title>Node135&#45;&gt;Node137</title>
<path fill="none" stroke="midnightblue" d="M294.453,-113.538C281.504,-115.105 268.263,-116.707 256.159,-118.172"/>
<polygon fill="midnightblue" stroke="midnightblue" points="295.242,-116.968 304.749,-112.292 294.401,-110.018 295.242,-116.968"/>
</g>
<!-- Node138 -->
<g id="node10" class="node"><title>Node138</title>
<g id="a_node10"><a xlink:href="namespacekoala_1_1excellib.html#a66569fac1521a5ac9a579cbbb1ac3138" target="_top" xlink:title=" ">
<polygon fill="white" stroke="black" points="154,-76.5 154,-95.5 260,-95.5 260,-76.5 154,-76.5"/>
<text text-anchor="middle" x="207" y="-83.5" font-family="Helvetica,sans-Serif" font-size="10.00">koala.excellib.month</text>
</a>
</g>
</g>
<!-- Node135&#45;&gt;Node138 -->
<g id="edge10" class="edge"><title>Node135&#45;&gt;Node138</title>
<path fill="none" stroke="midnightblue" d="M294.644,-96.4855C283.045,-95.0819 271.207,-93.6492 260.156,-92.3119"/>
<polygon fill="midnightblue" stroke="midnightblue" points="294.401,-99.9816 304.749,-97.7084 295.242,-93.0323 294.401,-99.9816"/>
</g>
</g>
</svg>
