<?xml version="1.0" encoding="UTF-8" standalone="no"?>
<!DOCTYPE svg PUBLIC "-//W3C//DTD SVG 1.1//EN"
 "http://www.w3.org/Graphics/SVG/1.1/DTD/svg11.dtd">
<!-- Generated by graphviz version 2.38.0 (20140413.2041)
 -->
<!-- Title: koala.excellib.today Pages: 1 -->
<svg width="848pt" height="72pt"
 viewBox="0.00 0.00 848.00 71.50" xmlns="http://www.w3.org/2000/svg" xmlns:xlink="http://www.w3.org/1999/xlink">
<g id="graph0" class="graph" transform="scale(1 1) rotate(0) translate(4 67.5)">
<title>koala.excellib.today</title>
<polygon fill="white" stroke="none" points="-4,4 -4,-67.5 844,-67.5 844,4 -4,4"/>
<!-- Node130 -->
<g id="node1" class="node"><title>Node130</title>
<g id="a_node1"><a xlink:title=" ">
<polygon fill="#bfbfbf" stroke="black" points="0,-16.5 0,-35.5 103,-35.5 103,-16.5 0,-16.5"/>
<text text-anchor="middle" x="51.5" y="-23.5" font-family="Helvetica,sans-Serif" font-size="10.00">koala.excellib.today</text>
</a>
</g>
</g>
<!-- Node131 -->
<g id="node2" class="node"><title>Node131</title>
<g id="a_node2"><a xlink:href="namespacekoala_1_1excellib.html#ac993fb561979c98ece430fb6d643ce17" target="_top" xlink:title=" ">
<polygon fill="white" stroke="black" points="139,-16.5 139,-35.5 237,-35.5 237,-16.5 139,-16.5"/>
<text text-anchor="middle" x="188" y="-23.5" font-family="Helvetica,sans-Serif" font-size="10.00">koala.excellib.date</text>
</a>
</g>
</g>
<!-- Node130&#45;&gt;Node131 -->
<g id="edge1" class="edge"><title>Node130&#45;&gt;Node131</title>
<path fill="none" stroke="midnightblue" d="M103.349,-26C111.599,-26 120.2,-26 128.613,-26"/>
<polygon fill="midnightblue" stroke="midnightblue" points="128.745,-29.5001 138.745,-26 128.745,-22.5001 128.745,-29.5001"/>
</g>
<!-- Node132 -->
<g id="node3" class="node"><title>Node132</title>
<g id="a_node3"><a xlink:href="namespacekoala_1_1utils.html#a6a29ca0b64c84fe42f7d41190820477c" target="_top" xlink:title=" ">
<polygon fill="white" stroke="black" points="273,-16.5 273,-35.5 403,-35.5 403,-16.5 273,-16.5"/>
<text text-anchor="middle" x="338" y="-23.5" font-family="Helvetica,sans-Serif" font-size="10.00">koala.utils.normalize_year</text>
</a>
</g>
</g>
<!-- Node131&#45;&gt;Node132 -->
<g id="edge2" class="edge"><title>Node131&#45;&gt;Node132</title>
<path fill="none" stroke="midnightblue" d="M237.051,-26C245.241,-26 253.917,-26 262.599,-26"/>
<polygon fill="midnightblue" stroke="midnightblue" points="262.767,-29.5001 272.767,-26 262.767,-22.5001 262.767,-29.5001"/>
</g>
<!-- Node133 -->
<g id="node4" class="node"><title>Node133</title>
<g id="a_node4"><a xlink:href="namespacekoala_1_1utils.html#a6ca2acad4db5fefe21c0941c1622f5e4" target="_top" xlink:title=" ">
<polygon fill="white" stroke="black" points="439,-33 439,-63 540,-63 540,-33 439,-33"/>
<text text-anchor="start" x="447" y="-51" font-family="Helvetica,sans-Serif" font-size="10.00">koala.utils.get_max</text>
<text text-anchor="middle" x="489.5" y="-40" font-family="Helvetica,sans-Serif" font-size="10.00">_days_in_month</text>
</a>
</g>
</g>
<!-- Node132&#45;&gt;Node133 -->
<g id="edge3" class="edge"><title>Node132&#45;&gt;Node133</title>
<path fill="none" stroke="midnightblue" d="M403.269,-35.4577C411.709,-36.6996 420.33,-37.9683 428.691,-39.1987"/>
<polygon fill="midnightblue" stroke="midnightblue" points="428.329,-42.683 438.732,-40.6762 429.348,-35.7575 428.329,-42.683"/>
</g>
<!-- Node135 -->
<g id="node6" class="node"><title>Node135</title>
<g id="a_node6"><a xlink:href="namespacekoala_1_1utils.html#aa5132ee97ef859e71f955428648f3359" target="_top" xlink:title=" ">
<polygon fill="white" stroke="black" points="576,-0.5 576,-19.5 695,-19.5 695,-0.5 576,-0.5"/>
<text text-anchor="middle" x="635.5" y="-7.5" font-family="Helvetica,sans-Serif" font-size="10.00">koala.utils.is_leap_year</text>
</a>
</g>
</g>
<!-- Node132&#45;&gt;Node135 -->
<g id="edge7" class="edge"><title>Node132&#45;&gt;Node135</title>
<path fill="none" stroke="midnightblue" d="M403.119,-22.5282C450.978,-19.9369 516.292,-16.4004 565.324,-13.7456"/>
<polygon fill="midnightblue" stroke="midnightblue" points="565.732,-17.2287 575.528,-13.1931 565.353,-10.239 565.732,-17.2287"/>
</g>
<!-- Node134 -->
<g id="node5" class="node"><title>Node134</title>
<g id="a_node5"><a xlink:href="namespacekoala_1_1utils.html#af016160edea2b46cb26db3ed307c9648" target="_top" xlink:title=" ">
<polygon fill="white" stroke="black" points="731,-19.5 731,-38.5 840,-38.5 840,-19.5 731,-19.5"/>
<text text-anchor="middle" x="785.5" y="-26.5" font-family="Helvetica,sans-Serif" font-size="10.00">koala.utils.is_number</text>
</a>
</g>
</g>
<!-- Node133&#45;&gt;Node134 -->
<g id="edge4" class="edge"><title>Node133&#45;&gt;Node134</title>
<path fill="none" stroke="midnightblue" d="M540.041,-44.7984C589.699,-41.5892 666.362,-36.6348 720.578,-33.131"/>
<polygon fill="midnightblue" stroke="midnightblue" points="721.014,-36.6102 730.768,-32.4725 720.563,-29.6248 721.014,-36.6102"/>
</g>
<!-- Node133&#45;&gt;Node135 -->
<g id="edge5" class="edge"><title>Node133&#45;&gt;Node135</title>
<path fill="none" stroke="midnightblue" d="M540.057,-34.9226C555.807,-30.7663 573.148,-26.19 588.627,-22.1054"/>
<polygon fill="midnightblue" stroke="midnightblue" points="589.718,-25.4375 598.494,-19.5017 587.932,-18.6692 589.718,-25.4375"/>
</g>
<!-- Node135&#45;&gt;Node134 -->
<g id="edge6" class="edge"><title>Node135&#45;&gt;Node134</title>
<path fill="none" stroke="midnightblue" d="M695.419,-17.5639C703.671,-18.6233 712.185,-19.7163 720.526,-20.7871"/>
<polygon fill="midnightblue" stroke="midnightblue" points="720.22,-24.2765 730.584,-22.0784 721.112,-17.3335 720.22,-24.2765"/>
</g>
</g>
</svg>
