<?xml version="1.0" encoding="UTF-8" standalone="no"?>
<!DOCTYPE svg PUBLIC "-//W3C//DTD SVG 1.1//EN"
 "http://www.w3.org/Graphics/SVG/1.1/DTD/svg11.dtd">
<!-- Generated by graphviz version 2.38.0 (20140413.2041)
 -->
<!-- Title: koala.excellib.npv Pages: 1 -->
<svg width="390pt" height="127pt"
 viewBox="0.00 0.00 390.00 126.50" xmlns="http://www.w3.org/2000/svg" xmlns:xlink="http://www.w3.org/1999/xlink">
<g id="graph0" class="graph" transform="scale(1 1) rotate(0) translate(4 122.5)">
<title>koala.excellib.npv</title>
<polygon fill="white" stroke="none" points="-4,4 -4,-122.5 386,-122.5 386,4 -4,4"/>
<!-- Node82 -->
<g id="node1" class="node"><title>Node82</title>
<g id="a_node1"><a xlink:title=" ">
<polygon fill="#bfbfbf" stroke="black" points="0,-55 0,-74 93,-74 93,-55 0,-55"/>
<text text-anchor="middle" x="46.5" y="-62" font-family="Helvetica,sans-Serif" font-size="10.00">koala.excellib.npv</text>
</a>
</g>
</g>
<!-- Node83 -->
<g id="node2" class="node"><title>Node83</title>
<g id="a_node2"><a xlink:href="namespacekoala_1_1utils.html#a21c9c36dbb89c2f907eb5bc3bc2f56aa" target="_top" xlink:title=" ">
<polygon fill="white" stroke="black" points="129,-99 129,-118 237,-118 237,-99 129,-99"/>
<text text-anchor="middle" x="183" y="-106" font-family="Helvetica,sans-Serif" font-size="10.00">koala.utils.flatten_list</text>
</a>
</g>
</g>
<!-- Node82&#45;&gt;Node83 -->
<g id="edge1" class="edge"><title>Node82&#45;&gt;Node83</title>
<path fill="none" stroke="midnightblue" d="M76.6845,-74.0473C96.1603,-80.4186 121.987,-88.8675 143.19,-95.8038"/>
<polygon fill="midnightblue" stroke="midnightblue" points="142.28,-99.1885 152.872,-98.9713 144.456,-92.5355 142.28,-99.1885"/>
</g>
<!-- Node84 -->
<g id="node3" class="node"><title>Node84</title>
<g id="a_node3"><a xlink:href="namespacekoala_1_1utils.html#adeefbb82b9a8c72e5c67197400767f0b" target="_top" xlink:title=" ">
<polygon fill="white" stroke="black" points="138,-49.5 138,-79.5 228,-79.5 228,-49.5 138,-49.5"/>
<text text-anchor="start" x="146" y="-67.5" font-family="Helvetica,sans-Serif" font-size="10.00">koala.utils.is_not</text>
<text text-anchor="middle" x="183" y="-56.5" font-family="Helvetica,sans-Serif" font-size="10.00">_number_input</text>
</a>
</g>
</g>
<!-- Node82&#45;&gt;Node84 -->
<g id="edge2" class="edge"><title>Node82&#45;&gt;Node84</title>
<path fill="none" stroke="midnightblue" d="M93.0356,-64.5C104.122,-64.5 116.09,-64.5 127.544,-64.5"/>
<polygon fill="midnightblue" stroke="midnightblue" points="127.878,-68.0001 137.878,-64.5 127.878,-61.0001 127.878,-68.0001"/>
</g>
<!-- Node86 -->
<g id="node5" class="node"><title>Node86</title>
<g id="a_node5"><a xlink:href="namespacekoala_1_1utils.html#a344ae2d72b1cec3fadbfec9418af8394" target="_top" xlink:title=" ">
<polygon fill="white" stroke="black" points="134,-0.5 134,-30.5 232,-30.5 232,-0.5 134,-0.5"/>
<text text-anchor="start" x="142" y="-18.5" font-family="Helvetica,sans-Serif" font-size="10.00">koala.utils.numeric</text>
<text text-anchor="middle" x="183" y="-7.5" font-family="Helvetica,sans-Serif" font-size="10.00">_error</text>
</a>
</g>
</g>
<!-- Node82&#45;&gt;Node86 -->
<g id="edge4" class="edge"><title>Node82&#45;&gt;Node86</title>
<path fill="none" stroke="midnightblue" d="M73.7522,-54.936C90.1112,-48.9762 111.704,-41.1097 131.298,-33.9713"/>
<polygon fill="midnightblue" stroke="midnightblue" points="132.527,-37.2486 140.725,-30.537 130.131,-30.6715 132.527,-37.2486"/>
</g>
<!-- Node85 -->
<g id="node4" class="node"><title>Node85</title>
<g id="a_node4"><a xlink:href="namespacekoala_1_1utils.html#af016160edea2b46cb26db3ed307c9648" target="_top" xlink:title=" ">
<polygon fill="white" stroke="black" points="273,-55 273,-74 382,-74 382,-55 273,-55"/>
<text text-anchor="middle" x="327.5" y="-62" font-family="Helvetica,sans-Serif" font-size="10.00">koala.utils.is_number</text>
</a>
</g>
</g>
<!-- Node84&#45;&gt;Node85 -->
<g id="edge3" class="edge"><title>Node84&#45;&gt;Node85</title>
<path fill="none" stroke="midnightblue" d="M228.307,-64.5C239.239,-64.5 251.163,-64.5 262.815,-64.5"/>
<polygon fill="midnightblue" stroke="midnightblue" points="262.952,-68.0001 272.952,-64.5 262.952,-61.0001 262.952,-68.0001"/>
</g>
</g>
</svg>
