<?xml version="1.0" encoding="UTF-8" standalone="no"?>
<!DOCTYPE svg PUBLIC "-//W3C//DTD SVG 1.1//EN"
 "http://www.w3.org/Graphics/SVG/1.1/DTD/svg11.dtd">
<!-- Generated by graphviz version 2.38.0 (20140413.2041)
 -->
<!-- Title: koala.utils.split_address Pages: 1 -->
<svg width="1187pt" height="374pt"
 viewBox="0.00 0.00 1187.00 374.00" xmlns="http://www.w3.org/2000/svg" xmlns:xlink="http://www.w3.org/1999/xlink">
<g id="graph0" class="graph" transform="scale(1 1) rotate(0) translate(4 370)">
<title>koala.utils.split_address</title>
<polygon fill="white" stroke="none" points="-4,4 -4,-370 1183,-370 1183,4 -4,4"/>
<!-- Node303 -->
<g id="node1" class="node"><title>Node303</title>
<g id="a_node1"><a xlink:title=" ">
<polygon fill="#bfbfbf" stroke="black" points="1057,-205 1057,-224 1179,-224 1179,-205 1057,-205"/>
<text text-anchor="middle" x="1118" y="-212" font-family="Helvetica,sans-Serif" font-size="10.00">koala.utils.split_address</text>
</a>
</g>
</g>
<!-- Node304 -->
<g id="node2" class="node"><title>Node304</title>
<g id="a_node2"><a xlink:href="namespacekoala_1_1ast.html#aa55446c8aa764f09775f006ee775ec7b" target="_top" xlink:title=" ">
<polygon fill="white" stroke="black" points="713.5,-291.5 713.5,-321.5 820.5,-321.5 820.5,-291.5 713.5,-291.5"/>
<text text-anchor="start" x="721.5" y="-309.5" font-family="Helvetica,sans-Serif" font-size="10.00">koala.ast.graph_from</text>
<text text-anchor="middle" x="767" y="-298.5" font-family="Helvetica,sans-Serif" font-size="10.00">_seeds</text>
</a>
</g>
</g>
<!-- Node303&#45;&gt;Node304 -->
<g id="edge1" class="edge"><title>Node303&#45;&gt;Node304</title>
<path fill="none" stroke="midnightblue" d="M1107.72,-233.158C1093.33,-259.69 1062.88,-307.237 1021,-326.5 951.949,-358.259 861.082,-338.137 809.151,-321.632"/>
<polygon fill="midnightblue" stroke="midnightblue" points="1110.91,-234.605 1112.43,-224.121 1104.7,-231.366 1110.91,-234.605"/>
</g>
<!-- Node312 -->
<g id="node10" class="node"><title>Node312</title>
<g id="a_node10"><a xlink:href="classkoala_1_1_cell_1_1_cell.html#a96a3daa57755d5442d485e7a9ebebce2" target="_top" xlink:title=" ">
<polygon fill="white" stroke="black" points="897,-298 897,-317 1013,-317 1013,-298 897,-298"/>
<text text-anchor="middle" x="955" y="-305" font-family="Helvetica,sans-Serif" font-size="10.00">koala.Cell.Cell.__init__</text>
</a>
</g>
</g>
<!-- Node303&#45;&gt;Node312 -->
<g id="edge9" class="edge"><title>Node303&#45;&gt;Node312</title>
<path fill="none" stroke="midnightblue" d="M1099.73,-231.071C1081.49,-247.738 1051.25,-273.111 1021,-288.5 1013.66,-292.231 1005.48,-295.342 997.461,-297.894"/>
<polygon fill="midnightblue" stroke="midnightblue" points="1102.29,-233.47 1107.22,-224.092 1097.52,-228.348 1102.29,-233.47"/>
</g>
<!-- Node313 -->
<g id="node11" class="node"><title>Node313</title>
<g id="a_node11"><a xlink:href="classkoala_1_1_cell_1_1_cell.html#abb9596a2117f4095a27eab5cddc46f17" target="_top" xlink:title=" ">
<polygon fill="white" stroke="black" points="907.5,-248.5 907.5,-278.5 1002.5,-278.5 1002.5,-248.5 907.5,-248.5"/>
<text text-anchor="start" x="915.5" y="-266.5" font-family="Helvetica,sans-Serif" font-size="10.00">koala.Cell.Cell.inc</text>
<text text-anchor="middle" x="955" y="-255.5" font-family="Helvetica,sans-Serif" font-size="10.00">_col_address</text>
</a>
</g>
</g>
<!-- Node303&#45;&gt;Node313 -->
<g id="edge10" class="edge"><title>Node303&#45;&gt;Node313</title>
<path fill="none" stroke="midnightblue" d="M1075.72,-227.063C1053.38,-233.862 1025.71,-242.284 1002.6,-249.318"/>
<polygon fill="midnightblue" stroke="midnightblue" points="1077.03,-230.324 1085.58,-224.064 1074.99,-223.627 1077.03,-230.324"/>
</g>
<!-- Node314 -->
<g id="node12" class="node"><title>Node314</title>
<g id="a_node12"><a xlink:href="classkoala_1_1_cell_1_1_cell.html#add5ffef213fb74dcbe0e00df5bacb3eb" target="_top" xlink:title=" ">
<polygon fill="white" stroke="black" points="907.5,-199.5 907.5,-229.5 1002.5,-229.5 1002.5,-199.5 907.5,-199.5"/>
<text text-anchor="start" x="915.5" y="-217.5" font-family="Helvetica,sans-Serif" font-size="10.00">koala.Cell.Cell.inc</text>
<text text-anchor="middle" x="955" y="-206.5" font-family="Helvetica,sans-Serif" font-size="10.00">_row_address</text>
</a>
</g>
</g>
<!-- Node303&#45;&gt;Node314 -->
<g id="edge11" class="edge"><title>Node303&#45;&gt;Node314</title>
<path fill="none" stroke="midnightblue" d="M1046.43,-214.5C1031.61,-214.5 1016.34,-214.5 1002.66,-214.5"/>
<polygon fill="midnightblue" stroke="midnightblue" points="1046.59,-218 1056.59,-214.5 1046.59,-211 1046.59,-218"/>
</g>
<!-- Node315 -->
<g id="node13" class="node"><title>Node315</title>
<g id="a_node13"><a xlink:href="classkoala_1_1_cell_1_1_cell.html#a1e2a04d85dfd22700a19466ef1511523" target="_top" xlink:title=" ">
<polygon fill="white" stroke="black" points="889,-161 889,-180 1021,-180 1021,-161 889,-161"/>
<text text-anchor="middle" x="955" y="-168" font-family="Helvetica,sans-Serif" font-size="10.00">koala.Cell.Cell.resolve_cell</text>
</a>
</g>
</g>
<!-- Node303&#45;&gt;Node315 -->
<g id="edge12" class="edge"><title>Node303&#45;&gt;Node315</title>
<path fill="none" stroke="midnightblue" d="M1072.18,-202.252C1046.48,-195.228 1014.69,-186.54 990.866,-180.029"/>
<polygon fill="midnightblue" stroke="midnightblue" points="1071.5,-205.693 1082.07,-204.953 1073.34,-198.94 1071.5,-205.693"/>
</g>
<!-- Node316 -->
<g id="node14" class="node"><title>Node316</title>
<g id="a_node14"><a xlink:href="namespacekoala_1_1utils.html#a1d3620df245d23fea05928298cabc2ac" target="_top" xlink:title=" ">
<polygon fill="white" stroke="black" points="908,-111.5 908,-141.5 1002,-141.5 1002,-111.5 908,-111.5"/>
<text text-anchor="start" x="916" y="-129.5" font-family="Helvetica,sans-Serif" font-size="10.00">koala.utils.resolve</text>
<text text-anchor="middle" x="955" y="-118.5" font-family="Helvetica,sans-Serif" font-size="10.00">_range</text>
</a>
</g>
</g>
<!-- Node303&#45;&gt;Node316 -->
<g id="edge13" class="edge"><title>Node303&#45;&gt;Node316</title>
<path fill="none" stroke="midnightblue" d="M1095.99,-198.818C1077.05,-185.154 1048.1,-165.403 1021,-151.5 1014.11,-147.968 1006.61,-144.64 999.225,-141.634"/>
<polygon fill="midnightblue" stroke="midnightblue" points="1094.05,-201.733 1104.19,-204.805 1098.17,-196.08 1094.05,-201.733"/>
</g>
<!-- Node325 -->
<g id="node23" class="node"><title>Node325</title>
<g id="a_node23"><a xlink:href="namespacekoala_1_1utils.html#a59f09f06769211b50aedfb12b5965ba0" target="_top" xlink:title=" ">
<polygon fill="white" stroke="black" points="891.5,-73 891.5,-92 1018.5,-92 1018.5,-73 891.5,-73"/>
<text text-anchor="middle" x="955" y="-80" font-family="Helvetica,sans-Serif" font-size="10.00">koala.utils.address2index</text>
</a>
</g>
</g>
<!-- Node303&#45;&gt;Node325 -->
<g id="edge25" class="edge"><title>Node303&#45;&gt;Node325</title>
<path fill="none" stroke="midnightblue" d="M1106.25,-196.132C1090.64,-171.047 1059.32,-126.359 1021,-101.5 1015.08,-97.6609 1008.37,-94.5777 1001.55,-92.1069"/>
<polygon fill="midnightblue" stroke="midnightblue" points="1103.45,-198.253 1111.62,-204.993 1109.43,-194.626 1103.45,-198.253"/>
</g>
<!-- Node305 -->
<g id="node3" class="node"><title>Node305</title>
<g id="a_node3"><a xlink:href="classkoala_1_1_spreadsheet_1_1_spreadsheet.html#a80d6ad19a13ccd80ca76f3f94975f7b5" target="_top" xlink:title=" ">
<polygon fill="white" stroke="black" points="461,-335.5 461,-365.5 635,-365.5 635,-335.5 461,-335.5"/>
<text text-anchor="start" x="469" y="-353.5" font-family="Helvetica,sans-Serif" font-size="10.00">koala.Spreadsheet.Spreadsheet.gen</text>
<text text-anchor="middle" x="548" y="-342.5" font-family="Helvetica,sans-Serif" font-size="10.00">_graph</text>
</a>
</g>
</g>
<!-- Node304&#45;&gt;Node305 -->
<g id="edge2" class="edge"><title>Node304&#45;&gt;Node305</title>
<path fill="none" stroke="midnightblue" d="M703.364,-319.2C678.318,-324.279 649.277,-330.167 623.186,-335.458"/>
<polygon fill="midnightblue" stroke="midnightblue" points="704.365,-322.569 713.47,-317.151 702.974,-315.708 704.365,-322.569"/>
</g>
<!-- Node306 -->
<g id="node4" class="node"><title>Node306</title>
<g id="a_node4"><a xlink:href="classkoala_1_1_spreadsheet_1_1_spreadsheet.html#affd17089825c4b3391c4d6b9b702209c" target="_top" xlink:title=" ">
<polygon fill="white" stroke="black" points="451,-297 451,-316 645,-316 645,-297 451,-297"/>
<text text-anchor="middle" x="548" y="-304" font-family="Helvetica,sans-Serif" font-size="10.00">koala.Spreadsheet.Spreadsheet.cell_add</text>
</a>
</g>
</g>
<!-- Node304&#45;&gt;Node306 -->
<g id="edge3" class="edge"><title>Node304&#45;&gt;Node306</title>
<path fill="none" stroke="midnightblue" d="M703.321,-306.5C685.146,-306.5 664.871,-306.5 645.147,-306.5"/>
<polygon fill="midnightblue" stroke="midnightblue" points="703.47,-310 713.47,-306.5 703.47,-303 703.47,-310"/>
</g>
<!-- Node310 -->
<g id="node8" class="node"><title>Node310</title>
<g id="a_node8"><a xlink:href="classkoala_1_1_spreadsheet_1_1_spreadsheet.html#aa7bdaffc24c26fbf18d5b752b7e49df2" target="_top" xlink:title=" ">
<polygon fill="white" stroke="black" points="461.5,-245.5 461.5,-275.5 634.5,-275.5 634.5,-245.5 461.5,-245.5"/>
<text text-anchor="start" x="469.5" y="-263.5" font-family="Helvetica,sans-Serif" font-size="10.00">koala.Spreadsheet.Spreadsheet.cell</text>
<text text-anchor="middle" x="548" y="-252.5" font-family="Helvetica,sans-Serif" font-size="10.00">_set_formula</text>
</a>
</g>
</g>
<!-- Node304&#45;&gt;Node310 -->
<g id="edge7" class="edge"><title>Node304&#45;&gt;Node310</title>
<path fill="none" stroke="midnightblue" d="M703.673,-293.288C677.503,-287.74 646.928,-281.259 619.904,-275.53"/>
<polygon fill="midnightblue" stroke="midnightblue" points="702.962,-296.715 713.47,-295.365 704.414,-289.867 702.962,-296.715"/>
</g>
<!-- Node307 -->
<g id="node5" class="node"><title>Node307</title>
<g id="a_node5"><a xlink:href="classkoala_1_1_spreadsheet_1_1_spreadsheet.html#a7481e9d34fe1d4347b3b6eed3462b545" target="_top" xlink:title=" ">
<polygon fill="white" stroke="black" points="221,-341 221,-360 415,-360 415,-341 221,-341"/>
<text text-anchor="middle" x="318" y="-348" font-family="Helvetica,sans-Serif" font-size="10.00">koala.Spreadsheet.Spreadsheet.add_cell</text>
</a>
</g>
</g>
<!-- Node306&#45;&gt;Node307 -->
<g id="edge4" class="edge"><title>Node306&#45;&gt;Node307</title>
<path fill="none" stroke="midnightblue" d="M487.366,-318.008C450.335,-325.155 403.311,-334.23 368.376,-340.971"/>
<polygon fill="midnightblue" stroke="midnightblue" points="488.372,-321.379 497.527,-316.047 487.045,-314.506 488.372,-321.379"/>
</g>
<!-- Node308 -->
<g id="node6" class="node"><title>Node308</title>
<g id="a_node6"><a xlink:href="classkoala_1_1_spreadsheet_1_1_spreadsheet.html#a2f695c5a3bc3f8812609bd2ba4ebb784" target="_top" xlink:title=" ">
<polygon fill="white" stroke="black" points="231.5,-291.5 231.5,-321.5 404.5,-321.5 404.5,-291.5 231.5,-291.5"/>
<text text-anchor="start" x="239.5" y="-309.5" font-family="Helvetica,sans-Serif" font-size="10.00">koala.Spreadsheet.Spreadsheet.cell</text>
<text text-anchor="middle" x="318" y="-298.5" font-family="Helvetica,sans-Serif" font-size="10.00">_set_value</text>
</a>
</g>
</g>
<!-- Node306&#45;&gt;Node308 -->
<g id="edge5" class="edge"><title>Node306&#45;&gt;Node308</title>
<path fill="none" stroke="midnightblue" d="M440.853,-306.5C428.764,-306.5 416.557,-306.5 404.778,-306.5"/>
<polygon fill="midnightblue" stroke="midnightblue" points="440.968,-310 450.968,-306.5 440.968,-303 440.968,-310"/>
</g>
<!-- Node309 -->
<g id="node7" class="node"><title>Node309</title>
<g id="a_node7"><a xlink:href="classkoala_1_1_spreadsheet_1_1_spreadsheet.html#a1330ffeda88c7bc6905a00e80203eb78" target="_top" xlink:title=" ">
<polygon fill="white" stroke="black" points="6.5,-291.5 6.5,-321.5 178.5,-321.5 178.5,-291.5 6.5,-291.5"/>
<text text-anchor="start" x="14.5" y="-309.5" font-family="Helvetica,sans-Serif" font-size="10.00">koala.Spreadsheet.Spreadsheet.set</text>
<text text-anchor="middle" x="92.5" y="-298.5" font-family="Helvetica,sans-Serif" font-size="10.00">_value</text>
</a>
</g>
</g>
<!-- Node308&#45;&gt;Node309 -->
<g id="edge6" class="edge"><title>Node308&#45;&gt;Node309</title>
<path fill="none" stroke="midnightblue" d="M221.043,-306.5C206.955,-306.5 192.525,-306.5 178.673,-306.5"/>
<polygon fill="midnightblue" stroke="midnightblue" points="221.228,-310 231.228,-306.5 221.228,-303 221.228,-310"/>
</g>
<!-- Node311 -->
<g id="node9" class="node"><title>Node311</title>
<g id="a_node9"><a xlink:href="classkoala_1_1_spreadsheet_1_1_spreadsheet.html#af50724d01ff5b3ae09ecc1bdfbfb0fed" target="_top" xlink:title=" ">
<polygon fill="white" stroke="black" points="232,-242.5 232,-272.5 404,-272.5 404,-242.5 232,-242.5"/>
<text text-anchor="start" x="240" y="-260.5" font-family="Helvetica,sans-Serif" font-size="10.00">koala.Spreadsheet.Spreadsheet.set</text>
<text text-anchor="middle" x="318" y="-249.5" font-family="Helvetica,sans-Serif" font-size="10.00">_formula</text>
</a>
</g>
</g>
<!-- Node310&#45;&gt;Node311 -->
<g id="edge8" class="edge"><title>Node310&#45;&gt;Node311</title>
<path fill="none" stroke="midnightblue" d="M451.278,-259.241C435.674,-259.035 419.6,-258.824 404.269,-258.622"/>
<polygon fill="midnightblue" stroke="midnightblue" points="451.407,-262.742 461.453,-259.374 451.499,-255.743 451.407,-262.742"/>
</g>
<!-- Node316&#45;&gt;Node304 -->
<g id="edge14" class="edge"><title>Node316&#45;&gt;Node304</title>
<path fill="none" stroke="midnightblue" d="M898.971,-143.568C895.363,-145.891 891.985,-148.522 889,-151.5 857.626,-182.807 879.998,-209.35 853,-244.5 837.868,-264.201 814.825,-280.467 796.546,-291.389"/>
<polygon fill="midnightblue" stroke="midnightblue" points="900.699,-146.612 907.733,-138.689 897.293,-140.496 900.699,-146.612"/>
</g>
<!-- Node317 -->
<g id="node15" class="node"><title>Node317</title>
<g id="a_node15"><a xlink:href="classkoala_1_1ast_1_1astnodes_1_1_range_node.html#ab02ae79ae481ec81f309633ac5a99606" target="_top" xlink:title=" ">
<polygon fill="white" stroke="black" points="702,-204.5 702,-234.5 832,-234.5 832,-204.5 702,-204.5"/>
<text text-anchor="start" x="710" y="-222.5" font-family="Helvetica,sans-Serif" font-size="10.00">koala.ast.astnodes.Range</text>
<text text-anchor="middle" x="767" y="-211.5" font-family="Helvetica,sans-Serif" font-size="10.00">Node.get_cells</text>
</a>
</g>
</g>
<!-- Node316&#45;&gt;Node317 -->
<g id="edge15" class="edge"><title>Node316&#45;&gt;Node317</title>
<path fill="none" stroke="midnightblue" d="M898.634,-145.473C895.274,-147.327 892.031,-149.334 889,-151.5 868.721,-165.992 873.85,-180.843 853,-194.5 846.566,-198.714 839.403,-202.236 832.041,-205.175"/>
<polygon fill="midnightblue" stroke="midnightblue" points="900.362,-148.522 907.737,-140.915 897.228,-142.263 900.362,-148.522"/>
</g>
<!-- Node318 -->
<g id="node16" class="node"><title>Node318</title>
<g id="a_node16"><a xlink:href="classkoala_1_1_cell_1_1_cell.html#ab1fa079614840ca386e0970338c2d8f0" target="_top" xlink:title=" ">
<polygon fill="white" stroke="black" points="714,-155.5 714,-185.5 820,-185.5 820,-155.5 714,-155.5"/>
<text text-anchor="start" x="722" y="-173.5" font-family="Helvetica,sans-Serif" font-size="10.00">koala.Cell.Cell.make</text>
<text text-anchor="middle" x="767" y="-162.5" font-family="Helvetica,sans-Serif" font-size="10.00">_cells</text>
</a>
</g>
</g>
<!-- Node316&#45;&gt;Node318 -->
<g id="edge16" class="edge"><title>Node316&#45;&gt;Node318</title>
<path fill="none" stroke="midnightblue" d="M897.611,-139.839C872.962,-145.67 844.23,-152.467 820.091,-158.177"/>
<polygon fill="midnightblue" stroke="midnightblue" points="898.618,-143.198 907.544,-137.49 897.007,-136.386 898.618,-143.198"/>
</g>
<!-- Node319 -->
<g id="node17" class="node"><title>Node319</title>
<g id="a_node17"><a xlink:href="namespacekoala_1_1excellib.html#ab1d9d224f4ee11e755d39b5ad520f371" target="_top" xlink:title=" ">
<polygon fill="white" stroke="black" points="716,-117 716,-136 818,-136 818,-117 716,-117"/>
<text text-anchor="middle" x="767" y="-124" font-family="Helvetica,sans-Serif" font-size="10.00">koala.excellib.offset</text>
</a>
</g>
</g>
<!-- Node316&#45;&gt;Node319 -->
<g id="edge17" class="edge"><title>Node316&#45;&gt;Node319</title>
<path fill="none" stroke="midnightblue" d="M897.363,-126.5C872.088,-126.5 842.559,-126.5 818.1,-126.5"/>
<polygon fill="midnightblue" stroke="midnightblue" points="897.544,-130 907.544,-126.5 897.544,-123 897.544,-130"/>
</g>
<!-- Node320 -->
<g id="node18" class="node"><title>Node320</title>
<g id="a_node18"><a xlink:href="classkoala_1_1_range_1_1_range_core.html#ac49ba3473e8bcd9585eedd4fa9603bf2" target="_top" xlink:title=" ">
<polygon fill="white" stroke="black" points="704.5,-67.5 704.5,-97.5 829.5,-97.5 829.5,-67.5 704.5,-67.5"/>
<text text-anchor="start" x="712.5" y="-85.5" font-family="Helvetica,sans-Serif" font-size="10.00">koala.Range.RangeCore.</text>
<text text-anchor="middle" x="767" y="-74.5" font-family="Helvetica,sans-Serif" font-size="10.00">__init__</text>
</a>
</g>
</g>
<!-- Node316&#45;&gt;Node320 -->
<g id="edge18" class="edge"><title>Node316&#45;&gt;Node320</title>
<path fill="none" stroke="midnightblue" d="M897.6,-113.158C876.133,-108.08 851.57,-102.269 829.642,-97.0819"/>
<polygon fill="midnightblue" stroke="midnightblue" points="897.007,-116.614 907.544,-115.51 898.618,-109.802 897.007,-116.614"/>
</g>
<!-- Node321 -->
<g id="node19" class="node"><title>Node321</title>
<g id="a_node19"><a xlink:href="classkoala_1_1_spreadsheet_1_1_spreadsheet.html#aa23818eb03be8a82c0969bd5338fdf2d" target="_top" xlink:title=" ">
<polygon fill="white" stroke="black" points="681,-0.5 681,-30.5 853,-30.5 853,-0.5 681,-0.5"/>
<text text-anchor="start" x="689" y="-18.5" font-family="Helvetica,sans-Serif" font-size="10.00">koala.Spreadsheet.Spreadsheet.get</text>
<text text-anchor="middle" x="767" y="-7.5" font-family="Helvetica,sans-Serif" font-size="10.00">_arguments_from_ast</text>
</a>
</g>
</g>
<!-- Node316&#45;&gt;Node321 -->
<g id="edge19" class="edge"><title>Node316&#45;&gt;Node321</title>
<path fill="none" stroke="midnightblue" d="M898.606,-107.567C895.252,-105.703 892.019,-103.683 889,-101.5 868.526,-86.6934 872.773,-73.23 853,-57.5 839.346,-46.6379 822.426,-37.5702 807.286,-30.6731"/>
<polygon fill="midnightblue" stroke="midnightblue" points="897.189,-110.772 907.695,-112.143 900.337,-104.52 897.189,-110.772"/>
</g>
<!-- Node321&#45;&gt;Node321 -->
<g id="edge20" class="edge"><title>Node321&#45;&gt;Node321</title>
<path fill="none" stroke="midnightblue" d="M800.405,-40.9579C796.259,-45.679 785.124,-49 767,-49 737.258,-49 726.337,-40.0566 734.237,-30.659"/>
<polygon fill="midnightblue" stroke="midnightblue" points="803.879,-40.4217 799.763,-30.659 796.892,-40.8575 803.879,-40.4217"/>
</g>
<!-- Node322 -->
<g id="node20" class="node"><title>Node322</title>
<g id="a_node20"><a xlink:href="classkoala_1_1_spreadsheet_1_1_spreadsheet.html#a8ebd4153a8499a4bf7fdf0bde89f12f0" target="_top" xlink:title=" ">
<polygon fill="white" stroke="black" points="462,-0.5 462,-30.5 634,-30.5 634,-0.5 462,-0.5"/>
<text text-anchor="start" x="470" y="-18.5" font-family="Helvetica,sans-Serif" font-size="10.00">koala.Spreadsheet.Spreadsheet.get</text>
<text text-anchor="middle" x="548" y="-7.5" font-family="Helvetica,sans-Serif" font-size="10.00">_pointer_arguments_from_ast</text>
</a>
</g>
</g>
<!-- Node321&#45;&gt;Node322 -->
<g id="edge21" class="edge"><title>Node321&#45;&gt;Node322</title>
<path fill="none" stroke="midnightblue" d="M670.727,-15.5C658.586,-15.5 646.221,-15.5 634.252,-15.5"/>
<polygon fill="midnightblue" stroke="midnightblue" points="670.859,-19.0001 680.859,-15.5 670.859,-12.0001 670.859,-19.0001"/>
</g>
<!-- Node322&#45;&gt;Node322 -->
<g id="edge24" class="edge"><title>Node322&#45;&gt;Node322</title>
<path fill="none" stroke="midnightblue" d="M586.736,-40.9579C581.928,-45.679 569.016,-49 548,-49 513.512,-49 500.848,-40.0566 510.009,-30.659"/>
<polygon fill="midnightblue" stroke="midnightblue" points="590.203,-40.3804 585.991,-30.659 583.222,-40.8855 590.203,-40.3804"/>
</g>
<!-- Node323 -->
<g id="node21" class="node"><title>Node323</title>
<g id="a_node21"><a xlink:href="classkoala_1_1_spreadsheet_1_1_spreadsheet.html#a6f233266d3e106c54dc37886dba18e9a" target="_top" xlink:title=" ">
<polygon fill="white" stroke="black" points="231.5,-0.5 231.5,-30.5 404.5,-30.5 404.5,-0.5 231.5,-0.5"/>
<text text-anchor="start" x="239.5" y="-18.5" font-family="Helvetica,sans-Serif" font-size="10.00">koala.Spreadsheet.Spreadsheet.find</text>
<text text-anchor="middle" x="318" y="-7.5" font-family="Helvetica,sans-Serif" font-size="10.00">_pointer_arguments</text>
</a>
</g>
</g>
<!-- Node322&#45;&gt;Node323 -->
<g id="edge22" class="edge"><title>Node322&#45;&gt;Node323</title>
<path fill="none" stroke="midnightblue" d="M451.661,-15.5C436.144,-15.5 420.152,-15.5 404.879,-15.5"/>
<polygon fill="midnightblue" stroke="midnightblue" points="451.777,-19.0001 461.777,-15.5 451.777,-12.0001 451.777,-19.0001"/>
</g>
<!-- Node324 -->
<g id="node22" class="node"><title>Node324</title>
<g id="a_node22"><a xlink:href="classkoala_1_1_spreadsheet_1_1_spreadsheet.html#a988fc1ddf090bf9746135ce759907a5a" target="_top" xlink:title=" ">
<polygon fill="white" stroke="black" points="0,-0.5 0,-30.5 185,-30.5 185,-0.5 0,-0.5"/>
<text text-anchor="start" x="8" y="-18.5" font-family="Helvetica,sans-Serif" font-size="10.00">koala.Spreadsheet.Spreadsheet.detect</text>
<text text-anchor="middle" x="92.5" y="-7.5" font-family="Helvetica,sans-Serif" font-size="10.00">_alive</text>
</a>
</g>
</g>
<!-- Node323&#45;&gt;Node324 -->
<g id="edge23" class="edge"><title>Node323&#45;&gt;Node324</title>
<path fill="none" stroke="midnightblue" d="M220.932,-15.5C209.13,-15.5 197.091,-15.5 185.353,-15.5"/>
<polygon fill="midnightblue" stroke="midnightblue" points="221.228,-19.0001 231.228,-15.5 221.228,-12.0001 221.228,-19.0001"/>
</g>
</g>
</svg>
