<?xml version="1.0" encoding="UTF-8" standalone="no"?>
<!DOCTYPE svg PUBLIC "-//W3C//DTD SVG 1.1//EN"
 "http://www.w3.org/Graphics/SVG/1.1/DTD/svg11.dtd">
<!-- Generated by graphviz version 2.38.0 (20140413.2041)
 -->
<!-- Title: koala.excellib.xnpv Pages: 1 -->
<svg width="385pt" height="88pt"
 viewBox="0.00 0.00 385.00 88.00" xmlns="http://www.w3.org/2000/svg" xmlns:xlink="http://www.w3.org/1999/xlink">
<g id="graph0" class="graph" transform="scale(1 1) rotate(0) translate(4 84)">
<title>koala.excellib.xnpv</title>
<polygon fill="white" stroke="none" points="-4,4 -4,-84 381,-84 381,4 -4,4"/>
<!-- Node161 -->
<g id="node1" class="node"><title>Node161</title>
<g id="a_node1"><a xlink:title=" ">
<polygon fill="#bfbfbf" stroke="black" points="0,-30 0,-49 98,-49 98,-30 0,-30"/>
<text text-anchor="middle" x="49" y="-37" font-family="Helvetica,sans-Serif" font-size="10.00">koala.excellib.xnpv</text>
</a>
</g>
</g>
<!-- Node162 -->
<g id="node2" class="node"><title>Node162</title>
<g id="a_node2"><a xlink:href="namespacekoala_1_1utils.html#adeefbb82b9a8c72e5c67197400767f0b" target="_top" xlink:title=" ">
<polygon fill="white" stroke="black" points="138,-49.5 138,-79.5 228,-79.5 228,-49.5 138,-49.5"/>
<text text-anchor="start" x="146" y="-67.5" font-family="Helvetica,sans-Serif" font-size="10.00">koala.utils.is_not</text>
<text text-anchor="middle" x="183" y="-56.5" font-family="Helvetica,sans-Serif" font-size="10.00">_number_input</text>
</a>
</g>
</g>
<!-- Node161&#45;&gt;Node162 -->
<g id="edge1" class="edge"><title>Node161&#45;&gt;Node162</title>
<path fill="none" stroke="midnightblue" d="M98.0284,-48.5963C107.657,-50.42 117.839,-52.3483 127.664,-54.2091"/>
<polygon fill="midnightblue" stroke="midnightblue" points="127.259,-57.6946 137.736,-56.1167 128.562,-50.8169 127.259,-57.6946"/>
</g>
<!-- Node164 -->
<g id="node4" class="node"><title>Node164</title>
<g id="a_node4"><a xlink:href="namespacekoala_1_1utils.html#a344ae2d72b1cec3fadbfec9418af8394" target="_top" xlink:title=" ">
<polygon fill="white" stroke="black" points="134,-0.5 134,-30.5 232,-30.5 232,-0.5 134,-0.5"/>
<text text-anchor="start" x="142" y="-18.5" font-family="Helvetica,sans-Serif" font-size="10.00">koala.utils.numeric</text>
<text text-anchor="middle" x="183" y="-7.5" font-family="Helvetica,sans-Serif" font-size="10.00">_error</text>
</a>
</g>
</g>
<!-- Node161&#45;&gt;Node164 -->
<g id="edge3" class="edge"><title>Node161&#45;&gt;Node164</title>
<path fill="none" stroke="midnightblue" d="M98.0284,-30.7676C106.4,-29.2455 115.188,-27.6475 123.798,-26.0822"/>
<polygon fill="midnightblue" stroke="midnightblue" points="124.574,-29.4986 133.786,-24.2662 123.321,-22.6116 124.574,-29.4986"/>
</g>
<!-- Node163 -->
<g id="node3" class="node"><title>Node163</title>
<g id="a_node3"><a xlink:href="namespacekoala_1_1utils.html#af016160edea2b46cb26db3ed307c9648" target="_top" xlink:title=" ">
<polygon fill="white" stroke="black" points="268,-55 268,-74 377,-74 377,-55 268,-55"/>
<text text-anchor="middle" x="322.5" y="-62" font-family="Helvetica,sans-Serif" font-size="10.00">koala.utils.is_number</text>
</a>
</g>
</g>
<!-- Node162&#45;&gt;Node163 -->
<g id="edge2" class="edge"><title>Node162&#45;&gt;Node163</title>
<path fill="none" stroke="midnightblue" d="M228.263,-64.5C237.585,-64.5 247.599,-64.5 257.482,-64.5"/>
<polygon fill="midnightblue" stroke="midnightblue" points="257.699,-68.0001 267.699,-64.5 257.699,-61.0001 257.699,-68.0001"/>
</g>
</g>
</svg>
