<?xml version="1.0" encoding="UTF-8" standalone="no"?>
<!DOCTYPE svg PUBLIC "-//W3C//DTD SVG 1.1//EN"
 "http://www.w3.org/Graphics/SVG/1.1/DTD/svg11.dtd">
<!-- Generated by graphviz version 2.38.0 (20140413.2041)
 -->
<!-- Title: koala.utils.col2num Pages: 1 -->
<svg width="1172pt" height="374pt"
 viewBox="0.00 0.00 1172.00 373.50" xmlns="http://www.w3.org/2000/svg" xmlns:xlink="http://www.w3.org/1999/xlink">
<g id="graph0" class="graph" transform="scale(1 1) rotate(0) translate(4 369.5)">
<title>koala.utils.col2num</title>
<polygon fill="white" stroke="none" points="-4,4 -4,-369.5 1168,-369.5 1168,4 -4,4"/>
<!-- Node7 -->
<g id="node1" class="node"><title>Node7</title>
<g id="a_node1"><a xlink:title=" ">
<polygon fill="#bfbfbf" stroke="black" points="1063,-164.5 1063,-183.5 1164,-183.5 1164,-164.5 1063,-164.5"/>
<text text-anchor="middle" x="1113.5" y="-171.5" font-family="Helvetica,sans-Serif" font-size="10.00">koala.utils.col2num</text>
</a>
</g>
</g>
<!-- Node8 -->
<g id="node2" class="node"><title>Node8</title>
<g id="a_node2"><a xlink:href="namespacekoala_1_1ast.html#aa55446c8aa764f09775f006ee775ec7b" target="_top" xlink:title=" ">
<polygon fill="white" stroke="black" points="713.5,-291 713.5,-321 820.5,-321 820.5,-291 713.5,-291"/>
<text text-anchor="start" x="721.5" y="-309" font-family="Helvetica,sans-Serif" font-size="10.00">koala.ast.graph_from</text>
<text text-anchor="middle" x="767" y="-298" font-family="Helvetica,sans-Serif" font-size="10.00">_seeds</text>
</a>
</g>
</g>
<!-- Node7&#45;&gt;Node8 -->
<g id="edge1" class="edge"><title>Node7&#45;&gt;Node8</title>
<path fill="none" stroke="midnightblue" d="M1101.7,-192.324C1087.57,-214.498 1060.6,-251.082 1027,-269 961.973,-303.68 875.335,-309.263 820.601,-308.701"/>
<polygon fill="midnightblue" stroke="midnightblue" points="1104.85,-193.885 1107.12,-183.534 1098.89,-190.216 1104.85,-193.885"/>
</g>
<!-- Node16 -->
<g id="node10" class="node"><title>Node16</title>
<g id="a_node10"><a xlink:href="classkoala_1_1_cell_1_1_cell.html#a96a3daa57755d5442d485e7a9ebebce2" target="_top" xlink:title=" ">
<polygon fill="white" stroke="black" points="900,-164.5 900,-183.5 1016,-183.5 1016,-164.5 900,-164.5"/>
<text text-anchor="middle" x="958" y="-171.5" font-family="Helvetica,sans-Serif" font-size="10.00">koala.Cell.Cell.__init__</text>
</a>
</g>
</g>
<!-- Node7&#45;&gt;Node16 -->
<g id="edge9" class="edge"><title>Node7&#45;&gt;Node16</title>
<path fill="none" stroke="midnightblue" d="M1052.34,-174C1040.39,-174 1027.89,-174 1016.05,-174"/>
<polygon fill="midnightblue" stroke="midnightblue" points="1052.66,-177.5 1062.66,-174 1052.66,-170.5 1052.66,-177.5"/>
</g>
<!-- Node17 -->
<g id="node11" class="node"><title>Node17</title>
<g id="a_node11"><a xlink:href="classkoala_1_1_cell_1_1_cell.html#abb9596a2117f4095a27eab5cddc46f17" target="_top" xlink:title=" ">
<polygon fill="white" stroke="black" points="910.5,-115 910.5,-145 1005.5,-145 1005.5,-115 910.5,-115"/>
<text text-anchor="start" x="918.5" y="-133" font-family="Helvetica,sans-Serif" font-size="10.00">koala.Cell.Cell.inc</text>
<text text-anchor="middle" x="958" y="-122" font-family="Helvetica,sans-Serif" font-size="10.00">_col_address</text>
</a>
</g>
</g>
<!-- Node7&#45;&gt;Node17 -->
<g id="edge10" class="edge"><title>Node7&#45;&gt;Node17</title>
<path fill="none" stroke="midnightblue" d="M1069.47,-161.666C1049.59,-155.968 1025.94,-149.188 1005.63,-143.368"/>
<polygon fill="midnightblue" stroke="midnightblue" points="1068.62,-165.062 1079.19,-164.453 1070.54,-158.333 1068.62,-165.062"/>
</g>
<!-- Node18 -->
<g id="node12" class="node"><title>Node18</title>
<g id="a_node12"><a xlink:href="namespacekoala_1_1excellib.html#ab1d9d224f4ee11e755d39b5ad520f371" target="_top" xlink:title=" ">
<polygon fill="white" stroke="black" points="716,-252.5 716,-271.5 818,-271.5 818,-252.5 716,-252.5"/>
<text text-anchor="middle" x="767" y="-259.5" font-family="Helvetica,sans-Serif" font-size="10.00">koala.excellib.offset</text>
</a>
</g>
</g>
<!-- Node7&#45;&gt;Node18 -->
<g id="edge11" class="edge"><title>Node7&#45;&gt;Node18</title>
<path fill="none" stroke="midnightblue" d="M1097.38,-191.151C1081.64,-207.686 1055.36,-231.801 1027,-243 958.437,-270.077 871.806,-270.317 818.153,-266.956"/>
<polygon fill="midnightblue" stroke="midnightblue" points="1100.01,-193.456 1104.22,-183.733 1094.87,-188.71 1100.01,-193.456"/>
</g>
<!-- Node19 -->
<g id="node13" class="node"><title>Node19</title>
<g id="a_node13"><a xlink:href="classkoala_1_1_range_1_1_range_core.html#a0ef0d47a2c8903280c6b5dfdd82eb7b6" target="_top" xlink:title=" ">
<polygon fill="white" stroke="black" points="889,-76.5 889,-95.5 1027,-95.5 1027,-76.5 889,-76.5"/>
<text text-anchor="middle" x="958" y="-83.5" font-family="Helvetica,sans-Serif" font-size="10.00">koala.Range.RangeCore.get</text>
</a>
</g>
</g>
<!-- Node7&#45;&gt;Node19 -->
<g id="edge12" class="edge"><title>Node7&#45;&gt;Node19</title>
<path fill="none" stroke="midnightblue" d="M1095.25,-156.92C1078.92,-141.614 1053.09,-119.547 1027,-106 1018.92,-101.803 1009.83,-98.3617 1000.99,-95.5893"/>
<polygon fill="midnightblue" stroke="midnightblue" points="1093.24,-159.834 1102.88,-164.227 1098.08,-154.78 1093.24,-159.834"/>
</g>
<!-- Node20 -->
<g id="node14" class="node"><title>Node20</title>
<g id="a_node14"><a xlink:href="namespacekoala_1_1reader.html#aa773ee24a28b1e66657ee4fcd95d6a62" target="_top" xlink:title=" ">
<polygon fill="white" stroke="black" points="899.5,-38.5 899.5,-57.5 1016.5,-57.5 1016.5,-38.5 899.5,-38.5"/>
<text text-anchor="middle" x="958" y="-45.5" font-family="Helvetica,sans-Serif" font-size="10.00">koala.reader.read_cells</text>
</a>
</g>
</g>
<!-- Node7&#45;&gt;Node20 -->
<g id="edge13" class="edge"><title>Node7&#45;&gt;Node20</title>
<path fill="none" stroke="midnightblue" d="M1102.64,-155.499C1088.88,-131.486 1061.68,-89.9497 1027,-67 1021.17,-63.1445 1014.57,-60.0639 1007.82,-57.6044"/>
<polygon fill="midnightblue" stroke="midnightblue" points="1099.63,-157.287 1107.54,-164.332 1105.75,-153.89 1099.63,-157.287"/>
</g>
<!-- Node21 -->
<g id="node15" class="node"><title>Node21</title>
<g id="a_node15"><a xlink:href="namespacekoala_1_1utils.html#a71673869f44a8e5ee678759d1c099ada" target="_top" xlink:title=" ">
<polygon fill="white" stroke="black" points="892,-328.5 892,-347.5 1024,-347.5 1024,-328.5 892,-328.5"/>
<text text-anchor="middle" x="958" y="-335.5" font-family="Helvetica,sans-Serif" font-size="10.00">koala.utils.max_dimension</text>
</a>
</g>
</g>
<!-- Node7&#45;&gt;Node21 -->
<g id="edge14" class="edge"><title>Node7&#45;&gt;Node21</title>
<path fill="none" stroke="midnightblue" d="M1105.58,-193.425C1093.92,-223.454 1067.6,-281.108 1027,-314 1019.32,-320.226 1009.9,-324.895 1000.55,-328.375"/>
<polygon fill="midnightblue" stroke="midnightblue" points="1108.99,-194.302 1109.21,-183.709 1102.43,-191.852 1108.99,-194.302"/>
</g>
<!-- Node22 -->
<g id="node16" class="node"><title>Node22</title>
<g id="a_node16"><a xlink:href="namespacekoala_1_1utils.html#a1d3620df245d23fea05928298cabc2ac" target="_top" xlink:title=" ">
<polygon fill="white" stroke="black" points="911,-203 911,-233 1005,-233 1005,-203 911,-203"/>
<text text-anchor="start" x="919" y="-221" font-family="Helvetica,sans-Serif" font-size="10.00">koala.utils.resolve</text>
<text text-anchor="middle" x="958" y="-210" font-family="Helvetica,sans-Serif" font-size="10.00">_range</text>
</a>
</g>
</g>
<!-- Node7&#45;&gt;Node22 -->
<g id="edge16" class="edge"><title>Node7&#45;&gt;Node22</title>
<path fill="none" stroke="midnightblue" d="M1069.39,-186.357C1049.34,-192.106 1025.46,-198.95 1005.05,-204.799"/>
<polygon fill="midnightblue" stroke="midnightblue" points="1070.54,-189.667 1079.19,-183.547 1068.62,-182.938 1070.54,-189.667"/>
</g>
<!-- Node30 -->
<g id="node24" class="node"><title>Node30</title>
<g id="a_node24"><a xlink:href="namespacekoala_1_1utils.html#a59f09f06769211b50aedfb12b5965ba0" target="_top" xlink:title=" ">
<polygon fill="white" stroke="black" points="894.5,-0.5 894.5,-19.5 1021.5,-19.5 1021.5,-0.5 894.5,-0.5"/>
<text text-anchor="middle" x="958" y="-7.5" font-family="Helvetica,sans-Serif" font-size="10.00">koala.utils.address2index</text>
</a>
</g>
</g>
<!-- Node7&#45;&gt;Node30 -->
<g id="edge28" class="edge"><title>Node7&#45;&gt;Node30</title>
<path fill="none" stroke="midnightblue" d="M1106.34,-154.414C1095.48,-123.108 1069.91,-61.9742 1027,-29 1021.95,-25.116 1016.14,-22.0259 1010.09,-19.5675"/>
<polygon fill="midnightblue" stroke="midnightblue" points="1103.1,-155.762 1109.57,-164.148 1109.74,-153.555 1103.1,-155.762"/>
</g>
<!-- Node9 -->
<g id="node3" class="node"><title>Node9</title>
<g id="a_node3"><a xlink:href="classkoala_1_1_spreadsheet_1_1_spreadsheet.html#a80d6ad19a13ccd80ca76f3f94975f7b5" target="_top" xlink:title=" ">
<polygon fill="white" stroke="black" points="461,-335 461,-365 635,-365 635,-335 461,-335"/>
<text text-anchor="start" x="469" y="-353" font-family="Helvetica,sans-Serif" font-size="10.00">koala.Spreadsheet.Spreadsheet.gen</text>
<text text-anchor="middle" x="548" y="-342" font-family="Helvetica,sans-Serif" font-size="10.00">_graph</text>
</a>
</g>
</g>
<!-- Node8&#45;&gt;Node9 -->
<g id="edge2" class="edge"><title>Node8&#45;&gt;Node9</title>
<path fill="none" stroke="midnightblue" d="M703.364,-318.7C678.318,-323.779 649.277,-329.667 623.186,-334.958"/>
<polygon fill="midnightblue" stroke="midnightblue" points="704.365,-322.069 713.47,-316.651 702.974,-315.208 704.365,-322.069"/>
</g>
<!-- Node10 -->
<g id="node4" class="node"><title>Node10</title>
<g id="a_node4"><a xlink:href="classkoala_1_1_spreadsheet_1_1_spreadsheet.html#affd17089825c4b3391c4d6b9b702209c" target="_top" xlink:title=" ">
<polygon fill="white" stroke="black" points="451,-296.5 451,-315.5 645,-315.5 645,-296.5 451,-296.5"/>
<text text-anchor="middle" x="548" y="-303.5" font-family="Helvetica,sans-Serif" font-size="10.00">koala.Spreadsheet.Spreadsheet.cell_add</text>
</a>
</g>
</g>
<!-- Node8&#45;&gt;Node10 -->
<g id="edge3" class="edge"><title>Node8&#45;&gt;Node10</title>
<path fill="none" stroke="midnightblue" d="M703.321,-306C685.146,-306 664.871,-306 645.147,-306"/>
<polygon fill="midnightblue" stroke="midnightblue" points="703.47,-309.5 713.47,-306 703.47,-302.5 703.47,-309.5"/>
</g>
<!-- Node14 -->
<g id="node8" class="node"><title>Node14</title>
<g id="a_node8"><a xlink:href="classkoala_1_1_spreadsheet_1_1_spreadsheet.html#aa7bdaffc24c26fbf18d5b752b7e49df2" target="_top" xlink:title=" ">
<polygon fill="white" stroke="black" points="461.5,-247 461.5,-277 634.5,-277 634.5,-247 461.5,-247"/>
<text text-anchor="start" x="469.5" y="-265" font-family="Helvetica,sans-Serif" font-size="10.00">koala.Spreadsheet.Spreadsheet.cell</text>
<text text-anchor="middle" x="548" y="-254" font-family="Helvetica,sans-Serif" font-size="10.00">_set_formula</text>
</a>
</g>
</g>
<!-- Node8&#45;&gt;Node14 -->
<g id="edge7" class="edge"><title>Node8&#45;&gt;Node14</title>
<path fill="none" stroke="midnightblue" d="M703.364,-293.3C678.318,-288.221 649.277,-282.333 623.186,-277.042"/>
<polygon fill="midnightblue" stroke="midnightblue" points="702.974,-296.792 713.47,-295.349 704.365,-289.931 702.974,-296.792"/>
</g>
<!-- Node11 -->
<g id="node5" class="node"><title>Node11</title>
<g id="a_node5"><a xlink:href="classkoala_1_1_spreadsheet_1_1_spreadsheet.html#a7481e9d34fe1d4347b3b6eed3462b545" target="_top" xlink:title=" ">
<polygon fill="white" stroke="black" points="221,-296.5 221,-315.5 415,-315.5 415,-296.5 221,-296.5"/>
<text text-anchor="middle" x="318" y="-303.5" font-family="Helvetica,sans-Serif" font-size="10.00">koala.Spreadsheet.Spreadsheet.add_cell</text>
</a>
</g>
</g>
<!-- Node10&#45;&gt;Node11 -->
<g id="edge4" class="edge"><title>Node10&#45;&gt;Node11</title>
<path fill="none" stroke="midnightblue" d="M440.957,-306C432.395,-306 423.773,-306 415.286,-306"/>
<polygon fill="midnightblue" stroke="midnightblue" points="440.968,-309.5 450.968,-306 440.968,-302.5 440.968,-309.5"/>
</g>
<!-- Node12 -->
<g id="node6" class="node"><title>Node12</title>
<g id="a_node6"><a xlink:href="classkoala_1_1_spreadsheet_1_1_spreadsheet.html#a2f695c5a3bc3f8812609bd2ba4ebb784" target="_top" xlink:title=" ">
<polygon fill="white" stroke="black" points="231.5,-335 231.5,-365 404.5,-365 404.5,-335 231.5,-335"/>
<text text-anchor="start" x="239.5" y="-353" font-family="Helvetica,sans-Serif" font-size="10.00">koala.Spreadsheet.Spreadsheet.cell</text>
<text text-anchor="middle" x="318" y="-342" font-family="Helvetica,sans-Serif" font-size="10.00">_set_value</text>
</a>
</g>
</g>
<!-- Node10&#45;&gt;Node12 -->
<g id="edge5" class="edge"><title>Node10&#45;&gt;Node12</title>
<path fill="none" stroke="midnightblue" d="M487.613,-317.461C459.967,-322.796 426.711,-329.214 397.066,-334.935"/>
<polygon fill="midnightblue" stroke="midnightblue" points="488.372,-320.879 497.527,-315.547 487.045,-314.006 488.372,-320.879"/>
</g>
<!-- Node13 -->
<g id="node7" class="node"><title>Node13</title>
<g id="a_node7"><a xlink:href="classkoala_1_1_spreadsheet_1_1_spreadsheet.html#a1330ffeda88c7bc6905a00e80203eb78" target="_top" xlink:title=" ">
<polygon fill="white" stroke="black" points="6.5,-335 6.5,-365 178.5,-365 178.5,-335 6.5,-335"/>
<text text-anchor="start" x="14.5" y="-353" font-family="Helvetica,sans-Serif" font-size="10.00">koala.Spreadsheet.Spreadsheet.set</text>
<text text-anchor="middle" x="92.5" y="-342" font-family="Helvetica,sans-Serif" font-size="10.00">_value</text>
</a>
</g>
</g>
<!-- Node12&#45;&gt;Node13 -->
<g id="edge6" class="edge"><title>Node12&#45;&gt;Node13</title>
<path fill="none" stroke="midnightblue" d="M221.043,-350C206.955,-350 192.525,-350 178.673,-350"/>
<polygon fill="midnightblue" stroke="midnightblue" points="221.228,-353.5 231.228,-350 221.228,-346.5 221.228,-353.5"/>
</g>
<!-- Node15 -->
<g id="node9" class="node"><title>Node15</title>
<g id="a_node9"><a xlink:href="classkoala_1_1_spreadsheet_1_1_spreadsheet.html#af50724d01ff5b3ae09ecc1bdfbfb0fed" target="_top" xlink:title=" ">
<polygon fill="white" stroke="black" points="232,-247 232,-277 404,-277 404,-247 232,-247"/>
<text text-anchor="start" x="240" y="-265" font-family="Helvetica,sans-Serif" font-size="10.00">koala.Spreadsheet.Spreadsheet.set</text>
<text text-anchor="middle" x="318" y="-254" font-family="Helvetica,sans-Serif" font-size="10.00">_formula</text>
</a>
</g>
</g>
<!-- Node14&#45;&gt;Node15 -->
<g id="edge8" class="edge"><title>Node14&#45;&gt;Node15</title>
<path fill="none" stroke="midnightblue" d="M451.278,-262C435.674,-262 419.6,-262 404.269,-262"/>
<polygon fill="midnightblue" stroke="midnightblue" points="451.453,-265.5 461.453,-262 451.452,-258.5 451.453,-265.5"/>
</g>
<!-- Node21&#45;&gt;Node8 -->
<g id="edge15" class="edge"><title>Node21&#45;&gt;Node8</title>
<path fill="none" stroke="midnightblue" d="M890.8,-326.792C867.855,-322.907 842.457,-318.607 820.742,-314.93"/>
<polygon fill="midnightblue" stroke="midnightblue" points="890.362,-330.267 900.805,-328.486 891.53,-323.365 890.362,-330.267"/>
</g>
<!-- Node22&#45;&gt;Node8 -->
<g id="edge17" class="edge"><title>Node22&#45;&gt;Node8</title>
<path fill="none" stroke="midnightblue" d="M927.136,-238.947C906.934,-252.387 879.247,-269.425 853,-281 842.867,-285.469 831.71,-289.402 820.906,-292.746"/>
<polygon fill="midnightblue" stroke="midnightblue" points="929.252,-241.741 935.583,-233.246 925.336,-235.939 929.252,-241.741"/>
</g>
<!-- Node22&#45;&gt;Node18 -->
<g id="edge20" class="edge"><title>Node22&#45;&gt;Node18</title>
<path fill="none" stroke="midnightblue" d="M900.978,-231.641C885.451,-235.374 868.581,-239.386 853,-243 839.448,-246.143 824.659,-249.481 811.272,-252.468"/>
<polygon fill="midnightblue" stroke="midnightblue" points="902.059,-234.98 910.96,-229.235 900.419,-228.175 902.059,-234.98"/>
</g>
<!-- Node23 -->
<g id="node17" class="node"><title>Node23</title>
<g id="a_node17"><a xlink:href="classkoala_1_1ast_1_1astnodes_1_1_range_node.html#ab02ae79ae481ec81f309633ac5a99606" target="_top" xlink:title=" ">
<polygon fill="white" stroke="black" points="702,-87 702,-117 832,-117 832,-87 702,-87"/>
<text text-anchor="start" x="710" y="-105" font-family="Helvetica,sans-Serif" font-size="10.00">koala.ast.astnodes.Range</text>
<text text-anchor="middle" x="767" y="-94" font-family="Helvetica,sans-Serif" font-size="10.00">Node.get_cells</text>
</a>
</g>
</g>
<!-- Node22&#45;&gt;Node23 -->
<g id="edge18" class="edge"><title>Node22&#45;&gt;Node23</title>
<path fill="none" stroke="midnightblue" d="M901.878,-201.815C897.266,-199.275 892.888,-196.355 889,-193 863.702,-171.173 879.007,-147.978 853,-127 846.774,-121.978 839.571,-117.965 832.043,-114.758"/>
<polygon fill="midnightblue" stroke="midnightblue" points="900.446,-205.01 910.969,-206.243 903.511,-198.717 900.446,-205.01"/>
</g>
<!-- Node24 -->
<g id="node18" class="node"><title>Node24</title>
<g id="a_node18"><a xlink:href="classkoala_1_1_cell_1_1_cell.html#ab1fa079614840ca386e0970338c2d8f0" target="_top" xlink:title=" ">
<polygon fill="white" stroke="black" points="714,-38 714,-68 820,-68 820,-38 714,-38"/>
<text text-anchor="start" x="722" y="-56" font-family="Helvetica,sans-Serif" font-size="10.00">koala.Cell.Cell.make</text>
<text text-anchor="middle" x="767" y="-45" font-family="Helvetica,sans-Serif" font-size="10.00">_cells</text>
</a>
</g>
</g>
<!-- Node22&#45;&gt;Node24 -->
<g id="edge19" class="edge"><title>Node22&#45;&gt;Node24</title>
<path fill="none" stroke="midnightblue" d="M901.533,-202.837C896.923,-200.084 892.642,-196.835 889,-193 851.823,-153.861 891.658,-114.676 853,-77 844.105,-68.3311 832.329,-62.7453 820.386,-59.1594"/>
<polygon fill="midnightblue" stroke="midnightblue" points="900.229,-206.101 910.725,-207.542 903.419,-199.87 900.229,-206.101"/>
</g>
<!-- Node25 -->
<g id="node19" class="node"><title>Node25</title>
<g id="a_node19"><a xlink:href="classkoala_1_1_range_1_1_range_core.html#ac49ba3473e8bcd9585eedd4fa9603bf2" target="_top" xlink:title=" ">
<polygon fill="white" stroke="black" points="704.5,-203 704.5,-233 829.5,-233 829.5,-203 704.5,-203"/>
<text text-anchor="start" x="712.5" y="-221" font-family="Helvetica,sans-Serif" font-size="10.00">koala.Range.RangeCore.</text>
<text text-anchor="middle" x="767" y="-210" font-family="Helvetica,sans-Serif" font-size="10.00">__init__</text>
</a>
</g>
</g>
<!-- Node22&#45;&gt;Node25 -->
<g id="edge21" class="edge"><title>Node22&#45;&gt;Node25</title>
<path fill="none" stroke="midnightblue" d="M900.466,-218C878.203,-218 852.568,-218 829.815,-218"/>
<polygon fill="midnightblue" stroke="midnightblue" points="900.765,-221.5 910.765,-218 900.765,-214.5 900.765,-221.5"/>
</g>
<!-- Node26 -->
<g id="node20" class="node"><title>Node26</title>
<g id="a_node20"><a xlink:href="classkoala_1_1_spreadsheet_1_1_spreadsheet.html#aa23818eb03be8a82c0969bd5338fdf2d" target="_top" xlink:title=" ">
<polygon fill="white" stroke="black" points="681,-136 681,-166 853,-166 853,-136 681,-136"/>
<text text-anchor="start" x="689" y="-154" font-family="Helvetica,sans-Serif" font-size="10.00">koala.Spreadsheet.Spreadsheet.get</text>
<text text-anchor="middle" x="767" y="-143" font-family="Helvetica,sans-Serif" font-size="10.00">_arguments_from_ast</text>
</a>
</g>
</g>
<!-- Node22&#45;&gt;Node26 -->
<g id="edge22" class="edge"><title>Node22&#45;&gt;Node26</title>
<path fill="none" stroke="midnightblue" d="M904.82,-199.502C875.167,-188.99 838.507,-175.994 810.6,-166.102"/>
<polygon fill="midnightblue" stroke="midnightblue" points="903.99,-202.921 914.585,-202.964 906.329,-196.324 903.99,-202.921"/>
</g>
<!-- Node26&#45;&gt;Node26 -->
<g id="edge23" class="edge"><title>Node26&#45;&gt;Node26</title>
<path fill="none" stroke="midnightblue" d="M800.761,-176.458C796.571,-181.179 785.317,-184.5 767,-184.5 736.941,-184.5 725.904,-175.557 733.889,-166.159"/>
<polygon fill="midnightblue" stroke="midnightblue" points="804.234,-175.919 800.111,-166.159 797.248,-176.359 804.234,-175.919"/>
</g>
<!-- Node27 -->
<g id="node21" class="node"><title>Node27</title>
<g id="a_node21"><a xlink:href="classkoala_1_1_spreadsheet_1_1_spreadsheet.html#a8ebd4153a8499a4bf7fdf0bde89f12f0" target="_top" xlink:title=" ">
<polygon fill="white" stroke="black" points="462,-136 462,-166 634,-166 634,-136 462,-136"/>
<text text-anchor="start" x="470" y="-154" font-family="Helvetica,sans-Serif" font-size="10.00">koala.Spreadsheet.Spreadsheet.get</text>
<text text-anchor="middle" x="548" y="-143" font-family="Helvetica,sans-Serif" font-size="10.00">_pointer_arguments_from_ast</text>
</a>
</g>
</g>
<!-- Node26&#45;&gt;Node27 -->
<g id="edge24" class="edge"><title>Node26&#45;&gt;Node27</title>
<path fill="none" stroke="midnightblue" d="M670.727,-151C658.586,-151 646.221,-151 634.252,-151"/>
<polygon fill="midnightblue" stroke="midnightblue" points="670.859,-154.5 680.859,-151 670.859,-147.5 670.859,-154.5"/>
</g>
<!-- Node27&#45;&gt;Node27 -->
<g id="edge27" class="edge"><title>Node27&#45;&gt;Node27</title>
<path fill="none" stroke="midnightblue" d="M586.736,-176.458C581.928,-181.179 569.016,-184.5 548,-184.5 513.512,-184.5 500.848,-175.557 510.009,-166.159"/>
<polygon fill="midnightblue" stroke="midnightblue" points="590.203,-175.88 585.991,-166.159 583.222,-176.385 590.203,-175.88"/>
</g>
<!-- Node28 -->
<g id="node22" class="node"><title>Node28</title>
<g id="a_node22"><a xlink:href="classkoala_1_1_spreadsheet_1_1_spreadsheet.html#a6f233266d3e106c54dc37886dba18e9a" target="_top" xlink:title=" ">
<polygon fill="white" stroke="black" points="231.5,-136 231.5,-166 404.5,-166 404.5,-136 231.5,-136"/>
<text text-anchor="start" x="239.5" y="-154" font-family="Helvetica,sans-Serif" font-size="10.00">koala.Spreadsheet.Spreadsheet.find</text>
<text text-anchor="middle" x="318" y="-143" font-family="Helvetica,sans-Serif" font-size="10.00">_pointer_arguments</text>
</a>
</g>
</g>
<!-- Node27&#45;&gt;Node28 -->
<g id="edge25" class="edge"><title>Node27&#45;&gt;Node28</title>
<path fill="none" stroke="midnightblue" d="M451.661,-151C436.144,-151 420.152,-151 404.879,-151"/>
<polygon fill="midnightblue" stroke="midnightblue" points="451.777,-154.5 461.777,-151 451.777,-147.5 451.777,-154.5"/>
</g>
<!-- Node29 -->
<g id="node23" class="node"><title>Node29</title>
<g id="a_node23"><a xlink:href="classkoala_1_1_spreadsheet_1_1_spreadsheet.html#a988fc1ddf090bf9746135ce759907a5a" target="_top" xlink:title=" ">
<polygon fill="white" stroke="black" points="0,-136 0,-166 185,-166 185,-136 0,-136"/>
<text text-anchor="start" x="8" y="-154" font-family="Helvetica,sans-Serif" font-size="10.00">koala.Spreadsheet.Spreadsheet.detect</text>
<text text-anchor="middle" x="92.5" y="-143" font-family="Helvetica,sans-Serif" font-size="10.00">_alive</text>
</a>
</g>
</g>
<!-- Node28&#45;&gt;Node29 -->
<g id="edge26" class="edge"><title>Node28&#45;&gt;Node29</title>
<path fill="none" stroke="midnightblue" d="M220.932,-151C209.13,-151 197.091,-151 185.353,-151"/>
<polygon fill="midnightblue" stroke="midnightblue" points="221.228,-154.5 231.228,-151 221.228,-147.5 221.228,-154.5"/>
</g>
</g>
</svg>
