<?xml version="1.0" encoding="UTF-8" standalone="no"?>
<!DOCTYPE svg PUBLIC "-//W3C//DTD SVG 1.1//EN"
 "http://www.w3.org/Graphics/SVG/1.1/DTD/svg11.dtd">
<!-- Generated by graphviz version 2.38.0 (20140413.2041)
 -->
<!-- Title: koala.ast.graph_from_seeds Pages: 1 -->
<svg width="590pt" height="369pt"
 viewBox="0.00 0.00 590.00 368.50" xmlns="http://www.w3.org/2000/svg" xmlns:xlink="http://www.w3.org/1999/xlink">
<g id="graph0" class="graph" transform="scale(1 1) rotate(0) translate(4 364.5)">
<title>koala.ast.graph_from_seeds</title>
<polygon fill="white" stroke="none" points="-4,4 -4,-364.5 586,-364.5 586,4 -4,4"/>
<!-- Node45 -->
<g id="node1" class="node"><title>Node45</title>
<g id="a_node1"><a xlink:title=" ">
<polygon fill="#bfbfbf" stroke="black" points="0,-153 0,-183 107,-183 107,-153 0,-153"/>
<text text-anchor="start" x="8" y="-171" font-family="Helvetica,sans-Serif" font-size="10.00">koala.ast.graph_from</text>
<text text-anchor="middle" x="53.5" y="-160" font-family="Helvetica,sans-Serif" font-size="10.00">_seeds</text>
</a>
</g>
</g>
<!-- Node46 -->
<g id="node2" class="node"><title>Node46</title>
<g id="a_node2"><a xlink:href="namespacekoala_1_1ast.html#abb76e7037309a032effde5e5078a86e2" target="_top" xlink:title=" ">
<polygon fill="white" stroke="black" points="158.5,-272.5 158.5,-291.5 259.5,-291.5 259.5,-272.5 158.5,-272.5"/>
<text text-anchor="middle" x="209" y="-279.5" font-family="Helvetica,sans-Serif" font-size="10.00">koala.ast.cell2code</text>
</a>
</g>
</g>
<!-- Node45&#45;&gt;Node46 -->
<g id="edge1" class="edge"><title>Node45&#45;&gt;Node46</title>
<path fill="none" stroke="midnightblue" d="M64.6298,-183.218C79.403,-204.238 108.849,-241.94 143,-263 146.393,-265.092 150.028,-266.964 153.78,-268.636"/>
<polygon fill="midnightblue" stroke="midnightblue" points="152.694,-271.97 163.28,-272.395 155.269,-265.461 152.694,-271.97"/>
</g>
<!-- Node51 -->
<g id="node7" class="node"><title>Node51</title>
<g id="a_node7"><a xlink:href="namespacekoala_1_1utils.html#ac7f70de24f29847f700db5eb4cad018c" target="_top" xlink:title=" ">
<polygon fill="white" stroke="black" points="158,-234.5 158,-253.5 260,-253.5 260,-234.5 158,-234.5"/>
<text text-anchor="middle" x="209" y="-241.5" font-family="Helvetica,sans-Serif" font-size="10.00">koala.utils.uniqueify</text>
</a>
</g>
</g>
<!-- Node45&#45;&gt;Node51 -->
<g id="edge6" class="edge"><title>Node45&#45;&gt;Node51</title>
<path fill="none" stroke="midnightblue" d="M77.5463,-183.073C95.0551,-194.142 119.971,-209.089 143,-220 151.293,-223.929 160.416,-227.648 169.138,-230.933"/>
<polygon fill="midnightblue" stroke="midnightblue" points="168.154,-234.3 178.748,-234.445 170.557,-227.725 168.154,-234.3"/>
</g>
<!-- Node52 -->
<g id="node8" class="node"><title>Node52</title>
<g id="a_node8"><a xlink:href="namespacekoala_1_1utils.html#a152ac1827f4fdbd036d6e67cdf3acebb" target="_top" xlink:title=" ">
<polygon fill="white" stroke="black" points="321.5,-196.5 321.5,-215.5 422.5,-215.5 422.5,-196.5 321.5,-196.5"/>
<text text-anchor="middle" x="372" y="-203.5" font-family="Helvetica,sans-Serif" font-size="10.00">koala.utils.is_range</text>
</a>
</g>
</g>
<!-- Node45&#45;&gt;Node52 -->
<g id="edge7" class="edge"><title>Node45&#45;&gt;Node52</title>
<path fill="none" stroke="midnightblue" d="M107.316,-176.816C119.048,-178.645 131.433,-180.477 143,-182 199.865,-189.486 264.954,-196.148 310.991,-200.543"/>
<polygon fill="midnightblue" stroke="midnightblue" points="310.812,-204.041 321.097,-201.5 311.472,-197.073 310.812,-204.041"/>
</g>
<!-- Node53 -->
<g id="node9" class="node"><title>Node53</title>
<g id="a_node9"><a xlink:href="namespacekoala_1_1ast.html#a3d0179539d74f2668d3917bf28d2edd8" target="_top" xlink:title=" ">
<polygon fill="white" stroke="black" points="146,-310.5 146,-329.5 272,-329.5 272,-310.5 146,-310.5"/>
<text text-anchor="middle" x="209" y="-317.5" font-family="Helvetica,sans-Serif" font-size="10.00">koala.ast.prepare_pointer</text>
</a>
</g>
</g>
<!-- Node45&#45;&gt;Node53 -->
<g id="edge8" class="edge"><title>Node45&#45;&gt;Node53</title>
<path fill="none" stroke="midnightblue" d="M60.4648,-183.299C72.0633,-211.029 100.322,-269.619 143,-301 145.652,-302.95 148.502,-304.701 151.474,-306.273"/>
<polygon fill="midnightblue" stroke="midnightblue" points="150.132,-309.507 160.683,-310.471 153.036,-303.138 150.132,-309.507"/>
</g>
<!-- Node54 -->
<g id="node10" class="node"><title>Node54</title>
<g id="a_node10"><a xlink:href="namespacekoala_1_1utils.html#a1d3620df245d23fea05928298cabc2ac" target="_top" xlink:title=" ">
<polygon fill="white" stroke="black" points="162,-109 162,-139 256,-139 256,-109 162,-109"/>
<text text-anchor="start" x="170" y="-127" font-family="Helvetica,sans-Serif" font-size="10.00">koala.utils.resolve</text>
<text text-anchor="middle" x="209" y="-116" font-family="Helvetica,sans-Serif" font-size="10.00">_range</text>
</a>
</g>
</g>
<!-- Node45&#45;&gt;Node54 -->
<g id="edge12" class="edge"><title>Node45&#45;&gt;Node54</title>
<path fill="none" stroke="midnightblue" d="M106.897,-152.981C121.433,-148.814 137.27,-144.274 152.004,-140.051"/>
<polygon fill="midnightblue" stroke="midnightblue" points="153.35,-143.306 161.999,-137.186 151.421,-136.577 153.35,-143.306"/>
</g>
<!-- Node56 -->
<g id="node12" class="node"><title>Node56</title>
<g id="a_node12"><a xlink:href="namespacekoala_1_1utils.html#a5c70ac45916995934736ab28b501c8c5" target="_top" xlink:title=" ">
<polygon fill="white" stroke="black" points="311,-158.5 311,-177.5 433,-177.5 433,-158.5 311,-158.5"/>
<text text-anchor="middle" x="372" y="-165.5" font-family="Helvetica,sans-Serif" font-size="10.00">koala.utils.split_address</text>
</a>
</g>
</g>
<!-- Node45&#45;&gt;Node56 -->
<g id="edge19" class="edge"><title>Node45&#45;&gt;Node56</title>
<path fill="none" stroke="midnightblue" d="M107.119,-168C160.099,-168 242.148,-168 300.683,-168"/>
<polygon fill="midnightblue" stroke="midnightblue" points="300.96,-171.5 310.96,-168 300.96,-164.5 300.96,-171.5"/>
</g>
<!-- Node57 -->
<g id="node13" class="node"><title>Node57</title>
<g id="a_node13"><a xlink:href="namespacekoala_1_1utils.html#a65476c62402a00e3d46dbc99b6a4ea88" target="_top" xlink:title=" ">
<polygon fill="white" stroke="black" points="321.5,-44.5 321.5,-63.5 422.5,-63.5 422.5,-44.5 321.5,-44.5"/>
<text text-anchor="middle" x="372" y="-51.5" font-family="Helvetica,sans-Serif" font-size="10.00">koala.utils.col2num</text>
</a>
</g>
</g>
<!-- Node45&#45;&gt;Node57 -->
<g id="edge22" class="edge"><title>Node45&#45;&gt;Node57</title>
<path fill="none" stroke="midnightblue" d="M61.6989,-152.796C74.2572,-128.266 102.727,-80.714 143,-61 196.131,-34.9918 264.885,-36.9517 312.941,-43.0961"/>
<polygon fill="midnightblue" stroke="midnightblue" points="312.485,-46.5661 322.869,-44.4622 313.439,-39.6315 312.485,-46.5661"/>
</g>
<!-- Node59 -->
<g id="node15" class="node"><title>Node59</title>
<g id="a_node15"><a xlink:href="namespacekoala_1_1utils.html#aabb45efe6343cf3795888c77a434d47d" target="_top" xlink:title=" ">
<polygon fill="white" stroke="black" points="327,-0.5 327,-19.5 417,-19.5 417,-0.5 327,-0.5"/>
<text text-anchor="middle" x="372" y="-7.5" font-family="Helvetica,sans-Serif" font-size="10.00">koala.utils.flatten</text>
</a>
</g>
</g>
<!-- Node45&#45;&gt;Node59 -->
<g id="edge23" class="edge"><title>Node45&#45;&gt;Node59</title>
<path fill="none" stroke="midnightblue" d="M59.6774,-152.983C70.3122,-124.654 97.5159,-63.6904 143,-36 195.579,-3.99013 267.745,-1.14841 316.701,-3.92621"/>
<polygon fill="midnightblue" stroke="midnightblue" points="316.569,-7.42513 326.78,-4.59578 317.034,-0.440521 316.569,-7.42513"/>
</g>
<!-- Node60 -->
<g id="node16" class="node"><title>Node60</title>
<g id="a_node16"><a xlink:href="namespacekoala_1_1utils.html#a71673869f44a8e5ee678759d1c099ada" target="_top" xlink:title=" ">
<polygon fill="white" stroke="black" points="143,-70.5 143,-89.5 275,-89.5 275,-70.5 143,-70.5"/>
<text text-anchor="middle" x="209" y="-77.5" font-family="Helvetica,sans-Serif" font-size="10.00">koala.utils.max_dimension</text>
</a>
</g>
</g>
<!-- Node45&#45;&gt;Node60 -->
<g id="edge20" class="edge"><title>Node45&#45;&gt;Node60</title>
<path fill="none" stroke="midnightblue" d="M70.1711,-152.742C86.9299,-137.196 114.908,-113.387 143,-99 147.349,-96.7726 152,-94.7677 156.739,-92.9716"/>
<polygon fill="midnightblue" stroke="midnightblue" points="158.224,-96.1609 166.523,-89.5741 155.928,-89.5482 158.224,-96.1609"/>
</g>
<!-- Node47 -->
<g id="node3" class="node"><title>Node47</title>
<g id="a_node3"><a xlink:href="namespacekoala_1_1_range.html#a6a4a2138705cb8cc069ddf925e74d2c1" target="_top" xlink:title=" ">
<polygon fill="white" stroke="black" points="313,-330 313,-360 431,-360 431,-330 313,-330"/>
<text text-anchor="start" x="321" y="-348" font-family="Helvetica,sans-Serif" font-size="10.00">koala.Range.parse_cell</text>
<text text-anchor="middle" x="372" y="-337" font-family="Helvetica,sans-Serif" font-size="10.00">_address</text>
</a>
</g>
</g>
<!-- Node46&#45;&gt;Node47 -->
<g id="edge2" class="edge"><title>Node46&#45;&gt;Node47</title>
<path fill="none" stroke="midnightblue" d="M247.564,-291.584C256.666,-294.288 266.283,-297.468 275,-301 291.767,-307.795 294.633,-312.291 311,-320 315.131,-321.946 319.456,-323.902 323.809,-325.815"/>
<polygon fill="midnightblue" stroke="midnightblue" points="322.754,-329.171 333.322,-329.916 325.525,-322.743 322.754,-329.171"/>
</g>
<!-- Node48 -->
<g id="node4" class="node"><title>Node48</title>
<g id="a_node4"><a xlink:href="namespacekoala_1_1ast.html#a76e6cdc1c1338001a6d0c4ac4a038087" target="_top" xlink:title=" ">
<polygon fill="white" stroke="black" points="312,-291.5 312,-310.5 432,-310.5 432,-291.5 312,-291.5"/>
<text text-anchor="middle" x="372" y="-298.5" font-family="Helvetica,sans-Serif" font-size="10.00">koala.ast.shunting_yard</text>
</a>
</g>
</g>
<!-- Node46&#45;&gt;Node48 -->
<g id="edge3" class="edge"><title>Node46&#45;&gt;Node48</title>
<path fill="none" stroke="midnightblue" d="M259.619,-287.856C272.927,-289.426 287.563,-291.153 301.726,-292.825"/>
<polygon fill="midnightblue" stroke="midnightblue" points="301.588,-296.333 311.929,-294.029 302.408,-289.381 301.588,-296.333"/>
</g>
<!-- Node50 -->
<g id="node6" class="node"><title>Node50</title>
<g id="a_node6"><a xlink:href="namespacekoala_1_1ast.html#a36277633c59487f9b1c1b256df41e942" target="_top" xlink:title=" ">
<polygon fill="white" stroke="black" points="323,-253.5 323,-272.5 421,-272.5 421,-253.5 323,-253.5"/>
<text text-anchor="middle" x="372" y="-260.5" font-family="Helvetica,sans-Serif" font-size="10.00">koala.ast.build_ast</text>
</a>
</g>
</g>
<!-- Node46&#45;&gt;Node50 -->
<g id="edge5" class="edge"><title>Node46&#45;&gt;Node50</title>
<path fill="none" stroke="midnightblue" d="M259.619,-276.144C276.456,-274.157 295.418,-271.92 312.859,-269.861"/>
<polygon fill="midnightblue" stroke="midnightblue" points="313.404,-273.321 322.925,-268.673 312.583,-266.37 313.404,-273.321"/>
</g>
<!-- Node49 -->
<g id="node5" class="node"><title>Node49</title>
<g id="a_node5"><a xlink:href="namespacekoala_1_1ast.html#a39876c353cfbf071723ede9b5a59eda4" target="_top" xlink:title=" ">
<polygon fill="white" stroke="black" points="469,-291.5 469,-310.5 582,-310.5 582,-291.5 469,-291.5"/>
<text text-anchor="middle" x="525.5" y="-298.5" font-family="Helvetica,sans-Serif" font-size="10.00">koala.ast.create_node</text>
</a>
</g>
</g>
<!-- Node48&#45;&gt;Node49 -->
<g id="edge4" class="edge"><title>Node48&#45;&gt;Node49</title>
<path fill="none" stroke="midnightblue" d="M432.008,-301C440.726,-301 449.756,-301 458.604,-301"/>
<polygon fill="midnightblue" stroke="midnightblue" points="458.877,-304.5 468.877,-301 458.877,-297.5 458.877,-304.5"/>
</g>
<!-- Node53&#45;&gt;Node47 -->
<g id="edge9" class="edge"><title>Node53&#45;&gt;Node47</title>
<path fill="none" stroke="midnightblue" d="M271.326,-329.523C281.63,-331.123 292.378,-332.792 302.842,-334.416"/>
<polygon fill="midnightblue" stroke="midnightblue" points="302.344,-337.881 312.762,-335.957 303.418,-330.964 302.344,-337.881"/>
</g>
<!-- Node53&#45;&gt;Node48 -->
<g id="edge10" class="edge"><title>Node53&#45;&gt;Node48</title>
<path fill="none" stroke="midnightblue" d="M272.247,-312.654C281.901,-311.515 291.925,-310.332 301.722,-309.176"/>
<polygon fill="midnightblue" stroke="midnightblue" points="302.305,-312.631 311.826,-307.983 301.484,-305.68 302.305,-312.631"/>
</g>
<!-- Node53&#45;&gt;Node50 -->
<g id="edge11" class="edge"><title>Node53&#45;&gt;Node50</title>
<path fill="none" stroke="midnightblue" d="M247.564,-310.416C256.666,-307.712 266.283,-304.532 275,-301 291.767,-294.205 294.309,-288.981 311,-282 316.36,-279.758 322.082,-277.628 327.784,-275.66"/>
<polygon fill="midnightblue" stroke="midnightblue" points="328.902,-278.976 337.294,-272.509 326.701,-272.331 328.902,-278.976"/>
</g>
<!-- Node54&#45;&gt;Node52 -->
<g id="edge14" class="edge"><title>Node54&#45;&gt;Node52</title>
<path fill="none" stroke="midnightblue" d="M230.793,-139.147C250.624,-153.056 281.725,-173.496 311,-187 315.776,-189.203 320.878,-191.25 326.014,-193.121"/>
<polygon fill="midnightblue" stroke="midnightblue" points="325.261,-196.562 335.856,-196.497 327.533,-189.941 325.261,-196.562"/>
</g>
<!-- Node55 -->
<g id="node11" class="node"><title>Node55</title>
<g id="a_node11"><a xlink:href="namespacekoala_1_1utils.html#a77ace10251dde2f09a457b7b469208cc" target="_top" xlink:title=" ">
<polygon fill="white" stroke="black" points="316.5,-82.5 316.5,-101.5 427.5,-101.5 427.5,-82.5 316.5,-82.5"/>
<text text-anchor="middle" x="372" y="-89.5" font-family="Helvetica,sans-Serif" font-size="10.00">koala.utils.split_range</text>
</a>
</g>
</g>
<!-- Node54&#45;&gt;Node55 -->
<g id="edge13" class="edge"><title>Node54&#45;&gt;Node55</title>
<path fill="none" stroke="midnightblue" d="M256.136,-114.83C273.937,-111.292 294.497,-107.205 313.261,-103.476"/>
<polygon fill="midnightblue" stroke="midnightblue" points="314.051,-106.888 323.177,-101.505 312.686,-100.022 314.051,-106.888"/>
</g>
<!-- Node54&#45;&gt;Node56 -->
<g id="edge15" class="edge"><title>Node54&#45;&gt;Node56</title>
<path fill="none" stroke="midnightblue" d="M256.136,-136.609C278.215,-142.643 304.539,-149.837 326.414,-155.815"/>
<polygon fill="midnightblue" stroke="midnightblue" points="325.551,-159.207 336.12,-158.467 327.396,-152.455 325.551,-159.207"/>
</g>
<!-- Node54&#45;&gt;Node57 -->
<g id="edge16" class="edge"><title>Node54&#45;&gt;Node57</title>
<path fill="none" stroke="midnightblue" d="M253.707,-108.982C260.964,-105.983 268.302,-102.627 275,-99 292.355,-89.6014 293.369,-81.8694 311,-73 315.347,-70.8134 319.997,-68.8126 324.713,-66.9992"/>
<polygon fill="midnightblue" stroke="midnightblue" points="326.168,-70.1963 334.411,-63.5404 323.816,-63.6031 326.168,-70.1963"/>
</g>
<!-- Node58 -->
<g id="node14" class="node"><title>Node58</title>
<g id="a_node14"><a xlink:href="namespacekoala_1_1utils.html#a2037076cc5a6fbf884023917a0cbfca7" target="_top" xlink:title=" ">
<polygon fill="white" stroke="black" points="321.5,-120.5 321.5,-139.5 422.5,-139.5 422.5,-120.5 321.5,-120.5"/>
<text text-anchor="middle" x="372" y="-127.5" font-family="Helvetica,sans-Serif" font-size="10.00">koala.utils.num2col</text>
</a>
</g>
</g>
<!-- Node54&#45;&gt;Node58 -->
<g id="edge17" class="edge"><title>Node54&#45;&gt;Node58</title>
<path fill="none" stroke="midnightblue" d="M256.136,-125.719C273.305,-126.359 293.04,-127.095 311.255,-127.773"/>
<polygon fill="midnightblue" stroke="midnightblue" points="311.357,-131.28 321.481,-128.155 311.618,-124.284 311.357,-131.28"/>
</g>
<!-- Node54&#45;&gt;Node59 -->
<g id="edge18" class="edge"><title>Node54&#45;&gt;Node59</title>
<path fill="none" stroke="midnightblue" d="M256.311,-110.819C263.026,-107.638 269.512,-103.744 275,-99 299.69,-77.658 286.607,-56.6809 311,-35 316.044,-30.5172 322.005,-26.7645 328.179,-23.6455"/>
<polygon fill="midnightblue" stroke="midnightblue" points="329.63,-26.8307 337.297,-19.5181 326.744,-20.4537 329.63,-26.8307"/>
</g>
<!-- Node60&#45;&gt;Node57 -->
<g id="edge21" class="edge"><title>Node60&#45;&gt;Node57</title>
<path fill="none" stroke="midnightblue" d="M269.036,-70.4662C282.902,-68.227 297.684,-65.8399 311.567,-63.5979"/>
<polygon fill="midnightblue" stroke="midnightblue" points="312.177,-67.0448 321.491,-61.9953 311.061,-60.1344 312.177,-67.0448"/>
</g>
</g>
</svg>
