<?xml version="1.0" encoding="UTF-8" standalone="no"?>
<!DOCTYPE svg PUBLIC "-//W3C//DTD SVG 1.1//EN"
 "http://www.w3.org/Graphics/SVG/1.1/DTD/svg11.dtd">
<!-- Generated by graphviz version 2.38.0 (20140413.2041)
 -->
<!-- Title: koala.utils.is_almost_equal Pages: 1 -->
<!--zoomable 230 -->
<svg id="main" version="1.1" xmlns="http://www.w3.org/2000/svg" xmlns:xlink="http://www.w3.org/1999/xlink" xml:space="preserve" onload="init(evt)">
<style type="text/css"><![CDATA[
.edge:hover path { stroke: red; }
.edge:hover polygon { stroke: red; fill: red; }
]]></style>
<script type="text/javascript"><![CDATA[
var edges = document.getElementsByTagName('g');
if (edges && edges.length) {
  for (var i=0;i<edges.length;i++) {
    if (edges[i].id.substr(0,4)=='edge') {
      edges[i].setAttribute('class','edge');
    }
  }
}
]]></script>
        <defs>
                <circle id="rim" cx="0" cy="0" r="7"/>
                <circle id="rim2" cx="0" cy="0" r="3.5"/>
                <g id="zoomPlus">
                        <use xlink:href="#rim" fill="#404040">
                                <set attributeName="fill" to="#808080" begin="zoomplus.mouseover" end="zoomplus.mouseout"/>
                        </use>
                        <path d="M-4,0h8M0,-4v8" fill="none" stroke="white" stroke-width="1.5" pointer-events="none"/>
                </g>
                <g id="zoomMin">
                        <use xlink:href="#rim" fill="#404040">
                                <set attributeName="fill" to="#808080" begin="zoomminus.mouseover" end="zoomminus.mouseout"/>
                        </use>
                        <path d="M-4,0h8" fill="none" stroke="white" stroke-width="1.5" pointer-events="none"/>
                </g>
                <g id="dirArrow">
                        <path fill="none" stroke="white" stroke-width="1.5" d="M0,-3.0v7 M-2.5,-0.5L0,-3.0L2.5,-0.5"/>
                </g>
               <g id="resetDef">
                       <use xlink:href="#rim2" fill="#404040">
                               <set attributeName="fill" to="#808080" begin="reset.mouseover" end="reset.mouseout"/>
                       </use>
               </g>
        </defs>

<script type="text/javascript">
var viewWidth = 1464;
var viewHeight = 230;
var sectionId = 'dynsection-19';
</script>
<script xlink:href="svgpan.js"/>
<svg id="graph" class="graph">
<g id="viewport">
<title>koala.utils.is_almost_equal</title>
<polygon fill="white" stroke="none" points="-4,4 -4,-226 1460,-226 1460,4 -4,4"/>
<!-- Node98 -->
<g id="node1" class="node"><title>Node98</title>
<g id="a_node1"><a xlink:title=" ">
<polygon fill="#bfbfbf" stroke="black" points="1350,-117.5 1350,-147.5 1456,-147.5 1456,-117.5 1350,-117.5"/>
<text text-anchor="start" x="1358" y="-135.5" font-family="Helvetica,sans-Serif" font-size="10.00">koala.utils.is_almost</text>
<text text-anchor="middle" x="1403" y="-124.5" font-family="Helvetica,sans-Serif" font-size="10.00">_equal</text>
</a>
</g>
</g>
<!-- Node99 -->
<g id="node2" class="node"><title>Node99</title>
<g id="a_node2"><a xlink:href="classkoala_1_1_range_1_1_range_core.html#a06ded3b0da724d99e3804d4d2744f7a8" target="_top" xlink:title=" ">
<polygon fill="white" stroke="black" points="1161.5,-191.5 1161.5,-221.5 1293.5,-221.5 1293.5,-191.5 1161.5,-191.5"/>
<text text-anchor="start" x="1169.5" y="-209.5" font-family="Helvetica,sans-Serif" font-size="10.00">koala.Range.RangeCore.is</text>
<text text-anchor="middle" x="1227.5" y="-198.5" font-family="Helvetica,sans-Serif" font-size="10.00">_equal</text>
</a>
</g>
</g>
<!-- Node98&#45;&gt;Node99 -->
<g id="edge1" class="edge"><title>Node98&#45;&gt;Node99</title>
<path fill="none" stroke="midnightblue" d="M1370.28,-153.014C1353.95,-162.925 1333.43,-174.395 1314,-182.5 1306.17,-185.764 1297.76,-188.734 1289.38,-191.385"/>
<polygon fill="midnightblue" stroke="midnightblue" points="1372.22,-155.931 1378.89,-147.7 1368.54,-149.975 1372.22,-155.931"/>
</g>
<!-- Node100 -->
<g id="node3" class="node"><title>Node100</title>
<g id="a_node3"><a xlink:href="classkoala_1_1_range_1_1_range_core.html#a8773fb91d158e9b17e6a5df16ed8f00c" target="_top" xlink:title=" ">
<polygon fill="white" stroke="black" points="1161.5,-142.5 1161.5,-172.5 1293.5,-172.5 1293.5,-142.5 1161.5,-142.5"/>
<text text-anchor="start" x="1169.5" y="-160.5" font-family="Helvetica,sans-Serif" font-size="10.00">koala.Range.RangeCore.is</text>
<text text-anchor="middle" x="1227.5" y="-149.5" font-family="Helvetica,sans-Serif" font-size="10.00">_superior_or_equal</text>
</a>
</g>
</g>
<!-- Node98&#45;&gt;Node100 -->
<g id="edge2" class="edge"><title>Node98&#45;&gt;Node100</title>
<path fill="none" stroke="midnightblue" d="M1339.79,-141.464C1324.84,-143.618 1308.83,-145.925 1293.75,-148.098"/>
<polygon fill="midnightblue" stroke="midnightblue" points="1340.55,-144.891 1349.94,-140.001 1339.55,-137.963 1340.55,-144.891"/>
</g>
<!-- Node101 -->
<g id="node4" class="node"><title>Node101</title>
<g id="a_node4"><a xlink:href="classkoala_1_1_range_1_1_range_core.html#a59561675b3aed193d0492a43de52b852" target="_top" xlink:title=" ">
<polygon fill="white" stroke="black" points="1161.5,-93.5 1161.5,-123.5 1293.5,-123.5 1293.5,-93.5 1161.5,-93.5"/>
<text text-anchor="start" x="1169.5" y="-111.5" font-family="Helvetica,sans-Serif" font-size="10.00">koala.Range.RangeCore.is</text>
<text text-anchor="middle" x="1227.5" y="-100.5" font-family="Helvetica,sans-Serif" font-size="10.00">_inferior_or_equal</text>
</a>
</g>
</g>
<!-- Node98&#45;&gt;Node101 -->
<g id="edge3" class="edge"><title>Node98&#45;&gt;Node101</title>
<path fill="none" stroke="midnightblue" d="M1339.79,-123.894C1324.84,-121.826 1308.83,-119.612 1293.75,-117.526"/>
<polygon fill="midnightblue" stroke="midnightblue" points="1339.56,-127.396 1349.94,-125.299 1340.52,-120.462 1339.56,-127.396"/>
</g>
<!-- Node102 -->
<g id="node5" class="node"><title>Node102</title>
<g id="a_node5"><a xlink:href="classkoala_1_1_spreadsheet_1_1_spreadsheet.html#a8e83a93df65a29d4748b427cb4d77bb2" target="_top" xlink:title=" ">
<polygon fill="white" stroke="black" points="1141,-44.5 1141,-74.5 1314,-74.5 1314,-44.5 1141,-44.5"/>
<text text-anchor="start" x="1149" y="-62.5" font-family="Helvetica,sans-Serif" font-size="10.00">koala.Spreadsheet.Spreadsheet.cell</text>
<text text-anchor="middle" x="1227.5" y="-51.5" font-family="Helvetica,sans-Serif" font-size="10.00">_evaluate</text>
</a>
</g>
</g>
<!-- Node98&#45;&gt;Node102 -->
<g id="edge4" class="edge"><title>Node98&#45;&gt;Node102</title>
<path fill="none" stroke="midnightblue" d="M1368.65,-112.1C1352.54,-102.824 1332.69,-92.2235 1314,-84.5 1305.14,-80.8377 1295.55,-77.4829 1286.12,-74.5016"/>
<polygon fill="midnightblue" stroke="midnightblue" points="1367.27,-115.346 1377.67,-117.376 1370.8,-109.304 1367.27,-115.346"/>
</g>
<!-- Node103 -->
<g id="node6" class="node"><title>Node103</title>
<g id="a_node6"><a xlink:href="classkoala_1_1_spreadsheet_1_1_spreadsheet.html#adec88c8b31c94969a557cf572ee13c44" target="_top" xlink:title=" ">
<polygon fill="white" stroke="black" points="911,-50 911,-69 1105,-69 1105,-50 911,-50"/>
<text text-anchor="middle" x="1008" y="-57" font-family="Helvetica,sans-Serif" font-size="10.00">koala.Spreadsheet.Spreadsheet.evaluate</text>
</a>
</g>
</g>
<!-- Node102&#45;&gt;Node103 -->
<g id="edge5" class="edge"><title>Node102&#45;&gt;Node103</title>
<path fill="none" stroke="midnightblue" d="M1130.67,-52.7925C1122.27,-52.737 1113.76,-52.7359 1105.36,-52.7891"/>
<polygon fill="midnightblue" stroke="midnightblue" points="1130.82,-56.294 1140.85,-52.8872 1130.88,-49.2943 1130.82,-56.294"/>
</g>
<!-- Node103&#45;&gt;Node102 -->
<g id="edge13" class="edge"><title>Node103&#45;&gt;Node102</title>
<path fill="none" stroke="midnightblue" d="M1115.37,-66.2486C1123.91,-66.2589 1132.48,-66.2136 1140.85,-66.1128"/>
<polygon fill="midnightblue" stroke="midnightblue" points="1115.37,-62.7486 1105.36,-66.2109 1115.34,-69.7486 1115.37,-62.7486"/>
</g>
<!-- Node104 -->
<g id="node7" class="node"><title>Node104</title>
<g id="a_node7"><a xlink:href="classkoala_1_1_spreadsheet_1_1_spreadsheet.html#aa7bdaffc24c26fbf18d5b752b7e49df2" target="_top" xlink:title=" ">
<polygon fill="white" stroke="black" points="694.5,-88.5 694.5,-118.5 867.5,-118.5 867.5,-88.5 694.5,-88.5"/>
<text text-anchor="start" x="702.5" y="-106.5" font-family="Helvetica,sans-Serif" font-size="10.00">koala.Spreadsheet.Spreadsheet.cell</text>
<text text-anchor="middle" x="781" y="-95.5" font-family="Helvetica,sans-Serif" font-size="10.00">_set_formula</text>
</a>
</g>
</g>
<!-- Node103&#45;&gt;Node104 -->
<g id="edge6" class="edge"><title>Node103&#45;&gt;Node104</title>
<path fill="none" stroke="midnightblue" d="M948.035,-71.0309C920.825,-76.352 888.166,-82.7387 859.039,-88.4346"/>
<polygon fill="midnightblue" stroke="midnightblue" points="949.036,-74.4016 958.178,-69.0473 947.692,-67.5317 949.036,-74.4016"/>
</g>
<!-- Node106 -->
<g id="node9" class="node"><title>Node106</title>
<g id="a_node9"><a xlink:href="classkoala_1_1_spreadsheet_1_1_spreadsheet.html#a5123890c167cf3b1e9e070886d635e74" target="_top" xlink:title=" ">
<polygon fill="white" stroke="black" points="460,-28 460,-47 651,-47 651,-28 460,-28"/>
<text text-anchor="middle" x="555.5" y="-35" font-family="Helvetica,sans-Serif" font-size="10.00">koala.Spreadsheet.Spreadsheet.eval_ref</text>
</a>
</g>
</g>
<!-- Node103&#45;&gt;Node106 -->
<g id="edge8" class="edge"><title>Node103&#45;&gt;Node106</title>
<path fill="none" stroke="midnightblue" d="M900.87,-54.3172C825.174,-50.6206 724.28,-45.6935 651.283,-42.1287"/>
<polygon fill="midnightblue" stroke="midnightblue" points="900.75,-57.8154 910.909,-54.8074 901.092,-50.8237 900.75,-57.8154"/>
</g>
<!-- Node109 -->
<g id="node12" class="node"><title>Node109</title>
<g id="a_node12"><a xlink:href="classkoala_1_1_spreadsheet_1_1_spreadsheet.html#ae7cc9bec504371c4034626c20eef4271" target="_top" xlink:title=" ">
<polygon fill="white" stroke="black" points="687,-0.5 687,-30.5 875,-30.5 875,-0.5 687,-0.5"/>
<text text-anchor="start" x="695" y="-18.5" font-family="Helvetica,sans-Serif" font-size="10.00">koala.Spreadsheet.Spreadsheet.update</text>
<text text-anchor="middle" x="781" y="-7.5" font-family="Helvetica,sans-Serif" font-size="10.00">_range</text>
</a>
</g>
</g>
<!-- Node103&#45;&gt;Node109 -->
<g id="edge11" class="edge"><title>Node103&#45;&gt;Node109</title>
<path fill="none" stroke="midnightblue" d="M948.035,-47.9691C920.825,-42.648 888.166,-36.2613 859.039,-30.5654"/>
<polygon fill="midnightblue" stroke="midnightblue" points="947.692,-51.4683 958.178,-49.9527 949.036,-44.5984 947.692,-51.4683"/>
</g>
<!-- Node105 -->
<g id="node8" class="node"><title>Node105</title>
<g id="a_node8"><a xlink:href="classkoala_1_1_spreadsheet_1_1_spreadsheet.html#af50724d01ff5b3ae09ecc1bdfbfb0fed" target="_top" xlink:title=" ">
<polygon fill="white" stroke="black" points="469.5,-88.5 469.5,-118.5 641.5,-118.5 641.5,-88.5 469.5,-88.5"/>
<text text-anchor="start" x="477.5" y="-106.5" font-family="Helvetica,sans-Serif" font-size="10.00">koala.Spreadsheet.Spreadsheet.set</text>
<text text-anchor="middle" x="555.5" y="-95.5" font-family="Helvetica,sans-Serif" font-size="10.00">_formula</text>
</a>
</g>
</g>
<!-- Node104&#45;&gt;Node105 -->
<g id="edge7" class="edge"><title>Node104&#45;&gt;Node105</title>
<path fill="none" stroke="midnightblue" d="M684.043,-103.5C669.955,-103.5 655.525,-103.5 641.673,-103.5"/>
<polygon fill="midnightblue" stroke="midnightblue" points="684.228,-107 694.228,-103.5 684.228,-100 684.228,-107"/>
</g>
<!-- Node107 -->
<g id="node10" class="node"><title>Node107</title>
<g id="a_node10"><a xlink:href="classkoala_1_1_spreadsheet_1_1_spreadsheet.html#ab55daaddb95ae9af8b490dabebf22092" target="_top" xlink:title=" ">
<polygon fill="white" stroke="black" points="230,-28 230,-47 424,-47 424,-28 230,-28"/>
<text text-anchor="middle" x="327" y="-35" font-family="Helvetica,sans-Serif" font-size="10.00">koala.Spreadsheet.Spreadsheet.cell_free</text>
</a>
</g>
</g>
<!-- Node106&#45;&gt;Node107 -->
<g id="edge9" class="edge"><title>Node106&#45;&gt;Node107</title>
<path fill="none" stroke="midnightblue" d="M449.503,-37.5C441.062,-37.5 432.56,-37.5 424.185,-37.5"/>
<polygon fill="midnightblue" stroke="midnightblue" points="449.756,-41.0001 459.756,-37.5 449.756,-34.0001 449.756,-41.0001"/>
</g>
<!-- Node108 -->
<g id="node11" class="node"><title>Node108</title>
<g id="a_node11"><a xlink:href="classkoala_1_1_spreadsheet_1_1_spreadsheet.html#aebac3e8edbd3df53d783fd229aa95cf4" target="_top" xlink:title=" ">
<polygon fill="white" stroke="black" points="0,-28 0,-47 194,-47 194,-28 0,-28"/>
<text text-anchor="middle" x="97" y="-35" font-family="Helvetica,sans-Serif" font-size="10.00">koala.Spreadsheet.Spreadsheet.free_cell</text>
</a>
</g>
</g>
<!-- Node107&#45;&gt;Node108 -->
<g id="edge10" class="edge"><title>Node107&#45;&gt;Node108</title>
<path fill="none" stroke="midnightblue" d="M219.957,-37.5C211.395,-37.5 202.773,-37.5 194.286,-37.5"/>
<polygon fill="midnightblue" stroke="midnightblue" points="219.968,-41.0001 229.968,-37.5 219.968,-34.0001 219.968,-41.0001"/>
</g>
<!-- Node109&#45;&gt;Node106 -->
<g id="edge12" class="edge"><title>Node109&#45;&gt;Node106</title>
<path fill="none" stroke="midnightblue" d="M676.875,-25.651C668.355,-26.4896 659.768,-27.3349 651.313,-28.1672"/>
<polygon fill="midnightblue" stroke="midnightblue" points="677.225,-29.1335 686.834,-24.6707 676.539,-22.1672 677.225,-29.1335"/>
</g>
</g>
</svg>
        <g id="navigator" transform="translate(0 0)" fill="#404254">
                <rect fill="#f2f5e9" fill-opacity="0.5" stroke="#606060" stroke-width=".5" x="0" y="0" width="60" height="60"/>
                <use id="zoomplus" xlink:href="#zoomPlus" x="17" y="9" onmousedown="handleZoom(evt,'in')"/>
                <use id="zoomminus" xlink:href="#zoomMin" x="42" y="9" onmousedown="handleZoom(evt,'out')"/>
                <use id="reset" xlink:href="#resetDef" x="30" y="36" onmousedown="handleReset()"/>
                <g id="arrowUp" xlink:href="#dirArrow" transform="translate(30 24)" onmousedown="handlePan(0,-1)">
                  <use xlink:href="#rim" fill="#404040">
                        <set attributeName="fill" to="#808080" begin="arrowUp.mouseover" end="arrowUp.mouseout"/>
                  </use>
                  <path fill="none" stroke="white" stroke-width="1.5" d="M0,-3.0v7 M-2.5,-0.5L0,-3.0L2.5,-0.5"/>
                </g>
                <g id="arrowRight" xlink:href="#dirArrow" transform="rotate(90) translate(36 -43)" onmousedown="handlePan(1,0)">
                  <use xlink:href="#rim" fill="#404040">
                        <set attributeName="fill" to="#808080" begin="arrowRight.mouseover" end="arrowRight.mouseout"/>
                  </use>
                  <path fill="none" stroke="white" stroke-width="1.5" d="M0,-3.0v7 M-2.5,-0.5L0,-3.0L2.5,-0.5"/>
                </g>
                <g id="arrowDown" xlink:href="#dirArrow" transform="rotate(180) translate(-30 -48)" onmousedown="handlePan(0,1)">
                  <use xlink:href="#rim" fill="#404040">
                        <set attributeName="fill" to="#808080" begin="arrowDown.mouseover" end="arrowDown.mouseout"/>
                  </use>
                  <path fill="none" stroke="white" stroke-width="1.5" d="M0,-3.0v7 M-2.5,-0.5L0,-3.0L2.5,-0.5"/>
                </g>
                <g id="arrowLeft" xlink:href="#dirArrow" transform="rotate(270) translate(-36 17)" onmousedown="handlePan(-1,0)">
                  <use xlink:href="#rim" fill="#404040">
                        <set attributeName="fill" to="#808080" begin="arrowLeft.mouseover" end="arrowLeft.mouseout"/>
                  </use>
                  <path fill="none" stroke="white" stroke-width="1.5" d="M0,-3.0v7 M-2.5,-0.5L0,-3.0L2.5,-0.5"/>
                </g>
        </g>
        <svg viewBox="0 0 15 15" width="100%" height="30px" preserveAspectRatio="xMaxYMin meet">
         <g id="arrow_out" transform="scale(0.3 0.3)">
          <a xlink:href="namespacekoala_1_1utils_a1585473b2fb474970dbc49794309a0e6_icgraph_org.svg" target="_base">
           <rect id="button" ry="5" rx="5" y="6" x="6" height="38" width="38"
                fill="#f2f5e9" fill-opacity="0.5" stroke="#606060" stroke-width="1.0"/>
           <path id="arrow"
             d="M 11.500037,31.436501 C 11.940474,20.09759 22.043105,11.32322 32.158766,21.979434 L 37.068811,17.246167 C 37.068811,17.246167 37.088388,32 37.088388,32 L 22.160133,31.978069 C 22.160133,31.978069 26.997745,27.140456 26.997745,27.140456 C 18.528582,18.264221 13.291696,25.230495 11.500037,31.436501 z"
             style="fill:#404040;"/>
          </a>
         </g>
        </svg>
</svg>
