<?xml version="1.0" encoding="UTF-8" standalone="no"?>
<!DOCTYPE svg PUBLIC "-//W3C//DTD SVG 1.1//EN"
 "http://www.w3.org/Graphics/SVG/1.1/DTD/svg11.dtd">
<!-- Generated by graphviz version 2.38.0 (20140413.2041)
 -->
<!-- Title: koala.excellib.date Pages: 1 -->
<svg width="709pt" height="72pt"
 viewBox="0.00 0.00 709.00 71.50" xmlns="http://www.w3.org/2000/svg" xmlns:xlink="http://www.w3.org/1999/xlink">
<g id="graph0" class="graph" transform="scale(1 1) rotate(0) translate(4 67.5)">
<title>koala.excellib.date</title>
<polygon fill="white" stroke="none" points="-4,4 -4,-67.5 705,-67.5 705,4 -4,4"/>
<!-- Node32 -->
<g id="node1" class="node"><title>Node32</title>
<g id="a_node1"><a xlink:title=" ">
<polygon fill="#bfbfbf" stroke="black" points="0,-16.5 0,-35.5 98,-35.5 98,-16.5 0,-16.5"/>
<text text-anchor="middle" x="49" y="-23.5" font-family="Helvetica,sans-Serif" font-size="10.00">koala.excellib.date</text>
</a>
</g>
</g>
<!-- Node33 -->
<g id="node2" class="node"><title>Node33</title>
<g id="a_node2"><a xlink:href="namespacekoala_1_1utils.html#a6a29ca0b64c84fe42f7d41190820477c" target="_top" xlink:title=" ">
<polygon fill="white" stroke="black" points="134,-16.5 134,-35.5 264,-35.5 264,-16.5 134,-16.5"/>
<text text-anchor="middle" x="199" y="-23.5" font-family="Helvetica,sans-Serif" font-size="10.00">koala.utils.normalize_year</text>
</a>
</g>
</g>
<!-- Node32&#45;&gt;Node33 -->
<g id="edge1" class="edge"><title>Node32&#45;&gt;Node33</title>
<path fill="none" stroke="midnightblue" d="M98.0514,-26C106.241,-26 114.917,-26 123.599,-26"/>
<polygon fill="midnightblue" stroke="midnightblue" points="123.767,-29.5001 133.767,-26 123.767,-22.5001 123.767,-29.5001"/>
</g>
<!-- Node34 -->
<g id="node3" class="node"><title>Node34</title>
<g id="a_node3"><a xlink:href="namespacekoala_1_1utils.html#a6ca2acad4db5fefe21c0941c1622f5e4" target="_top" xlink:title=" ">
<polygon fill="white" stroke="black" points="300,-33 300,-63 401,-63 401,-33 300,-33"/>
<text text-anchor="start" x="308" y="-51" font-family="Helvetica,sans-Serif" font-size="10.00">koala.utils.get_max</text>
<text text-anchor="middle" x="350.5" y="-40" font-family="Helvetica,sans-Serif" font-size="10.00">_days_in_month</text>
</a>
</g>
</g>
<!-- Node33&#45;&gt;Node34 -->
<g id="edge2" class="edge"><title>Node33&#45;&gt;Node34</title>
<path fill="none" stroke="midnightblue" d="M264.269,-35.4577C272.709,-36.6996 281.33,-37.9683 289.691,-39.1987"/>
<polygon fill="midnightblue" stroke="midnightblue" points="289.329,-42.683 299.732,-40.6762 290.348,-35.7575 289.329,-42.683"/>
</g>
<!-- Node36 -->
<g id="node5" class="node"><title>Node36</title>
<g id="a_node5"><a xlink:href="namespacekoala_1_1utils.html#aa5132ee97ef859e71f955428648f3359" target="_top" xlink:title=" ">
<polygon fill="white" stroke="black" points="437,-0.5 437,-19.5 556,-19.5 556,-0.5 437,-0.5"/>
<text text-anchor="middle" x="496.5" y="-7.5" font-family="Helvetica,sans-Serif" font-size="10.00">koala.utils.is_leap_year</text>
</a>
</g>
</g>
<!-- Node33&#45;&gt;Node36 -->
<g id="edge6" class="edge"><title>Node33&#45;&gt;Node36</title>
<path fill="none" stroke="midnightblue" d="M264.119,-22.5282C311.978,-19.9369 377.292,-16.4004 426.324,-13.7456"/>
<polygon fill="midnightblue" stroke="midnightblue" points="426.732,-17.2287 436.528,-13.1931 426.353,-10.239 426.732,-17.2287"/>
</g>
<!-- Node35 -->
<g id="node4" class="node"><title>Node35</title>
<g id="a_node4"><a xlink:href="namespacekoala_1_1utils.html#af016160edea2b46cb26db3ed307c9648" target="_top" xlink:title=" ">
<polygon fill="white" stroke="black" points="592,-19.5 592,-38.5 701,-38.5 701,-19.5 592,-19.5"/>
<text text-anchor="middle" x="646.5" y="-26.5" font-family="Helvetica,sans-Serif" font-size="10.00">koala.utils.is_number</text>
</a>
</g>
</g>
<!-- Node34&#45;&gt;Node35 -->
<g id="edge3" class="edge"><title>Node34&#45;&gt;Node35</title>
<path fill="none" stroke="midnightblue" d="M401.041,-44.7984C450.699,-41.5892 527.362,-36.6348 581.578,-33.131"/>
<polygon fill="midnightblue" stroke="midnightblue" points="582.014,-36.6102 591.768,-32.4725 581.563,-29.6248 582.014,-36.6102"/>
</g>
<!-- Node34&#45;&gt;Node36 -->
<g id="edge4" class="edge"><title>Node34&#45;&gt;Node36</title>
<path fill="none" stroke="midnightblue" d="M401.057,-34.9226C416.807,-30.7663 434.148,-26.19 449.627,-22.1054"/>
<polygon fill="midnightblue" stroke="midnightblue" points="450.718,-25.4375 459.494,-19.5017 448.932,-18.6692 450.718,-25.4375"/>
</g>
<!-- Node36&#45;&gt;Node35 -->
<g id="edge5" class="edge"><title>Node36&#45;&gt;Node35</title>
<path fill="none" stroke="midnightblue" d="M556.419,-17.5639C564.671,-18.6233 573.185,-19.7163 581.526,-20.7871"/>
<polygon fill="midnightblue" stroke="midnightblue" points="581.22,-24.2765 591.584,-22.0784 582.112,-17.3335 581.22,-24.2765"/>
</g>
</g>
</svg>
