<?xml version="1.0" encoding="UTF-8" standalone="no"?>
<!DOCTYPE svg PUBLIC "-//W3C//DTD SVG 1.1//EN"
 "http://www.w3.org/Graphics/SVG/1.1/DTD/svg11.dtd">
<!-- Generated by graphviz version 2.38.0 (20140413.2041)
 -->
<!-- Title: koala.excellib.year Pages: 1 -->
<svg width="701pt" height="135pt"
 viewBox="0.00 0.00 701.00 134.50" xmlns="http://www.w3.org/2000/svg" xmlns:xlink="http://www.w3.org/1999/xlink">
<g id="graph0" class="graph" transform="scale(1 1) rotate(0) translate(4 130.5)">
<title>koala.excellib.year</title>
<polygon fill="white" stroke="none" points="-4,4 -4,-130.5 697,-130.5 697,4 -4,4"/>
<!-- Node174 -->
<g id="node1" class="node"><title>Node174</title>
<g id="a_node1"><a xlink:title=" ">
<polygon fill="#bfbfbf" stroke="black" points="0,-107 0,-126 98,-126 98,-107 0,-107"/>
<text text-anchor="middle" x="49" y="-114" font-family="Helvetica,sans-Serif" font-size="10.00">koala.excellib.year</text>
</a>
</g>
</g>
<!-- Node175 -->
<g id="node2" class="node"><title>Node175</title>
<g id="a_node2"><a xlink:href="namespacekoala_1_1utils.html#af016160edea2b46cb26db3ed307c9648" target="_top" xlink:title=" ">
<polygon fill="white" stroke="black" points="584,-69 584,-88 693,-88 693,-69 584,-69"/>
<text text-anchor="middle" x="638.5" y="-76" font-family="Helvetica,sans-Serif" font-size="10.00">koala.utils.is_number</text>
</a>
</g>
</g>
<!-- Node174&#45;&gt;Node175 -->
<g id="edge1" class="edge"><title>Node174&#45;&gt;Node175</title>
<path fill="none" stroke="midnightblue" d="M98.2951,-117.39C187.507,-118.427 384.006,-117.883 548,-97.5 561.566,-95.8138 576.126,-93.114 589.478,-90.2727"/>
<polygon fill="midnightblue" stroke="midnightblue" points="590.402,-93.6532 599.417,-88.0868 588.899,-86.8166 590.402,-93.6532"/>
</g>
<!-- Node176 -->
<g id="node3" class="node"><title>Node176</title>
<g id="a_node3"><a xlink:href="namespacekoala_1_1utils.html#a37fde0505838c8954ad814bd03f331c3" target="_top" xlink:title=" ">
<polygon fill="white" stroke="black" points="134,-69 134,-88 256,-88 256,-69 134,-69"/>
<text text-anchor="middle" x="195" y="-76" font-family="Helvetica,sans-Serif" font-size="10.00">koala.utils.date_from_int</text>
</a>
</g>
</g>
<!-- Node174&#45;&gt;Node176 -->
<g id="edge2" class="edge"><title>Node174&#45;&gt;Node176</title>
<path fill="none" stroke="midnightblue" d="M86.3373,-106.911C105.083,-101.964 128.143,-95.8789 148.107,-90.6108"/>
<polygon fill="midnightblue" stroke="midnightblue" points="149.148,-93.9558 157.924,-88.0201 147.362,-87.1875 149.148,-93.9558"/>
</g>
<!-- Node176&#45;&gt;Node175 -->
<g id="edge3" class="edge"><title>Node176&#45;&gt;Node175</title>
<path fill="none" stroke="midnightblue" d="M256.153,-82.1141C268.03,-82.6918 280.405,-83.1982 292,-83.5 390.252,-86.0569 504.258,-83.293 573.609,-80.9716"/>
<polygon fill="midnightblue" stroke="midnightblue" points="574.053,-84.4585 583.928,-80.6184 573.814,-77.4626 574.053,-84.4585"/>
</g>
<!-- Node177 -->
<g id="node4" class="node"><title>Node177</title>
<g id="a_node4"><a xlink:href="namespacekoala_1_1utils.html#aa5132ee97ef859e71f955428648f3359" target="_top" xlink:title=" ">
<polygon fill="white" stroke="black" points="429,-50 429,-69 548,-69 548,-50 429,-50"/>
<text text-anchor="middle" x="488.5" y="-57" font-family="Helvetica,sans-Serif" font-size="10.00">koala.utils.is_leap_year</text>
</a>
</g>
</g>
<!-- Node176&#45;&gt;Node177 -->
<g id="edge4" class="edge"><title>Node176&#45;&gt;Node177</title>
<path fill="none" stroke="midnightblue" d="M256.046,-74.5862C303.192,-71.5132 368.894,-67.2308 418.256,-64.0133"/>
<polygon fill="midnightblue" stroke="midnightblue" points="418.778,-67.4868 428.529,-63.3437 418.323,-60.5016 418.778,-67.4868"/>
</g>
<!-- Node178 -->
<g id="node5" class="node"><title>Node178</title>
<g id="a_node5"><a xlink:href="namespacekoala_1_1utils.html#a6ca2acad4db5fefe21c0941c1622f5e4" target="_top" xlink:title=" ">
<polygon fill="white" stroke="black" points="292,-0.5 292,-30.5 393,-30.5 393,-0.5 292,-0.5"/>
<text text-anchor="start" x="300" y="-18.5" font-family="Helvetica,sans-Serif" font-size="10.00">koala.utils.get_max</text>
<text text-anchor="middle" x="342.5" y="-7.5" font-family="Helvetica,sans-Serif" font-size="10.00">_days_in_month</text>
</a>
</g>
</g>
<!-- Node176&#45;&gt;Node178 -->
<g id="edge6" class="edge"><title>Node176&#45;&gt;Node178</title>
<path fill="none" stroke="midnightblue" d="M218.098,-68.9317C239.056,-59.8572 271.147,-45.9619 297.351,-34.6161"/>
<polygon fill="midnightblue" stroke="midnightblue" points="298.921,-37.7504 306.707,-30.565 296.139,-31.3267 298.921,-37.7504"/>
</g>
<!-- Node177&#45;&gt;Node175 -->
<g id="edge5" class="edge"><title>Node177&#45;&gt;Node175</title>
<path fill="none" stroke="midnightblue" d="M548.419,-67.0639C556.671,-68.1233 565.185,-69.2163 573.526,-70.2871"/>
<polygon fill="midnightblue" stroke="midnightblue" points="573.22,-73.7765 583.584,-71.5784 574.112,-66.8335 573.22,-73.7765"/>
</g>
<!-- Node178&#45;&gt;Node175 -->
<g id="edge7" class="edge"><title>Node178&#45;&gt;Node175</title>
<path fill="none" stroke="midnightblue" d="M393.411,-17.7004C435.28,-20.4683 496.346,-26.6715 548,-40.5 569.601,-46.2829 592.811,-56.2559 610.182,-64.5342"/>
<polygon fill="midnightblue" stroke="midnightblue" points="608.661,-67.6866 619.184,-68.9215 611.728,-61.3942 608.661,-67.6866"/>
</g>
<!-- Node178&#45;&gt;Node177 -->
<g id="edge8" class="edge"><title>Node178&#45;&gt;Node177</title>
<path fill="none" stroke="midnightblue" d="M392.654,-30.5192C410.062,-35.8383 429.457,-41.7647 446.15,-46.8654"/>
<polygon fill="midnightblue" stroke="midnightblue" points="445.567,-50.3467 456.153,-49.9217 447.612,-43.6522 445.567,-50.3467"/>
</g>
</g>
</svg>
