<?xml version="1.0" encoding="UTF-8" standalone="no"?>
<!DOCTYPE svg PUBLIC "-//W3C//DTD SVG 1.1//EN"
 "http://www.w3.org/Graphics/SVG/1.1/DTD/svg11.dtd">
<!-- Generated by graphviz version 2.38.0 (20140413.2041)
 -->
<!-- Title: koala.excellib.xirr Pages: 1 -->
<svg width="513pt" height="95pt"
 viewBox="0.00 0.00 513.00 95.00" xmlns="http://www.w3.org/2000/svg" xmlns:xlink="http://www.w3.org/1999/xlink">
<g id="graph0" class="graph" transform="scale(1 1) rotate(0) translate(4 91)">
<title>koala.excellib.xirr</title>
<polygon fill="white" stroke="none" points="-4,4 -4,-91 509,-91 509,4 -4,4"/>
<!-- Node144 -->
<g id="node1" class="node"><title>Node144</title>
<g id="a_node1"><a xlink:title=" ">
<polygon fill="#bfbfbf" stroke="black" points="0,-31 0,-50 92,-50 92,-31 0,-31"/>
<text text-anchor="middle" x="46" y="-38" font-family="Helvetica,sans-Serif" font-size="10.00">koala.excellib.xirr</text>
</a>
</g>
</g>
<!-- Node145 -->
<g id="node2" class="node"><title>Node145</title>
<g id="a_node2"><a xlink:href="namespacekoala_1_1utils.html#adeefbb82b9a8c72e5c67197400767f0b" target="_top" xlink:title=" ">
<polygon fill="white" stroke="black" points="266,-56.5 266,-86.5 356,-86.5 356,-56.5 266,-56.5"/>
<text text-anchor="start" x="274" y="-74.5" font-family="Helvetica,sans-Serif" font-size="10.00">koala.utils.is_not</text>
<text text-anchor="middle" x="311" y="-63.5" font-family="Helvetica,sans-Serif" font-size="10.00">_number_input</text>
</a>
</g>
</g>
<!-- Node144&#45;&gt;Node145 -->
<g id="edge1" class="edge"><title>Node144&#45;&gt;Node145</title>
<path fill="none" stroke="midnightblue" d="M82.2416,-50.0978C96.3668,-53.5946 112.857,-57.2404 128,-59.5 170.473,-65.8375 219.02,-68.8281 255.287,-70.2392"/>
<polygon fill="midnightblue" stroke="midnightblue" points="255.531,-73.7502 265.651,-70.6126 255.783,-66.7547 255.531,-73.7502"/>
</g>
<!-- Node147 -->
<g id="node4" class="node"><title>Node147</title>
<g id="a_node4"><a xlink:href="namespacekoala_1_1utils.html#a344ae2d72b1cec3fadbfec9418af8394" target="_top" xlink:title=" ">
<polygon fill="white" stroke="black" points="262,-0.5 262,-30.5 360,-30.5 360,-0.5 262,-0.5"/>
<text text-anchor="start" x="270" y="-18.5" font-family="Helvetica,sans-Serif" font-size="10.00">koala.utils.numeric</text>
<text text-anchor="middle" x="311" y="-7.5" font-family="Helvetica,sans-Serif" font-size="10.00">_error</text>
</a>
</g>
</g>
<!-- Node144&#45;&gt;Node147 -->
<g id="edge3" class="edge"><title>Node144&#45;&gt;Node147</title>
<path fill="none" stroke="midnightblue" d="M81.0123,-30.9451C95.3909,-27.3185 112.392,-23.5672 128,-21.5 169.076,-16.0597 215.796,-14.6172 251.616,-14.505"/>
<polygon fill="midnightblue" stroke="midnightblue" points="251.887,-18.005 261.888,-14.5081 251.89,-11.005 251.887,-18.005"/>
</g>
<!-- Node148 -->
<g id="node5" class="node"><title>Node148</title>
<g id="a_node5"><a xlink:href="namespacekoala_1_1excellib.html#a4b33b1607230861cabb4eebf0442154e" target="_top" xlink:title=" ">
<polygon fill="white" stroke="black" points="128,-31 128,-50 226,-50 226,-31 128,-31"/>
<text text-anchor="middle" x="177" y="-38" font-family="Helvetica,sans-Serif" font-size="10.00">koala.excellib.xnpv</text>
</a>
</g>
</g>
<!-- Node144&#45;&gt;Node148 -->
<g id="edge4" class="edge"><title>Node144&#45;&gt;Node148</title>
<path fill="none" stroke="midnightblue" d="M92.1179,-40.5C100.279,-40.5 108.897,-40.5 117.378,-40.5"/>
<polygon fill="midnightblue" stroke="midnightblue" points="117.615,-44.0001 127.615,-40.5 117.615,-37.0001 117.615,-44.0001"/>
</g>
<!-- Node146 -->
<g id="node3" class="node"><title>Node146</title>
<g id="a_node3"><a xlink:href="namespacekoala_1_1utils.html#af016160edea2b46cb26db3ed307c9648" target="_top" xlink:title=" ">
<polygon fill="white" stroke="black" points="396,-62 396,-81 505,-81 505,-62 396,-62"/>
<text text-anchor="middle" x="450.5" y="-69" font-family="Helvetica,sans-Serif" font-size="10.00">koala.utils.is_number</text>
</a>
</g>
</g>
<!-- Node145&#45;&gt;Node146 -->
<g id="edge2" class="edge"><title>Node145&#45;&gt;Node146</title>
<path fill="none" stroke="midnightblue" d="M356.263,-71.5C365.585,-71.5 375.599,-71.5 385.482,-71.5"/>
<polygon fill="midnightblue" stroke="midnightblue" points="385.699,-75.0001 395.699,-71.5 385.699,-68.0001 385.699,-75.0001"/>
</g>
<!-- Node148&#45;&gt;Node145 -->
<g id="edge5" class="edge"><title>Node148&#45;&gt;Node145</title>
<path fill="none" stroke="midnightblue" d="M218.681,-50.054C230.397,-52.8053 243.367,-55.8513 255.764,-58.7629"/>
<polygon fill="midnightblue" stroke="midnightblue" points="255.014,-62.1818 265.549,-61.0609 256.615,-55.3672 255.014,-62.1818"/>
</g>
<!-- Node148&#45;&gt;Node147 -->
<g id="edge6" class="edge"><title>Node148&#45;&gt;Node147</title>
<path fill="none" stroke="midnightblue" d="M226.028,-31.4037C234.4,-29.8182 243.188,-28.1537 251.798,-26.5231"/>
<polygon fill="midnightblue" stroke="midnightblue" points="252.612,-29.9312 261.786,-24.6314 251.309,-23.0535 252.612,-29.9312"/>
</g>
</g>
</svg>
