<?xml version="1.0" encoding="UTF-8" standalone="no"?>
<!DOCTYPE svg PUBLIC "-//W3C//DTD SVG 1.1//EN"
 "http://www.w3.org/Graphics/SVG/1.1/DTD/svg11.dtd">
<!-- Generated by graphviz version 2.38.0 (20140413.2041)
 -->
<!-- Title: koala.tokenizer.reverse_rpn Pages: 1 -->
<svg width="1002pt" height="124pt"
 viewBox="0.00 0.00 1002.00 124.00" xmlns="http://www.w3.org/2000/svg" xmlns:xlink="http://www.w3.org/1999/xlink">
<g id="graph0" class="graph" transform="scale(1 1) rotate(0) translate(4 120)">
<title>koala.tokenizer.reverse_rpn</title>
<polygon fill="white" stroke="none" points="-4,4 -4,-120 998,-120 998,4 -4,4"/>
<!-- Node7 -->
<g id="node1" class="node"><title>Node7</title>
<g id="a_node1"><a xlink:title=" ">
<polygon fill="#bfbfbf" stroke="black" points="859,-39 859,-58 994,-58 994,-39 859,-39"/>
<text text-anchor="middle" x="926.5" y="-46" font-family="Helvetica,sans-Serif" font-size="10.00">koala.tokenizer.reverse_rpn</text>
</a>
</g>
</g>
<!-- Node8 -->
<g id="node2" class="node"><title>Node8</title>
<g id="a_node2"><a xlink:href="classkoala_1_1_spreadsheet_1_1_spreadsheet.html#af4c45ee9335aadc10ba61c0db30a33b2" target="_top" xlink:title=" ">
<polygon fill="white" stroke="black" points="648,-67.5 648,-97.5 823,-97.5 823,-67.5 648,-67.5"/>
<text text-anchor="start" x="656" y="-85.5" font-family="Helvetica,sans-Serif" font-size="10.00">koala.Spreadsheet.Spreadsheet.eval</text>
<text text-anchor="middle" x="735.5" y="-74.5" font-family="Helvetica,sans-Serif" font-size="10.00">_pointers_from_ast</text>
</a>
</g>
</g>
<!-- Node7&#45;&gt;Node8 -->
<g id="edge1" class="edge"><title>Node7&#45;&gt;Node8</title>
<path fill="none" stroke="midnightblue" d="M862.453,-59.8417C848.906,-62.2788 834.385,-64.891 820.194,-67.4439"/>
<polygon fill="midnightblue" stroke="midnightblue" points="863.379,-63.2314 872.602,-58.0161 862.14,-56.342 863.379,-63.2314"/>
</g>
<!-- Node10 -->
<g id="node4" class="node"><title>Node10</title>
<g id="a_node4"><a xlink:href="classkoala_1_1_spreadsheet_1_1_spreadsheet.html#aa23818eb03be8a82c0969bd5338fdf2d" target="_top" xlink:title=" ">
<polygon fill="white" stroke="black" points="649.5,-0.5 649.5,-30.5 821.5,-30.5 821.5,-0.5 649.5,-0.5"/>
<text text-anchor="start" x="657.5" y="-18.5" font-family="Helvetica,sans-Serif" font-size="10.00">koala.Spreadsheet.Spreadsheet.get</text>
<text text-anchor="middle" x="735.5" y="-7.5" font-family="Helvetica,sans-Serif" font-size="10.00">_arguments_from_ast</text>
</a>
</g>
</g>
<!-- Node7&#45;&gt;Node10 -->
<g id="edge4" class="edge"><title>Node7&#45;&gt;Node10</title>
<path fill="none" stroke="midnightblue" d="M861.073,-37.2508C848.343,-35.0282 834.801,-32.6636 821.511,-30.3433"/>
<polygon fill="midnightblue" stroke="midnightblue" points="860.634,-40.7271 871.087,-38.9993 861.838,-33.8314 860.634,-40.7271"/>
</g>
<!-- Node8&#45;&gt;Node8 -->
<g id="edge3" class="edge"><title>Node8&#45;&gt;Node8</title>
<path fill="none" stroke="midnightblue" d="M769.261,-107.958C765.071,-112.679 753.817,-116 735.5,-116 705.441,-116 694.404,-107.057 702.389,-97.659"/>
<polygon fill="midnightblue" stroke="midnightblue" points="772.734,-107.419 768.611,-97.659 765.748,-107.859 772.734,-107.419"/>
</g>
<!-- Node9 -->
<g id="node3" class="node"><title>Node9</title>
<g id="a_node3"><a xlink:href="classkoala_1_1_spreadsheet_1_1_spreadsheet.html#a13c2cbec203d01d4d8404e3954dd27d7" target="_top" xlink:title=" ">
<polygon fill="white" stroke="black" points="430,-67.5 430,-97.5 612,-97.5 612,-67.5 430,-67.5"/>
<text text-anchor="start" x="438" y="-85.5" font-family="Helvetica,sans-Serif" font-size="10.00">koala.Spreadsheet.Spreadsheet.clean</text>
<text text-anchor="middle" x="521" y="-74.5" font-family="Helvetica,sans-Serif" font-size="10.00">_pointer</text>
</a>
</g>
</g>
<!-- Node8&#45;&gt;Node9 -->
<g id="edge2" class="edge"><title>Node8&#45;&gt;Node9</title>
<path fill="none" stroke="midnightblue" d="M637.543,-82.5C629.122,-82.5 620.622,-82.5 612.258,-82.5"/>
<polygon fill="midnightblue" stroke="midnightblue" points="637.762,-86.0001 647.762,-82.5 637.762,-79.0001 637.762,-86.0001"/>
</g>
<!-- Node10&#45;&gt;Node10 -->
<g id="edge5" class="edge"><title>Node10&#45;&gt;Node10</title>
<path fill="none" stroke="midnightblue" d="M769.261,-40.9579C765.071,-45.679 753.817,-49 735.5,-49 705.441,-49 694.404,-40.0566 702.389,-30.659"/>
<polygon fill="midnightblue" stroke="midnightblue" points="772.734,-40.4189 768.611,-30.659 765.748,-40.8594 772.734,-40.4189"/>
</g>
<!-- Node11 -->
<g id="node5" class="node"><title>Node11</title>
<g id="a_node5"><a xlink:href="classkoala_1_1_spreadsheet_1_1_spreadsheet.html#a8ebd4153a8499a4bf7fdf0bde89f12f0" target="_top" xlink:title=" ">
<polygon fill="white" stroke="black" points="435,-0.5 435,-30.5 607,-30.5 607,-0.5 435,-0.5"/>
<text text-anchor="start" x="443" y="-18.5" font-family="Helvetica,sans-Serif" font-size="10.00">koala.Spreadsheet.Spreadsheet.get</text>
<text text-anchor="middle" x="521" y="-7.5" font-family="Helvetica,sans-Serif" font-size="10.00">_pointer_arguments_from_ast</text>
</a>
</g>
</g>
<!-- Node10&#45;&gt;Node11 -->
<g id="edge6" class="edge"><title>Node10&#45;&gt;Node11</title>
<path fill="none" stroke="midnightblue" d="M639.152,-15.5C628.513,-15.5 617.727,-15.5 607.227,-15.5"/>
<polygon fill="midnightblue" stroke="midnightblue" points="639.293,-19.0001 649.293,-15.5 639.293,-12.0001 639.293,-19.0001"/>
</g>
<!-- Node11&#45;&gt;Node11 -->
<g id="edge9" class="edge"><title>Node11&#45;&gt;Node11</title>
<path fill="none" stroke="midnightblue" d="M558.67,-40.9579C553.994,-45.679 541.438,-49 521,-49 487.461,-49 475.146,-40.0566 484.055,-30.659"/>
<polygon fill="midnightblue" stroke="midnightblue" points="562.139,-40.3887 557.945,-30.659 555.156,-40.88 562.139,-40.3887"/>
</g>
<!-- Node12 -->
<g id="node6" class="node"><title>Node12</title>
<g id="a_node6"><a xlink:href="classkoala_1_1_spreadsheet_1_1_spreadsheet.html#a6f233266d3e106c54dc37886dba18e9a" target="_top" xlink:title=" ">
<polygon fill="white" stroke="black" points="221,-0.5 221,-30.5 394,-30.5 394,-0.5 221,-0.5"/>
<text text-anchor="start" x="229" y="-18.5" font-family="Helvetica,sans-Serif" font-size="10.00">koala.Spreadsheet.Spreadsheet.find</text>
<text text-anchor="middle" x="307.5" y="-7.5" font-family="Helvetica,sans-Serif" font-size="10.00">_pointer_arguments</text>
</a>
</g>
</g>
<!-- Node11&#45;&gt;Node12 -->
<g id="edge7" class="edge"><title>Node11&#45;&gt;Node12</title>
<path fill="none" stroke="midnightblue" d="M424.744,-15.5C414.541,-15.5 404.207,-15.5 394.126,-15.5"/>
<polygon fill="midnightblue" stroke="midnightblue" points="424.889,-19.0001 434.889,-15.5 424.889,-12.0001 424.889,-19.0001"/>
</g>
<!-- Node13 -->
<g id="node7" class="node"><title>Node13</title>
<g id="a_node7"><a xlink:href="classkoala_1_1_spreadsheet_1_1_spreadsheet.html#a988fc1ddf090bf9746135ce759907a5a" target="_top" xlink:title=" ">
<polygon fill="white" stroke="black" points="0,-0.5 0,-30.5 185,-30.5 185,-0.5 0,-0.5"/>
<text text-anchor="start" x="8" y="-18.5" font-family="Helvetica,sans-Serif" font-size="10.00">koala.Spreadsheet.Spreadsheet.detect</text>
<text text-anchor="middle" x="92.5" y="-7.5" font-family="Helvetica,sans-Serif" font-size="10.00">_alive</text>
</a>
</g>
</g>
<!-- Node12&#45;&gt;Node13 -->
<g id="edge8" class="edge"><title>Node12&#45;&gt;Node13</title>
<path fill="none" stroke="midnightblue" d="M210.588,-15.5C202.18,-15.5 193.683,-15.5 185.31,-15.5"/>
<polygon fill="midnightblue" stroke="midnightblue" points="210.785,-19.0001 220.785,-15.5 210.785,-12.0001 210.785,-19.0001"/>
</g>
</g>
</svg>
