<?xml version="1.0" encoding="UTF-8" standalone="no"?>
<!DOCTYPE svg PUBLIC "-//W3C//DTD SVG 1.1//EN"
 "http://www.w3.org/Graphics/SVG/1.1/DTD/svg11.dtd">
<!-- Generated by graphviz version 2.38.0 (20140413.2041)
 -->
<!-- Title: koala.utils.date_from_int Pages: 1 -->
<svg width="567pt" height="91pt"
 viewBox="0.00 0.00 567.00 91.11" xmlns="http://www.w3.org/2000/svg" xmlns:xlink="http://www.w3.org/1999/xlink">
<g id="graph0" class="graph" transform="scale(1 1) rotate(0) translate(4 87.1064)">
<title>koala.utils.date_from_int</title>
<polygon fill="white" stroke="none" points="-4,4 -4,-87.1064 563,-87.1064 563,4 -4,4"/>
<!-- Node39 -->
<g id="node1" class="node"><title>Node39</title>
<g id="a_node1"><a xlink:title=" ">
<polygon fill="#bfbfbf" stroke="black" points="0,-50 0,-69 122,-69 122,-50 0,-50"/>
<text text-anchor="middle" x="61" y="-57" font-family="Helvetica,sans-Serif" font-size="10.00">koala.utils.date_from_int</text>
</a>
</g>
</g>
<!-- Node40 -->
<g id="node2" class="node"><title>Node40</title>
<g id="a_node2"><a xlink:href="namespacekoala_1_1utils.html#af016160edea2b46cb26db3ed307c9648" target="_top" xlink:title=" ">
<polygon fill="white" stroke="black" points="450,-48 450,-67 559,-67 559,-48 450,-48"/>
<text text-anchor="middle" x="504.5" y="-55" font-family="Helvetica,sans-Serif" font-size="10.00">koala.utils.is_number</text>
</a>
</g>
</g>
<!-- Node39&#45;&gt;Node40 -->
<g id="edge1" class="edge"><title>Node39&#45;&gt;Node40</title>
<path fill="none" stroke="midnightblue" d="M122.066,-68.6234C133.95,-70.1487 146.35,-71.5438 158,-72.5 271.41,-81.8084 300.83,-88.3801 414,-76.5 428.238,-75.0054 443.543,-72.2083 457.4,-69.211"/>
<polygon fill="midnightblue" stroke="midnightblue" points="458.209,-72.6166 467.198,-67.0089 456.674,-65.787 458.209,-72.6166"/>
</g>
<!-- Node41 -->
<g id="node3" class="node"><title>Node41</title>
<g id="a_node3"><a xlink:href="namespacekoala_1_1utils.html#aa5132ee97ef859e71f955428648f3359" target="_top" xlink:title=" ">
<polygon fill="white" stroke="black" points="295,-48 295,-67 414,-67 414,-48 295,-48"/>
<text text-anchor="middle" x="354.5" y="-55" font-family="Helvetica,sans-Serif" font-size="10.00">koala.utils.is_leap_year</text>
</a>
</g>
</g>
<!-- Node39&#45;&gt;Node41 -->
<g id="edge2" class="edge"><title>Node39&#45;&gt;Node41</title>
<path fill="none" stroke="midnightblue" d="M122.046,-59.088C169.192,-58.7646 234.894,-58.3138 284.256,-57.9751"/>
<polygon fill="midnightblue" stroke="midnightblue" points="284.553,-61.4732 294.529,-57.9046 284.505,-54.4734 284.553,-61.4732"/>
</g>
<!-- Node42 -->
<g id="node4" class="node"><title>Node42</title>
<g id="a_node4"><a xlink:href="namespacekoala_1_1utils.html#a6ca2acad4db5fefe21c0941c1622f5e4" target="_top" xlink:title=" ">
<polygon fill="white" stroke="black" points="158,-0.5 158,-30.5 259,-30.5 259,-0.5 158,-0.5"/>
<text text-anchor="start" x="166" y="-18.5" font-family="Helvetica,sans-Serif" font-size="10.00">koala.utils.get_max</text>
<text text-anchor="middle" x="208.5" y="-7.5" font-family="Helvetica,sans-Serif" font-size="10.00">_days_in_month</text>
</a>
</g>
</g>
<!-- Node39&#45;&gt;Node42 -->
<g id="edge4" class="edge"><title>Node39&#45;&gt;Node42</title>
<path fill="none" stroke="midnightblue" d="M93.5713,-49.9527C109.585,-45.1099 129.569,-39.0669 148.308,-33.4001"/>
<polygon fill="midnightblue" stroke="midnightblue" points="149.407,-36.7242 157.966,-30.4794 147.381,-30.0239 149.407,-36.7242"/>
</g>
<!-- Node41&#45;&gt;Node40 -->
<g id="edge3" class="edge"><title>Node41&#45;&gt;Node40</title>
<path fill="none" stroke="midnightblue" d="M414.419,-57.5C422.671,-57.5 431.185,-57.5 439.526,-57.5"/>
<polygon fill="midnightblue" stroke="midnightblue" points="439.584,-61.0001 449.584,-57.5 439.584,-54.0001 439.584,-61.0001"/>
</g>
<!-- Node42&#45;&gt;Node40 -->
<g id="edge5" class="edge"><title>Node42&#45;&gt;Node40</title>
<path fill="none" stroke="midnightblue" d="M259.272,-19.7341C300.796,-23.5928 361.451,-29.9878 414,-38.5 426.62,-40.5443 440.151,-43.1811 452.773,-45.8359"/>
<polygon fill="midnightblue" stroke="midnightblue" points="452.154,-49.2828 462.666,-47.9579 453.622,-42.4384 452.154,-49.2828"/>
</g>
<!-- Node42&#45;&gt;Node41 -->
<g id="edge6" class="edge"><title>Node42&#45;&gt;Node41</title>
<path fill="none" stroke="midnightblue" d="M259.057,-29.954C275.9,-34.8666 294.564,-40.3102 310.822,-45.0522"/>
<polygon fill="midnightblue" stroke="midnightblue" points="310.016,-48.463 320.596,-47.903 311.976,-41.7429 310.016,-48.463"/>
</g>
</g>
</svg>
