<?xml version="1.0" encoding="UTF-8" standalone="no"?>
<!DOCTYPE svg PUBLIC "-//W3C//DTD SVG 1.1//EN"
 "http://www.w3.org/Graphics/SVG/1.1/DTD/svg11.dtd">
<!-- Generated by graphviz version 2.38.0 (20140413.2041)
 -->
<!-- Title: koala.utils.resolve_range Pages: 1 -->
<!--zoomable 336 -->
<svg id="main" version="1.1" xmlns="http://www.w3.org/2000/svg" xmlns:xlink="http://www.w3.org/1999/xlink" xml:space="preserve" onload="init(evt)">
<style type="text/css"><![CDATA[
.edge:hover path { stroke: red; }
.edge:hover polygon { stroke: red; fill: red; }
]]></style>
<script type="text/javascript"><![CDATA[
var edges = document.getElementsByTagName('g');
if (edges && edges.length) {
  for (var i=0;i<edges.length;i++) {
    if (edges[i].id.substr(0,4)=='edge') {
      edges[i].setAttribute('class','edge');
    }
  }
}
]]></script>
        <defs>
                <circle id="rim" cx="0" cy="0" r="7"/>
                <circle id="rim2" cx="0" cy="0" r="3.5"/>
                <g id="zoomPlus">
                        <use xlink:href="#rim" fill="#404040">
                                <set attributeName="fill" to="#808080" begin="zoomplus.mouseover" end="zoomplus.mouseout"/>
                        </use>
                        <path d="M-4,0h8M0,-4v8" fill="none" stroke="white" stroke-width="1.5" pointer-events="none"/>
                </g>
                <g id="zoomMin">
                        <use xlink:href="#rim" fill="#404040">
                                <set attributeName="fill" to="#808080" begin="zoomminus.mouseover" end="zoomminus.mouseout"/>
                        </use>
                        <path d="M-4,0h8" fill="none" stroke="white" stroke-width="1.5" pointer-events="none"/>
                </g>
                <g id="dirArrow">
                        <path fill="none" stroke="white" stroke-width="1.5" d="M0,-3.0v7 M-2.5,-0.5L0,-3.0L2.5,-0.5"/>
                </g>
               <g id="resetDef">
                       <use xlink:href="#rim2" fill="#404040">
                               <set attributeName="fill" to="#808080" begin="reset.mouseover" end="reset.mouseout"/>
                       </use>
               </g>
        </defs>

<script type="text/javascript">
var viewWidth = 991;
var viewHeight = 336;
var sectionId = 'dynsection-34';
</script>
<script xlink:href="svgpan.js"/>
<svg id="graph" class="graph">
<g id="viewport">
<title>koala.utils.resolve_range</title>
<polygon fill="white" stroke="none" points="-4,4 -4,-332 987,-332 987,4 -4,4"/>
<!-- Node278 -->
<g id="node1" class="node"><title>Node278</title>
<g id="a_node1"><a xlink:title=" ">
<polygon fill="#bfbfbf" stroke="black" points="889,-133.5 889,-163.5 983,-163.5 983,-133.5 889,-133.5"/>
<text text-anchor="start" x="897" y="-151.5" font-family="Helvetica,sans-Serif" font-size="10.00">koala.utils.resolve</text>
<text text-anchor="middle" x="936" y="-140.5" font-family="Helvetica,sans-Serif" font-size="10.00">_range</text>
</a>
</g>
</g>
<!-- Node279 -->
<g id="node2" class="node"><title>Node279</title>
<g id="a_node2"><a xlink:href="namespacekoala_1_1ast.html#aa55446c8aa764f09775f006ee775ec7b" target="_top" xlink:title=" ">
<polygon fill="white" stroke="black" points="713.5,-253.5 713.5,-283.5 820.5,-283.5 820.5,-253.5 713.5,-253.5"/>
<text text-anchor="start" x="721.5" y="-271.5" font-family="Helvetica,sans-Serif" font-size="10.00">koala.ast.graph_from</text>
<text text-anchor="middle" x="767" y="-260.5" font-family="Helvetica,sans-Serif" font-size="10.00">_seeds</text>
</a>
</g>
</g>
<!-- Node278&#45;&gt;Node279 -->
<g id="edge1" class="edge"><title>Node278&#45;&gt;Node279</title>
<path fill="none" stroke="midnightblue" d="M920.594,-172.298C906.14,-194.193 881.912,-225.987 853,-244.5 843.315,-250.702 832.009,-255.329 820.863,-258.773"/>
<polygon fill="midnightblue" stroke="midnightblue" points="923.727,-173.896 926.175,-163.588 917.833,-170.12 923.727,-173.896"/>
</g>
<!-- Node287 -->
<g id="node10" class="node"><title>Node287</title>
<g id="a_node10"><a xlink:href="classkoala_1_1ast_1_1astnodes_1_1_range_node.html#ab02ae79ae481ec81f309633ac5a99606" target="_top" xlink:title=" ">
<polygon fill="white" stroke="black" points="702,-204.5 702,-234.5 832,-234.5 832,-204.5 702,-204.5"/>
<text text-anchor="start" x="710" y="-222.5" font-family="Helvetica,sans-Serif" font-size="10.00">koala.ast.astnodes.Range</text>
<text text-anchor="middle" x="767" y="-211.5" font-family="Helvetica,sans-Serif" font-size="10.00">Node.get_cells</text>
</a>
</g>
</g>
<!-- Node278&#45;&gt;Node287 -->
<g id="edge9" class="edge"><title>Node278&#45;&gt;Node287</title>
<path fill="none" stroke="midnightblue" d="M903.328,-169.084C888.482,-178.09 870.288,-188.235 853,-195.5 845.225,-198.767 836.867,-201.738 828.536,-204.39"/>
<polygon fill="midnightblue" stroke="midnightblue" points="905.436,-171.896 912.101,-163.66 901.755,-165.942 905.436,-171.896"/>
</g>
<!-- Node288 -->
<g id="node11" class="node"><title>Node288</title>
<g id="a_node11"><a xlink:href="classkoala_1_1_cell_1_1_cell.html#ab1fa079614840ca386e0970338c2d8f0" target="_top" xlink:title=" ">
<polygon fill="white" stroke="black" points="714,-155.5 714,-185.5 820,-185.5 820,-155.5 714,-155.5"/>
<text text-anchor="start" x="722" y="-173.5" font-family="Helvetica,sans-Serif" font-size="10.00">koala.Cell.Cell.make</text>
<text text-anchor="middle" x="767" y="-162.5" font-family="Helvetica,sans-Serif" font-size="10.00">_cells</text>
</a>
</g>
</g>
<!-- Node278&#45;&gt;Node288 -->
<g id="edge10" class="edge"><title>Node278&#45;&gt;Node288</title>
<path fill="none" stroke="midnightblue" d="M878.913,-155.889C859.914,-158.392 838.784,-161.175 820.107,-163.636"/>
<polygon fill="midnightblue" stroke="midnightblue" points="879.467,-159.346 888.924,-154.57 878.553,-152.406 879.467,-159.346"/>
</g>
<!-- Node289 -->
<g id="node12" class="node"><title>Node289</title>
<g id="a_node12"><a xlink:href="namespacekoala_1_1excellib.html#ab1d9d224f4ee11e755d39b5ad520f371" target="_top" xlink:title=" ">
<polygon fill="white" stroke="black" points="716,-117 716,-136 818,-136 818,-117 716,-117"/>
<text text-anchor="middle" x="767" y="-124" font-family="Helvetica,sans-Serif" font-size="10.00">koala.excellib.offset</text>
</a>
</g>
</g>
<!-- Node278&#45;&gt;Node289 -->
<g id="edge11" class="edge"><title>Node278&#45;&gt;Node289</title>
<path fill="none" stroke="midnightblue" d="M878.86,-141.104C859.164,-138.51 837.185,-135.614 818.024,-133.09"/>
<polygon fill="midnightblue" stroke="midnightblue" points="878.553,-144.594 888.924,-142.43 879.467,-137.654 878.553,-144.594"/>
</g>
<!-- Node290 -->
<g id="node13" class="node"><title>Node290</title>
<g id="a_node13"><a xlink:href="classkoala_1_1_range_1_1_range_core.html#ac49ba3473e8bcd9585eedd4fa9603bf2" target="_top" xlink:title=" ">
<polygon fill="white" stroke="black" points="704.5,-67.5 704.5,-97.5 829.5,-97.5 829.5,-67.5 704.5,-67.5"/>
<text text-anchor="start" x="712.5" y="-85.5" font-family="Helvetica,sans-Serif" font-size="10.00">koala.Range.RangeCore.</text>
<text text-anchor="middle" x="767" y="-74.5" font-family="Helvetica,sans-Serif" font-size="10.00">__init__</text>
</a>
</g>
</g>
<!-- Node278&#45;&gt;Node290 -->
<g id="edge12" class="edge"><title>Node278&#45;&gt;Node290</title>
<path fill="none" stroke="midnightblue" d="M898.968,-128.749C884.882,-121.491 868.43,-113.571 853,-107.5 843.839,-103.896 833.946,-100.531 824.26,-97.5114"/>
<polygon fill="midnightblue" stroke="midnightblue" points="897.366,-131.861 907.849,-133.398 900.612,-125.659 897.366,-131.861"/>
</g>
<!-- Node291 -->
<g id="node14" class="node"><title>Node291</title>
<g id="a_node14"><a xlink:href="classkoala_1_1_spreadsheet_1_1_spreadsheet.html#aa23818eb03be8a82c0969bd5338fdf2d" target="_top" xlink:title=" ">
<polygon fill="white" stroke="black" points="681,-0.5 681,-30.5 853,-30.5 853,-0.5 681,-0.5"/>
<text text-anchor="start" x="689" y="-18.5" font-family="Helvetica,sans-Serif" font-size="10.00">koala.Spreadsheet.Spreadsheet.get</text>
<text text-anchor="middle" x="767" y="-7.5" font-family="Helvetica,sans-Serif" font-size="10.00">_arguments_from_ast</text>
</a>
</g>
</g>
<!-- Node278&#45;&gt;Node291 -->
<g id="edge13" class="edge"><title>Node278&#45;&gt;Node291</title>
<path fill="none" stroke="midnightblue" d="M918.025,-125.14C902.71,-105.276 878.697,-76.9599 853,-57.5 838.828,-46.7678 821.486,-37.6158 806.17,-30.6208"/>
<polygon fill="midnightblue" stroke="midnightblue" points="915.407,-127.482 924.23,-133.348 920.991,-123.26 915.407,-127.482"/>
</g>
<!-- Node280 -->
<g id="node3" class="node"><title>Node280</title>
<g id="a_node3"><a xlink:href="classkoala_1_1_spreadsheet_1_1_spreadsheet.html#a80d6ad19a13ccd80ca76f3f94975f7b5" target="_top" xlink:title=" ">
<polygon fill="white" stroke="black" points="461,-297.5 461,-327.5 635,-327.5 635,-297.5 461,-297.5"/>
<text text-anchor="start" x="469" y="-315.5" font-family="Helvetica,sans-Serif" font-size="10.00">koala.Spreadsheet.Spreadsheet.gen</text>
<text text-anchor="middle" x="548" y="-304.5" font-family="Helvetica,sans-Serif" font-size="10.00">_graph</text>
</a>
</g>
</g>
<!-- Node279&#45;&gt;Node280 -->
<g id="edge2" class="edge"><title>Node279&#45;&gt;Node280</title>
<path fill="none" stroke="midnightblue" d="M703.364,-281.2C678.318,-286.279 649.277,-292.167 623.186,-297.458"/>
<polygon fill="midnightblue" stroke="midnightblue" points="704.365,-284.569 713.47,-279.151 702.974,-277.708 704.365,-284.569"/>
</g>
<!-- Node281 -->
<g id="node4" class="node"><title>Node281</title>
<g id="a_node4"><a xlink:href="classkoala_1_1_spreadsheet_1_1_spreadsheet.html#affd17089825c4b3391c4d6b9b702209c" target="_top" xlink:title=" ">
<polygon fill="white" stroke="black" points="451,-259 451,-278 645,-278 645,-259 451,-259"/>
<text text-anchor="middle" x="548" y="-266" font-family="Helvetica,sans-Serif" font-size="10.00">koala.Spreadsheet.Spreadsheet.cell_add</text>
</a>
</g>
</g>
<!-- Node279&#45;&gt;Node281 -->
<g id="edge3" class="edge"><title>Node279&#45;&gt;Node281</title>
<path fill="none" stroke="midnightblue" d="M703.321,-268.5C685.146,-268.5 664.871,-268.5 645.147,-268.5"/>
<polygon fill="midnightblue" stroke="midnightblue" points="703.47,-272 713.47,-268.5 703.47,-265 703.47,-272"/>
</g>
<!-- Node285 -->
<g id="node8" class="node"><title>Node285</title>
<g id="a_node8"><a xlink:href="classkoala_1_1_spreadsheet_1_1_spreadsheet.html#aa7bdaffc24c26fbf18d5b752b7e49df2" target="_top" xlink:title=" ">
<polygon fill="white" stroke="black" points="461.5,-207.5 461.5,-237.5 634.5,-237.5 634.5,-207.5 461.5,-207.5"/>
<text text-anchor="start" x="469.5" y="-225.5" font-family="Helvetica,sans-Serif" font-size="10.00">koala.Spreadsheet.Spreadsheet.cell</text>
<text text-anchor="middle" x="548" y="-214.5" font-family="Helvetica,sans-Serif" font-size="10.00">_set_formula</text>
</a>
</g>
</g>
<!-- Node279&#45;&gt;Node285 -->
<g id="edge7" class="edge"><title>Node279&#45;&gt;Node285</title>
<path fill="none" stroke="midnightblue" d="M703.673,-255.288C677.503,-249.74 646.928,-243.259 619.904,-237.53"/>
<polygon fill="midnightblue" stroke="midnightblue" points="702.962,-258.715 713.47,-257.365 704.414,-251.867 702.962,-258.715"/>
</g>
<!-- Node282 -->
<g id="node5" class="node"><title>Node282</title>
<g id="a_node5"><a xlink:href="classkoala_1_1_spreadsheet_1_1_spreadsheet.html#a7481e9d34fe1d4347b3b6eed3462b545" target="_top" xlink:title=" ">
<polygon fill="white" stroke="black" points="221,-303 221,-322 415,-322 415,-303 221,-303"/>
<text text-anchor="middle" x="318" y="-310" font-family="Helvetica,sans-Serif" font-size="10.00">koala.Spreadsheet.Spreadsheet.add_cell</text>
</a>
</g>
</g>
<!-- Node281&#45;&gt;Node282 -->
<g id="edge4" class="edge"><title>Node281&#45;&gt;Node282</title>
<path fill="none" stroke="midnightblue" d="M487.366,-280.008C450.335,-287.155 403.311,-296.23 368.376,-302.971"/>
<polygon fill="midnightblue" stroke="midnightblue" points="488.372,-283.379 497.527,-278.047 487.045,-276.506 488.372,-283.379"/>
</g>
<!-- Node283 -->
<g id="node6" class="node"><title>Node283</title>
<g id="a_node6"><a xlink:href="classkoala_1_1_spreadsheet_1_1_spreadsheet.html#a2f695c5a3bc3f8812609bd2ba4ebb784" target="_top" xlink:title=" ">
<polygon fill="white" stroke="black" points="231.5,-253.5 231.5,-283.5 404.5,-283.5 404.5,-253.5 231.5,-253.5"/>
<text text-anchor="start" x="239.5" y="-271.5" font-family="Helvetica,sans-Serif" font-size="10.00">koala.Spreadsheet.Spreadsheet.cell</text>
<text text-anchor="middle" x="318" y="-260.5" font-family="Helvetica,sans-Serif" font-size="10.00">_set_value</text>
</a>
</g>
</g>
<!-- Node281&#45;&gt;Node283 -->
<g id="edge5" class="edge"><title>Node281&#45;&gt;Node283</title>
<path fill="none" stroke="midnightblue" d="M440.853,-268.5C428.764,-268.5 416.557,-268.5 404.778,-268.5"/>
<polygon fill="midnightblue" stroke="midnightblue" points="440.968,-272 450.968,-268.5 440.968,-265 440.968,-272"/>
</g>
<!-- Node284 -->
<g id="node7" class="node"><title>Node284</title>
<g id="a_node7"><a xlink:href="classkoala_1_1_spreadsheet_1_1_spreadsheet.html#a1330ffeda88c7bc6905a00e80203eb78" target="_top" xlink:title=" ">
<polygon fill="white" stroke="black" points="6.5,-253.5 6.5,-283.5 178.5,-283.5 178.5,-253.5 6.5,-253.5"/>
<text text-anchor="start" x="14.5" y="-271.5" font-family="Helvetica,sans-Serif" font-size="10.00">koala.Spreadsheet.Spreadsheet.set</text>
<text text-anchor="middle" x="92.5" y="-260.5" font-family="Helvetica,sans-Serif" font-size="10.00">_value</text>
</a>
</g>
</g>
<!-- Node283&#45;&gt;Node284 -->
<g id="edge6" class="edge"><title>Node283&#45;&gt;Node284</title>
<path fill="none" stroke="midnightblue" d="M221.043,-268.5C206.955,-268.5 192.525,-268.5 178.673,-268.5"/>
<polygon fill="midnightblue" stroke="midnightblue" points="221.228,-272 231.228,-268.5 221.228,-265 221.228,-272"/>
</g>
<!-- Node286 -->
<g id="node9" class="node"><title>Node286</title>
<g id="a_node9"><a xlink:href="classkoala_1_1_spreadsheet_1_1_spreadsheet.html#af50724d01ff5b3ae09ecc1bdfbfb0fed" target="_top" xlink:title=" ">
<polygon fill="white" stroke="black" points="232,-204.5 232,-234.5 404,-234.5 404,-204.5 232,-204.5"/>
<text text-anchor="start" x="240" y="-222.5" font-family="Helvetica,sans-Serif" font-size="10.00">koala.Spreadsheet.Spreadsheet.set</text>
<text text-anchor="middle" x="318" y="-211.5" font-family="Helvetica,sans-Serif" font-size="10.00">_formula</text>
</a>
</g>
</g>
<!-- Node285&#45;&gt;Node286 -->
<g id="edge8" class="edge"><title>Node285&#45;&gt;Node286</title>
<path fill="none" stroke="midnightblue" d="M451.278,-221.241C435.674,-221.035 419.6,-220.824 404.269,-220.622"/>
<polygon fill="midnightblue" stroke="midnightblue" points="451.407,-224.742 461.453,-221.374 451.499,-217.743 451.407,-224.742"/>
</g>
<!-- Node291&#45;&gt;Node291 -->
<g id="edge14" class="edge"><title>Node291&#45;&gt;Node291</title>
<path fill="none" stroke="midnightblue" d="M796.852,-40.9579C793.147,-45.679 783.196,-49 767,-49 740.422,-49 730.663,-40.0566 737.723,-30.659"/>
<polygon fill="midnightblue" stroke="midnightblue" points="800.329,-40.4487 796.277,-30.659 793.34,-40.8383 800.329,-40.4487"/>
</g>
<!-- Node292 -->
<g id="node15" class="node"><title>Node292</title>
<g id="a_node15"><a xlink:href="classkoala_1_1_spreadsheet_1_1_spreadsheet.html#a8ebd4153a8499a4bf7fdf0bde89f12f0" target="_top" xlink:title=" ">
<polygon fill="white" stroke="black" points="462,-0.5 462,-30.5 634,-30.5 634,-0.5 462,-0.5"/>
<text text-anchor="start" x="470" y="-18.5" font-family="Helvetica,sans-Serif" font-size="10.00">koala.Spreadsheet.Spreadsheet.get</text>
<text text-anchor="middle" x="548" y="-7.5" font-family="Helvetica,sans-Serif" font-size="10.00">_pointer_arguments_from_ast</text>
</a>
</g>
</g>
<!-- Node291&#45;&gt;Node292 -->
<g id="edge15" class="edge"><title>Node291&#45;&gt;Node292</title>
<path fill="none" stroke="midnightblue" d="M670.727,-15.5C658.586,-15.5 646.221,-15.5 634.252,-15.5"/>
<polygon fill="midnightblue" stroke="midnightblue" points="670.859,-19.0001 680.859,-15.5 670.859,-12.0001 670.859,-19.0001"/>
</g>
<!-- Node292&#45;&gt;Node292 -->
<g id="edge18" class="edge"><title>Node292&#45;&gt;Node292</title>
<path fill="none" stroke="midnightblue" d="M586.736,-40.9579C581.928,-45.679 569.016,-49 548,-49 513.512,-49 500.848,-40.0566 510.009,-30.659"/>
<polygon fill="midnightblue" stroke="midnightblue" points="590.203,-40.3804 585.991,-30.659 583.222,-40.8855 590.203,-40.3804"/>
</g>
<!-- Node293 -->
<g id="node16" class="node"><title>Node293</title>
<g id="a_node16"><a xlink:href="classkoala_1_1_spreadsheet_1_1_spreadsheet.html#a6f233266d3e106c54dc37886dba18e9a" target="_top" xlink:title=" ">
<polygon fill="white" stroke="black" points="231.5,-0.5 231.5,-30.5 404.5,-30.5 404.5,-0.5 231.5,-0.5"/>
<text text-anchor="start" x="239.5" y="-18.5" font-family="Helvetica,sans-Serif" font-size="10.00">koala.Spreadsheet.Spreadsheet.find</text>
<text text-anchor="middle" x="318" y="-7.5" font-family="Helvetica,sans-Serif" font-size="10.00">_pointer_arguments</text>
</a>
</g>
</g>
<!-- Node292&#45;&gt;Node293 -->
<g id="edge16" class="edge"><title>Node292&#45;&gt;Node293</title>
<path fill="none" stroke="midnightblue" d="M451.661,-15.5C436.144,-15.5 420.152,-15.5 404.879,-15.5"/>
<polygon fill="midnightblue" stroke="midnightblue" points="451.777,-19.0001 461.777,-15.5 451.777,-12.0001 451.777,-19.0001"/>
</g>
<!-- Node294 -->
<g id="node17" class="node"><title>Node294</title>
<g id="a_node17"><a xlink:href="classkoala_1_1_spreadsheet_1_1_spreadsheet.html#a988fc1ddf090bf9746135ce759907a5a" target="_top" xlink:title=" ">
<polygon fill="white" stroke="black" points="0,-0.5 0,-30.5 185,-30.5 185,-0.5 0,-0.5"/>
<text text-anchor="start" x="8" y="-18.5" font-family="Helvetica,sans-Serif" font-size="10.00">koala.Spreadsheet.Spreadsheet.detect</text>
<text text-anchor="middle" x="92.5" y="-7.5" font-family="Helvetica,sans-Serif" font-size="10.00">_alive</text>
</a>
</g>
</g>
<!-- Node293&#45;&gt;Node294 -->
<g id="edge17" class="edge"><title>Node293&#45;&gt;Node294</title>
<path fill="none" stroke="midnightblue" d="M220.932,-15.5C209.13,-15.5 197.091,-15.5 185.353,-15.5"/>
<polygon fill="midnightblue" stroke="midnightblue" points="221.228,-19.0001 231.228,-15.5 221.228,-12.0001 221.228,-19.0001"/>
</g>
</g>
</svg>
        <g id="navigator" transform="translate(0 0)" fill="#404254">
                <rect fill="#f2f5e9" fill-opacity="0.5" stroke="#606060" stroke-width=".5" x="0" y="0" width="60" height="60"/>
                <use id="zoomplus" xlink:href="#zoomPlus" x="17" y="9" onmousedown="handleZoom(evt,'in')"/>
                <use id="zoomminus" xlink:href="#zoomMin" x="42" y="9" onmousedown="handleZoom(evt,'out')"/>
                <use id="reset" xlink:href="#resetDef" x="30" y="36" onmousedown="handleReset()"/>
                <g id="arrowUp" xlink:href="#dirArrow" transform="translate(30 24)" onmousedown="handlePan(0,-1)">
                  <use xlink:href="#rim" fill="#404040">
                        <set attributeName="fill" to="#808080" begin="arrowUp.mouseover" end="arrowUp.mouseout"/>
                  </use>
                  <path fill="none" stroke="white" stroke-width="1.5" d="M0,-3.0v7 M-2.5,-0.5L0,-3.0L2.5,-0.5"/>
                </g>
                <g id="arrowRight" xlink:href="#dirArrow" transform="rotate(90) translate(36 -43)" onmousedown="handlePan(1,0)">
                  <use xlink:href="#rim" fill="#404040">
                        <set attributeName="fill" to="#808080" begin="arrowRight.mouseover" end="arrowRight.mouseout"/>
                  </use>
                  <path fill="none" stroke="white" stroke-width="1.5" d="M0,-3.0v7 M-2.5,-0.5L0,-3.0L2.5,-0.5"/>
                </g>
                <g id="arrowDown" xlink:href="#dirArrow" transform="rotate(180) translate(-30 -48)" onmousedown="handlePan(0,1)">
                  <use xlink:href="#rim" fill="#404040">
                        <set attributeName="fill" to="#808080" begin="arrowDown.mouseover" end="arrowDown.mouseout"/>
                  </use>
                  <path fill="none" stroke="white" stroke-width="1.5" d="M0,-3.0v7 M-2.5,-0.5L0,-3.0L2.5,-0.5"/>
                </g>
                <g id="arrowLeft" xlink:href="#dirArrow" transform="rotate(270) translate(-36 17)" onmousedown="handlePan(-1,0)">
                  <use xlink:href="#rim" fill="#404040">
                        <set attributeName="fill" to="#808080" begin="arrowLeft.mouseover" end="arrowLeft.mouseout"/>
                  </use>
                  <path fill="none" stroke="white" stroke-width="1.5" d="M0,-3.0v7 M-2.5,-0.5L0,-3.0L2.5,-0.5"/>
                </g>
        </g>
        <svg viewBox="0 0 15 15" width="100%" height="30px" preserveAspectRatio="xMaxYMin meet">
         <g id="arrow_out" transform="scale(0.3 0.3)">
          <a xlink:href="namespacekoala_1_1utils_a1d3620df245d23fea05928298cabc2ac_icgraph_org.svg" target="_base">
           <rect id="button" ry="5" rx="5" y="6" x="6" height="38" width="38"
                fill="#f2f5e9" fill-opacity="0.5" stroke="#606060" stroke-width="1.0"/>
           <path id="arrow"
             d="M 11.500037,31.436501 C 11.940474,20.09759 22.043105,11.32322 32.158766,21.979434 L 37.068811,17.246167 C 37.068811,17.246167 37.088388,32 37.088388,32 L 22.160133,31.978069 C 22.160133,31.978069 26.997745,27.140456 26.997745,27.140456 C 18.528582,18.264221 13.291696,25.230495 11.500037,31.436501 z"
             style="fill:#404040;"/>
          </a>
         </g>
        </svg>
</svg>
