<?xml version="1.0" encoding="UTF-8" standalone="no"?>
<!DOCTYPE svg PUBLIC "-//W3C//DTD SVG 1.1//EN"
 "http://www.w3.org/Graphics/SVG/1.1/DTD/svg11.dtd">
<!-- Generated by graphviz version 2.38.0 (20140413.2041)
 -->
<!-- Title: koala.utils.split_address Pages: 1 -->
<svg width="1144pt" height="304pt"
 viewBox="0.00 0.00 1144.00 303.50" xmlns="http://www.w3.org/2000/svg" xmlns:xlink="http://www.w3.org/1999/xlink">
<g id="graph0" class="graph" transform="scale(1 1) rotate(0) translate(4 299.5)">
<title>koala.utils.split_address</title>
<polygon fill="white" stroke="none" points="-4,4 -4,-299.5 1140,-299.5 1140,4 -4,4"/>
<!-- Node252 -->
<g id="node1" class="node"><title>Node252</title>
<g id="a_node1"><a xlink:title=" ">
<polygon fill="#bfbfbf" stroke="black" points="1014,-161 1014,-180 1136,-180 1136,-161 1014,-161"/>
<text text-anchor="middle" x="1075" y="-168" font-family="Helvetica,sans-Serif" font-size="10.00">koala.utils.split_address</text>
</a>
</g>
</g>
<!-- Node253 -->
<g id="node2" class="node"><title>Node253</title>
<g id="a_node2"><a xlink:href="classkoala_1_1_cell_1_1_cell.html#a96a3daa57755d5442d485e7a9ebebce2" target="_top" xlink:title=" ">
<polygon fill="white" stroke="black" points="854,-276 854,-295 970,-295 970,-276 854,-276"/>
<text text-anchor="middle" x="912" y="-283" font-family="Helvetica,sans-Serif" font-size="10.00">koala.Cell.Cell.__init__</text>
</a>
</g>
</g>
<!-- Node252&#45;&gt;Node253 -->
<g id="edge1" class="edge"><title>Node252&#45;&gt;Node253</title>
<path fill="none" stroke="midnightblue" d="M1060.86,-188.281C1044,-209.86 1012.75,-245.908 978,-266.5 971.527,-270.336 964.227,-273.441 956.92,-275.941"/>
<polygon fill="midnightblue" stroke="midnightblue" points="1063.69,-190.336 1066.98,-180.264 1058.13,-186.088 1063.69,-190.336"/>
</g>
<!-- Node254 -->
<g id="node3" class="node"><title>Node254</title>
<g id="a_node3"><a xlink:href="classkoala_1_1_cell_1_1_cell.html#abb9596a2117f4095a27eab5cddc46f17" target="_top" xlink:title=" ">
<polygon fill="white" stroke="black" points="864.5,-226.5 864.5,-256.5 959.5,-256.5 959.5,-226.5 864.5,-226.5"/>
<text text-anchor="start" x="872.5" y="-244.5" font-family="Helvetica,sans-Serif" font-size="10.00">koala.Cell.Cell.inc</text>
<text text-anchor="middle" x="912" y="-233.5" font-family="Helvetica,sans-Serif" font-size="10.00">_col_address</text>
</a>
</g>
</g>
<!-- Node252&#45;&gt;Node254 -->
<g id="edge2" class="edge"><title>Node252&#45;&gt;Node254</title>
<path fill="none" stroke="midnightblue" d="M1046.86,-184.704C1027.82,-194.442 1001.64,-207.379 978,-217.5 970.812,-220.577 963.084,-223.639 955.553,-226.495"/>
<polygon fill="midnightblue" stroke="midnightblue" points="1048.57,-187.763 1055.85,-180.072 1045.36,-181.54 1048.57,-187.763"/>
</g>
<!-- Node255 -->
<g id="node4" class="node"><title>Node255</title>
<g id="a_node4"><a xlink:href="classkoala_1_1_cell_1_1_cell.html#add5ffef213fb74dcbe0e00df5bacb3eb" target="_top" xlink:title=" ">
<polygon fill="white" stroke="black" points="864.5,-177.5 864.5,-207.5 959.5,-207.5 959.5,-177.5 864.5,-177.5"/>
<text text-anchor="start" x="872.5" y="-195.5" font-family="Helvetica,sans-Serif" font-size="10.00">koala.Cell.Cell.inc</text>
<text text-anchor="middle" x="912" y="-184.5" font-family="Helvetica,sans-Serif" font-size="10.00">_row_address</text>
</a>
</g>
</g>
<!-- Node252&#45;&gt;Node255 -->
<g id="edge3" class="edge"><title>Node252&#45;&gt;Node255</title>
<path fill="none" stroke="midnightblue" d="M1003.43,-180.143C988.611,-182.168 973.336,-184.255 959.656,-186.125"/>
<polygon fill="midnightblue" stroke="midnightblue" points="1004.16,-183.576 1013.59,-178.755 1003.21,-176.641 1004.16,-183.576"/>
</g>
<!-- Node256 -->
<g id="node5" class="node"><title>Node256</title>
<g id="a_node5"><a xlink:href="classkoala_1_1_cell_1_1_cell.html#a1e2a04d85dfd22700a19466ef1511523" target="_top" xlink:title=" ">
<polygon fill="white" stroke="black" points="846,-139 846,-158 978,-158 978,-139 846,-139"/>
<text text-anchor="middle" x="912" y="-146" font-family="Helvetica,sans-Serif" font-size="10.00">koala.Cell.Cell.resolve_cell</text>
</a>
</g>
</g>
<!-- Node252&#45;&gt;Node256 -->
<g id="edge4" class="edge"><title>Node252&#45;&gt;Node256</title>
<path fill="none" stroke="midnightblue" d="M1003.41,-160.854C994.98,-159.702 986.405,-158.53 978.059,-157.39"/>
<polygon fill="midnightblue" stroke="midnightblue" points="1003.21,-164.359 1013.59,-162.245 1004.16,-157.424 1003.21,-164.359"/>
</g>
<!-- Node257 -->
<g id="node6" class="node"><title>Node257</title>
<g id="a_node6"><a xlink:href="namespacekoala_1_1utils.html#a1d3620df245d23fea05928298cabc2ac" target="_top" xlink:title=" ">
<polygon fill="white" stroke="black" points="865,-89.5 865,-119.5 959,-119.5 959,-89.5 865,-89.5"/>
<text text-anchor="start" x="873" y="-107.5" font-family="Helvetica,sans-Serif" font-size="10.00">koala.utils.resolve</text>
<text text-anchor="middle" x="912" y="-96.5" font-family="Helvetica,sans-Serif" font-size="10.00">_range</text>
</a>
</g>
</g>
<!-- Node252&#45;&gt;Node257 -->
<g id="edge5" class="edge"><title>Node252&#45;&gt;Node257</title>
<path fill="none" stroke="midnightblue" d="M1043.12,-156.971C1024.36,-148.838 999.88,-138.377 978,-129.5 969.933,-126.227 961.263,-122.818 952.966,-119.608"/>
<polygon fill="midnightblue" stroke="midnightblue" points="1041.8,-160.214 1052.36,-160.992 1044.59,-153.794 1041.8,-160.214"/>
</g>
<!-- Node265 -->
<g id="node14" class="node"><title>Node265</title>
<g id="a_node14"><a xlink:href="namespacekoala_1_1utils.html#a59f09f06769211b50aedfb12b5965ba0" target="_top" xlink:title=" ">
<polygon fill="white" stroke="black" points="848.5,-51 848.5,-70 975.5,-70 975.5,-51 848.5,-51"/>
<text text-anchor="middle" x="912" y="-58" font-family="Helvetica,sans-Serif" font-size="10.00">koala.utils.address2index</text>
</a>
</g>
</g>
<!-- Node252&#45;&gt;Node265 -->
<g id="edge15" class="edge"><title>Node252&#45;&gt;Node265</title>
<path fill="none" stroke="midnightblue" d="M1059.81,-153.051C1042.49,-132.845 1011.37,-99.8645 978,-80.5 970.647,-76.2332 962.289,-72.7844 954.072,-70.031"/>
<polygon fill="midnightblue" stroke="midnightblue" points="1057.24,-155.439 1066.35,-160.852 1062.6,-150.941 1057.24,-155.439"/>
</g>
<!-- Node258 -->
<g id="node7" class="node"><title>Node258</title>
<g id="a_node7"><a xlink:href="classkoala_1_1_cell_1_1_cell.html#ab1fa079614840ca386e0970338c2d8f0" target="_top" xlink:title=" ">
<polygon fill="white" stroke="black" points="671,-155.5 671,-185.5 777,-185.5 777,-155.5 671,-155.5"/>
<text text-anchor="start" x="679" y="-173.5" font-family="Helvetica,sans-Serif" font-size="10.00">koala.Cell.Cell.make</text>
<text text-anchor="middle" x="724" y="-162.5" font-family="Helvetica,sans-Serif" font-size="10.00">_cells</text>
</a>
</g>
</g>
<!-- Node257&#45;&gt;Node258 -->
<g id="edge6" class="edge"><title>Node257&#45;&gt;Node258</title>
<path fill="none" stroke="midnightblue" d="M861.564,-123.211C856.295,-125.295 851.027,-127.418 846,-129.5 829.824,-136.2 826.435,-139.461 810,-145.5 799.46,-149.373 788.02,-153.07 777.049,-156.376"/>
<polygon fill="midnightblue" stroke="midnightblue" points="862.962,-126.422 870.997,-119.517 860.409,-119.904 862.962,-126.422"/>
</g>
<!-- Node259 -->
<g id="node8" class="node"><title>Node259</title>
<g id="a_node8"><a xlink:href="namespacekoala_1_1excellib.html#ab1d9d224f4ee11e755d39b5ad520f371" target="_top" xlink:title=" ">
<polygon fill="white" stroke="black" points="673,-117 673,-136 775,-136 775,-117 673,-117"/>
<text text-anchor="middle" x="724" y="-124" font-family="Helvetica,sans-Serif" font-size="10.00">koala.excellib.offset</text>
</a>
</g>
</g>
<!-- Node257&#45;&gt;Node259 -->
<g id="edge7" class="edge"><title>Node257&#45;&gt;Node259</title>
<path fill="none" stroke="midnightblue" d="M854.363,-111.199C829.088,-114.189 799.559,-117.681 775.1,-120.574"/>
<polygon fill="midnightblue" stroke="midnightblue" points="855.025,-114.645 864.544,-109.995 854.202,-107.694 855.025,-114.645"/>
</g>
<!-- Node260 -->
<g id="node9" class="node"><title>Node260</title>
<g id="a_node9"><a xlink:href="classkoala_1_1_range_1_1_range_core.html#ac49ba3473e8bcd9585eedd4fa9603bf2" target="_top" xlink:title=" ">
<polygon fill="white" stroke="black" points="661.5,-67.5 661.5,-97.5 786.5,-97.5 786.5,-67.5 661.5,-67.5"/>
<text text-anchor="start" x="669.5" y="-85.5" font-family="Helvetica,sans-Serif" font-size="10.00">koala.Range.RangeCore.</text>
<text text-anchor="middle" x="724" y="-74.5" font-family="Helvetica,sans-Serif" font-size="10.00">__init__</text>
</a>
</g>
</g>
<!-- Node257&#45;&gt;Node260 -->
<g id="edge8" class="edge"><title>Node257&#45;&gt;Node260</title>
<path fill="none" stroke="midnightblue" d="M854.6,-97.8291C833.133,-95.29 808.57,-92.3847 786.642,-89.7909"/>
<polygon fill="midnightblue" stroke="midnightblue" points="854.202,-101.306 864.544,-99.0052 855.025,-94.3548 854.202,-101.306"/>
</g>
<!-- Node261 -->
<g id="node10" class="node"><title>Node261</title>
<g id="a_node10"><a xlink:href="classkoala_1_1_spreadsheet_1_1_spreadsheet.html#aa23818eb03be8a82c0969bd5338fdf2d" target="_top" xlink:title=" ">
<polygon fill="white" stroke="black" points="638,-0.5 638,-30.5 810,-30.5 810,-0.5 638,-0.5"/>
<text text-anchor="start" x="646" y="-18.5" font-family="Helvetica,sans-Serif" font-size="10.00">koala.Spreadsheet.Spreadsheet.get</text>
<text text-anchor="middle" x="724" y="-7.5" font-family="Helvetica,sans-Serif" font-size="10.00">_arguments_from_ast</text>
</a>
</g>
</g>
<!-- Node257&#45;&gt;Node261 -->
<g id="edge9" class="edge"><title>Node257&#45;&gt;Node261</title>
<path fill="none" stroke="midnightblue" d="M859.5,-85.5787C854.894,-83.6203 850.336,-81.5818 846,-79.5 829.302,-71.4827 826.272,-67.3514 810,-58.5 792.277,-48.8588 772.141,-38.6411 755.918,-30.5859"/>
<polygon fill="midnightblue" stroke="midnightblue" points="858.388,-88.9056 868.967,-89.4742 861.052,-82.4322 858.388,-88.9056"/>
</g>
<!-- Node261&#45;&gt;Node261 -->
<g id="edge10" class="edge"><title>Node261&#45;&gt;Node261</title>
<path fill="none" stroke="midnightblue" d="M757.405,-40.9579C753.259,-45.679 742.124,-49 724,-49 694.258,-49 683.337,-40.0566 691.237,-30.659"/>
<polygon fill="midnightblue" stroke="midnightblue" points="760.879,-40.4217 756.763,-30.659 753.892,-40.8575 760.879,-40.4217"/>
</g>
<!-- Node262 -->
<g id="node11" class="node"><title>Node262</title>
<g id="a_node11"><a xlink:href="classkoala_1_1_spreadsheet_1_1_spreadsheet.html#a8ebd4153a8499a4bf7fdf0bde89f12f0" target="_top" xlink:title=" ">
<polygon fill="white" stroke="black" points="430,-0.5 430,-30.5 602,-30.5 602,-0.5 430,-0.5"/>
<text text-anchor="start" x="438" y="-18.5" font-family="Helvetica,sans-Serif" font-size="10.00">koala.Spreadsheet.Spreadsheet.get</text>
<text text-anchor="middle" x="516" y="-7.5" font-family="Helvetica,sans-Serif" font-size="10.00">_pointer_arguments_from_ast</text>
</a>
</g>
</g>
<!-- Node261&#45;&gt;Node262 -->
<g id="edge11" class="edge"><title>Node261&#45;&gt;Node262</title>
<path fill="none" stroke="midnightblue" d="M627.486,-15.5C619.053,-15.5 610.552,-15.5 602.211,-15.5"/>
<polygon fill="midnightblue" stroke="midnightblue" points="627.725,-19.0001 637.725,-15.5 627.725,-12.0001 627.725,-19.0001"/>
</g>
<!-- Node262&#45;&gt;Node262 -->
<g id="edge14" class="edge"><title>Node262&#45;&gt;Node262</title>
<path fill="none" stroke="midnightblue" d="M552.959,-40.9579C548.372,-45.679 536.052,-49 516,-49 483.094,-49 471.011,-40.0566 479.752,-30.659"/>
<polygon fill="midnightblue" stroke="midnightblue" points="556.429,-40.3943 552.248,-30.659 549.445,-40.8763 556.429,-40.3943"/>
</g>
<!-- Node263 -->
<g id="node12" class="node"><title>Node263</title>
<g id="a_node12"><a xlink:href="classkoala_1_1_spreadsheet_1_1_spreadsheet.html#a6f233266d3e106c54dc37886dba18e9a" target="_top" xlink:title=" ">
<polygon fill="white" stroke="black" points="221,-0.5 221,-30.5 394,-30.5 394,-0.5 221,-0.5"/>
<text text-anchor="start" x="229" y="-18.5" font-family="Helvetica,sans-Serif" font-size="10.00">koala.Spreadsheet.Spreadsheet.find</text>
<text text-anchor="middle" x="307.5" y="-7.5" font-family="Helvetica,sans-Serif" font-size="10.00">_pointer_arguments</text>
</a>
</g>
</g>
<!-- Node262&#45;&gt;Node263 -->
<g id="edge12" class="edge"><title>Node262&#45;&gt;Node263</title>
<path fill="none" stroke="midnightblue" d="M419.538,-15.5C411.071,-15.5 402.533,-15.5 394.155,-15.5"/>
<polygon fill="midnightblue" stroke="midnightblue" points="419.816,-19.0001 429.816,-15.5 419.816,-12.0001 419.816,-19.0001"/>
</g>
<!-- Node264 -->
<g id="node13" class="node"><title>Node264</title>
<g id="a_node13"><a xlink:href="classkoala_1_1_spreadsheet_1_1_spreadsheet.html#a988fc1ddf090bf9746135ce759907a5a" target="_top" xlink:title=" ">
<polygon fill="white" stroke="black" points="0,-0.5 0,-30.5 185,-30.5 185,-0.5 0,-0.5"/>
<text text-anchor="start" x="8" y="-18.5" font-family="Helvetica,sans-Serif" font-size="10.00">koala.Spreadsheet.Spreadsheet.detect</text>
<text text-anchor="middle" x="92.5" y="-7.5" font-family="Helvetica,sans-Serif" font-size="10.00">_alive</text>
</a>
</g>
</g>
<!-- Node263&#45;&gt;Node264 -->
<g id="edge13" class="edge"><title>Node263&#45;&gt;Node264</title>
<path fill="none" stroke="midnightblue" d="M210.588,-15.5C202.18,-15.5 193.683,-15.5 185.31,-15.5"/>
<polygon fill="midnightblue" stroke="midnightblue" points="210.785,-19.0001 220.785,-15.5 210.785,-12.0001 210.785,-19.0001"/>
</g>
</g>
</svg>
